G04 #@! TF.GenerationSoftware,KiCad,Pcbnew,5.1.8-5.1.8*
G04 #@! TF.CreationDate,2020-12-15T19:44:39+01:00*
G04 #@! TF.ProjectId,ublox-breakout,75626c6f-782d-4627-9265-616b6f75742e,rev?*
G04 #@! TF.SameCoordinates,PX71f6ce0PY7cfd120*
G04 #@! TF.FileFunction,Copper,L4,Bot*
G04 #@! TF.FilePolarity,Positive*
%FSLAX46Y46*%
G04 Gerber Fmt 4.6, Leading zero omitted, Abs format (unit mm)*
G04 Created by KiCad (PCBNEW 5.1.8-5.1.8) date 2020-12-15 19:44:39*
%MOMM*%
%LPD*%
G01*
G04 APERTURE LIST*
G04 #@! TA.AperFunction,ComponentPad*
%ADD10C,2.250000*%
G04 #@! TD*
G04 #@! TA.AperFunction,ComponentPad*
%ADD11C,2.050000*%
G04 #@! TD*
G04 #@! TA.AperFunction,SMDPad,CuDef*
%ADD12C,10.200000*%
G04 #@! TD*
G04 #@! TA.AperFunction,SMDPad,CuDef*
%ADD13R,3.300000X3.500000*%
G04 #@! TD*
G04 #@! TA.AperFunction,ComponentPad*
%ADD14C,0.700000*%
G04 #@! TD*
G04 #@! TA.AperFunction,ComponentPad*
%ADD15C,4.400000*%
G04 #@! TD*
G04 #@! TA.AperFunction,ComponentPad*
%ADD16O,1.700000X1.700000*%
G04 #@! TD*
G04 #@! TA.AperFunction,ComponentPad*
%ADD17R,1.700000X1.700000*%
G04 #@! TD*
G04 #@! TA.AperFunction,ViaPad*
%ADD18C,0.800000*%
G04 #@! TD*
G04 #@! TA.AperFunction,Conductor*
%ADD19C,0.500000*%
G04 #@! TD*
G04 #@! TA.AperFunction,Conductor*
%ADD20C,0.350000*%
G04 #@! TD*
G04 #@! TA.AperFunction,Conductor*
%ADD21C,0.250000*%
G04 #@! TD*
G04 #@! TA.AperFunction,Conductor*
%ADD22C,0.100000*%
G04 #@! TD*
G04 APERTURE END LIST*
D10*
X19340000Y7440000D03*
X19340000Y2360000D03*
X14260000Y2360000D03*
X14260000Y7440000D03*
D11*
X16800000Y4900000D03*
D12*
X23200000Y20900000D03*
D13*
X23200000Y13000000D03*
X23200000Y28800000D03*
D14*
X4166726Y4226726D03*
X3000000Y4710000D03*
X1833274Y4226726D03*
X1350000Y3060000D03*
X1833274Y1893274D03*
X3000000Y1410000D03*
X4166726Y1893274D03*
X4650000Y3060000D03*
D15*
X3000000Y3060000D03*
D14*
X45366726Y4226726D03*
X44200000Y4710000D03*
X43033274Y4226726D03*
X42550000Y3060000D03*
X43033274Y1893274D03*
X44200000Y1410000D03*
X45366726Y1893274D03*
X45850000Y3060000D03*
D15*
X44200000Y3060000D03*
D14*
X45366726Y31426726D03*
X44200000Y31910000D03*
X43033274Y31426726D03*
X42550000Y30260000D03*
X43033274Y29093274D03*
X44200000Y28610000D03*
X45366726Y29093274D03*
X45850000Y30260000D03*
D15*
X44200000Y30260000D03*
D14*
X4166726Y31426726D03*
X3000000Y31910000D03*
X1833274Y31426726D03*
X1350000Y30260000D03*
X1833274Y29093274D03*
X3000000Y28610000D03*
X4166726Y29093274D03*
X4650000Y30260000D03*
D15*
X3000000Y30260000D03*
D16*
X4540000Y9400000D03*
X2000000Y9400000D03*
X4540000Y11940000D03*
X2000000Y11940000D03*
X4540000Y14480000D03*
X2000000Y14480000D03*
X4540000Y17020000D03*
X2000000Y17020000D03*
X4540000Y19560000D03*
X2000000Y19560000D03*
X4540000Y22100000D03*
D17*
X2000000Y22100000D03*
D10*
X40260000Y9520000D03*
X40260000Y14600000D03*
X45340000Y14600000D03*
X45340000Y9520000D03*
D11*
X42800000Y12060000D03*
D18*
X27800000Y20750000D03*
X18600000Y20850000D03*
X42700000Y20010000D03*
X43550000Y20710000D03*
X46000000Y19060000D03*
X45400000Y19960000D03*
X46300000Y21160000D03*
X45100000Y21160000D03*
X46300000Y22260000D03*
X45100000Y22260000D03*
X45700000Y24410000D03*
X43550000Y25010000D03*
X42700000Y25710000D03*
X46000000Y25760000D03*
X45400000Y26710000D03*
X39800000Y24260002D03*
X38400000Y17800000D03*
X38582041Y13266133D03*
X37428372Y14009432D03*
X36206027Y14685965D03*
X34818139Y14860000D03*
X33412092Y14860000D03*
X32200000Y12460000D03*
X33412092Y12460000D03*
X34818139Y12460000D03*
X36079434Y11983510D03*
X37220780Y11177328D03*
X38581890Y10862539D03*
X32200000Y14860000D03*
X35500000Y19660000D03*
X12300000Y12500000D03*
X15300000Y12500000D03*
X35500000Y16500000D03*
X9800000Y17600000D03*
X10300000Y22900000D03*
X15300000Y23000000D03*
X12200000Y21800000D03*
X11700000Y19200000D03*
X10600000Y18300000D03*
X15300000Y13600000D03*
X29100000Y14700000D03*
X29100000Y12500000D03*
X29600000Y2400000D03*
X28600000Y1400000D03*
X41500000Y24600000D03*
X35200000Y1400000D03*
X36800000Y1400000D03*
X25000000Y5700000D03*
X27100000Y5700000D03*
X26300000Y1300000D03*
X6050000Y31300000D03*
X6050000Y30200000D03*
X15300000Y24000000D03*
X39200000Y4800000D03*
X6100002Y28800000D03*
X7950000Y12950000D03*
X40100002Y31060000D03*
X27500018Y4000000D03*
X11500000Y31850000D03*
X13100000Y31850000D03*
X41000000Y20160000D03*
X40100000Y25599998D03*
X34500000Y30700000D03*
X15300000Y29600000D03*
X15300000Y28500000D03*
X32900000Y30500000D03*
X26300000Y8500000D03*
X12100000Y16500000D03*
X29099996Y18100000D03*
X12200000Y18300004D03*
X28650000Y28450000D03*
X12200000Y25200000D03*
X10750000Y11700000D03*
D19*
X4540000Y21518002D02*
X4540000Y22100000D01*
X6400000Y20240000D02*
X4540000Y22100000D01*
X6400000Y12100000D02*
X6400000Y20240000D01*
X9100000Y9400000D02*
X6400000Y12100000D01*
X21200000Y9400000D02*
X9100000Y9400000D01*
X23500000Y7100000D02*
X21200000Y9400000D01*
X23500000Y4800000D02*
X23500000Y7100000D01*
X24300000Y4000000D02*
X23500000Y4800000D01*
X27500018Y4000000D02*
X24300000Y4000000D01*
X39310002Y31850000D02*
X40100002Y31060000D01*
X11400000Y31850000D02*
X39310002Y31850000D01*
X4540000Y24990000D02*
X11400000Y31850000D01*
X4540000Y22100000D02*
X4540000Y24990000D01*
D20*
X40100000Y25200000D02*
X40100000Y25599998D01*
X40600000Y24700000D02*
X40100000Y25200000D01*
X40600000Y20560000D02*
X40600000Y24700000D01*
X41000000Y20160000D02*
X40600000Y20560000D01*
X23200000Y13000000D02*
X17650000Y13000000D01*
X16350000Y11700000D02*
X10750000Y11700000D01*
X17650000Y13000000D02*
X16350000Y11700000D01*
D21*
X46316167Y32846691D02*
X46427913Y32812953D01*
X46530971Y32758157D01*
X46621430Y32684380D01*
X46695832Y32594444D01*
X46751350Y32491764D01*
X46785865Y32380265D01*
X46800001Y32245776D01*
X46800001Y27825000D01*
X45040800Y27825000D01*
X45211792Y27878566D01*
X45617968Y28095673D01*
X45872713Y28410510D01*
X44200000Y30083223D01*
X42527287Y28410510D01*
X42782032Y28095673D01*
X43231518Y27860628D01*
X43352915Y27825000D01*
X41800000Y27825000D01*
X41775614Y27822598D01*
X41752165Y27815485D01*
X41730554Y27803934D01*
X41711612Y27788388D01*
X41696066Y27769446D01*
X41684515Y27747835D01*
X41677402Y27724386D01*
X41675000Y27700000D01*
X41675000Y24500000D01*
X41677402Y24475614D01*
X41684515Y24452165D01*
X41696066Y24430554D01*
X41711612Y24411612D01*
X41730554Y24396066D01*
X41752165Y24384515D01*
X41775614Y24377402D01*
X41800000Y24375000D01*
X42100000Y24375000D01*
X42124386Y24377402D01*
X42147835Y24384515D01*
X42169446Y24396066D01*
X42188388Y24411612D01*
X42203934Y24430554D01*
X42215485Y24452165D01*
X42222598Y24475614D01*
X42225000Y24500000D01*
X42225000Y27275000D01*
X46800001Y27275000D01*
X46800001Y18425000D01*
X42225000Y18425000D01*
X42225000Y23800000D01*
X42222598Y23824386D01*
X42215485Y23847835D01*
X42203934Y23869446D01*
X42188388Y23888388D01*
X42169446Y23903934D01*
X42147835Y23915485D01*
X42124386Y23922598D01*
X42100000Y23925000D01*
X41800000Y23925000D01*
X41775614Y23922598D01*
X41752165Y23915485D01*
X41730554Y23903934D01*
X41711612Y23888388D01*
X41696066Y23869446D01*
X41684515Y23847835D01*
X41677402Y23824386D01*
X41675000Y23800000D01*
X41675000Y20544754D01*
X41601982Y20654034D01*
X41494034Y20761982D01*
X41367100Y20846796D01*
X41226059Y20905217D01*
X41150000Y20920346D01*
X41150000Y24672989D01*
X41152660Y24700000D01*
X41150000Y24727011D01*
X41150000Y24727018D01*
X41142042Y24807819D01*
X41110592Y24911494D01*
X41110592Y24911495D01*
X41059521Y25007042D01*
X41008013Y25069804D01*
X40990790Y25090790D01*
X40969804Y25108013D01*
X40803820Y25273997D01*
X40845217Y25373939D01*
X40875000Y25523667D01*
X40875000Y25676329D01*
X40845217Y25826057D01*
X40786796Y25967098D01*
X40701982Y26094032D01*
X40594034Y26201980D01*
X40467100Y26286794D01*
X40326059Y26345215D01*
X40176331Y26374998D01*
X40023669Y26374998D01*
X39873941Y26345215D01*
X39732900Y26286794D01*
X39605966Y26201980D01*
X39498018Y26094032D01*
X39413204Y25967098D01*
X39354783Y25826057D01*
X39325000Y25676329D01*
X39325000Y25523667D01*
X39354783Y25373939D01*
X39413204Y25232898D01*
X39498018Y25105964D01*
X39578057Y25025925D01*
X39589408Y24988507D01*
X39640479Y24892958D01*
X39709210Y24809210D01*
X39730196Y24791987D01*
X40050001Y24472182D01*
X40050000Y20587008D01*
X40047340Y20560000D01*
X40050000Y20532992D01*
X40050000Y20532983D01*
X40057958Y20452182D01*
X40089408Y20348507D01*
X40140479Y20252958D01*
X40209210Y20169210D01*
X40225000Y20156251D01*
X40225000Y20083669D01*
X40254783Y19933941D01*
X40313204Y19792900D01*
X40398018Y19665966D01*
X40505966Y19558018D01*
X40632900Y19473204D01*
X40773941Y19414783D01*
X40923669Y19385000D01*
X41076331Y19385000D01*
X41226059Y19414783D01*
X41367100Y19473204D01*
X41494034Y19558018D01*
X41601982Y19665966D01*
X41675000Y19775246D01*
X41675000Y18000000D01*
X41677402Y17975614D01*
X41684515Y17952165D01*
X41696066Y17930554D01*
X41711612Y17911612D01*
X41730554Y17896066D01*
X41752165Y17884515D01*
X41775614Y17877402D01*
X41800000Y17875000D01*
X46800001Y17875000D01*
X46800000Y14969860D01*
X46705961Y15237165D01*
X46628670Y15381765D01*
X46423973Y15507197D01*
X45516777Y14600000D01*
X46423973Y13692803D01*
X46628670Y13818235D01*
X46756424Y14084663D01*
X46800000Y14254778D01*
X46800000Y9889860D01*
X46705961Y10157165D01*
X46628670Y10301765D01*
X46423973Y10427197D01*
X45516777Y9520000D01*
X46423973Y8612803D01*
X46628670Y8738235D01*
X46756424Y9004663D01*
X46800000Y9174777D01*
X46800000Y1079564D01*
X46786691Y943833D01*
X46752953Y832088D01*
X46698156Y729028D01*
X46624380Y638570D01*
X46534444Y564168D01*
X46431764Y508650D01*
X46320265Y474135D01*
X46185785Y460000D01*
X1019564Y460000D01*
X883833Y473309D01*
X772088Y507047D01*
X669028Y561844D01*
X578570Y635620D01*
X504168Y725556D01*
X448650Y828236D01*
X414135Y939735D01*
X400000Y1074215D01*
X400000Y1210510D01*
X1327287Y1210510D01*
X1582032Y895673D01*
X2031518Y660628D01*
X2518221Y517789D01*
X3023438Y472646D01*
X3527756Y526934D01*
X4011792Y678566D01*
X4417968Y895673D01*
X4672713Y1210510D01*
X4607196Y1276027D01*
X13352803Y1276027D01*
X13478235Y1071330D01*
X13744663Y943576D01*
X14030896Y870255D01*
X14325933Y854184D01*
X14618437Y895981D01*
X14897165Y994039D01*
X15041765Y1071330D01*
X15167197Y1276027D01*
X18432803Y1276027D01*
X18558235Y1071330D01*
X18824663Y943576D01*
X19110896Y870255D01*
X19405933Y854184D01*
X19698437Y895981D01*
X19977165Y994039D01*
X20121765Y1071330D01*
X20207050Y1210510D01*
X42527287Y1210510D01*
X42782032Y895673D01*
X43231518Y660628D01*
X43718221Y517789D01*
X44223438Y472646D01*
X44727756Y526934D01*
X45211792Y678566D01*
X45617968Y895673D01*
X45872713Y1210510D01*
X44200000Y2883223D01*
X42527287Y1210510D01*
X20207050Y1210510D01*
X20247197Y1276027D01*
X19340000Y2183223D01*
X18432803Y1276027D01*
X15167197Y1276027D01*
X14260000Y2183223D01*
X13352803Y1276027D01*
X4607196Y1276027D01*
X3000000Y2883223D01*
X1327287Y1210510D01*
X400000Y1210510D01*
X400000Y3036562D01*
X412646Y3036562D01*
X466934Y2532244D01*
X618566Y2048208D01*
X835673Y1642032D01*
X1150510Y1387287D01*
X2823223Y3060000D01*
X3176777Y3060000D01*
X4849490Y1387287D01*
X5164327Y1642032D01*
X5399372Y2091518D01*
X5458816Y2294067D01*
X12754184Y2294067D01*
X12795981Y2001563D01*
X12894039Y1722835D01*
X12971330Y1578235D01*
X13176027Y1452803D01*
X14083223Y2360000D01*
X14436777Y2360000D01*
X15343973Y1452803D01*
X15548670Y1578235D01*
X15676424Y1844663D01*
X15749745Y2130896D01*
X15758633Y2294067D01*
X17834184Y2294067D01*
X17875981Y2001563D01*
X17974039Y1722835D01*
X18051330Y1578235D01*
X18256027Y1452803D01*
X19163223Y2360000D01*
X19516777Y2360000D01*
X20423973Y1452803D01*
X20628670Y1578235D01*
X20756424Y1844663D01*
X20829745Y2130896D01*
X20845816Y2425933D01*
X20804019Y2718437D01*
X20705961Y2997165D01*
X20684903Y3036562D01*
X41612646Y3036562D01*
X41666934Y2532244D01*
X41818566Y2048208D01*
X42035673Y1642032D01*
X42350510Y1387287D01*
X44023223Y3060000D01*
X44376777Y3060000D01*
X46049490Y1387287D01*
X46364327Y1642032D01*
X46599372Y2091518D01*
X46742211Y2578221D01*
X46787354Y3083438D01*
X46733066Y3587756D01*
X46581434Y4071792D01*
X46364327Y4477968D01*
X46049490Y4732713D01*
X44376777Y3060000D01*
X44023223Y3060000D01*
X42350510Y4732713D01*
X42035673Y4477968D01*
X41800628Y4028482D01*
X41657789Y3541779D01*
X41612646Y3036562D01*
X20684903Y3036562D01*
X20628670Y3141765D01*
X20423973Y3267197D01*
X19516777Y2360000D01*
X19163223Y2360000D01*
X18256027Y3267197D01*
X18051330Y3141765D01*
X17923576Y2875337D01*
X17850255Y2589104D01*
X17834184Y2294067D01*
X15758633Y2294067D01*
X15765816Y2425933D01*
X15724019Y2718437D01*
X15625961Y2997165D01*
X15548670Y3141765D01*
X15343973Y3267197D01*
X14436777Y2360000D01*
X14083223Y2360000D01*
X13176027Y3267197D01*
X12971330Y3141765D01*
X12843576Y2875337D01*
X12770255Y2589104D01*
X12754184Y2294067D01*
X5458816Y2294067D01*
X5542211Y2578221D01*
X5587354Y3083438D01*
X5548544Y3443973D01*
X13352803Y3443973D01*
X14260000Y2536777D01*
X15167197Y3443973D01*
X15041765Y3648670D01*
X14775337Y3776424D01*
X14489104Y3849745D01*
X14194067Y3865816D01*
X13901563Y3824019D01*
X13622835Y3725961D01*
X13478235Y3648670D01*
X13352803Y3443973D01*
X5548544Y3443973D01*
X5533066Y3587756D01*
X5381434Y4071792D01*
X5164327Y4477968D01*
X4849490Y4732713D01*
X3176777Y3060000D01*
X2823223Y3060000D01*
X1150510Y4732713D01*
X835673Y4477968D01*
X600628Y4028482D01*
X457789Y3541779D01*
X412646Y3036562D01*
X400000Y3036562D01*
X400000Y4909490D01*
X1327287Y4909490D01*
X3000000Y3236777D01*
X4672713Y4909490D01*
X4542189Y5070804D01*
X15065800Y5070804D01*
X15065800Y4729196D01*
X15132444Y4394153D01*
X15263172Y4078548D01*
X15452959Y3794512D01*
X15694512Y3552959D01*
X15978548Y3363172D01*
X16294153Y3232444D01*
X16629196Y3165800D01*
X16970804Y3165800D01*
X17305847Y3232444D01*
X17621452Y3363172D01*
X17742379Y3443973D01*
X18432803Y3443973D01*
X19340000Y2536777D01*
X20247197Y3443973D01*
X20121765Y3648670D01*
X19855337Y3776424D01*
X19569104Y3849745D01*
X19274067Y3865816D01*
X18981563Y3824019D01*
X18702835Y3725961D01*
X18558235Y3648670D01*
X18432803Y3443973D01*
X17742379Y3443973D01*
X17905488Y3552959D01*
X18147041Y3794512D01*
X18336828Y4078548D01*
X18467556Y4394153D01*
X18534200Y4729196D01*
X18534200Y5070804D01*
X18467556Y5405847D01*
X18336828Y5721452D01*
X18147041Y6005488D01*
X17905488Y6247041D01*
X17742380Y6356027D01*
X18432803Y6356027D01*
X18558235Y6151330D01*
X18824663Y6023576D01*
X19110896Y5950255D01*
X19405933Y5934184D01*
X19698437Y5975981D01*
X19977165Y6074039D01*
X20121765Y6151330D01*
X20247197Y6356027D01*
X19340000Y7263223D01*
X18432803Y6356027D01*
X17742380Y6356027D01*
X17621452Y6436828D01*
X17305847Y6567556D01*
X16970804Y6634200D01*
X16629196Y6634200D01*
X16294153Y6567556D01*
X15978548Y6436828D01*
X15694512Y6247041D01*
X15452959Y6005488D01*
X15263172Y5721452D01*
X15132444Y5405847D01*
X15065800Y5070804D01*
X4542189Y5070804D01*
X4417968Y5224327D01*
X3968482Y5459372D01*
X3481779Y5602211D01*
X2976562Y5647354D01*
X2472244Y5593066D01*
X1988208Y5441434D01*
X1582032Y5224327D01*
X1327287Y4909490D01*
X400000Y4909490D01*
X400000Y6356027D01*
X13352803Y6356027D01*
X13478235Y6151330D01*
X13744663Y6023576D01*
X14030896Y5950255D01*
X14325933Y5934184D01*
X14618437Y5975981D01*
X14897165Y6074039D01*
X15041765Y6151330D01*
X15167197Y6356027D01*
X14260000Y7263223D01*
X13352803Y6356027D01*
X400000Y6356027D01*
X400000Y7374067D01*
X12754184Y7374067D01*
X12795981Y7081563D01*
X12894039Y6802835D01*
X12971330Y6658235D01*
X13176027Y6532803D01*
X14083223Y7440000D01*
X14436777Y7440000D01*
X15343973Y6532803D01*
X15548670Y6658235D01*
X15676424Y6924663D01*
X15749745Y7210896D01*
X15758633Y7374067D01*
X17834184Y7374067D01*
X17875981Y7081563D01*
X17974039Y6802835D01*
X18051330Y6658235D01*
X18256027Y6532803D01*
X19163223Y7440000D01*
X19516777Y7440000D01*
X20423973Y6532803D01*
X20628670Y6658235D01*
X20756424Y6924663D01*
X20829745Y7210896D01*
X20845816Y7505933D01*
X20804019Y7798437D01*
X20705961Y8077165D01*
X20628670Y8221765D01*
X20423973Y8347197D01*
X19516777Y7440000D01*
X19163223Y7440000D01*
X18256027Y8347197D01*
X18051330Y8221765D01*
X17923576Y7955337D01*
X17850255Y7669104D01*
X17834184Y7374067D01*
X15758633Y7374067D01*
X15765816Y7505933D01*
X15724019Y7798437D01*
X15625961Y8077165D01*
X15548670Y8221765D01*
X15343973Y8347197D01*
X14436777Y7440000D01*
X14083223Y7440000D01*
X13176027Y8347197D01*
X12971330Y8221765D01*
X12843576Y7955337D01*
X12770255Y7669104D01*
X12754184Y7374067D01*
X400000Y7374067D01*
X400000Y9520652D01*
X775000Y9520652D01*
X775000Y9279348D01*
X822076Y9042681D01*
X914419Y8819745D01*
X1048481Y8619108D01*
X1219108Y8448481D01*
X1419745Y8314419D01*
X1642681Y8222076D01*
X1879348Y8175000D01*
X2120652Y8175000D01*
X2357319Y8222076D01*
X2580255Y8314419D01*
X2780892Y8448481D01*
X2951519Y8619108D01*
X3085581Y8819745D01*
X3177924Y9042681D01*
X3186522Y9085907D01*
X3355951Y9085907D01*
X3380993Y9003333D01*
X3480649Y8784844D01*
X3621015Y8589995D01*
X3796697Y8426274D01*
X4000944Y8299973D01*
X4225906Y8215945D01*
X4415000Y8275138D01*
X4415000Y9275000D01*
X4665000Y9275000D01*
X4665000Y8275138D01*
X4854094Y8215945D01*
X5079056Y8299973D01*
X5283303Y8426274D01*
X5458985Y8589995D01*
X5599351Y8784844D01*
X5699007Y9003333D01*
X5724049Y9085907D01*
X5664323Y9275000D01*
X4665000Y9275000D01*
X4415000Y9275000D01*
X3415677Y9275000D01*
X3355951Y9085907D01*
X3186522Y9085907D01*
X3225000Y9279348D01*
X3225000Y9520652D01*
X3186523Y9714093D01*
X3355951Y9714093D01*
X3415677Y9525000D01*
X4415000Y9525000D01*
X4415000Y10524862D01*
X4665000Y10524862D01*
X4665000Y9525000D01*
X5664323Y9525000D01*
X5724049Y9714093D01*
X5699007Y9796667D01*
X5599351Y10015156D01*
X5458985Y10210005D01*
X5283303Y10373726D01*
X5079056Y10500027D01*
X4854094Y10584055D01*
X4665000Y10524862D01*
X4415000Y10524862D01*
X4225906Y10584055D01*
X4000944Y10500027D01*
X3796697Y10373726D01*
X3621015Y10210005D01*
X3480649Y10015156D01*
X3380993Y9796667D01*
X3355951Y9714093D01*
X3186523Y9714093D01*
X3177924Y9757319D01*
X3085581Y9980255D01*
X2951519Y10180892D01*
X2780892Y10351519D01*
X2580255Y10485581D01*
X2357319Y10577924D01*
X2120652Y10625000D01*
X1879348Y10625000D01*
X1642681Y10577924D01*
X1419745Y10485581D01*
X1219108Y10351519D01*
X1048481Y10180892D01*
X914419Y9980255D01*
X822076Y9757319D01*
X775000Y9520652D01*
X400000Y9520652D01*
X400000Y12060652D01*
X775000Y12060652D01*
X775000Y11819348D01*
X822076Y11582681D01*
X914419Y11359745D01*
X1048481Y11159108D01*
X1219108Y10988481D01*
X1419745Y10854419D01*
X1642681Y10762076D01*
X1879348Y10715000D01*
X2120652Y10715000D01*
X2357319Y10762076D01*
X2580255Y10854419D01*
X2780892Y10988481D01*
X2951519Y11159108D01*
X3085581Y11359745D01*
X3177924Y11582681D01*
X3225000Y11819348D01*
X3225000Y12060652D01*
X3315000Y12060652D01*
X3315000Y11819348D01*
X3362076Y11582681D01*
X3454419Y11359745D01*
X3588481Y11159108D01*
X3759108Y10988481D01*
X3959745Y10854419D01*
X4182681Y10762076D01*
X4419348Y10715000D01*
X4660652Y10715000D01*
X4897319Y10762076D01*
X5120255Y10854419D01*
X5320892Y10988481D01*
X5491519Y11159108D01*
X5625581Y11359745D01*
X5717924Y11582681D01*
X5765000Y11819348D01*
X5765000Y12060652D01*
X5717924Y12297319D01*
X5625581Y12520255D01*
X5491519Y12720892D01*
X5320892Y12891519D01*
X5120255Y13025581D01*
X4897319Y13117924D01*
X4660652Y13165000D01*
X4419348Y13165000D01*
X4182681Y13117924D01*
X3959745Y13025581D01*
X3759108Y12891519D01*
X3588481Y12720892D01*
X3454419Y12520255D01*
X3362076Y12297319D01*
X3315000Y12060652D01*
X3225000Y12060652D01*
X3177924Y12297319D01*
X3085581Y12520255D01*
X2951519Y12720892D01*
X2780892Y12891519D01*
X2580255Y13025581D01*
X2357319Y13117924D01*
X2120652Y13165000D01*
X1879348Y13165000D01*
X1642681Y13117924D01*
X1419745Y13025581D01*
X1219108Y12891519D01*
X1048481Y12720892D01*
X914419Y12520255D01*
X822076Y12297319D01*
X775000Y12060652D01*
X400000Y12060652D01*
X400000Y14600652D01*
X775000Y14600652D01*
X775000Y14359348D01*
X822076Y14122681D01*
X914419Y13899745D01*
X1048481Y13699108D01*
X1219108Y13528481D01*
X1419745Y13394419D01*
X1642681Y13302076D01*
X1879348Y13255000D01*
X2120652Y13255000D01*
X2357319Y13302076D01*
X2580255Y13394419D01*
X2780892Y13528481D01*
X2951519Y13699108D01*
X3085581Y13899745D01*
X3177924Y14122681D01*
X3225000Y14359348D01*
X3225000Y14600652D01*
X3315000Y14600652D01*
X3315000Y14359348D01*
X3362076Y14122681D01*
X3454419Y13899745D01*
X3588481Y13699108D01*
X3759108Y13528481D01*
X3959745Y13394419D01*
X4182681Y13302076D01*
X4419348Y13255000D01*
X4660652Y13255000D01*
X4897319Y13302076D01*
X5120255Y13394419D01*
X5320892Y13528481D01*
X5491519Y13699108D01*
X5625581Y13899745D01*
X5717924Y14122681D01*
X5765000Y14359348D01*
X5765000Y14600652D01*
X5717924Y14837319D01*
X5625581Y15060255D01*
X5491519Y15260892D01*
X5320892Y15431519D01*
X5120255Y15565581D01*
X4897319Y15657924D01*
X4660652Y15705000D01*
X4419348Y15705000D01*
X4182681Y15657924D01*
X3959745Y15565581D01*
X3759108Y15431519D01*
X3588481Y15260892D01*
X3454419Y15060255D01*
X3362076Y14837319D01*
X3315000Y14600652D01*
X3225000Y14600652D01*
X3177924Y14837319D01*
X3085581Y15060255D01*
X2951519Y15260892D01*
X2780892Y15431519D01*
X2580255Y15565581D01*
X2357319Y15657924D01*
X2120652Y15705000D01*
X1879348Y15705000D01*
X1642681Y15657924D01*
X1419745Y15565581D01*
X1219108Y15431519D01*
X1048481Y15260892D01*
X914419Y15060255D01*
X822076Y14837319D01*
X775000Y14600652D01*
X400000Y14600652D01*
X400000Y17140652D01*
X775000Y17140652D01*
X775000Y16899348D01*
X822076Y16662681D01*
X914419Y16439745D01*
X1048481Y16239108D01*
X1219108Y16068481D01*
X1419745Y15934419D01*
X1642681Y15842076D01*
X1879348Y15795000D01*
X2120652Y15795000D01*
X2357319Y15842076D01*
X2580255Y15934419D01*
X2780892Y16068481D01*
X2951519Y16239108D01*
X3085581Y16439745D01*
X3177924Y16662681D01*
X3225000Y16899348D01*
X3225000Y17140652D01*
X3315000Y17140652D01*
X3315000Y16899348D01*
X3362076Y16662681D01*
X3454419Y16439745D01*
X3588481Y16239108D01*
X3759108Y16068481D01*
X3959745Y15934419D01*
X4182681Y15842076D01*
X4419348Y15795000D01*
X4660652Y15795000D01*
X4897319Y15842076D01*
X5120255Y15934419D01*
X5320892Y16068481D01*
X5491519Y16239108D01*
X5625581Y16439745D01*
X5717924Y16662681D01*
X5765000Y16899348D01*
X5765000Y17140652D01*
X5717924Y17377319D01*
X5625581Y17600255D01*
X5491519Y17800892D01*
X5320892Y17971519D01*
X5120255Y18105581D01*
X4897319Y18197924D01*
X4660652Y18245000D01*
X4419348Y18245000D01*
X4182681Y18197924D01*
X3959745Y18105581D01*
X3759108Y17971519D01*
X3588481Y17800892D01*
X3454419Y17600255D01*
X3362076Y17377319D01*
X3315000Y17140652D01*
X3225000Y17140652D01*
X3177924Y17377319D01*
X3085581Y17600255D01*
X2951519Y17800892D01*
X2780892Y17971519D01*
X2580255Y18105581D01*
X2357319Y18197924D01*
X2120652Y18245000D01*
X1879348Y18245000D01*
X1642681Y18197924D01*
X1419745Y18105581D01*
X1219108Y17971519D01*
X1048481Y17800892D01*
X914419Y17600255D01*
X822076Y17377319D01*
X775000Y17140652D01*
X400000Y17140652D01*
X400000Y19680652D01*
X775000Y19680652D01*
X775000Y19439348D01*
X822076Y19202681D01*
X914419Y18979745D01*
X1048481Y18779108D01*
X1219108Y18608481D01*
X1419745Y18474419D01*
X1642681Y18382076D01*
X1879348Y18335000D01*
X2120652Y18335000D01*
X2357319Y18382076D01*
X2580255Y18474419D01*
X2780892Y18608481D01*
X2951519Y18779108D01*
X3085581Y18979745D01*
X3177924Y19202681D01*
X3225000Y19439348D01*
X3225000Y19680652D01*
X3177924Y19917319D01*
X3085581Y20140255D01*
X2951519Y20340892D01*
X2780892Y20511519D01*
X2580255Y20645581D01*
X2357319Y20737924D01*
X2120652Y20785000D01*
X1879348Y20785000D01*
X1642681Y20737924D01*
X1419745Y20645581D01*
X1219108Y20511519D01*
X1048481Y20340892D01*
X914419Y20140255D01*
X822076Y19917319D01*
X775000Y19680652D01*
X400000Y19680652D01*
X400000Y22950000D01*
X773186Y22950000D01*
X773186Y21250000D01*
X780426Y21176487D01*
X801869Y21105800D01*
X836691Y21040653D01*
X883552Y20983552D01*
X940653Y20936691D01*
X1005800Y20901869D01*
X1076487Y20880426D01*
X1150000Y20873186D01*
X2850000Y20873186D01*
X2923513Y20880426D01*
X2994200Y20901869D01*
X3059347Y20936691D01*
X3116448Y20983552D01*
X3163309Y21040653D01*
X3198131Y21105800D01*
X3219574Y21176487D01*
X3226814Y21250000D01*
X3226814Y22220652D01*
X3315000Y22220652D01*
X3315000Y21979348D01*
X3362076Y21742681D01*
X3454419Y21519745D01*
X3588481Y21319108D01*
X3759108Y21148481D01*
X3959745Y21014419D01*
X4182681Y20922076D01*
X4419348Y20875000D01*
X4660652Y20875000D01*
X4844540Y20911578D01*
X5103664Y20652453D01*
X4897319Y20737924D01*
X4660652Y20785000D01*
X4419348Y20785000D01*
X4182681Y20737924D01*
X3959745Y20645581D01*
X3759108Y20511519D01*
X3588481Y20340892D01*
X3454419Y20140255D01*
X3362076Y19917319D01*
X3315000Y19680652D01*
X3315000Y19439348D01*
X3362076Y19202681D01*
X3454419Y18979745D01*
X3588481Y18779108D01*
X3759108Y18608481D01*
X3959745Y18474419D01*
X4182681Y18382076D01*
X4419348Y18335000D01*
X4660652Y18335000D01*
X4897319Y18382076D01*
X5120255Y18474419D01*
X5320892Y18608481D01*
X5491519Y18779108D01*
X5625581Y18979745D01*
X5717924Y19202681D01*
X5765000Y19439348D01*
X5765000Y19680652D01*
X5717924Y19917319D01*
X5632453Y20123664D01*
X5775001Y19981116D01*
X5775000Y12130694D01*
X5771977Y12100000D01*
X5775000Y12069306D01*
X5775000Y12069297D01*
X5784043Y11977480D01*
X5819781Y11859667D01*
X5877817Y11751090D01*
X5955920Y11655920D01*
X5979776Y11636342D01*
X8636351Y8979765D01*
X8655920Y8955920D01*
X8679765Y8936351D01*
X8679769Y8936347D01*
X8751088Y8877817D01*
X8791112Y8856424D01*
X8859666Y8819781D01*
X8977479Y8784043D01*
X9069296Y8775000D01*
X9069298Y8775000D01*
X9100000Y8771976D01*
X9130702Y8775000D01*
X13564912Y8775000D01*
X13478235Y8728670D01*
X13352803Y8523973D01*
X14260000Y7616777D01*
X15167197Y8523973D01*
X15041765Y8728670D01*
X14945145Y8775000D01*
X18644912Y8775000D01*
X18558235Y8728670D01*
X18432803Y8523973D01*
X19340000Y7616777D01*
X20247197Y8523973D01*
X20121765Y8728670D01*
X20025145Y8775000D01*
X20941118Y8775000D01*
X22875001Y6841116D01*
X22875000Y4830694D01*
X22871977Y4800000D01*
X22875000Y4769306D01*
X22875000Y4769297D01*
X22884043Y4677480D01*
X22919781Y4559667D01*
X22977817Y4451090D01*
X23055920Y4355920D01*
X23079776Y4336342D01*
X23836346Y3579771D01*
X23855920Y3555920D01*
X23951089Y3477817D01*
X24059666Y3419781D01*
X24177479Y3384043D01*
X24269296Y3375000D01*
X24269298Y3375000D01*
X24300000Y3371976D01*
X24330701Y3375000D01*
X27040433Y3375000D01*
X27132918Y3313204D01*
X27273959Y3254783D01*
X27423687Y3225000D01*
X27576349Y3225000D01*
X27726077Y3254783D01*
X27867118Y3313204D01*
X27994052Y3398018D01*
X28102000Y3505966D01*
X28186814Y3632900D01*
X28245235Y3773941D01*
X28275018Y3923669D01*
X28275018Y4076331D01*
X28245235Y4226059D01*
X28186814Y4367100D01*
X28102000Y4494034D01*
X27994052Y4601982D01*
X27867118Y4686796D01*
X27726077Y4745217D01*
X27576349Y4775000D01*
X27423687Y4775000D01*
X27273959Y4745217D01*
X27132918Y4686796D01*
X27040433Y4625000D01*
X24558883Y4625000D01*
X24307552Y4876331D01*
X38425000Y4876331D01*
X38425000Y4723669D01*
X38454783Y4573941D01*
X38513204Y4432900D01*
X38598018Y4305966D01*
X38705966Y4198018D01*
X38832900Y4113204D01*
X38973941Y4054783D01*
X39123669Y4025000D01*
X39276331Y4025000D01*
X39426059Y4054783D01*
X39567100Y4113204D01*
X39694034Y4198018D01*
X39801982Y4305966D01*
X39886796Y4432900D01*
X39945217Y4573941D01*
X39975000Y4723669D01*
X39975000Y4876331D01*
X39968405Y4909490D01*
X42527287Y4909490D01*
X44200000Y3236777D01*
X45872713Y4909490D01*
X45617968Y5224327D01*
X45168482Y5459372D01*
X44681779Y5602211D01*
X44176562Y5647354D01*
X43672244Y5593066D01*
X43188208Y5441434D01*
X42782032Y5224327D01*
X42527287Y4909490D01*
X39968405Y4909490D01*
X39945217Y5026059D01*
X39886796Y5167100D01*
X39801982Y5294034D01*
X39694034Y5401982D01*
X39567100Y5486796D01*
X39426059Y5545217D01*
X39276331Y5575000D01*
X39123669Y5575000D01*
X38973941Y5545217D01*
X38832900Y5486796D01*
X38705966Y5401982D01*
X38598018Y5294034D01*
X38513204Y5167100D01*
X38454783Y5026059D01*
X38425000Y4876331D01*
X24307552Y4876331D01*
X24125000Y5058882D01*
X24125000Y7069307D01*
X24128023Y7100001D01*
X24125000Y7130695D01*
X24125000Y7130704D01*
X24115957Y7222521D01*
X24080219Y7340334D01*
X24022183Y7448911D01*
X24022182Y7448913D01*
X23963652Y7520231D01*
X23944080Y7544080D01*
X23920229Y7563654D01*
X22907552Y8576331D01*
X25525000Y8576331D01*
X25525000Y8423669D01*
X25554783Y8273941D01*
X25613204Y8132900D01*
X25698018Y8005966D01*
X25805966Y7898018D01*
X25932900Y7813204D01*
X26073941Y7754783D01*
X26223669Y7725000D01*
X26376331Y7725000D01*
X26526059Y7754783D01*
X26667100Y7813204D01*
X26794034Y7898018D01*
X26901982Y8005966D01*
X26986796Y8132900D01*
X27045217Y8273941D01*
X27075000Y8423669D01*
X27075000Y8576331D01*
X27045217Y8726059D01*
X26986796Y8867100D01*
X26901982Y8994034D01*
X26794034Y9101982D01*
X26667100Y9186796D01*
X26526059Y9245217D01*
X26376331Y9275000D01*
X26223669Y9275000D01*
X26073941Y9245217D01*
X25932900Y9186796D01*
X25805966Y9101982D01*
X25698018Y8994034D01*
X25613204Y8867100D01*
X25554783Y8726059D01*
X25525000Y8576331D01*
X22907552Y8576331D01*
X21663658Y9820224D01*
X21644080Y9844080D01*
X21548911Y9922183D01*
X21440334Y9980219D01*
X21322521Y10015957D01*
X21230704Y10025000D01*
X21230694Y10025000D01*
X21200000Y10028023D01*
X21169306Y10025000D01*
X9358884Y10025000D01*
X9180295Y10203589D01*
X32038282Y10203589D01*
X32038282Y9866411D01*
X32104063Y9535710D01*
X32233095Y9224198D01*
X32420422Y8943844D01*
X32658844Y8705422D01*
X32939198Y8518095D01*
X33250710Y8389063D01*
X33581411Y8323282D01*
X33918589Y8323282D01*
X34249290Y8389063D01*
X34362671Y8436027D01*
X39352803Y8436027D01*
X39478235Y8231330D01*
X39744663Y8103576D01*
X40030896Y8030255D01*
X40325933Y8014184D01*
X40618437Y8055981D01*
X40897165Y8154039D01*
X41041765Y8231330D01*
X41167197Y8436027D01*
X44432803Y8436027D01*
X44558235Y8231330D01*
X44824663Y8103576D01*
X45110896Y8030255D01*
X45405933Y8014184D01*
X45698437Y8055981D01*
X45977165Y8154039D01*
X46121765Y8231330D01*
X46247197Y8436027D01*
X45340000Y9343223D01*
X44432803Y8436027D01*
X41167197Y8436027D01*
X40260000Y9343223D01*
X39352803Y8436027D01*
X34362671Y8436027D01*
X34560802Y8518095D01*
X34841156Y8705422D01*
X35079578Y8943844D01*
X35266905Y9224198D01*
X35362119Y9454067D01*
X38754184Y9454067D01*
X38795981Y9161563D01*
X38894039Y8882835D01*
X38971330Y8738235D01*
X39176027Y8612803D01*
X40083223Y9520000D01*
X40436777Y9520000D01*
X41343973Y8612803D01*
X41548670Y8738235D01*
X41676424Y9004663D01*
X41749745Y9290896D01*
X41758633Y9454067D01*
X43834184Y9454067D01*
X43875981Y9161563D01*
X43974039Y8882835D01*
X44051330Y8738235D01*
X44256027Y8612803D01*
X45163223Y9520000D01*
X44256027Y10427197D01*
X44051330Y10301765D01*
X43923576Y10035337D01*
X43850255Y9749104D01*
X43834184Y9454067D01*
X41758633Y9454067D01*
X41765816Y9585933D01*
X41724019Y9878437D01*
X41625961Y10157165D01*
X41548670Y10301765D01*
X41343973Y10427197D01*
X40436777Y9520000D01*
X40083223Y9520000D01*
X39176027Y10427197D01*
X38971330Y10301765D01*
X38843576Y10035337D01*
X38770255Y9749104D01*
X38754184Y9454067D01*
X35362119Y9454067D01*
X35395937Y9535710D01*
X35461718Y9866411D01*
X35461718Y10203589D01*
X35395937Y10534290D01*
X35367074Y10603973D01*
X39352803Y10603973D01*
X40260000Y9696777D01*
X41167197Y10603973D01*
X41041765Y10808670D01*
X40775337Y10936424D01*
X40489104Y11009745D01*
X40194067Y11025816D01*
X39901563Y10984019D01*
X39622835Y10885961D01*
X39478235Y10808670D01*
X39352803Y10603973D01*
X35367074Y10603973D01*
X35266905Y10845802D01*
X35079578Y11126156D01*
X34841156Y11364578D01*
X34560802Y11551905D01*
X34249290Y11680937D01*
X33918589Y11746718D01*
X33581411Y11746718D01*
X33250710Y11680937D01*
X32939198Y11551905D01*
X32658844Y11364578D01*
X32420422Y11126156D01*
X32233095Y10845802D01*
X32104063Y10534290D01*
X32038282Y10203589D01*
X9180295Y10203589D01*
X7607552Y11776331D01*
X9975000Y11776331D01*
X9975000Y11623669D01*
X10004783Y11473941D01*
X10063204Y11332900D01*
X10148018Y11205966D01*
X10255966Y11098018D01*
X10382900Y11013204D01*
X10523941Y10954783D01*
X10673669Y10925000D01*
X10826331Y10925000D01*
X10976059Y10954783D01*
X11117100Y11013204D01*
X11244034Y11098018D01*
X11296016Y11150000D01*
X16322992Y11150000D01*
X16350000Y11147340D01*
X16377008Y11150000D01*
X16377018Y11150000D01*
X16457819Y11157958D01*
X16561494Y11189408D01*
X16657042Y11240479D01*
X16740790Y11309210D01*
X16758013Y11330196D01*
X17877817Y12450000D01*
X21173186Y12450000D01*
X21173186Y11250000D01*
X21180426Y11176487D01*
X21201869Y11105800D01*
X21236691Y11040653D01*
X21283552Y10983552D01*
X21340653Y10936691D01*
X21405800Y10901869D01*
X21476487Y10880426D01*
X21550000Y10873186D01*
X24850000Y10873186D01*
X24923513Y10880426D01*
X24994200Y10901869D01*
X25059347Y10936691D01*
X25116448Y10983552D01*
X25163309Y11040653D01*
X25198131Y11105800D01*
X25219574Y11176487D01*
X25226814Y11250000D01*
X25226814Y12230804D01*
X41065800Y12230804D01*
X41065800Y11889196D01*
X41132444Y11554153D01*
X41263172Y11238548D01*
X41452959Y10954512D01*
X41694512Y10712959D01*
X41978548Y10523172D01*
X42294153Y10392444D01*
X42629196Y10325800D01*
X42970804Y10325800D01*
X43305847Y10392444D01*
X43621452Y10523172D01*
X43742379Y10603973D01*
X44432803Y10603973D01*
X45340000Y9696777D01*
X46247197Y10603973D01*
X46121765Y10808670D01*
X45855337Y10936424D01*
X45569104Y11009745D01*
X45274067Y11025816D01*
X44981563Y10984019D01*
X44702835Y10885961D01*
X44558235Y10808670D01*
X44432803Y10603973D01*
X43742379Y10603973D01*
X43905488Y10712959D01*
X44147041Y10954512D01*
X44336828Y11238548D01*
X44467556Y11554153D01*
X44534200Y11889196D01*
X44534200Y12230804D01*
X44467556Y12565847D01*
X44336828Y12881452D01*
X44147041Y13165488D01*
X43905488Y13407041D01*
X43742380Y13516027D01*
X44432803Y13516027D01*
X44558235Y13311330D01*
X44824663Y13183576D01*
X45110896Y13110255D01*
X45405933Y13094184D01*
X45698437Y13135981D01*
X45977165Y13234039D01*
X46121765Y13311330D01*
X46247197Y13516027D01*
X45340000Y14423223D01*
X44432803Y13516027D01*
X43742380Y13516027D01*
X43621452Y13596828D01*
X43305847Y13727556D01*
X42970804Y13794200D01*
X42629196Y13794200D01*
X42294153Y13727556D01*
X41978548Y13596828D01*
X41694512Y13407041D01*
X41452959Y13165488D01*
X41263172Y12881452D01*
X41132444Y12565847D01*
X41065800Y12230804D01*
X25226814Y12230804D01*
X25226814Y13516027D01*
X39352803Y13516027D01*
X39478235Y13311330D01*
X39744663Y13183576D01*
X40030896Y13110255D01*
X40325933Y13094184D01*
X40618437Y13135981D01*
X40897165Y13234039D01*
X41041765Y13311330D01*
X41167197Y13516027D01*
X40260000Y14423223D01*
X39352803Y13516027D01*
X25226814Y13516027D01*
X25226814Y14534067D01*
X38754184Y14534067D01*
X38795981Y14241563D01*
X38894039Y13962835D01*
X38971330Y13818235D01*
X39176027Y13692803D01*
X40083223Y14600000D01*
X40436777Y14600000D01*
X41343973Y13692803D01*
X41548670Y13818235D01*
X41676424Y14084663D01*
X41749745Y14370896D01*
X41758633Y14534067D01*
X43834184Y14534067D01*
X43875981Y14241563D01*
X43974039Y13962835D01*
X44051330Y13818235D01*
X44256027Y13692803D01*
X45163223Y14600000D01*
X44256027Y15507197D01*
X44051330Y15381765D01*
X43923576Y15115337D01*
X43850255Y14829104D01*
X43834184Y14534067D01*
X41758633Y14534067D01*
X41765816Y14665933D01*
X41724019Y14958437D01*
X41625961Y15237165D01*
X41548670Y15381765D01*
X41343973Y15507197D01*
X40436777Y14600000D01*
X40083223Y14600000D01*
X39176027Y15507197D01*
X38971330Y15381765D01*
X38843576Y15115337D01*
X38770255Y14829104D01*
X38754184Y14534067D01*
X25226814Y14534067D01*
X25226814Y14750000D01*
X25219574Y14823513D01*
X25198131Y14894200D01*
X25163309Y14959347D01*
X25116448Y15016448D01*
X25059347Y15063309D01*
X24994200Y15098131D01*
X24923513Y15119574D01*
X24850000Y15126814D01*
X21550000Y15126814D01*
X21476487Y15119574D01*
X21405800Y15098131D01*
X21340653Y15063309D01*
X21283552Y15016448D01*
X21236691Y14959347D01*
X21201869Y14894200D01*
X21180426Y14823513D01*
X21173186Y14750000D01*
X21173186Y13550000D01*
X17677011Y13550000D01*
X17650000Y13552660D01*
X17622989Y13550000D01*
X17622982Y13550000D01*
X17542181Y13542042D01*
X17438506Y13510592D01*
X17342958Y13459521D01*
X17259210Y13390790D01*
X17241987Y13369804D01*
X16122183Y12250000D01*
X11296016Y12250000D01*
X11244034Y12301982D01*
X11117100Y12386796D01*
X10976059Y12445217D01*
X10826331Y12475000D01*
X10673669Y12475000D01*
X10523941Y12445217D01*
X10382900Y12386796D01*
X10255966Y12301982D01*
X10148018Y12194034D01*
X10063204Y12067100D01*
X10004783Y11926059D01*
X9975000Y11776331D01*
X7607552Y11776331D01*
X7025000Y12358882D01*
X7025000Y13026331D01*
X7175000Y13026331D01*
X7175000Y12873669D01*
X7204783Y12723941D01*
X7263204Y12582900D01*
X7348018Y12455966D01*
X7455966Y12348018D01*
X7582900Y12263204D01*
X7723941Y12204783D01*
X7873669Y12175000D01*
X8026331Y12175000D01*
X8176059Y12204783D01*
X8317100Y12263204D01*
X8444034Y12348018D01*
X8551982Y12455966D01*
X8636796Y12582900D01*
X8695217Y12723941D01*
X8725000Y12873669D01*
X8725000Y13026331D01*
X8695217Y13176059D01*
X8636796Y13317100D01*
X8551982Y13444034D01*
X8444034Y13551982D01*
X8317100Y13636796D01*
X8176059Y13695217D01*
X8026331Y13725000D01*
X7873669Y13725000D01*
X7723941Y13695217D01*
X7582900Y13636796D01*
X7455966Y13551982D01*
X7348018Y13444034D01*
X7263204Y13317100D01*
X7204783Y13176059D01*
X7175000Y13026331D01*
X7025000Y13026331D01*
X7025000Y16576331D01*
X11325000Y16576331D01*
X11325000Y16423669D01*
X11354783Y16273941D01*
X11413204Y16132900D01*
X11498018Y16005966D01*
X11605966Y15898018D01*
X11732900Y15813204D01*
X11873941Y15754783D01*
X12023669Y15725000D01*
X12176331Y15725000D01*
X12326059Y15754783D01*
X12467100Y15813204D01*
X12594034Y15898018D01*
X12701982Y16005966D01*
X12786796Y16132900D01*
X12845217Y16273941D01*
X12875000Y16423669D01*
X12875000Y16576331D01*
X12845217Y16726059D01*
X12786796Y16867100D01*
X12705491Y16988783D01*
X19465560Y16988783D01*
X20068266Y16376876D01*
X21010860Y15852815D01*
X22037580Y15522715D01*
X23108972Y15399260D01*
X24183863Y15487197D01*
X24873420Y15683973D01*
X39352803Y15683973D01*
X40260000Y14776777D01*
X41167197Y15683973D01*
X44432803Y15683973D01*
X45340000Y14776777D01*
X46247197Y15683973D01*
X46121765Y15888670D01*
X45855337Y16016424D01*
X45569104Y16089745D01*
X45274067Y16105816D01*
X44981563Y16064019D01*
X44702835Y15965961D01*
X44558235Y15888670D01*
X44432803Y15683973D01*
X41167197Y15683973D01*
X41041765Y15888670D01*
X40775337Y16016424D01*
X40489104Y16089745D01*
X40194067Y16105816D01*
X39901563Y16064019D01*
X39622835Y15965961D01*
X39478235Y15888670D01*
X39352803Y15683973D01*
X24873420Y15683973D01*
X25220943Y15783144D01*
X26180360Y16275730D01*
X26331734Y16376876D01*
X26934440Y16988783D01*
X23200000Y20723223D01*
X19465560Y16988783D01*
X12705491Y16988783D01*
X12701982Y16994034D01*
X12594034Y17101982D01*
X12467100Y17186796D01*
X12326059Y17245217D01*
X12176331Y17275000D01*
X12023669Y17275000D01*
X11873941Y17245217D01*
X11732900Y17186796D01*
X11605966Y17101982D01*
X11498018Y16994034D01*
X11413204Y16867100D01*
X11354783Y16726059D01*
X11325000Y16576331D01*
X7025000Y16576331D01*
X7025000Y18376335D01*
X11425000Y18376335D01*
X11425000Y18223673D01*
X11454783Y18073945D01*
X11513204Y17932904D01*
X11598018Y17805970D01*
X11705966Y17698022D01*
X11832900Y17613208D01*
X11973941Y17554787D01*
X12123669Y17525004D01*
X12276331Y17525004D01*
X12426059Y17554787D01*
X12567100Y17613208D01*
X12694034Y17698022D01*
X12801982Y17805970D01*
X12886796Y17932904D01*
X12945217Y18073945D01*
X12975000Y18223673D01*
X12975000Y18376335D01*
X12945217Y18526063D01*
X12886796Y18667104D01*
X12801982Y18794038D01*
X12694034Y18901986D01*
X12567100Y18986800D01*
X12426059Y19045221D01*
X12276331Y19075004D01*
X12123669Y19075004D01*
X11973941Y19045221D01*
X11832900Y18986800D01*
X11705966Y18901986D01*
X11598018Y18794038D01*
X11513204Y18667104D01*
X11454783Y18526063D01*
X11425000Y18376335D01*
X7025000Y18376335D01*
X7025000Y20209307D01*
X7028023Y20240001D01*
X7025000Y20270695D01*
X7025000Y20270704D01*
X7015957Y20362521D01*
X6980219Y20480334D01*
X6922183Y20588911D01*
X6922182Y20588913D01*
X6863652Y20660231D01*
X6844080Y20684080D01*
X6820229Y20703654D01*
X6532855Y20991028D01*
X17699260Y20991028D01*
X17787197Y19916137D01*
X18083144Y18879057D01*
X18575730Y17919640D01*
X18676876Y17768266D01*
X19288783Y17165560D01*
X23023223Y20900000D01*
X23376777Y20900000D01*
X27111217Y17165560D01*
X27723124Y17768266D01*
X27949998Y18176331D01*
X28324996Y18176331D01*
X28324996Y18023669D01*
X28354779Y17873941D01*
X28413200Y17732900D01*
X28498014Y17605966D01*
X28605962Y17498018D01*
X28732896Y17413204D01*
X28873937Y17354783D01*
X29023665Y17325000D01*
X29176327Y17325000D01*
X29326055Y17354783D01*
X29467096Y17413204D01*
X29594030Y17498018D01*
X29701978Y17605966D01*
X29786792Y17732900D01*
X29845213Y17873941D01*
X29874996Y18023669D01*
X29874996Y18176331D01*
X29845213Y18326059D01*
X29786792Y18467100D01*
X29701978Y18594034D01*
X29594030Y18701982D01*
X29467096Y18786796D01*
X29326055Y18845217D01*
X29176327Y18875000D01*
X29023665Y18875000D01*
X28873937Y18845217D01*
X28732896Y18786796D01*
X28605962Y18701982D01*
X28498014Y18594034D01*
X28413200Y18467100D01*
X28354779Y18326059D01*
X28324996Y18176331D01*
X27949998Y18176331D01*
X28247185Y18710860D01*
X28577285Y19737580D01*
X28700740Y20808972D01*
X28612803Y21883863D01*
X28316856Y22920943D01*
X27824270Y23880360D01*
X27798058Y23919589D01*
X32038282Y23919589D01*
X32038282Y23582411D01*
X32104063Y23251710D01*
X32233095Y22940198D01*
X32420422Y22659844D01*
X32658844Y22421422D01*
X32939198Y22234095D01*
X33250710Y22105063D01*
X33581411Y22039282D01*
X33918589Y22039282D01*
X34249290Y22105063D01*
X34560802Y22234095D01*
X34841156Y22421422D01*
X35079578Y22659844D01*
X35266905Y22940198D01*
X35395937Y23251710D01*
X35461718Y23582411D01*
X35461718Y23919589D01*
X35395937Y24250290D01*
X35266905Y24561802D01*
X35079578Y24842156D01*
X34841156Y25080578D01*
X34560802Y25267905D01*
X34249290Y25396937D01*
X33918589Y25462718D01*
X33581411Y25462718D01*
X33250710Y25396937D01*
X32939198Y25267905D01*
X32658844Y25080578D01*
X32420422Y24842156D01*
X32233095Y24561802D01*
X32104063Y24250290D01*
X32038282Y23919589D01*
X27798058Y23919589D01*
X27723124Y24031734D01*
X27111217Y24634440D01*
X23376777Y20900000D01*
X23023223Y20900000D01*
X19288783Y24634440D01*
X18676876Y24031734D01*
X18152815Y23089140D01*
X17822715Y22062420D01*
X17699260Y20991028D01*
X6532855Y20991028D01*
X5728422Y21795460D01*
X5765000Y21979348D01*
X5765000Y22220652D01*
X5717924Y22457319D01*
X5625581Y22680255D01*
X5491519Y22880892D01*
X5320892Y23051519D01*
X5165000Y23155683D01*
X5165000Y24076331D01*
X14525000Y24076331D01*
X14525000Y23923669D01*
X14554783Y23773941D01*
X14613204Y23632900D01*
X14698018Y23505966D01*
X14805966Y23398018D01*
X14932900Y23313204D01*
X15073941Y23254783D01*
X15223669Y23225000D01*
X15376331Y23225000D01*
X15526059Y23254783D01*
X15667100Y23313204D01*
X15794034Y23398018D01*
X15901982Y23505966D01*
X15986796Y23632900D01*
X16045217Y23773941D01*
X16075000Y23923669D01*
X16075000Y24076331D01*
X16045217Y24226059D01*
X15986796Y24367100D01*
X15901982Y24494034D01*
X15794034Y24601982D01*
X15667100Y24686796D01*
X15526059Y24745217D01*
X15376331Y24775000D01*
X15223669Y24775000D01*
X15073941Y24745217D01*
X14932900Y24686796D01*
X14805966Y24601982D01*
X14698018Y24494034D01*
X14613204Y24367100D01*
X14554783Y24226059D01*
X14525000Y24076331D01*
X5165000Y24076331D01*
X5165000Y24731118D01*
X5710213Y25276331D01*
X11425000Y25276331D01*
X11425000Y25123669D01*
X11454783Y24973941D01*
X11513204Y24832900D01*
X11598018Y24705966D01*
X11705966Y24598018D01*
X11832900Y24513204D01*
X11973941Y24454783D01*
X12123669Y24425000D01*
X12276331Y24425000D01*
X12426059Y24454783D01*
X12567100Y24513204D01*
X12694034Y24598018D01*
X12801982Y24705966D01*
X12872307Y24811217D01*
X19465560Y24811217D01*
X23200000Y21076777D01*
X26934440Y24811217D01*
X26331734Y25423124D01*
X25389140Y25947185D01*
X24362420Y26277285D01*
X23291028Y26400740D01*
X22216137Y26312803D01*
X21179057Y26016856D01*
X20219640Y25524270D01*
X20068266Y25423124D01*
X19465560Y24811217D01*
X12872307Y24811217D01*
X12886796Y24832900D01*
X12945217Y24973941D01*
X12975000Y25123669D01*
X12975000Y25276331D01*
X12945217Y25426059D01*
X12886796Y25567100D01*
X12801982Y25694034D01*
X12694034Y25801982D01*
X12567100Y25886796D01*
X12426059Y25945217D01*
X12276331Y25975000D01*
X12123669Y25975000D01*
X11973941Y25945217D01*
X11832900Y25886796D01*
X11705966Y25801982D01*
X11598018Y25694034D01*
X11513204Y25567100D01*
X11454783Y25426059D01*
X11425000Y25276331D01*
X5710213Y25276331D01*
X10110213Y29676331D01*
X14525000Y29676331D01*
X14525000Y29523669D01*
X14554783Y29373941D01*
X14613204Y29232900D01*
X14698018Y29105966D01*
X14753984Y29050000D01*
X14698018Y28994034D01*
X14613204Y28867100D01*
X14554783Y28726059D01*
X14525000Y28576331D01*
X14525000Y28423669D01*
X14554783Y28273941D01*
X14613204Y28132900D01*
X14698018Y28005966D01*
X14805966Y27898018D01*
X14932900Y27813204D01*
X15073941Y27754783D01*
X15223669Y27725000D01*
X15376331Y27725000D01*
X15526059Y27754783D01*
X15667100Y27813204D01*
X15794034Y27898018D01*
X15901982Y28005966D01*
X15986796Y28132900D01*
X16045217Y28273941D01*
X16075000Y28423669D01*
X16075000Y28576331D01*
X16045217Y28726059D01*
X15986796Y28867100D01*
X15901982Y28994034D01*
X15846016Y29050000D01*
X15901982Y29105966D01*
X15986796Y29232900D01*
X16045217Y29373941D01*
X16075000Y29523669D01*
X16075000Y29676331D01*
X16045217Y29826059D01*
X15986796Y29967100D01*
X15901982Y30094034D01*
X15794034Y30201982D01*
X15667100Y30286796D01*
X15526059Y30345217D01*
X15376331Y30375000D01*
X15223669Y30375000D01*
X15073941Y30345217D01*
X14932900Y30286796D01*
X14805966Y30201982D01*
X14698018Y30094034D01*
X14613204Y29967100D01*
X14554783Y29826059D01*
X14525000Y29676331D01*
X10110213Y29676331D01*
X10983882Y30550000D01*
X21173186Y30550000D01*
X21173186Y27050000D01*
X21180426Y26976487D01*
X21201869Y26905800D01*
X21236691Y26840653D01*
X21283552Y26783552D01*
X21340653Y26736691D01*
X21405800Y26701869D01*
X21476487Y26680426D01*
X21550000Y26673186D01*
X24850000Y26673186D01*
X24923513Y26680426D01*
X24994200Y26701869D01*
X25059347Y26736691D01*
X25116448Y26783552D01*
X25163309Y26840653D01*
X25198131Y26905800D01*
X25219574Y26976487D01*
X25226814Y27050000D01*
X25226814Y28526331D01*
X27875000Y28526331D01*
X27875000Y28373669D01*
X27904783Y28223941D01*
X27963204Y28082900D01*
X28048018Y27955966D01*
X28155966Y27848018D01*
X28282900Y27763204D01*
X28423941Y27704783D01*
X28573669Y27675000D01*
X28726331Y27675000D01*
X28876059Y27704783D01*
X29017100Y27763204D01*
X29144034Y27848018D01*
X29251982Y27955966D01*
X29336796Y28082900D01*
X29395217Y28223941D01*
X29425000Y28373669D01*
X29425000Y28526331D01*
X29395217Y28676059D01*
X29336796Y28817100D01*
X29251982Y28944034D01*
X29144034Y29051982D01*
X29017100Y29136796D01*
X28876059Y29195217D01*
X28726331Y29225000D01*
X28573669Y29225000D01*
X28423941Y29195217D01*
X28282900Y29136796D01*
X28155966Y29051982D01*
X28048018Y28944034D01*
X27963204Y28817100D01*
X27904783Y28676059D01*
X27875000Y28526331D01*
X25226814Y28526331D01*
X25226814Y30550000D01*
X25219574Y30623513D01*
X25198131Y30694200D01*
X25163309Y30759347D01*
X25116448Y30816448D01*
X25059347Y30863309D01*
X24994200Y30898131D01*
X24923513Y30919574D01*
X24850000Y30926814D01*
X21550000Y30926814D01*
X21476487Y30919574D01*
X21405800Y30898131D01*
X21340653Y30863309D01*
X21283552Y30816448D01*
X21236691Y30759347D01*
X21201869Y30694200D01*
X21180426Y30623513D01*
X21173186Y30550000D01*
X10983882Y30550000D01*
X11508883Y31075000D01*
X11576331Y31075000D01*
X11726059Y31104783D01*
X11867100Y31163204D01*
X11959585Y31225000D01*
X12640415Y31225000D01*
X12732900Y31163204D01*
X12873941Y31104783D01*
X13023669Y31075000D01*
X13176331Y31075000D01*
X13326059Y31104783D01*
X13467100Y31163204D01*
X13559585Y31225000D01*
X32625133Y31225000D01*
X32532900Y31186796D01*
X32405966Y31101982D01*
X32298018Y30994034D01*
X32213204Y30867100D01*
X32154783Y30726059D01*
X32125000Y30576331D01*
X32125000Y30423669D01*
X32154783Y30273941D01*
X32213204Y30132900D01*
X32298018Y30005966D01*
X32405966Y29898018D01*
X32532900Y29813204D01*
X32673941Y29754783D01*
X32823669Y29725000D01*
X32976331Y29725000D01*
X33126059Y29754783D01*
X33267100Y29813204D01*
X33394034Y29898018D01*
X33501982Y30005966D01*
X33586796Y30132900D01*
X33645217Y30273941D01*
X33675000Y30423669D01*
X33675000Y30576331D01*
X33645217Y30726059D01*
X33586796Y30867100D01*
X33501982Y30994034D01*
X33394034Y31101982D01*
X33267100Y31186796D01*
X33174867Y31225000D01*
X33928984Y31225000D01*
X33898018Y31194034D01*
X33813204Y31067100D01*
X33754783Y30926059D01*
X33725000Y30776331D01*
X33725000Y30623669D01*
X33754783Y30473941D01*
X33813204Y30332900D01*
X33898018Y30205966D01*
X34005966Y30098018D01*
X34132900Y30013204D01*
X34273941Y29954783D01*
X34423669Y29925000D01*
X34576331Y29925000D01*
X34726059Y29954783D01*
X34867100Y30013204D01*
X34994034Y30098018D01*
X35101982Y30205966D01*
X35122425Y30236562D01*
X41612646Y30236562D01*
X41666934Y29732244D01*
X41818566Y29248208D01*
X42035673Y28842032D01*
X42350510Y28587287D01*
X44023223Y30260000D01*
X44376777Y30260000D01*
X46049490Y28587287D01*
X46364327Y28842032D01*
X46599372Y29291518D01*
X46742211Y29778221D01*
X46787354Y30283438D01*
X46733066Y30787756D01*
X46581434Y31271792D01*
X46364327Y31677968D01*
X46049490Y31932713D01*
X44376777Y30260000D01*
X44023223Y30260000D01*
X42350510Y31932713D01*
X42035673Y31677968D01*
X41800628Y31228482D01*
X41657789Y30741779D01*
X41612646Y30236562D01*
X35122425Y30236562D01*
X35186796Y30332900D01*
X35245217Y30473941D01*
X35275000Y30623669D01*
X35275000Y30776331D01*
X35245217Y30926059D01*
X35186796Y31067100D01*
X35101982Y31194034D01*
X35071016Y31225000D01*
X39051120Y31225000D01*
X39333085Y30943035D01*
X39354785Y30833941D01*
X39413206Y30692900D01*
X39498020Y30565966D01*
X39605968Y30458018D01*
X39732902Y30373204D01*
X39873943Y30314783D01*
X40023671Y30285000D01*
X40176333Y30285000D01*
X40326061Y30314783D01*
X40467102Y30373204D01*
X40594036Y30458018D01*
X40701984Y30565966D01*
X40786798Y30692900D01*
X40845219Y30833941D01*
X40875002Y30983669D01*
X40875002Y31136331D01*
X40845219Y31286059D01*
X40786798Y31427100D01*
X40701984Y31554034D01*
X40594036Y31661982D01*
X40467102Y31746796D01*
X40326061Y31805217D01*
X40216967Y31826917D01*
X39934394Y32109490D01*
X42527287Y32109490D01*
X44200000Y30436777D01*
X45872713Y32109490D01*
X45617968Y32424327D01*
X45168482Y32659372D01*
X44681779Y32802211D01*
X44176562Y32847354D01*
X43672244Y32793066D01*
X43188208Y32641434D01*
X42782032Y32424327D01*
X42527287Y32109490D01*
X39934394Y32109490D01*
X39773660Y32270224D01*
X39754082Y32294080D01*
X39658913Y32372183D01*
X39550336Y32430219D01*
X39432523Y32465957D01*
X39340706Y32475000D01*
X39340696Y32475000D01*
X39310002Y32478023D01*
X39279308Y32475000D01*
X13559585Y32475000D01*
X13467100Y32536796D01*
X13326059Y32595217D01*
X13176331Y32625000D01*
X13023669Y32625000D01*
X12873941Y32595217D01*
X12732900Y32536796D01*
X12640415Y32475000D01*
X11959585Y32475000D01*
X11867100Y32536796D01*
X11726059Y32595217D01*
X11576331Y32625000D01*
X11423669Y32625000D01*
X11273941Y32595217D01*
X11132900Y32536796D01*
X11005966Y32451982D01*
X10898018Y32344034D01*
X10813204Y32217100D01*
X10763697Y32097580D01*
X4119772Y25453654D01*
X4095921Y25434080D01*
X4076348Y25410230D01*
X4017818Y25338911D01*
X3959782Y25230334D01*
X3924044Y25112521D01*
X3911977Y24990000D01*
X3915001Y24959296D01*
X3915000Y23155683D01*
X3759108Y23051519D01*
X3588481Y22880892D01*
X3454419Y22680255D01*
X3362076Y22457319D01*
X3315000Y22220652D01*
X3226814Y22220652D01*
X3226814Y22950000D01*
X3219574Y23023513D01*
X3198131Y23094200D01*
X3163309Y23159347D01*
X3116448Y23216448D01*
X3059347Y23263309D01*
X2994200Y23298131D01*
X2923513Y23319574D01*
X2850000Y23326814D01*
X1150000Y23326814D01*
X1076487Y23319574D01*
X1005800Y23298131D01*
X940653Y23263309D01*
X883552Y23216448D01*
X836691Y23159347D01*
X801869Y23094200D01*
X780426Y23023513D01*
X773186Y22950000D01*
X400000Y22950000D01*
X400000Y28410510D01*
X1327287Y28410510D01*
X1582032Y28095673D01*
X2031518Y27860628D01*
X2518221Y27717789D01*
X3023438Y27672646D01*
X3527756Y27726934D01*
X4011792Y27878566D01*
X4417968Y28095673D01*
X4672713Y28410510D01*
X3000000Y30083223D01*
X1327287Y28410510D01*
X400000Y28410510D01*
X400000Y30236562D01*
X412646Y30236562D01*
X466934Y29732244D01*
X618566Y29248208D01*
X835673Y28842032D01*
X1150510Y28587287D01*
X2823223Y30260000D01*
X3176777Y30260000D01*
X4849490Y28587287D01*
X5164327Y28842032D01*
X5182262Y28876331D01*
X5325002Y28876331D01*
X5325002Y28723669D01*
X5354785Y28573941D01*
X5413206Y28432900D01*
X5498020Y28305966D01*
X5605968Y28198018D01*
X5732902Y28113204D01*
X5873943Y28054783D01*
X6023671Y28025000D01*
X6176333Y28025000D01*
X6326061Y28054783D01*
X6467102Y28113204D01*
X6594036Y28198018D01*
X6701984Y28305966D01*
X6786798Y28432900D01*
X6845219Y28573941D01*
X6875002Y28723669D01*
X6875002Y28876331D01*
X6845219Y29026059D01*
X6786798Y29167100D01*
X6701984Y29294034D01*
X6594036Y29401982D01*
X6467102Y29486796D01*
X6326061Y29545217D01*
X6176333Y29575000D01*
X6023671Y29575000D01*
X5873943Y29545217D01*
X5732902Y29486796D01*
X5605968Y29401982D01*
X5498020Y29294034D01*
X5413206Y29167100D01*
X5354785Y29026059D01*
X5325002Y28876331D01*
X5182262Y28876331D01*
X5399372Y29291518D01*
X5542211Y29778221D01*
X5587354Y30283438D01*
X5533066Y30787756D01*
X5381434Y31271792D01*
X5164327Y31677968D01*
X4849490Y31932713D01*
X3176777Y30260000D01*
X2823223Y30260000D01*
X1150510Y31932713D01*
X835673Y31677968D01*
X600628Y31228482D01*
X457789Y30741779D01*
X412646Y30236562D01*
X400000Y30236562D01*
X400000Y32109490D01*
X1327287Y32109490D01*
X3000000Y30436777D01*
X4672713Y32109490D01*
X4417968Y32424327D01*
X3968482Y32659372D01*
X3481779Y32802211D01*
X2976562Y32847354D01*
X2472244Y32793066D01*
X1988208Y32641434D01*
X1582032Y32424327D01*
X1327287Y32109490D01*
X400000Y32109490D01*
X400000Y32240435D01*
X413309Y32376167D01*
X447047Y32487913D01*
X501843Y32590971D01*
X575620Y32681430D01*
X665556Y32755832D01*
X768236Y32811350D01*
X879735Y32845865D01*
X1014214Y32860000D01*
X46180435Y32860000D01*
X46316167Y32846691D01*
G04 #@! TA.AperFunction,Conductor*
D22*
G36*
X46316167Y32846691D02*
G01*
X46427913Y32812953D01*
X46530971Y32758157D01*
X46621430Y32684380D01*
X46695832Y32594444D01*
X46751350Y32491764D01*
X46785865Y32380265D01*
X46800001Y32245776D01*
X46800001Y27825000D01*
X45040800Y27825000D01*
X45211792Y27878566D01*
X45617968Y28095673D01*
X45872713Y28410510D01*
X44200000Y30083223D01*
X42527287Y28410510D01*
X42782032Y28095673D01*
X43231518Y27860628D01*
X43352915Y27825000D01*
X41800000Y27825000D01*
X41775614Y27822598D01*
X41752165Y27815485D01*
X41730554Y27803934D01*
X41711612Y27788388D01*
X41696066Y27769446D01*
X41684515Y27747835D01*
X41677402Y27724386D01*
X41675000Y27700000D01*
X41675000Y24500000D01*
X41677402Y24475614D01*
X41684515Y24452165D01*
X41696066Y24430554D01*
X41711612Y24411612D01*
X41730554Y24396066D01*
X41752165Y24384515D01*
X41775614Y24377402D01*
X41800000Y24375000D01*
X42100000Y24375000D01*
X42124386Y24377402D01*
X42147835Y24384515D01*
X42169446Y24396066D01*
X42188388Y24411612D01*
X42203934Y24430554D01*
X42215485Y24452165D01*
X42222598Y24475614D01*
X42225000Y24500000D01*
X42225000Y27275000D01*
X46800001Y27275000D01*
X46800001Y18425000D01*
X42225000Y18425000D01*
X42225000Y23800000D01*
X42222598Y23824386D01*
X42215485Y23847835D01*
X42203934Y23869446D01*
X42188388Y23888388D01*
X42169446Y23903934D01*
X42147835Y23915485D01*
X42124386Y23922598D01*
X42100000Y23925000D01*
X41800000Y23925000D01*
X41775614Y23922598D01*
X41752165Y23915485D01*
X41730554Y23903934D01*
X41711612Y23888388D01*
X41696066Y23869446D01*
X41684515Y23847835D01*
X41677402Y23824386D01*
X41675000Y23800000D01*
X41675000Y20544754D01*
X41601982Y20654034D01*
X41494034Y20761982D01*
X41367100Y20846796D01*
X41226059Y20905217D01*
X41150000Y20920346D01*
X41150000Y24672989D01*
X41152660Y24700000D01*
X41150000Y24727011D01*
X41150000Y24727018D01*
X41142042Y24807819D01*
X41110592Y24911494D01*
X41110592Y24911495D01*
X41059521Y25007042D01*
X41008013Y25069804D01*
X40990790Y25090790D01*
X40969804Y25108013D01*
X40803820Y25273997D01*
X40845217Y25373939D01*
X40875000Y25523667D01*
X40875000Y25676329D01*
X40845217Y25826057D01*
X40786796Y25967098D01*
X40701982Y26094032D01*
X40594034Y26201980D01*
X40467100Y26286794D01*
X40326059Y26345215D01*
X40176331Y26374998D01*
X40023669Y26374998D01*
X39873941Y26345215D01*
X39732900Y26286794D01*
X39605966Y26201980D01*
X39498018Y26094032D01*
X39413204Y25967098D01*
X39354783Y25826057D01*
X39325000Y25676329D01*
X39325000Y25523667D01*
X39354783Y25373939D01*
X39413204Y25232898D01*
X39498018Y25105964D01*
X39578057Y25025925D01*
X39589408Y24988507D01*
X39640479Y24892958D01*
X39709210Y24809210D01*
X39730196Y24791987D01*
X40050001Y24472182D01*
X40050000Y20587008D01*
X40047340Y20560000D01*
X40050000Y20532992D01*
X40050000Y20532983D01*
X40057958Y20452182D01*
X40089408Y20348507D01*
X40140479Y20252958D01*
X40209210Y20169210D01*
X40225000Y20156251D01*
X40225000Y20083669D01*
X40254783Y19933941D01*
X40313204Y19792900D01*
X40398018Y19665966D01*
X40505966Y19558018D01*
X40632900Y19473204D01*
X40773941Y19414783D01*
X40923669Y19385000D01*
X41076331Y19385000D01*
X41226059Y19414783D01*
X41367100Y19473204D01*
X41494034Y19558018D01*
X41601982Y19665966D01*
X41675000Y19775246D01*
X41675000Y18000000D01*
X41677402Y17975614D01*
X41684515Y17952165D01*
X41696066Y17930554D01*
X41711612Y17911612D01*
X41730554Y17896066D01*
X41752165Y17884515D01*
X41775614Y17877402D01*
X41800000Y17875000D01*
X46800001Y17875000D01*
X46800000Y14969860D01*
X46705961Y15237165D01*
X46628670Y15381765D01*
X46423973Y15507197D01*
X45516777Y14600000D01*
X46423973Y13692803D01*
X46628670Y13818235D01*
X46756424Y14084663D01*
X46800000Y14254778D01*
X46800000Y9889860D01*
X46705961Y10157165D01*
X46628670Y10301765D01*
X46423973Y10427197D01*
X45516777Y9520000D01*
X46423973Y8612803D01*
X46628670Y8738235D01*
X46756424Y9004663D01*
X46800000Y9174777D01*
X46800000Y1079564D01*
X46786691Y943833D01*
X46752953Y832088D01*
X46698156Y729028D01*
X46624380Y638570D01*
X46534444Y564168D01*
X46431764Y508650D01*
X46320265Y474135D01*
X46185785Y460000D01*
X1019564Y460000D01*
X883833Y473309D01*
X772088Y507047D01*
X669028Y561844D01*
X578570Y635620D01*
X504168Y725556D01*
X448650Y828236D01*
X414135Y939735D01*
X400000Y1074215D01*
X400000Y1210510D01*
X1327287Y1210510D01*
X1582032Y895673D01*
X2031518Y660628D01*
X2518221Y517789D01*
X3023438Y472646D01*
X3527756Y526934D01*
X4011792Y678566D01*
X4417968Y895673D01*
X4672713Y1210510D01*
X4607196Y1276027D01*
X13352803Y1276027D01*
X13478235Y1071330D01*
X13744663Y943576D01*
X14030896Y870255D01*
X14325933Y854184D01*
X14618437Y895981D01*
X14897165Y994039D01*
X15041765Y1071330D01*
X15167197Y1276027D01*
X18432803Y1276027D01*
X18558235Y1071330D01*
X18824663Y943576D01*
X19110896Y870255D01*
X19405933Y854184D01*
X19698437Y895981D01*
X19977165Y994039D01*
X20121765Y1071330D01*
X20207050Y1210510D01*
X42527287Y1210510D01*
X42782032Y895673D01*
X43231518Y660628D01*
X43718221Y517789D01*
X44223438Y472646D01*
X44727756Y526934D01*
X45211792Y678566D01*
X45617968Y895673D01*
X45872713Y1210510D01*
X44200000Y2883223D01*
X42527287Y1210510D01*
X20207050Y1210510D01*
X20247197Y1276027D01*
X19340000Y2183223D01*
X18432803Y1276027D01*
X15167197Y1276027D01*
X14260000Y2183223D01*
X13352803Y1276027D01*
X4607196Y1276027D01*
X3000000Y2883223D01*
X1327287Y1210510D01*
X400000Y1210510D01*
X400000Y3036562D01*
X412646Y3036562D01*
X466934Y2532244D01*
X618566Y2048208D01*
X835673Y1642032D01*
X1150510Y1387287D01*
X2823223Y3060000D01*
X3176777Y3060000D01*
X4849490Y1387287D01*
X5164327Y1642032D01*
X5399372Y2091518D01*
X5458816Y2294067D01*
X12754184Y2294067D01*
X12795981Y2001563D01*
X12894039Y1722835D01*
X12971330Y1578235D01*
X13176027Y1452803D01*
X14083223Y2360000D01*
X14436777Y2360000D01*
X15343973Y1452803D01*
X15548670Y1578235D01*
X15676424Y1844663D01*
X15749745Y2130896D01*
X15758633Y2294067D01*
X17834184Y2294067D01*
X17875981Y2001563D01*
X17974039Y1722835D01*
X18051330Y1578235D01*
X18256027Y1452803D01*
X19163223Y2360000D01*
X19516777Y2360000D01*
X20423973Y1452803D01*
X20628670Y1578235D01*
X20756424Y1844663D01*
X20829745Y2130896D01*
X20845816Y2425933D01*
X20804019Y2718437D01*
X20705961Y2997165D01*
X20684903Y3036562D01*
X41612646Y3036562D01*
X41666934Y2532244D01*
X41818566Y2048208D01*
X42035673Y1642032D01*
X42350510Y1387287D01*
X44023223Y3060000D01*
X44376777Y3060000D01*
X46049490Y1387287D01*
X46364327Y1642032D01*
X46599372Y2091518D01*
X46742211Y2578221D01*
X46787354Y3083438D01*
X46733066Y3587756D01*
X46581434Y4071792D01*
X46364327Y4477968D01*
X46049490Y4732713D01*
X44376777Y3060000D01*
X44023223Y3060000D01*
X42350510Y4732713D01*
X42035673Y4477968D01*
X41800628Y4028482D01*
X41657789Y3541779D01*
X41612646Y3036562D01*
X20684903Y3036562D01*
X20628670Y3141765D01*
X20423973Y3267197D01*
X19516777Y2360000D01*
X19163223Y2360000D01*
X18256027Y3267197D01*
X18051330Y3141765D01*
X17923576Y2875337D01*
X17850255Y2589104D01*
X17834184Y2294067D01*
X15758633Y2294067D01*
X15765816Y2425933D01*
X15724019Y2718437D01*
X15625961Y2997165D01*
X15548670Y3141765D01*
X15343973Y3267197D01*
X14436777Y2360000D01*
X14083223Y2360000D01*
X13176027Y3267197D01*
X12971330Y3141765D01*
X12843576Y2875337D01*
X12770255Y2589104D01*
X12754184Y2294067D01*
X5458816Y2294067D01*
X5542211Y2578221D01*
X5587354Y3083438D01*
X5548544Y3443973D01*
X13352803Y3443973D01*
X14260000Y2536777D01*
X15167197Y3443973D01*
X15041765Y3648670D01*
X14775337Y3776424D01*
X14489104Y3849745D01*
X14194067Y3865816D01*
X13901563Y3824019D01*
X13622835Y3725961D01*
X13478235Y3648670D01*
X13352803Y3443973D01*
X5548544Y3443973D01*
X5533066Y3587756D01*
X5381434Y4071792D01*
X5164327Y4477968D01*
X4849490Y4732713D01*
X3176777Y3060000D01*
X2823223Y3060000D01*
X1150510Y4732713D01*
X835673Y4477968D01*
X600628Y4028482D01*
X457789Y3541779D01*
X412646Y3036562D01*
X400000Y3036562D01*
X400000Y4909490D01*
X1327287Y4909490D01*
X3000000Y3236777D01*
X4672713Y4909490D01*
X4542189Y5070804D01*
X15065800Y5070804D01*
X15065800Y4729196D01*
X15132444Y4394153D01*
X15263172Y4078548D01*
X15452959Y3794512D01*
X15694512Y3552959D01*
X15978548Y3363172D01*
X16294153Y3232444D01*
X16629196Y3165800D01*
X16970804Y3165800D01*
X17305847Y3232444D01*
X17621452Y3363172D01*
X17742379Y3443973D01*
X18432803Y3443973D01*
X19340000Y2536777D01*
X20247197Y3443973D01*
X20121765Y3648670D01*
X19855337Y3776424D01*
X19569104Y3849745D01*
X19274067Y3865816D01*
X18981563Y3824019D01*
X18702835Y3725961D01*
X18558235Y3648670D01*
X18432803Y3443973D01*
X17742379Y3443973D01*
X17905488Y3552959D01*
X18147041Y3794512D01*
X18336828Y4078548D01*
X18467556Y4394153D01*
X18534200Y4729196D01*
X18534200Y5070804D01*
X18467556Y5405847D01*
X18336828Y5721452D01*
X18147041Y6005488D01*
X17905488Y6247041D01*
X17742380Y6356027D01*
X18432803Y6356027D01*
X18558235Y6151330D01*
X18824663Y6023576D01*
X19110896Y5950255D01*
X19405933Y5934184D01*
X19698437Y5975981D01*
X19977165Y6074039D01*
X20121765Y6151330D01*
X20247197Y6356027D01*
X19340000Y7263223D01*
X18432803Y6356027D01*
X17742380Y6356027D01*
X17621452Y6436828D01*
X17305847Y6567556D01*
X16970804Y6634200D01*
X16629196Y6634200D01*
X16294153Y6567556D01*
X15978548Y6436828D01*
X15694512Y6247041D01*
X15452959Y6005488D01*
X15263172Y5721452D01*
X15132444Y5405847D01*
X15065800Y5070804D01*
X4542189Y5070804D01*
X4417968Y5224327D01*
X3968482Y5459372D01*
X3481779Y5602211D01*
X2976562Y5647354D01*
X2472244Y5593066D01*
X1988208Y5441434D01*
X1582032Y5224327D01*
X1327287Y4909490D01*
X400000Y4909490D01*
X400000Y6356027D01*
X13352803Y6356027D01*
X13478235Y6151330D01*
X13744663Y6023576D01*
X14030896Y5950255D01*
X14325933Y5934184D01*
X14618437Y5975981D01*
X14897165Y6074039D01*
X15041765Y6151330D01*
X15167197Y6356027D01*
X14260000Y7263223D01*
X13352803Y6356027D01*
X400000Y6356027D01*
X400000Y7374067D01*
X12754184Y7374067D01*
X12795981Y7081563D01*
X12894039Y6802835D01*
X12971330Y6658235D01*
X13176027Y6532803D01*
X14083223Y7440000D01*
X14436777Y7440000D01*
X15343973Y6532803D01*
X15548670Y6658235D01*
X15676424Y6924663D01*
X15749745Y7210896D01*
X15758633Y7374067D01*
X17834184Y7374067D01*
X17875981Y7081563D01*
X17974039Y6802835D01*
X18051330Y6658235D01*
X18256027Y6532803D01*
X19163223Y7440000D01*
X19516777Y7440000D01*
X20423973Y6532803D01*
X20628670Y6658235D01*
X20756424Y6924663D01*
X20829745Y7210896D01*
X20845816Y7505933D01*
X20804019Y7798437D01*
X20705961Y8077165D01*
X20628670Y8221765D01*
X20423973Y8347197D01*
X19516777Y7440000D01*
X19163223Y7440000D01*
X18256027Y8347197D01*
X18051330Y8221765D01*
X17923576Y7955337D01*
X17850255Y7669104D01*
X17834184Y7374067D01*
X15758633Y7374067D01*
X15765816Y7505933D01*
X15724019Y7798437D01*
X15625961Y8077165D01*
X15548670Y8221765D01*
X15343973Y8347197D01*
X14436777Y7440000D01*
X14083223Y7440000D01*
X13176027Y8347197D01*
X12971330Y8221765D01*
X12843576Y7955337D01*
X12770255Y7669104D01*
X12754184Y7374067D01*
X400000Y7374067D01*
X400000Y9520652D01*
X775000Y9520652D01*
X775000Y9279348D01*
X822076Y9042681D01*
X914419Y8819745D01*
X1048481Y8619108D01*
X1219108Y8448481D01*
X1419745Y8314419D01*
X1642681Y8222076D01*
X1879348Y8175000D01*
X2120652Y8175000D01*
X2357319Y8222076D01*
X2580255Y8314419D01*
X2780892Y8448481D01*
X2951519Y8619108D01*
X3085581Y8819745D01*
X3177924Y9042681D01*
X3186522Y9085907D01*
X3355951Y9085907D01*
X3380993Y9003333D01*
X3480649Y8784844D01*
X3621015Y8589995D01*
X3796697Y8426274D01*
X4000944Y8299973D01*
X4225906Y8215945D01*
X4415000Y8275138D01*
X4415000Y9275000D01*
X4665000Y9275000D01*
X4665000Y8275138D01*
X4854094Y8215945D01*
X5079056Y8299973D01*
X5283303Y8426274D01*
X5458985Y8589995D01*
X5599351Y8784844D01*
X5699007Y9003333D01*
X5724049Y9085907D01*
X5664323Y9275000D01*
X4665000Y9275000D01*
X4415000Y9275000D01*
X3415677Y9275000D01*
X3355951Y9085907D01*
X3186522Y9085907D01*
X3225000Y9279348D01*
X3225000Y9520652D01*
X3186523Y9714093D01*
X3355951Y9714093D01*
X3415677Y9525000D01*
X4415000Y9525000D01*
X4415000Y10524862D01*
X4665000Y10524862D01*
X4665000Y9525000D01*
X5664323Y9525000D01*
X5724049Y9714093D01*
X5699007Y9796667D01*
X5599351Y10015156D01*
X5458985Y10210005D01*
X5283303Y10373726D01*
X5079056Y10500027D01*
X4854094Y10584055D01*
X4665000Y10524862D01*
X4415000Y10524862D01*
X4225906Y10584055D01*
X4000944Y10500027D01*
X3796697Y10373726D01*
X3621015Y10210005D01*
X3480649Y10015156D01*
X3380993Y9796667D01*
X3355951Y9714093D01*
X3186523Y9714093D01*
X3177924Y9757319D01*
X3085581Y9980255D01*
X2951519Y10180892D01*
X2780892Y10351519D01*
X2580255Y10485581D01*
X2357319Y10577924D01*
X2120652Y10625000D01*
X1879348Y10625000D01*
X1642681Y10577924D01*
X1419745Y10485581D01*
X1219108Y10351519D01*
X1048481Y10180892D01*
X914419Y9980255D01*
X822076Y9757319D01*
X775000Y9520652D01*
X400000Y9520652D01*
X400000Y12060652D01*
X775000Y12060652D01*
X775000Y11819348D01*
X822076Y11582681D01*
X914419Y11359745D01*
X1048481Y11159108D01*
X1219108Y10988481D01*
X1419745Y10854419D01*
X1642681Y10762076D01*
X1879348Y10715000D01*
X2120652Y10715000D01*
X2357319Y10762076D01*
X2580255Y10854419D01*
X2780892Y10988481D01*
X2951519Y11159108D01*
X3085581Y11359745D01*
X3177924Y11582681D01*
X3225000Y11819348D01*
X3225000Y12060652D01*
X3315000Y12060652D01*
X3315000Y11819348D01*
X3362076Y11582681D01*
X3454419Y11359745D01*
X3588481Y11159108D01*
X3759108Y10988481D01*
X3959745Y10854419D01*
X4182681Y10762076D01*
X4419348Y10715000D01*
X4660652Y10715000D01*
X4897319Y10762076D01*
X5120255Y10854419D01*
X5320892Y10988481D01*
X5491519Y11159108D01*
X5625581Y11359745D01*
X5717924Y11582681D01*
X5765000Y11819348D01*
X5765000Y12060652D01*
X5717924Y12297319D01*
X5625581Y12520255D01*
X5491519Y12720892D01*
X5320892Y12891519D01*
X5120255Y13025581D01*
X4897319Y13117924D01*
X4660652Y13165000D01*
X4419348Y13165000D01*
X4182681Y13117924D01*
X3959745Y13025581D01*
X3759108Y12891519D01*
X3588481Y12720892D01*
X3454419Y12520255D01*
X3362076Y12297319D01*
X3315000Y12060652D01*
X3225000Y12060652D01*
X3177924Y12297319D01*
X3085581Y12520255D01*
X2951519Y12720892D01*
X2780892Y12891519D01*
X2580255Y13025581D01*
X2357319Y13117924D01*
X2120652Y13165000D01*
X1879348Y13165000D01*
X1642681Y13117924D01*
X1419745Y13025581D01*
X1219108Y12891519D01*
X1048481Y12720892D01*
X914419Y12520255D01*
X822076Y12297319D01*
X775000Y12060652D01*
X400000Y12060652D01*
X400000Y14600652D01*
X775000Y14600652D01*
X775000Y14359348D01*
X822076Y14122681D01*
X914419Y13899745D01*
X1048481Y13699108D01*
X1219108Y13528481D01*
X1419745Y13394419D01*
X1642681Y13302076D01*
X1879348Y13255000D01*
X2120652Y13255000D01*
X2357319Y13302076D01*
X2580255Y13394419D01*
X2780892Y13528481D01*
X2951519Y13699108D01*
X3085581Y13899745D01*
X3177924Y14122681D01*
X3225000Y14359348D01*
X3225000Y14600652D01*
X3315000Y14600652D01*
X3315000Y14359348D01*
X3362076Y14122681D01*
X3454419Y13899745D01*
X3588481Y13699108D01*
X3759108Y13528481D01*
X3959745Y13394419D01*
X4182681Y13302076D01*
X4419348Y13255000D01*
X4660652Y13255000D01*
X4897319Y13302076D01*
X5120255Y13394419D01*
X5320892Y13528481D01*
X5491519Y13699108D01*
X5625581Y13899745D01*
X5717924Y14122681D01*
X5765000Y14359348D01*
X5765000Y14600652D01*
X5717924Y14837319D01*
X5625581Y15060255D01*
X5491519Y15260892D01*
X5320892Y15431519D01*
X5120255Y15565581D01*
X4897319Y15657924D01*
X4660652Y15705000D01*
X4419348Y15705000D01*
X4182681Y15657924D01*
X3959745Y15565581D01*
X3759108Y15431519D01*
X3588481Y15260892D01*
X3454419Y15060255D01*
X3362076Y14837319D01*
X3315000Y14600652D01*
X3225000Y14600652D01*
X3177924Y14837319D01*
X3085581Y15060255D01*
X2951519Y15260892D01*
X2780892Y15431519D01*
X2580255Y15565581D01*
X2357319Y15657924D01*
X2120652Y15705000D01*
X1879348Y15705000D01*
X1642681Y15657924D01*
X1419745Y15565581D01*
X1219108Y15431519D01*
X1048481Y15260892D01*
X914419Y15060255D01*
X822076Y14837319D01*
X775000Y14600652D01*
X400000Y14600652D01*
X400000Y17140652D01*
X775000Y17140652D01*
X775000Y16899348D01*
X822076Y16662681D01*
X914419Y16439745D01*
X1048481Y16239108D01*
X1219108Y16068481D01*
X1419745Y15934419D01*
X1642681Y15842076D01*
X1879348Y15795000D01*
X2120652Y15795000D01*
X2357319Y15842076D01*
X2580255Y15934419D01*
X2780892Y16068481D01*
X2951519Y16239108D01*
X3085581Y16439745D01*
X3177924Y16662681D01*
X3225000Y16899348D01*
X3225000Y17140652D01*
X3315000Y17140652D01*
X3315000Y16899348D01*
X3362076Y16662681D01*
X3454419Y16439745D01*
X3588481Y16239108D01*
X3759108Y16068481D01*
X3959745Y15934419D01*
X4182681Y15842076D01*
X4419348Y15795000D01*
X4660652Y15795000D01*
X4897319Y15842076D01*
X5120255Y15934419D01*
X5320892Y16068481D01*
X5491519Y16239108D01*
X5625581Y16439745D01*
X5717924Y16662681D01*
X5765000Y16899348D01*
X5765000Y17140652D01*
X5717924Y17377319D01*
X5625581Y17600255D01*
X5491519Y17800892D01*
X5320892Y17971519D01*
X5120255Y18105581D01*
X4897319Y18197924D01*
X4660652Y18245000D01*
X4419348Y18245000D01*
X4182681Y18197924D01*
X3959745Y18105581D01*
X3759108Y17971519D01*
X3588481Y17800892D01*
X3454419Y17600255D01*
X3362076Y17377319D01*
X3315000Y17140652D01*
X3225000Y17140652D01*
X3177924Y17377319D01*
X3085581Y17600255D01*
X2951519Y17800892D01*
X2780892Y17971519D01*
X2580255Y18105581D01*
X2357319Y18197924D01*
X2120652Y18245000D01*
X1879348Y18245000D01*
X1642681Y18197924D01*
X1419745Y18105581D01*
X1219108Y17971519D01*
X1048481Y17800892D01*
X914419Y17600255D01*
X822076Y17377319D01*
X775000Y17140652D01*
X400000Y17140652D01*
X400000Y19680652D01*
X775000Y19680652D01*
X775000Y19439348D01*
X822076Y19202681D01*
X914419Y18979745D01*
X1048481Y18779108D01*
X1219108Y18608481D01*
X1419745Y18474419D01*
X1642681Y18382076D01*
X1879348Y18335000D01*
X2120652Y18335000D01*
X2357319Y18382076D01*
X2580255Y18474419D01*
X2780892Y18608481D01*
X2951519Y18779108D01*
X3085581Y18979745D01*
X3177924Y19202681D01*
X3225000Y19439348D01*
X3225000Y19680652D01*
X3177924Y19917319D01*
X3085581Y20140255D01*
X2951519Y20340892D01*
X2780892Y20511519D01*
X2580255Y20645581D01*
X2357319Y20737924D01*
X2120652Y20785000D01*
X1879348Y20785000D01*
X1642681Y20737924D01*
X1419745Y20645581D01*
X1219108Y20511519D01*
X1048481Y20340892D01*
X914419Y20140255D01*
X822076Y19917319D01*
X775000Y19680652D01*
X400000Y19680652D01*
X400000Y22950000D01*
X773186Y22950000D01*
X773186Y21250000D01*
X780426Y21176487D01*
X801869Y21105800D01*
X836691Y21040653D01*
X883552Y20983552D01*
X940653Y20936691D01*
X1005800Y20901869D01*
X1076487Y20880426D01*
X1150000Y20873186D01*
X2850000Y20873186D01*
X2923513Y20880426D01*
X2994200Y20901869D01*
X3059347Y20936691D01*
X3116448Y20983552D01*
X3163309Y21040653D01*
X3198131Y21105800D01*
X3219574Y21176487D01*
X3226814Y21250000D01*
X3226814Y22220652D01*
X3315000Y22220652D01*
X3315000Y21979348D01*
X3362076Y21742681D01*
X3454419Y21519745D01*
X3588481Y21319108D01*
X3759108Y21148481D01*
X3959745Y21014419D01*
X4182681Y20922076D01*
X4419348Y20875000D01*
X4660652Y20875000D01*
X4844540Y20911578D01*
X5103664Y20652453D01*
X4897319Y20737924D01*
X4660652Y20785000D01*
X4419348Y20785000D01*
X4182681Y20737924D01*
X3959745Y20645581D01*
X3759108Y20511519D01*
X3588481Y20340892D01*
X3454419Y20140255D01*
X3362076Y19917319D01*
X3315000Y19680652D01*
X3315000Y19439348D01*
X3362076Y19202681D01*
X3454419Y18979745D01*
X3588481Y18779108D01*
X3759108Y18608481D01*
X3959745Y18474419D01*
X4182681Y18382076D01*
X4419348Y18335000D01*
X4660652Y18335000D01*
X4897319Y18382076D01*
X5120255Y18474419D01*
X5320892Y18608481D01*
X5491519Y18779108D01*
X5625581Y18979745D01*
X5717924Y19202681D01*
X5765000Y19439348D01*
X5765000Y19680652D01*
X5717924Y19917319D01*
X5632453Y20123664D01*
X5775001Y19981116D01*
X5775000Y12130694D01*
X5771977Y12100000D01*
X5775000Y12069306D01*
X5775000Y12069297D01*
X5784043Y11977480D01*
X5819781Y11859667D01*
X5877817Y11751090D01*
X5955920Y11655920D01*
X5979776Y11636342D01*
X8636351Y8979765D01*
X8655920Y8955920D01*
X8679765Y8936351D01*
X8679769Y8936347D01*
X8751088Y8877817D01*
X8791112Y8856424D01*
X8859666Y8819781D01*
X8977479Y8784043D01*
X9069296Y8775000D01*
X9069298Y8775000D01*
X9100000Y8771976D01*
X9130702Y8775000D01*
X13564912Y8775000D01*
X13478235Y8728670D01*
X13352803Y8523973D01*
X14260000Y7616777D01*
X15167197Y8523973D01*
X15041765Y8728670D01*
X14945145Y8775000D01*
X18644912Y8775000D01*
X18558235Y8728670D01*
X18432803Y8523973D01*
X19340000Y7616777D01*
X20247197Y8523973D01*
X20121765Y8728670D01*
X20025145Y8775000D01*
X20941118Y8775000D01*
X22875001Y6841116D01*
X22875000Y4830694D01*
X22871977Y4800000D01*
X22875000Y4769306D01*
X22875000Y4769297D01*
X22884043Y4677480D01*
X22919781Y4559667D01*
X22977817Y4451090D01*
X23055920Y4355920D01*
X23079776Y4336342D01*
X23836346Y3579771D01*
X23855920Y3555920D01*
X23951089Y3477817D01*
X24059666Y3419781D01*
X24177479Y3384043D01*
X24269296Y3375000D01*
X24269298Y3375000D01*
X24300000Y3371976D01*
X24330701Y3375000D01*
X27040433Y3375000D01*
X27132918Y3313204D01*
X27273959Y3254783D01*
X27423687Y3225000D01*
X27576349Y3225000D01*
X27726077Y3254783D01*
X27867118Y3313204D01*
X27994052Y3398018D01*
X28102000Y3505966D01*
X28186814Y3632900D01*
X28245235Y3773941D01*
X28275018Y3923669D01*
X28275018Y4076331D01*
X28245235Y4226059D01*
X28186814Y4367100D01*
X28102000Y4494034D01*
X27994052Y4601982D01*
X27867118Y4686796D01*
X27726077Y4745217D01*
X27576349Y4775000D01*
X27423687Y4775000D01*
X27273959Y4745217D01*
X27132918Y4686796D01*
X27040433Y4625000D01*
X24558883Y4625000D01*
X24307552Y4876331D01*
X38425000Y4876331D01*
X38425000Y4723669D01*
X38454783Y4573941D01*
X38513204Y4432900D01*
X38598018Y4305966D01*
X38705966Y4198018D01*
X38832900Y4113204D01*
X38973941Y4054783D01*
X39123669Y4025000D01*
X39276331Y4025000D01*
X39426059Y4054783D01*
X39567100Y4113204D01*
X39694034Y4198018D01*
X39801982Y4305966D01*
X39886796Y4432900D01*
X39945217Y4573941D01*
X39975000Y4723669D01*
X39975000Y4876331D01*
X39968405Y4909490D01*
X42527287Y4909490D01*
X44200000Y3236777D01*
X45872713Y4909490D01*
X45617968Y5224327D01*
X45168482Y5459372D01*
X44681779Y5602211D01*
X44176562Y5647354D01*
X43672244Y5593066D01*
X43188208Y5441434D01*
X42782032Y5224327D01*
X42527287Y4909490D01*
X39968405Y4909490D01*
X39945217Y5026059D01*
X39886796Y5167100D01*
X39801982Y5294034D01*
X39694034Y5401982D01*
X39567100Y5486796D01*
X39426059Y5545217D01*
X39276331Y5575000D01*
X39123669Y5575000D01*
X38973941Y5545217D01*
X38832900Y5486796D01*
X38705966Y5401982D01*
X38598018Y5294034D01*
X38513204Y5167100D01*
X38454783Y5026059D01*
X38425000Y4876331D01*
X24307552Y4876331D01*
X24125000Y5058882D01*
X24125000Y7069307D01*
X24128023Y7100001D01*
X24125000Y7130695D01*
X24125000Y7130704D01*
X24115957Y7222521D01*
X24080219Y7340334D01*
X24022183Y7448911D01*
X24022182Y7448913D01*
X23963652Y7520231D01*
X23944080Y7544080D01*
X23920229Y7563654D01*
X22907552Y8576331D01*
X25525000Y8576331D01*
X25525000Y8423669D01*
X25554783Y8273941D01*
X25613204Y8132900D01*
X25698018Y8005966D01*
X25805966Y7898018D01*
X25932900Y7813204D01*
X26073941Y7754783D01*
X26223669Y7725000D01*
X26376331Y7725000D01*
X26526059Y7754783D01*
X26667100Y7813204D01*
X26794034Y7898018D01*
X26901982Y8005966D01*
X26986796Y8132900D01*
X27045217Y8273941D01*
X27075000Y8423669D01*
X27075000Y8576331D01*
X27045217Y8726059D01*
X26986796Y8867100D01*
X26901982Y8994034D01*
X26794034Y9101982D01*
X26667100Y9186796D01*
X26526059Y9245217D01*
X26376331Y9275000D01*
X26223669Y9275000D01*
X26073941Y9245217D01*
X25932900Y9186796D01*
X25805966Y9101982D01*
X25698018Y8994034D01*
X25613204Y8867100D01*
X25554783Y8726059D01*
X25525000Y8576331D01*
X22907552Y8576331D01*
X21663658Y9820224D01*
X21644080Y9844080D01*
X21548911Y9922183D01*
X21440334Y9980219D01*
X21322521Y10015957D01*
X21230704Y10025000D01*
X21230694Y10025000D01*
X21200000Y10028023D01*
X21169306Y10025000D01*
X9358884Y10025000D01*
X9180295Y10203589D01*
X32038282Y10203589D01*
X32038282Y9866411D01*
X32104063Y9535710D01*
X32233095Y9224198D01*
X32420422Y8943844D01*
X32658844Y8705422D01*
X32939198Y8518095D01*
X33250710Y8389063D01*
X33581411Y8323282D01*
X33918589Y8323282D01*
X34249290Y8389063D01*
X34362671Y8436027D01*
X39352803Y8436027D01*
X39478235Y8231330D01*
X39744663Y8103576D01*
X40030896Y8030255D01*
X40325933Y8014184D01*
X40618437Y8055981D01*
X40897165Y8154039D01*
X41041765Y8231330D01*
X41167197Y8436027D01*
X44432803Y8436027D01*
X44558235Y8231330D01*
X44824663Y8103576D01*
X45110896Y8030255D01*
X45405933Y8014184D01*
X45698437Y8055981D01*
X45977165Y8154039D01*
X46121765Y8231330D01*
X46247197Y8436027D01*
X45340000Y9343223D01*
X44432803Y8436027D01*
X41167197Y8436027D01*
X40260000Y9343223D01*
X39352803Y8436027D01*
X34362671Y8436027D01*
X34560802Y8518095D01*
X34841156Y8705422D01*
X35079578Y8943844D01*
X35266905Y9224198D01*
X35362119Y9454067D01*
X38754184Y9454067D01*
X38795981Y9161563D01*
X38894039Y8882835D01*
X38971330Y8738235D01*
X39176027Y8612803D01*
X40083223Y9520000D01*
X40436777Y9520000D01*
X41343973Y8612803D01*
X41548670Y8738235D01*
X41676424Y9004663D01*
X41749745Y9290896D01*
X41758633Y9454067D01*
X43834184Y9454067D01*
X43875981Y9161563D01*
X43974039Y8882835D01*
X44051330Y8738235D01*
X44256027Y8612803D01*
X45163223Y9520000D01*
X44256027Y10427197D01*
X44051330Y10301765D01*
X43923576Y10035337D01*
X43850255Y9749104D01*
X43834184Y9454067D01*
X41758633Y9454067D01*
X41765816Y9585933D01*
X41724019Y9878437D01*
X41625961Y10157165D01*
X41548670Y10301765D01*
X41343973Y10427197D01*
X40436777Y9520000D01*
X40083223Y9520000D01*
X39176027Y10427197D01*
X38971330Y10301765D01*
X38843576Y10035337D01*
X38770255Y9749104D01*
X38754184Y9454067D01*
X35362119Y9454067D01*
X35395937Y9535710D01*
X35461718Y9866411D01*
X35461718Y10203589D01*
X35395937Y10534290D01*
X35367074Y10603973D01*
X39352803Y10603973D01*
X40260000Y9696777D01*
X41167197Y10603973D01*
X41041765Y10808670D01*
X40775337Y10936424D01*
X40489104Y11009745D01*
X40194067Y11025816D01*
X39901563Y10984019D01*
X39622835Y10885961D01*
X39478235Y10808670D01*
X39352803Y10603973D01*
X35367074Y10603973D01*
X35266905Y10845802D01*
X35079578Y11126156D01*
X34841156Y11364578D01*
X34560802Y11551905D01*
X34249290Y11680937D01*
X33918589Y11746718D01*
X33581411Y11746718D01*
X33250710Y11680937D01*
X32939198Y11551905D01*
X32658844Y11364578D01*
X32420422Y11126156D01*
X32233095Y10845802D01*
X32104063Y10534290D01*
X32038282Y10203589D01*
X9180295Y10203589D01*
X7607552Y11776331D01*
X9975000Y11776331D01*
X9975000Y11623669D01*
X10004783Y11473941D01*
X10063204Y11332900D01*
X10148018Y11205966D01*
X10255966Y11098018D01*
X10382900Y11013204D01*
X10523941Y10954783D01*
X10673669Y10925000D01*
X10826331Y10925000D01*
X10976059Y10954783D01*
X11117100Y11013204D01*
X11244034Y11098018D01*
X11296016Y11150000D01*
X16322992Y11150000D01*
X16350000Y11147340D01*
X16377008Y11150000D01*
X16377018Y11150000D01*
X16457819Y11157958D01*
X16561494Y11189408D01*
X16657042Y11240479D01*
X16740790Y11309210D01*
X16758013Y11330196D01*
X17877817Y12450000D01*
X21173186Y12450000D01*
X21173186Y11250000D01*
X21180426Y11176487D01*
X21201869Y11105800D01*
X21236691Y11040653D01*
X21283552Y10983552D01*
X21340653Y10936691D01*
X21405800Y10901869D01*
X21476487Y10880426D01*
X21550000Y10873186D01*
X24850000Y10873186D01*
X24923513Y10880426D01*
X24994200Y10901869D01*
X25059347Y10936691D01*
X25116448Y10983552D01*
X25163309Y11040653D01*
X25198131Y11105800D01*
X25219574Y11176487D01*
X25226814Y11250000D01*
X25226814Y12230804D01*
X41065800Y12230804D01*
X41065800Y11889196D01*
X41132444Y11554153D01*
X41263172Y11238548D01*
X41452959Y10954512D01*
X41694512Y10712959D01*
X41978548Y10523172D01*
X42294153Y10392444D01*
X42629196Y10325800D01*
X42970804Y10325800D01*
X43305847Y10392444D01*
X43621452Y10523172D01*
X43742379Y10603973D01*
X44432803Y10603973D01*
X45340000Y9696777D01*
X46247197Y10603973D01*
X46121765Y10808670D01*
X45855337Y10936424D01*
X45569104Y11009745D01*
X45274067Y11025816D01*
X44981563Y10984019D01*
X44702835Y10885961D01*
X44558235Y10808670D01*
X44432803Y10603973D01*
X43742379Y10603973D01*
X43905488Y10712959D01*
X44147041Y10954512D01*
X44336828Y11238548D01*
X44467556Y11554153D01*
X44534200Y11889196D01*
X44534200Y12230804D01*
X44467556Y12565847D01*
X44336828Y12881452D01*
X44147041Y13165488D01*
X43905488Y13407041D01*
X43742380Y13516027D01*
X44432803Y13516027D01*
X44558235Y13311330D01*
X44824663Y13183576D01*
X45110896Y13110255D01*
X45405933Y13094184D01*
X45698437Y13135981D01*
X45977165Y13234039D01*
X46121765Y13311330D01*
X46247197Y13516027D01*
X45340000Y14423223D01*
X44432803Y13516027D01*
X43742380Y13516027D01*
X43621452Y13596828D01*
X43305847Y13727556D01*
X42970804Y13794200D01*
X42629196Y13794200D01*
X42294153Y13727556D01*
X41978548Y13596828D01*
X41694512Y13407041D01*
X41452959Y13165488D01*
X41263172Y12881452D01*
X41132444Y12565847D01*
X41065800Y12230804D01*
X25226814Y12230804D01*
X25226814Y13516027D01*
X39352803Y13516027D01*
X39478235Y13311330D01*
X39744663Y13183576D01*
X40030896Y13110255D01*
X40325933Y13094184D01*
X40618437Y13135981D01*
X40897165Y13234039D01*
X41041765Y13311330D01*
X41167197Y13516027D01*
X40260000Y14423223D01*
X39352803Y13516027D01*
X25226814Y13516027D01*
X25226814Y14534067D01*
X38754184Y14534067D01*
X38795981Y14241563D01*
X38894039Y13962835D01*
X38971330Y13818235D01*
X39176027Y13692803D01*
X40083223Y14600000D01*
X40436777Y14600000D01*
X41343973Y13692803D01*
X41548670Y13818235D01*
X41676424Y14084663D01*
X41749745Y14370896D01*
X41758633Y14534067D01*
X43834184Y14534067D01*
X43875981Y14241563D01*
X43974039Y13962835D01*
X44051330Y13818235D01*
X44256027Y13692803D01*
X45163223Y14600000D01*
X44256027Y15507197D01*
X44051330Y15381765D01*
X43923576Y15115337D01*
X43850255Y14829104D01*
X43834184Y14534067D01*
X41758633Y14534067D01*
X41765816Y14665933D01*
X41724019Y14958437D01*
X41625961Y15237165D01*
X41548670Y15381765D01*
X41343973Y15507197D01*
X40436777Y14600000D01*
X40083223Y14600000D01*
X39176027Y15507197D01*
X38971330Y15381765D01*
X38843576Y15115337D01*
X38770255Y14829104D01*
X38754184Y14534067D01*
X25226814Y14534067D01*
X25226814Y14750000D01*
X25219574Y14823513D01*
X25198131Y14894200D01*
X25163309Y14959347D01*
X25116448Y15016448D01*
X25059347Y15063309D01*
X24994200Y15098131D01*
X24923513Y15119574D01*
X24850000Y15126814D01*
X21550000Y15126814D01*
X21476487Y15119574D01*
X21405800Y15098131D01*
X21340653Y15063309D01*
X21283552Y15016448D01*
X21236691Y14959347D01*
X21201869Y14894200D01*
X21180426Y14823513D01*
X21173186Y14750000D01*
X21173186Y13550000D01*
X17677011Y13550000D01*
X17650000Y13552660D01*
X17622989Y13550000D01*
X17622982Y13550000D01*
X17542181Y13542042D01*
X17438506Y13510592D01*
X17342958Y13459521D01*
X17259210Y13390790D01*
X17241987Y13369804D01*
X16122183Y12250000D01*
X11296016Y12250000D01*
X11244034Y12301982D01*
X11117100Y12386796D01*
X10976059Y12445217D01*
X10826331Y12475000D01*
X10673669Y12475000D01*
X10523941Y12445217D01*
X10382900Y12386796D01*
X10255966Y12301982D01*
X10148018Y12194034D01*
X10063204Y12067100D01*
X10004783Y11926059D01*
X9975000Y11776331D01*
X7607552Y11776331D01*
X7025000Y12358882D01*
X7025000Y13026331D01*
X7175000Y13026331D01*
X7175000Y12873669D01*
X7204783Y12723941D01*
X7263204Y12582900D01*
X7348018Y12455966D01*
X7455966Y12348018D01*
X7582900Y12263204D01*
X7723941Y12204783D01*
X7873669Y12175000D01*
X8026331Y12175000D01*
X8176059Y12204783D01*
X8317100Y12263204D01*
X8444034Y12348018D01*
X8551982Y12455966D01*
X8636796Y12582900D01*
X8695217Y12723941D01*
X8725000Y12873669D01*
X8725000Y13026331D01*
X8695217Y13176059D01*
X8636796Y13317100D01*
X8551982Y13444034D01*
X8444034Y13551982D01*
X8317100Y13636796D01*
X8176059Y13695217D01*
X8026331Y13725000D01*
X7873669Y13725000D01*
X7723941Y13695217D01*
X7582900Y13636796D01*
X7455966Y13551982D01*
X7348018Y13444034D01*
X7263204Y13317100D01*
X7204783Y13176059D01*
X7175000Y13026331D01*
X7025000Y13026331D01*
X7025000Y16576331D01*
X11325000Y16576331D01*
X11325000Y16423669D01*
X11354783Y16273941D01*
X11413204Y16132900D01*
X11498018Y16005966D01*
X11605966Y15898018D01*
X11732900Y15813204D01*
X11873941Y15754783D01*
X12023669Y15725000D01*
X12176331Y15725000D01*
X12326059Y15754783D01*
X12467100Y15813204D01*
X12594034Y15898018D01*
X12701982Y16005966D01*
X12786796Y16132900D01*
X12845217Y16273941D01*
X12875000Y16423669D01*
X12875000Y16576331D01*
X12845217Y16726059D01*
X12786796Y16867100D01*
X12705491Y16988783D01*
X19465560Y16988783D01*
X20068266Y16376876D01*
X21010860Y15852815D01*
X22037580Y15522715D01*
X23108972Y15399260D01*
X24183863Y15487197D01*
X24873420Y15683973D01*
X39352803Y15683973D01*
X40260000Y14776777D01*
X41167197Y15683973D01*
X44432803Y15683973D01*
X45340000Y14776777D01*
X46247197Y15683973D01*
X46121765Y15888670D01*
X45855337Y16016424D01*
X45569104Y16089745D01*
X45274067Y16105816D01*
X44981563Y16064019D01*
X44702835Y15965961D01*
X44558235Y15888670D01*
X44432803Y15683973D01*
X41167197Y15683973D01*
X41041765Y15888670D01*
X40775337Y16016424D01*
X40489104Y16089745D01*
X40194067Y16105816D01*
X39901563Y16064019D01*
X39622835Y15965961D01*
X39478235Y15888670D01*
X39352803Y15683973D01*
X24873420Y15683973D01*
X25220943Y15783144D01*
X26180360Y16275730D01*
X26331734Y16376876D01*
X26934440Y16988783D01*
X23200000Y20723223D01*
X19465560Y16988783D01*
X12705491Y16988783D01*
X12701982Y16994034D01*
X12594034Y17101982D01*
X12467100Y17186796D01*
X12326059Y17245217D01*
X12176331Y17275000D01*
X12023669Y17275000D01*
X11873941Y17245217D01*
X11732900Y17186796D01*
X11605966Y17101982D01*
X11498018Y16994034D01*
X11413204Y16867100D01*
X11354783Y16726059D01*
X11325000Y16576331D01*
X7025000Y16576331D01*
X7025000Y18376335D01*
X11425000Y18376335D01*
X11425000Y18223673D01*
X11454783Y18073945D01*
X11513204Y17932904D01*
X11598018Y17805970D01*
X11705966Y17698022D01*
X11832900Y17613208D01*
X11973941Y17554787D01*
X12123669Y17525004D01*
X12276331Y17525004D01*
X12426059Y17554787D01*
X12567100Y17613208D01*
X12694034Y17698022D01*
X12801982Y17805970D01*
X12886796Y17932904D01*
X12945217Y18073945D01*
X12975000Y18223673D01*
X12975000Y18376335D01*
X12945217Y18526063D01*
X12886796Y18667104D01*
X12801982Y18794038D01*
X12694034Y18901986D01*
X12567100Y18986800D01*
X12426059Y19045221D01*
X12276331Y19075004D01*
X12123669Y19075004D01*
X11973941Y19045221D01*
X11832900Y18986800D01*
X11705966Y18901986D01*
X11598018Y18794038D01*
X11513204Y18667104D01*
X11454783Y18526063D01*
X11425000Y18376335D01*
X7025000Y18376335D01*
X7025000Y20209307D01*
X7028023Y20240001D01*
X7025000Y20270695D01*
X7025000Y20270704D01*
X7015957Y20362521D01*
X6980219Y20480334D01*
X6922183Y20588911D01*
X6922182Y20588913D01*
X6863652Y20660231D01*
X6844080Y20684080D01*
X6820229Y20703654D01*
X6532855Y20991028D01*
X17699260Y20991028D01*
X17787197Y19916137D01*
X18083144Y18879057D01*
X18575730Y17919640D01*
X18676876Y17768266D01*
X19288783Y17165560D01*
X23023223Y20900000D01*
X23376777Y20900000D01*
X27111217Y17165560D01*
X27723124Y17768266D01*
X27949998Y18176331D01*
X28324996Y18176331D01*
X28324996Y18023669D01*
X28354779Y17873941D01*
X28413200Y17732900D01*
X28498014Y17605966D01*
X28605962Y17498018D01*
X28732896Y17413204D01*
X28873937Y17354783D01*
X29023665Y17325000D01*
X29176327Y17325000D01*
X29326055Y17354783D01*
X29467096Y17413204D01*
X29594030Y17498018D01*
X29701978Y17605966D01*
X29786792Y17732900D01*
X29845213Y17873941D01*
X29874996Y18023669D01*
X29874996Y18176331D01*
X29845213Y18326059D01*
X29786792Y18467100D01*
X29701978Y18594034D01*
X29594030Y18701982D01*
X29467096Y18786796D01*
X29326055Y18845217D01*
X29176327Y18875000D01*
X29023665Y18875000D01*
X28873937Y18845217D01*
X28732896Y18786796D01*
X28605962Y18701982D01*
X28498014Y18594034D01*
X28413200Y18467100D01*
X28354779Y18326059D01*
X28324996Y18176331D01*
X27949998Y18176331D01*
X28247185Y18710860D01*
X28577285Y19737580D01*
X28700740Y20808972D01*
X28612803Y21883863D01*
X28316856Y22920943D01*
X27824270Y23880360D01*
X27798058Y23919589D01*
X32038282Y23919589D01*
X32038282Y23582411D01*
X32104063Y23251710D01*
X32233095Y22940198D01*
X32420422Y22659844D01*
X32658844Y22421422D01*
X32939198Y22234095D01*
X33250710Y22105063D01*
X33581411Y22039282D01*
X33918589Y22039282D01*
X34249290Y22105063D01*
X34560802Y22234095D01*
X34841156Y22421422D01*
X35079578Y22659844D01*
X35266905Y22940198D01*
X35395937Y23251710D01*
X35461718Y23582411D01*
X35461718Y23919589D01*
X35395937Y24250290D01*
X35266905Y24561802D01*
X35079578Y24842156D01*
X34841156Y25080578D01*
X34560802Y25267905D01*
X34249290Y25396937D01*
X33918589Y25462718D01*
X33581411Y25462718D01*
X33250710Y25396937D01*
X32939198Y25267905D01*
X32658844Y25080578D01*
X32420422Y24842156D01*
X32233095Y24561802D01*
X32104063Y24250290D01*
X32038282Y23919589D01*
X27798058Y23919589D01*
X27723124Y24031734D01*
X27111217Y24634440D01*
X23376777Y20900000D01*
X23023223Y20900000D01*
X19288783Y24634440D01*
X18676876Y24031734D01*
X18152815Y23089140D01*
X17822715Y22062420D01*
X17699260Y20991028D01*
X6532855Y20991028D01*
X5728422Y21795460D01*
X5765000Y21979348D01*
X5765000Y22220652D01*
X5717924Y22457319D01*
X5625581Y22680255D01*
X5491519Y22880892D01*
X5320892Y23051519D01*
X5165000Y23155683D01*
X5165000Y24076331D01*
X14525000Y24076331D01*
X14525000Y23923669D01*
X14554783Y23773941D01*
X14613204Y23632900D01*
X14698018Y23505966D01*
X14805966Y23398018D01*
X14932900Y23313204D01*
X15073941Y23254783D01*
X15223669Y23225000D01*
X15376331Y23225000D01*
X15526059Y23254783D01*
X15667100Y23313204D01*
X15794034Y23398018D01*
X15901982Y23505966D01*
X15986796Y23632900D01*
X16045217Y23773941D01*
X16075000Y23923669D01*
X16075000Y24076331D01*
X16045217Y24226059D01*
X15986796Y24367100D01*
X15901982Y24494034D01*
X15794034Y24601982D01*
X15667100Y24686796D01*
X15526059Y24745217D01*
X15376331Y24775000D01*
X15223669Y24775000D01*
X15073941Y24745217D01*
X14932900Y24686796D01*
X14805966Y24601982D01*
X14698018Y24494034D01*
X14613204Y24367100D01*
X14554783Y24226059D01*
X14525000Y24076331D01*
X5165000Y24076331D01*
X5165000Y24731118D01*
X5710213Y25276331D01*
X11425000Y25276331D01*
X11425000Y25123669D01*
X11454783Y24973941D01*
X11513204Y24832900D01*
X11598018Y24705966D01*
X11705966Y24598018D01*
X11832900Y24513204D01*
X11973941Y24454783D01*
X12123669Y24425000D01*
X12276331Y24425000D01*
X12426059Y24454783D01*
X12567100Y24513204D01*
X12694034Y24598018D01*
X12801982Y24705966D01*
X12872307Y24811217D01*
X19465560Y24811217D01*
X23200000Y21076777D01*
X26934440Y24811217D01*
X26331734Y25423124D01*
X25389140Y25947185D01*
X24362420Y26277285D01*
X23291028Y26400740D01*
X22216137Y26312803D01*
X21179057Y26016856D01*
X20219640Y25524270D01*
X20068266Y25423124D01*
X19465560Y24811217D01*
X12872307Y24811217D01*
X12886796Y24832900D01*
X12945217Y24973941D01*
X12975000Y25123669D01*
X12975000Y25276331D01*
X12945217Y25426059D01*
X12886796Y25567100D01*
X12801982Y25694034D01*
X12694034Y25801982D01*
X12567100Y25886796D01*
X12426059Y25945217D01*
X12276331Y25975000D01*
X12123669Y25975000D01*
X11973941Y25945217D01*
X11832900Y25886796D01*
X11705966Y25801982D01*
X11598018Y25694034D01*
X11513204Y25567100D01*
X11454783Y25426059D01*
X11425000Y25276331D01*
X5710213Y25276331D01*
X10110213Y29676331D01*
X14525000Y29676331D01*
X14525000Y29523669D01*
X14554783Y29373941D01*
X14613204Y29232900D01*
X14698018Y29105966D01*
X14753984Y29050000D01*
X14698018Y28994034D01*
X14613204Y28867100D01*
X14554783Y28726059D01*
X14525000Y28576331D01*
X14525000Y28423669D01*
X14554783Y28273941D01*
X14613204Y28132900D01*
X14698018Y28005966D01*
X14805966Y27898018D01*
X14932900Y27813204D01*
X15073941Y27754783D01*
X15223669Y27725000D01*
X15376331Y27725000D01*
X15526059Y27754783D01*
X15667100Y27813204D01*
X15794034Y27898018D01*
X15901982Y28005966D01*
X15986796Y28132900D01*
X16045217Y28273941D01*
X16075000Y28423669D01*
X16075000Y28576331D01*
X16045217Y28726059D01*
X15986796Y28867100D01*
X15901982Y28994034D01*
X15846016Y29050000D01*
X15901982Y29105966D01*
X15986796Y29232900D01*
X16045217Y29373941D01*
X16075000Y29523669D01*
X16075000Y29676331D01*
X16045217Y29826059D01*
X15986796Y29967100D01*
X15901982Y30094034D01*
X15794034Y30201982D01*
X15667100Y30286796D01*
X15526059Y30345217D01*
X15376331Y30375000D01*
X15223669Y30375000D01*
X15073941Y30345217D01*
X14932900Y30286796D01*
X14805966Y30201982D01*
X14698018Y30094034D01*
X14613204Y29967100D01*
X14554783Y29826059D01*
X14525000Y29676331D01*
X10110213Y29676331D01*
X10983882Y30550000D01*
X21173186Y30550000D01*
X21173186Y27050000D01*
X21180426Y26976487D01*
X21201869Y26905800D01*
X21236691Y26840653D01*
X21283552Y26783552D01*
X21340653Y26736691D01*
X21405800Y26701869D01*
X21476487Y26680426D01*
X21550000Y26673186D01*
X24850000Y26673186D01*
X24923513Y26680426D01*
X24994200Y26701869D01*
X25059347Y26736691D01*
X25116448Y26783552D01*
X25163309Y26840653D01*
X25198131Y26905800D01*
X25219574Y26976487D01*
X25226814Y27050000D01*
X25226814Y28526331D01*
X27875000Y28526331D01*
X27875000Y28373669D01*
X27904783Y28223941D01*
X27963204Y28082900D01*
X28048018Y27955966D01*
X28155966Y27848018D01*
X28282900Y27763204D01*
X28423941Y27704783D01*
X28573669Y27675000D01*
X28726331Y27675000D01*
X28876059Y27704783D01*
X29017100Y27763204D01*
X29144034Y27848018D01*
X29251982Y27955966D01*
X29336796Y28082900D01*
X29395217Y28223941D01*
X29425000Y28373669D01*
X29425000Y28526331D01*
X29395217Y28676059D01*
X29336796Y28817100D01*
X29251982Y28944034D01*
X29144034Y29051982D01*
X29017100Y29136796D01*
X28876059Y29195217D01*
X28726331Y29225000D01*
X28573669Y29225000D01*
X28423941Y29195217D01*
X28282900Y29136796D01*
X28155966Y29051982D01*
X28048018Y28944034D01*
X27963204Y28817100D01*
X27904783Y28676059D01*
X27875000Y28526331D01*
X25226814Y28526331D01*
X25226814Y30550000D01*
X25219574Y30623513D01*
X25198131Y30694200D01*
X25163309Y30759347D01*
X25116448Y30816448D01*
X25059347Y30863309D01*
X24994200Y30898131D01*
X24923513Y30919574D01*
X24850000Y30926814D01*
X21550000Y30926814D01*
X21476487Y30919574D01*
X21405800Y30898131D01*
X21340653Y30863309D01*
X21283552Y30816448D01*
X21236691Y30759347D01*
X21201869Y30694200D01*
X21180426Y30623513D01*
X21173186Y30550000D01*
X10983882Y30550000D01*
X11508883Y31075000D01*
X11576331Y31075000D01*
X11726059Y31104783D01*
X11867100Y31163204D01*
X11959585Y31225000D01*
X12640415Y31225000D01*
X12732900Y31163204D01*
X12873941Y31104783D01*
X13023669Y31075000D01*
X13176331Y31075000D01*
X13326059Y31104783D01*
X13467100Y31163204D01*
X13559585Y31225000D01*
X32625133Y31225000D01*
X32532900Y31186796D01*
X32405966Y31101982D01*
X32298018Y30994034D01*
X32213204Y30867100D01*
X32154783Y30726059D01*
X32125000Y30576331D01*
X32125000Y30423669D01*
X32154783Y30273941D01*
X32213204Y30132900D01*
X32298018Y30005966D01*
X32405966Y29898018D01*
X32532900Y29813204D01*
X32673941Y29754783D01*
X32823669Y29725000D01*
X32976331Y29725000D01*
X33126059Y29754783D01*
X33267100Y29813204D01*
X33394034Y29898018D01*
X33501982Y30005966D01*
X33586796Y30132900D01*
X33645217Y30273941D01*
X33675000Y30423669D01*
X33675000Y30576331D01*
X33645217Y30726059D01*
X33586796Y30867100D01*
X33501982Y30994034D01*
X33394034Y31101982D01*
X33267100Y31186796D01*
X33174867Y31225000D01*
X33928984Y31225000D01*
X33898018Y31194034D01*
X33813204Y31067100D01*
X33754783Y30926059D01*
X33725000Y30776331D01*
X33725000Y30623669D01*
X33754783Y30473941D01*
X33813204Y30332900D01*
X33898018Y30205966D01*
X34005966Y30098018D01*
X34132900Y30013204D01*
X34273941Y29954783D01*
X34423669Y29925000D01*
X34576331Y29925000D01*
X34726059Y29954783D01*
X34867100Y30013204D01*
X34994034Y30098018D01*
X35101982Y30205966D01*
X35122425Y30236562D01*
X41612646Y30236562D01*
X41666934Y29732244D01*
X41818566Y29248208D01*
X42035673Y28842032D01*
X42350510Y28587287D01*
X44023223Y30260000D01*
X44376777Y30260000D01*
X46049490Y28587287D01*
X46364327Y28842032D01*
X46599372Y29291518D01*
X46742211Y29778221D01*
X46787354Y30283438D01*
X46733066Y30787756D01*
X46581434Y31271792D01*
X46364327Y31677968D01*
X46049490Y31932713D01*
X44376777Y30260000D01*
X44023223Y30260000D01*
X42350510Y31932713D01*
X42035673Y31677968D01*
X41800628Y31228482D01*
X41657789Y30741779D01*
X41612646Y30236562D01*
X35122425Y30236562D01*
X35186796Y30332900D01*
X35245217Y30473941D01*
X35275000Y30623669D01*
X35275000Y30776331D01*
X35245217Y30926059D01*
X35186796Y31067100D01*
X35101982Y31194034D01*
X35071016Y31225000D01*
X39051120Y31225000D01*
X39333085Y30943035D01*
X39354785Y30833941D01*
X39413206Y30692900D01*
X39498020Y30565966D01*
X39605968Y30458018D01*
X39732902Y30373204D01*
X39873943Y30314783D01*
X40023671Y30285000D01*
X40176333Y30285000D01*
X40326061Y30314783D01*
X40467102Y30373204D01*
X40594036Y30458018D01*
X40701984Y30565966D01*
X40786798Y30692900D01*
X40845219Y30833941D01*
X40875002Y30983669D01*
X40875002Y31136331D01*
X40845219Y31286059D01*
X40786798Y31427100D01*
X40701984Y31554034D01*
X40594036Y31661982D01*
X40467102Y31746796D01*
X40326061Y31805217D01*
X40216967Y31826917D01*
X39934394Y32109490D01*
X42527287Y32109490D01*
X44200000Y30436777D01*
X45872713Y32109490D01*
X45617968Y32424327D01*
X45168482Y32659372D01*
X44681779Y32802211D01*
X44176562Y32847354D01*
X43672244Y32793066D01*
X43188208Y32641434D01*
X42782032Y32424327D01*
X42527287Y32109490D01*
X39934394Y32109490D01*
X39773660Y32270224D01*
X39754082Y32294080D01*
X39658913Y32372183D01*
X39550336Y32430219D01*
X39432523Y32465957D01*
X39340706Y32475000D01*
X39340696Y32475000D01*
X39310002Y32478023D01*
X39279308Y32475000D01*
X13559585Y32475000D01*
X13467100Y32536796D01*
X13326059Y32595217D01*
X13176331Y32625000D01*
X13023669Y32625000D01*
X12873941Y32595217D01*
X12732900Y32536796D01*
X12640415Y32475000D01*
X11959585Y32475000D01*
X11867100Y32536796D01*
X11726059Y32595217D01*
X11576331Y32625000D01*
X11423669Y32625000D01*
X11273941Y32595217D01*
X11132900Y32536796D01*
X11005966Y32451982D01*
X10898018Y32344034D01*
X10813204Y32217100D01*
X10763697Y32097580D01*
X4119772Y25453654D01*
X4095921Y25434080D01*
X4076348Y25410230D01*
X4017818Y25338911D01*
X3959782Y25230334D01*
X3924044Y25112521D01*
X3911977Y24990000D01*
X3915001Y24959296D01*
X3915000Y23155683D01*
X3759108Y23051519D01*
X3588481Y22880892D01*
X3454419Y22680255D01*
X3362076Y22457319D01*
X3315000Y22220652D01*
X3226814Y22220652D01*
X3226814Y22950000D01*
X3219574Y23023513D01*
X3198131Y23094200D01*
X3163309Y23159347D01*
X3116448Y23216448D01*
X3059347Y23263309D01*
X2994200Y23298131D01*
X2923513Y23319574D01*
X2850000Y23326814D01*
X1150000Y23326814D01*
X1076487Y23319574D01*
X1005800Y23298131D01*
X940653Y23263309D01*
X883552Y23216448D01*
X836691Y23159347D01*
X801869Y23094200D01*
X780426Y23023513D01*
X773186Y22950000D01*
X400000Y22950000D01*
X400000Y28410510D01*
X1327287Y28410510D01*
X1582032Y28095673D01*
X2031518Y27860628D01*
X2518221Y27717789D01*
X3023438Y27672646D01*
X3527756Y27726934D01*
X4011792Y27878566D01*
X4417968Y28095673D01*
X4672713Y28410510D01*
X3000000Y30083223D01*
X1327287Y28410510D01*
X400000Y28410510D01*
X400000Y30236562D01*
X412646Y30236562D01*
X466934Y29732244D01*
X618566Y29248208D01*
X835673Y28842032D01*
X1150510Y28587287D01*
X2823223Y30260000D01*
X3176777Y30260000D01*
X4849490Y28587287D01*
X5164327Y28842032D01*
X5182262Y28876331D01*
X5325002Y28876331D01*
X5325002Y28723669D01*
X5354785Y28573941D01*
X5413206Y28432900D01*
X5498020Y28305966D01*
X5605968Y28198018D01*
X5732902Y28113204D01*
X5873943Y28054783D01*
X6023671Y28025000D01*
X6176333Y28025000D01*
X6326061Y28054783D01*
X6467102Y28113204D01*
X6594036Y28198018D01*
X6701984Y28305966D01*
X6786798Y28432900D01*
X6845219Y28573941D01*
X6875002Y28723669D01*
X6875002Y28876331D01*
X6845219Y29026059D01*
X6786798Y29167100D01*
X6701984Y29294034D01*
X6594036Y29401982D01*
X6467102Y29486796D01*
X6326061Y29545217D01*
X6176333Y29575000D01*
X6023671Y29575000D01*
X5873943Y29545217D01*
X5732902Y29486796D01*
X5605968Y29401982D01*
X5498020Y29294034D01*
X5413206Y29167100D01*
X5354785Y29026059D01*
X5325002Y28876331D01*
X5182262Y28876331D01*
X5399372Y29291518D01*
X5542211Y29778221D01*
X5587354Y30283438D01*
X5533066Y30787756D01*
X5381434Y31271792D01*
X5164327Y31677968D01*
X4849490Y31932713D01*
X3176777Y30260000D01*
X2823223Y30260000D01*
X1150510Y31932713D01*
X835673Y31677968D01*
X600628Y31228482D01*
X457789Y30741779D01*
X412646Y30236562D01*
X400000Y30236562D01*
X400000Y32109490D01*
X1327287Y32109490D01*
X3000000Y30436777D01*
X4672713Y32109490D01*
X4417968Y32424327D01*
X3968482Y32659372D01*
X3481779Y32802211D01*
X2976562Y32847354D01*
X2472244Y32793066D01*
X1988208Y32641434D01*
X1582032Y32424327D01*
X1327287Y32109490D01*
X400000Y32109490D01*
X400000Y32240435D01*
X413309Y32376167D01*
X447047Y32487913D01*
X501843Y32590971D01*
X575620Y32681430D01*
X665556Y32755832D01*
X768236Y32811350D01*
X879735Y32845865D01*
X1014214Y32860000D01*
X46180435Y32860000D01*
X46316167Y32846691D01*
G37*
G04 #@! TD.AperFunction*
M02*
