M48
; DRILL file {KiCad 5.1.8-5.1.8} date Tue Dec 15 11:19:40 2020
; FORMAT={-:-/ absolute / metric / decimal}
; #@! TF.CreationDate,2020-12-15T11:19:40+01:00
; #@! TF.GenerationSoftware,Kicad,Pcbnew,5.1.8-5.1.8
FMAT,2
METRIC
T1C0.400
T2C1.000
T3C1.500
T4C1.700
T5C2.200
%
G90
G05
T1
X6.1Y28.8
X6.2Y9.9
X9.8Y17.6
X10.3Y22.9
X10.6Y18.3
X11.7Y19.2
X12.1Y16.5
X12.2Y25.2
X12.2Y21.8
X12.2Y18.3
X12.3Y12.5
X15.3Y29.6
X15.3Y28.5
X15.3Y24.0
X15.3Y23.0
X15.3Y13.6
X15.3Y12.5
X15.4Y15.9
X25.0Y5.7
X26.3Y8.5
X26.3Y1.3
X27.1Y5.7
X27.5Y4.0
X28.6Y1.4
X29.0Y28.5
X29.1Y18.1
X29.1Y14.7
X29.1Y12.5
X29.6Y2.4
X32.2Y14.86
X32.2Y12.46
X32.9Y30.5
X33.412Y14.86
X33.412Y12.46
X34.5Y30.7
X34.818Y14.86
X34.818Y12.46
X35.2Y1.4
X35.5Y19.66
X35.5Y16.5
X36.079Y11.984
X36.206Y14.686
X36.8Y1.4
X37.221Y11.177
X37.428Y14.009
X38.4Y17.8
X38.582Y10.863
X38.582Y13.266
X39.2Y4.8
X39.8Y24.26
X40.1Y25.6
X40.1Y31.06
X41.0Y20.16
X41.5Y24.6
X42.7Y25.71
X42.7Y20.01
X43.55Y25.01
X43.55Y20.71
X45.1Y22.26
X45.1Y21.16
X45.4Y26.71
X45.4Y19.96
X45.7Y24.41
X46.0Y25.76
X46.0Y19.06
X46.3Y22.26
X46.3Y21.16
X42.55Y30.26
X43.033Y31.427
X43.033Y29.093
X44.2Y31.91
X44.2Y28.61
X45.367Y31.427
X45.367Y29.093
X45.85Y30.26
X1.35Y30.26
X1.833Y31.427
X1.833Y29.093
X3.0Y31.91
X3.0Y28.61
X4.167Y31.427
X4.167Y29.093
X4.65Y30.26
X42.55Y3.06
X43.033Y4.227
X43.033Y1.893
X44.2Y4.71
X44.2Y1.41
X45.367Y4.227
X45.367Y1.893
X45.85Y3.06
X1.35Y3.06
X1.833Y4.227
X1.833Y1.893
X3.0Y4.71
X3.0Y1.41
X4.167Y4.227
X4.167Y1.893
X4.65Y3.06
T2
X2.0Y22.1
X2.0Y19.56
X2.0Y17.02
X2.0Y14.48
X2.0Y11.94
X2.0Y9.4
X4.54Y22.1
X4.54Y19.56
X4.54Y17.02
X4.54Y14.48
X4.54Y11.94
X4.54Y9.4
T3
X42.8Y12.06
X16.8Y4.9
T4
X40.26Y14.6
X40.26Y9.52
X45.34Y14.6
X45.34Y9.52
X14.26Y7.44
X14.26Y2.36
X19.34Y7.44
X19.34Y2.36
T5
X44.2Y30.26
X3.0Y30.26
X44.2Y3.06
X3.0Y3.06
T0
M30
