G04 #@! TF.GenerationSoftware,KiCad,Pcbnew,5.1.9-5.1.9*
G04 #@! TF.CreationDate,2021-01-19T08:54:29+01:00*
G04 #@! TF.ProjectId,ublox-breakout,75626c6f-782d-4627-9265-616b6f75742e,rev?*
G04 #@! TF.SameCoordinates,PX71f6ce0PY5d47650*
G04 #@! TF.FileFunction,Legend,Bot*
G04 #@! TF.FilePolarity,Positive*
%FSLAX46Y46*%
G04 Gerber Fmt 4.6, Leading zero omitted, Abs format (unit mm)*
G04 Created by KiCad (PCBNEW 5.1.9-5.1.9) date 2021-01-19 08:54:29*
%MOMM*%
%LPD*%
G01*
G04 APERTURE LIST*
%ADD10C,0.120000*%
%ADD11C,0.150000*%
%ADD12C,2.250000*%
%ADD13C,2.050000*%
%ADD14C,10.200000*%
%ADD15R,3.300000X3.500000*%
%ADD16C,0.700000*%
%ADD17C,4.400000*%
%ADD18R,1.700000X1.700000*%
%ADD19O,1.700000X1.700000*%
G04 APERTURE END LIST*
D10*
X19750000Y-19100000D02*
X21200000Y-19100000D01*
X17150000Y-16500000D02*
X19750000Y-19100000D01*
X16350000Y-16500000D02*
X17150000Y-16500000D01*
X16350000Y-8200000D02*
X16350000Y-16500000D01*
X17150000Y-8200000D02*
X16350000Y-8200000D01*
X19750000Y-5600000D02*
X17150000Y-8200000D01*
X21200000Y-5600000D02*
X19750000Y-5600000D01*
X25200000Y-5600000D02*
X27300000Y-5600000D01*
X25200000Y-19100000D02*
X27300000Y-19100000D01*
X27250000Y-5600000D02*
G75*
G02*
X28800000Y-7050000I50000J-1500000D01*
G01*
X27250000Y-19100000D02*
G75*
G03*
X28800000Y-17650000I50000J1500000D01*
G01*
X28784160Y-6935385D02*
G75*
G02*
X28400000Y-7850000I-984160J-124615D01*
G01*
X28784160Y-17764615D02*
G75*
G03*
X28400000Y-16850000I-984160J124615D01*
G01*
D11*
X15135714Y-11642857D02*
X15178571Y-11771428D01*
X15221428Y-11814285D01*
X15307142Y-11857142D01*
X15435714Y-11857142D01*
X15521428Y-11814285D01*
X15564285Y-11771428D01*
X15607142Y-11685714D01*
X15607142Y-11342857D01*
X14707142Y-11342857D01*
X14707142Y-11642857D01*
X14750000Y-11728571D01*
X14792857Y-11771428D01*
X14878571Y-11814285D01*
X14964285Y-11814285D01*
X15050000Y-11771428D01*
X15092857Y-11728571D01*
X15135714Y-11642857D01*
X15135714Y-11342857D01*
X14707142Y-12114285D02*
X14707142Y-12628571D01*
X15607142Y-12371428D02*
X14707142Y-12371428D01*
X15607142Y-13400000D02*
X15607142Y-12885714D01*
X15607142Y-13142857D02*
X14707142Y-13142857D01*
X14835714Y-13057142D01*
X14921428Y-12971428D01*
X14964285Y-12885714D01*
%LPC*%
D12*
X18340000Y-25810000D03*
X18340000Y-30890000D03*
X13260000Y-30890000D03*
X13260000Y-25810000D03*
D13*
X15800000Y-28350000D03*
D14*
X23200000Y-12350000D03*
D15*
X23200000Y-20250000D03*
X23200000Y-4450000D03*
D16*
X4166726Y-29023274D03*
X3000000Y-28540000D03*
X1833274Y-29023274D03*
X1350000Y-30190000D03*
X1833274Y-31356726D03*
X3000000Y-31840000D03*
X4166726Y-31356726D03*
X4650000Y-30190000D03*
D17*
X3000000Y-30190000D03*
D16*
X45366726Y-29023274D03*
X44200000Y-28540000D03*
X43033274Y-29023274D03*
X42550000Y-30190000D03*
X43033274Y-31356726D03*
X44200000Y-31840000D03*
X45366726Y-31356726D03*
X45850000Y-30190000D03*
D17*
X44200000Y-30190000D03*
D16*
X45366726Y-1823274D03*
X44200000Y-1340000D03*
X43033274Y-1823274D03*
X42550000Y-2990000D03*
X43033274Y-4156726D03*
X44200000Y-4640000D03*
X45366726Y-4156726D03*
X45850000Y-2990000D03*
D17*
X44200000Y-2990000D03*
D16*
X4166726Y-1823274D03*
X3000000Y-1340000D03*
X1833274Y-1823274D03*
X1350000Y-2990000D03*
X1833274Y-4156726D03*
X3000000Y-4640000D03*
X4166726Y-4156726D03*
X4650000Y-2990000D03*
D17*
X3000000Y-2990000D03*
D18*
X2000000Y-11150000D03*
D19*
X4540000Y-11150000D03*
X2000000Y-13690000D03*
X4540000Y-13690000D03*
X2000000Y-16230000D03*
X4540000Y-16230000D03*
X2000000Y-18770000D03*
X4540000Y-18770000D03*
X2000000Y-21310000D03*
X4540000Y-21310000D03*
X2000000Y-23850000D03*
X4540000Y-23850000D03*
D12*
X40260000Y-23730000D03*
X40260000Y-18650000D03*
X45340000Y-18650000D03*
X45340000Y-23730000D03*
D13*
X42800000Y-21190000D03*
M02*
