G04 #@! TF.GenerationSoftware,KiCad,Pcbnew,5.1.9-5.1.9*
G04 #@! TF.CreationDate,2021-01-19T08:54:29+01:00*
G04 #@! TF.ProjectId,ublox-breakout,75626c6f-782d-4627-9265-616b6f75742e,rev?*
G04 #@! TF.SameCoordinates,PX71f6ce0PY5d47650*
G04 #@! TF.FileFunction,Legend,Top*
G04 #@! TF.FilePolarity,Positive*
%FSLAX46Y46*%
G04 Gerber Fmt 4.6, Leading zero omitted, Abs format (unit mm)*
G04 Created by KiCad (PCBNEW 5.1.9-5.1.9) date 2021-01-19 08:54:29*
%MOMM*%
%LPD*%
G01*
G04 APERTURE LIST*
%ADD10C,0.150000*%
%ADD11C,0.200000*%
%ADD12C,0.120000*%
%ADD13C,0.010000*%
%ADD14R,0.600000X0.450000*%
%ADD15R,0.650000X0.400000*%
%ADD16R,0.650000X1.060000*%
%ADD17R,0.800000X0.900000*%
%ADD18R,0.250000X0.360000*%
%ADD19C,2.250000*%
%ADD20C,2.050000*%
%ADD21R,0.900000X0.800000*%
%ADD22R,1.200000X0.900000*%
%ADD23R,1.380000X0.450000*%
%ADD24R,1.550000X1.425000*%
%ADD25R,1.300000X1.650000*%
%ADD26R,1.900000X1.800000*%
%ADD27R,1.900000X1.000000*%
%ADD28C,0.700000*%
%ADD29C,4.400000*%
%ADD30R,1.700000X1.700000*%
%ADD31O,1.700000X1.700000*%
G04 APERTURE END LIST*
D10*
X35685714Y-29657142D02*
X35685714Y-28757142D01*
X36028571Y-28757142D01*
X36114285Y-28800000D01*
X36157142Y-28842857D01*
X36200000Y-28928571D01*
X36200000Y-29057142D01*
X36157142Y-29142857D01*
X36114285Y-29185714D01*
X36028571Y-29228571D01*
X35685714Y-29228571D01*
X36585714Y-29657142D02*
X36585714Y-28757142D01*
X36928571Y-28757142D01*
X37014285Y-28800000D01*
X37057142Y-28842857D01*
X37100000Y-28928571D01*
X37100000Y-29057142D01*
X37057142Y-29142857D01*
X37014285Y-29185714D01*
X36928571Y-29228571D01*
X36585714Y-29228571D01*
X37442857Y-29614285D02*
X37571428Y-29657142D01*
X37785714Y-29657142D01*
X37871428Y-29614285D01*
X37914285Y-29571428D01*
X37957142Y-29485714D01*
X37957142Y-29400000D01*
X37914285Y-29314285D01*
X37871428Y-29271428D01*
X37785714Y-29228571D01*
X37614285Y-29185714D01*
X37528571Y-29142857D01*
X37485714Y-29100000D01*
X37442857Y-29014285D01*
X37442857Y-28928571D01*
X37485714Y-28842857D01*
X37528571Y-28800000D01*
X37614285Y-28757142D01*
X37828571Y-28757142D01*
X37957142Y-28800000D01*
X6020142Y-28757142D02*
X6020142Y-27857142D01*
X6363000Y-27857142D01*
X6448714Y-27900000D01*
X6491571Y-27942857D01*
X6534428Y-28028571D01*
X6534428Y-28157142D01*
X6491571Y-28242857D01*
X6448714Y-28285714D01*
X6363000Y-28328571D01*
X6020142Y-28328571D01*
X6920142Y-28757142D02*
X6920142Y-27857142D01*
X7263000Y-27857142D01*
X7348714Y-27900000D01*
X7391571Y-27942857D01*
X7434428Y-28028571D01*
X7434428Y-28157142D01*
X7391571Y-28242857D01*
X7348714Y-28285714D01*
X7263000Y-28328571D01*
X6920142Y-28328571D01*
X7777285Y-28714285D02*
X7905857Y-28757142D01*
X8120142Y-28757142D01*
X8205857Y-28714285D01*
X8248714Y-28671428D01*
X8291571Y-28585714D01*
X8291571Y-28500000D01*
X8248714Y-28414285D01*
X8205857Y-28371428D01*
X8120142Y-28328571D01*
X7948714Y-28285714D01*
X7863000Y-28242857D01*
X7820142Y-28200000D01*
X7777285Y-28114285D01*
X7777285Y-28028571D01*
X7820142Y-27942857D01*
X7863000Y-27900000D01*
X7948714Y-27857142D01*
X8163000Y-27857142D01*
X8291571Y-27900000D01*
X9534428Y-27857142D02*
X9705857Y-27857142D01*
X9791571Y-27900000D01*
X9877285Y-27985714D01*
X9920142Y-28157142D01*
X9920142Y-28457142D01*
X9877285Y-28628571D01*
X9791571Y-28714285D01*
X9705857Y-28757142D01*
X9534428Y-28757142D01*
X9448714Y-28714285D01*
X9363000Y-28628571D01*
X9320142Y-28457142D01*
X9320142Y-28157142D01*
X9363000Y-27985714D01*
X9448714Y-27900000D01*
X9534428Y-27857142D01*
X10305857Y-27857142D02*
X10305857Y-28585714D01*
X10348714Y-28671428D01*
X10391571Y-28714285D01*
X10477285Y-28757142D01*
X10648714Y-28757142D01*
X10734428Y-28714285D01*
X10777285Y-28671428D01*
X10820142Y-28585714D01*
X10820142Y-27857142D01*
X11120142Y-27857142D02*
X11634428Y-27857142D01*
X11377285Y-28757142D02*
X11377285Y-27857142D01*
X40764285Y-25875000D02*
X40678571Y-25832142D01*
X40550000Y-25832142D01*
X40421428Y-25875000D01*
X40335714Y-25960714D01*
X40292857Y-26046428D01*
X40250000Y-26217857D01*
X40250000Y-26346428D01*
X40292857Y-26517857D01*
X40335714Y-26603571D01*
X40421428Y-26689285D01*
X40550000Y-26732142D01*
X40635714Y-26732142D01*
X40764285Y-26689285D01*
X40807142Y-26646428D01*
X40807142Y-26346428D01*
X40635714Y-26346428D01*
X41192857Y-26732142D02*
X41192857Y-25832142D01*
X41535714Y-25832142D01*
X41621428Y-25875000D01*
X41664285Y-25917857D01*
X41707142Y-26003571D01*
X41707142Y-26132142D01*
X41664285Y-26217857D01*
X41621428Y-26260714D01*
X41535714Y-26303571D01*
X41192857Y-26303571D01*
X42050000Y-26689285D02*
X42178571Y-26732142D01*
X42392857Y-26732142D01*
X42478571Y-26689285D01*
X42521428Y-26646428D01*
X42564285Y-26560714D01*
X42564285Y-26475000D01*
X42521428Y-26389285D01*
X42478571Y-26346428D01*
X42392857Y-26303571D01*
X42221428Y-26260714D01*
X42135714Y-26217857D01*
X42092857Y-26175000D01*
X42050000Y-26089285D01*
X42050000Y-26003571D01*
X42092857Y-25917857D01*
X42135714Y-25875000D01*
X42221428Y-25832142D01*
X42435714Y-25832142D01*
X42564285Y-25875000D01*
X43592857Y-26475000D02*
X44021428Y-26475000D01*
X43507142Y-26732142D02*
X43807142Y-25832142D01*
X44107142Y-26732142D01*
X44407142Y-26732142D02*
X44407142Y-25832142D01*
X44921428Y-26732142D01*
X44921428Y-25832142D01*
X45221428Y-25832142D02*
X45735714Y-25832142D01*
X45478571Y-26732142D02*
X45478571Y-25832142D01*
X35575000Y-32632142D02*
X35575000Y-31732142D01*
X35917857Y-31732142D01*
X36003571Y-31775000D01*
X36046428Y-31817857D01*
X36089285Y-31903571D01*
X36089285Y-32032142D01*
X36046428Y-32117857D01*
X36003571Y-32160714D01*
X35917857Y-32203571D01*
X35575000Y-32203571D01*
X36389285Y-31732142D02*
X36603571Y-32632142D01*
X36775000Y-31989285D01*
X36946428Y-32632142D01*
X37160714Y-31732142D01*
X38017857Y-32632142D02*
X37717857Y-32203571D01*
X37503571Y-32632142D02*
X37503571Y-31732142D01*
X37846428Y-31732142D01*
X37932142Y-31775000D01*
X37975000Y-31817857D01*
X38017857Y-31903571D01*
X38017857Y-32032142D01*
X37975000Y-32117857D01*
X37932142Y-32160714D01*
X37846428Y-32203571D01*
X37503571Y-32203571D01*
D11*
X35400000Y-23225000D02*
G75*
G03*
X35400000Y-23225000I-1650000J0D01*
G01*
X35400000Y-9500000D02*
G75*
G03*
X35400000Y-9500000I-1650000J0D01*
G01*
D10*
X26257142Y-20868571D02*
X26857142Y-20868571D01*
X26257142Y-21254285D02*
X26728571Y-21254285D01*
X26814285Y-21211428D01*
X26857142Y-21125714D01*
X26857142Y-20997142D01*
X26814285Y-20911428D01*
X26771428Y-20868571D01*
X26514285Y-20440000D02*
X26514285Y-19754285D01*
X26857142Y-19325714D02*
X25957142Y-19325714D01*
X26300000Y-19325714D02*
X26257142Y-19240000D01*
X26257142Y-19068571D01*
X26300000Y-18982857D01*
X26342857Y-18940000D01*
X26428571Y-18897142D01*
X26685714Y-18897142D01*
X26771428Y-18940000D01*
X26814285Y-18982857D01*
X26857142Y-19068571D01*
X26857142Y-19240000D01*
X26814285Y-19325714D01*
X26857142Y-18382857D02*
X26814285Y-18468571D01*
X26728571Y-18511428D01*
X25957142Y-18511428D01*
X26857142Y-17911428D02*
X26814285Y-17997142D01*
X26771428Y-18040000D01*
X26685714Y-18082857D01*
X26428571Y-18082857D01*
X26342857Y-18040000D01*
X26300000Y-17997142D01*
X26257142Y-17911428D01*
X26257142Y-17782857D01*
X26300000Y-17697142D01*
X26342857Y-17654285D01*
X26428571Y-17611428D01*
X26685714Y-17611428D01*
X26771428Y-17654285D01*
X26814285Y-17697142D01*
X26857142Y-17782857D01*
X26857142Y-17911428D01*
X26857142Y-17311428D02*
X26257142Y-16840000D01*
X26257142Y-17311428D02*
X26857142Y-16840000D01*
X26857142Y-15382857D02*
X26857142Y-15811428D01*
X25957142Y-15811428D01*
X26385714Y-15082857D02*
X26385714Y-14782857D01*
X26857142Y-14654285D02*
X26857142Y-15082857D01*
X25957142Y-15082857D01*
X25957142Y-14654285D01*
X26600000Y-14311428D02*
X26600000Y-13882857D01*
X26857142Y-14397142D02*
X25957142Y-14097142D01*
X26857142Y-13797142D01*
X26514285Y-13497142D02*
X26514285Y-12811428D01*
X26857142Y-12382857D02*
X25957142Y-12382857D01*
X26600000Y-12082857D01*
X25957142Y-11782857D01*
X26857142Y-11782857D01*
X26342857Y-11225714D02*
X26300000Y-11311428D01*
X26257142Y-11354285D01*
X26171428Y-11397142D01*
X26128571Y-11397142D01*
X26042857Y-11354285D01*
X26000000Y-11311428D01*
X25957142Y-11225714D01*
X25957142Y-11054285D01*
X26000000Y-10968571D01*
X26042857Y-10925714D01*
X26128571Y-10882857D01*
X26171428Y-10882857D01*
X26257142Y-10925714D01*
X26300000Y-10968571D01*
X26342857Y-11054285D01*
X26342857Y-11225714D01*
X26385714Y-11311428D01*
X26428571Y-11354285D01*
X26514285Y-11397142D01*
X26685714Y-11397142D01*
X26771428Y-11354285D01*
X26814285Y-11311428D01*
X26857142Y-11225714D01*
X26857142Y-11054285D01*
X26814285Y-10968571D01*
X26771428Y-10925714D01*
X26685714Y-10882857D01*
X26514285Y-10882857D01*
X26428571Y-10925714D01*
X26385714Y-10968571D01*
X26342857Y-11054285D01*
X26385714Y-9511428D02*
X26428571Y-9382857D01*
X26471428Y-9340000D01*
X26557142Y-9297142D01*
X26685714Y-9297142D01*
X26771428Y-9340000D01*
X26814285Y-9382857D01*
X26857142Y-9468571D01*
X26857142Y-9811428D01*
X25957142Y-9811428D01*
X25957142Y-9511428D01*
X26000000Y-9425714D01*
X26042857Y-9382857D01*
X26128571Y-9340000D01*
X26214285Y-9340000D01*
X26300000Y-9382857D01*
X26342857Y-9425714D01*
X26385714Y-9511428D01*
X26385714Y-9811428D01*
X26857142Y-8911428D02*
X26257142Y-8911428D01*
X26428571Y-8911428D02*
X26342857Y-8868571D01*
X26300000Y-8825714D01*
X26257142Y-8740000D01*
X26257142Y-8654285D01*
X26814285Y-8011428D02*
X26857142Y-8097142D01*
X26857142Y-8268571D01*
X26814285Y-8354285D01*
X26728571Y-8397142D01*
X26385714Y-8397142D01*
X26300000Y-8354285D01*
X26257142Y-8268571D01*
X26257142Y-8097142D01*
X26300000Y-8011428D01*
X26385714Y-7968571D01*
X26471428Y-7968571D01*
X26557142Y-8397142D01*
X26857142Y-7197142D02*
X26385714Y-7197142D01*
X26300000Y-7240000D01*
X26257142Y-7325714D01*
X26257142Y-7497142D01*
X26300000Y-7582857D01*
X26814285Y-7197142D02*
X26857142Y-7282857D01*
X26857142Y-7497142D01*
X26814285Y-7582857D01*
X26728571Y-7625714D01*
X26642857Y-7625714D01*
X26557142Y-7582857D01*
X26514285Y-7497142D01*
X26514285Y-7282857D01*
X26471428Y-7197142D01*
X26857142Y-6768571D02*
X25957142Y-6768571D01*
X26514285Y-6682857D02*
X26857142Y-6425714D01*
X26257142Y-6425714D02*
X26600000Y-6768571D01*
X26857142Y-5911428D02*
X26814285Y-5997142D01*
X26771428Y-6040000D01*
X26685714Y-6082857D01*
X26428571Y-6082857D01*
X26342857Y-6040000D01*
X26300000Y-5997142D01*
X26257142Y-5911428D01*
X26257142Y-5782857D01*
X26300000Y-5697142D01*
X26342857Y-5654285D01*
X26428571Y-5611428D01*
X26685714Y-5611428D01*
X26771428Y-5654285D01*
X26814285Y-5697142D01*
X26857142Y-5782857D01*
X26857142Y-5911428D01*
X26257142Y-4840000D02*
X26857142Y-4840000D01*
X26257142Y-5225714D02*
X26728571Y-5225714D01*
X26814285Y-5182857D01*
X26857142Y-5097142D01*
X26857142Y-4968571D01*
X26814285Y-4882857D01*
X26771428Y-4840000D01*
X26257142Y-4540000D02*
X26257142Y-4197142D01*
X25957142Y-4411428D02*
X26728571Y-4411428D01*
X26814285Y-4368571D01*
X26857142Y-4282857D01*
X26857142Y-4197142D01*
X27671428Y-19111428D02*
X27628571Y-19197142D01*
X27628571Y-19368571D01*
X27671428Y-19454285D01*
X27757142Y-19540000D01*
X27842857Y-19582857D01*
X28014285Y-19582857D01*
X28100000Y-19540000D01*
X28185714Y-19454285D01*
X28228571Y-19368571D01*
X28228571Y-19197142D01*
X28185714Y-19111428D01*
X27328571Y-19282857D02*
X27371428Y-19497142D01*
X27500000Y-19711428D01*
X27714285Y-19840000D01*
X27928571Y-19882857D01*
X28142857Y-19840000D01*
X28357142Y-19711428D01*
X28485714Y-19497142D01*
X28528571Y-19282857D01*
X28485714Y-19068571D01*
X28357142Y-18854285D01*
X28142857Y-18725714D01*
X27928571Y-18682857D01*
X27714285Y-18725714D01*
X27500000Y-18854285D01*
X27371428Y-19068571D01*
X27328571Y-19282857D01*
X27542857Y-18340000D02*
X27500000Y-18297142D01*
X27457142Y-18211428D01*
X27457142Y-17997142D01*
X27500000Y-17911428D01*
X27542857Y-17868571D01*
X27628571Y-17825714D01*
X27714285Y-17825714D01*
X27842857Y-17868571D01*
X28357142Y-18382857D01*
X28357142Y-17825714D01*
X27457142Y-17268571D02*
X27457142Y-17182857D01*
X27500000Y-17097142D01*
X27542857Y-17054285D01*
X27628571Y-17011428D01*
X27800000Y-16968571D01*
X28014285Y-16968571D01*
X28185714Y-17011428D01*
X28271428Y-17054285D01*
X28314285Y-17097142D01*
X28357142Y-17182857D01*
X28357142Y-17268571D01*
X28314285Y-17354285D01*
X28271428Y-17397142D01*
X28185714Y-17440000D01*
X28014285Y-17482857D01*
X27800000Y-17482857D01*
X27628571Y-17440000D01*
X27542857Y-17397142D01*
X27500000Y-17354285D01*
X27457142Y-17268571D01*
X27542857Y-16625714D02*
X27500000Y-16582857D01*
X27457142Y-16497142D01*
X27457142Y-16282857D01*
X27500000Y-16197142D01*
X27542857Y-16154285D01*
X27628571Y-16111428D01*
X27714285Y-16111428D01*
X27842857Y-16154285D01*
X28357142Y-16668571D01*
X28357142Y-16111428D01*
X27457142Y-15554285D02*
X27457142Y-15468571D01*
X27500000Y-15382857D01*
X27542857Y-15340000D01*
X27628571Y-15297142D01*
X27800000Y-15254285D01*
X28014285Y-15254285D01*
X28185714Y-15297142D01*
X28271428Y-15340000D01*
X28314285Y-15382857D01*
X28357142Y-15468571D01*
X28357142Y-15554285D01*
X28314285Y-15640000D01*
X28271428Y-15682857D01*
X28185714Y-15725714D01*
X28014285Y-15768571D01*
X27800000Y-15768571D01*
X27628571Y-15725714D01*
X27542857Y-15682857D01*
X27500000Y-15640000D01*
X27457142Y-15554285D01*
X28357142Y-14182857D02*
X27457142Y-14182857D01*
X28100000Y-13882857D01*
X27457142Y-13582857D01*
X28357142Y-13582857D01*
X28271428Y-13154285D02*
X28314285Y-13111428D01*
X28357142Y-13154285D01*
X28314285Y-13197142D01*
X28271428Y-13154285D01*
X28357142Y-13154285D01*
X27457142Y-12125714D02*
X28357142Y-11911428D01*
X27714285Y-11740000D01*
X28357142Y-11568571D01*
X27457142Y-11354285D01*
X28314285Y-10668571D02*
X28357142Y-10754285D01*
X28357142Y-10925714D01*
X28314285Y-11011428D01*
X28228571Y-11054285D01*
X27885714Y-11054285D01*
X27800000Y-11011428D01*
X27757142Y-10925714D01*
X27757142Y-10754285D01*
X27800000Y-10668571D01*
X27885714Y-10625714D01*
X27971428Y-10625714D01*
X28057142Y-11054285D01*
X28357142Y-10111428D02*
X28314285Y-10197142D01*
X28228571Y-10240000D01*
X27457142Y-10240000D01*
X27757142Y-9854285D02*
X28357142Y-9682857D01*
X27928571Y-9511428D01*
X28357142Y-9340000D01*
X27757142Y-9168571D01*
X28357142Y-8440000D02*
X27885714Y-8440000D01*
X27800000Y-8482857D01*
X27757142Y-8568571D01*
X27757142Y-8740000D01*
X27800000Y-8825714D01*
X28314285Y-8440000D02*
X28357142Y-8525714D01*
X28357142Y-8740000D01*
X28314285Y-8825714D01*
X28228571Y-8868571D01*
X28142857Y-8868571D01*
X28057142Y-8825714D01*
X28014285Y-8740000D01*
X28014285Y-8525714D01*
X27971428Y-8440000D01*
X28357142Y-8011428D02*
X27757142Y-8011428D01*
X27928571Y-8011428D02*
X27842857Y-7968571D01*
X27800000Y-7925714D01*
X27757142Y-7840000D01*
X27757142Y-7754285D01*
X28314285Y-7497142D02*
X28357142Y-7411428D01*
X28357142Y-7240000D01*
X28314285Y-7154285D01*
X28228571Y-7111428D01*
X28185714Y-7111428D01*
X28100000Y-7154285D01*
X28057142Y-7240000D01*
X28057142Y-7368571D01*
X28014285Y-7454285D01*
X27928571Y-7497142D01*
X27885714Y-7497142D01*
X27800000Y-7454285D01*
X27757142Y-7368571D01*
X27757142Y-7240000D01*
X27800000Y-7154285D01*
X28357142Y-6725714D02*
X27457142Y-6725714D01*
X28014285Y-6640000D02*
X28357142Y-6382857D01*
X27757142Y-6382857D02*
X28100000Y-6725714D01*
X27757142Y-6082857D02*
X28357142Y-5868571D01*
X27757142Y-5654285D02*
X28357142Y-5868571D01*
X28571428Y-5954285D01*
X28614285Y-5997142D01*
X28657142Y-6082857D01*
D12*
X9628000Y-5475000D02*
X9628000Y-3775000D01*
X9628000Y-3775000D02*
X7078000Y-3775000D01*
X9628000Y-5475000D02*
X7078000Y-5475000D01*
X31113000Y-28514580D02*
X31113000Y-28233420D01*
X32133000Y-28514580D02*
X32133000Y-28233420D01*
X40187258Y-30277500D02*
X39712742Y-30277500D01*
X40187258Y-31322500D02*
X39712742Y-31322500D01*
X38260000Y-30065000D02*
X35975000Y-30065000D01*
X38260000Y-31535000D02*
X38260000Y-30065000D01*
X35975000Y-31535000D02*
X38260000Y-31535000D01*
X40187258Y-27252500D02*
X39712742Y-27252500D01*
X40187258Y-28297500D02*
X39712742Y-28297500D01*
X38260000Y-27040000D02*
X35975000Y-27040000D01*
X38260000Y-28510000D02*
X38260000Y-27040000D01*
X35975000Y-28510000D02*
X38260000Y-28510000D01*
X28300000Y-25640000D02*
X26900000Y-25640000D01*
X26900000Y-27960000D02*
X28800000Y-27960000D01*
X28300000Y-28690000D02*
X26900000Y-28690000D01*
X26900000Y-31010000D02*
X28800000Y-31010000D01*
X30622500Y-28587258D02*
X30622500Y-28112742D01*
X29577500Y-28587258D02*
X29577500Y-28112742D01*
X32624500Y-28136742D02*
X32624500Y-28611258D01*
X33669500Y-28136742D02*
X33669500Y-28611258D01*
X24540580Y-27140000D02*
X24259420Y-27140000D01*
X24540580Y-28160000D02*
X24259420Y-28160000D01*
X37633000Y-9800000D02*
X37633000Y-11600000D01*
X40853000Y-11600000D02*
X40853000Y-9150000D01*
X38320000Y-15160000D02*
X38320000Y-13700000D01*
X41480000Y-15160000D02*
X41480000Y-13000000D01*
X41480000Y-15160000D02*
X40550000Y-15160000D01*
X38320000Y-15160000D02*
X39250000Y-15160000D01*
X36790000Y-14113420D02*
X36790000Y-14394580D01*
X37810000Y-14113420D02*
X37810000Y-14394580D01*
D13*
G36*
X16187776Y-12160122D02*
G01*
X16188355Y-12054388D01*
X16189922Y-11977868D01*
X16192972Y-11925628D01*
X16197996Y-11892737D01*
X16205489Y-11874263D01*
X16215944Y-11865273D01*
X16229853Y-11860837D01*
X16231654Y-11860406D01*
X16264145Y-11853667D01*
X16328252Y-11841192D01*
X16417151Y-11824281D01*
X16524019Y-11804229D01*
X16642033Y-11782336D01*
X16646178Y-11781571D01*
X16761831Y-11759641D01*
X16864014Y-11739123D01*
X16946598Y-11721341D01*
X17003456Y-11707619D01*
X17028458Y-11699282D01*
X17028901Y-11698884D01*
X17041110Y-11674323D01*
X17061456Y-11623685D01*
X17085545Y-11557905D01*
X17085674Y-11557539D01*
X17116818Y-11474683D01*
X17156491Y-11377000D01*
X17196381Y-11284923D01*
X17198353Y-11280566D01*
X17266420Y-11130593D01*
X17039639Y-10798502D01*
X16970504Y-10696626D01*
X16908697Y-10604343D01*
X16857733Y-10526997D01*
X16821127Y-10469936D01*
X16802394Y-10438505D01*
X16801004Y-10435521D01*
X16807190Y-10412679D01*
X16837035Y-10370018D01*
X16891947Y-10305872D01*
X16973334Y-10218579D01*
X17059922Y-10129465D01*
X17145247Y-10043559D01*
X17223108Y-9966673D01*
X17288697Y-9903436D01*
X17337205Y-9858477D01*
X17363825Y-9836424D01*
X17365195Y-9835604D01*
X17383463Y-9833166D01*
X17413295Y-9842350D01*
X17458721Y-9865426D01*
X17523770Y-9904663D01*
X17612470Y-9962330D01*
X17726657Y-10039205D01*
X17827162Y-10107430D01*
X17917303Y-10168418D01*
X17991849Y-10218644D01*
X18045565Y-10254584D01*
X18073218Y-10272713D01*
X18075095Y-10273854D01*
X18101590Y-10271641D01*
X18153086Y-10254862D01*
X18219851Y-10226858D01*
X18241172Y-10216878D01*
X18336159Y-10173328D01*
X18443937Y-10126866D01*
X18537192Y-10089123D01*
X18606406Y-10061927D01*
X18659006Y-10040325D01*
X18686497Y-10027842D01*
X18688616Y-10026291D01*
X18692124Y-10003332D01*
X18701738Y-9949214D01*
X18716089Y-9871132D01*
X18733807Y-9776281D01*
X18753525Y-9671857D01*
X18773874Y-9565056D01*
X18793486Y-9463074D01*
X18810991Y-9373106D01*
X18825022Y-9302347D01*
X18834209Y-9257994D01*
X18836807Y-9247115D01*
X18843218Y-9235878D01*
X18857697Y-9227395D01*
X18885133Y-9221286D01*
X18930411Y-9217168D01*
X18998420Y-9214659D01*
X19094047Y-9213379D01*
X19222180Y-9212946D01*
X19274701Y-9212923D01*
X19701845Y-9212923D01*
X19722091Y-9315500D01*
X19733070Y-9372569D01*
X19749095Y-9457731D01*
X19768233Y-9560628D01*
X19788551Y-9670904D01*
X19794132Y-9701385D01*
X19813917Y-9803145D01*
X19833373Y-9891795D01*
X19850697Y-9959892D01*
X19864088Y-9999996D01*
X19868079Y-10006677D01*
X19896342Y-10023081D01*
X19951109Y-10046601D01*
X20021588Y-10072684D01*
X20036769Y-10077858D01*
X20130896Y-10112044D01*
X20237101Y-10154477D01*
X20332473Y-10196003D01*
X20332916Y-10196208D01*
X20482525Y-10265360D01*
X21151617Y-9810488D01*
X21444116Y-10102500D01*
X21531170Y-10190820D01*
X21607909Y-10271375D01*
X21670237Y-10339640D01*
X21714056Y-10391092D01*
X21735270Y-10421206D01*
X21736616Y-10425526D01*
X21726016Y-10450889D01*
X21696547Y-10502642D01*
X21651705Y-10575132D01*
X21594984Y-10662706D01*
X21531462Y-10757388D01*
X21466668Y-10853484D01*
X21410287Y-10939163D01*
X21365788Y-11008984D01*
X21336639Y-11057506D01*
X21326308Y-11079218D01*
X21335050Y-11105707D01*
X21358087Y-11155938D01*
X21390631Y-11219549D01*
X21394249Y-11226292D01*
X21437210Y-11311954D01*
X21458279Y-11370694D01*
X21458503Y-11407228D01*
X21438928Y-11426269D01*
X21438654Y-11426380D01*
X21415472Y-11435898D01*
X21360441Y-11458597D01*
X21277822Y-11492718D01*
X21171872Y-11536500D01*
X21046852Y-11588184D01*
X20907020Y-11646008D01*
X20771637Y-11702009D01*
X20622234Y-11763553D01*
X20483832Y-11820061D01*
X20360673Y-11869839D01*
X20257002Y-11911194D01*
X20177059Y-11942432D01*
X20125088Y-11961859D01*
X20105692Y-11967846D01*
X20083443Y-11952832D01*
X20047982Y-11913561D01*
X20008887Y-11861193D01*
X19885245Y-11712059D01*
X19743522Y-11595489D01*
X19586704Y-11512882D01*
X19417775Y-11465634D01*
X19239722Y-11455143D01*
X19157539Y-11462769D01*
X18987031Y-11504318D01*
X18836459Y-11575877D01*
X18707309Y-11673005D01*
X18601064Y-11791266D01*
X18519210Y-11926220D01*
X18463232Y-12073429D01*
X18434615Y-12228456D01*
X18434844Y-12386861D01*
X18465405Y-12544206D01*
X18527782Y-12696054D01*
X18623460Y-12837965D01*
X18677572Y-12897197D01*
X18816520Y-13010797D01*
X18968361Y-13089894D01*
X19128667Y-13135014D01*
X19293012Y-13146684D01*
X19456971Y-13125431D01*
X19616118Y-13071780D01*
X19766025Y-12986260D01*
X19902267Y-12869395D01*
X20008887Y-12738807D01*
X20049642Y-12684412D01*
X20084718Y-12645986D01*
X20105726Y-12632154D01*
X20128635Y-12639397D01*
X20183365Y-12659995D01*
X20265672Y-12692254D01*
X20371315Y-12734479D01*
X20496050Y-12784977D01*
X20635636Y-12842052D01*
X20771670Y-12898146D01*
X20921201Y-12960033D01*
X21059767Y-13017356D01*
X21183107Y-13068356D01*
X21286964Y-13111273D01*
X21367080Y-13144347D01*
X21419195Y-13165819D01*
X21438654Y-13173775D01*
X21458423Y-13192571D01*
X21458365Y-13228926D01*
X21437441Y-13287521D01*
X21394613Y-13373032D01*
X21394249Y-13373708D01*
X21361012Y-13438093D01*
X21336802Y-13490139D01*
X21326404Y-13519488D01*
X21326308Y-13520783D01*
X21336855Y-13542876D01*
X21366184Y-13591652D01*
X21410827Y-13661669D01*
X21467314Y-13747486D01*
X21531462Y-13842612D01*
X21596411Y-13939460D01*
X21652896Y-14026747D01*
X21697421Y-14098819D01*
X21726490Y-14150023D01*
X21736616Y-14174474D01*
X21723307Y-14196990D01*
X21686112Y-14242258D01*
X21629128Y-14305756D01*
X21556449Y-14382961D01*
X21472171Y-14469349D01*
X21444016Y-14497601D01*
X21151416Y-14789713D01*
X20825104Y-14567369D01*
X20724897Y-14499798D01*
X20634963Y-14440493D01*
X20560510Y-14392783D01*
X20506751Y-14359993D01*
X20478894Y-14345452D01*
X20476912Y-14345026D01*
X20450655Y-14352692D01*
X20397837Y-14373311D01*
X20327310Y-14403315D01*
X20280093Y-14424375D01*
X20189694Y-14463752D01*
X20098366Y-14500835D01*
X20021200Y-14529585D01*
X19997692Y-14537395D01*
X19934916Y-14559583D01*
X19886411Y-14581273D01*
X19868079Y-14593187D01*
X19856859Y-14619477D01*
X19840954Y-14676858D01*
X19822167Y-14757882D01*
X19802299Y-14855105D01*
X19794132Y-14898615D01*
X19773829Y-15009104D01*
X19754170Y-15115084D01*
X19737088Y-15206199D01*
X19724518Y-15272092D01*
X19722091Y-15284500D01*
X19701845Y-15387077D01*
X19274701Y-15387077D01*
X19134246Y-15386847D01*
X19027979Y-15385901D01*
X18951013Y-15383859D01*
X18898460Y-15380338D01*
X18865433Y-15374957D01*
X18847045Y-15367334D01*
X18838408Y-15357088D01*
X18836807Y-15352885D01*
X18831127Y-15327530D01*
X18819795Y-15271516D01*
X18804179Y-15192036D01*
X18785647Y-15096288D01*
X18765569Y-14991467D01*
X18745312Y-14884768D01*
X18726246Y-14783387D01*
X18709739Y-14694521D01*
X18697159Y-14625363D01*
X18689875Y-14583111D01*
X18688616Y-14573710D01*
X18671763Y-14565193D01*
X18626870Y-14546340D01*
X18562430Y-14520676D01*
X18537192Y-14510877D01*
X18439686Y-14471352D01*
X18331959Y-14424808D01*
X18241172Y-14383123D01*
X18171753Y-14352450D01*
X18114710Y-14332044D01*
X18079777Y-14325232D01*
X18075095Y-14326318D01*
X18052991Y-14340715D01*
X18003831Y-14373588D01*
X17932848Y-14421410D01*
X17845278Y-14480652D01*
X17746357Y-14547785D01*
X17726830Y-14561059D01*
X17611140Y-14638954D01*
X17523044Y-14696213D01*
X17458486Y-14735119D01*
X17413411Y-14757956D01*
X17383763Y-14767006D01*
X17365485Y-14764552D01*
X17365369Y-14764489D01*
X17341361Y-14745173D01*
X17294947Y-14702449D01*
X17230937Y-14640949D01*
X17154145Y-14565302D01*
X17069382Y-14480139D01*
X17059922Y-14470535D01*
X16955989Y-14363210D01*
X16879675Y-14280385D01*
X16829571Y-14220395D01*
X16804270Y-14181577D01*
X16801004Y-14164480D01*
X16815250Y-14139527D01*
X16848156Y-14087745D01*
X16896208Y-14014480D01*
X16955890Y-13925080D01*
X17023688Y-13824889D01*
X17039639Y-13801499D01*
X17266420Y-13469407D01*
X17198353Y-13319435D01*
X17158685Y-13228230D01*
X17118791Y-13130331D01*
X17086983Y-13046169D01*
X17085674Y-13042462D01*
X17061576Y-12976631D01*
X17041200Y-12925884D01*
X17028936Y-12901158D01*
X17028901Y-12901116D01*
X17006734Y-12893271D01*
X16952217Y-12879934D01*
X16871480Y-12862430D01*
X16770650Y-12842083D01*
X16655856Y-12820218D01*
X16646178Y-12818429D01*
X16527904Y-12796496D01*
X16420542Y-12776360D01*
X16330917Y-12759320D01*
X16265851Y-12746672D01*
X16232168Y-12739716D01*
X16231654Y-12739594D01*
X16217325Y-12735361D01*
X16206507Y-12727129D01*
X16198706Y-12709967D01*
X16193429Y-12678942D01*
X16190182Y-12629122D01*
X16188472Y-12555576D01*
X16187807Y-12453371D01*
X16187693Y-12317575D01*
X16187692Y-12300000D01*
X16187776Y-12160122D01*
G37*
X16187776Y-12160122D02*
X16188355Y-12054388D01*
X16189922Y-11977868D01*
X16192972Y-11925628D01*
X16197996Y-11892737D01*
X16205489Y-11874263D01*
X16215944Y-11865273D01*
X16229853Y-11860837D01*
X16231654Y-11860406D01*
X16264145Y-11853667D01*
X16328252Y-11841192D01*
X16417151Y-11824281D01*
X16524019Y-11804229D01*
X16642033Y-11782336D01*
X16646178Y-11781571D01*
X16761831Y-11759641D01*
X16864014Y-11739123D01*
X16946598Y-11721341D01*
X17003456Y-11707619D01*
X17028458Y-11699282D01*
X17028901Y-11698884D01*
X17041110Y-11674323D01*
X17061456Y-11623685D01*
X17085545Y-11557905D01*
X17085674Y-11557539D01*
X17116818Y-11474683D01*
X17156491Y-11377000D01*
X17196381Y-11284923D01*
X17198353Y-11280566D01*
X17266420Y-11130593D01*
X17039639Y-10798502D01*
X16970504Y-10696626D01*
X16908697Y-10604343D01*
X16857733Y-10526997D01*
X16821127Y-10469936D01*
X16802394Y-10438505D01*
X16801004Y-10435521D01*
X16807190Y-10412679D01*
X16837035Y-10370018D01*
X16891947Y-10305872D01*
X16973334Y-10218579D01*
X17059922Y-10129465D01*
X17145247Y-10043559D01*
X17223108Y-9966673D01*
X17288697Y-9903436D01*
X17337205Y-9858477D01*
X17363825Y-9836424D01*
X17365195Y-9835604D01*
X17383463Y-9833166D01*
X17413295Y-9842350D01*
X17458721Y-9865426D01*
X17523770Y-9904663D01*
X17612470Y-9962330D01*
X17726657Y-10039205D01*
X17827162Y-10107430D01*
X17917303Y-10168418D01*
X17991849Y-10218644D01*
X18045565Y-10254584D01*
X18073218Y-10272713D01*
X18075095Y-10273854D01*
X18101590Y-10271641D01*
X18153086Y-10254862D01*
X18219851Y-10226858D01*
X18241172Y-10216878D01*
X18336159Y-10173328D01*
X18443937Y-10126866D01*
X18537192Y-10089123D01*
X18606406Y-10061927D01*
X18659006Y-10040325D01*
X18686497Y-10027842D01*
X18688616Y-10026291D01*
X18692124Y-10003332D01*
X18701738Y-9949214D01*
X18716089Y-9871132D01*
X18733807Y-9776281D01*
X18753525Y-9671857D01*
X18773874Y-9565056D01*
X18793486Y-9463074D01*
X18810991Y-9373106D01*
X18825022Y-9302347D01*
X18834209Y-9257994D01*
X18836807Y-9247115D01*
X18843218Y-9235878D01*
X18857697Y-9227395D01*
X18885133Y-9221286D01*
X18930411Y-9217168D01*
X18998420Y-9214659D01*
X19094047Y-9213379D01*
X19222180Y-9212946D01*
X19274701Y-9212923D01*
X19701845Y-9212923D01*
X19722091Y-9315500D01*
X19733070Y-9372569D01*
X19749095Y-9457731D01*
X19768233Y-9560628D01*
X19788551Y-9670904D01*
X19794132Y-9701385D01*
X19813917Y-9803145D01*
X19833373Y-9891795D01*
X19850697Y-9959892D01*
X19864088Y-9999996D01*
X19868079Y-10006677D01*
X19896342Y-10023081D01*
X19951109Y-10046601D01*
X20021588Y-10072684D01*
X20036769Y-10077858D01*
X20130896Y-10112044D01*
X20237101Y-10154477D01*
X20332473Y-10196003D01*
X20332916Y-10196208D01*
X20482525Y-10265360D01*
X21151617Y-9810488D01*
X21444116Y-10102500D01*
X21531170Y-10190820D01*
X21607909Y-10271375D01*
X21670237Y-10339640D01*
X21714056Y-10391092D01*
X21735270Y-10421206D01*
X21736616Y-10425526D01*
X21726016Y-10450889D01*
X21696547Y-10502642D01*
X21651705Y-10575132D01*
X21594984Y-10662706D01*
X21531462Y-10757388D01*
X21466668Y-10853484D01*
X21410287Y-10939163D01*
X21365788Y-11008984D01*
X21336639Y-11057506D01*
X21326308Y-11079218D01*
X21335050Y-11105707D01*
X21358087Y-11155938D01*
X21390631Y-11219549D01*
X21394249Y-11226292D01*
X21437210Y-11311954D01*
X21458279Y-11370694D01*
X21458503Y-11407228D01*
X21438928Y-11426269D01*
X21438654Y-11426380D01*
X21415472Y-11435898D01*
X21360441Y-11458597D01*
X21277822Y-11492718D01*
X21171872Y-11536500D01*
X21046852Y-11588184D01*
X20907020Y-11646008D01*
X20771637Y-11702009D01*
X20622234Y-11763553D01*
X20483832Y-11820061D01*
X20360673Y-11869839D01*
X20257002Y-11911194D01*
X20177059Y-11942432D01*
X20125088Y-11961859D01*
X20105692Y-11967846D01*
X20083443Y-11952832D01*
X20047982Y-11913561D01*
X20008887Y-11861193D01*
X19885245Y-11712059D01*
X19743522Y-11595489D01*
X19586704Y-11512882D01*
X19417775Y-11465634D01*
X19239722Y-11455143D01*
X19157539Y-11462769D01*
X18987031Y-11504318D01*
X18836459Y-11575877D01*
X18707309Y-11673005D01*
X18601064Y-11791266D01*
X18519210Y-11926220D01*
X18463232Y-12073429D01*
X18434615Y-12228456D01*
X18434844Y-12386861D01*
X18465405Y-12544206D01*
X18527782Y-12696054D01*
X18623460Y-12837965D01*
X18677572Y-12897197D01*
X18816520Y-13010797D01*
X18968361Y-13089894D01*
X19128667Y-13135014D01*
X19293012Y-13146684D01*
X19456971Y-13125431D01*
X19616118Y-13071780D01*
X19766025Y-12986260D01*
X19902267Y-12869395D01*
X20008887Y-12738807D01*
X20049642Y-12684412D01*
X20084718Y-12645986D01*
X20105726Y-12632154D01*
X20128635Y-12639397D01*
X20183365Y-12659995D01*
X20265672Y-12692254D01*
X20371315Y-12734479D01*
X20496050Y-12784977D01*
X20635636Y-12842052D01*
X20771670Y-12898146D01*
X20921201Y-12960033D01*
X21059767Y-13017356D01*
X21183107Y-13068356D01*
X21286964Y-13111273D01*
X21367080Y-13144347D01*
X21419195Y-13165819D01*
X21438654Y-13173775D01*
X21458423Y-13192571D01*
X21458365Y-13228926D01*
X21437441Y-13287521D01*
X21394613Y-13373032D01*
X21394249Y-13373708D01*
X21361012Y-13438093D01*
X21336802Y-13490139D01*
X21326404Y-13519488D01*
X21326308Y-13520783D01*
X21336855Y-13542876D01*
X21366184Y-13591652D01*
X21410827Y-13661669D01*
X21467314Y-13747486D01*
X21531462Y-13842612D01*
X21596411Y-13939460D01*
X21652896Y-14026747D01*
X21697421Y-14098819D01*
X21726490Y-14150023D01*
X21736616Y-14174474D01*
X21723307Y-14196990D01*
X21686112Y-14242258D01*
X21629128Y-14305756D01*
X21556449Y-14382961D01*
X21472171Y-14469349D01*
X21444016Y-14497601D01*
X21151416Y-14789713D01*
X20825104Y-14567369D01*
X20724897Y-14499798D01*
X20634963Y-14440493D01*
X20560510Y-14392783D01*
X20506751Y-14359993D01*
X20478894Y-14345452D01*
X20476912Y-14345026D01*
X20450655Y-14352692D01*
X20397837Y-14373311D01*
X20327310Y-14403315D01*
X20280093Y-14424375D01*
X20189694Y-14463752D01*
X20098366Y-14500835D01*
X20021200Y-14529585D01*
X19997692Y-14537395D01*
X19934916Y-14559583D01*
X19886411Y-14581273D01*
X19868079Y-14593187D01*
X19856859Y-14619477D01*
X19840954Y-14676858D01*
X19822167Y-14757882D01*
X19802299Y-14855105D01*
X19794132Y-14898615D01*
X19773829Y-15009104D01*
X19754170Y-15115084D01*
X19737088Y-15206199D01*
X19724518Y-15272092D01*
X19722091Y-15284500D01*
X19701845Y-15387077D01*
X19274701Y-15387077D01*
X19134246Y-15386847D01*
X19027979Y-15385901D01*
X18951013Y-15383859D01*
X18898460Y-15380338D01*
X18865433Y-15374957D01*
X18847045Y-15367334D01*
X18838408Y-15357088D01*
X18836807Y-15352885D01*
X18831127Y-15327530D01*
X18819795Y-15271516D01*
X18804179Y-15192036D01*
X18785647Y-15096288D01*
X18765569Y-14991467D01*
X18745312Y-14884768D01*
X18726246Y-14783387D01*
X18709739Y-14694521D01*
X18697159Y-14625363D01*
X18689875Y-14583111D01*
X18688616Y-14573710D01*
X18671763Y-14565193D01*
X18626870Y-14546340D01*
X18562430Y-14520676D01*
X18537192Y-14510877D01*
X18439686Y-14471352D01*
X18331959Y-14424808D01*
X18241172Y-14383123D01*
X18171753Y-14352450D01*
X18114710Y-14332044D01*
X18079777Y-14325232D01*
X18075095Y-14326318D01*
X18052991Y-14340715D01*
X18003831Y-14373588D01*
X17932848Y-14421410D01*
X17845278Y-14480652D01*
X17746357Y-14547785D01*
X17726830Y-14561059D01*
X17611140Y-14638954D01*
X17523044Y-14696213D01*
X17458486Y-14735119D01*
X17413411Y-14757956D01*
X17383763Y-14767006D01*
X17365485Y-14764552D01*
X17365369Y-14764489D01*
X17341361Y-14745173D01*
X17294947Y-14702449D01*
X17230937Y-14640949D01*
X17154145Y-14565302D01*
X17069382Y-14480139D01*
X17059922Y-14470535D01*
X16955989Y-14363210D01*
X16879675Y-14280385D01*
X16829571Y-14220395D01*
X16804270Y-14181577D01*
X16801004Y-14164480D01*
X16815250Y-14139527D01*
X16848156Y-14087745D01*
X16896208Y-14014480D01*
X16955890Y-13925080D01*
X17023688Y-13824889D01*
X17039639Y-13801499D01*
X17266420Y-13469407D01*
X17198353Y-13319435D01*
X17158685Y-13228230D01*
X17118791Y-13130331D01*
X17086983Y-13046169D01*
X17085674Y-13042462D01*
X17061576Y-12976631D01*
X17041200Y-12925884D01*
X17028936Y-12901158D01*
X17028901Y-12901116D01*
X17006734Y-12893271D01*
X16952217Y-12879934D01*
X16871480Y-12862430D01*
X16770650Y-12842083D01*
X16655856Y-12820218D01*
X16646178Y-12818429D01*
X16527904Y-12796496D01*
X16420542Y-12776360D01*
X16330917Y-12759320D01*
X16265851Y-12746672D01*
X16232168Y-12739716D01*
X16231654Y-12739594D01*
X16217325Y-12735361D01*
X16206507Y-12727129D01*
X16198706Y-12709967D01*
X16193429Y-12678942D01*
X16190182Y-12629122D01*
X16188472Y-12555576D01*
X16187807Y-12453371D01*
X16187693Y-12317575D01*
X16187692Y-12300000D01*
X16187776Y-12160122D01*
G36*
X22547838Y-8054776D02*
G01*
X22598361Y-7977472D01*
X22643590Y-7940186D01*
X22725663Y-7910647D01*
X22790607Y-7908301D01*
X22877445Y-7913615D01*
X22965103Y-8113885D01*
X23009887Y-8211261D01*
X23045913Y-8274887D01*
X23077117Y-8307971D01*
X23107436Y-8313720D01*
X23140805Y-8295342D01*
X23162923Y-8275077D01*
X23198393Y-8216111D01*
X23200879Y-8151976D01*
X23173235Y-8093074D01*
X23118320Y-8049803D01*
X23098928Y-8042064D01*
X23038364Y-8004994D01*
X23012552Y-7962346D01*
X22990471Y-7903846D01*
X23074184Y-7903846D01*
X23131150Y-7909018D01*
X23179189Y-7929277D01*
X23234346Y-7971738D01*
X23241514Y-7978049D01*
X23290585Y-8025280D01*
X23316920Y-8065879D01*
X23329035Y-8116672D01*
X23333003Y-8158780D01*
X23333991Y-8234098D01*
X23321466Y-8287714D01*
X23302869Y-8321162D01*
X23261975Y-8373732D01*
X23217748Y-8410121D01*
X23162126Y-8433150D01*
X23087047Y-8445641D01*
X22984449Y-8450413D01*
X22932376Y-8450794D01*
X22869948Y-8449499D01*
X22869948Y-8331529D01*
X22903438Y-8330161D01*
X22908923Y-8326751D01*
X22901472Y-8304247D01*
X22881753Y-8255818D01*
X22853718Y-8191092D01*
X22847692Y-8177557D01*
X22806096Y-8095756D01*
X22769538Y-8050688D01*
X22735296Y-8040783D01*
X22700648Y-8064474D01*
X22685339Y-8084040D01*
X22654721Y-8154640D01*
X22659780Y-8220720D01*
X22697151Y-8276041D01*
X22763473Y-8314364D01*
X22816116Y-8326651D01*
X22869948Y-8331529D01*
X22869948Y-8449499D01*
X22810720Y-8448270D01*
X22720710Y-8438968D01*
X22655167Y-8420540D01*
X22606912Y-8390640D01*
X22568767Y-8346920D01*
X22556440Y-8327859D01*
X22524336Y-8241274D01*
X22522316Y-8146478D01*
X22547838Y-8054776D01*
G37*
X22547838Y-8054776D02*
X22598361Y-7977472D01*
X22643590Y-7940186D01*
X22725663Y-7910647D01*
X22790607Y-7908301D01*
X22877445Y-7913615D01*
X22965103Y-8113885D01*
X23009887Y-8211261D01*
X23045913Y-8274887D01*
X23077117Y-8307971D01*
X23107436Y-8313720D01*
X23140805Y-8295342D01*
X23162923Y-8275077D01*
X23198393Y-8216111D01*
X23200879Y-8151976D01*
X23173235Y-8093074D01*
X23118320Y-8049803D01*
X23098928Y-8042064D01*
X23038364Y-8004994D01*
X23012552Y-7962346D01*
X22990471Y-7903846D01*
X23074184Y-7903846D01*
X23131150Y-7909018D01*
X23179189Y-7929277D01*
X23234346Y-7971738D01*
X23241514Y-7978049D01*
X23290585Y-8025280D01*
X23316920Y-8065879D01*
X23329035Y-8116672D01*
X23333003Y-8158780D01*
X23333991Y-8234098D01*
X23321466Y-8287714D01*
X23302869Y-8321162D01*
X23261975Y-8373732D01*
X23217748Y-8410121D01*
X23162126Y-8433150D01*
X23087047Y-8445641D01*
X22984449Y-8450413D01*
X22932376Y-8450794D01*
X22869948Y-8449499D01*
X22869948Y-8331529D01*
X22903438Y-8330161D01*
X22908923Y-8326751D01*
X22901472Y-8304247D01*
X22881753Y-8255818D01*
X22853718Y-8191092D01*
X22847692Y-8177557D01*
X22806096Y-8095756D01*
X22769538Y-8050688D01*
X22735296Y-8040783D01*
X22700648Y-8064474D01*
X22685339Y-8084040D01*
X22654721Y-8154640D01*
X22659780Y-8220720D01*
X22697151Y-8276041D01*
X22763473Y-8314364D01*
X22816116Y-8326651D01*
X22869948Y-8331529D01*
X22869948Y-8449499D01*
X22810720Y-8448270D01*
X22720710Y-8438968D01*
X22655167Y-8420540D01*
X22606912Y-8390640D01*
X22568767Y-8346920D01*
X22556440Y-8327859D01*
X22524336Y-8241274D01*
X22522316Y-8146478D01*
X22547838Y-8054776D01*
G36*
X22536782Y-8729193D02*
G01*
X22546988Y-8705839D01*
X22591134Y-8650098D01*
X22654967Y-8602431D01*
X22723087Y-8572952D01*
X22756670Y-8568154D01*
X22803556Y-8584240D01*
X22828365Y-8619525D01*
X22843387Y-8657356D01*
X22846155Y-8674679D01*
X22826066Y-8683114D01*
X22782351Y-8699770D01*
X22762598Y-8707077D01*
X22694271Y-8748052D01*
X22660191Y-8807378D01*
X22661239Y-8883448D01*
X22662581Y-8889082D01*
X22681836Y-8929695D01*
X22719375Y-8959552D01*
X22779809Y-8979945D01*
X22867751Y-8992164D01*
X22987813Y-8997500D01*
X23051698Y-8998000D01*
X23152403Y-8998248D01*
X23221054Y-8999874D01*
X23264673Y-9004199D01*
X23290282Y-9012546D01*
X23304903Y-9026235D01*
X23315558Y-9046589D01*
X23316095Y-9047766D01*
X23332667Y-9086962D01*
X23338769Y-9106381D01*
X23320319Y-9109365D01*
X23269323Y-9111919D01*
X23192308Y-9113860D01*
X23095805Y-9115003D01*
X23025184Y-9115231D01*
X22888525Y-9114068D01*
X22784851Y-9109521D01*
X22708108Y-9100001D01*
X22652246Y-9083919D01*
X22611212Y-9059687D01*
X22578954Y-9025714D01*
X22556440Y-8992167D01*
X22526476Y-8911501D01*
X22519718Y-8817619D01*
X22536782Y-8729193D01*
G37*
X22536782Y-8729193D02*
X22546988Y-8705839D01*
X22591134Y-8650098D01*
X22654967Y-8602431D01*
X22723087Y-8572952D01*
X22756670Y-8568154D01*
X22803556Y-8584240D01*
X22828365Y-8619525D01*
X22843387Y-8657356D01*
X22846155Y-8674679D01*
X22826066Y-8683114D01*
X22782351Y-8699770D01*
X22762598Y-8707077D01*
X22694271Y-8748052D01*
X22660191Y-8807378D01*
X22661239Y-8883448D01*
X22662581Y-8889082D01*
X22681836Y-8929695D01*
X22719375Y-8959552D01*
X22779809Y-8979945D01*
X22867751Y-8992164D01*
X22987813Y-8997500D01*
X23051698Y-8998000D01*
X23152403Y-8998248D01*
X23221054Y-8999874D01*
X23264673Y-9004199D01*
X23290282Y-9012546D01*
X23304903Y-9026235D01*
X23315558Y-9046589D01*
X23316095Y-9047766D01*
X23332667Y-9086962D01*
X23338769Y-9106381D01*
X23320319Y-9109365D01*
X23269323Y-9111919D01*
X23192308Y-9113860D01*
X23095805Y-9115003D01*
X23025184Y-9115231D01*
X22888525Y-9114068D01*
X22784851Y-9109521D01*
X22708108Y-9100001D01*
X22652246Y-9083919D01*
X22611212Y-9059687D01*
X22578954Y-9025714D01*
X22556440Y-8992167D01*
X22526476Y-8911501D01*
X22519718Y-8817619D01*
X22536782Y-8729193D01*
G36*
X22533528Y-9412667D02*
G01*
X22559117Y-9356410D01*
X22590124Y-9312253D01*
X22624795Y-9279899D01*
X22669520Y-9257562D01*
X22730692Y-9243454D01*
X22814701Y-9235789D01*
X22927940Y-9232780D01*
X23002509Y-9232462D01*
X23293420Y-9232462D01*
X23316095Y-9282227D01*
X23332667Y-9321424D01*
X23338769Y-9340843D01*
X23320610Y-9344558D01*
X23271648Y-9347505D01*
X23200153Y-9349309D01*
X23143385Y-9349692D01*
X23061371Y-9351339D01*
X22996309Y-9355778D01*
X22956467Y-9362260D01*
X22948000Y-9367410D01*
X22956646Y-9402023D01*
X22978823Y-9456360D01*
X23008886Y-9519278D01*
X23041192Y-9579632D01*
X23070098Y-9626279D01*
X23089961Y-9648074D01*
X23090175Y-9648161D01*
X23126935Y-9646286D01*
X23162026Y-9629475D01*
X23190528Y-9599961D01*
X23200061Y-9556884D01*
X23198950Y-9520068D01*
X23198133Y-9467926D01*
X23210349Y-9440556D01*
X23242624Y-9424118D01*
X23248710Y-9422045D01*
X23294739Y-9414919D01*
X23322687Y-9433976D01*
X23336007Y-9483647D01*
X23338470Y-9537303D01*
X23320210Y-9633858D01*
X23294131Y-9683841D01*
X23232868Y-9745571D01*
X23157670Y-9778310D01*
X23078211Y-9781247D01*
X23004167Y-9753576D01*
X22957769Y-9711953D01*
X22931793Y-9670396D01*
X22898907Y-9605078D01*
X22865557Y-9528962D01*
X22860461Y-9516274D01*
X22823565Y-9432667D01*
X22791046Y-9384470D01*
X22758718Y-9368970D01*
X22722394Y-9383450D01*
X22694000Y-9408308D01*
X22659039Y-9467061D01*
X22656417Y-9531707D01*
X22683358Y-9590992D01*
X22737088Y-9633661D01*
X22750950Y-9639261D01*
X22801936Y-9671867D01*
X22839787Y-9719470D01*
X22870850Y-9779539D01*
X22782768Y-9779539D01*
X22728951Y-9776003D01*
X22686534Y-9760844D01*
X22641279Y-9727232D01*
X22606420Y-9694965D01*
X22557062Y-9644791D01*
X22530547Y-9605807D01*
X22519911Y-9563936D01*
X22518154Y-9516540D01*
X22533528Y-9412667D01*
G37*
X22533528Y-9412667D02*
X22559117Y-9356410D01*
X22590124Y-9312253D01*
X22624795Y-9279899D01*
X22669520Y-9257562D01*
X22730692Y-9243454D01*
X22814701Y-9235789D01*
X22927940Y-9232780D01*
X23002509Y-9232462D01*
X23293420Y-9232462D01*
X23316095Y-9282227D01*
X23332667Y-9321424D01*
X23338769Y-9340843D01*
X23320610Y-9344558D01*
X23271648Y-9347505D01*
X23200153Y-9349309D01*
X23143385Y-9349692D01*
X23061371Y-9351339D01*
X22996309Y-9355778D01*
X22956467Y-9362260D01*
X22948000Y-9367410D01*
X22956646Y-9402023D01*
X22978823Y-9456360D01*
X23008886Y-9519278D01*
X23041192Y-9579632D01*
X23070098Y-9626279D01*
X23089961Y-9648074D01*
X23090175Y-9648161D01*
X23126935Y-9646286D01*
X23162026Y-9629475D01*
X23190528Y-9599961D01*
X23200061Y-9556884D01*
X23198950Y-9520068D01*
X23198133Y-9467926D01*
X23210349Y-9440556D01*
X23242624Y-9424118D01*
X23248710Y-9422045D01*
X23294739Y-9414919D01*
X23322687Y-9433976D01*
X23336007Y-9483647D01*
X23338470Y-9537303D01*
X23320210Y-9633858D01*
X23294131Y-9683841D01*
X23232868Y-9745571D01*
X23157670Y-9778310D01*
X23078211Y-9781247D01*
X23004167Y-9753576D01*
X22957769Y-9711953D01*
X22931793Y-9670396D01*
X22898907Y-9605078D01*
X22865557Y-9528962D01*
X22860461Y-9516274D01*
X22823565Y-9432667D01*
X22791046Y-9384470D01*
X22758718Y-9368970D01*
X22722394Y-9383450D01*
X22694000Y-9408308D01*
X22659039Y-9467061D01*
X22656417Y-9531707D01*
X22683358Y-9590992D01*
X22737088Y-9633661D01*
X22750950Y-9639261D01*
X22801936Y-9671867D01*
X22839787Y-9719470D01*
X22870850Y-9779539D01*
X22782768Y-9779539D01*
X22728951Y-9776003D01*
X22686534Y-9760844D01*
X22641279Y-9727232D01*
X22606420Y-9694965D01*
X22557062Y-9644791D01*
X22530547Y-9605807D01*
X22519911Y-9563936D01*
X22518154Y-9516540D01*
X22533528Y-9412667D01*
G36*
X22536662Y-9904071D02*
G01*
X22588068Y-9901089D01*
X22666192Y-9898753D01*
X22764857Y-9897251D01*
X22868343Y-9896769D01*
X23218533Y-9896769D01*
X23280363Y-9958599D01*
X23318462Y-10001207D01*
X23333895Y-10038610D01*
X23332918Y-10089730D01*
X23330433Y-10110022D01*
X23323200Y-10173446D01*
X23319055Y-10225905D01*
X23318672Y-10238692D01*
X23321176Y-10281801D01*
X23327462Y-10343456D01*
X23330433Y-10367362D01*
X23335028Y-10426078D01*
X23325046Y-10465536D01*
X23294228Y-10504662D01*
X23280363Y-10518785D01*
X23218533Y-10580615D01*
X22563503Y-10580615D01*
X22540829Y-10530850D01*
X22524034Y-10487998D01*
X22518154Y-10462927D01*
X22536736Y-10456499D01*
X22588655Y-10450491D01*
X22668172Y-10445303D01*
X22769546Y-10441336D01*
X22855192Y-10439423D01*
X23192231Y-10434077D01*
X23198825Y-10387440D01*
X23194214Y-10345024D01*
X23179287Y-10324240D01*
X23151377Y-10318430D01*
X23091925Y-10313470D01*
X23008466Y-10309754D01*
X22908532Y-10307676D01*
X22857104Y-10307376D01*
X22561054Y-10307077D01*
X22539604Y-10245546D01*
X22525020Y-10201996D01*
X22518219Y-10178306D01*
X22518154Y-10177623D01*
X22536642Y-10175246D01*
X22587906Y-10172634D01*
X22665649Y-10170005D01*
X22763574Y-10167579D01*
X22855192Y-10165885D01*
X23192231Y-10160539D01*
X23192231Y-10043308D01*
X22884746Y-10037928D01*
X22577261Y-10032549D01*
X22547707Y-9975399D01*
X22527413Y-9933203D01*
X22518204Y-9908230D01*
X22518154Y-9907509D01*
X22536662Y-9904071D01*
G37*
X22536662Y-9904071D02*
X22588068Y-9901089D01*
X22666192Y-9898753D01*
X22764857Y-9897251D01*
X22868343Y-9896769D01*
X23218533Y-9896769D01*
X23280363Y-9958599D01*
X23318462Y-10001207D01*
X23333895Y-10038610D01*
X23332918Y-10089730D01*
X23330433Y-10110022D01*
X23323200Y-10173446D01*
X23319055Y-10225905D01*
X23318672Y-10238692D01*
X23321176Y-10281801D01*
X23327462Y-10343456D01*
X23330433Y-10367362D01*
X23335028Y-10426078D01*
X23325046Y-10465536D01*
X23294228Y-10504662D01*
X23280363Y-10518785D01*
X23218533Y-10580615D01*
X22563503Y-10580615D01*
X22540829Y-10530850D01*
X22524034Y-10487998D01*
X22518154Y-10462927D01*
X22536736Y-10456499D01*
X22588655Y-10450491D01*
X22668172Y-10445303D01*
X22769546Y-10441336D01*
X22855192Y-10439423D01*
X23192231Y-10434077D01*
X23198825Y-10387440D01*
X23194214Y-10345024D01*
X23179287Y-10324240D01*
X23151377Y-10318430D01*
X23091925Y-10313470D01*
X23008466Y-10309754D01*
X22908532Y-10307676D01*
X22857104Y-10307376D01*
X22561054Y-10307077D01*
X22539604Y-10245546D01*
X22525020Y-10201996D01*
X22518219Y-10178306D01*
X22518154Y-10177623D01*
X22536642Y-10175246D01*
X22587906Y-10172634D01*
X22665649Y-10170005D01*
X22763574Y-10167579D01*
X22855192Y-10165885D01*
X23192231Y-10160539D01*
X23192231Y-10043308D01*
X22884746Y-10037928D01*
X22577261Y-10032549D01*
X22547707Y-9975399D01*
X22527413Y-9933203D01*
X22518204Y-9908230D01*
X22518154Y-9907509D01*
X22536662Y-9904071D01*
G36*
X22680289Y-10697919D02*
G01*
X22826320Y-10698167D01*
X22938655Y-10699128D01*
X23022678Y-10701206D01*
X23083769Y-10704807D01*
X23127309Y-10710335D01*
X23158679Y-10718196D01*
X23183262Y-10728793D01*
X23197294Y-10736818D01*
X23273388Y-10803272D01*
X23321084Y-10887530D01*
X23338199Y-10980751D01*
X23322546Y-11074100D01*
X23294418Y-11129688D01*
X23245760Y-11188043D01*
X23186333Y-11227814D01*
X23108507Y-11251810D01*
X23004652Y-11262839D01*
X22928462Y-11264401D01*
X22922986Y-11264191D01*
X22922986Y-11127692D01*
X23010355Y-11126859D01*
X23068192Y-11123039D01*
X23106029Y-11114254D01*
X23133398Y-11098526D01*
X23154042Y-11079734D01*
X23193890Y-11016625D01*
X23197295Y-10948863D01*
X23164025Y-10884821D01*
X23159517Y-10879836D01*
X23136067Y-10858561D01*
X23108166Y-10845221D01*
X23066641Y-10837999D01*
X23002316Y-10835077D01*
X22931200Y-10834615D01*
X22841858Y-10835617D01*
X22782258Y-10839762D01*
X22743089Y-10848764D01*
X22715040Y-10864333D01*
X22700144Y-10877098D01*
X22662575Y-10936400D01*
X22658057Y-11004699D01*
X22686753Y-11069890D01*
X22697406Y-11082472D01*
X22721063Y-11103889D01*
X22749251Y-11117256D01*
X22791245Y-11124434D01*
X22856319Y-11127281D01*
X22922986Y-11127692D01*
X22922986Y-11264191D01*
X22805765Y-11259678D01*
X22713577Y-11243638D01*
X22644269Y-11213472D01*
X22590211Y-11166371D01*
X22562505Y-11129688D01*
X22532572Y-11063010D01*
X22518678Y-10985728D01*
X22522397Y-10913890D01*
X22537400Y-10873692D01*
X22541670Y-10857918D01*
X22525750Y-10847450D01*
X22483089Y-10840144D01*
X22418106Y-10834615D01*
X22345732Y-10828563D01*
X22302187Y-10820156D01*
X22277287Y-10804859D01*
X22260845Y-10778136D01*
X22253564Y-10761346D01*
X22226963Y-10697846D01*
X22680289Y-10697919D01*
G37*
X22680289Y-10697919D02*
X22826320Y-10698167D01*
X22938655Y-10699128D01*
X23022678Y-10701206D01*
X23083769Y-10704807D01*
X23127309Y-10710335D01*
X23158679Y-10718196D01*
X23183262Y-10728793D01*
X23197294Y-10736818D01*
X23273388Y-10803272D01*
X23321084Y-10887530D01*
X23338199Y-10980751D01*
X23322546Y-11074100D01*
X23294418Y-11129688D01*
X23245760Y-11188043D01*
X23186333Y-11227814D01*
X23108507Y-11251810D01*
X23004652Y-11262839D01*
X22928462Y-11264401D01*
X22922986Y-11264191D01*
X22922986Y-11127692D01*
X23010355Y-11126859D01*
X23068192Y-11123039D01*
X23106029Y-11114254D01*
X23133398Y-11098526D01*
X23154042Y-11079734D01*
X23193890Y-11016625D01*
X23197295Y-10948863D01*
X23164025Y-10884821D01*
X23159517Y-10879836D01*
X23136067Y-10858561D01*
X23108166Y-10845221D01*
X23066641Y-10837999D01*
X23002316Y-10835077D01*
X22931200Y-10834615D01*
X22841858Y-10835617D01*
X22782258Y-10839762D01*
X22743089Y-10848764D01*
X22715040Y-10864333D01*
X22700144Y-10877098D01*
X22662575Y-10936400D01*
X22658057Y-11004699D01*
X22686753Y-11069890D01*
X22697406Y-11082472D01*
X22721063Y-11103889D01*
X22749251Y-11117256D01*
X22791245Y-11124434D01*
X22856319Y-11127281D01*
X22922986Y-11127692D01*
X22922986Y-11264191D01*
X22805765Y-11259678D01*
X22713577Y-11243638D01*
X22644269Y-11213472D01*
X22590211Y-11166371D01*
X22562505Y-11129688D01*
X22532572Y-11063010D01*
X22518678Y-10985728D01*
X22522397Y-10913890D01*
X22537400Y-10873692D01*
X22541670Y-10857918D01*
X22525750Y-10847450D01*
X22483089Y-10840144D01*
X22418106Y-10834615D01*
X22345732Y-10828563D01*
X22302187Y-10820156D01*
X22277287Y-10804859D01*
X22260845Y-10778136D01*
X22253564Y-10761346D01*
X22226963Y-10697846D01*
X22680289Y-10697919D01*
G36*
X22524670Y-11586638D02*
G01*
X22557421Y-11497883D01*
X22615350Y-11425978D01*
X22656128Y-11397856D01*
X22730954Y-11367198D01*
X22785058Y-11367835D01*
X22821446Y-11400013D01*
X22827633Y-11411919D01*
X22846925Y-11463325D01*
X22841982Y-11489578D01*
X22809587Y-11498470D01*
X22791692Y-11498923D01*
X22725859Y-11515203D01*
X22679807Y-11557635D01*
X22657564Y-11616612D01*
X22663161Y-11682525D01*
X22692229Y-11736105D01*
X22708810Y-11754202D01*
X22728925Y-11767029D01*
X22759332Y-11775694D01*
X22806788Y-11781304D01*
X22878050Y-11784965D01*
X22979875Y-11787785D01*
X23012115Y-11788516D01*
X23122410Y-11791180D01*
X23200036Y-11794208D01*
X23251396Y-11798750D01*
X23282890Y-11805954D01*
X23300920Y-11816967D01*
X23311888Y-11832940D01*
X23316733Y-11843166D01*
X23333301Y-11886594D01*
X23338769Y-11912158D01*
X23320507Y-11920605D01*
X23265296Y-11925761D01*
X23172499Y-11927654D01*
X23041478Y-11926311D01*
X23021269Y-11925893D01*
X22901733Y-11922942D01*
X22814449Y-11919452D01*
X22752591Y-11914486D01*
X22709336Y-11907107D01*
X22677860Y-11896376D01*
X22651339Y-11881355D01*
X22639975Y-11873498D01*
X22589692Y-11828447D01*
X22550581Y-11778060D01*
X22547167Y-11771892D01*
X22520212Y-11681542D01*
X22524670Y-11586638D01*
G37*
X22524670Y-11586638D02*
X22557421Y-11497883D01*
X22615350Y-11425978D01*
X22656128Y-11397856D01*
X22730954Y-11367198D01*
X22785058Y-11367835D01*
X22821446Y-11400013D01*
X22827633Y-11411919D01*
X22846925Y-11463325D01*
X22841982Y-11489578D01*
X22809587Y-11498470D01*
X22791692Y-11498923D01*
X22725859Y-11515203D01*
X22679807Y-11557635D01*
X22657564Y-11616612D01*
X22663161Y-11682525D01*
X22692229Y-11736105D01*
X22708810Y-11754202D01*
X22728925Y-11767029D01*
X22759332Y-11775694D01*
X22806788Y-11781304D01*
X22878050Y-11784965D01*
X22979875Y-11787785D01*
X23012115Y-11788516D01*
X23122410Y-11791180D01*
X23200036Y-11794208D01*
X23251396Y-11798750D01*
X23282890Y-11805954D01*
X23300920Y-11816967D01*
X23311888Y-11832940D01*
X23316733Y-11843166D01*
X23333301Y-11886594D01*
X23338769Y-11912158D01*
X23320507Y-11920605D01*
X23265296Y-11925761D01*
X23172499Y-11927654D01*
X23041478Y-11926311D01*
X23021269Y-11925893D01*
X22901733Y-11922942D01*
X22814449Y-11919452D01*
X22752591Y-11914486D01*
X22709336Y-11907107D01*
X22677860Y-11896376D01*
X22651339Y-11881355D01*
X22639975Y-11873498D01*
X22589692Y-11828447D01*
X22550581Y-11778060D01*
X22547167Y-11771892D01*
X22520212Y-11681542D01*
X22524670Y-11586638D01*
G36*
X22526303Y-12246499D02*
G01*
X22554733Y-12169940D01*
X22555279Y-12169064D01*
X22590127Y-12121715D01*
X22630852Y-12086759D01*
X22683925Y-12062175D01*
X22755814Y-12045938D01*
X22852992Y-12036025D01*
X22981928Y-12030414D01*
X23000298Y-12029923D01*
X23277287Y-12022859D01*
X23308028Y-12082305D01*
X23328802Y-12125319D01*
X23338646Y-12151290D01*
X23338769Y-12152491D01*
X23320606Y-12156986D01*
X23271612Y-12160556D01*
X23200031Y-12162752D01*
X23142068Y-12163231D01*
X23048170Y-12163242D01*
X22989203Y-12167534D01*
X22961079Y-12182497D01*
X22959706Y-12214518D01*
X22980998Y-12269986D01*
X23020136Y-12353731D01*
X23052643Y-12415311D01*
X23080845Y-12446983D01*
X23111582Y-12456294D01*
X23113104Y-12456308D01*
X23166054Y-12440943D01*
X23194660Y-12395453D01*
X23198803Y-12325834D01*
X23198084Y-12275687D01*
X23212527Y-12249246D01*
X23247218Y-12232757D01*
X23291416Y-12223267D01*
X23316493Y-12236943D01*
X23320082Y-12242093D01*
X23334496Y-12290575D01*
X23336537Y-12358469D01*
X23326983Y-12428388D01*
X23309522Y-12477932D01*
X23251364Y-12546430D01*
X23170408Y-12585366D01*
X23107160Y-12593077D01*
X23050111Y-12587193D01*
X23003542Y-12565899D01*
X22962181Y-12523735D01*
X22920755Y-12455241D01*
X22873993Y-12354956D01*
X22871350Y-12348846D01*
X22829617Y-12258510D01*
X22795391Y-12202765D01*
X22764635Y-12178871D01*
X22733311Y-12184087D01*
X22697383Y-12215672D01*
X22689116Y-12225117D01*
X22657058Y-12288383D01*
X22658407Y-12353936D01*
X22689838Y-12411028D01*
X22748024Y-12448907D01*
X22759446Y-12452426D01*
X22814837Y-12486700D01*
X22841518Y-12530191D01*
X22867960Y-12593077D01*
X22799548Y-12593077D01*
X22700110Y-12573948D01*
X22608902Y-12517169D01*
X22578389Y-12487622D01*
X22539228Y-12420458D01*
X22521500Y-12335044D01*
X22526303Y-12246499D01*
G37*
X22526303Y-12246499D02*
X22554733Y-12169940D01*
X22555279Y-12169064D01*
X22590127Y-12121715D01*
X22630852Y-12086759D01*
X22683925Y-12062175D01*
X22755814Y-12045938D01*
X22852992Y-12036025D01*
X22981928Y-12030414D01*
X23000298Y-12029923D01*
X23277287Y-12022859D01*
X23308028Y-12082305D01*
X23328802Y-12125319D01*
X23338646Y-12151290D01*
X23338769Y-12152491D01*
X23320606Y-12156986D01*
X23271612Y-12160556D01*
X23200031Y-12162752D01*
X23142068Y-12163231D01*
X23048170Y-12163242D01*
X22989203Y-12167534D01*
X22961079Y-12182497D01*
X22959706Y-12214518D01*
X22980998Y-12269986D01*
X23020136Y-12353731D01*
X23052643Y-12415311D01*
X23080845Y-12446983D01*
X23111582Y-12456294D01*
X23113104Y-12456308D01*
X23166054Y-12440943D01*
X23194660Y-12395453D01*
X23198803Y-12325834D01*
X23198084Y-12275687D01*
X23212527Y-12249246D01*
X23247218Y-12232757D01*
X23291416Y-12223267D01*
X23316493Y-12236943D01*
X23320082Y-12242093D01*
X23334496Y-12290575D01*
X23336537Y-12358469D01*
X23326983Y-12428388D01*
X23309522Y-12477932D01*
X23251364Y-12546430D01*
X23170408Y-12585366D01*
X23107160Y-12593077D01*
X23050111Y-12587193D01*
X23003542Y-12565899D01*
X22962181Y-12523735D01*
X22920755Y-12455241D01*
X22873993Y-12354956D01*
X22871350Y-12348846D01*
X22829617Y-12258510D01*
X22795391Y-12202765D01*
X22764635Y-12178871D01*
X22733311Y-12184087D01*
X22697383Y-12215672D01*
X22689116Y-12225117D01*
X22657058Y-12288383D01*
X22658407Y-12353936D01*
X22689838Y-12411028D01*
X22748024Y-12448907D01*
X22759446Y-12452426D01*
X22814837Y-12486700D01*
X22841518Y-12530191D01*
X22867960Y-12593077D01*
X22799548Y-12593077D01*
X22700110Y-12573948D01*
X22608902Y-12517169D01*
X22578389Y-12487622D01*
X22539228Y-12420458D01*
X22521500Y-12335044D01*
X22526303Y-12246499D01*
G36*
X22392120Y-13140154D02*
G01*
X22471980Y-13134428D01*
X22519039Y-13127851D01*
X22539566Y-13118738D01*
X22539829Y-13105402D01*
X22537378Y-13101077D01*
X22519636Y-13043556D01*
X22520672Y-12968732D01*
X22538910Y-12892661D01*
X22562505Y-12845082D01*
X22600198Y-12796298D01*
X22642855Y-12760636D01*
X22697057Y-12736155D01*
X22769384Y-12720913D01*
X22866419Y-12712970D01*
X22994742Y-12710384D01*
X23019358Y-12710338D01*
X23295870Y-12710308D01*
X23317320Y-12771839D01*
X23331912Y-12815541D01*
X23338706Y-12839518D01*
X23338769Y-12840223D01*
X23320345Y-12842585D01*
X23269526Y-12844594D01*
X23192993Y-12846099D01*
X23097430Y-12846947D01*
X23039329Y-12847077D01*
X22924771Y-12847349D01*
X22842667Y-12848748D01*
X22786393Y-12852151D01*
X22749326Y-12858433D01*
X22724844Y-12868471D01*
X22706325Y-12883139D01*
X22697406Y-12892298D01*
X22661466Y-12955211D01*
X22658775Y-13023864D01*
X22689170Y-13086152D01*
X22700144Y-13097671D01*
X22720779Y-13114567D01*
X22745256Y-13126286D01*
X22780647Y-13133767D01*
X22834026Y-13137946D01*
X22912466Y-13139763D01*
X23020617Y-13140154D01*
X23295870Y-13140154D01*
X23317320Y-13201685D01*
X23331912Y-13245387D01*
X23338706Y-13269364D01*
X23338769Y-13270070D01*
X23320069Y-13271874D01*
X23267322Y-13273500D01*
X23185557Y-13274883D01*
X23079805Y-13275958D01*
X22955094Y-13276660D01*
X22816455Y-13276923D01*
X22281806Y-13276923D01*
X22228236Y-13149923D01*
X22392120Y-13140154D01*
G37*
X22392120Y-13140154D02*
X22471980Y-13134428D01*
X22519039Y-13127851D01*
X22539566Y-13118738D01*
X22539829Y-13105402D01*
X22537378Y-13101077D01*
X22519636Y-13043556D01*
X22520672Y-12968732D01*
X22538910Y-12892661D01*
X22562505Y-12845082D01*
X22600198Y-12796298D01*
X22642855Y-12760636D01*
X22697057Y-12736155D01*
X22769384Y-12720913D01*
X22866419Y-12712970D01*
X22994742Y-12710384D01*
X23019358Y-12710338D01*
X23295870Y-12710308D01*
X23317320Y-12771839D01*
X23331912Y-12815541D01*
X23338706Y-12839518D01*
X23338769Y-12840223D01*
X23320345Y-12842585D01*
X23269526Y-12844594D01*
X23192993Y-12846099D01*
X23097430Y-12846947D01*
X23039329Y-12847077D01*
X22924771Y-12847349D01*
X22842667Y-12848748D01*
X22786393Y-12852151D01*
X22749326Y-12858433D01*
X22724844Y-12868471D01*
X22706325Y-12883139D01*
X22697406Y-12892298D01*
X22661466Y-12955211D01*
X22658775Y-13023864D01*
X22689170Y-13086152D01*
X22700144Y-13097671D01*
X22720779Y-13114567D01*
X22745256Y-13126286D01*
X22780647Y-13133767D01*
X22834026Y-13137946D01*
X22912466Y-13139763D01*
X23020617Y-13140154D01*
X23295870Y-13140154D01*
X23317320Y-13201685D01*
X23331912Y-13245387D01*
X23338706Y-13269364D01*
X23338769Y-13270070D01*
X23320069Y-13271874D01*
X23267322Y-13273500D01*
X23185557Y-13274883D01*
X23079805Y-13275958D01*
X22955094Y-13276660D01*
X22816455Y-13276923D01*
X22281806Y-13276923D01*
X22228236Y-13149923D01*
X22392120Y-13140154D01*
G36*
X22499745Y-14765746D02*
G01*
X22551567Y-14688714D01*
X22626412Y-14629184D01*
X22721654Y-14593622D01*
X22791756Y-14586429D01*
X22821009Y-14587246D01*
X22843407Y-14594086D01*
X22863474Y-14612888D01*
X22885733Y-14649592D01*
X22914709Y-14710138D01*
X22954927Y-14800466D01*
X22955129Y-14800923D01*
X22993210Y-14884067D01*
X23027025Y-14952247D01*
X23052933Y-14998495D01*
X23067295Y-15015842D01*
X23067411Y-15015846D01*
X23098685Y-15000557D01*
X23133157Y-14964804D01*
X23157990Y-14923758D01*
X23162923Y-14902963D01*
X23145862Y-14846230D01*
X23103133Y-14797373D01*
X23056155Y-14773535D01*
X23021522Y-14750603D01*
X22982081Y-14705682D01*
X22948009Y-14652877D01*
X22929480Y-14606290D01*
X22928462Y-14596548D01*
X22945215Y-14585582D01*
X22988039Y-14584921D01*
X23045781Y-14592980D01*
X23107289Y-14608173D01*
X23161409Y-14628914D01*
X23163510Y-14629962D01*
X23250660Y-14692379D01*
X23309939Y-14773274D01*
X23339034Y-14865144D01*
X23335634Y-14960487D01*
X23297428Y-15051802D01*
X23294741Y-15055862D01*
X23229642Y-15127694D01*
X23144705Y-15174927D01*
X23033021Y-15201066D01*
X23001643Y-15204574D01*
X22853536Y-15210787D01*
X22784468Y-15203339D01*
X22784468Y-15015846D01*
X22827552Y-15013410D01*
X22840126Y-15000086D01*
X22830719Y-14966868D01*
X22808483Y-14914506D01*
X22780610Y-14855976D01*
X22779872Y-14854521D01*
X22753777Y-14804911D01*
X22736363Y-14785000D01*
X22718107Y-14789910D01*
X22694120Y-14810584D01*
X22659406Y-14863181D01*
X22656856Y-14919823D01*
X22682119Y-14970631D01*
X22730847Y-15005724D01*
X22784468Y-15015846D01*
X22784468Y-15203339D01*
X22735036Y-15198008D01*
X22641055Y-15165222D01*
X22575215Y-15119579D01*
X22508681Y-15037198D01*
X22475676Y-14946454D01*
X22473573Y-14853815D01*
X22499745Y-14765746D01*
G37*
X22499745Y-14765746D02*
X22551567Y-14688714D01*
X22626412Y-14629184D01*
X22721654Y-14593622D01*
X22791756Y-14586429D01*
X22821009Y-14587246D01*
X22843407Y-14594086D01*
X22863474Y-14612888D01*
X22885733Y-14649592D01*
X22914709Y-14710138D01*
X22954927Y-14800466D01*
X22955129Y-14800923D01*
X22993210Y-14884067D01*
X23027025Y-14952247D01*
X23052933Y-14998495D01*
X23067295Y-15015842D01*
X23067411Y-15015846D01*
X23098685Y-15000557D01*
X23133157Y-14964804D01*
X23157990Y-14923758D01*
X23162923Y-14902963D01*
X23145862Y-14846230D01*
X23103133Y-14797373D01*
X23056155Y-14773535D01*
X23021522Y-14750603D01*
X22982081Y-14705682D01*
X22948009Y-14652877D01*
X22929480Y-14606290D01*
X22928462Y-14596548D01*
X22945215Y-14585582D01*
X22988039Y-14584921D01*
X23045781Y-14592980D01*
X23107289Y-14608173D01*
X23161409Y-14628914D01*
X23163510Y-14629962D01*
X23250660Y-14692379D01*
X23309939Y-14773274D01*
X23339034Y-14865144D01*
X23335634Y-14960487D01*
X23297428Y-15051802D01*
X23294741Y-15055862D01*
X23229642Y-15127694D01*
X23144705Y-15174927D01*
X23033021Y-15201066D01*
X23001643Y-15204574D01*
X22853536Y-15210787D01*
X22784468Y-15203339D01*
X22784468Y-15015846D01*
X22827552Y-15013410D01*
X22840126Y-15000086D01*
X22830719Y-14966868D01*
X22808483Y-14914506D01*
X22780610Y-14855976D01*
X22779872Y-14854521D01*
X22753777Y-14804911D01*
X22736363Y-14785000D01*
X22718107Y-14789910D01*
X22694120Y-14810584D01*
X22659406Y-14863181D01*
X22656856Y-14919823D01*
X22682119Y-14970631D01*
X22730847Y-15005724D01*
X22784468Y-15015846D01*
X22784468Y-15203339D01*
X22735036Y-15198008D01*
X22641055Y-15165222D01*
X22575215Y-15119579D01*
X22508681Y-15037198D01*
X22475676Y-14946454D01*
X22473573Y-14853815D01*
X22499745Y-14765746D01*
G36*
X22487256Y-16283114D02*
G01*
X22535409Y-16191536D01*
X22612905Y-16123951D01*
X22662727Y-16099943D01*
X22737533Y-16081262D01*
X22832052Y-16071699D01*
X22935210Y-16070792D01*
X23035935Y-16078079D01*
X23123153Y-16093097D01*
X23185791Y-16115385D01*
X23196579Y-16122235D01*
X23277105Y-16203368D01*
X23325336Y-16299734D01*
X23339450Y-16404299D01*
X23317629Y-16510032D01*
X23304547Y-16539457D01*
X23264231Y-16596759D01*
X23210775Y-16647050D01*
X23203995Y-16651803D01*
X23171321Y-16671122D01*
X23136394Y-16683892D01*
X23090414Y-16691436D01*
X23024584Y-16695076D01*
X22930105Y-16696135D01*
X22908923Y-16696154D01*
X22902182Y-16696106D01*
X22902182Y-16500769D01*
X22991349Y-16499632D01*
X23050520Y-16495159D01*
X23088741Y-16485754D01*
X23115053Y-16469824D01*
X23123846Y-16461692D01*
X23157261Y-16414942D01*
X23155737Y-16369553D01*
X23126752Y-16323660D01*
X23095809Y-16296288D01*
X23050643Y-16280077D01*
X22979420Y-16270974D01*
X22971114Y-16270349D01*
X22842037Y-16268796D01*
X22746172Y-16285035D01*
X22684107Y-16318848D01*
X22656432Y-16370016D01*
X22654923Y-16388280D01*
X22662513Y-16436240D01*
X22688808Y-16469047D01*
X22739095Y-16489105D01*
X22818664Y-16498822D01*
X22902182Y-16500769D01*
X22902182Y-16696106D01*
X22808249Y-16695426D01*
X22737906Y-16692371D01*
X22689163Y-16685678D01*
X22653288Y-16674040D01*
X22621548Y-16656147D01*
X22615648Y-16652192D01*
X22536104Y-16585733D01*
X22489929Y-16513315D01*
X22471599Y-16425151D01*
X22470703Y-16395213D01*
X22487256Y-16283114D01*
G37*
X22487256Y-16283114D02*
X22535409Y-16191536D01*
X22612905Y-16123951D01*
X22662727Y-16099943D01*
X22737533Y-16081262D01*
X22832052Y-16071699D01*
X22935210Y-16070792D01*
X23035935Y-16078079D01*
X23123153Y-16093097D01*
X23185791Y-16115385D01*
X23196579Y-16122235D01*
X23277105Y-16203368D01*
X23325336Y-16299734D01*
X23339450Y-16404299D01*
X23317629Y-16510032D01*
X23304547Y-16539457D01*
X23264231Y-16596759D01*
X23210775Y-16647050D01*
X23203995Y-16651803D01*
X23171321Y-16671122D01*
X23136394Y-16683892D01*
X23090414Y-16691436D01*
X23024584Y-16695076D01*
X22930105Y-16696135D01*
X22908923Y-16696154D01*
X22902182Y-16696106D01*
X22902182Y-16500769D01*
X22991349Y-16499632D01*
X23050520Y-16495159D01*
X23088741Y-16485754D01*
X23115053Y-16469824D01*
X23123846Y-16461692D01*
X23157261Y-16414942D01*
X23155737Y-16369553D01*
X23126752Y-16323660D01*
X23095809Y-16296288D01*
X23050643Y-16280077D01*
X22979420Y-16270974D01*
X22971114Y-16270349D01*
X22842037Y-16268796D01*
X22746172Y-16285035D01*
X22684107Y-16318848D01*
X22656432Y-16370016D01*
X22654923Y-16388280D01*
X22662513Y-16436240D01*
X22688808Y-16469047D01*
X22739095Y-16489105D01*
X22818664Y-16498822D01*
X22902182Y-16500769D01*
X22902182Y-16696106D01*
X22808249Y-16695426D01*
X22737906Y-16692371D01*
X22689163Y-16685678D01*
X22653288Y-16674040D01*
X22621548Y-16656147D01*
X22615648Y-16652192D01*
X22536104Y-16585733D01*
X22489929Y-16513315D01*
X22471599Y-16425151D01*
X22470703Y-16395213D01*
X22487256Y-16283114D01*
G36*
X22495089Y-14028336D02*
G01*
X22531358Y-13965633D01*
X22567358Y-13922039D01*
X22605075Y-13890155D01*
X22651199Y-13868190D01*
X22712421Y-13854351D01*
X22795431Y-13846847D01*
X22906919Y-13843883D01*
X22987062Y-13843539D01*
X23282065Y-13843539D01*
X23356515Y-14009615D01*
X23033402Y-14019385D01*
X22912729Y-14023421D01*
X22825141Y-14027656D01*
X22764650Y-14032903D01*
X22725268Y-14039975D01*
X22701007Y-14049689D01*
X22685880Y-14062856D01*
X22682606Y-14067081D01*
X22657034Y-14131091D01*
X22667153Y-14195792D01*
X22694000Y-14234308D01*
X22713024Y-14249975D01*
X22737988Y-14260820D01*
X22775834Y-14267712D01*
X22833502Y-14271521D01*
X22917935Y-14273117D01*
X23005928Y-14273385D01*
X23116323Y-14273437D01*
X23194463Y-14275328D01*
X23247165Y-14281655D01*
X23281242Y-14295017D01*
X23303511Y-14318015D01*
X23320787Y-14353246D01*
X23338738Y-14400303D01*
X23358278Y-14451697D01*
X23011485Y-14445579D01*
X22886468Y-14443116D01*
X22794082Y-14440233D01*
X22727881Y-14436102D01*
X22681420Y-14429893D01*
X22648256Y-14420774D01*
X22621944Y-14407917D01*
X22598729Y-14392416D01*
X22524569Y-14317629D01*
X22481684Y-14226372D01*
X22471412Y-14127117D01*
X22495089Y-14028336D01*
G37*
X22495089Y-14028336D02*
X22531358Y-13965633D01*
X22567358Y-13922039D01*
X22605075Y-13890155D01*
X22651199Y-13868190D01*
X22712421Y-13854351D01*
X22795431Y-13846847D01*
X22906919Y-13843883D01*
X22987062Y-13843539D01*
X23282065Y-13843539D01*
X23356515Y-14009615D01*
X23033402Y-14019385D01*
X22912729Y-14023421D01*
X22825141Y-14027656D01*
X22764650Y-14032903D01*
X22725268Y-14039975D01*
X22701007Y-14049689D01*
X22685880Y-14062856D01*
X22682606Y-14067081D01*
X22657034Y-14131091D01*
X22667153Y-14195792D01*
X22694000Y-14234308D01*
X22713024Y-14249975D01*
X22737988Y-14260820D01*
X22775834Y-14267712D01*
X22833502Y-14271521D01*
X22917935Y-14273117D01*
X23005928Y-14273385D01*
X23116323Y-14273437D01*
X23194463Y-14275328D01*
X23247165Y-14281655D01*
X23281242Y-14295017D01*
X23303511Y-14318015D01*
X23320787Y-14353246D01*
X23338738Y-14400303D01*
X23358278Y-14451697D01*
X23011485Y-14445579D01*
X22886468Y-14443116D01*
X22794082Y-14440233D01*
X22727881Y-14436102D01*
X22681420Y-14429893D01*
X22648256Y-14420774D01*
X22621944Y-14407917D01*
X22598729Y-14392416D01*
X22524569Y-14317629D01*
X22481684Y-14226372D01*
X22471412Y-14127117D01*
X22495089Y-14028336D01*
G36*
X22484505Y-15531114D02*
G01*
X22521727Y-15456461D01*
X22590261Y-15390569D01*
X22615648Y-15372423D01*
X22648866Y-15352655D01*
X22684945Y-15339828D01*
X22733098Y-15332490D01*
X22802536Y-15329187D01*
X22894206Y-15328462D01*
X23019830Y-15331737D01*
X23114154Y-15343123D01*
X23184523Y-15364959D01*
X23238286Y-15399581D01*
X23282788Y-15449330D01*
X23285423Y-15452986D01*
X23312377Y-15502015D01*
X23325712Y-15561055D01*
X23329000Y-15636141D01*
X23329000Y-15758205D01*
X23447497Y-15758256D01*
X23513492Y-15759392D01*
X23552202Y-15766314D01*
X23575419Y-15784402D01*
X23594933Y-15819038D01*
X23598920Y-15827355D01*
X23617603Y-15866280D01*
X23629403Y-15896417D01*
X23630422Y-15918826D01*
X23616761Y-15934567D01*
X23584522Y-15944698D01*
X23529804Y-15950277D01*
X23448711Y-15952365D01*
X23337344Y-15952019D01*
X23191802Y-15950300D01*
X23148269Y-15949763D01*
X22998205Y-15947828D01*
X22900042Y-15946096D01*
X22900042Y-15758308D01*
X22983364Y-15757252D01*
X23037880Y-15752562D01*
X23073837Y-15741949D01*
X23101482Y-15723128D01*
X23114965Y-15710350D01*
X23154417Y-15658110D01*
X23157628Y-15611858D01*
X23125049Y-15564133D01*
X23123846Y-15562923D01*
X23098668Y-15543506D01*
X23064447Y-15531693D01*
X23011748Y-15525735D01*
X22931131Y-15523880D01*
X22913271Y-15523846D01*
X22802175Y-15528330D01*
X22725161Y-15542926D01*
X22678147Y-15569350D01*
X22657050Y-15609317D01*
X22654923Y-15632416D01*
X22664900Y-15687238D01*
X22697752Y-15724842D01*
X22757857Y-15747477D01*
X22849598Y-15757394D01*
X22900042Y-15758308D01*
X22900042Y-15946096D01*
X22882060Y-15945778D01*
X22794679Y-15943127D01*
X22730905Y-15939394D01*
X22685582Y-15934093D01*
X22653555Y-15926742D01*
X22629668Y-15916857D01*
X22608764Y-15903954D01*
X22600898Y-15898421D01*
X22526595Y-15825031D01*
X22484467Y-15732240D01*
X22472722Y-15624904D01*
X22484505Y-15531114D01*
G37*
X22484505Y-15531114D02*
X22521727Y-15456461D01*
X22590261Y-15390569D01*
X22615648Y-15372423D01*
X22648866Y-15352655D01*
X22684945Y-15339828D01*
X22733098Y-15332490D01*
X22802536Y-15329187D01*
X22894206Y-15328462D01*
X23019830Y-15331737D01*
X23114154Y-15343123D01*
X23184523Y-15364959D01*
X23238286Y-15399581D01*
X23282788Y-15449330D01*
X23285423Y-15452986D01*
X23312377Y-15502015D01*
X23325712Y-15561055D01*
X23329000Y-15636141D01*
X23329000Y-15758205D01*
X23447497Y-15758256D01*
X23513492Y-15759392D01*
X23552202Y-15766314D01*
X23575419Y-15784402D01*
X23594933Y-15819038D01*
X23598920Y-15827355D01*
X23617603Y-15866280D01*
X23629403Y-15896417D01*
X23630422Y-15918826D01*
X23616761Y-15934567D01*
X23584522Y-15944698D01*
X23529804Y-15950277D01*
X23448711Y-15952365D01*
X23337344Y-15952019D01*
X23191802Y-15950300D01*
X23148269Y-15949763D01*
X22998205Y-15947828D01*
X22900042Y-15946096D01*
X22900042Y-15758308D01*
X22983364Y-15757252D01*
X23037880Y-15752562D01*
X23073837Y-15741949D01*
X23101482Y-15723128D01*
X23114965Y-15710350D01*
X23154417Y-15658110D01*
X23157628Y-15611858D01*
X23125049Y-15564133D01*
X23123846Y-15562923D01*
X23098668Y-15543506D01*
X23064447Y-15531693D01*
X23011748Y-15525735D01*
X22931131Y-15523880D01*
X22913271Y-15523846D01*
X22802175Y-15528330D01*
X22725161Y-15542926D01*
X22678147Y-15569350D01*
X22657050Y-15609317D01*
X22654923Y-15632416D01*
X22664900Y-15687238D01*
X22697752Y-15724842D01*
X22757857Y-15747477D01*
X22849598Y-15757394D01*
X22900042Y-15758308D01*
X22900042Y-15946096D01*
X22882060Y-15945778D01*
X22794679Y-15943127D01*
X22730905Y-15939394D01*
X22685582Y-15934093D01*
X22653555Y-15926742D01*
X22629668Y-15916857D01*
X22608764Y-15903954D01*
X22600898Y-15898421D01*
X22526595Y-15825031D01*
X22484467Y-15732240D01*
X22472722Y-15624904D01*
X22484505Y-15531114D01*
D12*
X7200000Y-3435000D02*
X11110000Y-3435000D01*
X11110000Y-3435000D02*
X11110000Y-1565000D01*
X11110000Y-1565000D02*
X7200000Y-1565000D01*
X6500000Y-21800000D02*
X9050000Y-21800000D01*
X6500000Y-23500000D02*
X9050000Y-23500000D01*
X6500000Y-21800000D02*
X6500000Y-23500000D01*
X33700000Y-19950000D02*
X34500000Y-19950000D01*
X33700000Y-18650000D02*
X33700000Y-19950000D01*
X34500000Y-18650000D02*
X34500000Y-19950000D01*
X24540580Y-30190000D02*
X24259420Y-30190000D01*
X24540580Y-31210000D02*
X24259420Y-31210000D01*
X24162742Y-26672500D02*
X24637258Y-26672500D01*
X24162742Y-25627500D02*
X24637258Y-25627500D01*
X24162742Y-29722500D02*
X24637258Y-29722500D01*
X24162742Y-28677500D02*
X24637258Y-28677500D01*
X17600000Y-32030000D02*
X14000000Y-32030000D01*
X17600000Y-24670000D02*
X14000000Y-24670000D01*
X12120000Y-30150000D02*
X12120000Y-26550000D01*
X19480000Y-30150000D02*
X19480000Y-26550000D01*
X9500000Y-21500000D02*
X6950000Y-21500000D01*
X9500000Y-19800000D02*
X6950000Y-19800000D01*
X9500000Y-21500000D02*
X9500000Y-19800000D01*
X33937258Y-11577500D02*
X33462742Y-11577500D01*
X33937258Y-12622500D02*
X33462742Y-12622500D01*
X33462742Y-15712500D02*
X33937258Y-15712500D01*
X33462742Y-14667500D02*
X33937258Y-14667500D01*
X33559420Y-17300000D02*
X33840580Y-17300000D01*
X33559420Y-16280000D02*
X33840580Y-16280000D01*
X7340000Y-11470000D02*
X8800000Y-11470000D01*
X7340000Y-14630000D02*
X9500000Y-14630000D01*
X7340000Y-14630000D02*
X7340000Y-13700000D01*
X7340000Y-11470000D02*
X7340000Y-12400000D01*
X10090000Y-12909420D02*
X10090000Y-13190580D01*
X11110000Y-12909420D02*
X11110000Y-13190580D01*
X7859420Y-16160000D02*
X8140580Y-16160000D01*
X7859420Y-15140000D02*
X8140580Y-15140000D01*
X40100000Y-2450000D02*
X40100000Y-6350000D01*
X38100000Y-2450000D02*
X38100000Y-6350000D01*
X40100000Y-2450000D02*
X38100000Y-2450000D01*
X43159420Y-16610000D02*
X43440580Y-16610000D01*
X43159420Y-15590000D02*
X43440580Y-15590000D01*
X42790000Y-6580000D02*
X42790000Y-6960000D01*
X46840000Y-6580000D02*
X47100000Y-6580000D01*
X42790000Y-6580000D02*
X44560000Y-6580000D01*
X42790000Y-14200000D02*
X42790000Y-13820000D01*
X44560000Y-14200000D02*
X42790000Y-14200000D01*
X47100000Y-14200000D02*
X46840000Y-14200000D01*
X7762742Y-24972500D02*
X8237258Y-24972500D01*
X7762742Y-23927500D02*
X8237258Y-23927500D01*
X7762742Y-19412500D02*
X8237258Y-19412500D01*
X7762742Y-18367500D02*
X8237258Y-18367500D01*
X7762742Y-17872500D02*
X8237258Y-17872500D01*
X7762742Y-16827500D02*
X8237258Y-16827500D01*
X670000Y-25180000D02*
X5870000Y-25180000D01*
X670000Y-12420000D02*
X670000Y-25180000D01*
X5870000Y-9820000D02*
X5870000Y-25180000D01*
X670000Y-12420000D02*
X3270000Y-12420000D01*
X3270000Y-12420000D02*
X3270000Y-9820000D01*
X3270000Y-9820000D02*
X5870000Y-9820000D01*
X670000Y-11150000D02*
X670000Y-9820000D01*
X670000Y-9820000D02*
X2000000Y-9820000D01*
X33937258Y-6367500D02*
X33462742Y-6367500D01*
X33937258Y-7412500D02*
X33462742Y-7412500D01*
X33937258Y-4767500D02*
X33462742Y-4767500D01*
X33937258Y-5812500D02*
X33462742Y-5812500D01*
X7762742Y-8212500D02*
X8237258Y-8212500D01*
X7762742Y-7167500D02*
X8237258Y-7167500D01*
X7762742Y-9812500D02*
X8237258Y-9812500D01*
X7762742Y-8767500D02*
X8237258Y-8767500D01*
X33462742Y-4212500D02*
X33937258Y-4212500D01*
X33462742Y-3167500D02*
X33937258Y-3167500D01*
X11240580Y-8740000D02*
X10959420Y-8740000D01*
X11240580Y-9760000D02*
X10959420Y-9760000D01*
X30810000Y-1030000D02*
X30810000Y-3030000D01*
X13590000Y-1030000D02*
X30810000Y-1030000D01*
X30810000Y-12050000D02*
X30810000Y-14530000D01*
X13590000Y-21350000D02*
X13590000Y-23650000D01*
X13590000Y-23650000D02*
X30810000Y-23650000D01*
X30810000Y-21350000D02*
X30810000Y-23650000D01*
X13590000Y-12050000D02*
X13590000Y-14530000D01*
X13590000Y-1030000D02*
X13590000Y-3030000D01*
X12900000Y-3030000D02*
X13590000Y-3030000D01*
X41000000Y-17510000D02*
X44600000Y-17510000D01*
X41000000Y-24870000D02*
X44600000Y-24870000D01*
X46480000Y-19390000D02*
X46480000Y-22990000D01*
X39120000Y-19390000D02*
X39120000Y-22990000D01*
D10*
X10003714Y-5032142D02*
X10003714Y-4132142D01*
X10218000Y-4132142D01*
X10346571Y-4175000D01*
X10432285Y-4260714D01*
X10475142Y-4346428D01*
X10518000Y-4517857D01*
X10518000Y-4646428D01*
X10475142Y-4817857D01*
X10432285Y-4903571D01*
X10346571Y-4989285D01*
X10218000Y-5032142D01*
X10003714Y-5032142D01*
X10818000Y-4132142D02*
X11418000Y-4132142D01*
X11032285Y-5032142D01*
X31944428Y-31746571D02*
X31987285Y-31789428D01*
X32030142Y-31918000D01*
X32030142Y-32003714D01*
X31987285Y-32132285D01*
X31901571Y-32218000D01*
X31815857Y-32260857D01*
X31644428Y-32303714D01*
X31515857Y-32303714D01*
X31344428Y-32260857D01*
X31258714Y-32218000D01*
X31173000Y-32132285D01*
X31130142Y-32003714D01*
X31130142Y-31918000D01*
X31173000Y-31789428D01*
X31215857Y-31746571D01*
X32030142Y-30889428D02*
X32030142Y-31403714D01*
X32030142Y-31146571D02*
X31130142Y-31146571D01*
X31258714Y-31232285D01*
X31344428Y-31318000D01*
X31387285Y-31403714D01*
X31130142Y-30332285D02*
X31130142Y-30246571D01*
X31173000Y-30160857D01*
X31215857Y-30118000D01*
X31301571Y-30075142D01*
X31473000Y-30032285D01*
X31687285Y-30032285D01*
X31858714Y-30075142D01*
X31944428Y-30118000D01*
X31987285Y-30160857D01*
X32030142Y-30246571D01*
X32030142Y-30332285D01*
X31987285Y-30418000D01*
X31944428Y-30460857D01*
X31858714Y-30503714D01*
X31687285Y-30546571D01*
X31473000Y-30546571D01*
X31301571Y-30503714D01*
X31215857Y-30460857D01*
X31173000Y-30418000D01*
X31130142Y-30332285D01*
X39396428Y-32632142D02*
X39096428Y-32203571D01*
X38882142Y-32632142D02*
X38882142Y-31732142D01*
X39225000Y-31732142D01*
X39310714Y-31775000D01*
X39353571Y-31817857D01*
X39396428Y-31903571D01*
X39396428Y-32032142D01*
X39353571Y-32117857D01*
X39310714Y-32160714D01*
X39225000Y-32203571D01*
X38882142Y-32203571D01*
X40253571Y-32632142D02*
X39739285Y-32632142D01*
X39996428Y-32632142D02*
X39996428Y-31732142D01*
X39910714Y-31860714D01*
X39825000Y-31946428D01*
X39739285Y-31989285D01*
X40596428Y-31817857D02*
X40639285Y-31775000D01*
X40725000Y-31732142D01*
X40939285Y-31732142D01*
X41025000Y-31775000D01*
X41067857Y-31817857D01*
X41110714Y-31903571D01*
X41110714Y-31989285D01*
X41067857Y-32117857D01*
X40553571Y-32632142D01*
X41110714Y-32632142D01*
X35078142Y-31451285D02*
X34178142Y-31451285D01*
X34178142Y-31237000D01*
X34221000Y-31108428D01*
X34306714Y-31022714D01*
X34392428Y-30979857D01*
X34563857Y-30937000D01*
X34692428Y-30937000D01*
X34863857Y-30979857D01*
X34949571Y-31022714D01*
X35035285Y-31108428D01*
X35078142Y-31237000D01*
X35078142Y-31451285D01*
X34263857Y-30594142D02*
X34221000Y-30551285D01*
X34178142Y-30465571D01*
X34178142Y-30251285D01*
X34221000Y-30165571D01*
X34263857Y-30122714D01*
X34349571Y-30079857D01*
X34435285Y-30079857D01*
X34563857Y-30122714D01*
X35078142Y-30637000D01*
X35078142Y-30079857D01*
X39371428Y-29657142D02*
X39071428Y-29228571D01*
X38857142Y-29657142D02*
X38857142Y-28757142D01*
X39200000Y-28757142D01*
X39285714Y-28800000D01*
X39328571Y-28842857D01*
X39371428Y-28928571D01*
X39371428Y-29057142D01*
X39328571Y-29142857D01*
X39285714Y-29185714D01*
X39200000Y-29228571D01*
X38857142Y-29228571D01*
X40228571Y-29657142D02*
X39714285Y-29657142D01*
X39971428Y-29657142D02*
X39971428Y-28757142D01*
X39885714Y-28885714D01*
X39800000Y-28971428D01*
X39714285Y-29014285D01*
X40528571Y-28757142D02*
X41085714Y-28757142D01*
X40785714Y-29100000D01*
X40914285Y-29100000D01*
X41000000Y-29142857D01*
X41042857Y-29185714D01*
X41085714Y-29271428D01*
X41085714Y-29485714D01*
X41042857Y-29571428D01*
X41000000Y-29614285D01*
X40914285Y-29657142D01*
X40657142Y-29657142D01*
X40571428Y-29614285D01*
X40528571Y-29571428D01*
X35078142Y-28403285D02*
X34178142Y-28403285D01*
X34178142Y-28189000D01*
X34221000Y-28060428D01*
X34306714Y-27974714D01*
X34392428Y-27931857D01*
X34563857Y-27889000D01*
X34692428Y-27889000D01*
X34863857Y-27931857D01*
X34949571Y-27974714D01*
X35035285Y-28060428D01*
X35078142Y-28189000D01*
X35078142Y-28403285D01*
X34178142Y-27589000D02*
X34178142Y-27031857D01*
X34521000Y-27331857D01*
X34521000Y-27203285D01*
X34563857Y-27117571D01*
X34606714Y-27074714D01*
X34692428Y-27031857D01*
X34906714Y-27031857D01*
X34992428Y-27074714D01*
X35035285Y-27117571D01*
X35078142Y-27203285D01*
X35078142Y-27460428D01*
X35035285Y-27546142D01*
X34992428Y-27589000D01*
X26914285Y-24407142D02*
X26914285Y-25135714D01*
X26957142Y-25221428D01*
X27000000Y-25264285D01*
X27085714Y-25307142D01*
X27257142Y-25307142D01*
X27342857Y-25264285D01*
X27385714Y-25221428D01*
X27428571Y-25135714D01*
X27428571Y-24407142D01*
X28242857Y-24407142D02*
X28071428Y-24407142D01*
X27985714Y-24450000D01*
X27942857Y-24492857D01*
X27857142Y-24621428D01*
X27814285Y-24792857D01*
X27814285Y-25135714D01*
X27857142Y-25221428D01*
X27900000Y-25264285D01*
X27985714Y-25307142D01*
X28157142Y-25307142D01*
X28242857Y-25264285D01*
X28285714Y-25221428D01*
X28328571Y-25135714D01*
X28328571Y-24921428D01*
X28285714Y-24835714D01*
X28242857Y-24792857D01*
X28157142Y-24750000D01*
X27985714Y-24750000D01*
X27900000Y-24792857D01*
X27857142Y-24835714D01*
X27814285Y-24921428D01*
X26914285Y-31357142D02*
X26914285Y-32085714D01*
X26957142Y-32171428D01*
X27000000Y-32214285D01*
X27085714Y-32257142D01*
X27257142Y-32257142D01*
X27342857Y-32214285D01*
X27385714Y-32171428D01*
X27428571Y-32085714D01*
X27428571Y-31357142D01*
X28328571Y-32257142D02*
X27814285Y-32257142D01*
X28071428Y-32257142D02*
X28071428Y-31357142D01*
X27985714Y-31485714D01*
X27900000Y-31571428D01*
X27814285Y-31614285D01*
X30507142Y-31778571D02*
X30078571Y-32078571D01*
X30507142Y-32292857D02*
X29607142Y-32292857D01*
X29607142Y-31950000D01*
X29650000Y-31864285D01*
X29692857Y-31821428D01*
X29778571Y-31778571D01*
X29907142Y-31778571D01*
X29992857Y-31821428D01*
X30035714Y-31864285D01*
X30078571Y-31950000D01*
X30078571Y-32292857D01*
X30507142Y-30921428D02*
X30507142Y-31435714D01*
X30507142Y-31178571D02*
X29607142Y-31178571D01*
X29735714Y-31264285D01*
X29821428Y-31350000D01*
X29864285Y-31435714D01*
X29992857Y-30407142D02*
X29950000Y-30492857D01*
X29907142Y-30535714D01*
X29821428Y-30578571D01*
X29778571Y-30578571D01*
X29692857Y-30535714D01*
X29650000Y-30492857D01*
X29607142Y-30407142D01*
X29607142Y-30235714D01*
X29650000Y-30150000D01*
X29692857Y-30107142D01*
X29778571Y-30064285D01*
X29821428Y-30064285D01*
X29907142Y-30107142D01*
X29950000Y-30150000D01*
X29992857Y-30235714D01*
X29992857Y-30407142D01*
X30035714Y-30492857D01*
X30078571Y-30535714D01*
X30164285Y-30578571D01*
X30335714Y-30578571D01*
X30421428Y-30535714D01*
X30464285Y-30492857D01*
X30507142Y-30407142D01*
X30507142Y-30235714D01*
X30464285Y-30150000D01*
X30421428Y-30107142D01*
X30335714Y-30064285D01*
X30164285Y-30064285D01*
X30078571Y-30107142D01*
X30035714Y-30150000D01*
X29992857Y-30235714D01*
X33527142Y-31723000D02*
X33098571Y-32023000D01*
X33527142Y-32237285D02*
X32627142Y-32237285D01*
X32627142Y-31894428D01*
X32670000Y-31808714D01*
X32712857Y-31765857D01*
X32798571Y-31723000D01*
X32927142Y-31723000D01*
X33012857Y-31765857D01*
X33055714Y-31808714D01*
X33098571Y-31894428D01*
X33098571Y-32237285D01*
X32627142Y-31423000D02*
X32627142Y-30823000D01*
X33527142Y-31208714D01*
X20950000Y-27971428D02*
X20907142Y-28014285D01*
X20778571Y-28057142D01*
X20692857Y-28057142D01*
X20564285Y-28014285D01*
X20478571Y-27928571D01*
X20435714Y-27842857D01*
X20392857Y-27671428D01*
X20392857Y-27542857D01*
X20435714Y-27371428D01*
X20478571Y-27285714D01*
X20564285Y-27200000D01*
X20692857Y-27157142D01*
X20778571Y-27157142D01*
X20907142Y-27200000D01*
X20950000Y-27242857D01*
X21378571Y-28057142D02*
X21550000Y-28057142D01*
X21635714Y-28014285D01*
X21678571Y-27971428D01*
X21764285Y-27842857D01*
X21807142Y-27671428D01*
X21807142Y-27328571D01*
X21764285Y-27242857D01*
X21721428Y-27200000D01*
X21635714Y-27157142D01*
X21464285Y-27157142D01*
X21378571Y-27200000D01*
X21335714Y-27242857D01*
X21292857Y-27328571D01*
X21292857Y-27542857D01*
X21335714Y-27628571D01*
X21378571Y-27671428D01*
X21464285Y-27714285D01*
X21635714Y-27714285D01*
X21721428Y-27671428D01*
X21764285Y-27628571D01*
X21807142Y-27542857D01*
X35757285Y-9212142D02*
X35757285Y-9940714D01*
X35800142Y-10026428D01*
X35843000Y-10069285D01*
X35928714Y-10112142D01*
X36100142Y-10112142D01*
X36185857Y-10069285D01*
X36228714Y-10026428D01*
X36271571Y-9940714D01*
X36271571Y-9212142D01*
X36614428Y-9212142D02*
X37171571Y-9212142D01*
X36871571Y-9555000D01*
X37000142Y-9555000D01*
X37085857Y-9597857D01*
X37128714Y-9640714D01*
X37171571Y-9726428D01*
X37171571Y-9940714D01*
X37128714Y-10026428D01*
X37085857Y-10069285D01*
X37000142Y-10112142D01*
X36743000Y-10112142D01*
X36657285Y-10069285D01*
X36614428Y-10026428D01*
X38107142Y-16985714D02*
X38835714Y-16985714D01*
X38921428Y-16942857D01*
X38964285Y-16900000D01*
X39007142Y-16814285D01*
X39007142Y-16642857D01*
X38964285Y-16557142D01*
X38921428Y-16514285D01*
X38835714Y-16471428D01*
X38107142Y-16471428D01*
X38107142Y-15614285D02*
X38107142Y-16042857D01*
X38535714Y-16085714D01*
X38492857Y-16042857D01*
X38450000Y-15957142D01*
X38450000Y-15742857D01*
X38492857Y-15657142D01*
X38535714Y-15614285D01*
X38621428Y-15571428D01*
X38835714Y-15571428D01*
X38921428Y-15614285D01*
X38964285Y-15657142D01*
X39007142Y-15742857D01*
X39007142Y-15957142D01*
X38964285Y-16042857D01*
X38921428Y-16085714D01*
X36321428Y-14404000D02*
X36364285Y-14446857D01*
X36407142Y-14575428D01*
X36407142Y-14661142D01*
X36364285Y-14789714D01*
X36278571Y-14875428D01*
X36192857Y-14918285D01*
X36021428Y-14961142D01*
X35892857Y-14961142D01*
X35721428Y-14918285D01*
X35635714Y-14875428D01*
X35550000Y-14789714D01*
X35507142Y-14661142D01*
X35507142Y-14575428D01*
X35550000Y-14446857D01*
X35592857Y-14404000D01*
X35507142Y-14104000D02*
X35507142Y-13546857D01*
X35850000Y-13846857D01*
X35850000Y-13718285D01*
X35892857Y-13632571D01*
X35935714Y-13589714D01*
X36021428Y-13546857D01*
X36235714Y-13546857D01*
X36321428Y-13589714D01*
X36364285Y-13632571D01*
X36407142Y-13718285D01*
X36407142Y-13975428D01*
X36364285Y-14061142D01*
X36321428Y-14104000D01*
X11950000Y-2821428D02*
X11907142Y-2864285D01*
X11778571Y-2907142D01*
X11692857Y-2907142D01*
X11564285Y-2864285D01*
X11478571Y-2778571D01*
X11435714Y-2692857D01*
X11392857Y-2521428D01*
X11392857Y-2392857D01*
X11435714Y-2221428D01*
X11478571Y-2135714D01*
X11564285Y-2050000D01*
X11692857Y-2007142D01*
X11778571Y-2007142D01*
X11907142Y-2050000D01*
X11950000Y-2092857D01*
X12292857Y-2092857D02*
X12335714Y-2050000D01*
X12421428Y-2007142D01*
X12635714Y-2007142D01*
X12721428Y-2050000D01*
X12764285Y-2092857D01*
X12807142Y-2178571D01*
X12807142Y-2264285D01*
X12764285Y-2392857D01*
X12250000Y-2907142D01*
X12807142Y-2907142D01*
X10185714Y-23057142D02*
X10185714Y-22157142D01*
X10400000Y-22157142D01*
X10528571Y-22200000D01*
X10614285Y-22285714D01*
X10657142Y-22371428D01*
X10700000Y-22542857D01*
X10700000Y-22671428D01*
X10657142Y-22842857D01*
X10614285Y-22928571D01*
X10528571Y-23014285D01*
X10400000Y-23057142D01*
X10185714Y-23057142D01*
X11514285Y-22157142D02*
X11085714Y-22157142D01*
X11042857Y-22585714D01*
X11085714Y-22542857D01*
X11171428Y-22500000D01*
X11385714Y-22500000D01*
X11471428Y-22542857D01*
X11514285Y-22585714D01*
X11557142Y-22671428D01*
X11557142Y-22885714D01*
X11514285Y-22971428D01*
X11471428Y-23014285D01*
X11385714Y-23057142D01*
X11171428Y-23057142D01*
X11085714Y-23014285D01*
X11042857Y-22971428D01*
X20950000Y-31021428D02*
X20907142Y-31064285D01*
X20778571Y-31107142D01*
X20692857Y-31107142D01*
X20564285Y-31064285D01*
X20478571Y-30978571D01*
X20435714Y-30892857D01*
X20392857Y-30721428D01*
X20392857Y-30592857D01*
X20435714Y-30421428D01*
X20478571Y-30335714D01*
X20564285Y-30250000D01*
X20692857Y-30207142D01*
X20778571Y-30207142D01*
X20907142Y-30250000D01*
X20950000Y-30292857D01*
X21807142Y-31107142D02*
X21292857Y-31107142D01*
X21550000Y-31107142D02*
X21550000Y-30207142D01*
X21464285Y-30335714D01*
X21378571Y-30421428D01*
X21292857Y-30464285D01*
X20971428Y-26557142D02*
X20671428Y-26128571D01*
X20457142Y-26557142D02*
X20457142Y-25657142D01*
X20800000Y-25657142D01*
X20885714Y-25700000D01*
X20928571Y-25742857D01*
X20971428Y-25828571D01*
X20971428Y-25957142D01*
X20928571Y-26042857D01*
X20885714Y-26085714D01*
X20800000Y-26128571D01*
X20457142Y-26128571D01*
X21828571Y-26557142D02*
X21314285Y-26557142D01*
X21571428Y-26557142D02*
X21571428Y-25657142D01*
X21485714Y-25785714D01*
X21400000Y-25871428D01*
X21314285Y-25914285D01*
X22128571Y-25657142D02*
X22728571Y-25657142D01*
X22342857Y-26557142D01*
X20971428Y-29607142D02*
X20671428Y-29178571D01*
X20457142Y-29607142D02*
X20457142Y-28707142D01*
X20800000Y-28707142D01*
X20885714Y-28750000D01*
X20928571Y-28792857D01*
X20971428Y-28878571D01*
X20971428Y-29007142D01*
X20928571Y-29092857D01*
X20885714Y-29135714D01*
X20800000Y-29178571D01*
X20457142Y-29178571D01*
X21828571Y-29607142D02*
X21314285Y-29607142D01*
X21571428Y-29607142D02*
X21571428Y-28707142D01*
X21485714Y-28835714D01*
X21400000Y-28921428D01*
X21314285Y-28964285D01*
X22600000Y-28707142D02*
X22428571Y-28707142D01*
X22342857Y-28750000D01*
X22300000Y-28792857D01*
X22214285Y-28921428D01*
X22171428Y-29092857D01*
X22171428Y-29435714D01*
X22214285Y-29521428D01*
X22257142Y-29564285D01*
X22342857Y-29607142D01*
X22514285Y-29607142D01*
X22600000Y-29564285D01*
X22642857Y-29521428D01*
X22685714Y-29435714D01*
X22685714Y-29221428D01*
X22642857Y-29135714D01*
X22600000Y-29092857D01*
X22514285Y-29050000D01*
X22342857Y-29050000D01*
X22257142Y-29092857D01*
X22214285Y-29135714D01*
X22171428Y-29221428D01*
X10300000Y-30457142D02*
X10300000Y-31100000D01*
X10257142Y-31228571D01*
X10171428Y-31314285D01*
X10042857Y-31357142D01*
X9957142Y-31357142D01*
X10685714Y-30542857D02*
X10728571Y-30500000D01*
X10814285Y-30457142D01*
X11028571Y-30457142D01*
X11114285Y-30500000D01*
X11157142Y-30542857D01*
X11200000Y-30628571D01*
X11200000Y-30714285D01*
X11157142Y-30842857D01*
X10642857Y-31357142D01*
X11200000Y-31357142D01*
X10035714Y-21057142D02*
X10035714Y-20157142D01*
X10250000Y-20157142D01*
X10378571Y-20200000D01*
X10464285Y-20285714D01*
X10507142Y-20371428D01*
X10550000Y-20542857D01*
X10550000Y-20671428D01*
X10507142Y-20842857D01*
X10464285Y-20928571D01*
X10378571Y-21014285D01*
X10250000Y-21057142D01*
X10035714Y-21057142D01*
X11321428Y-20457142D02*
X11321428Y-21057142D01*
X11107142Y-20114285D02*
X10892857Y-20757142D01*
X11450000Y-20757142D01*
X35950000Y-12507142D02*
X35650000Y-12078571D01*
X35435714Y-12507142D02*
X35435714Y-11607142D01*
X35778571Y-11607142D01*
X35864285Y-11650000D01*
X35907142Y-11692857D01*
X35950000Y-11778571D01*
X35950000Y-11907142D01*
X35907142Y-11992857D01*
X35864285Y-12035714D01*
X35778571Y-12078571D01*
X35435714Y-12078571D01*
X36378571Y-12507142D02*
X36550000Y-12507142D01*
X36635714Y-12464285D01*
X36678571Y-12421428D01*
X36764285Y-12292857D01*
X36807142Y-12121428D01*
X36807142Y-11778571D01*
X36764285Y-11692857D01*
X36721428Y-11650000D01*
X36635714Y-11607142D01*
X36464285Y-11607142D01*
X36378571Y-11650000D01*
X36335714Y-11692857D01*
X36292857Y-11778571D01*
X36292857Y-11992857D01*
X36335714Y-12078571D01*
X36378571Y-12121428D01*
X36464285Y-12164285D01*
X36635714Y-12164285D01*
X36721428Y-12121428D01*
X36764285Y-12078571D01*
X36807142Y-11992857D01*
X33550000Y-14307142D02*
X33250000Y-13878571D01*
X33035714Y-14307142D02*
X33035714Y-13407142D01*
X33378571Y-13407142D01*
X33464285Y-13450000D01*
X33507142Y-13492857D01*
X33550000Y-13578571D01*
X33550000Y-13707142D01*
X33507142Y-13792857D01*
X33464285Y-13835714D01*
X33378571Y-13878571D01*
X33035714Y-13878571D01*
X34321428Y-13707142D02*
X34321428Y-14307142D01*
X34107142Y-13364285D02*
X33892857Y-14007142D01*
X34450000Y-14007142D01*
X36450000Y-17121428D02*
X36407142Y-17164285D01*
X36278571Y-17207142D01*
X36192857Y-17207142D01*
X36064285Y-17164285D01*
X35978571Y-17078571D01*
X35935714Y-16992857D01*
X35892857Y-16821428D01*
X35892857Y-16692857D01*
X35935714Y-16521428D01*
X35978571Y-16435714D01*
X36064285Y-16350000D01*
X36192857Y-16307142D01*
X36278571Y-16307142D01*
X36407142Y-16350000D01*
X36450000Y-16392857D01*
X37264285Y-16307142D02*
X36835714Y-16307142D01*
X36792857Y-16735714D01*
X36835714Y-16692857D01*
X36921428Y-16650000D01*
X37135714Y-16650000D01*
X37221428Y-16692857D01*
X37264285Y-16735714D01*
X37307142Y-16821428D01*
X37307142Y-17035714D01*
X37264285Y-17121428D01*
X37221428Y-17164285D01*
X37135714Y-17207142D01*
X36921428Y-17207142D01*
X36835714Y-17164285D01*
X36792857Y-17121428D01*
X7414285Y-10257142D02*
X7414285Y-10985714D01*
X7457142Y-11071428D01*
X7500000Y-11114285D01*
X7585714Y-11157142D01*
X7757142Y-11157142D01*
X7842857Y-11114285D01*
X7885714Y-11071428D01*
X7928571Y-10985714D01*
X7928571Y-10257142D01*
X8742857Y-10557142D02*
X8742857Y-11157142D01*
X8528571Y-10214285D02*
X8314285Y-10857142D01*
X8871428Y-10857142D01*
X12321428Y-13000000D02*
X12364285Y-13042857D01*
X12407142Y-13171428D01*
X12407142Y-13257142D01*
X12364285Y-13385714D01*
X12278571Y-13471428D01*
X12192857Y-13514285D01*
X12021428Y-13557142D01*
X11892857Y-13557142D01*
X11721428Y-13514285D01*
X11635714Y-13471428D01*
X11550000Y-13385714D01*
X11507142Y-13257142D01*
X11507142Y-13171428D01*
X11550000Y-13042857D01*
X11592857Y-13000000D01*
X11892857Y-12485714D02*
X11850000Y-12571428D01*
X11807142Y-12614285D01*
X11721428Y-12657142D01*
X11678571Y-12657142D01*
X11592857Y-12614285D01*
X11550000Y-12571428D01*
X11507142Y-12485714D01*
X11507142Y-12314285D01*
X11550000Y-12228571D01*
X11592857Y-12185714D01*
X11678571Y-12142857D01*
X11721428Y-12142857D01*
X11807142Y-12185714D01*
X11850000Y-12228571D01*
X11892857Y-12314285D01*
X11892857Y-12485714D01*
X11935714Y-12571428D01*
X11978571Y-12614285D01*
X12064285Y-12657142D01*
X12235714Y-12657142D01*
X12321428Y-12614285D01*
X12364285Y-12571428D01*
X12407142Y-12485714D01*
X12407142Y-12314285D01*
X12364285Y-12228571D01*
X12321428Y-12185714D01*
X12235714Y-12142857D01*
X12064285Y-12142857D01*
X11978571Y-12185714D01*
X11935714Y-12228571D01*
X11892857Y-12314285D01*
X10850000Y-16271428D02*
X10807142Y-16314285D01*
X10678571Y-16357142D01*
X10592857Y-16357142D01*
X10464285Y-16314285D01*
X10378571Y-16228571D01*
X10335714Y-16142857D01*
X10292857Y-15971428D01*
X10292857Y-15842857D01*
X10335714Y-15671428D01*
X10378571Y-15585714D01*
X10464285Y-15500000D01*
X10592857Y-15457142D01*
X10678571Y-15457142D01*
X10807142Y-15500000D01*
X10850000Y-15542857D01*
X11150000Y-15457142D02*
X11750000Y-15457142D01*
X11364285Y-16357142D01*
X38435714Y-1407142D02*
X38435714Y-507142D01*
X38650000Y-507142D01*
X38778571Y-550000D01*
X38864285Y-635714D01*
X38907142Y-721428D01*
X38950000Y-892857D01*
X38950000Y-1021428D01*
X38907142Y-1192857D01*
X38864285Y-1278571D01*
X38778571Y-1364285D01*
X38650000Y-1407142D01*
X38435714Y-1407142D01*
X39807142Y-1407142D02*
X39292857Y-1407142D01*
X39550000Y-1407142D02*
X39550000Y-507142D01*
X39464285Y-635714D01*
X39378571Y-721428D01*
X39292857Y-764285D01*
X40750000Y-17021428D02*
X40707142Y-17064285D01*
X40578571Y-17107142D01*
X40492857Y-17107142D01*
X40364285Y-17064285D01*
X40278571Y-16978571D01*
X40235714Y-16892857D01*
X40192857Y-16721428D01*
X40192857Y-16592857D01*
X40235714Y-16421428D01*
X40278571Y-16335714D01*
X40364285Y-16250000D01*
X40492857Y-16207142D01*
X40578571Y-16207142D01*
X40707142Y-16250000D01*
X40750000Y-16292857D01*
X41521428Y-16207142D02*
X41350000Y-16207142D01*
X41264285Y-16250000D01*
X41221428Y-16292857D01*
X41135714Y-16421428D01*
X41092857Y-16592857D01*
X41092857Y-16935714D01*
X41135714Y-17021428D01*
X41178571Y-17064285D01*
X41264285Y-17107142D01*
X41435714Y-17107142D01*
X41521428Y-17064285D01*
X41564285Y-17021428D01*
X41607142Y-16935714D01*
X41607142Y-16721428D01*
X41564285Y-16635714D01*
X41521428Y-16592857D01*
X41435714Y-16550000D01*
X41264285Y-16550000D01*
X41178571Y-16592857D01*
X41135714Y-16635714D01*
X41092857Y-16721428D01*
X45700000Y-15207142D02*
X45700000Y-15850000D01*
X45657142Y-15978571D01*
X45571428Y-16064285D01*
X45442857Y-16107142D01*
X45357142Y-16107142D01*
X46514285Y-15507142D02*
X46514285Y-16107142D01*
X46300000Y-15164285D02*
X46085714Y-15807142D01*
X46642857Y-15807142D01*
X7422428Y-26241142D02*
X7122428Y-25812571D01*
X6908142Y-26241142D02*
X6908142Y-25341142D01*
X7251000Y-25341142D01*
X7336714Y-25384000D01*
X7379571Y-25426857D01*
X7422428Y-25512571D01*
X7422428Y-25641142D01*
X7379571Y-25726857D01*
X7336714Y-25769714D01*
X7251000Y-25812571D01*
X6908142Y-25812571D01*
X8279571Y-26241142D02*
X7765285Y-26241142D01*
X8022428Y-26241142D02*
X8022428Y-25341142D01*
X7936714Y-25469714D01*
X7851000Y-25555428D01*
X7765285Y-25598285D01*
X9136714Y-26241142D02*
X8622428Y-26241142D01*
X8879571Y-26241142D02*
X8879571Y-25341142D01*
X8793857Y-25469714D01*
X8708142Y-25555428D01*
X8622428Y-25598285D01*
X10469428Y-19297142D02*
X10169428Y-18868571D01*
X9955142Y-19297142D02*
X9955142Y-18397142D01*
X10298000Y-18397142D01*
X10383714Y-18440000D01*
X10426571Y-18482857D01*
X10469428Y-18568571D01*
X10469428Y-18697142D01*
X10426571Y-18782857D01*
X10383714Y-18825714D01*
X10298000Y-18868571D01*
X9955142Y-18868571D01*
X11326571Y-19297142D02*
X10812285Y-19297142D01*
X11069428Y-19297142D02*
X11069428Y-18397142D01*
X10983714Y-18525714D01*
X10898000Y-18611428D01*
X10812285Y-18654285D01*
X11883714Y-18397142D02*
X11969428Y-18397142D01*
X12055142Y-18440000D01*
X12098000Y-18482857D01*
X12140857Y-18568571D01*
X12183714Y-18740000D01*
X12183714Y-18954285D01*
X12140857Y-19125714D01*
X12098000Y-19211428D01*
X12055142Y-19254285D01*
X11969428Y-19297142D01*
X11883714Y-19297142D01*
X11798000Y-19254285D01*
X11755142Y-19211428D01*
X11712285Y-19125714D01*
X11669428Y-18954285D01*
X11669428Y-18740000D01*
X11712285Y-18568571D01*
X11755142Y-18482857D01*
X11798000Y-18440000D01*
X11883714Y-18397142D01*
X10390000Y-17757142D02*
X10090000Y-17328571D01*
X9875714Y-17757142D02*
X9875714Y-16857142D01*
X10218571Y-16857142D01*
X10304285Y-16900000D01*
X10347142Y-16942857D01*
X10390000Y-17028571D01*
X10390000Y-17157142D01*
X10347142Y-17242857D01*
X10304285Y-17285714D01*
X10218571Y-17328571D01*
X9875714Y-17328571D01*
X10904285Y-17242857D02*
X10818571Y-17200000D01*
X10775714Y-17157142D01*
X10732857Y-17071428D01*
X10732857Y-17028571D01*
X10775714Y-16942857D01*
X10818571Y-16900000D01*
X10904285Y-16857142D01*
X11075714Y-16857142D01*
X11161428Y-16900000D01*
X11204285Y-16942857D01*
X11247142Y-17028571D01*
X11247142Y-17071428D01*
X11204285Y-17157142D01*
X11161428Y-17200000D01*
X11075714Y-17242857D01*
X10904285Y-17242857D01*
X10818571Y-17285714D01*
X10775714Y-17328571D01*
X10732857Y-17414285D01*
X10732857Y-17585714D01*
X10775714Y-17671428D01*
X10818571Y-17714285D01*
X10904285Y-17757142D01*
X11075714Y-17757142D01*
X11161428Y-17714285D01*
X11204285Y-17671428D01*
X11247142Y-17585714D01*
X11247142Y-17414285D01*
X11204285Y-17328571D01*
X11161428Y-17285714D01*
X11075714Y-17242857D01*
X1700000Y-8257142D02*
X1700000Y-8900000D01*
X1657142Y-9028571D01*
X1571428Y-9114285D01*
X1442857Y-9157142D01*
X1357142Y-9157142D01*
X2600000Y-9157142D02*
X2085714Y-9157142D01*
X2342857Y-9157142D02*
X2342857Y-8257142D01*
X2257142Y-8385714D01*
X2171428Y-8471428D01*
X2085714Y-8514285D01*
X36150000Y-7297142D02*
X35850000Y-6868571D01*
X35635714Y-7297142D02*
X35635714Y-6397142D01*
X35978571Y-6397142D01*
X36064285Y-6440000D01*
X36107142Y-6482857D01*
X36150000Y-6568571D01*
X36150000Y-6697142D01*
X36107142Y-6782857D01*
X36064285Y-6825714D01*
X35978571Y-6868571D01*
X35635714Y-6868571D01*
X36921428Y-6397142D02*
X36750000Y-6397142D01*
X36664285Y-6440000D01*
X36621428Y-6482857D01*
X36535714Y-6611428D01*
X36492857Y-6782857D01*
X36492857Y-7125714D01*
X36535714Y-7211428D01*
X36578571Y-7254285D01*
X36664285Y-7297142D01*
X36835714Y-7297142D01*
X36921428Y-7254285D01*
X36964285Y-7211428D01*
X37007142Y-7125714D01*
X37007142Y-6911428D01*
X36964285Y-6825714D01*
X36921428Y-6782857D01*
X36835714Y-6740000D01*
X36664285Y-6740000D01*
X36578571Y-6782857D01*
X36535714Y-6825714D01*
X36492857Y-6911428D01*
X36150000Y-5697142D02*
X35850000Y-5268571D01*
X35635714Y-5697142D02*
X35635714Y-4797142D01*
X35978571Y-4797142D01*
X36064285Y-4840000D01*
X36107142Y-4882857D01*
X36150000Y-4968571D01*
X36150000Y-5097142D01*
X36107142Y-5182857D01*
X36064285Y-5225714D01*
X35978571Y-5268571D01*
X35635714Y-5268571D01*
X36964285Y-4797142D02*
X36535714Y-4797142D01*
X36492857Y-5225714D01*
X36535714Y-5182857D01*
X36621428Y-5140000D01*
X36835714Y-5140000D01*
X36921428Y-5182857D01*
X36964285Y-5225714D01*
X37007142Y-5311428D01*
X37007142Y-5525714D01*
X36964285Y-5611428D01*
X36921428Y-5654285D01*
X36835714Y-5697142D01*
X36621428Y-5697142D01*
X36535714Y-5654285D01*
X36492857Y-5611428D01*
X5311000Y-8080142D02*
X5011000Y-7651571D01*
X4796714Y-8080142D02*
X4796714Y-7180142D01*
X5139571Y-7180142D01*
X5225285Y-7223000D01*
X5268142Y-7265857D01*
X5311000Y-7351571D01*
X5311000Y-7480142D01*
X5268142Y-7565857D01*
X5225285Y-7608714D01*
X5139571Y-7651571D01*
X4796714Y-7651571D01*
X5611000Y-7180142D02*
X6168142Y-7180142D01*
X5868142Y-7523000D01*
X5996714Y-7523000D01*
X6082428Y-7565857D01*
X6125285Y-7608714D01*
X6168142Y-7694428D01*
X6168142Y-7908714D01*
X6125285Y-7994428D01*
X6082428Y-8037285D01*
X5996714Y-8080142D01*
X5739571Y-8080142D01*
X5653857Y-8037285D01*
X5611000Y-7994428D01*
X5350000Y-9457142D02*
X5050000Y-9028571D01*
X4835714Y-9457142D02*
X4835714Y-8557142D01*
X5178571Y-8557142D01*
X5264285Y-8600000D01*
X5307142Y-8642857D01*
X5350000Y-8728571D01*
X5350000Y-8857142D01*
X5307142Y-8942857D01*
X5264285Y-8985714D01*
X5178571Y-9028571D01*
X4835714Y-9028571D01*
X5692857Y-8642857D02*
X5735714Y-8600000D01*
X5821428Y-8557142D01*
X6035714Y-8557142D01*
X6121428Y-8600000D01*
X6164285Y-8642857D01*
X6207142Y-8728571D01*
X6207142Y-8814285D01*
X6164285Y-8942857D01*
X5650000Y-9457142D01*
X6207142Y-9457142D01*
X36150000Y-4097142D02*
X35850000Y-3668571D01*
X35635714Y-4097142D02*
X35635714Y-3197142D01*
X35978571Y-3197142D01*
X36064285Y-3240000D01*
X36107142Y-3282857D01*
X36150000Y-3368571D01*
X36150000Y-3497142D01*
X36107142Y-3582857D01*
X36064285Y-3625714D01*
X35978571Y-3668571D01*
X35635714Y-3668571D01*
X37007142Y-4097142D02*
X36492857Y-4097142D01*
X36750000Y-4097142D02*
X36750000Y-3197142D01*
X36664285Y-3325714D01*
X36578571Y-3411428D01*
X36492857Y-3454285D01*
X11450000Y-10971428D02*
X11407142Y-11014285D01*
X11278571Y-11057142D01*
X11192857Y-11057142D01*
X11064285Y-11014285D01*
X10978571Y-10928571D01*
X10935714Y-10842857D01*
X10892857Y-10671428D01*
X10892857Y-10542857D01*
X10935714Y-10371428D01*
X10978571Y-10285714D01*
X11064285Y-10200000D01*
X11192857Y-10157142D01*
X11278571Y-10157142D01*
X11407142Y-10200000D01*
X11450000Y-10242857D01*
X12221428Y-10457142D02*
X12221428Y-11057142D01*
X12007142Y-10114285D02*
X11792857Y-10757142D01*
X12350000Y-10757142D01*
X31514285Y-1397142D02*
X31514285Y-2125714D01*
X31557142Y-2211428D01*
X31600000Y-2254285D01*
X31685714Y-2297142D01*
X31857142Y-2297142D01*
X31942857Y-2254285D01*
X31985714Y-2211428D01*
X32028571Y-2125714D01*
X32028571Y-1397142D01*
X32414285Y-1482857D02*
X32457142Y-1440000D01*
X32542857Y-1397142D01*
X32757142Y-1397142D01*
X32842857Y-1440000D01*
X32885714Y-1482857D01*
X32928571Y-1568571D01*
X32928571Y-1654285D01*
X32885714Y-1782857D01*
X32371428Y-2297142D01*
X32928571Y-2297142D01*
X37500000Y-23207142D02*
X37500000Y-23850000D01*
X37457142Y-23978571D01*
X37371428Y-24064285D01*
X37242857Y-24107142D01*
X37157142Y-24107142D01*
X37842857Y-23207142D02*
X38400000Y-23207142D01*
X38100000Y-23550000D01*
X38228571Y-23550000D01*
X38314285Y-23592857D01*
X38357142Y-23635714D01*
X38400000Y-23721428D01*
X38400000Y-23935714D01*
X38357142Y-24021428D01*
X38314285Y-24064285D01*
X38228571Y-24107142D01*
X37971428Y-24107142D01*
X37885714Y-24064285D01*
X37842857Y-24021428D01*
%LPC*%
D14*
X7078000Y-4625000D03*
X9178000Y-4625000D03*
G36*
G01*
X31873000Y-28049000D02*
X31373000Y-28049000D01*
G75*
G02*
X31148000Y-27824000I0J225000D01*
G01*
X31148000Y-27374000D01*
G75*
G02*
X31373000Y-27149000I225000J0D01*
G01*
X31873000Y-27149000D01*
G75*
G02*
X32098000Y-27374000I0J-225000D01*
G01*
X32098000Y-27824000D01*
G75*
G02*
X31873000Y-28049000I-225000J0D01*
G01*
G37*
G36*
G01*
X31873000Y-29599000D02*
X31373000Y-29599000D01*
G75*
G02*
X31148000Y-29374000I0J225000D01*
G01*
X31148000Y-28924000D01*
G75*
G02*
X31373000Y-28699000I225000J0D01*
G01*
X31873000Y-28699000D01*
G75*
G02*
X32098000Y-28924000I0J-225000D01*
G01*
X32098000Y-29374000D01*
G75*
G02*
X31873000Y-29599000I-225000J0D01*
G01*
G37*
G36*
G01*
X39525000Y-30525000D02*
X39525000Y-31075000D01*
G75*
G02*
X39325000Y-31275000I-200000J0D01*
G01*
X38925000Y-31275000D01*
G75*
G02*
X38725000Y-31075000I0J200000D01*
G01*
X38725000Y-30525000D01*
G75*
G02*
X38925000Y-30325000I200000J0D01*
G01*
X39325000Y-30325000D01*
G75*
G02*
X39525000Y-30525000I0J-200000D01*
G01*
G37*
G36*
G01*
X41175000Y-30525000D02*
X41175000Y-31075000D01*
G75*
G02*
X40975000Y-31275000I-200000J0D01*
G01*
X40575000Y-31275000D01*
G75*
G02*
X40375000Y-31075000I0J200000D01*
G01*
X40375000Y-30525000D01*
G75*
G02*
X40575000Y-30325000I200000J0D01*
G01*
X40975000Y-30325000D01*
G75*
G02*
X41175000Y-30525000I0J-200000D01*
G01*
G37*
G36*
G01*
X36425000Y-30543750D02*
X36425000Y-31056250D01*
G75*
G02*
X36206250Y-31275000I-218750J0D01*
G01*
X35768750Y-31275000D01*
G75*
G02*
X35550000Y-31056250I0J218750D01*
G01*
X35550000Y-30543750D01*
G75*
G02*
X35768750Y-30325000I218750J0D01*
G01*
X36206250Y-30325000D01*
G75*
G02*
X36425000Y-30543750I0J-218750D01*
G01*
G37*
G36*
G01*
X38000000Y-30543750D02*
X38000000Y-31056250D01*
G75*
G02*
X37781250Y-31275000I-218750J0D01*
G01*
X37343750Y-31275000D01*
G75*
G02*
X37125000Y-31056250I0J218750D01*
G01*
X37125000Y-30543750D01*
G75*
G02*
X37343750Y-30325000I218750J0D01*
G01*
X37781250Y-30325000D01*
G75*
G02*
X38000000Y-30543750I0J-218750D01*
G01*
G37*
G36*
G01*
X39525000Y-27500000D02*
X39525000Y-28050000D01*
G75*
G02*
X39325000Y-28250000I-200000J0D01*
G01*
X38925000Y-28250000D01*
G75*
G02*
X38725000Y-28050000I0J200000D01*
G01*
X38725000Y-27500000D01*
G75*
G02*
X38925000Y-27300000I200000J0D01*
G01*
X39325000Y-27300000D01*
G75*
G02*
X39525000Y-27500000I0J-200000D01*
G01*
G37*
G36*
G01*
X41175000Y-27500000D02*
X41175000Y-28050000D01*
G75*
G02*
X40975000Y-28250000I-200000J0D01*
G01*
X40575000Y-28250000D01*
G75*
G02*
X40375000Y-28050000I0J200000D01*
G01*
X40375000Y-27500000D01*
G75*
G02*
X40575000Y-27300000I200000J0D01*
G01*
X40975000Y-27300000D01*
G75*
G02*
X41175000Y-27500000I0J-200000D01*
G01*
G37*
G36*
G01*
X36425000Y-27518750D02*
X36425000Y-28031250D01*
G75*
G02*
X36206250Y-28250000I-218750J0D01*
G01*
X35768750Y-28250000D01*
G75*
G02*
X35550000Y-28031250I0J218750D01*
G01*
X35550000Y-27518750D01*
G75*
G02*
X35768750Y-27300000I218750J0D01*
G01*
X36206250Y-27300000D01*
G75*
G02*
X36425000Y-27518750I0J-218750D01*
G01*
G37*
G36*
G01*
X38000000Y-27518750D02*
X38000000Y-28031250D01*
G75*
G02*
X37781250Y-28250000I-218750J0D01*
G01*
X37343750Y-28250000D01*
G75*
G02*
X37125000Y-28031250I0J218750D01*
G01*
X37125000Y-27518750D01*
G75*
G02*
X37343750Y-27300000I218750J0D01*
G01*
X37781250Y-27300000D01*
G75*
G02*
X38000000Y-27518750I0J-218750D01*
G01*
G37*
D15*
X26650000Y-27450000D03*
X26650000Y-26150000D03*
X28550000Y-26800000D03*
X28550000Y-26150000D03*
X28550000Y-27450000D03*
X26650000Y-30500000D03*
X26650000Y-29200000D03*
X28550000Y-29850000D03*
X28550000Y-29200000D03*
X28550000Y-30500000D03*
G36*
G01*
X30375000Y-27925000D02*
X29825000Y-27925000D01*
G75*
G02*
X29625000Y-27725000I0J200000D01*
G01*
X29625000Y-27325000D01*
G75*
G02*
X29825000Y-27125000I200000J0D01*
G01*
X30375000Y-27125000D01*
G75*
G02*
X30575000Y-27325000I0J-200000D01*
G01*
X30575000Y-27725000D01*
G75*
G02*
X30375000Y-27925000I-200000J0D01*
G01*
G37*
G36*
G01*
X30375000Y-29575000D02*
X29825000Y-29575000D01*
G75*
G02*
X29625000Y-29375000I0J200000D01*
G01*
X29625000Y-28975000D01*
G75*
G02*
X29825000Y-28775000I200000J0D01*
G01*
X30375000Y-28775000D01*
G75*
G02*
X30575000Y-28975000I0J-200000D01*
G01*
X30575000Y-29375000D01*
G75*
G02*
X30375000Y-29575000I-200000J0D01*
G01*
G37*
G36*
G01*
X32872000Y-28799000D02*
X33422000Y-28799000D01*
G75*
G02*
X33622000Y-28999000I0J-200000D01*
G01*
X33622000Y-29399000D01*
G75*
G02*
X33422000Y-29599000I-200000J0D01*
G01*
X32872000Y-29599000D01*
G75*
G02*
X32672000Y-29399000I0J200000D01*
G01*
X32672000Y-28999000D01*
G75*
G02*
X32872000Y-28799000I200000J0D01*
G01*
G37*
G36*
G01*
X32872000Y-27149000D02*
X33422000Y-27149000D01*
G75*
G02*
X33622000Y-27349000I0J-200000D01*
G01*
X33622000Y-27749000D01*
G75*
G02*
X33422000Y-27949000I-200000J0D01*
G01*
X32872000Y-27949000D01*
G75*
G02*
X32672000Y-27749000I0J200000D01*
G01*
X32672000Y-27349000D01*
G75*
G02*
X32872000Y-27149000I200000J0D01*
G01*
G37*
G36*
G01*
X24075000Y-27400000D02*
X24075000Y-27900000D01*
G75*
G02*
X23850000Y-28125000I-225000J0D01*
G01*
X23400000Y-28125000D01*
G75*
G02*
X23175000Y-27900000I0J225000D01*
G01*
X23175000Y-27400000D01*
G75*
G02*
X23400000Y-27175000I225000J0D01*
G01*
X23850000Y-27175000D01*
G75*
G02*
X24075000Y-27400000I0J-225000D01*
G01*
G37*
G36*
G01*
X25625000Y-27400000D02*
X25625000Y-27900000D01*
G75*
G02*
X25400000Y-28125000I-225000J0D01*
G01*
X24950000Y-28125000D01*
G75*
G02*
X24725000Y-27900000I0J225000D01*
G01*
X24725000Y-27400000D01*
G75*
G02*
X24950000Y-27175000I225000J0D01*
G01*
X25400000Y-27175000D01*
G75*
G02*
X25625000Y-27400000I0J-225000D01*
G01*
G37*
D16*
X40193000Y-9600000D03*
X39243000Y-9600000D03*
X38293000Y-9600000D03*
X38293000Y-11800000D03*
X40193000Y-11800000D03*
X39243000Y-11800000D03*
D17*
X39900000Y-15400000D03*
X38950000Y-13400000D03*
X40850000Y-13400000D03*
G36*
G01*
X37050000Y-14579000D02*
X37550000Y-14579000D01*
G75*
G02*
X37775000Y-14804000I0J-225000D01*
G01*
X37775000Y-15254000D01*
G75*
G02*
X37550000Y-15479000I-225000J0D01*
G01*
X37050000Y-15479000D01*
G75*
G02*
X36825000Y-15254000I0J225000D01*
G01*
X36825000Y-14804000D01*
G75*
G02*
X37050000Y-14579000I225000J0D01*
G01*
G37*
G36*
G01*
X37050000Y-13029000D02*
X37550000Y-13029000D01*
G75*
G02*
X37775000Y-13254000I0J-225000D01*
G01*
X37775000Y-13704000D01*
G75*
G02*
X37550000Y-13929000I-225000J0D01*
G01*
X37050000Y-13929000D01*
G75*
G02*
X36825000Y-13704000I0J225000D01*
G01*
X36825000Y-13254000D01*
G75*
G02*
X37050000Y-13029000I225000J0D01*
G01*
G37*
G36*
G01*
X8150000Y-2074999D02*
X8150000Y-2925001D01*
G75*
G02*
X7900001Y-3175000I-249999J0D01*
G01*
X6999999Y-3175000D01*
G75*
G02*
X6750000Y-2925001I0J249999D01*
G01*
X6750000Y-2074999D01*
G75*
G02*
X6999999Y-1825000I249999J0D01*
G01*
X7900001Y-1825000D01*
G75*
G02*
X8150000Y-2074999I0J-249999D01*
G01*
G37*
G36*
G01*
X10850000Y-2074999D02*
X10850000Y-2925001D01*
G75*
G02*
X10600001Y-3175000I-249999J0D01*
G01*
X9699999Y-3175000D01*
G75*
G02*
X9450000Y-2925001I0J249999D01*
G01*
X9450000Y-2074999D01*
G75*
G02*
X9699999Y-1825000I249999J0D01*
G01*
X10600001Y-1825000D01*
G75*
G02*
X10850000Y-2074999I0J-249999D01*
G01*
G37*
D14*
X9050000Y-22650000D03*
X6950000Y-22650000D03*
D18*
X34100000Y-18730000D03*
X34100000Y-19570000D03*
G36*
G01*
X24075000Y-30450000D02*
X24075000Y-30950000D01*
G75*
G02*
X23850000Y-31175000I-225000J0D01*
G01*
X23400000Y-31175000D01*
G75*
G02*
X23175000Y-30950000I0J225000D01*
G01*
X23175000Y-30450000D01*
G75*
G02*
X23400000Y-30225000I225000J0D01*
G01*
X23850000Y-30225000D01*
G75*
G02*
X24075000Y-30450000I0J-225000D01*
G01*
G37*
G36*
G01*
X25625000Y-30450000D02*
X25625000Y-30950000D01*
G75*
G02*
X25400000Y-31175000I-225000J0D01*
G01*
X24950000Y-31175000D01*
G75*
G02*
X24725000Y-30950000I0J225000D01*
G01*
X24725000Y-30450000D01*
G75*
G02*
X24950000Y-30225000I225000J0D01*
G01*
X25400000Y-30225000D01*
G75*
G02*
X25625000Y-30450000I0J-225000D01*
G01*
G37*
G36*
G01*
X24825000Y-26425000D02*
X24825000Y-25875000D01*
G75*
G02*
X25025000Y-25675000I200000J0D01*
G01*
X25425000Y-25675000D01*
G75*
G02*
X25625000Y-25875000I0J-200000D01*
G01*
X25625000Y-26425000D01*
G75*
G02*
X25425000Y-26625000I-200000J0D01*
G01*
X25025000Y-26625000D01*
G75*
G02*
X24825000Y-26425000I0J200000D01*
G01*
G37*
G36*
G01*
X23175000Y-26425000D02*
X23175000Y-25875000D01*
G75*
G02*
X23375000Y-25675000I200000J0D01*
G01*
X23775000Y-25675000D01*
G75*
G02*
X23975000Y-25875000I0J-200000D01*
G01*
X23975000Y-26425000D01*
G75*
G02*
X23775000Y-26625000I-200000J0D01*
G01*
X23375000Y-26625000D01*
G75*
G02*
X23175000Y-26425000I0J200000D01*
G01*
G37*
G36*
G01*
X24825000Y-29475000D02*
X24825000Y-28925000D01*
G75*
G02*
X25025000Y-28725000I200000J0D01*
G01*
X25425000Y-28725000D01*
G75*
G02*
X25625000Y-28925000I0J-200000D01*
G01*
X25625000Y-29475000D01*
G75*
G02*
X25425000Y-29675000I-200000J0D01*
G01*
X25025000Y-29675000D01*
G75*
G02*
X24825000Y-29475000I0J200000D01*
G01*
G37*
G36*
G01*
X23175000Y-29475000D02*
X23175000Y-28925000D01*
G75*
G02*
X23375000Y-28725000I200000J0D01*
G01*
X23775000Y-28725000D01*
G75*
G02*
X23975000Y-28925000I0J-200000D01*
G01*
X23975000Y-29475000D01*
G75*
G02*
X23775000Y-29675000I-200000J0D01*
G01*
X23375000Y-29675000D01*
G75*
G02*
X23175000Y-29475000I0J200000D01*
G01*
G37*
D19*
X18340000Y-25810000D03*
X18340000Y-30890000D03*
X13260000Y-30890000D03*
X13260000Y-25810000D03*
D20*
X15800000Y-28350000D03*
D14*
X6950000Y-20650000D03*
X9050000Y-20650000D03*
G36*
G01*
X33275000Y-11825000D02*
X33275000Y-12375000D01*
G75*
G02*
X33075000Y-12575000I-200000J0D01*
G01*
X32675000Y-12575000D01*
G75*
G02*
X32475000Y-12375000I0J200000D01*
G01*
X32475000Y-11825000D01*
G75*
G02*
X32675000Y-11625000I200000J0D01*
G01*
X33075000Y-11625000D01*
G75*
G02*
X33275000Y-11825000I0J-200000D01*
G01*
G37*
G36*
G01*
X34925000Y-11825000D02*
X34925000Y-12375000D01*
G75*
G02*
X34725000Y-12575000I-200000J0D01*
G01*
X34325000Y-12575000D01*
G75*
G02*
X34125000Y-12375000I0J200000D01*
G01*
X34125000Y-11825000D01*
G75*
G02*
X34325000Y-11625000I200000J0D01*
G01*
X34725000Y-11625000D01*
G75*
G02*
X34925000Y-11825000I0J-200000D01*
G01*
G37*
G36*
G01*
X34125000Y-15465000D02*
X34125000Y-14915000D01*
G75*
G02*
X34325000Y-14715000I200000J0D01*
G01*
X34725000Y-14715000D01*
G75*
G02*
X34925000Y-14915000I0J-200000D01*
G01*
X34925000Y-15465000D01*
G75*
G02*
X34725000Y-15665000I-200000J0D01*
G01*
X34325000Y-15665000D01*
G75*
G02*
X34125000Y-15465000I0J200000D01*
G01*
G37*
G36*
G01*
X32475000Y-15465000D02*
X32475000Y-14915000D01*
G75*
G02*
X32675000Y-14715000I200000J0D01*
G01*
X33075000Y-14715000D01*
G75*
G02*
X33275000Y-14915000I0J-200000D01*
G01*
X33275000Y-15465000D01*
G75*
G02*
X33075000Y-15665000I-200000J0D01*
G01*
X32675000Y-15665000D01*
G75*
G02*
X32475000Y-15465000I0J200000D01*
G01*
G37*
G36*
G01*
X34025000Y-17040000D02*
X34025000Y-16540000D01*
G75*
G02*
X34250000Y-16315000I225000J0D01*
G01*
X34700000Y-16315000D01*
G75*
G02*
X34925000Y-16540000I0J-225000D01*
G01*
X34925000Y-17040000D01*
G75*
G02*
X34700000Y-17265000I-225000J0D01*
G01*
X34250000Y-17265000D01*
G75*
G02*
X34025000Y-17040000I0J225000D01*
G01*
G37*
G36*
G01*
X32475000Y-17040000D02*
X32475000Y-16540000D01*
G75*
G02*
X32700000Y-16315000I225000J0D01*
G01*
X33150000Y-16315000D01*
G75*
G02*
X33375000Y-16540000I0J-225000D01*
G01*
X33375000Y-17040000D01*
G75*
G02*
X33150000Y-17265000I-225000J0D01*
G01*
X32700000Y-17265000D01*
G75*
G02*
X32475000Y-17040000I0J225000D01*
G01*
G37*
D21*
X7100000Y-13050000D03*
X9100000Y-12100000D03*
X9100000Y-14000000D03*
G36*
G01*
X10350000Y-13375000D02*
X10850000Y-13375000D01*
G75*
G02*
X11075000Y-13600000I0J-225000D01*
G01*
X11075000Y-14050000D01*
G75*
G02*
X10850000Y-14275000I-225000J0D01*
G01*
X10350000Y-14275000D01*
G75*
G02*
X10125000Y-14050000I0J225000D01*
G01*
X10125000Y-13600000D01*
G75*
G02*
X10350000Y-13375000I225000J0D01*
G01*
G37*
G36*
G01*
X10350000Y-11825000D02*
X10850000Y-11825000D01*
G75*
G02*
X11075000Y-12050000I0J-225000D01*
G01*
X11075000Y-12500000D01*
G75*
G02*
X10850000Y-12725000I-225000J0D01*
G01*
X10350000Y-12725000D01*
G75*
G02*
X10125000Y-12500000I0J225000D01*
G01*
X10125000Y-12050000D01*
G75*
G02*
X10350000Y-11825000I225000J0D01*
G01*
G37*
G36*
G01*
X8325000Y-15900000D02*
X8325000Y-15400000D01*
G75*
G02*
X8550000Y-15175000I225000J0D01*
G01*
X9000000Y-15175000D01*
G75*
G02*
X9225000Y-15400000I0J-225000D01*
G01*
X9225000Y-15900000D01*
G75*
G02*
X9000000Y-16125000I-225000J0D01*
G01*
X8550000Y-16125000D01*
G75*
G02*
X8325000Y-15900000I0J225000D01*
G01*
G37*
G36*
G01*
X6775000Y-15900000D02*
X6775000Y-15400000D01*
G75*
G02*
X7000000Y-15175000I225000J0D01*
G01*
X7450000Y-15175000D01*
G75*
G02*
X7675000Y-15400000I0J-225000D01*
G01*
X7675000Y-15900000D01*
G75*
G02*
X7450000Y-16125000I-225000J0D01*
G01*
X7000000Y-16125000D01*
G75*
G02*
X6775000Y-15900000I0J225000D01*
G01*
G37*
D22*
X39100000Y-6350000D03*
X39100000Y-3050000D03*
G36*
G01*
X43625000Y-16350000D02*
X43625000Y-15850000D01*
G75*
G02*
X43850000Y-15625000I225000J0D01*
G01*
X44300000Y-15625000D01*
G75*
G02*
X44525000Y-15850000I0J-225000D01*
G01*
X44525000Y-16350000D01*
G75*
G02*
X44300000Y-16575000I-225000J0D01*
G01*
X43850000Y-16575000D01*
G75*
G02*
X43625000Y-16350000I0J225000D01*
G01*
G37*
G36*
G01*
X42075000Y-16350000D02*
X42075000Y-15850000D01*
G75*
G02*
X42300000Y-15625000I225000J0D01*
G01*
X42750000Y-15625000D01*
G75*
G02*
X42975000Y-15850000I0J-225000D01*
G01*
X42975000Y-16350000D01*
G75*
G02*
X42750000Y-16575000I-225000J0D01*
G01*
X42300000Y-16575000D01*
G75*
G02*
X42075000Y-16350000I0J225000D01*
G01*
G37*
D23*
X43040000Y-11690000D03*
X43040000Y-11040000D03*
X43040000Y-10390000D03*
X43040000Y-9740000D03*
X43040000Y-9090000D03*
D24*
X43125000Y-12877500D03*
X43125000Y-7902500D03*
D25*
X45700000Y-13765000D03*
X45700000Y-7015000D03*
D26*
X45700000Y-11540000D03*
D27*
X45700000Y-8840000D03*
D28*
X4166726Y-29023274D03*
X3000000Y-28540000D03*
X1833274Y-29023274D03*
X1350000Y-30190000D03*
X1833274Y-31356726D03*
X3000000Y-31840000D03*
X4166726Y-31356726D03*
X4650000Y-30190000D03*
D29*
X3000000Y-30190000D03*
D28*
X45366726Y-29023274D03*
X44200000Y-28540000D03*
X43033274Y-29023274D03*
X42550000Y-30190000D03*
X43033274Y-31356726D03*
X44200000Y-31840000D03*
X45366726Y-31356726D03*
X45850000Y-30190000D03*
D29*
X44200000Y-30190000D03*
D28*
X45366726Y-1823274D03*
X44200000Y-1340000D03*
X43033274Y-1823274D03*
X42550000Y-2990000D03*
X43033274Y-4156726D03*
X44200000Y-4640000D03*
X45366726Y-4156726D03*
X45850000Y-2990000D03*
D29*
X44200000Y-2990000D03*
D28*
X4166726Y-1823274D03*
X3000000Y-1340000D03*
X1833274Y-1823274D03*
X1350000Y-2990000D03*
X1833274Y-4156726D03*
X3000000Y-4640000D03*
X4166726Y-4156726D03*
X4650000Y-2990000D03*
D29*
X3000000Y-2990000D03*
G36*
G01*
X8425000Y-24725000D02*
X8425000Y-24175000D01*
G75*
G02*
X8625000Y-23975000I200000J0D01*
G01*
X9025000Y-23975000D01*
G75*
G02*
X9225000Y-24175000I0J-200000D01*
G01*
X9225000Y-24725000D01*
G75*
G02*
X9025000Y-24925000I-200000J0D01*
G01*
X8625000Y-24925000D01*
G75*
G02*
X8425000Y-24725000I0J200000D01*
G01*
G37*
G36*
G01*
X6775000Y-24725000D02*
X6775000Y-24175000D01*
G75*
G02*
X6975000Y-23975000I200000J0D01*
G01*
X7375000Y-23975000D01*
G75*
G02*
X7575000Y-24175000I0J-200000D01*
G01*
X7575000Y-24725000D01*
G75*
G02*
X7375000Y-24925000I-200000J0D01*
G01*
X6975000Y-24925000D01*
G75*
G02*
X6775000Y-24725000I0J200000D01*
G01*
G37*
G36*
G01*
X8425000Y-19165000D02*
X8425000Y-18615000D01*
G75*
G02*
X8625000Y-18415000I200000J0D01*
G01*
X9025000Y-18415000D01*
G75*
G02*
X9225000Y-18615000I0J-200000D01*
G01*
X9225000Y-19165000D01*
G75*
G02*
X9025000Y-19365000I-200000J0D01*
G01*
X8625000Y-19365000D01*
G75*
G02*
X8425000Y-19165000I0J200000D01*
G01*
G37*
G36*
G01*
X6775000Y-19165000D02*
X6775000Y-18615000D01*
G75*
G02*
X6975000Y-18415000I200000J0D01*
G01*
X7375000Y-18415000D01*
G75*
G02*
X7575000Y-18615000I0J-200000D01*
G01*
X7575000Y-19165000D01*
G75*
G02*
X7375000Y-19365000I-200000J0D01*
G01*
X6975000Y-19365000D01*
G75*
G02*
X6775000Y-19165000I0J200000D01*
G01*
G37*
G36*
G01*
X8425000Y-17625000D02*
X8425000Y-17075000D01*
G75*
G02*
X8625000Y-16875000I200000J0D01*
G01*
X9025000Y-16875000D01*
G75*
G02*
X9225000Y-17075000I0J-200000D01*
G01*
X9225000Y-17625000D01*
G75*
G02*
X9025000Y-17825000I-200000J0D01*
G01*
X8625000Y-17825000D01*
G75*
G02*
X8425000Y-17625000I0J200000D01*
G01*
G37*
G36*
G01*
X6775000Y-17625000D02*
X6775000Y-17075000D01*
G75*
G02*
X6975000Y-16875000I200000J0D01*
G01*
X7375000Y-16875000D01*
G75*
G02*
X7575000Y-17075000I0J-200000D01*
G01*
X7575000Y-17625000D01*
G75*
G02*
X7375000Y-17825000I-200000J0D01*
G01*
X6975000Y-17825000D01*
G75*
G02*
X6775000Y-17625000I0J200000D01*
G01*
G37*
D30*
X2000000Y-11150000D03*
D31*
X4540000Y-11150000D03*
X2000000Y-13690000D03*
X4540000Y-13690000D03*
X2000000Y-16230000D03*
X4540000Y-16230000D03*
X2000000Y-18770000D03*
X4540000Y-18770000D03*
X2000000Y-21310000D03*
X4540000Y-21310000D03*
X2000000Y-23850000D03*
X4540000Y-23850000D03*
G36*
G01*
X33275000Y-6615000D02*
X33275000Y-7165000D01*
G75*
G02*
X33075000Y-7365000I-200000J0D01*
G01*
X32675000Y-7365000D01*
G75*
G02*
X32475000Y-7165000I0J200000D01*
G01*
X32475000Y-6615000D01*
G75*
G02*
X32675000Y-6415000I200000J0D01*
G01*
X33075000Y-6415000D01*
G75*
G02*
X33275000Y-6615000I0J-200000D01*
G01*
G37*
G36*
G01*
X34925000Y-6615000D02*
X34925000Y-7165000D01*
G75*
G02*
X34725000Y-7365000I-200000J0D01*
G01*
X34325000Y-7365000D01*
G75*
G02*
X34125000Y-7165000I0J200000D01*
G01*
X34125000Y-6615000D01*
G75*
G02*
X34325000Y-6415000I200000J0D01*
G01*
X34725000Y-6415000D01*
G75*
G02*
X34925000Y-6615000I0J-200000D01*
G01*
G37*
G36*
G01*
X33275000Y-5015000D02*
X33275000Y-5565000D01*
G75*
G02*
X33075000Y-5765000I-200000J0D01*
G01*
X32675000Y-5765000D01*
G75*
G02*
X32475000Y-5565000I0J200000D01*
G01*
X32475000Y-5015000D01*
G75*
G02*
X32675000Y-4815000I200000J0D01*
G01*
X33075000Y-4815000D01*
G75*
G02*
X33275000Y-5015000I0J-200000D01*
G01*
G37*
G36*
G01*
X34925000Y-5015000D02*
X34925000Y-5565000D01*
G75*
G02*
X34725000Y-5765000I-200000J0D01*
G01*
X34325000Y-5765000D01*
G75*
G02*
X34125000Y-5565000I0J200000D01*
G01*
X34125000Y-5015000D01*
G75*
G02*
X34325000Y-4815000I200000J0D01*
G01*
X34725000Y-4815000D01*
G75*
G02*
X34925000Y-5015000I0J-200000D01*
G01*
G37*
G36*
G01*
X8425000Y-7965000D02*
X8425000Y-7415000D01*
G75*
G02*
X8625000Y-7215000I200000J0D01*
G01*
X9025000Y-7215000D01*
G75*
G02*
X9225000Y-7415000I0J-200000D01*
G01*
X9225000Y-7965000D01*
G75*
G02*
X9025000Y-8165000I-200000J0D01*
G01*
X8625000Y-8165000D01*
G75*
G02*
X8425000Y-7965000I0J200000D01*
G01*
G37*
G36*
G01*
X6775000Y-7965000D02*
X6775000Y-7415000D01*
G75*
G02*
X6975000Y-7215000I200000J0D01*
G01*
X7375000Y-7215000D01*
G75*
G02*
X7575000Y-7415000I0J-200000D01*
G01*
X7575000Y-7965000D01*
G75*
G02*
X7375000Y-8165000I-200000J0D01*
G01*
X6975000Y-8165000D01*
G75*
G02*
X6775000Y-7965000I0J200000D01*
G01*
G37*
G36*
G01*
X8425000Y-9565000D02*
X8425000Y-9015000D01*
G75*
G02*
X8625000Y-8815000I200000J0D01*
G01*
X9025000Y-8815000D01*
G75*
G02*
X9225000Y-9015000I0J-200000D01*
G01*
X9225000Y-9565000D01*
G75*
G02*
X9025000Y-9765000I-200000J0D01*
G01*
X8625000Y-9765000D01*
G75*
G02*
X8425000Y-9565000I0J200000D01*
G01*
G37*
G36*
G01*
X6775000Y-9565000D02*
X6775000Y-9015000D01*
G75*
G02*
X6975000Y-8815000I200000J0D01*
G01*
X7375000Y-8815000D01*
G75*
G02*
X7575000Y-9015000I0J-200000D01*
G01*
X7575000Y-9565000D01*
G75*
G02*
X7375000Y-9765000I-200000J0D01*
G01*
X6975000Y-9765000D01*
G75*
G02*
X6775000Y-9565000I0J200000D01*
G01*
G37*
G36*
G01*
X34125000Y-3965000D02*
X34125000Y-3415000D01*
G75*
G02*
X34325000Y-3215000I200000J0D01*
G01*
X34725000Y-3215000D01*
G75*
G02*
X34925000Y-3415000I0J-200000D01*
G01*
X34925000Y-3965000D01*
G75*
G02*
X34725000Y-4165000I-200000J0D01*
G01*
X34325000Y-4165000D01*
G75*
G02*
X34125000Y-3965000I0J200000D01*
G01*
G37*
G36*
G01*
X32475000Y-3965000D02*
X32475000Y-3415000D01*
G75*
G02*
X32675000Y-3215000I200000J0D01*
G01*
X33075000Y-3215000D01*
G75*
G02*
X33275000Y-3415000I0J-200000D01*
G01*
X33275000Y-3965000D01*
G75*
G02*
X33075000Y-4165000I-200000J0D01*
G01*
X32675000Y-4165000D01*
G75*
G02*
X32475000Y-3965000I0J200000D01*
G01*
G37*
G36*
G01*
X10775000Y-9000000D02*
X10775000Y-9500000D01*
G75*
G02*
X10550000Y-9725000I-225000J0D01*
G01*
X10100000Y-9725000D01*
G75*
G02*
X9875000Y-9500000I0J225000D01*
G01*
X9875000Y-9000000D01*
G75*
G02*
X10100000Y-8775000I225000J0D01*
G01*
X10550000Y-8775000D01*
G75*
G02*
X10775000Y-9000000I0J-225000D01*
G01*
G37*
G36*
G01*
X12325000Y-9000000D02*
X12325000Y-9500000D01*
G75*
G02*
X12100000Y-9725000I-225000J0D01*
G01*
X11650000Y-9725000D01*
G75*
G02*
X11425000Y-9500000I0J225000D01*
G01*
X11425000Y-9000000D01*
G75*
G02*
X11650000Y-8775000I225000J0D01*
G01*
X12100000Y-8775000D01*
G75*
G02*
X12325000Y-9000000I0J-225000D01*
G01*
G37*
G36*
G01*
X12900000Y-3890000D02*
X12900000Y-3490000D01*
G75*
G02*
X13100000Y-3290000I200000J0D01*
G01*
X14500000Y-3290000D01*
G75*
G02*
X14700000Y-3490000I0J-200000D01*
G01*
X14700000Y-3890000D01*
G75*
G02*
X14500000Y-4090000I-200000J0D01*
G01*
X13100000Y-4090000D01*
G75*
G02*
X12900000Y-3890000I0J200000D01*
G01*
G37*
G36*
G01*
X12900000Y-4990000D02*
X12900000Y-4590000D01*
G75*
G02*
X13100000Y-4390000I200000J0D01*
G01*
X14500000Y-4390000D01*
G75*
G02*
X14700000Y-4590000I0J-200000D01*
G01*
X14700000Y-4990000D01*
G75*
G02*
X14500000Y-5190000I-200000J0D01*
G01*
X13100000Y-5190000D01*
G75*
G02*
X12900000Y-4990000I0J200000D01*
G01*
G37*
G36*
G01*
X12900000Y-6090000D02*
X12900000Y-5690000D01*
G75*
G02*
X13100000Y-5490000I200000J0D01*
G01*
X14500000Y-5490000D01*
G75*
G02*
X14700000Y-5690000I0J-200000D01*
G01*
X14700000Y-6090000D01*
G75*
G02*
X14500000Y-6290000I-200000J0D01*
G01*
X13100000Y-6290000D01*
G75*
G02*
X12900000Y-6090000I0J200000D01*
G01*
G37*
G36*
G01*
X12900000Y-7190000D02*
X12900000Y-6790000D01*
G75*
G02*
X13100000Y-6590000I200000J0D01*
G01*
X14500000Y-6590000D01*
G75*
G02*
X14700000Y-6790000I0J-200000D01*
G01*
X14700000Y-7190000D01*
G75*
G02*
X14500000Y-7390000I-200000J0D01*
G01*
X13100000Y-7390000D01*
G75*
G02*
X12900000Y-7190000I0J200000D01*
G01*
G37*
G36*
G01*
X12900000Y-8290000D02*
X12900000Y-7890000D01*
G75*
G02*
X13100000Y-7690000I200000J0D01*
G01*
X14500000Y-7690000D01*
G75*
G02*
X14700000Y-7890000I0J-200000D01*
G01*
X14700000Y-8290000D01*
G75*
G02*
X14500000Y-8490000I-200000J0D01*
G01*
X13100000Y-8490000D01*
G75*
G02*
X12900000Y-8290000I0J200000D01*
G01*
G37*
G36*
G01*
X12900000Y-9390000D02*
X12900000Y-8990000D01*
G75*
G02*
X13100000Y-8790000I200000J0D01*
G01*
X14500000Y-8790000D01*
G75*
G02*
X14700000Y-8990000I0J-200000D01*
G01*
X14700000Y-9390000D01*
G75*
G02*
X14500000Y-9590000I-200000J0D01*
G01*
X13100000Y-9590000D01*
G75*
G02*
X12900000Y-9390000I0J200000D01*
G01*
G37*
G36*
G01*
X12900000Y-10490000D02*
X12900000Y-10090000D01*
G75*
G02*
X13100000Y-9890000I200000J0D01*
G01*
X14500000Y-9890000D01*
G75*
G02*
X14700000Y-10090000I0J-200000D01*
G01*
X14700000Y-10490000D01*
G75*
G02*
X14500000Y-10690000I-200000J0D01*
G01*
X13100000Y-10690000D01*
G75*
G02*
X12900000Y-10490000I0J200000D01*
G01*
G37*
G36*
G01*
X12900000Y-11590000D02*
X12900000Y-11190000D01*
G75*
G02*
X13100000Y-10990000I200000J0D01*
G01*
X14500000Y-10990000D01*
G75*
G02*
X14700000Y-11190000I0J-200000D01*
G01*
X14700000Y-11590000D01*
G75*
G02*
X14500000Y-11790000I-200000J0D01*
G01*
X13100000Y-11790000D01*
G75*
G02*
X12900000Y-11590000I0J200000D01*
G01*
G37*
G36*
G01*
X12900000Y-15390000D02*
X12900000Y-14990000D01*
G75*
G02*
X13100000Y-14790000I200000J0D01*
G01*
X14500000Y-14790000D01*
G75*
G02*
X14700000Y-14990000I0J-200000D01*
G01*
X14700000Y-15390000D01*
G75*
G02*
X14500000Y-15590000I-200000J0D01*
G01*
X13100000Y-15590000D01*
G75*
G02*
X12900000Y-15390000I0J200000D01*
G01*
G37*
G36*
G01*
X12900000Y-16490000D02*
X12900000Y-16090000D01*
G75*
G02*
X13100000Y-15890000I200000J0D01*
G01*
X14500000Y-15890000D01*
G75*
G02*
X14700000Y-16090000I0J-200000D01*
G01*
X14700000Y-16490000D01*
G75*
G02*
X14500000Y-16690000I-200000J0D01*
G01*
X13100000Y-16690000D01*
G75*
G02*
X12900000Y-16490000I0J200000D01*
G01*
G37*
G36*
G01*
X12900000Y-17590000D02*
X12900000Y-17190000D01*
G75*
G02*
X13100000Y-16990000I200000J0D01*
G01*
X14500000Y-16990000D01*
G75*
G02*
X14700000Y-17190000I0J-200000D01*
G01*
X14700000Y-17590000D01*
G75*
G02*
X14500000Y-17790000I-200000J0D01*
G01*
X13100000Y-17790000D01*
G75*
G02*
X12900000Y-17590000I0J200000D01*
G01*
G37*
G36*
G01*
X12900000Y-18690000D02*
X12900000Y-18290000D01*
G75*
G02*
X13100000Y-18090000I200000J0D01*
G01*
X14500000Y-18090000D01*
G75*
G02*
X14700000Y-18290000I0J-200000D01*
G01*
X14700000Y-18690000D01*
G75*
G02*
X14500000Y-18890000I-200000J0D01*
G01*
X13100000Y-18890000D01*
G75*
G02*
X12900000Y-18690000I0J200000D01*
G01*
G37*
G36*
G01*
X12900000Y-19790000D02*
X12900000Y-19390000D01*
G75*
G02*
X13100000Y-19190000I200000J0D01*
G01*
X14500000Y-19190000D01*
G75*
G02*
X14700000Y-19390000I0J-200000D01*
G01*
X14700000Y-19790000D01*
G75*
G02*
X14500000Y-19990000I-200000J0D01*
G01*
X13100000Y-19990000D01*
G75*
G02*
X12900000Y-19790000I0J200000D01*
G01*
G37*
G36*
G01*
X12900000Y-20890000D02*
X12900000Y-20490000D01*
G75*
G02*
X13100000Y-20290000I200000J0D01*
G01*
X14500000Y-20290000D01*
G75*
G02*
X14700000Y-20490000I0J-200000D01*
G01*
X14700000Y-20890000D01*
G75*
G02*
X14500000Y-21090000I-200000J0D01*
G01*
X13100000Y-21090000D01*
G75*
G02*
X12900000Y-20890000I0J200000D01*
G01*
G37*
G36*
G01*
X29700000Y-20890000D02*
X29700000Y-20490000D01*
G75*
G02*
X29900000Y-20290000I200000J0D01*
G01*
X31300000Y-20290000D01*
G75*
G02*
X31500000Y-20490000I0J-200000D01*
G01*
X31500000Y-20890000D01*
G75*
G02*
X31300000Y-21090000I-200000J0D01*
G01*
X29900000Y-21090000D01*
G75*
G02*
X29700000Y-20890000I0J200000D01*
G01*
G37*
G36*
G01*
X29700000Y-19790000D02*
X29700000Y-19390000D01*
G75*
G02*
X29900000Y-19190000I200000J0D01*
G01*
X31300000Y-19190000D01*
G75*
G02*
X31500000Y-19390000I0J-200000D01*
G01*
X31500000Y-19790000D01*
G75*
G02*
X31300000Y-19990000I-200000J0D01*
G01*
X29900000Y-19990000D01*
G75*
G02*
X29700000Y-19790000I0J200000D01*
G01*
G37*
G36*
G01*
X29700000Y-18690000D02*
X29700000Y-18290000D01*
G75*
G02*
X29900000Y-18090000I200000J0D01*
G01*
X31300000Y-18090000D01*
G75*
G02*
X31500000Y-18290000I0J-200000D01*
G01*
X31500000Y-18690000D01*
G75*
G02*
X31300000Y-18890000I-200000J0D01*
G01*
X29900000Y-18890000D01*
G75*
G02*
X29700000Y-18690000I0J200000D01*
G01*
G37*
G36*
G01*
X29700000Y-17590000D02*
X29700000Y-17190000D01*
G75*
G02*
X29900000Y-16990000I200000J0D01*
G01*
X31300000Y-16990000D01*
G75*
G02*
X31500000Y-17190000I0J-200000D01*
G01*
X31500000Y-17590000D01*
G75*
G02*
X31300000Y-17790000I-200000J0D01*
G01*
X29900000Y-17790000D01*
G75*
G02*
X29700000Y-17590000I0J200000D01*
G01*
G37*
G36*
G01*
X29700000Y-16490000D02*
X29700000Y-16090000D01*
G75*
G02*
X29900000Y-15890000I200000J0D01*
G01*
X31300000Y-15890000D01*
G75*
G02*
X31500000Y-16090000I0J-200000D01*
G01*
X31500000Y-16490000D01*
G75*
G02*
X31300000Y-16690000I-200000J0D01*
G01*
X29900000Y-16690000D01*
G75*
G02*
X29700000Y-16490000I0J200000D01*
G01*
G37*
G36*
G01*
X29700000Y-15390000D02*
X29700000Y-14990000D01*
G75*
G02*
X29900000Y-14790000I200000J0D01*
G01*
X31300000Y-14790000D01*
G75*
G02*
X31500000Y-14990000I0J-200000D01*
G01*
X31500000Y-15390000D01*
G75*
G02*
X31300000Y-15590000I-200000J0D01*
G01*
X29900000Y-15590000D01*
G75*
G02*
X29700000Y-15390000I0J200000D01*
G01*
G37*
G36*
G01*
X29700000Y-11590000D02*
X29700000Y-11190000D01*
G75*
G02*
X29900000Y-10990000I200000J0D01*
G01*
X31300000Y-10990000D01*
G75*
G02*
X31500000Y-11190000I0J-200000D01*
G01*
X31500000Y-11590000D01*
G75*
G02*
X31300000Y-11790000I-200000J0D01*
G01*
X29900000Y-11790000D01*
G75*
G02*
X29700000Y-11590000I0J200000D01*
G01*
G37*
G36*
G01*
X29700000Y-10490000D02*
X29700000Y-10090000D01*
G75*
G02*
X29900000Y-9890000I200000J0D01*
G01*
X31300000Y-9890000D01*
G75*
G02*
X31500000Y-10090000I0J-200000D01*
G01*
X31500000Y-10490000D01*
G75*
G02*
X31300000Y-10690000I-200000J0D01*
G01*
X29900000Y-10690000D01*
G75*
G02*
X29700000Y-10490000I0J200000D01*
G01*
G37*
G36*
G01*
X29700000Y-9390000D02*
X29700000Y-8990000D01*
G75*
G02*
X29900000Y-8790000I200000J0D01*
G01*
X31300000Y-8790000D01*
G75*
G02*
X31500000Y-8990000I0J-200000D01*
G01*
X31500000Y-9390000D01*
G75*
G02*
X31300000Y-9590000I-200000J0D01*
G01*
X29900000Y-9590000D01*
G75*
G02*
X29700000Y-9390000I0J200000D01*
G01*
G37*
G36*
G01*
X29700000Y-8290000D02*
X29700000Y-7890000D01*
G75*
G02*
X29900000Y-7690000I200000J0D01*
G01*
X31300000Y-7690000D01*
G75*
G02*
X31500000Y-7890000I0J-200000D01*
G01*
X31500000Y-8290000D01*
G75*
G02*
X31300000Y-8490000I-200000J0D01*
G01*
X29900000Y-8490000D01*
G75*
G02*
X29700000Y-8290000I0J200000D01*
G01*
G37*
G36*
G01*
X29700000Y-7190000D02*
X29700000Y-6790000D01*
G75*
G02*
X29900000Y-6590000I200000J0D01*
G01*
X31300000Y-6590000D01*
G75*
G02*
X31500000Y-6790000I0J-200000D01*
G01*
X31500000Y-7190000D01*
G75*
G02*
X31300000Y-7390000I-200000J0D01*
G01*
X29900000Y-7390000D01*
G75*
G02*
X29700000Y-7190000I0J200000D01*
G01*
G37*
G36*
G01*
X29700000Y-6090000D02*
X29700000Y-5690000D01*
G75*
G02*
X29900000Y-5490000I200000J0D01*
G01*
X31300000Y-5490000D01*
G75*
G02*
X31500000Y-5690000I0J-200000D01*
G01*
X31500000Y-6090000D01*
G75*
G02*
X31300000Y-6290000I-200000J0D01*
G01*
X29900000Y-6290000D01*
G75*
G02*
X29700000Y-6090000I0J200000D01*
G01*
G37*
G36*
G01*
X29700000Y-4990000D02*
X29700000Y-4590000D01*
G75*
G02*
X29900000Y-4390000I200000J0D01*
G01*
X31300000Y-4390000D01*
G75*
G02*
X31500000Y-4590000I0J-200000D01*
G01*
X31500000Y-4990000D01*
G75*
G02*
X31300000Y-5190000I-200000J0D01*
G01*
X29900000Y-5190000D01*
G75*
G02*
X29700000Y-4990000I0J200000D01*
G01*
G37*
G36*
G01*
X29700000Y-3890000D02*
X29700000Y-3490000D01*
G75*
G02*
X29900000Y-3290000I200000J0D01*
G01*
X31300000Y-3290000D01*
G75*
G02*
X31500000Y-3490000I0J-200000D01*
G01*
X31500000Y-3890000D01*
G75*
G02*
X31300000Y-4090000I-200000J0D01*
G01*
X29900000Y-4090000D01*
G75*
G02*
X29700000Y-3890000I0J200000D01*
G01*
G37*
D19*
X40260000Y-23730000D03*
X40260000Y-18650000D03*
X45340000Y-18650000D03*
X45340000Y-23730000D03*
D20*
X42800000Y-21190000D03*
M02*
