G04 #@! TF.GenerationSoftware,KiCad,Pcbnew,5.1.8-5.1.8*
G04 #@! TF.CreationDate,2020-12-14T23:03:17+01:00*
G04 #@! TF.ProjectId,ublox-breakout,75626c6f-782d-4627-9265-616b6f75742e,rev?*
G04 #@! TF.SameCoordinates,PX71f6ce0PY7cfd120*
G04 #@! TF.FileFunction,Paste,Top*
G04 #@! TF.FilePolarity,Positive*
%FSLAX46Y46*%
G04 Gerber Fmt 4.6, Leading zero omitted, Abs format (unit mm)*
G04 Created by KiCad (PCBNEW 5.1.8-5.1.8) date 2020-12-14 23:03:17*
%MOMM*%
%LPD*%
G01*
G04 APERTURE LIST*
%ADD10R,0.450000X1.450000*%
%ADD11R,0.600000X0.450000*%
%ADD12R,0.900000X0.800000*%
%ADD13R,1.200000X0.900000*%
%ADD14R,1.900000X1.000000*%
%ADD15R,1.900000X1.800000*%
%ADD16R,1.300000X1.650000*%
%ADD17R,1.550000X1.425000*%
%ADD18R,1.380000X0.450000*%
%ADD19R,1.060000X0.650000*%
G04 APERTURE END LIST*
G36*
G01*
X28350000Y2875000D02*
X28850000Y2875000D01*
G75*
G02*
X29075000Y2650000I0J-225000D01*
G01*
X29075000Y2200000D01*
G75*
G02*
X28850000Y1975000I-225000J0D01*
G01*
X28350000Y1975000D01*
G75*
G02*
X28125000Y2200000I0J225000D01*
G01*
X28125000Y2650000D01*
G75*
G02*
X28350000Y2875000I225000J0D01*
G01*
G37*
G36*
G01*
X28350000Y4425000D02*
X28850000Y4425000D01*
G75*
G02*
X29075000Y4200000I0J-225000D01*
G01*
X29075000Y3750000D01*
G75*
G02*
X28850000Y3525000I-225000J0D01*
G01*
X28350000Y3525000D01*
G75*
G02*
X28125000Y3750000I0J225000D01*
G01*
X28125000Y4200000D01*
G75*
G02*
X28350000Y4425000I225000J0D01*
G01*
G37*
D10*
X26975000Y2700000D03*
X26325000Y2700000D03*
X25675000Y2700000D03*
X25025000Y2700000D03*
X25025000Y7100000D03*
X25675000Y7100000D03*
X26325000Y7100000D03*
X26975000Y7100000D03*
G36*
G01*
X23675000Y7025000D02*
X23125000Y7025000D01*
G75*
G02*
X22925000Y7225000I0J200000D01*
G01*
X22925000Y7625000D01*
G75*
G02*
X23125000Y7825000I200000J0D01*
G01*
X23675000Y7825000D01*
G75*
G02*
X23875000Y7625000I0J-200000D01*
G01*
X23875000Y7225000D01*
G75*
G02*
X23675000Y7025000I-200000J0D01*
G01*
G37*
G36*
G01*
X23675000Y5375000D02*
X23125000Y5375000D01*
G75*
G02*
X22925000Y5575000I0J200000D01*
G01*
X22925000Y5975000D01*
G75*
G02*
X23125000Y6175000I200000J0D01*
G01*
X23675000Y6175000D01*
G75*
G02*
X23875000Y5975000I0J-200000D01*
G01*
X23875000Y5575000D01*
G75*
G02*
X23675000Y5375000I-200000J0D01*
G01*
G37*
G36*
G01*
X23125000Y2775000D02*
X23675000Y2775000D01*
G75*
G02*
X23875000Y2575000I0J-200000D01*
G01*
X23875000Y2175000D01*
G75*
G02*
X23675000Y1975000I-200000J0D01*
G01*
X23125000Y1975000D01*
G75*
G02*
X22925000Y2175000I0J200000D01*
G01*
X22925000Y2575000D01*
G75*
G02*
X23125000Y2775000I200000J0D01*
G01*
G37*
G36*
G01*
X23125000Y4425000D02*
X23675000Y4425000D01*
G75*
G02*
X23875000Y4225000I0J-200000D01*
G01*
X23875000Y3825000D01*
G75*
G02*
X23675000Y3625000I-200000J0D01*
G01*
X23125000Y3625000D01*
G75*
G02*
X22925000Y3825000I0J200000D01*
G01*
X22925000Y4225000D01*
G75*
G02*
X23125000Y4425000I200000J0D01*
G01*
G37*
G36*
G01*
X7575000Y29075000D02*
X7575000Y28525000D01*
G75*
G02*
X7375000Y28325000I-200000J0D01*
G01*
X6975000Y28325000D01*
G75*
G02*
X6775000Y28525000I0J200000D01*
G01*
X6775000Y29075000D01*
G75*
G02*
X6975000Y29275000I200000J0D01*
G01*
X7375000Y29275000D01*
G75*
G02*
X7575000Y29075000I0J-200000D01*
G01*
G37*
G36*
G01*
X9225000Y29075000D02*
X9225000Y28525000D01*
G75*
G02*
X9025000Y28325000I-200000J0D01*
G01*
X8625000Y28325000D01*
G75*
G02*
X8425000Y28525000I0J200000D01*
G01*
X8425000Y29075000D01*
G75*
G02*
X8625000Y29275000I200000J0D01*
G01*
X9025000Y29275000D01*
G75*
G02*
X9225000Y29075000I0J-200000D01*
G01*
G37*
D11*
X6950000Y12600000D03*
X9050000Y12600000D03*
X6950000Y10600000D03*
X9050000Y10600000D03*
G36*
G01*
X7575000Y27475000D02*
X7575000Y26925000D01*
G75*
G02*
X7375000Y26725000I-200000J0D01*
G01*
X6975000Y26725000D01*
G75*
G02*
X6775000Y26925000I0J200000D01*
G01*
X6775000Y27475000D01*
G75*
G02*
X6975000Y27675000I200000J0D01*
G01*
X7375000Y27675000D01*
G75*
G02*
X7575000Y27475000I0J-200000D01*
G01*
G37*
G36*
G01*
X9225000Y27475000D02*
X9225000Y26925000D01*
G75*
G02*
X9025000Y26725000I-200000J0D01*
G01*
X8625000Y26725000D01*
G75*
G02*
X8425000Y26925000I0J200000D01*
G01*
X8425000Y27475000D01*
G75*
G02*
X8625000Y27675000I200000J0D01*
G01*
X9025000Y27675000D01*
G75*
G02*
X9225000Y27475000I0J-200000D01*
G01*
G37*
G36*
G01*
X33275000Y19935000D02*
X33275000Y19385000D01*
G75*
G02*
X33075000Y19185000I-200000J0D01*
G01*
X32675000Y19185000D01*
G75*
G02*
X32475000Y19385000I0J200000D01*
G01*
X32475000Y19935000D01*
G75*
G02*
X32675000Y20135000I200000J0D01*
G01*
X33075000Y20135000D01*
G75*
G02*
X33275000Y19935000I0J-200000D01*
G01*
G37*
G36*
G01*
X34925000Y19935000D02*
X34925000Y19385000D01*
G75*
G02*
X34725000Y19185000I-200000J0D01*
G01*
X34325000Y19185000D01*
G75*
G02*
X34125000Y19385000I0J200000D01*
G01*
X34125000Y19935000D01*
G75*
G02*
X34325000Y20135000I200000J0D01*
G01*
X34725000Y20135000D01*
G75*
G02*
X34925000Y19935000I0J-200000D01*
G01*
G37*
G36*
G01*
X34125000Y20985000D02*
X34125000Y21535000D01*
G75*
G02*
X34325000Y21735000I200000J0D01*
G01*
X34725000Y21735000D01*
G75*
G02*
X34925000Y21535000I0J-200000D01*
G01*
X34925000Y20985000D01*
G75*
G02*
X34725000Y20785000I-200000J0D01*
G01*
X34325000Y20785000D01*
G75*
G02*
X34125000Y20985000I0J200000D01*
G01*
G37*
G36*
G01*
X32475000Y20985000D02*
X32475000Y21535000D01*
G75*
G02*
X32675000Y21735000I200000J0D01*
G01*
X33075000Y21735000D01*
G75*
G02*
X33275000Y21535000I0J-200000D01*
G01*
X33275000Y20985000D01*
G75*
G02*
X33075000Y20785000I-200000J0D01*
G01*
X32675000Y20785000D01*
G75*
G02*
X32475000Y20985000I0J200000D01*
G01*
G37*
G36*
G01*
X34125000Y17785000D02*
X34125000Y18335000D01*
G75*
G02*
X34325000Y18535000I200000J0D01*
G01*
X34725000Y18535000D01*
G75*
G02*
X34925000Y18335000I0J-200000D01*
G01*
X34925000Y17785000D01*
G75*
G02*
X34725000Y17585000I-200000J0D01*
G01*
X34325000Y17585000D01*
G75*
G02*
X34125000Y17785000I0J200000D01*
G01*
G37*
G36*
G01*
X32475000Y17785000D02*
X32475000Y18335000D01*
G75*
G02*
X32675000Y18535000I200000J0D01*
G01*
X33075000Y18535000D01*
G75*
G02*
X33275000Y18335000I0J-200000D01*
G01*
X33275000Y17785000D01*
G75*
G02*
X33075000Y17585000I-200000J0D01*
G01*
X32675000Y17585000D01*
G75*
G02*
X32475000Y17785000I0J200000D01*
G01*
G37*
G36*
G01*
X34025000Y16210000D02*
X34025000Y16710000D01*
G75*
G02*
X34250000Y16935000I225000J0D01*
G01*
X34700000Y16935000D01*
G75*
G02*
X34925000Y16710000I0J-225000D01*
G01*
X34925000Y16210000D01*
G75*
G02*
X34700000Y15985000I-225000J0D01*
G01*
X34250000Y15985000D01*
G75*
G02*
X34025000Y16210000I0J225000D01*
G01*
G37*
G36*
G01*
X32475000Y16210000D02*
X32475000Y16710000D01*
G75*
G02*
X32700000Y16935000I225000J0D01*
G01*
X33150000Y16935000D01*
G75*
G02*
X33375000Y16710000I0J-225000D01*
G01*
X33375000Y16210000D01*
G75*
G02*
X33150000Y15985000I-225000J0D01*
G01*
X32700000Y15985000D01*
G75*
G02*
X32475000Y16210000I0J225000D01*
G01*
G37*
D12*
X7100000Y20200000D03*
X9100000Y21150000D03*
X9100000Y19250000D03*
G36*
G01*
X10350000Y19875000D02*
X10850000Y19875000D01*
G75*
G02*
X11075000Y19650000I0J-225000D01*
G01*
X11075000Y19200000D01*
G75*
G02*
X10850000Y18975000I-225000J0D01*
G01*
X10350000Y18975000D01*
G75*
G02*
X10125000Y19200000I0J225000D01*
G01*
X10125000Y19650000D01*
G75*
G02*
X10350000Y19875000I225000J0D01*
G01*
G37*
G36*
G01*
X10350000Y21425000D02*
X10850000Y21425000D01*
G75*
G02*
X11075000Y21200000I0J-225000D01*
G01*
X11075000Y20750000D01*
G75*
G02*
X10850000Y20525000I-225000J0D01*
G01*
X10350000Y20525000D01*
G75*
G02*
X10125000Y20750000I0J225000D01*
G01*
X10125000Y21200000D01*
G75*
G02*
X10350000Y21425000I225000J0D01*
G01*
G37*
G36*
G01*
X8325000Y17350000D02*
X8325000Y17850000D01*
G75*
G02*
X8550000Y18075000I225000J0D01*
G01*
X9000000Y18075000D01*
G75*
G02*
X9225000Y17850000I0J-225000D01*
G01*
X9225000Y17350000D01*
G75*
G02*
X9000000Y17125000I-225000J0D01*
G01*
X8550000Y17125000D01*
G75*
G02*
X8325000Y17350000I0J225000D01*
G01*
G37*
G36*
G01*
X6775000Y17350000D02*
X6775000Y17850000D01*
G75*
G02*
X7000000Y18075000I225000J0D01*
G01*
X7450000Y18075000D01*
G75*
G02*
X7675000Y17850000I0J-225000D01*
G01*
X7675000Y17350000D01*
G75*
G02*
X7450000Y17125000I-225000J0D01*
G01*
X7000000Y17125000D01*
G75*
G02*
X6775000Y17350000I0J225000D01*
G01*
G37*
G36*
G01*
X33856250Y3550000D02*
X33343750Y3550000D01*
G75*
G02*
X33125000Y3768750I0J218750D01*
G01*
X33125000Y4206250D01*
G75*
G02*
X33343750Y4425000I218750J0D01*
G01*
X33856250Y4425000D01*
G75*
G02*
X34075000Y4206250I0J-218750D01*
G01*
X34075000Y3768750D01*
G75*
G02*
X33856250Y3550000I-218750J0D01*
G01*
G37*
G36*
G01*
X33856250Y1975000D02*
X33343750Y1975000D01*
G75*
G02*
X33125000Y2193750I0J218750D01*
G01*
X33125000Y2631250D01*
G75*
G02*
X33343750Y2850000I218750J0D01*
G01*
X33856250Y2850000D01*
G75*
G02*
X34075000Y2631250I0J-218750D01*
G01*
X34075000Y2193750D01*
G75*
G02*
X33856250Y1975000I-218750J0D01*
G01*
G37*
G36*
G01*
X38656250Y3550000D02*
X38143750Y3550000D01*
G75*
G02*
X37925000Y3768750I0J218750D01*
G01*
X37925000Y4206250D01*
G75*
G02*
X38143750Y4425000I218750J0D01*
G01*
X38656250Y4425000D01*
G75*
G02*
X38875000Y4206250I0J-218750D01*
G01*
X38875000Y3768750D01*
G75*
G02*
X38656250Y3550000I-218750J0D01*
G01*
G37*
G36*
G01*
X38656250Y1975000D02*
X38143750Y1975000D01*
G75*
G02*
X37925000Y2193750I0J218750D01*
G01*
X37925000Y2631250D01*
G75*
G02*
X38143750Y2850000I218750J0D01*
G01*
X38656250Y2850000D01*
G75*
G02*
X38875000Y2631250I0J-218750D01*
G01*
X38875000Y2193750D01*
G75*
G02*
X38656250Y1975000I-218750J0D01*
G01*
G37*
D13*
X40100000Y26710000D03*
X40100000Y30010000D03*
G36*
G01*
X38875000Y19150000D02*
X38875000Y18650000D01*
G75*
G02*
X38650000Y18425000I-225000J0D01*
G01*
X38200000Y18425000D01*
G75*
G02*
X37975000Y18650000I0J225000D01*
G01*
X37975000Y19150000D01*
G75*
G02*
X38200000Y19375000I225000J0D01*
G01*
X38650000Y19375000D01*
G75*
G02*
X38875000Y19150000I0J-225000D01*
G01*
G37*
G36*
G01*
X40425000Y19150000D02*
X40425000Y18650000D01*
G75*
G02*
X40200000Y18425000I-225000J0D01*
G01*
X39750000Y18425000D01*
G75*
G02*
X39525000Y18650000I0J225000D01*
G01*
X39525000Y19150000D01*
G75*
G02*
X39750000Y19375000I225000J0D01*
G01*
X40200000Y19375000D01*
G75*
G02*
X40425000Y19150000I0J-225000D01*
G01*
G37*
D14*
X45700000Y24410000D03*
D15*
X45700000Y21710000D03*
D16*
X45700000Y26235000D03*
X45700000Y19485000D03*
D17*
X43125000Y25347500D03*
X43125000Y20372500D03*
D18*
X43040000Y24160000D03*
X43040000Y23510000D03*
X43040000Y22860000D03*
X43040000Y22210000D03*
X43040000Y21560000D03*
G36*
G01*
X35475000Y3625000D02*
X34925000Y3625000D01*
G75*
G02*
X34725000Y3825000I0J200000D01*
G01*
X34725000Y4225000D01*
G75*
G02*
X34925000Y4425000I200000J0D01*
G01*
X35475000Y4425000D01*
G75*
G02*
X35675000Y4225000I0J-200000D01*
G01*
X35675000Y3825000D01*
G75*
G02*
X35475000Y3625000I-200000J0D01*
G01*
G37*
G36*
G01*
X35475000Y1975000D02*
X34925000Y1975000D01*
G75*
G02*
X34725000Y2175000I0J200000D01*
G01*
X34725000Y2575000D01*
G75*
G02*
X34925000Y2775000I200000J0D01*
G01*
X35475000Y2775000D01*
G75*
G02*
X35675000Y2575000I0J-200000D01*
G01*
X35675000Y2175000D01*
G75*
G02*
X35475000Y1975000I-200000J0D01*
G01*
G37*
G36*
G01*
X37075000Y3625000D02*
X36525000Y3625000D01*
G75*
G02*
X36325000Y3825000I0J200000D01*
G01*
X36325000Y4225000D01*
G75*
G02*
X36525000Y4425000I200000J0D01*
G01*
X37075000Y4425000D01*
G75*
G02*
X37275000Y4225000I0J-200000D01*
G01*
X37275000Y3825000D01*
G75*
G02*
X37075000Y3625000I-200000J0D01*
G01*
G37*
G36*
G01*
X37075000Y1975000D02*
X36525000Y1975000D01*
G75*
G02*
X36325000Y2175000I0J200000D01*
G01*
X36325000Y2575000D01*
G75*
G02*
X36525000Y2775000I200000J0D01*
G01*
X37075000Y2775000D01*
G75*
G02*
X37275000Y2575000I0J-200000D01*
G01*
X37275000Y2175000D01*
G75*
G02*
X37075000Y1975000I-200000J0D01*
G01*
G37*
G36*
G01*
X8425000Y8525000D02*
X8425000Y9075000D01*
G75*
G02*
X8625000Y9275000I200000J0D01*
G01*
X9025000Y9275000D01*
G75*
G02*
X9225000Y9075000I0J-200000D01*
G01*
X9225000Y8525000D01*
G75*
G02*
X9025000Y8325000I-200000J0D01*
G01*
X8625000Y8325000D01*
G75*
G02*
X8425000Y8525000I0J200000D01*
G01*
G37*
G36*
G01*
X6775000Y8525000D02*
X6775000Y9075000D01*
G75*
G02*
X6975000Y9275000I200000J0D01*
G01*
X7375000Y9275000D01*
G75*
G02*
X7575000Y9075000I0J-200000D01*
G01*
X7575000Y8525000D01*
G75*
G02*
X7375000Y8325000I-200000J0D01*
G01*
X6975000Y8325000D01*
G75*
G02*
X6775000Y8525000I0J200000D01*
G01*
G37*
G36*
G01*
X8425000Y14085000D02*
X8425000Y14635000D01*
G75*
G02*
X8625000Y14835000I200000J0D01*
G01*
X9025000Y14835000D01*
G75*
G02*
X9225000Y14635000I0J-200000D01*
G01*
X9225000Y14085000D01*
G75*
G02*
X9025000Y13885000I-200000J0D01*
G01*
X8625000Y13885000D01*
G75*
G02*
X8425000Y14085000I0J200000D01*
G01*
G37*
G36*
G01*
X6775000Y14085000D02*
X6775000Y14635000D01*
G75*
G02*
X6975000Y14835000I200000J0D01*
G01*
X7375000Y14835000D01*
G75*
G02*
X7575000Y14635000I0J-200000D01*
G01*
X7575000Y14085000D01*
G75*
G02*
X7375000Y13885000I-200000J0D01*
G01*
X6975000Y13885000D01*
G75*
G02*
X6775000Y14085000I0J200000D01*
G01*
G37*
G36*
G01*
X8425000Y15625000D02*
X8425000Y16175000D01*
G75*
G02*
X8625000Y16375000I200000J0D01*
G01*
X9025000Y16375000D01*
G75*
G02*
X9225000Y16175000I0J-200000D01*
G01*
X9225000Y15625000D01*
G75*
G02*
X9025000Y15425000I-200000J0D01*
G01*
X8625000Y15425000D01*
G75*
G02*
X8425000Y15625000I0J200000D01*
G01*
G37*
G36*
G01*
X6775000Y15625000D02*
X6775000Y16175000D01*
G75*
G02*
X6975000Y16375000I200000J0D01*
G01*
X7375000Y16375000D01*
G75*
G02*
X7575000Y16175000I0J-200000D01*
G01*
X7575000Y15625000D01*
G75*
G02*
X7375000Y15425000I-200000J0D01*
G01*
X6975000Y15425000D01*
G75*
G02*
X6775000Y15625000I0J200000D01*
G01*
G37*
G36*
G01*
X33275000Y26635000D02*
X33275000Y26085000D01*
G75*
G02*
X33075000Y25885000I-200000J0D01*
G01*
X32675000Y25885000D01*
G75*
G02*
X32475000Y26085000I0J200000D01*
G01*
X32475000Y26635000D01*
G75*
G02*
X32675000Y26835000I200000J0D01*
G01*
X33075000Y26835000D01*
G75*
G02*
X33275000Y26635000I0J-200000D01*
G01*
G37*
G36*
G01*
X34925000Y26635000D02*
X34925000Y26085000D01*
G75*
G02*
X34725000Y25885000I-200000J0D01*
G01*
X34325000Y25885000D01*
G75*
G02*
X34125000Y26085000I0J200000D01*
G01*
X34125000Y26635000D01*
G75*
G02*
X34325000Y26835000I200000J0D01*
G01*
X34725000Y26835000D01*
G75*
G02*
X34925000Y26635000I0J-200000D01*
G01*
G37*
G36*
G01*
X33275000Y28235000D02*
X33275000Y27685000D01*
G75*
G02*
X33075000Y27485000I-200000J0D01*
G01*
X32675000Y27485000D01*
G75*
G02*
X32475000Y27685000I0J200000D01*
G01*
X32475000Y28235000D01*
G75*
G02*
X32675000Y28435000I200000J0D01*
G01*
X33075000Y28435000D01*
G75*
G02*
X33275000Y28235000I0J-200000D01*
G01*
G37*
G36*
G01*
X34925000Y28235000D02*
X34925000Y27685000D01*
G75*
G02*
X34725000Y27485000I-200000J0D01*
G01*
X34325000Y27485000D01*
G75*
G02*
X34125000Y27685000I0J200000D01*
G01*
X34125000Y28235000D01*
G75*
G02*
X34325000Y28435000I200000J0D01*
G01*
X34725000Y28435000D01*
G75*
G02*
X34925000Y28235000I0J-200000D01*
G01*
G37*
G36*
G01*
X8425000Y25285000D02*
X8425000Y25835000D01*
G75*
G02*
X8625000Y26035000I200000J0D01*
G01*
X9025000Y26035000D01*
G75*
G02*
X9225000Y25835000I0J-200000D01*
G01*
X9225000Y25285000D01*
G75*
G02*
X9025000Y25085000I-200000J0D01*
G01*
X8625000Y25085000D01*
G75*
G02*
X8425000Y25285000I0J200000D01*
G01*
G37*
G36*
G01*
X6775000Y25285000D02*
X6775000Y25835000D01*
G75*
G02*
X6975000Y26035000I200000J0D01*
G01*
X7375000Y26035000D01*
G75*
G02*
X7575000Y25835000I0J-200000D01*
G01*
X7575000Y25285000D01*
G75*
G02*
X7375000Y25085000I-200000J0D01*
G01*
X6975000Y25085000D01*
G75*
G02*
X6775000Y25285000I0J200000D01*
G01*
G37*
G36*
G01*
X8425000Y23685000D02*
X8425000Y24235000D01*
G75*
G02*
X8625000Y24435000I200000J0D01*
G01*
X9025000Y24435000D01*
G75*
G02*
X9225000Y24235000I0J-200000D01*
G01*
X9225000Y23685000D01*
G75*
G02*
X9025000Y23485000I-200000J0D01*
G01*
X8625000Y23485000D01*
G75*
G02*
X8425000Y23685000I0J200000D01*
G01*
G37*
G36*
G01*
X6775000Y23685000D02*
X6775000Y24235000D01*
G75*
G02*
X6975000Y24435000I200000J0D01*
G01*
X7375000Y24435000D01*
G75*
G02*
X7575000Y24235000I0J-200000D01*
G01*
X7575000Y23685000D01*
G75*
G02*
X7375000Y23485000I-200000J0D01*
G01*
X6975000Y23485000D01*
G75*
G02*
X6775000Y23685000I0J200000D01*
G01*
G37*
G36*
G01*
X34125000Y29285000D02*
X34125000Y29835000D01*
G75*
G02*
X34325000Y30035000I200000J0D01*
G01*
X34725000Y30035000D01*
G75*
G02*
X34925000Y29835000I0J-200000D01*
G01*
X34925000Y29285000D01*
G75*
G02*
X34725000Y29085000I-200000J0D01*
G01*
X34325000Y29085000D01*
G75*
G02*
X34125000Y29285000I0J200000D01*
G01*
G37*
G36*
G01*
X32475000Y29285000D02*
X32475000Y29835000D01*
G75*
G02*
X32675000Y30035000I200000J0D01*
G01*
X33075000Y30035000D01*
G75*
G02*
X33275000Y29835000I0J-200000D01*
G01*
X33275000Y29285000D01*
G75*
G02*
X33075000Y29085000I-200000J0D01*
G01*
X32675000Y29085000D01*
G75*
G02*
X32475000Y29285000I0J200000D01*
G01*
G37*
G36*
G01*
X10775000Y24250000D02*
X10775000Y23750000D01*
G75*
G02*
X10550000Y23525000I-225000J0D01*
G01*
X10100000Y23525000D01*
G75*
G02*
X9875000Y23750000I0J225000D01*
G01*
X9875000Y24250000D01*
G75*
G02*
X10100000Y24475000I225000J0D01*
G01*
X10550000Y24475000D01*
G75*
G02*
X10775000Y24250000I0J-225000D01*
G01*
G37*
G36*
G01*
X12325000Y24250000D02*
X12325000Y23750000D01*
G75*
G02*
X12100000Y23525000I-225000J0D01*
G01*
X11650000Y23525000D01*
G75*
G02*
X11425000Y23750000I0J225000D01*
G01*
X11425000Y24250000D01*
G75*
G02*
X11650000Y24475000I225000J0D01*
G01*
X12100000Y24475000D01*
G75*
G02*
X12325000Y24250000I0J-225000D01*
G01*
G37*
G36*
G01*
X29700000Y29360000D02*
X29700000Y29760000D01*
G75*
G02*
X29900000Y29960000I200000J0D01*
G01*
X31300000Y29960000D01*
G75*
G02*
X31500000Y29760000I0J-200000D01*
G01*
X31500000Y29360000D01*
G75*
G02*
X31300000Y29160000I-200000J0D01*
G01*
X29900000Y29160000D01*
G75*
G02*
X29700000Y29360000I0J200000D01*
G01*
G37*
G36*
G01*
X29700000Y28260000D02*
X29700000Y28660000D01*
G75*
G02*
X29900000Y28860000I200000J0D01*
G01*
X31300000Y28860000D01*
G75*
G02*
X31500000Y28660000I0J-200000D01*
G01*
X31500000Y28260000D01*
G75*
G02*
X31300000Y28060000I-200000J0D01*
G01*
X29900000Y28060000D01*
G75*
G02*
X29700000Y28260000I0J200000D01*
G01*
G37*
G36*
G01*
X29700000Y27160000D02*
X29700000Y27560000D01*
G75*
G02*
X29900000Y27760000I200000J0D01*
G01*
X31300000Y27760000D01*
G75*
G02*
X31500000Y27560000I0J-200000D01*
G01*
X31500000Y27160000D01*
G75*
G02*
X31300000Y26960000I-200000J0D01*
G01*
X29900000Y26960000D01*
G75*
G02*
X29700000Y27160000I0J200000D01*
G01*
G37*
G36*
G01*
X29700000Y26060000D02*
X29700000Y26460000D01*
G75*
G02*
X29900000Y26660000I200000J0D01*
G01*
X31300000Y26660000D01*
G75*
G02*
X31500000Y26460000I0J-200000D01*
G01*
X31500000Y26060000D01*
G75*
G02*
X31300000Y25860000I-200000J0D01*
G01*
X29900000Y25860000D01*
G75*
G02*
X29700000Y26060000I0J200000D01*
G01*
G37*
G36*
G01*
X29700000Y24960000D02*
X29700000Y25360000D01*
G75*
G02*
X29900000Y25560000I200000J0D01*
G01*
X31300000Y25560000D01*
G75*
G02*
X31500000Y25360000I0J-200000D01*
G01*
X31500000Y24960000D01*
G75*
G02*
X31300000Y24760000I-200000J0D01*
G01*
X29900000Y24760000D01*
G75*
G02*
X29700000Y24960000I0J200000D01*
G01*
G37*
G36*
G01*
X29700000Y23860000D02*
X29700000Y24260000D01*
G75*
G02*
X29900000Y24460000I200000J0D01*
G01*
X31300000Y24460000D01*
G75*
G02*
X31500000Y24260000I0J-200000D01*
G01*
X31500000Y23860000D01*
G75*
G02*
X31300000Y23660000I-200000J0D01*
G01*
X29900000Y23660000D01*
G75*
G02*
X29700000Y23860000I0J200000D01*
G01*
G37*
G36*
G01*
X29700000Y22760000D02*
X29700000Y23160000D01*
G75*
G02*
X29900000Y23360000I200000J0D01*
G01*
X31300000Y23360000D01*
G75*
G02*
X31500000Y23160000I0J-200000D01*
G01*
X31500000Y22760000D01*
G75*
G02*
X31300000Y22560000I-200000J0D01*
G01*
X29900000Y22560000D01*
G75*
G02*
X29700000Y22760000I0J200000D01*
G01*
G37*
G36*
G01*
X29700000Y21660000D02*
X29700000Y22060000D01*
G75*
G02*
X29900000Y22260000I200000J0D01*
G01*
X31300000Y22260000D01*
G75*
G02*
X31500000Y22060000I0J-200000D01*
G01*
X31500000Y21660000D01*
G75*
G02*
X31300000Y21460000I-200000J0D01*
G01*
X29900000Y21460000D01*
G75*
G02*
X29700000Y21660000I0J200000D01*
G01*
G37*
G36*
G01*
X29700000Y17860000D02*
X29700000Y18260000D01*
G75*
G02*
X29900000Y18460000I200000J0D01*
G01*
X31300000Y18460000D01*
G75*
G02*
X31500000Y18260000I0J-200000D01*
G01*
X31500000Y17860000D01*
G75*
G02*
X31300000Y17660000I-200000J0D01*
G01*
X29900000Y17660000D01*
G75*
G02*
X29700000Y17860000I0J200000D01*
G01*
G37*
G36*
G01*
X29700000Y16760000D02*
X29700000Y17160000D01*
G75*
G02*
X29900000Y17360000I200000J0D01*
G01*
X31300000Y17360000D01*
G75*
G02*
X31500000Y17160000I0J-200000D01*
G01*
X31500000Y16760000D01*
G75*
G02*
X31300000Y16560000I-200000J0D01*
G01*
X29900000Y16560000D01*
G75*
G02*
X29700000Y16760000I0J200000D01*
G01*
G37*
G36*
G01*
X29700000Y15660000D02*
X29700000Y16060000D01*
G75*
G02*
X29900000Y16260000I200000J0D01*
G01*
X31300000Y16260000D01*
G75*
G02*
X31500000Y16060000I0J-200000D01*
G01*
X31500000Y15660000D01*
G75*
G02*
X31300000Y15460000I-200000J0D01*
G01*
X29900000Y15460000D01*
G75*
G02*
X29700000Y15660000I0J200000D01*
G01*
G37*
G36*
G01*
X29700000Y14560000D02*
X29700000Y14960000D01*
G75*
G02*
X29900000Y15160000I200000J0D01*
G01*
X31300000Y15160000D01*
G75*
G02*
X31500000Y14960000I0J-200000D01*
G01*
X31500000Y14560000D01*
G75*
G02*
X31300000Y14360000I-200000J0D01*
G01*
X29900000Y14360000D01*
G75*
G02*
X29700000Y14560000I0J200000D01*
G01*
G37*
G36*
G01*
X29700000Y13460000D02*
X29700000Y13860000D01*
G75*
G02*
X29900000Y14060000I200000J0D01*
G01*
X31300000Y14060000D01*
G75*
G02*
X31500000Y13860000I0J-200000D01*
G01*
X31500000Y13460000D01*
G75*
G02*
X31300000Y13260000I-200000J0D01*
G01*
X29900000Y13260000D01*
G75*
G02*
X29700000Y13460000I0J200000D01*
G01*
G37*
G36*
G01*
X29700000Y12360000D02*
X29700000Y12760000D01*
G75*
G02*
X29900000Y12960000I200000J0D01*
G01*
X31300000Y12960000D01*
G75*
G02*
X31500000Y12760000I0J-200000D01*
G01*
X31500000Y12360000D01*
G75*
G02*
X31300000Y12160000I-200000J0D01*
G01*
X29900000Y12160000D01*
G75*
G02*
X29700000Y12360000I0J200000D01*
G01*
G37*
G36*
G01*
X12900000Y12360000D02*
X12900000Y12760000D01*
G75*
G02*
X13100000Y12960000I200000J0D01*
G01*
X14500000Y12960000D01*
G75*
G02*
X14700000Y12760000I0J-200000D01*
G01*
X14700000Y12360000D01*
G75*
G02*
X14500000Y12160000I-200000J0D01*
G01*
X13100000Y12160000D01*
G75*
G02*
X12900000Y12360000I0J200000D01*
G01*
G37*
G36*
G01*
X12900000Y13460000D02*
X12900000Y13860000D01*
G75*
G02*
X13100000Y14060000I200000J0D01*
G01*
X14500000Y14060000D01*
G75*
G02*
X14700000Y13860000I0J-200000D01*
G01*
X14700000Y13460000D01*
G75*
G02*
X14500000Y13260000I-200000J0D01*
G01*
X13100000Y13260000D01*
G75*
G02*
X12900000Y13460000I0J200000D01*
G01*
G37*
G36*
G01*
X12900000Y14560000D02*
X12900000Y14960000D01*
G75*
G02*
X13100000Y15160000I200000J0D01*
G01*
X14500000Y15160000D01*
G75*
G02*
X14700000Y14960000I0J-200000D01*
G01*
X14700000Y14560000D01*
G75*
G02*
X14500000Y14360000I-200000J0D01*
G01*
X13100000Y14360000D01*
G75*
G02*
X12900000Y14560000I0J200000D01*
G01*
G37*
G36*
G01*
X12900000Y15660000D02*
X12900000Y16060000D01*
G75*
G02*
X13100000Y16260000I200000J0D01*
G01*
X14500000Y16260000D01*
G75*
G02*
X14700000Y16060000I0J-200000D01*
G01*
X14700000Y15660000D01*
G75*
G02*
X14500000Y15460000I-200000J0D01*
G01*
X13100000Y15460000D01*
G75*
G02*
X12900000Y15660000I0J200000D01*
G01*
G37*
G36*
G01*
X12900000Y16760000D02*
X12900000Y17160000D01*
G75*
G02*
X13100000Y17360000I200000J0D01*
G01*
X14500000Y17360000D01*
G75*
G02*
X14700000Y17160000I0J-200000D01*
G01*
X14700000Y16760000D01*
G75*
G02*
X14500000Y16560000I-200000J0D01*
G01*
X13100000Y16560000D01*
G75*
G02*
X12900000Y16760000I0J200000D01*
G01*
G37*
G36*
G01*
X12900000Y17860000D02*
X12900000Y18260000D01*
G75*
G02*
X13100000Y18460000I200000J0D01*
G01*
X14500000Y18460000D01*
G75*
G02*
X14700000Y18260000I0J-200000D01*
G01*
X14700000Y17860000D01*
G75*
G02*
X14500000Y17660000I-200000J0D01*
G01*
X13100000Y17660000D01*
G75*
G02*
X12900000Y17860000I0J200000D01*
G01*
G37*
G36*
G01*
X12900000Y21660000D02*
X12900000Y22060000D01*
G75*
G02*
X13100000Y22260000I200000J0D01*
G01*
X14500000Y22260000D01*
G75*
G02*
X14700000Y22060000I0J-200000D01*
G01*
X14700000Y21660000D01*
G75*
G02*
X14500000Y21460000I-200000J0D01*
G01*
X13100000Y21460000D01*
G75*
G02*
X12900000Y21660000I0J200000D01*
G01*
G37*
G36*
G01*
X12900000Y22760000D02*
X12900000Y23160000D01*
G75*
G02*
X13100000Y23360000I200000J0D01*
G01*
X14500000Y23360000D01*
G75*
G02*
X14700000Y23160000I0J-200000D01*
G01*
X14700000Y22760000D01*
G75*
G02*
X14500000Y22560000I-200000J0D01*
G01*
X13100000Y22560000D01*
G75*
G02*
X12900000Y22760000I0J200000D01*
G01*
G37*
G36*
G01*
X12900000Y23860000D02*
X12900000Y24260000D01*
G75*
G02*
X13100000Y24460000I200000J0D01*
G01*
X14500000Y24460000D01*
G75*
G02*
X14700000Y24260000I0J-200000D01*
G01*
X14700000Y23860000D01*
G75*
G02*
X14500000Y23660000I-200000J0D01*
G01*
X13100000Y23660000D01*
G75*
G02*
X12900000Y23860000I0J200000D01*
G01*
G37*
G36*
G01*
X12900000Y24960000D02*
X12900000Y25360000D01*
G75*
G02*
X13100000Y25560000I200000J0D01*
G01*
X14500000Y25560000D01*
G75*
G02*
X14700000Y25360000I0J-200000D01*
G01*
X14700000Y24960000D01*
G75*
G02*
X14500000Y24760000I-200000J0D01*
G01*
X13100000Y24760000D01*
G75*
G02*
X12900000Y24960000I0J200000D01*
G01*
G37*
G36*
G01*
X12900000Y26060000D02*
X12900000Y26460000D01*
G75*
G02*
X13100000Y26660000I200000J0D01*
G01*
X14500000Y26660000D01*
G75*
G02*
X14700000Y26460000I0J-200000D01*
G01*
X14700000Y26060000D01*
G75*
G02*
X14500000Y25860000I-200000J0D01*
G01*
X13100000Y25860000D01*
G75*
G02*
X12900000Y26060000I0J200000D01*
G01*
G37*
G36*
G01*
X12900000Y27160000D02*
X12900000Y27560000D01*
G75*
G02*
X13100000Y27760000I200000J0D01*
G01*
X14500000Y27760000D01*
G75*
G02*
X14700000Y27560000I0J-200000D01*
G01*
X14700000Y27160000D01*
G75*
G02*
X14500000Y26960000I-200000J0D01*
G01*
X13100000Y26960000D01*
G75*
G02*
X12900000Y27160000I0J200000D01*
G01*
G37*
G36*
G01*
X12900000Y28260000D02*
X12900000Y28660000D01*
G75*
G02*
X13100000Y28860000I200000J0D01*
G01*
X14500000Y28860000D01*
G75*
G02*
X14700000Y28660000I0J-200000D01*
G01*
X14700000Y28260000D01*
G75*
G02*
X14500000Y28060000I-200000J0D01*
G01*
X13100000Y28060000D01*
G75*
G02*
X12900000Y28260000I0J200000D01*
G01*
G37*
G36*
G01*
X12900000Y29360000D02*
X12900000Y29760000D01*
G75*
G02*
X13100000Y29960000I200000J0D01*
G01*
X14500000Y29960000D01*
G75*
G02*
X14700000Y29760000I0J-200000D01*
G01*
X14700000Y29360000D01*
G75*
G02*
X14500000Y29160000I-200000J0D01*
G01*
X13100000Y29160000D01*
G75*
G02*
X12900000Y29360000I0J200000D01*
G01*
G37*
D19*
X40900000Y22660000D03*
X40900000Y23610000D03*
X40900000Y21710000D03*
X38700000Y21710000D03*
X38700000Y22660000D03*
X38700000Y23610000D03*
M02*
