G04 #@! TF.GenerationSoftware,KiCad,Pcbnew,5.1.9-5.1.9*
G04 #@! TF.CreationDate,2021-01-19T08:54:29+01:00*
G04 #@! TF.ProjectId,ublox-breakout,75626c6f-782d-4627-9265-616b6f75742e,rev?*
G04 #@! TF.SameCoordinates,PX71f6ce0PY5d47650*
G04 #@! TF.FileFunction,Copper,L2,Inr*
G04 #@! TF.FilePolarity,Positive*
%FSLAX46Y46*%
G04 Gerber Fmt 4.6, Leading zero omitted, Abs format (unit mm)*
G04 Created by KiCad (PCBNEW 5.1.9-5.1.9) date 2021-01-19 08:54:29*
%MOMM*%
%LPD*%
G01*
G04 APERTURE LIST*
G04 #@! TA.AperFunction,ComponentPad*
%ADD10C,2.250000*%
G04 #@! TD*
G04 #@! TA.AperFunction,ComponentPad*
%ADD11C,2.050000*%
G04 #@! TD*
G04 #@! TA.AperFunction,ComponentPad*
%ADD12C,0.700000*%
G04 #@! TD*
G04 #@! TA.AperFunction,ComponentPad*
%ADD13C,4.400000*%
G04 #@! TD*
G04 #@! TA.AperFunction,ComponentPad*
%ADD14R,1.700000X1.700000*%
G04 #@! TD*
G04 #@! TA.AperFunction,ComponentPad*
%ADD15O,1.700000X1.700000*%
G04 #@! TD*
G04 #@! TA.AperFunction,ViaPad*
%ADD16C,0.800000*%
G04 #@! TD*
G04 #@! TA.AperFunction,Conductor*
%ADD17C,0.250000*%
G04 #@! TD*
G04 #@! TA.AperFunction,Conductor*
%ADD18C,0.100000*%
G04 #@! TD*
G04 APERTURE END LIST*
D10*
X18340000Y-25810000D03*
X18340000Y-30890000D03*
X13260000Y-30890000D03*
X13260000Y-25810000D03*
D11*
X15800000Y-28350000D03*
D12*
X4166726Y-29023274D03*
X3000000Y-28540000D03*
X1833274Y-29023274D03*
X1350000Y-30190000D03*
X1833274Y-31356726D03*
X3000000Y-31840000D03*
X4166726Y-31356726D03*
X4650000Y-30190000D03*
D13*
X3000000Y-30190000D03*
D12*
X45366726Y-29023274D03*
X44200000Y-28540000D03*
X43033274Y-29023274D03*
X42550000Y-30190000D03*
X43033274Y-31356726D03*
X44200000Y-31840000D03*
X45366726Y-31356726D03*
X45850000Y-30190000D03*
D13*
X44200000Y-30190000D03*
D12*
X45366726Y-1823274D03*
X44200000Y-1340000D03*
X43033274Y-1823274D03*
X42550000Y-2990000D03*
X43033274Y-4156726D03*
X44200000Y-4640000D03*
X45366726Y-4156726D03*
X45850000Y-2990000D03*
D13*
X44200000Y-2990000D03*
D12*
X4166726Y-1823274D03*
X3000000Y-1340000D03*
X1833274Y-1823274D03*
X1350000Y-2990000D03*
X1833274Y-4156726D03*
X3000000Y-4640000D03*
X4166726Y-4156726D03*
X4650000Y-2990000D03*
D13*
X3000000Y-2990000D03*
D14*
X2000000Y-11150000D03*
D15*
X4540000Y-11150000D03*
X2000000Y-13690000D03*
X4540000Y-13690000D03*
X2000000Y-16230000D03*
X4540000Y-16230000D03*
X2000000Y-18770000D03*
X4540000Y-18770000D03*
X2000000Y-21310000D03*
X4540000Y-21310000D03*
X2000000Y-23850000D03*
X4540000Y-23850000D03*
D10*
X40260000Y-23730000D03*
X40260000Y-18650000D03*
X45340000Y-18650000D03*
X45340000Y-23730000D03*
D11*
X42800000Y-21190000D03*
D16*
X27800000Y-12500000D03*
X18600000Y-12400000D03*
X42700000Y-13240000D03*
X43550000Y-12540000D03*
X46000000Y-14190000D03*
X45400000Y-13290000D03*
X46300000Y-12090000D03*
X45100000Y-12090000D03*
X46300000Y-10990000D03*
X45100000Y-10990000D03*
X45700000Y-8840000D03*
X43550000Y-8240000D03*
X42700000Y-7540000D03*
X46000000Y-7490000D03*
X45400000Y-6540000D03*
X38582041Y-19983867D03*
X37428372Y-19240568D03*
X36206027Y-18564035D03*
X34818139Y-18390000D03*
X33412092Y-18390000D03*
X32200000Y-20790000D03*
X33412092Y-20790000D03*
X34818139Y-20790000D03*
X36079434Y-21266490D03*
X37220780Y-22072672D03*
X38581890Y-22387461D03*
X32200000Y-18390000D03*
X34500000Y-13100000D03*
X12300000Y-20750000D03*
X15300000Y-20750000D03*
X35400000Y-16800000D03*
X9800000Y-15650000D03*
X10300000Y-10350000D03*
X15300000Y-10250000D03*
X12200000Y-11450000D03*
X11700000Y-14050000D03*
X10600000Y-14800000D03*
X15300000Y-19650000D03*
X29100000Y-18550000D03*
X29100000Y-20750000D03*
X41402000Y-9070000D03*
X6050000Y-1950000D03*
X6050000Y-3050000D03*
X44100000Y-17100000D03*
X37300000Y-16054000D03*
X1191667Y-6492500D03*
X1191667Y-26292500D03*
X5591667Y-26292500D03*
X6691667Y-29592500D03*
X8891667Y-27392500D03*
X8891667Y-31792500D03*
X11091667Y-29592500D03*
X13291667Y-13092500D03*
X15491667Y-7592500D03*
X16591667Y-11992500D03*
X15591667Y-25192500D03*
X15591667Y-31792500D03*
X17691667Y-3192500D03*
X17691667Y-18592500D03*
X18791667Y-6492500D03*
X23191667Y-22992500D03*
X26491667Y-3192500D03*
X27591667Y-7592500D03*
X27591667Y-20792500D03*
X28625000Y-23650000D03*
X36391667Y-2800000D03*
X35400000Y-11000000D03*
X36391667Y-24092500D03*
X37491667Y-6492500D03*
X41700000Y-5100000D03*
X42991667Y-24092500D03*
X46100000Y-26292500D03*
X40900000Y-14400000D03*
X39900000Y-8308000D03*
X22600000Y-27650000D03*
X22600000Y-30700000D03*
X27559000Y-26850000D03*
X27559000Y-29898000D03*
X10795000Y-8181000D03*
X6096000Y-4625000D03*
X15300000Y-9250000D03*
X7950000Y-20300000D03*
X35052000Y-32057000D03*
X11500000Y-1400000D03*
X13100000Y-1400000D03*
X39100000Y-1999994D03*
X26670000Y-28374000D03*
X26543000Y-31295000D03*
X33147000Y-30152000D03*
X39100000Y-7400000D03*
X39900000Y-14400000D03*
X34525000Y-2725000D03*
X15300000Y-3650000D03*
X15300000Y-4750000D03*
X32900000Y-2750000D03*
X30100000Y-25150000D03*
X12100000Y-16750000D03*
X29139996Y-15190010D03*
X12200000Y-14949996D03*
X28650000Y-4800000D03*
X12200000Y-8050000D03*
X10750000Y-21550000D03*
D17*
X2593255Y-434711D02*
X2102558Y-563163D01*
X1646350Y-784876D01*
X1480749Y-895527D01*
X1238096Y-1225268D01*
X3000000Y-2987172D01*
X4761904Y-1225268D01*
X4519251Y-895527D01*
X4081448Y-639380D01*
X3602084Y-473567D01*
X3176235Y-415000D01*
X44123147Y-415000D01*
X43793255Y-434711D01*
X43302558Y-563163D01*
X42846350Y-784876D01*
X42680749Y-895527D01*
X42438096Y-1225268D01*
X44200000Y-2987172D01*
X45961904Y-1225268D01*
X45719251Y-895527D01*
X45281448Y-639380D01*
X44802084Y-473567D01*
X44376235Y-415000D01*
X46179210Y-415000D01*
X46311290Y-427951D01*
X46418339Y-460271D01*
X46517076Y-512770D01*
X46603725Y-583439D01*
X46675008Y-669605D01*
X46728193Y-767968D01*
X46761258Y-874786D01*
X46775001Y-1005534D01*
X46775001Y-2913163D01*
X46755289Y-2583255D01*
X46626837Y-2092558D01*
X46405124Y-1636350D01*
X46294473Y-1470749D01*
X45964732Y-1228096D01*
X44202828Y-2990000D01*
X45964732Y-4751904D01*
X46294473Y-4509251D01*
X46550620Y-4071448D01*
X46716433Y-3592084D01*
X46775001Y-3166229D01*
X46775001Y-5425000D01*
X45066259Y-5425000D01*
X45097442Y-5416837D01*
X45553650Y-5195124D01*
X45719251Y-5084473D01*
X45961904Y-4754732D01*
X44200000Y-2992828D01*
X42438096Y-4754732D01*
X42680749Y-5084473D01*
X43118552Y-5340620D01*
X43362494Y-5425000D01*
X41800000Y-5425000D01*
X41775614Y-5427402D01*
X41752165Y-5434515D01*
X41730554Y-5446066D01*
X41711612Y-5461612D01*
X41696066Y-5480554D01*
X41684515Y-5502165D01*
X41677402Y-5525614D01*
X41675000Y-5550000D01*
X41675000Y-8750000D01*
X41677402Y-8774386D01*
X41684515Y-8797835D01*
X41696066Y-8819446D01*
X41711612Y-8838388D01*
X41730554Y-8853934D01*
X41752165Y-8865485D01*
X41775614Y-8872598D01*
X41800000Y-8875000D01*
X42100000Y-8875000D01*
X42124386Y-8872598D01*
X42147835Y-8865485D01*
X42169446Y-8853934D01*
X42188388Y-8838388D01*
X42203934Y-8819446D01*
X42215485Y-8797835D01*
X42222598Y-8774386D01*
X42225000Y-8750000D01*
X42225000Y-5975000D01*
X46775001Y-5975000D01*
X46775001Y-14825000D01*
X42225000Y-14825000D01*
X42225000Y-9450000D01*
X42222598Y-9425614D01*
X42215485Y-9402165D01*
X42203934Y-9380554D01*
X42188388Y-9361612D01*
X42169446Y-9346066D01*
X42147835Y-9334515D01*
X42124386Y-9327402D01*
X42100000Y-9325000D01*
X41800000Y-9325000D01*
X41775614Y-9327402D01*
X41752165Y-9334515D01*
X41730554Y-9346066D01*
X41711612Y-9361612D01*
X41696066Y-9380554D01*
X41684515Y-9402165D01*
X41677402Y-9425614D01*
X41675000Y-9450000D01*
X41675000Y-15250000D01*
X41677402Y-15274386D01*
X41684515Y-15297835D01*
X41696066Y-15319446D01*
X41711612Y-15338388D01*
X41730554Y-15353934D01*
X41752165Y-15365485D01*
X41775614Y-15372598D01*
X41800000Y-15375000D01*
X46775001Y-15375000D01*
X46775000Y-18208759D01*
X46753402Y-18126437D01*
X46624102Y-17860756D01*
X46560572Y-17765675D01*
X46340915Y-17651914D01*
X45342828Y-18650000D01*
X46340915Y-19648086D01*
X46560572Y-19534325D01*
X46709642Y-19279212D01*
X46775000Y-19089924D01*
X46775000Y-23288759D01*
X46753402Y-23206437D01*
X46624102Y-22940756D01*
X46560572Y-22845675D01*
X46340915Y-22731914D01*
X45342828Y-23730000D01*
X46340915Y-24728086D01*
X46560572Y-24614325D01*
X46709642Y-24359212D01*
X46775000Y-24169924D01*
X46775000Y-30113148D01*
X46755289Y-29783255D01*
X46626837Y-29292558D01*
X46405124Y-28836350D01*
X46294473Y-28670749D01*
X45964732Y-28428096D01*
X44202828Y-30190000D01*
X45964732Y-31951904D01*
X46294473Y-31709251D01*
X46550620Y-31271448D01*
X46716433Y-30792084D01*
X46775000Y-30366235D01*
X46775000Y-32169210D01*
X46762049Y-32301289D01*
X46729729Y-32408339D01*
X46677231Y-32507074D01*
X46606558Y-32593728D01*
X46520396Y-32665007D01*
X46422031Y-32718193D01*
X46315213Y-32751259D01*
X46184475Y-32765000D01*
X44276853Y-32765000D01*
X44606745Y-32745289D01*
X45097442Y-32616837D01*
X45553650Y-32395124D01*
X45719251Y-32284473D01*
X45961904Y-31954732D01*
X44200000Y-30192828D01*
X42438096Y-31954732D01*
X42680749Y-32284473D01*
X43118552Y-32540620D01*
X43597916Y-32706433D01*
X44023765Y-32765000D01*
X35367909Y-32765000D01*
X35419100Y-32743796D01*
X35546034Y-32658982D01*
X35653982Y-32551034D01*
X35738796Y-32424100D01*
X35797217Y-32283059D01*
X35827000Y-32133331D01*
X35827000Y-31980669D01*
X35797217Y-31830941D01*
X35738796Y-31689900D01*
X35653982Y-31562966D01*
X35546034Y-31455018D01*
X35419100Y-31370204D01*
X35278059Y-31311783D01*
X35128331Y-31282000D01*
X34975669Y-31282000D01*
X34825941Y-31311783D01*
X34684900Y-31370204D01*
X34557966Y-31455018D01*
X34450018Y-31562966D01*
X34365204Y-31689900D01*
X34306783Y-31830941D01*
X34277000Y-31980669D01*
X34277000Y-32133331D01*
X34306783Y-32283059D01*
X34365204Y-32424100D01*
X34450018Y-32551034D01*
X34557966Y-32658982D01*
X34684900Y-32743796D01*
X34736091Y-32765000D01*
X3076853Y-32765000D01*
X3406745Y-32745289D01*
X3897442Y-32616837D01*
X4353650Y-32395124D01*
X4519251Y-32284473D01*
X4761904Y-31954732D01*
X3000000Y-30192828D01*
X1238096Y-31954732D01*
X1480749Y-32284473D01*
X1918552Y-32540620D01*
X2397916Y-32706433D01*
X2823765Y-32765000D01*
X1020790Y-32765000D01*
X888711Y-32752049D01*
X781661Y-32719729D01*
X682926Y-32667231D01*
X596272Y-32596558D01*
X524993Y-32510396D01*
X471807Y-32412031D01*
X438741Y-32305213D01*
X425000Y-32174475D01*
X425000Y-30266853D01*
X444711Y-30596745D01*
X573163Y-31087442D01*
X794876Y-31543650D01*
X905527Y-31709251D01*
X1235268Y-31951904D01*
X2997172Y-30190000D01*
X3002828Y-30190000D01*
X4764732Y-31951904D01*
X4847609Y-31890915D01*
X12261914Y-31890915D01*
X12375675Y-32110572D01*
X12630788Y-32259642D01*
X12910082Y-32356078D01*
X13202823Y-32396173D01*
X13497762Y-32378386D01*
X13783563Y-32303402D01*
X14049244Y-32174102D01*
X14144325Y-32110572D01*
X14258086Y-31890915D01*
X17341914Y-31890915D01*
X17455675Y-32110572D01*
X17710788Y-32259642D01*
X17990082Y-32356078D01*
X18282823Y-32396173D01*
X18577762Y-32378386D01*
X18863563Y-32303402D01*
X19129244Y-32174102D01*
X19224325Y-32110572D01*
X19338086Y-31890915D01*
X18340000Y-30892828D01*
X17341914Y-31890915D01*
X14258086Y-31890915D01*
X13260000Y-30892828D01*
X12261914Y-31890915D01*
X4847609Y-31890915D01*
X5094473Y-31709251D01*
X5350620Y-31271448D01*
X5502341Y-30832823D01*
X11753827Y-30832823D01*
X11771614Y-31127762D01*
X11846598Y-31413563D01*
X11975898Y-31679244D01*
X12039428Y-31774325D01*
X12259085Y-31888086D01*
X13257172Y-30890000D01*
X13262828Y-30890000D01*
X14260915Y-31888086D01*
X14480572Y-31774325D01*
X14629642Y-31519212D01*
X14726078Y-31239918D01*
X14766173Y-30947177D01*
X14759277Y-30832823D01*
X16833827Y-30832823D01*
X16851614Y-31127762D01*
X16926598Y-31413563D01*
X17055898Y-31679244D01*
X17119428Y-31774325D01*
X17339085Y-31888086D01*
X18337172Y-30890000D01*
X18342828Y-30890000D01*
X19340915Y-31888086D01*
X19560572Y-31774325D01*
X19709642Y-31519212D01*
X19806078Y-31239918D01*
X19808988Y-31218669D01*
X25768000Y-31218669D01*
X25768000Y-31371331D01*
X25797783Y-31521059D01*
X25856204Y-31662100D01*
X25941018Y-31789034D01*
X26048966Y-31896982D01*
X26175900Y-31981796D01*
X26316941Y-32040217D01*
X26466669Y-32070000D01*
X26619331Y-32070000D01*
X26769059Y-32040217D01*
X26910100Y-31981796D01*
X27037034Y-31896982D01*
X27144982Y-31789034D01*
X27229796Y-31662100D01*
X27288217Y-31521059D01*
X27318000Y-31371331D01*
X27318000Y-31218669D01*
X27288217Y-31068941D01*
X27229796Y-30927900D01*
X27144982Y-30800966D01*
X27037034Y-30693018D01*
X26910100Y-30608204D01*
X26769059Y-30549783D01*
X26619331Y-30520000D01*
X26466669Y-30520000D01*
X26316941Y-30549783D01*
X26175900Y-30608204D01*
X26048966Y-30693018D01*
X25941018Y-30800966D01*
X25856204Y-30927900D01*
X25797783Y-31068941D01*
X25768000Y-31218669D01*
X19808988Y-31218669D01*
X19846173Y-30947177D01*
X19828386Y-30652238D01*
X19753402Y-30366437D01*
X19624102Y-30100756D01*
X19607340Y-30075669D01*
X32372000Y-30075669D01*
X32372000Y-30228331D01*
X32401783Y-30378059D01*
X32460204Y-30519100D01*
X32545018Y-30646034D01*
X32652966Y-30753982D01*
X32779900Y-30838796D01*
X32920941Y-30897217D01*
X33070669Y-30927000D01*
X33223331Y-30927000D01*
X33373059Y-30897217D01*
X33514100Y-30838796D01*
X33641034Y-30753982D01*
X33748982Y-30646034D01*
X33833796Y-30519100D01*
X33892217Y-30378059D01*
X33922000Y-30228331D01*
X33922000Y-30090417D01*
X41614458Y-30090417D01*
X41644711Y-30596745D01*
X41773163Y-31087442D01*
X41994876Y-31543650D01*
X42105527Y-31709251D01*
X42435268Y-31951904D01*
X44197172Y-30190000D01*
X42435268Y-28428096D01*
X42105527Y-28670749D01*
X41849380Y-29108552D01*
X41683567Y-29587916D01*
X41614458Y-30090417D01*
X33922000Y-30090417D01*
X33922000Y-30075669D01*
X33892217Y-29925941D01*
X33833796Y-29784900D01*
X33748982Y-29657966D01*
X33641034Y-29550018D01*
X33514100Y-29465204D01*
X33373059Y-29406783D01*
X33223331Y-29377000D01*
X33070669Y-29377000D01*
X32920941Y-29406783D01*
X32779900Y-29465204D01*
X32652966Y-29550018D01*
X32545018Y-29657966D01*
X32460204Y-29784900D01*
X32401783Y-29925941D01*
X32372000Y-30075669D01*
X19607340Y-30075669D01*
X19560572Y-30005675D01*
X19340915Y-29891914D01*
X18342828Y-30890000D01*
X18337172Y-30890000D01*
X17339085Y-29891914D01*
X17119428Y-30005675D01*
X16970358Y-30260788D01*
X16873922Y-30540082D01*
X16833827Y-30832823D01*
X14759277Y-30832823D01*
X14748386Y-30652238D01*
X14673402Y-30366437D01*
X14544102Y-30100756D01*
X14480572Y-30005675D01*
X14260915Y-29891914D01*
X13262828Y-30890000D01*
X13257172Y-30890000D01*
X12259085Y-29891914D01*
X12039428Y-30005675D01*
X11890358Y-30260788D01*
X11793922Y-30540082D01*
X11753827Y-30832823D01*
X5502341Y-30832823D01*
X5516433Y-30792084D01*
X5585542Y-30289583D01*
X5561613Y-29889085D01*
X12261914Y-29889085D01*
X13260000Y-30887172D01*
X14258086Y-29889085D01*
X14144325Y-29669428D01*
X13889212Y-29520358D01*
X13609918Y-29423922D01*
X13317177Y-29383827D01*
X13022238Y-29401614D01*
X12736437Y-29476598D01*
X12470756Y-29605898D01*
X12375675Y-29669428D01*
X12261914Y-29889085D01*
X5561613Y-29889085D01*
X5555289Y-29783255D01*
X5426837Y-29292558D01*
X5205124Y-28836350D01*
X5094473Y-28670749D01*
X4764732Y-28428096D01*
X3002828Y-30190000D01*
X2997172Y-30190000D01*
X1235268Y-28428096D01*
X905527Y-28670749D01*
X649380Y-29108552D01*
X483567Y-29587916D01*
X425000Y-30013765D01*
X425000Y-28425268D01*
X1238096Y-28425268D01*
X3000000Y-30187172D01*
X4761904Y-28425268D01*
X4576054Y-28172716D01*
X14000000Y-28172716D01*
X14000000Y-28527284D01*
X14069173Y-28875041D01*
X14204861Y-29202620D01*
X14401849Y-29497433D01*
X14652567Y-29748151D01*
X14947380Y-29945139D01*
X15274959Y-30080827D01*
X15622716Y-30150000D01*
X15977284Y-30150000D01*
X16325041Y-30080827D01*
X16652620Y-29945139D01*
X16736510Y-29889085D01*
X17341914Y-29889085D01*
X18340000Y-30887172D01*
X19338086Y-29889085D01*
X19224325Y-29669428D01*
X18969212Y-29520358D01*
X18689918Y-29423922D01*
X18397177Y-29383827D01*
X18102238Y-29401614D01*
X17816437Y-29476598D01*
X17550756Y-29605898D01*
X17455675Y-29669428D01*
X17341914Y-29889085D01*
X16736510Y-29889085D01*
X16947433Y-29748151D01*
X17198151Y-29497433D01*
X17395139Y-29202620D01*
X17530827Y-28875041D01*
X17600000Y-28527284D01*
X17600000Y-28297669D01*
X25895000Y-28297669D01*
X25895000Y-28450331D01*
X25924783Y-28600059D01*
X25983204Y-28741100D01*
X26068018Y-28868034D01*
X26175966Y-28975982D01*
X26302900Y-29060796D01*
X26443941Y-29119217D01*
X26593669Y-29149000D01*
X26746331Y-29149000D01*
X26896059Y-29119217D01*
X27037100Y-29060796D01*
X27164034Y-28975982D01*
X27271982Y-28868034D01*
X27356796Y-28741100D01*
X27415217Y-28600059D01*
X27445000Y-28450331D01*
X27445000Y-28425268D01*
X42438096Y-28425268D01*
X44200000Y-30187172D01*
X45961904Y-28425268D01*
X45719251Y-28095527D01*
X45281448Y-27839380D01*
X44802084Y-27673567D01*
X44299583Y-27604458D01*
X43793255Y-27634711D01*
X43302558Y-27763163D01*
X42846350Y-27984876D01*
X42680749Y-28095527D01*
X42438096Y-28425268D01*
X27445000Y-28425268D01*
X27445000Y-28297669D01*
X27415217Y-28147941D01*
X27356796Y-28006900D01*
X27271982Y-27879966D01*
X27164034Y-27772018D01*
X27037100Y-27687204D01*
X26896059Y-27628783D01*
X26746331Y-27599000D01*
X26593669Y-27599000D01*
X26443941Y-27628783D01*
X26302900Y-27687204D01*
X26175966Y-27772018D01*
X26068018Y-27879966D01*
X25983204Y-28006900D01*
X25924783Y-28147941D01*
X25895000Y-28297669D01*
X17600000Y-28297669D01*
X17600000Y-28172716D01*
X17530827Y-27824959D01*
X17395139Y-27497380D01*
X17198151Y-27202567D01*
X16947433Y-26951849D01*
X16736511Y-26810915D01*
X17341914Y-26810915D01*
X17455675Y-27030572D01*
X17710788Y-27179642D01*
X17990082Y-27276078D01*
X18282823Y-27316173D01*
X18577762Y-27298386D01*
X18863563Y-27223402D01*
X19129244Y-27094102D01*
X19224325Y-27030572D01*
X19338086Y-26810915D01*
X18340000Y-25812828D01*
X17341914Y-26810915D01*
X16736511Y-26810915D01*
X16652620Y-26754861D01*
X16325041Y-26619173D01*
X15977284Y-26550000D01*
X15622716Y-26550000D01*
X15274959Y-26619173D01*
X14947380Y-26754861D01*
X14652567Y-26951849D01*
X14401849Y-27202567D01*
X14204861Y-27497380D01*
X14069173Y-27824959D01*
X14000000Y-28172716D01*
X4576054Y-28172716D01*
X4519251Y-28095527D01*
X4081448Y-27839380D01*
X3602084Y-27673567D01*
X3099583Y-27604458D01*
X2593255Y-27634711D01*
X2102558Y-27763163D01*
X1646350Y-27984876D01*
X1480749Y-28095527D01*
X1238096Y-28425268D01*
X425000Y-28425268D01*
X425000Y-26810915D01*
X12261914Y-26810915D01*
X12375675Y-27030572D01*
X12630788Y-27179642D01*
X12910082Y-27276078D01*
X13202823Y-27316173D01*
X13497762Y-27298386D01*
X13783563Y-27223402D01*
X14049244Y-27094102D01*
X14144325Y-27030572D01*
X14258086Y-26810915D01*
X13260000Y-25812828D01*
X12261914Y-26810915D01*
X425000Y-26810915D01*
X425000Y-25752823D01*
X11753827Y-25752823D01*
X11771614Y-26047762D01*
X11846598Y-26333563D01*
X11975898Y-26599244D01*
X12039428Y-26694325D01*
X12259085Y-26808086D01*
X13257172Y-25810000D01*
X13262828Y-25810000D01*
X14260915Y-26808086D01*
X14480572Y-26694325D01*
X14629642Y-26439212D01*
X14726078Y-26159918D01*
X14766173Y-25867177D01*
X14759277Y-25752823D01*
X16833827Y-25752823D01*
X16851614Y-26047762D01*
X16926598Y-26333563D01*
X17055898Y-26599244D01*
X17119428Y-26694325D01*
X17339085Y-26808086D01*
X18337172Y-25810000D01*
X18342828Y-25810000D01*
X19340915Y-26808086D01*
X19560572Y-26694325D01*
X19709642Y-26439212D01*
X19806078Y-26159918D01*
X19846173Y-25867177D01*
X19828386Y-25572238D01*
X19753402Y-25286437D01*
X19649854Y-25073669D01*
X29325000Y-25073669D01*
X29325000Y-25226331D01*
X29354783Y-25376059D01*
X29413204Y-25517100D01*
X29498018Y-25644034D01*
X29605966Y-25751982D01*
X29732900Y-25836796D01*
X29873941Y-25895217D01*
X30023669Y-25925000D01*
X30176331Y-25925000D01*
X30326059Y-25895217D01*
X30467100Y-25836796D01*
X30594034Y-25751982D01*
X30701982Y-25644034D01*
X30786796Y-25517100D01*
X30845217Y-25376059D01*
X30875000Y-25226331D01*
X30875000Y-25073669D01*
X30845217Y-24923941D01*
X30786796Y-24782900D01*
X30701982Y-24655966D01*
X30594034Y-24548018D01*
X30467100Y-24463204D01*
X30326059Y-24404783D01*
X30176331Y-24375000D01*
X30023669Y-24375000D01*
X29873941Y-24404783D01*
X29732900Y-24463204D01*
X29605966Y-24548018D01*
X29498018Y-24655966D01*
X29413204Y-24782900D01*
X29354783Y-24923941D01*
X29325000Y-25073669D01*
X19649854Y-25073669D01*
X19624102Y-25020756D01*
X19560572Y-24925675D01*
X19340915Y-24811914D01*
X18342828Y-25810000D01*
X18337172Y-25810000D01*
X17339085Y-24811914D01*
X17119428Y-24925675D01*
X16970358Y-25180788D01*
X16873922Y-25460082D01*
X16833827Y-25752823D01*
X14759277Y-25752823D01*
X14748386Y-25572238D01*
X14673402Y-25286437D01*
X14544102Y-25020756D01*
X14480572Y-24925675D01*
X14260915Y-24811914D01*
X13262828Y-25810000D01*
X13257172Y-25810000D01*
X12259085Y-24811914D01*
X12039428Y-24925675D01*
X11890358Y-25180788D01*
X11793922Y-25460082D01*
X11753827Y-25752823D01*
X425000Y-25752823D01*
X425000Y-23729348D01*
X775000Y-23729348D01*
X775000Y-23970652D01*
X822076Y-24207319D01*
X914419Y-24430255D01*
X1048481Y-24630892D01*
X1219108Y-24801519D01*
X1419745Y-24935581D01*
X1642681Y-25027924D01*
X1879348Y-25075000D01*
X2120652Y-25075000D01*
X2357319Y-25027924D01*
X2580255Y-24935581D01*
X2780892Y-24801519D01*
X2951519Y-24630892D01*
X3085581Y-24430255D01*
X3177924Y-24207319D01*
X3210488Y-24043607D01*
X3330397Y-24043607D01*
X3348382Y-24134025D01*
X3426689Y-24361041D01*
X3547780Y-24568418D01*
X3707002Y-24748186D01*
X3898235Y-24893437D01*
X4114131Y-24998590D01*
X4346393Y-25059603D01*
X4538000Y-24981248D01*
X4538000Y-23852000D01*
X4542000Y-23852000D01*
X4542000Y-24981248D01*
X4733607Y-25059603D01*
X4965869Y-24998590D01*
X5181765Y-24893437D01*
X5292820Y-24809085D01*
X12261914Y-24809085D01*
X13260000Y-25807172D01*
X14258086Y-24809085D01*
X17341914Y-24809085D01*
X18340000Y-25807172D01*
X19338086Y-24809085D01*
X19224325Y-24589428D01*
X18969212Y-24440358D01*
X18689918Y-24343922D01*
X18397177Y-24303827D01*
X18102238Y-24321614D01*
X17816437Y-24396598D01*
X17550756Y-24525898D01*
X17455675Y-24589428D01*
X17341914Y-24809085D01*
X14258086Y-24809085D01*
X14144325Y-24589428D01*
X13889212Y-24440358D01*
X13609918Y-24343922D01*
X13317177Y-24303827D01*
X13022238Y-24321614D01*
X12736437Y-24396598D01*
X12470756Y-24525898D01*
X12375675Y-24589428D01*
X12261914Y-24809085D01*
X5292820Y-24809085D01*
X5372998Y-24748186D01*
X5532220Y-24568418D01*
X5653311Y-24361041D01*
X5731618Y-24134025D01*
X5749603Y-24043607D01*
X5671248Y-23852000D01*
X4542000Y-23852000D01*
X4538000Y-23852000D01*
X3408752Y-23852000D01*
X3330397Y-24043607D01*
X3210488Y-24043607D01*
X3225000Y-23970652D01*
X3225000Y-23729348D01*
X3210489Y-23656393D01*
X3330397Y-23656393D01*
X3408752Y-23848000D01*
X4538000Y-23848000D01*
X4538000Y-22718752D01*
X4542000Y-22718752D01*
X4542000Y-23848000D01*
X5671248Y-23848000D01*
X5749603Y-23656393D01*
X5731618Y-23565975D01*
X5653311Y-23338959D01*
X5532220Y-23131582D01*
X5471976Y-23063564D01*
X32212440Y-23063564D01*
X32212440Y-23366436D01*
X32271527Y-23663490D01*
X32387432Y-23943308D01*
X32555699Y-24195138D01*
X32769862Y-24409301D01*
X33021692Y-24577568D01*
X33301510Y-24693473D01*
X33598564Y-24752560D01*
X33901436Y-24752560D01*
X34010254Y-24730915D01*
X39261914Y-24730915D01*
X39375675Y-24950572D01*
X39630788Y-25099642D01*
X39910082Y-25196078D01*
X40202823Y-25236173D01*
X40497762Y-25218386D01*
X40783563Y-25143402D01*
X41049244Y-25014102D01*
X41144325Y-24950572D01*
X41258086Y-24730915D01*
X44341914Y-24730915D01*
X44455675Y-24950572D01*
X44710788Y-25099642D01*
X44990082Y-25196078D01*
X45282823Y-25236173D01*
X45577762Y-25218386D01*
X45863563Y-25143402D01*
X46129244Y-25014102D01*
X46224325Y-24950572D01*
X46338086Y-24730915D01*
X45340000Y-23732828D01*
X44341914Y-24730915D01*
X41258086Y-24730915D01*
X40260000Y-23732828D01*
X39261914Y-24730915D01*
X34010254Y-24730915D01*
X34198490Y-24693473D01*
X34478308Y-24577568D01*
X34730138Y-24409301D01*
X34944301Y-24195138D01*
X35112568Y-23943308D01*
X35224607Y-23672823D01*
X38753827Y-23672823D01*
X38771614Y-23967762D01*
X38846598Y-24253563D01*
X38975898Y-24519244D01*
X39039428Y-24614325D01*
X39259085Y-24728086D01*
X40257172Y-23730000D01*
X40262828Y-23730000D01*
X41260915Y-24728086D01*
X41480572Y-24614325D01*
X41629642Y-24359212D01*
X41726078Y-24079918D01*
X41766173Y-23787177D01*
X41759277Y-23672823D01*
X43833827Y-23672823D01*
X43851614Y-23967762D01*
X43926598Y-24253563D01*
X44055898Y-24519244D01*
X44119428Y-24614325D01*
X44339085Y-24728086D01*
X45337172Y-23730000D01*
X44339085Y-22731914D01*
X44119428Y-22845675D01*
X43970358Y-23100788D01*
X43873922Y-23380082D01*
X43833827Y-23672823D01*
X41759277Y-23672823D01*
X41748386Y-23492238D01*
X41673402Y-23206437D01*
X41544102Y-22940756D01*
X41480572Y-22845675D01*
X41260915Y-22731914D01*
X40262828Y-23730000D01*
X40257172Y-23730000D01*
X39259085Y-22731914D01*
X39039428Y-22845675D01*
X38890358Y-23100788D01*
X38793922Y-23380082D01*
X38753827Y-23672823D01*
X35224607Y-23672823D01*
X35228473Y-23663490D01*
X35287560Y-23366436D01*
X35287560Y-23063564D01*
X35228473Y-22766510D01*
X35212971Y-22729085D01*
X39261914Y-22729085D01*
X40260000Y-23727172D01*
X41258086Y-22729085D01*
X41144325Y-22509428D01*
X40889212Y-22360358D01*
X40609918Y-22263922D01*
X40317177Y-22223827D01*
X40022238Y-22241614D01*
X39736437Y-22316598D01*
X39470756Y-22445898D01*
X39375675Y-22509428D01*
X39261914Y-22729085D01*
X35212971Y-22729085D01*
X35112568Y-22486692D01*
X34944301Y-22234862D01*
X34730138Y-22020699D01*
X34478308Y-21852432D01*
X34198490Y-21736527D01*
X33901436Y-21677440D01*
X33598564Y-21677440D01*
X33301510Y-21736527D01*
X33021692Y-21852432D01*
X32769862Y-22020699D01*
X32555699Y-22234862D01*
X32387432Y-22486692D01*
X32271527Y-22766510D01*
X32212440Y-23063564D01*
X5471976Y-23063564D01*
X5372998Y-22951814D01*
X5181765Y-22806563D01*
X4965869Y-22701410D01*
X4733607Y-22640397D01*
X4542000Y-22718752D01*
X4538000Y-22718752D01*
X4346393Y-22640397D01*
X4114131Y-22701410D01*
X3898235Y-22806563D01*
X3707002Y-22951814D01*
X3547780Y-23131582D01*
X3426689Y-23338959D01*
X3348382Y-23565975D01*
X3330397Y-23656393D01*
X3210489Y-23656393D01*
X3177924Y-23492681D01*
X3085581Y-23269745D01*
X2951519Y-23069108D01*
X2780892Y-22898481D01*
X2580255Y-22764419D01*
X2357319Y-22672076D01*
X2120652Y-22625000D01*
X1879348Y-22625000D01*
X1642681Y-22672076D01*
X1419745Y-22764419D01*
X1219108Y-22898481D01*
X1048481Y-23069108D01*
X914419Y-23269745D01*
X822076Y-23492681D01*
X775000Y-23729348D01*
X425000Y-23729348D01*
X425000Y-21189348D01*
X775000Y-21189348D01*
X775000Y-21430652D01*
X822076Y-21667319D01*
X914419Y-21890255D01*
X1048481Y-22090892D01*
X1219108Y-22261519D01*
X1419745Y-22395581D01*
X1642681Y-22487924D01*
X1879348Y-22535000D01*
X2120652Y-22535000D01*
X2357319Y-22487924D01*
X2580255Y-22395581D01*
X2780892Y-22261519D01*
X2951519Y-22090892D01*
X3085581Y-21890255D01*
X3177924Y-21667319D01*
X3225000Y-21430652D01*
X3225000Y-21189348D01*
X3315000Y-21189348D01*
X3315000Y-21430652D01*
X3362076Y-21667319D01*
X3454419Y-21890255D01*
X3588481Y-22090892D01*
X3759108Y-22261519D01*
X3959745Y-22395581D01*
X4182681Y-22487924D01*
X4419348Y-22535000D01*
X4660652Y-22535000D01*
X4897319Y-22487924D01*
X5120255Y-22395581D01*
X5320892Y-22261519D01*
X5491519Y-22090892D01*
X5625581Y-21890255D01*
X5717924Y-21667319D01*
X5756443Y-21473669D01*
X9975000Y-21473669D01*
X9975000Y-21626331D01*
X10004783Y-21776059D01*
X10063204Y-21917100D01*
X10148018Y-22044034D01*
X10255966Y-22151982D01*
X10382900Y-22236796D01*
X10523941Y-22295217D01*
X10673669Y-22325000D01*
X10826331Y-22325000D01*
X10976059Y-22295217D01*
X11117100Y-22236796D01*
X11244034Y-22151982D01*
X11351982Y-22044034D01*
X11436796Y-21917100D01*
X11495217Y-21776059D01*
X11525000Y-21626331D01*
X11525000Y-21473669D01*
X11495217Y-21323941D01*
X11436796Y-21182900D01*
X11351982Y-21055966D01*
X11308732Y-21012716D01*
X41000000Y-21012716D01*
X41000000Y-21367284D01*
X41069173Y-21715041D01*
X41204861Y-22042620D01*
X41401849Y-22337433D01*
X41652567Y-22588151D01*
X41947380Y-22785139D01*
X42274959Y-22920827D01*
X42622716Y-22990000D01*
X42977284Y-22990000D01*
X43325041Y-22920827D01*
X43652620Y-22785139D01*
X43736510Y-22729085D01*
X44341914Y-22729085D01*
X45340000Y-23727172D01*
X46338086Y-22729085D01*
X46224325Y-22509428D01*
X45969212Y-22360358D01*
X45689918Y-22263922D01*
X45397177Y-22223827D01*
X45102238Y-22241614D01*
X44816437Y-22316598D01*
X44550756Y-22445898D01*
X44455675Y-22509428D01*
X44341914Y-22729085D01*
X43736510Y-22729085D01*
X43947433Y-22588151D01*
X44198151Y-22337433D01*
X44395139Y-22042620D01*
X44530827Y-21715041D01*
X44600000Y-21367284D01*
X44600000Y-21012716D01*
X44530827Y-20664959D01*
X44395139Y-20337380D01*
X44198151Y-20042567D01*
X43947433Y-19791849D01*
X43736511Y-19650915D01*
X44341914Y-19650915D01*
X44455675Y-19870572D01*
X44710788Y-20019642D01*
X44990082Y-20116078D01*
X45282823Y-20156173D01*
X45577762Y-20138386D01*
X45863563Y-20063402D01*
X46129244Y-19934102D01*
X46224325Y-19870572D01*
X46338086Y-19650915D01*
X45340000Y-18652828D01*
X44341914Y-19650915D01*
X43736511Y-19650915D01*
X43652620Y-19594861D01*
X43325041Y-19459173D01*
X42977284Y-19390000D01*
X42622716Y-19390000D01*
X42274959Y-19459173D01*
X41947380Y-19594861D01*
X41652567Y-19791849D01*
X41401849Y-20042567D01*
X41204861Y-20337380D01*
X41069173Y-20664959D01*
X41000000Y-21012716D01*
X11308732Y-21012716D01*
X11244034Y-20948018D01*
X11117100Y-20863204D01*
X10976059Y-20804783D01*
X10826331Y-20775000D01*
X10673669Y-20775000D01*
X10523941Y-20804783D01*
X10382900Y-20863204D01*
X10255966Y-20948018D01*
X10148018Y-21055966D01*
X10063204Y-21182900D01*
X10004783Y-21323941D01*
X9975000Y-21473669D01*
X5756443Y-21473669D01*
X5765000Y-21430652D01*
X5765000Y-21189348D01*
X5717924Y-20952681D01*
X5625581Y-20729745D01*
X5491519Y-20529108D01*
X5320892Y-20358481D01*
X5120255Y-20224419D01*
X5118445Y-20223669D01*
X7175000Y-20223669D01*
X7175000Y-20376331D01*
X7204783Y-20526059D01*
X7263204Y-20667100D01*
X7348018Y-20794034D01*
X7455966Y-20901982D01*
X7582900Y-20986796D01*
X7723941Y-21045217D01*
X7873669Y-21075000D01*
X8026331Y-21075000D01*
X8176059Y-21045217D01*
X8317100Y-20986796D01*
X8444034Y-20901982D01*
X8551982Y-20794034D01*
X8636796Y-20667100D01*
X8695217Y-20526059D01*
X8725000Y-20376331D01*
X8725000Y-20223669D01*
X8695217Y-20073941D01*
X8636796Y-19932900D01*
X8551982Y-19805966D01*
X8444034Y-19698018D01*
X8373539Y-19650915D01*
X39261914Y-19650915D01*
X39375675Y-19870572D01*
X39630788Y-20019642D01*
X39910082Y-20116078D01*
X40202823Y-20156173D01*
X40497762Y-20138386D01*
X40783563Y-20063402D01*
X41049244Y-19934102D01*
X41144325Y-19870572D01*
X41258086Y-19650915D01*
X40260000Y-18652828D01*
X39261914Y-19650915D01*
X8373539Y-19650915D01*
X8317100Y-19613204D01*
X8176059Y-19554783D01*
X8026331Y-19525000D01*
X7873669Y-19525000D01*
X7723941Y-19554783D01*
X7582900Y-19613204D01*
X7455966Y-19698018D01*
X7348018Y-19805966D01*
X7263204Y-19932900D01*
X7204783Y-20073941D01*
X7175000Y-20223669D01*
X5118445Y-20223669D01*
X4897319Y-20132076D01*
X4660652Y-20085000D01*
X4419348Y-20085000D01*
X4182681Y-20132076D01*
X3959745Y-20224419D01*
X3759108Y-20358481D01*
X3588481Y-20529108D01*
X3454419Y-20729745D01*
X3362076Y-20952681D01*
X3315000Y-21189348D01*
X3225000Y-21189348D01*
X3177924Y-20952681D01*
X3085581Y-20729745D01*
X2951519Y-20529108D01*
X2780892Y-20358481D01*
X2580255Y-20224419D01*
X2357319Y-20132076D01*
X2120652Y-20085000D01*
X1879348Y-20085000D01*
X1642681Y-20132076D01*
X1419745Y-20224419D01*
X1219108Y-20358481D01*
X1048481Y-20529108D01*
X914419Y-20729745D01*
X822076Y-20952681D01*
X775000Y-21189348D01*
X425000Y-21189348D01*
X425000Y-18649348D01*
X775000Y-18649348D01*
X775000Y-18890652D01*
X822076Y-19127319D01*
X914419Y-19350255D01*
X1048481Y-19550892D01*
X1219108Y-19721519D01*
X1419745Y-19855581D01*
X1642681Y-19947924D01*
X1879348Y-19995000D01*
X2120652Y-19995000D01*
X2357319Y-19947924D01*
X2580255Y-19855581D01*
X2780892Y-19721519D01*
X2951519Y-19550892D01*
X3085581Y-19350255D01*
X3177924Y-19127319D01*
X3225000Y-18890652D01*
X3225000Y-18649348D01*
X3315000Y-18649348D01*
X3315000Y-18890652D01*
X3362076Y-19127319D01*
X3454419Y-19350255D01*
X3588481Y-19550892D01*
X3759108Y-19721519D01*
X3959745Y-19855581D01*
X4182681Y-19947924D01*
X4419348Y-19995000D01*
X4660652Y-19995000D01*
X4897319Y-19947924D01*
X5120255Y-19855581D01*
X5320892Y-19721519D01*
X5491519Y-19550892D01*
X5625581Y-19350255D01*
X5717924Y-19127319D01*
X5765000Y-18890652D01*
X5765000Y-18649348D01*
X5753757Y-18592823D01*
X38753827Y-18592823D01*
X38771614Y-18887762D01*
X38846598Y-19173563D01*
X38975898Y-19439244D01*
X39039428Y-19534325D01*
X39259085Y-19648086D01*
X40257172Y-18650000D01*
X40262828Y-18650000D01*
X41260915Y-19648086D01*
X41480572Y-19534325D01*
X41629642Y-19279212D01*
X41726078Y-18999918D01*
X41766173Y-18707177D01*
X41759277Y-18592823D01*
X43833827Y-18592823D01*
X43851614Y-18887762D01*
X43926598Y-19173563D01*
X44055898Y-19439244D01*
X44119428Y-19534325D01*
X44339085Y-19648086D01*
X45337172Y-18650000D01*
X44339085Y-17651914D01*
X44119428Y-17765675D01*
X43970358Y-18020788D01*
X43873922Y-18300082D01*
X43833827Y-18592823D01*
X41759277Y-18592823D01*
X41748386Y-18412238D01*
X41673402Y-18126437D01*
X41544102Y-17860756D01*
X41480572Y-17765675D01*
X41260915Y-17651914D01*
X40262828Y-18650000D01*
X40257172Y-18650000D01*
X39259085Y-17651914D01*
X39039428Y-17765675D01*
X38890358Y-18020788D01*
X38793922Y-18300082D01*
X38753827Y-18592823D01*
X5753757Y-18592823D01*
X5717924Y-18412681D01*
X5625581Y-18189745D01*
X5491519Y-17989108D01*
X5320892Y-17818481D01*
X5120255Y-17684419D01*
X5034952Y-17649085D01*
X39261914Y-17649085D01*
X40260000Y-18647172D01*
X41258086Y-17649085D01*
X44341914Y-17649085D01*
X45340000Y-18647172D01*
X46338086Y-17649085D01*
X46224325Y-17429428D01*
X45969212Y-17280358D01*
X45689918Y-17183922D01*
X45397177Y-17143827D01*
X45102238Y-17161614D01*
X44816437Y-17236598D01*
X44550756Y-17365898D01*
X44455675Y-17429428D01*
X44341914Y-17649085D01*
X41258086Y-17649085D01*
X41144325Y-17429428D01*
X40889212Y-17280358D01*
X40609918Y-17183922D01*
X40317177Y-17143827D01*
X40022238Y-17161614D01*
X39736437Y-17236598D01*
X39470756Y-17365898D01*
X39375675Y-17429428D01*
X39261914Y-17649085D01*
X5034952Y-17649085D01*
X4897319Y-17592076D01*
X4660652Y-17545000D01*
X4419348Y-17545000D01*
X4182681Y-17592076D01*
X3959745Y-17684419D01*
X3759108Y-17818481D01*
X3588481Y-17989108D01*
X3454419Y-18189745D01*
X3362076Y-18412681D01*
X3315000Y-18649348D01*
X3225000Y-18649348D01*
X3177924Y-18412681D01*
X3085581Y-18189745D01*
X2951519Y-17989108D01*
X2780892Y-17818481D01*
X2580255Y-17684419D01*
X2357319Y-17592076D01*
X2120652Y-17545000D01*
X1879348Y-17545000D01*
X1642681Y-17592076D01*
X1419745Y-17684419D01*
X1219108Y-17818481D01*
X1048481Y-17989108D01*
X914419Y-18189745D01*
X822076Y-18412681D01*
X775000Y-18649348D01*
X425000Y-18649348D01*
X425000Y-16109348D01*
X775000Y-16109348D01*
X775000Y-16350652D01*
X822076Y-16587319D01*
X914419Y-16810255D01*
X1048481Y-17010892D01*
X1219108Y-17181519D01*
X1419745Y-17315581D01*
X1642681Y-17407924D01*
X1879348Y-17455000D01*
X2120652Y-17455000D01*
X2357319Y-17407924D01*
X2580255Y-17315581D01*
X2780892Y-17181519D01*
X2951519Y-17010892D01*
X3085581Y-16810255D01*
X3177924Y-16587319D01*
X3225000Y-16350652D01*
X3225000Y-16109348D01*
X3315000Y-16109348D01*
X3315000Y-16350652D01*
X3362076Y-16587319D01*
X3454419Y-16810255D01*
X3588481Y-17010892D01*
X3759108Y-17181519D01*
X3959745Y-17315581D01*
X4182681Y-17407924D01*
X4419348Y-17455000D01*
X4660652Y-17455000D01*
X4897319Y-17407924D01*
X5120255Y-17315581D01*
X5320892Y-17181519D01*
X5491519Y-17010892D01*
X5625581Y-16810255D01*
X5682156Y-16673669D01*
X11325000Y-16673669D01*
X11325000Y-16826331D01*
X11354783Y-16976059D01*
X11413204Y-17117100D01*
X11498018Y-17244034D01*
X11605966Y-17351982D01*
X11732900Y-17436796D01*
X11873941Y-17495217D01*
X12023669Y-17525000D01*
X12176331Y-17525000D01*
X12326059Y-17495217D01*
X12467100Y-17436796D01*
X12594034Y-17351982D01*
X12701982Y-17244034D01*
X12786796Y-17117100D01*
X12845217Y-16976059D01*
X12875000Y-16826331D01*
X12875000Y-16673669D01*
X12845217Y-16523941D01*
X12786796Y-16382900D01*
X12701982Y-16255966D01*
X12594034Y-16148018D01*
X12467100Y-16063204D01*
X12326059Y-16004783D01*
X12176331Y-15975000D01*
X12023669Y-15975000D01*
X11873941Y-16004783D01*
X11732900Y-16063204D01*
X11605966Y-16148018D01*
X11498018Y-16255966D01*
X11413204Y-16382900D01*
X11354783Y-16523941D01*
X11325000Y-16673669D01*
X5682156Y-16673669D01*
X5717924Y-16587319D01*
X5765000Y-16350652D01*
X5765000Y-16109348D01*
X5717924Y-15872681D01*
X5625581Y-15649745D01*
X5491519Y-15449108D01*
X5320892Y-15278481D01*
X5120255Y-15144419D01*
X4897319Y-15052076D01*
X4660652Y-15005000D01*
X4419348Y-15005000D01*
X4182681Y-15052076D01*
X3959745Y-15144419D01*
X3759108Y-15278481D01*
X3588481Y-15449108D01*
X3454419Y-15649745D01*
X3362076Y-15872681D01*
X3315000Y-16109348D01*
X3225000Y-16109348D01*
X3177924Y-15872681D01*
X3085581Y-15649745D01*
X2951519Y-15449108D01*
X2780892Y-15278481D01*
X2580255Y-15144419D01*
X2357319Y-15052076D01*
X2120652Y-15005000D01*
X1879348Y-15005000D01*
X1642681Y-15052076D01*
X1419745Y-15144419D01*
X1219108Y-15278481D01*
X1048481Y-15449108D01*
X914419Y-15649745D01*
X822076Y-15872681D01*
X775000Y-16109348D01*
X425000Y-16109348D01*
X425000Y-13569348D01*
X775000Y-13569348D01*
X775000Y-13810652D01*
X822076Y-14047319D01*
X914419Y-14270255D01*
X1048481Y-14470892D01*
X1219108Y-14641519D01*
X1419745Y-14775581D01*
X1642681Y-14867924D01*
X1879348Y-14915000D01*
X2120652Y-14915000D01*
X2357319Y-14867924D01*
X2580255Y-14775581D01*
X2780892Y-14641519D01*
X2951519Y-14470892D01*
X3085581Y-14270255D01*
X3177924Y-14047319D01*
X3225000Y-13810652D01*
X3225000Y-13569348D01*
X3315000Y-13569348D01*
X3315000Y-13810652D01*
X3362076Y-14047319D01*
X3454419Y-14270255D01*
X3588481Y-14470892D01*
X3759108Y-14641519D01*
X3959745Y-14775581D01*
X4182681Y-14867924D01*
X4419348Y-14915000D01*
X4660652Y-14915000D01*
X4868457Y-14873665D01*
X11425000Y-14873665D01*
X11425000Y-15026327D01*
X11454783Y-15176055D01*
X11513204Y-15317096D01*
X11598018Y-15444030D01*
X11705966Y-15551978D01*
X11832900Y-15636792D01*
X11973941Y-15695213D01*
X12123669Y-15724996D01*
X12276331Y-15724996D01*
X12426059Y-15695213D01*
X12567100Y-15636792D01*
X12694034Y-15551978D01*
X12801982Y-15444030D01*
X12886796Y-15317096D01*
X12945217Y-15176055D01*
X12957624Y-15113679D01*
X28364996Y-15113679D01*
X28364996Y-15266341D01*
X28394779Y-15416069D01*
X28453200Y-15557110D01*
X28538014Y-15684044D01*
X28645962Y-15791992D01*
X28772896Y-15876806D01*
X28913937Y-15935227D01*
X29063665Y-15965010D01*
X29216327Y-15965010D01*
X29366055Y-15935227D01*
X29507096Y-15876806D01*
X29634030Y-15791992D01*
X29741978Y-15684044D01*
X29826792Y-15557110D01*
X29885213Y-15416069D01*
X29914996Y-15266341D01*
X29914996Y-15113679D01*
X29885213Y-14963951D01*
X29826792Y-14822910D01*
X29741978Y-14695976D01*
X29634030Y-14588028D01*
X29507096Y-14503214D01*
X29366055Y-14444793D01*
X29216327Y-14415010D01*
X29063665Y-14415010D01*
X28913937Y-14444793D01*
X28772896Y-14503214D01*
X28645962Y-14588028D01*
X28538014Y-14695976D01*
X28453200Y-14822910D01*
X28394779Y-14963951D01*
X28364996Y-15113679D01*
X12957624Y-15113679D01*
X12975000Y-15026327D01*
X12975000Y-14873665D01*
X12945217Y-14723937D01*
X12886796Y-14582896D01*
X12801982Y-14455962D01*
X12694034Y-14348014D01*
X12657599Y-14323669D01*
X39125000Y-14323669D01*
X39125000Y-14476331D01*
X39154783Y-14626059D01*
X39213204Y-14767100D01*
X39298018Y-14894034D01*
X39405966Y-15001982D01*
X39532900Y-15086796D01*
X39673941Y-15145217D01*
X39823669Y-15175000D01*
X39976331Y-15175000D01*
X40126059Y-15145217D01*
X40267100Y-15086796D01*
X40394034Y-15001982D01*
X40501982Y-14894034D01*
X40586796Y-14767100D01*
X40645217Y-14626059D01*
X40675000Y-14476331D01*
X40675000Y-14323669D01*
X40645217Y-14173941D01*
X40586796Y-14032900D01*
X40501982Y-13905966D01*
X40394034Y-13798018D01*
X40267100Y-13713204D01*
X40126059Y-13654783D01*
X39976331Y-13625000D01*
X39823669Y-13625000D01*
X39673941Y-13654783D01*
X39532900Y-13713204D01*
X39405966Y-13798018D01*
X39298018Y-13905966D01*
X39213204Y-14032900D01*
X39154783Y-14173941D01*
X39125000Y-14323669D01*
X12657599Y-14323669D01*
X12567100Y-14263200D01*
X12426059Y-14204779D01*
X12276331Y-14174996D01*
X12123669Y-14174996D01*
X11973941Y-14204779D01*
X11832900Y-14263200D01*
X11705966Y-14348014D01*
X11598018Y-14455962D01*
X11513204Y-14582896D01*
X11454783Y-14723937D01*
X11425000Y-14873665D01*
X4868457Y-14873665D01*
X4897319Y-14867924D01*
X5120255Y-14775581D01*
X5320892Y-14641519D01*
X5491519Y-14470892D01*
X5625581Y-14270255D01*
X5717924Y-14047319D01*
X5765000Y-13810652D01*
X5765000Y-13569348D01*
X5717924Y-13332681D01*
X5625581Y-13109745D01*
X5491519Y-12909108D01*
X5320892Y-12738481D01*
X5120255Y-12604419D01*
X4897319Y-12512076D01*
X4660652Y-12465000D01*
X4419348Y-12465000D01*
X4182681Y-12512076D01*
X3959745Y-12604419D01*
X3759108Y-12738481D01*
X3588481Y-12909108D01*
X3454419Y-13109745D01*
X3362076Y-13332681D01*
X3315000Y-13569348D01*
X3225000Y-13569348D01*
X3177924Y-13332681D01*
X3085581Y-13109745D01*
X2951519Y-12909108D01*
X2780892Y-12738481D01*
X2580255Y-12604419D01*
X2357319Y-12512076D01*
X2120652Y-12465000D01*
X1879348Y-12465000D01*
X1642681Y-12512076D01*
X1419745Y-12604419D01*
X1219108Y-12738481D01*
X1048481Y-12909108D01*
X914419Y-13109745D01*
X822076Y-13332681D01*
X775000Y-13569348D01*
X425000Y-13569348D01*
X425000Y-10300000D01*
X773186Y-10300000D01*
X773186Y-12000000D01*
X780426Y-12073513D01*
X801869Y-12144200D01*
X836691Y-12209347D01*
X883552Y-12266448D01*
X940653Y-12313309D01*
X1005800Y-12348131D01*
X1076487Y-12369574D01*
X1150000Y-12376814D01*
X2850000Y-12376814D01*
X2923513Y-12369574D01*
X2994200Y-12348131D01*
X3059347Y-12313309D01*
X3116448Y-12266448D01*
X3163309Y-12209347D01*
X3198131Y-12144200D01*
X3219574Y-12073513D01*
X3226814Y-12000000D01*
X3226814Y-11029348D01*
X3315000Y-11029348D01*
X3315000Y-11270652D01*
X3362076Y-11507319D01*
X3454419Y-11730255D01*
X3588481Y-11930892D01*
X3759108Y-12101519D01*
X3959745Y-12235581D01*
X4182681Y-12327924D01*
X4419348Y-12375000D01*
X4660652Y-12375000D01*
X4897319Y-12327924D01*
X5120255Y-12235581D01*
X5320892Y-12101519D01*
X5491519Y-11930892D01*
X5625581Y-11730255D01*
X5717924Y-11507319D01*
X5765000Y-11270652D01*
X5765000Y-11029348D01*
X5717924Y-10792681D01*
X5625581Y-10569745D01*
X5491519Y-10369108D01*
X5320892Y-10198481D01*
X5120255Y-10064419D01*
X4897319Y-9972076D01*
X4660652Y-9925000D01*
X4419348Y-9925000D01*
X4182681Y-9972076D01*
X3959745Y-10064419D01*
X3759108Y-10198481D01*
X3588481Y-10369108D01*
X3454419Y-10569745D01*
X3362076Y-10792681D01*
X3315000Y-11029348D01*
X3226814Y-11029348D01*
X3226814Y-10300000D01*
X3219574Y-10226487D01*
X3198131Y-10155800D01*
X3163309Y-10090653D01*
X3116448Y-10033552D01*
X3059347Y-9986691D01*
X2994200Y-9951869D01*
X2923513Y-9930426D01*
X2850000Y-9923186D01*
X1150000Y-9923186D01*
X1076487Y-9930426D01*
X1005800Y-9951869D01*
X940653Y-9986691D01*
X883552Y-10033552D01*
X836691Y-10090653D01*
X801869Y-10155800D01*
X780426Y-10226487D01*
X773186Y-10300000D01*
X425000Y-10300000D01*
X425000Y-9173669D01*
X14525000Y-9173669D01*
X14525000Y-9326331D01*
X14554783Y-9476059D01*
X14613204Y-9617100D01*
X14698018Y-9744034D01*
X14805966Y-9851982D01*
X14932900Y-9936796D01*
X15073941Y-9995217D01*
X15223669Y-10025000D01*
X15376331Y-10025000D01*
X15526059Y-9995217D01*
X15667100Y-9936796D01*
X15794034Y-9851982D01*
X15901982Y-9744034D01*
X15986796Y-9617100D01*
X16045217Y-9476059D01*
X16070776Y-9347564D01*
X32212440Y-9347564D01*
X32212440Y-9650436D01*
X32271527Y-9947490D01*
X32387432Y-10227308D01*
X32555699Y-10479138D01*
X32769862Y-10693301D01*
X33021692Y-10861568D01*
X33301510Y-10977473D01*
X33598564Y-11036560D01*
X33901436Y-11036560D01*
X34198490Y-10977473D01*
X34478308Y-10861568D01*
X34730138Y-10693301D01*
X34944301Y-10479138D01*
X35112568Y-10227308D01*
X35228473Y-9947490D01*
X35287560Y-9650436D01*
X35287560Y-9347564D01*
X35228473Y-9050510D01*
X35112568Y-8770692D01*
X34944301Y-8518862D01*
X34730138Y-8304699D01*
X34478308Y-8136432D01*
X34198490Y-8020527D01*
X33901436Y-7961440D01*
X33598564Y-7961440D01*
X33301510Y-8020527D01*
X33021692Y-8136432D01*
X32769862Y-8304699D01*
X32555699Y-8518862D01*
X32387432Y-8770692D01*
X32271527Y-9050510D01*
X32212440Y-9347564D01*
X16070776Y-9347564D01*
X16075000Y-9326331D01*
X16075000Y-9173669D01*
X16045217Y-9023941D01*
X15986796Y-8882900D01*
X15901982Y-8755966D01*
X15794034Y-8648018D01*
X15667100Y-8563204D01*
X15526059Y-8504783D01*
X15376331Y-8475000D01*
X15223669Y-8475000D01*
X15073941Y-8504783D01*
X14932900Y-8563204D01*
X14805966Y-8648018D01*
X14698018Y-8755966D01*
X14613204Y-8882900D01*
X14554783Y-9023941D01*
X14525000Y-9173669D01*
X425000Y-9173669D01*
X425000Y-7973669D01*
X11425000Y-7973669D01*
X11425000Y-8126331D01*
X11454783Y-8276059D01*
X11513204Y-8417100D01*
X11598018Y-8544034D01*
X11705966Y-8651982D01*
X11832900Y-8736796D01*
X11973941Y-8795217D01*
X12123669Y-8825000D01*
X12276331Y-8825000D01*
X12426059Y-8795217D01*
X12567100Y-8736796D01*
X12694034Y-8651982D01*
X12801982Y-8544034D01*
X12886796Y-8417100D01*
X12945217Y-8276059D01*
X12975000Y-8126331D01*
X12975000Y-7973669D01*
X12945217Y-7823941D01*
X12886796Y-7682900D01*
X12801982Y-7555966D01*
X12694034Y-7448018D01*
X12567100Y-7363204D01*
X12471654Y-7323669D01*
X38325000Y-7323669D01*
X38325000Y-7476331D01*
X38354783Y-7626059D01*
X38413204Y-7767100D01*
X38498018Y-7894034D01*
X38605966Y-8001982D01*
X38732900Y-8086796D01*
X38873941Y-8145217D01*
X39023669Y-8175000D01*
X39176331Y-8175000D01*
X39326059Y-8145217D01*
X39467100Y-8086796D01*
X39594034Y-8001982D01*
X39701982Y-7894034D01*
X39786796Y-7767100D01*
X39845217Y-7626059D01*
X39875000Y-7476331D01*
X39875000Y-7323669D01*
X39845217Y-7173941D01*
X39786796Y-7032900D01*
X39701982Y-6905966D01*
X39594034Y-6798018D01*
X39467100Y-6713204D01*
X39326059Y-6654783D01*
X39176331Y-6625000D01*
X39023669Y-6625000D01*
X38873941Y-6654783D01*
X38732900Y-6713204D01*
X38605966Y-6798018D01*
X38498018Y-6905966D01*
X38413204Y-7032900D01*
X38354783Y-7173941D01*
X38325000Y-7323669D01*
X12471654Y-7323669D01*
X12426059Y-7304783D01*
X12276331Y-7275000D01*
X12123669Y-7275000D01*
X11973941Y-7304783D01*
X11832900Y-7363204D01*
X11705966Y-7448018D01*
X11598018Y-7555966D01*
X11513204Y-7682900D01*
X11454783Y-7823941D01*
X11425000Y-7973669D01*
X425000Y-7973669D01*
X425000Y-4754732D01*
X1238096Y-4754732D01*
X1480749Y-5084473D01*
X1918552Y-5340620D01*
X2397916Y-5506433D01*
X2900417Y-5575542D01*
X3406745Y-5545289D01*
X3897442Y-5416837D01*
X4353650Y-5195124D01*
X4519251Y-5084473D01*
X4761904Y-4754732D01*
X3000000Y-2992828D01*
X1238096Y-4754732D01*
X425000Y-4754732D01*
X425000Y-3066853D01*
X444711Y-3396745D01*
X573163Y-3887442D01*
X794876Y-4343650D01*
X905527Y-4509251D01*
X1235268Y-4751904D01*
X2997172Y-2990000D01*
X3002828Y-2990000D01*
X4764732Y-4751904D01*
X5094473Y-4509251D01*
X5350620Y-4071448D01*
X5516433Y-3592084D01*
X5518965Y-3573669D01*
X14525000Y-3573669D01*
X14525000Y-3726331D01*
X14554783Y-3876059D01*
X14613204Y-4017100D01*
X14698018Y-4144034D01*
X14753984Y-4200000D01*
X14698018Y-4255966D01*
X14613204Y-4382900D01*
X14554783Y-4523941D01*
X14525000Y-4673669D01*
X14525000Y-4826331D01*
X14554783Y-4976059D01*
X14613204Y-5117100D01*
X14698018Y-5244034D01*
X14805966Y-5351982D01*
X14932900Y-5436796D01*
X15073941Y-5495217D01*
X15223669Y-5525000D01*
X15376331Y-5525000D01*
X15526059Y-5495217D01*
X15667100Y-5436796D01*
X15794034Y-5351982D01*
X15901982Y-5244034D01*
X15986796Y-5117100D01*
X16045217Y-4976059D01*
X16075000Y-4826331D01*
X16075000Y-4723669D01*
X27875000Y-4723669D01*
X27875000Y-4876331D01*
X27904783Y-5026059D01*
X27963204Y-5167100D01*
X28048018Y-5294034D01*
X28155966Y-5401982D01*
X28282900Y-5486796D01*
X28423941Y-5545217D01*
X28573669Y-5575000D01*
X28726331Y-5575000D01*
X28876059Y-5545217D01*
X29017100Y-5486796D01*
X29144034Y-5401982D01*
X29251982Y-5294034D01*
X29336796Y-5167100D01*
X29395217Y-5026059D01*
X29425000Y-4876331D01*
X29425000Y-4723669D01*
X29395217Y-4573941D01*
X29336796Y-4432900D01*
X29251982Y-4305966D01*
X29144034Y-4198018D01*
X29017100Y-4113204D01*
X28876059Y-4054783D01*
X28726331Y-4025000D01*
X28573669Y-4025000D01*
X28423941Y-4054783D01*
X28282900Y-4113204D01*
X28155966Y-4198018D01*
X28048018Y-4305966D01*
X27963204Y-4432900D01*
X27904783Y-4573941D01*
X27875000Y-4723669D01*
X16075000Y-4723669D01*
X16075000Y-4673669D01*
X16045217Y-4523941D01*
X15986796Y-4382900D01*
X15901982Y-4255966D01*
X15846016Y-4200000D01*
X15901982Y-4144034D01*
X15986796Y-4017100D01*
X16045217Y-3876059D01*
X16075000Y-3726331D01*
X16075000Y-3573669D01*
X16045217Y-3423941D01*
X15986796Y-3282900D01*
X15901982Y-3155966D01*
X15794034Y-3048018D01*
X15667100Y-2963204D01*
X15526059Y-2904783D01*
X15376331Y-2875000D01*
X15223669Y-2875000D01*
X15073941Y-2904783D01*
X14932900Y-2963204D01*
X14805966Y-3048018D01*
X14698018Y-3155966D01*
X14613204Y-3282900D01*
X14554783Y-3423941D01*
X14525000Y-3573669D01*
X5518965Y-3573669D01*
X5585542Y-3089583D01*
X5560692Y-2673669D01*
X32125000Y-2673669D01*
X32125000Y-2826331D01*
X32154783Y-2976059D01*
X32213204Y-3117100D01*
X32298018Y-3244034D01*
X32405966Y-3351982D01*
X32532900Y-3436796D01*
X32673941Y-3495217D01*
X32823669Y-3525000D01*
X32976331Y-3525000D01*
X33126059Y-3495217D01*
X33267100Y-3436796D01*
X33394034Y-3351982D01*
X33501982Y-3244034D01*
X33586796Y-3117100D01*
X33645217Y-2976059D01*
X33675000Y-2826331D01*
X33675000Y-2673669D01*
X33670028Y-2648669D01*
X33750000Y-2648669D01*
X33750000Y-2801331D01*
X33779783Y-2951059D01*
X33838204Y-3092100D01*
X33923018Y-3219034D01*
X34030966Y-3326982D01*
X34157900Y-3411796D01*
X34298941Y-3470217D01*
X34448669Y-3500000D01*
X34601331Y-3500000D01*
X34751059Y-3470217D01*
X34892100Y-3411796D01*
X35019034Y-3326982D01*
X35126982Y-3219034D01*
X35211796Y-3092100D01*
X35270217Y-2951059D01*
X35282279Y-2890417D01*
X41614458Y-2890417D01*
X41644711Y-3396745D01*
X41773163Y-3887442D01*
X41994876Y-4343650D01*
X42105527Y-4509251D01*
X42435268Y-4751904D01*
X44197172Y-2990000D01*
X42435268Y-1228096D01*
X42105527Y-1470749D01*
X41849380Y-1908552D01*
X41683567Y-2387916D01*
X41614458Y-2890417D01*
X35282279Y-2890417D01*
X35300000Y-2801331D01*
X35300000Y-2648669D01*
X35270217Y-2498941D01*
X35211796Y-2357900D01*
X35126982Y-2230966D01*
X35019034Y-2123018D01*
X34892100Y-2038204D01*
X34751059Y-1979783D01*
X34601331Y-1950000D01*
X34448669Y-1950000D01*
X34298941Y-1979783D01*
X34157900Y-2038204D01*
X34030966Y-2123018D01*
X33923018Y-2230966D01*
X33838204Y-2357900D01*
X33779783Y-2498941D01*
X33750000Y-2648669D01*
X33670028Y-2648669D01*
X33645217Y-2523941D01*
X33586796Y-2382900D01*
X33501982Y-2255966D01*
X33394034Y-2148018D01*
X33267100Y-2063204D01*
X33126059Y-2004783D01*
X32976331Y-1975000D01*
X32823669Y-1975000D01*
X32673941Y-2004783D01*
X32532900Y-2063204D01*
X32405966Y-2148018D01*
X32298018Y-2255966D01*
X32213204Y-2382900D01*
X32154783Y-2523941D01*
X32125000Y-2673669D01*
X5560692Y-2673669D01*
X5555289Y-2583255D01*
X5426837Y-2092558D01*
X5205124Y-1636350D01*
X5094473Y-1470749D01*
X4894607Y-1323669D01*
X10725000Y-1323669D01*
X10725000Y-1476331D01*
X10754783Y-1626059D01*
X10813204Y-1767100D01*
X10898018Y-1894034D01*
X11005966Y-2001982D01*
X11132900Y-2086796D01*
X11273941Y-2145217D01*
X11423669Y-2175000D01*
X11576331Y-2175000D01*
X11726059Y-2145217D01*
X11867100Y-2086796D01*
X11994034Y-2001982D01*
X12101982Y-1894034D01*
X12186796Y-1767100D01*
X12245217Y-1626059D01*
X12275000Y-1476331D01*
X12275000Y-1323669D01*
X12325000Y-1323669D01*
X12325000Y-1476331D01*
X12354783Y-1626059D01*
X12413204Y-1767100D01*
X12498018Y-1894034D01*
X12605966Y-2001982D01*
X12732900Y-2086796D01*
X12873941Y-2145217D01*
X13023669Y-2175000D01*
X13176331Y-2175000D01*
X13326059Y-2145217D01*
X13467100Y-2086796D01*
X13594034Y-2001982D01*
X13672353Y-1923663D01*
X38325000Y-1923663D01*
X38325000Y-2076325D01*
X38354783Y-2226053D01*
X38413204Y-2367094D01*
X38498018Y-2494028D01*
X38605966Y-2601976D01*
X38732900Y-2686790D01*
X38873941Y-2745211D01*
X39023669Y-2774994D01*
X39176331Y-2774994D01*
X39326059Y-2745211D01*
X39467100Y-2686790D01*
X39594034Y-2601976D01*
X39701982Y-2494028D01*
X39786796Y-2367094D01*
X39845217Y-2226053D01*
X39875000Y-2076325D01*
X39875000Y-1923663D01*
X39845217Y-1773935D01*
X39786796Y-1632894D01*
X39701982Y-1505960D01*
X39594034Y-1398012D01*
X39467100Y-1313198D01*
X39326059Y-1254777D01*
X39176331Y-1224994D01*
X39023669Y-1224994D01*
X38873941Y-1254777D01*
X38732900Y-1313198D01*
X38605966Y-1398012D01*
X38498018Y-1505960D01*
X38413204Y-1632894D01*
X38354783Y-1773935D01*
X38325000Y-1923663D01*
X13672353Y-1923663D01*
X13701982Y-1894034D01*
X13786796Y-1767100D01*
X13845217Y-1626059D01*
X13875000Y-1476331D01*
X13875000Y-1323669D01*
X13845217Y-1173941D01*
X13786796Y-1032900D01*
X13701982Y-905966D01*
X13594034Y-798018D01*
X13467100Y-713204D01*
X13326059Y-654783D01*
X13176331Y-625000D01*
X13023669Y-625000D01*
X12873941Y-654783D01*
X12732900Y-713204D01*
X12605966Y-798018D01*
X12498018Y-905966D01*
X12413204Y-1032900D01*
X12354783Y-1173941D01*
X12325000Y-1323669D01*
X12275000Y-1323669D01*
X12245217Y-1173941D01*
X12186796Y-1032900D01*
X12101982Y-905966D01*
X11994034Y-798018D01*
X11867100Y-713204D01*
X11726059Y-654783D01*
X11576331Y-625000D01*
X11423669Y-625000D01*
X11273941Y-654783D01*
X11132900Y-713204D01*
X11005966Y-798018D01*
X10898018Y-905966D01*
X10813204Y-1032900D01*
X10754783Y-1173941D01*
X10725000Y-1323669D01*
X4894607Y-1323669D01*
X4764732Y-1228096D01*
X3002828Y-2990000D01*
X2997172Y-2990000D01*
X1235268Y-1228096D01*
X905527Y-1470749D01*
X649380Y-1908552D01*
X483567Y-2387916D01*
X425000Y-2813765D01*
X425000Y-1010790D01*
X437951Y-878710D01*
X470271Y-771661D01*
X522770Y-672924D01*
X593439Y-586275D01*
X679605Y-514992D01*
X777968Y-461807D01*
X884786Y-428742D01*
X1015525Y-415000D01*
X2923147Y-415000D01*
X2593255Y-434711D01*
G04 #@! TA.AperFunction,Conductor*
D18*
G36*
X2593255Y-434711D02*
G01*
X2102558Y-563163D01*
X1646350Y-784876D01*
X1480749Y-895527D01*
X1238096Y-1225268D01*
X3000000Y-2987172D01*
X4761904Y-1225268D01*
X4519251Y-895527D01*
X4081448Y-639380D01*
X3602084Y-473567D01*
X3176235Y-415000D01*
X44123147Y-415000D01*
X43793255Y-434711D01*
X43302558Y-563163D01*
X42846350Y-784876D01*
X42680749Y-895527D01*
X42438096Y-1225268D01*
X44200000Y-2987172D01*
X45961904Y-1225268D01*
X45719251Y-895527D01*
X45281448Y-639380D01*
X44802084Y-473567D01*
X44376235Y-415000D01*
X46179210Y-415000D01*
X46311290Y-427951D01*
X46418339Y-460271D01*
X46517076Y-512770D01*
X46603725Y-583439D01*
X46675008Y-669605D01*
X46728193Y-767968D01*
X46761258Y-874786D01*
X46775001Y-1005534D01*
X46775001Y-2913163D01*
X46755289Y-2583255D01*
X46626837Y-2092558D01*
X46405124Y-1636350D01*
X46294473Y-1470749D01*
X45964732Y-1228096D01*
X44202828Y-2990000D01*
X45964732Y-4751904D01*
X46294473Y-4509251D01*
X46550620Y-4071448D01*
X46716433Y-3592084D01*
X46775001Y-3166229D01*
X46775001Y-5425000D01*
X45066259Y-5425000D01*
X45097442Y-5416837D01*
X45553650Y-5195124D01*
X45719251Y-5084473D01*
X45961904Y-4754732D01*
X44200000Y-2992828D01*
X42438096Y-4754732D01*
X42680749Y-5084473D01*
X43118552Y-5340620D01*
X43362494Y-5425000D01*
X41800000Y-5425000D01*
X41775614Y-5427402D01*
X41752165Y-5434515D01*
X41730554Y-5446066D01*
X41711612Y-5461612D01*
X41696066Y-5480554D01*
X41684515Y-5502165D01*
X41677402Y-5525614D01*
X41675000Y-5550000D01*
X41675000Y-8750000D01*
X41677402Y-8774386D01*
X41684515Y-8797835D01*
X41696066Y-8819446D01*
X41711612Y-8838388D01*
X41730554Y-8853934D01*
X41752165Y-8865485D01*
X41775614Y-8872598D01*
X41800000Y-8875000D01*
X42100000Y-8875000D01*
X42124386Y-8872598D01*
X42147835Y-8865485D01*
X42169446Y-8853934D01*
X42188388Y-8838388D01*
X42203934Y-8819446D01*
X42215485Y-8797835D01*
X42222598Y-8774386D01*
X42225000Y-8750000D01*
X42225000Y-5975000D01*
X46775001Y-5975000D01*
X46775001Y-14825000D01*
X42225000Y-14825000D01*
X42225000Y-9450000D01*
X42222598Y-9425614D01*
X42215485Y-9402165D01*
X42203934Y-9380554D01*
X42188388Y-9361612D01*
X42169446Y-9346066D01*
X42147835Y-9334515D01*
X42124386Y-9327402D01*
X42100000Y-9325000D01*
X41800000Y-9325000D01*
X41775614Y-9327402D01*
X41752165Y-9334515D01*
X41730554Y-9346066D01*
X41711612Y-9361612D01*
X41696066Y-9380554D01*
X41684515Y-9402165D01*
X41677402Y-9425614D01*
X41675000Y-9450000D01*
X41675000Y-15250000D01*
X41677402Y-15274386D01*
X41684515Y-15297835D01*
X41696066Y-15319446D01*
X41711612Y-15338388D01*
X41730554Y-15353934D01*
X41752165Y-15365485D01*
X41775614Y-15372598D01*
X41800000Y-15375000D01*
X46775001Y-15375000D01*
X46775000Y-18208759D01*
X46753402Y-18126437D01*
X46624102Y-17860756D01*
X46560572Y-17765675D01*
X46340915Y-17651914D01*
X45342828Y-18650000D01*
X46340915Y-19648086D01*
X46560572Y-19534325D01*
X46709642Y-19279212D01*
X46775000Y-19089924D01*
X46775000Y-23288759D01*
X46753402Y-23206437D01*
X46624102Y-22940756D01*
X46560572Y-22845675D01*
X46340915Y-22731914D01*
X45342828Y-23730000D01*
X46340915Y-24728086D01*
X46560572Y-24614325D01*
X46709642Y-24359212D01*
X46775000Y-24169924D01*
X46775000Y-30113148D01*
X46755289Y-29783255D01*
X46626837Y-29292558D01*
X46405124Y-28836350D01*
X46294473Y-28670749D01*
X45964732Y-28428096D01*
X44202828Y-30190000D01*
X45964732Y-31951904D01*
X46294473Y-31709251D01*
X46550620Y-31271448D01*
X46716433Y-30792084D01*
X46775000Y-30366235D01*
X46775000Y-32169210D01*
X46762049Y-32301289D01*
X46729729Y-32408339D01*
X46677231Y-32507074D01*
X46606558Y-32593728D01*
X46520396Y-32665007D01*
X46422031Y-32718193D01*
X46315213Y-32751259D01*
X46184475Y-32765000D01*
X44276853Y-32765000D01*
X44606745Y-32745289D01*
X45097442Y-32616837D01*
X45553650Y-32395124D01*
X45719251Y-32284473D01*
X45961904Y-31954732D01*
X44200000Y-30192828D01*
X42438096Y-31954732D01*
X42680749Y-32284473D01*
X43118552Y-32540620D01*
X43597916Y-32706433D01*
X44023765Y-32765000D01*
X35367909Y-32765000D01*
X35419100Y-32743796D01*
X35546034Y-32658982D01*
X35653982Y-32551034D01*
X35738796Y-32424100D01*
X35797217Y-32283059D01*
X35827000Y-32133331D01*
X35827000Y-31980669D01*
X35797217Y-31830941D01*
X35738796Y-31689900D01*
X35653982Y-31562966D01*
X35546034Y-31455018D01*
X35419100Y-31370204D01*
X35278059Y-31311783D01*
X35128331Y-31282000D01*
X34975669Y-31282000D01*
X34825941Y-31311783D01*
X34684900Y-31370204D01*
X34557966Y-31455018D01*
X34450018Y-31562966D01*
X34365204Y-31689900D01*
X34306783Y-31830941D01*
X34277000Y-31980669D01*
X34277000Y-32133331D01*
X34306783Y-32283059D01*
X34365204Y-32424100D01*
X34450018Y-32551034D01*
X34557966Y-32658982D01*
X34684900Y-32743796D01*
X34736091Y-32765000D01*
X3076853Y-32765000D01*
X3406745Y-32745289D01*
X3897442Y-32616837D01*
X4353650Y-32395124D01*
X4519251Y-32284473D01*
X4761904Y-31954732D01*
X3000000Y-30192828D01*
X1238096Y-31954732D01*
X1480749Y-32284473D01*
X1918552Y-32540620D01*
X2397916Y-32706433D01*
X2823765Y-32765000D01*
X1020790Y-32765000D01*
X888711Y-32752049D01*
X781661Y-32719729D01*
X682926Y-32667231D01*
X596272Y-32596558D01*
X524993Y-32510396D01*
X471807Y-32412031D01*
X438741Y-32305213D01*
X425000Y-32174475D01*
X425000Y-30266853D01*
X444711Y-30596745D01*
X573163Y-31087442D01*
X794876Y-31543650D01*
X905527Y-31709251D01*
X1235268Y-31951904D01*
X2997172Y-30190000D01*
X3002828Y-30190000D01*
X4764732Y-31951904D01*
X4847609Y-31890915D01*
X12261914Y-31890915D01*
X12375675Y-32110572D01*
X12630788Y-32259642D01*
X12910082Y-32356078D01*
X13202823Y-32396173D01*
X13497762Y-32378386D01*
X13783563Y-32303402D01*
X14049244Y-32174102D01*
X14144325Y-32110572D01*
X14258086Y-31890915D01*
X17341914Y-31890915D01*
X17455675Y-32110572D01*
X17710788Y-32259642D01*
X17990082Y-32356078D01*
X18282823Y-32396173D01*
X18577762Y-32378386D01*
X18863563Y-32303402D01*
X19129244Y-32174102D01*
X19224325Y-32110572D01*
X19338086Y-31890915D01*
X18340000Y-30892828D01*
X17341914Y-31890915D01*
X14258086Y-31890915D01*
X13260000Y-30892828D01*
X12261914Y-31890915D01*
X4847609Y-31890915D01*
X5094473Y-31709251D01*
X5350620Y-31271448D01*
X5502341Y-30832823D01*
X11753827Y-30832823D01*
X11771614Y-31127762D01*
X11846598Y-31413563D01*
X11975898Y-31679244D01*
X12039428Y-31774325D01*
X12259085Y-31888086D01*
X13257172Y-30890000D01*
X13262828Y-30890000D01*
X14260915Y-31888086D01*
X14480572Y-31774325D01*
X14629642Y-31519212D01*
X14726078Y-31239918D01*
X14766173Y-30947177D01*
X14759277Y-30832823D01*
X16833827Y-30832823D01*
X16851614Y-31127762D01*
X16926598Y-31413563D01*
X17055898Y-31679244D01*
X17119428Y-31774325D01*
X17339085Y-31888086D01*
X18337172Y-30890000D01*
X18342828Y-30890000D01*
X19340915Y-31888086D01*
X19560572Y-31774325D01*
X19709642Y-31519212D01*
X19806078Y-31239918D01*
X19808988Y-31218669D01*
X25768000Y-31218669D01*
X25768000Y-31371331D01*
X25797783Y-31521059D01*
X25856204Y-31662100D01*
X25941018Y-31789034D01*
X26048966Y-31896982D01*
X26175900Y-31981796D01*
X26316941Y-32040217D01*
X26466669Y-32070000D01*
X26619331Y-32070000D01*
X26769059Y-32040217D01*
X26910100Y-31981796D01*
X27037034Y-31896982D01*
X27144982Y-31789034D01*
X27229796Y-31662100D01*
X27288217Y-31521059D01*
X27318000Y-31371331D01*
X27318000Y-31218669D01*
X27288217Y-31068941D01*
X27229796Y-30927900D01*
X27144982Y-30800966D01*
X27037034Y-30693018D01*
X26910100Y-30608204D01*
X26769059Y-30549783D01*
X26619331Y-30520000D01*
X26466669Y-30520000D01*
X26316941Y-30549783D01*
X26175900Y-30608204D01*
X26048966Y-30693018D01*
X25941018Y-30800966D01*
X25856204Y-30927900D01*
X25797783Y-31068941D01*
X25768000Y-31218669D01*
X19808988Y-31218669D01*
X19846173Y-30947177D01*
X19828386Y-30652238D01*
X19753402Y-30366437D01*
X19624102Y-30100756D01*
X19607340Y-30075669D01*
X32372000Y-30075669D01*
X32372000Y-30228331D01*
X32401783Y-30378059D01*
X32460204Y-30519100D01*
X32545018Y-30646034D01*
X32652966Y-30753982D01*
X32779900Y-30838796D01*
X32920941Y-30897217D01*
X33070669Y-30927000D01*
X33223331Y-30927000D01*
X33373059Y-30897217D01*
X33514100Y-30838796D01*
X33641034Y-30753982D01*
X33748982Y-30646034D01*
X33833796Y-30519100D01*
X33892217Y-30378059D01*
X33922000Y-30228331D01*
X33922000Y-30090417D01*
X41614458Y-30090417D01*
X41644711Y-30596745D01*
X41773163Y-31087442D01*
X41994876Y-31543650D01*
X42105527Y-31709251D01*
X42435268Y-31951904D01*
X44197172Y-30190000D01*
X42435268Y-28428096D01*
X42105527Y-28670749D01*
X41849380Y-29108552D01*
X41683567Y-29587916D01*
X41614458Y-30090417D01*
X33922000Y-30090417D01*
X33922000Y-30075669D01*
X33892217Y-29925941D01*
X33833796Y-29784900D01*
X33748982Y-29657966D01*
X33641034Y-29550018D01*
X33514100Y-29465204D01*
X33373059Y-29406783D01*
X33223331Y-29377000D01*
X33070669Y-29377000D01*
X32920941Y-29406783D01*
X32779900Y-29465204D01*
X32652966Y-29550018D01*
X32545018Y-29657966D01*
X32460204Y-29784900D01*
X32401783Y-29925941D01*
X32372000Y-30075669D01*
X19607340Y-30075669D01*
X19560572Y-30005675D01*
X19340915Y-29891914D01*
X18342828Y-30890000D01*
X18337172Y-30890000D01*
X17339085Y-29891914D01*
X17119428Y-30005675D01*
X16970358Y-30260788D01*
X16873922Y-30540082D01*
X16833827Y-30832823D01*
X14759277Y-30832823D01*
X14748386Y-30652238D01*
X14673402Y-30366437D01*
X14544102Y-30100756D01*
X14480572Y-30005675D01*
X14260915Y-29891914D01*
X13262828Y-30890000D01*
X13257172Y-30890000D01*
X12259085Y-29891914D01*
X12039428Y-30005675D01*
X11890358Y-30260788D01*
X11793922Y-30540082D01*
X11753827Y-30832823D01*
X5502341Y-30832823D01*
X5516433Y-30792084D01*
X5585542Y-30289583D01*
X5561613Y-29889085D01*
X12261914Y-29889085D01*
X13260000Y-30887172D01*
X14258086Y-29889085D01*
X14144325Y-29669428D01*
X13889212Y-29520358D01*
X13609918Y-29423922D01*
X13317177Y-29383827D01*
X13022238Y-29401614D01*
X12736437Y-29476598D01*
X12470756Y-29605898D01*
X12375675Y-29669428D01*
X12261914Y-29889085D01*
X5561613Y-29889085D01*
X5555289Y-29783255D01*
X5426837Y-29292558D01*
X5205124Y-28836350D01*
X5094473Y-28670749D01*
X4764732Y-28428096D01*
X3002828Y-30190000D01*
X2997172Y-30190000D01*
X1235268Y-28428096D01*
X905527Y-28670749D01*
X649380Y-29108552D01*
X483567Y-29587916D01*
X425000Y-30013765D01*
X425000Y-28425268D01*
X1238096Y-28425268D01*
X3000000Y-30187172D01*
X4761904Y-28425268D01*
X4576054Y-28172716D01*
X14000000Y-28172716D01*
X14000000Y-28527284D01*
X14069173Y-28875041D01*
X14204861Y-29202620D01*
X14401849Y-29497433D01*
X14652567Y-29748151D01*
X14947380Y-29945139D01*
X15274959Y-30080827D01*
X15622716Y-30150000D01*
X15977284Y-30150000D01*
X16325041Y-30080827D01*
X16652620Y-29945139D01*
X16736510Y-29889085D01*
X17341914Y-29889085D01*
X18340000Y-30887172D01*
X19338086Y-29889085D01*
X19224325Y-29669428D01*
X18969212Y-29520358D01*
X18689918Y-29423922D01*
X18397177Y-29383827D01*
X18102238Y-29401614D01*
X17816437Y-29476598D01*
X17550756Y-29605898D01*
X17455675Y-29669428D01*
X17341914Y-29889085D01*
X16736510Y-29889085D01*
X16947433Y-29748151D01*
X17198151Y-29497433D01*
X17395139Y-29202620D01*
X17530827Y-28875041D01*
X17600000Y-28527284D01*
X17600000Y-28297669D01*
X25895000Y-28297669D01*
X25895000Y-28450331D01*
X25924783Y-28600059D01*
X25983204Y-28741100D01*
X26068018Y-28868034D01*
X26175966Y-28975982D01*
X26302900Y-29060796D01*
X26443941Y-29119217D01*
X26593669Y-29149000D01*
X26746331Y-29149000D01*
X26896059Y-29119217D01*
X27037100Y-29060796D01*
X27164034Y-28975982D01*
X27271982Y-28868034D01*
X27356796Y-28741100D01*
X27415217Y-28600059D01*
X27445000Y-28450331D01*
X27445000Y-28425268D01*
X42438096Y-28425268D01*
X44200000Y-30187172D01*
X45961904Y-28425268D01*
X45719251Y-28095527D01*
X45281448Y-27839380D01*
X44802084Y-27673567D01*
X44299583Y-27604458D01*
X43793255Y-27634711D01*
X43302558Y-27763163D01*
X42846350Y-27984876D01*
X42680749Y-28095527D01*
X42438096Y-28425268D01*
X27445000Y-28425268D01*
X27445000Y-28297669D01*
X27415217Y-28147941D01*
X27356796Y-28006900D01*
X27271982Y-27879966D01*
X27164034Y-27772018D01*
X27037100Y-27687204D01*
X26896059Y-27628783D01*
X26746331Y-27599000D01*
X26593669Y-27599000D01*
X26443941Y-27628783D01*
X26302900Y-27687204D01*
X26175966Y-27772018D01*
X26068018Y-27879966D01*
X25983204Y-28006900D01*
X25924783Y-28147941D01*
X25895000Y-28297669D01*
X17600000Y-28297669D01*
X17600000Y-28172716D01*
X17530827Y-27824959D01*
X17395139Y-27497380D01*
X17198151Y-27202567D01*
X16947433Y-26951849D01*
X16736511Y-26810915D01*
X17341914Y-26810915D01*
X17455675Y-27030572D01*
X17710788Y-27179642D01*
X17990082Y-27276078D01*
X18282823Y-27316173D01*
X18577762Y-27298386D01*
X18863563Y-27223402D01*
X19129244Y-27094102D01*
X19224325Y-27030572D01*
X19338086Y-26810915D01*
X18340000Y-25812828D01*
X17341914Y-26810915D01*
X16736511Y-26810915D01*
X16652620Y-26754861D01*
X16325041Y-26619173D01*
X15977284Y-26550000D01*
X15622716Y-26550000D01*
X15274959Y-26619173D01*
X14947380Y-26754861D01*
X14652567Y-26951849D01*
X14401849Y-27202567D01*
X14204861Y-27497380D01*
X14069173Y-27824959D01*
X14000000Y-28172716D01*
X4576054Y-28172716D01*
X4519251Y-28095527D01*
X4081448Y-27839380D01*
X3602084Y-27673567D01*
X3099583Y-27604458D01*
X2593255Y-27634711D01*
X2102558Y-27763163D01*
X1646350Y-27984876D01*
X1480749Y-28095527D01*
X1238096Y-28425268D01*
X425000Y-28425268D01*
X425000Y-26810915D01*
X12261914Y-26810915D01*
X12375675Y-27030572D01*
X12630788Y-27179642D01*
X12910082Y-27276078D01*
X13202823Y-27316173D01*
X13497762Y-27298386D01*
X13783563Y-27223402D01*
X14049244Y-27094102D01*
X14144325Y-27030572D01*
X14258086Y-26810915D01*
X13260000Y-25812828D01*
X12261914Y-26810915D01*
X425000Y-26810915D01*
X425000Y-25752823D01*
X11753827Y-25752823D01*
X11771614Y-26047762D01*
X11846598Y-26333563D01*
X11975898Y-26599244D01*
X12039428Y-26694325D01*
X12259085Y-26808086D01*
X13257172Y-25810000D01*
X13262828Y-25810000D01*
X14260915Y-26808086D01*
X14480572Y-26694325D01*
X14629642Y-26439212D01*
X14726078Y-26159918D01*
X14766173Y-25867177D01*
X14759277Y-25752823D01*
X16833827Y-25752823D01*
X16851614Y-26047762D01*
X16926598Y-26333563D01*
X17055898Y-26599244D01*
X17119428Y-26694325D01*
X17339085Y-26808086D01*
X18337172Y-25810000D01*
X18342828Y-25810000D01*
X19340915Y-26808086D01*
X19560572Y-26694325D01*
X19709642Y-26439212D01*
X19806078Y-26159918D01*
X19846173Y-25867177D01*
X19828386Y-25572238D01*
X19753402Y-25286437D01*
X19649854Y-25073669D01*
X29325000Y-25073669D01*
X29325000Y-25226331D01*
X29354783Y-25376059D01*
X29413204Y-25517100D01*
X29498018Y-25644034D01*
X29605966Y-25751982D01*
X29732900Y-25836796D01*
X29873941Y-25895217D01*
X30023669Y-25925000D01*
X30176331Y-25925000D01*
X30326059Y-25895217D01*
X30467100Y-25836796D01*
X30594034Y-25751982D01*
X30701982Y-25644034D01*
X30786796Y-25517100D01*
X30845217Y-25376059D01*
X30875000Y-25226331D01*
X30875000Y-25073669D01*
X30845217Y-24923941D01*
X30786796Y-24782900D01*
X30701982Y-24655966D01*
X30594034Y-24548018D01*
X30467100Y-24463204D01*
X30326059Y-24404783D01*
X30176331Y-24375000D01*
X30023669Y-24375000D01*
X29873941Y-24404783D01*
X29732900Y-24463204D01*
X29605966Y-24548018D01*
X29498018Y-24655966D01*
X29413204Y-24782900D01*
X29354783Y-24923941D01*
X29325000Y-25073669D01*
X19649854Y-25073669D01*
X19624102Y-25020756D01*
X19560572Y-24925675D01*
X19340915Y-24811914D01*
X18342828Y-25810000D01*
X18337172Y-25810000D01*
X17339085Y-24811914D01*
X17119428Y-24925675D01*
X16970358Y-25180788D01*
X16873922Y-25460082D01*
X16833827Y-25752823D01*
X14759277Y-25752823D01*
X14748386Y-25572238D01*
X14673402Y-25286437D01*
X14544102Y-25020756D01*
X14480572Y-24925675D01*
X14260915Y-24811914D01*
X13262828Y-25810000D01*
X13257172Y-25810000D01*
X12259085Y-24811914D01*
X12039428Y-24925675D01*
X11890358Y-25180788D01*
X11793922Y-25460082D01*
X11753827Y-25752823D01*
X425000Y-25752823D01*
X425000Y-23729348D01*
X775000Y-23729348D01*
X775000Y-23970652D01*
X822076Y-24207319D01*
X914419Y-24430255D01*
X1048481Y-24630892D01*
X1219108Y-24801519D01*
X1419745Y-24935581D01*
X1642681Y-25027924D01*
X1879348Y-25075000D01*
X2120652Y-25075000D01*
X2357319Y-25027924D01*
X2580255Y-24935581D01*
X2780892Y-24801519D01*
X2951519Y-24630892D01*
X3085581Y-24430255D01*
X3177924Y-24207319D01*
X3210488Y-24043607D01*
X3330397Y-24043607D01*
X3348382Y-24134025D01*
X3426689Y-24361041D01*
X3547780Y-24568418D01*
X3707002Y-24748186D01*
X3898235Y-24893437D01*
X4114131Y-24998590D01*
X4346393Y-25059603D01*
X4538000Y-24981248D01*
X4538000Y-23852000D01*
X4542000Y-23852000D01*
X4542000Y-24981248D01*
X4733607Y-25059603D01*
X4965869Y-24998590D01*
X5181765Y-24893437D01*
X5292820Y-24809085D01*
X12261914Y-24809085D01*
X13260000Y-25807172D01*
X14258086Y-24809085D01*
X17341914Y-24809085D01*
X18340000Y-25807172D01*
X19338086Y-24809085D01*
X19224325Y-24589428D01*
X18969212Y-24440358D01*
X18689918Y-24343922D01*
X18397177Y-24303827D01*
X18102238Y-24321614D01*
X17816437Y-24396598D01*
X17550756Y-24525898D01*
X17455675Y-24589428D01*
X17341914Y-24809085D01*
X14258086Y-24809085D01*
X14144325Y-24589428D01*
X13889212Y-24440358D01*
X13609918Y-24343922D01*
X13317177Y-24303827D01*
X13022238Y-24321614D01*
X12736437Y-24396598D01*
X12470756Y-24525898D01*
X12375675Y-24589428D01*
X12261914Y-24809085D01*
X5292820Y-24809085D01*
X5372998Y-24748186D01*
X5532220Y-24568418D01*
X5653311Y-24361041D01*
X5731618Y-24134025D01*
X5749603Y-24043607D01*
X5671248Y-23852000D01*
X4542000Y-23852000D01*
X4538000Y-23852000D01*
X3408752Y-23852000D01*
X3330397Y-24043607D01*
X3210488Y-24043607D01*
X3225000Y-23970652D01*
X3225000Y-23729348D01*
X3210489Y-23656393D01*
X3330397Y-23656393D01*
X3408752Y-23848000D01*
X4538000Y-23848000D01*
X4538000Y-22718752D01*
X4542000Y-22718752D01*
X4542000Y-23848000D01*
X5671248Y-23848000D01*
X5749603Y-23656393D01*
X5731618Y-23565975D01*
X5653311Y-23338959D01*
X5532220Y-23131582D01*
X5471976Y-23063564D01*
X32212440Y-23063564D01*
X32212440Y-23366436D01*
X32271527Y-23663490D01*
X32387432Y-23943308D01*
X32555699Y-24195138D01*
X32769862Y-24409301D01*
X33021692Y-24577568D01*
X33301510Y-24693473D01*
X33598564Y-24752560D01*
X33901436Y-24752560D01*
X34010254Y-24730915D01*
X39261914Y-24730915D01*
X39375675Y-24950572D01*
X39630788Y-25099642D01*
X39910082Y-25196078D01*
X40202823Y-25236173D01*
X40497762Y-25218386D01*
X40783563Y-25143402D01*
X41049244Y-25014102D01*
X41144325Y-24950572D01*
X41258086Y-24730915D01*
X44341914Y-24730915D01*
X44455675Y-24950572D01*
X44710788Y-25099642D01*
X44990082Y-25196078D01*
X45282823Y-25236173D01*
X45577762Y-25218386D01*
X45863563Y-25143402D01*
X46129244Y-25014102D01*
X46224325Y-24950572D01*
X46338086Y-24730915D01*
X45340000Y-23732828D01*
X44341914Y-24730915D01*
X41258086Y-24730915D01*
X40260000Y-23732828D01*
X39261914Y-24730915D01*
X34010254Y-24730915D01*
X34198490Y-24693473D01*
X34478308Y-24577568D01*
X34730138Y-24409301D01*
X34944301Y-24195138D01*
X35112568Y-23943308D01*
X35224607Y-23672823D01*
X38753827Y-23672823D01*
X38771614Y-23967762D01*
X38846598Y-24253563D01*
X38975898Y-24519244D01*
X39039428Y-24614325D01*
X39259085Y-24728086D01*
X40257172Y-23730000D01*
X40262828Y-23730000D01*
X41260915Y-24728086D01*
X41480572Y-24614325D01*
X41629642Y-24359212D01*
X41726078Y-24079918D01*
X41766173Y-23787177D01*
X41759277Y-23672823D01*
X43833827Y-23672823D01*
X43851614Y-23967762D01*
X43926598Y-24253563D01*
X44055898Y-24519244D01*
X44119428Y-24614325D01*
X44339085Y-24728086D01*
X45337172Y-23730000D01*
X44339085Y-22731914D01*
X44119428Y-22845675D01*
X43970358Y-23100788D01*
X43873922Y-23380082D01*
X43833827Y-23672823D01*
X41759277Y-23672823D01*
X41748386Y-23492238D01*
X41673402Y-23206437D01*
X41544102Y-22940756D01*
X41480572Y-22845675D01*
X41260915Y-22731914D01*
X40262828Y-23730000D01*
X40257172Y-23730000D01*
X39259085Y-22731914D01*
X39039428Y-22845675D01*
X38890358Y-23100788D01*
X38793922Y-23380082D01*
X38753827Y-23672823D01*
X35224607Y-23672823D01*
X35228473Y-23663490D01*
X35287560Y-23366436D01*
X35287560Y-23063564D01*
X35228473Y-22766510D01*
X35212971Y-22729085D01*
X39261914Y-22729085D01*
X40260000Y-23727172D01*
X41258086Y-22729085D01*
X41144325Y-22509428D01*
X40889212Y-22360358D01*
X40609918Y-22263922D01*
X40317177Y-22223827D01*
X40022238Y-22241614D01*
X39736437Y-22316598D01*
X39470756Y-22445898D01*
X39375675Y-22509428D01*
X39261914Y-22729085D01*
X35212971Y-22729085D01*
X35112568Y-22486692D01*
X34944301Y-22234862D01*
X34730138Y-22020699D01*
X34478308Y-21852432D01*
X34198490Y-21736527D01*
X33901436Y-21677440D01*
X33598564Y-21677440D01*
X33301510Y-21736527D01*
X33021692Y-21852432D01*
X32769862Y-22020699D01*
X32555699Y-22234862D01*
X32387432Y-22486692D01*
X32271527Y-22766510D01*
X32212440Y-23063564D01*
X5471976Y-23063564D01*
X5372998Y-22951814D01*
X5181765Y-22806563D01*
X4965869Y-22701410D01*
X4733607Y-22640397D01*
X4542000Y-22718752D01*
X4538000Y-22718752D01*
X4346393Y-22640397D01*
X4114131Y-22701410D01*
X3898235Y-22806563D01*
X3707002Y-22951814D01*
X3547780Y-23131582D01*
X3426689Y-23338959D01*
X3348382Y-23565975D01*
X3330397Y-23656393D01*
X3210489Y-23656393D01*
X3177924Y-23492681D01*
X3085581Y-23269745D01*
X2951519Y-23069108D01*
X2780892Y-22898481D01*
X2580255Y-22764419D01*
X2357319Y-22672076D01*
X2120652Y-22625000D01*
X1879348Y-22625000D01*
X1642681Y-22672076D01*
X1419745Y-22764419D01*
X1219108Y-22898481D01*
X1048481Y-23069108D01*
X914419Y-23269745D01*
X822076Y-23492681D01*
X775000Y-23729348D01*
X425000Y-23729348D01*
X425000Y-21189348D01*
X775000Y-21189348D01*
X775000Y-21430652D01*
X822076Y-21667319D01*
X914419Y-21890255D01*
X1048481Y-22090892D01*
X1219108Y-22261519D01*
X1419745Y-22395581D01*
X1642681Y-22487924D01*
X1879348Y-22535000D01*
X2120652Y-22535000D01*
X2357319Y-22487924D01*
X2580255Y-22395581D01*
X2780892Y-22261519D01*
X2951519Y-22090892D01*
X3085581Y-21890255D01*
X3177924Y-21667319D01*
X3225000Y-21430652D01*
X3225000Y-21189348D01*
X3315000Y-21189348D01*
X3315000Y-21430652D01*
X3362076Y-21667319D01*
X3454419Y-21890255D01*
X3588481Y-22090892D01*
X3759108Y-22261519D01*
X3959745Y-22395581D01*
X4182681Y-22487924D01*
X4419348Y-22535000D01*
X4660652Y-22535000D01*
X4897319Y-22487924D01*
X5120255Y-22395581D01*
X5320892Y-22261519D01*
X5491519Y-22090892D01*
X5625581Y-21890255D01*
X5717924Y-21667319D01*
X5756443Y-21473669D01*
X9975000Y-21473669D01*
X9975000Y-21626331D01*
X10004783Y-21776059D01*
X10063204Y-21917100D01*
X10148018Y-22044034D01*
X10255966Y-22151982D01*
X10382900Y-22236796D01*
X10523941Y-22295217D01*
X10673669Y-22325000D01*
X10826331Y-22325000D01*
X10976059Y-22295217D01*
X11117100Y-22236796D01*
X11244034Y-22151982D01*
X11351982Y-22044034D01*
X11436796Y-21917100D01*
X11495217Y-21776059D01*
X11525000Y-21626331D01*
X11525000Y-21473669D01*
X11495217Y-21323941D01*
X11436796Y-21182900D01*
X11351982Y-21055966D01*
X11308732Y-21012716D01*
X41000000Y-21012716D01*
X41000000Y-21367284D01*
X41069173Y-21715041D01*
X41204861Y-22042620D01*
X41401849Y-22337433D01*
X41652567Y-22588151D01*
X41947380Y-22785139D01*
X42274959Y-22920827D01*
X42622716Y-22990000D01*
X42977284Y-22990000D01*
X43325041Y-22920827D01*
X43652620Y-22785139D01*
X43736510Y-22729085D01*
X44341914Y-22729085D01*
X45340000Y-23727172D01*
X46338086Y-22729085D01*
X46224325Y-22509428D01*
X45969212Y-22360358D01*
X45689918Y-22263922D01*
X45397177Y-22223827D01*
X45102238Y-22241614D01*
X44816437Y-22316598D01*
X44550756Y-22445898D01*
X44455675Y-22509428D01*
X44341914Y-22729085D01*
X43736510Y-22729085D01*
X43947433Y-22588151D01*
X44198151Y-22337433D01*
X44395139Y-22042620D01*
X44530827Y-21715041D01*
X44600000Y-21367284D01*
X44600000Y-21012716D01*
X44530827Y-20664959D01*
X44395139Y-20337380D01*
X44198151Y-20042567D01*
X43947433Y-19791849D01*
X43736511Y-19650915D01*
X44341914Y-19650915D01*
X44455675Y-19870572D01*
X44710788Y-20019642D01*
X44990082Y-20116078D01*
X45282823Y-20156173D01*
X45577762Y-20138386D01*
X45863563Y-20063402D01*
X46129244Y-19934102D01*
X46224325Y-19870572D01*
X46338086Y-19650915D01*
X45340000Y-18652828D01*
X44341914Y-19650915D01*
X43736511Y-19650915D01*
X43652620Y-19594861D01*
X43325041Y-19459173D01*
X42977284Y-19390000D01*
X42622716Y-19390000D01*
X42274959Y-19459173D01*
X41947380Y-19594861D01*
X41652567Y-19791849D01*
X41401849Y-20042567D01*
X41204861Y-20337380D01*
X41069173Y-20664959D01*
X41000000Y-21012716D01*
X11308732Y-21012716D01*
X11244034Y-20948018D01*
X11117100Y-20863204D01*
X10976059Y-20804783D01*
X10826331Y-20775000D01*
X10673669Y-20775000D01*
X10523941Y-20804783D01*
X10382900Y-20863204D01*
X10255966Y-20948018D01*
X10148018Y-21055966D01*
X10063204Y-21182900D01*
X10004783Y-21323941D01*
X9975000Y-21473669D01*
X5756443Y-21473669D01*
X5765000Y-21430652D01*
X5765000Y-21189348D01*
X5717924Y-20952681D01*
X5625581Y-20729745D01*
X5491519Y-20529108D01*
X5320892Y-20358481D01*
X5120255Y-20224419D01*
X5118445Y-20223669D01*
X7175000Y-20223669D01*
X7175000Y-20376331D01*
X7204783Y-20526059D01*
X7263204Y-20667100D01*
X7348018Y-20794034D01*
X7455966Y-20901982D01*
X7582900Y-20986796D01*
X7723941Y-21045217D01*
X7873669Y-21075000D01*
X8026331Y-21075000D01*
X8176059Y-21045217D01*
X8317100Y-20986796D01*
X8444034Y-20901982D01*
X8551982Y-20794034D01*
X8636796Y-20667100D01*
X8695217Y-20526059D01*
X8725000Y-20376331D01*
X8725000Y-20223669D01*
X8695217Y-20073941D01*
X8636796Y-19932900D01*
X8551982Y-19805966D01*
X8444034Y-19698018D01*
X8373539Y-19650915D01*
X39261914Y-19650915D01*
X39375675Y-19870572D01*
X39630788Y-20019642D01*
X39910082Y-20116078D01*
X40202823Y-20156173D01*
X40497762Y-20138386D01*
X40783563Y-20063402D01*
X41049244Y-19934102D01*
X41144325Y-19870572D01*
X41258086Y-19650915D01*
X40260000Y-18652828D01*
X39261914Y-19650915D01*
X8373539Y-19650915D01*
X8317100Y-19613204D01*
X8176059Y-19554783D01*
X8026331Y-19525000D01*
X7873669Y-19525000D01*
X7723941Y-19554783D01*
X7582900Y-19613204D01*
X7455966Y-19698018D01*
X7348018Y-19805966D01*
X7263204Y-19932900D01*
X7204783Y-20073941D01*
X7175000Y-20223669D01*
X5118445Y-20223669D01*
X4897319Y-20132076D01*
X4660652Y-20085000D01*
X4419348Y-20085000D01*
X4182681Y-20132076D01*
X3959745Y-20224419D01*
X3759108Y-20358481D01*
X3588481Y-20529108D01*
X3454419Y-20729745D01*
X3362076Y-20952681D01*
X3315000Y-21189348D01*
X3225000Y-21189348D01*
X3177924Y-20952681D01*
X3085581Y-20729745D01*
X2951519Y-20529108D01*
X2780892Y-20358481D01*
X2580255Y-20224419D01*
X2357319Y-20132076D01*
X2120652Y-20085000D01*
X1879348Y-20085000D01*
X1642681Y-20132076D01*
X1419745Y-20224419D01*
X1219108Y-20358481D01*
X1048481Y-20529108D01*
X914419Y-20729745D01*
X822076Y-20952681D01*
X775000Y-21189348D01*
X425000Y-21189348D01*
X425000Y-18649348D01*
X775000Y-18649348D01*
X775000Y-18890652D01*
X822076Y-19127319D01*
X914419Y-19350255D01*
X1048481Y-19550892D01*
X1219108Y-19721519D01*
X1419745Y-19855581D01*
X1642681Y-19947924D01*
X1879348Y-19995000D01*
X2120652Y-19995000D01*
X2357319Y-19947924D01*
X2580255Y-19855581D01*
X2780892Y-19721519D01*
X2951519Y-19550892D01*
X3085581Y-19350255D01*
X3177924Y-19127319D01*
X3225000Y-18890652D01*
X3225000Y-18649348D01*
X3315000Y-18649348D01*
X3315000Y-18890652D01*
X3362076Y-19127319D01*
X3454419Y-19350255D01*
X3588481Y-19550892D01*
X3759108Y-19721519D01*
X3959745Y-19855581D01*
X4182681Y-19947924D01*
X4419348Y-19995000D01*
X4660652Y-19995000D01*
X4897319Y-19947924D01*
X5120255Y-19855581D01*
X5320892Y-19721519D01*
X5491519Y-19550892D01*
X5625581Y-19350255D01*
X5717924Y-19127319D01*
X5765000Y-18890652D01*
X5765000Y-18649348D01*
X5753757Y-18592823D01*
X38753827Y-18592823D01*
X38771614Y-18887762D01*
X38846598Y-19173563D01*
X38975898Y-19439244D01*
X39039428Y-19534325D01*
X39259085Y-19648086D01*
X40257172Y-18650000D01*
X40262828Y-18650000D01*
X41260915Y-19648086D01*
X41480572Y-19534325D01*
X41629642Y-19279212D01*
X41726078Y-18999918D01*
X41766173Y-18707177D01*
X41759277Y-18592823D01*
X43833827Y-18592823D01*
X43851614Y-18887762D01*
X43926598Y-19173563D01*
X44055898Y-19439244D01*
X44119428Y-19534325D01*
X44339085Y-19648086D01*
X45337172Y-18650000D01*
X44339085Y-17651914D01*
X44119428Y-17765675D01*
X43970358Y-18020788D01*
X43873922Y-18300082D01*
X43833827Y-18592823D01*
X41759277Y-18592823D01*
X41748386Y-18412238D01*
X41673402Y-18126437D01*
X41544102Y-17860756D01*
X41480572Y-17765675D01*
X41260915Y-17651914D01*
X40262828Y-18650000D01*
X40257172Y-18650000D01*
X39259085Y-17651914D01*
X39039428Y-17765675D01*
X38890358Y-18020788D01*
X38793922Y-18300082D01*
X38753827Y-18592823D01*
X5753757Y-18592823D01*
X5717924Y-18412681D01*
X5625581Y-18189745D01*
X5491519Y-17989108D01*
X5320892Y-17818481D01*
X5120255Y-17684419D01*
X5034952Y-17649085D01*
X39261914Y-17649085D01*
X40260000Y-18647172D01*
X41258086Y-17649085D01*
X44341914Y-17649085D01*
X45340000Y-18647172D01*
X46338086Y-17649085D01*
X46224325Y-17429428D01*
X45969212Y-17280358D01*
X45689918Y-17183922D01*
X45397177Y-17143827D01*
X45102238Y-17161614D01*
X44816437Y-17236598D01*
X44550756Y-17365898D01*
X44455675Y-17429428D01*
X44341914Y-17649085D01*
X41258086Y-17649085D01*
X41144325Y-17429428D01*
X40889212Y-17280358D01*
X40609918Y-17183922D01*
X40317177Y-17143827D01*
X40022238Y-17161614D01*
X39736437Y-17236598D01*
X39470756Y-17365898D01*
X39375675Y-17429428D01*
X39261914Y-17649085D01*
X5034952Y-17649085D01*
X4897319Y-17592076D01*
X4660652Y-17545000D01*
X4419348Y-17545000D01*
X4182681Y-17592076D01*
X3959745Y-17684419D01*
X3759108Y-17818481D01*
X3588481Y-17989108D01*
X3454419Y-18189745D01*
X3362076Y-18412681D01*
X3315000Y-18649348D01*
X3225000Y-18649348D01*
X3177924Y-18412681D01*
X3085581Y-18189745D01*
X2951519Y-17989108D01*
X2780892Y-17818481D01*
X2580255Y-17684419D01*
X2357319Y-17592076D01*
X2120652Y-17545000D01*
X1879348Y-17545000D01*
X1642681Y-17592076D01*
X1419745Y-17684419D01*
X1219108Y-17818481D01*
X1048481Y-17989108D01*
X914419Y-18189745D01*
X822076Y-18412681D01*
X775000Y-18649348D01*
X425000Y-18649348D01*
X425000Y-16109348D01*
X775000Y-16109348D01*
X775000Y-16350652D01*
X822076Y-16587319D01*
X914419Y-16810255D01*
X1048481Y-17010892D01*
X1219108Y-17181519D01*
X1419745Y-17315581D01*
X1642681Y-17407924D01*
X1879348Y-17455000D01*
X2120652Y-17455000D01*
X2357319Y-17407924D01*
X2580255Y-17315581D01*
X2780892Y-17181519D01*
X2951519Y-17010892D01*
X3085581Y-16810255D01*
X3177924Y-16587319D01*
X3225000Y-16350652D01*
X3225000Y-16109348D01*
X3315000Y-16109348D01*
X3315000Y-16350652D01*
X3362076Y-16587319D01*
X3454419Y-16810255D01*
X3588481Y-17010892D01*
X3759108Y-17181519D01*
X3959745Y-17315581D01*
X4182681Y-17407924D01*
X4419348Y-17455000D01*
X4660652Y-17455000D01*
X4897319Y-17407924D01*
X5120255Y-17315581D01*
X5320892Y-17181519D01*
X5491519Y-17010892D01*
X5625581Y-16810255D01*
X5682156Y-16673669D01*
X11325000Y-16673669D01*
X11325000Y-16826331D01*
X11354783Y-16976059D01*
X11413204Y-17117100D01*
X11498018Y-17244034D01*
X11605966Y-17351982D01*
X11732900Y-17436796D01*
X11873941Y-17495217D01*
X12023669Y-17525000D01*
X12176331Y-17525000D01*
X12326059Y-17495217D01*
X12467100Y-17436796D01*
X12594034Y-17351982D01*
X12701982Y-17244034D01*
X12786796Y-17117100D01*
X12845217Y-16976059D01*
X12875000Y-16826331D01*
X12875000Y-16673669D01*
X12845217Y-16523941D01*
X12786796Y-16382900D01*
X12701982Y-16255966D01*
X12594034Y-16148018D01*
X12467100Y-16063204D01*
X12326059Y-16004783D01*
X12176331Y-15975000D01*
X12023669Y-15975000D01*
X11873941Y-16004783D01*
X11732900Y-16063204D01*
X11605966Y-16148018D01*
X11498018Y-16255966D01*
X11413204Y-16382900D01*
X11354783Y-16523941D01*
X11325000Y-16673669D01*
X5682156Y-16673669D01*
X5717924Y-16587319D01*
X5765000Y-16350652D01*
X5765000Y-16109348D01*
X5717924Y-15872681D01*
X5625581Y-15649745D01*
X5491519Y-15449108D01*
X5320892Y-15278481D01*
X5120255Y-15144419D01*
X4897319Y-15052076D01*
X4660652Y-15005000D01*
X4419348Y-15005000D01*
X4182681Y-15052076D01*
X3959745Y-15144419D01*
X3759108Y-15278481D01*
X3588481Y-15449108D01*
X3454419Y-15649745D01*
X3362076Y-15872681D01*
X3315000Y-16109348D01*
X3225000Y-16109348D01*
X3177924Y-15872681D01*
X3085581Y-15649745D01*
X2951519Y-15449108D01*
X2780892Y-15278481D01*
X2580255Y-15144419D01*
X2357319Y-15052076D01*
X2120652Y-15005000D01*
X1879348Y-15005000D01*
X1642681Y-15052076D01*
X1419745Y-15144419D01*
X1219108Y-15278481D01*
X1048481Y-15449108D01*
X914419Y-15649745D01*
X822076Y-15872681D01*
X775000Y-16109348D01*
X425000Y-16109348D01*
X425000Y-13569348D01*
X775000Y-13569348D01*
X775000Y-13810652D01*
X822076Y-14047319D01*
X914419Y-14270255D01*
X1048481Y-14470892D01*
X1219108Y-14641519D01*
X1419745Y-14775581D01*
X1642681Y-14867924D01*
X1879348Y-14915000D01*
X2120652Y-14915000D01*
X2357319Y-14867924D01*
X2580255Y-14775581D01*
X2780892Y-14641519D01*
X2951519Y-14470892D01*
X3085581Y-14270255D01*
X3177924Y-14047319D01*
X3225000Y-13810652D01*
X3225000Y-13569348D01*
X3315000Y-13569348D01*
X3315000Y-13810652D01*
X3362076Y-14047319D01*
X3454419Y-14270255D01*
X3588481Y-14470892D01*
X3759108Y-14641519D01*
X3959745Y-14775581D01*
X4182681Y-14867924D01*
X4419348Y-14915000D01*
X4660652Y-14915000D01*
X4868457Y-14873665D01*
X11425000Y-14873665D01*
X11425000Y-15026327D01*
X11454783Y-15176055D01*
X11513204Y-15317096D01*
X11598018Y-15444030D01*
X11705966Y-15551978D01*
X11832900Y-15636792D01*
X11973941Y-15695213D01*
X12123669Y-15724996D01*
X12276331Y-15724996D01*
X12426059Y-15695213D01*
X12567100Y-15636792D01*
X12694034Y-15551978D01*
X12801982Y-15444030D01*
X12886796Y-15317096D01*
X12945217Y-15176055D01*
X12957624Y-15113679D01*
X28364996Y-15113679D01*
X28364996Y-15266341D01*
X28394779Y-15416069D01*
X28453200Y-15557110D01*
X28538014Y-15684044D01*
X28645962Y-15791992D01*
X28772896Y-15876806D01*
X28913937Y-15935227D01*
X29063665Y-15965010D01*
X29216327Y-15965010D01*
X29366055Y-15935227D01*
X29507096Y-15876806D01*
X29634030Y-15791992D01*
X29741978Y-15684044D01*
X29826792Y-15557110D01*
X29885213Y-15416069D01*
X29914996Y-15266341D01*
X29914996Y-15113679D01*
X29885213Y-14963951D01*
X29826792Y-14822910D01*
X29741978Y-14695976D01*
X29634030Y-14588028D01*
X29507096Y-14503214D01*
X29366055Y-14444793D01*
X29216327Y-14415010D01*
X29063665Y-14415010D01*
X28913937Y-14444793D01*
X28772896Y-14503214D01*
X28645962Y-14588028D01*
X28538014Y-14695976D01*
X28453200Y-14822910D01*
X28394779Y-14963951D01*
X28364996Y-15113679D01*
X12957624Y-15113679D01*
X12975000Y-15026327D01*
X12975000Y-14873665D01*
X12945217Y-14723937D01*
X12886796Y-14582896D01*
X12801982Y-14455962D01*
X12694034Y-14348014D01*
X12657599Y-14323669D01*
X39125000Y-14323669D01*
X39125000Y-14476331D01*
X39154783Y-14626059D01*
X39213204Y-14767100D01*
X39298018Y-14894034D01*
X39405966Y-15001982D01*
X39532900Y-15086796D01*
X39673941Y-15145217D01*
X39823669Y-15175000D01*
X39976331Y-15175000D01*
X40126059Y-15145217D01*
X40267100Y-15086796D01*
X40394034Y-15001982D01*
X40501982Y-14894034D01*
X40586796Y-14767100D01*
X40645217Y-14626059D01*
X40675000Y-14476331D01*
X40675000Y-14323669D01*
X40645217Y-14173941D01*
X40586796Y-14032900D01*
X40501982Y-13905966D01*
X40394034Y-13798018D01*
X40267100Y-13713204D01*
X40126059Y-13654783D01*
X39976331Y-13625000D01*
X39823669Y-13625000D01*
X39673941Y-13654783D01*
X39532900Y-13713204D01*
X39405966Y-13798018D01*
X39298018Y-13905966D01*
X39213204Y-14032900D01*
X39154783Y-14173941D01*
X39125000Y-14323669D01*
X12657599Y-14323669D01*
X12567100Y-14263200D01*
X12426059Y-14204779D01*
X12276331Y-14174996D01*
X12123669Y-14174996D01*
X11973941Y-14204779D01*
X11832900Y-14263200D01*
X11705966Y-14348014D01*
X11598018Y-14455962D01*
X11513204Y-14582896D01*
X11454783Y-14723937D01*
X11425000Y-14873665D01*
X4868457Y-14873665D01*
X4897319Y-14867924D01*
X5120255Y-14775581D01*
X5320892Y-14641519D01*
X5491519Y-14470892D01*
X5625581Y-14270255D01*
X5717924Y-14047319D01*
X5765000Y-13810652D01*
X5765000Y-13569348D01*
X5717924Y-13332681D01*
X5625581Y-13109745D01*
X5491519Y-12909108D01*
X5320892Y-12738481D01*
X5120255Y-12604419D01*
X4897319Y-12512076D01*
X4660652Y-12465000D01*
X4419348Y-12465000D01*
X4182681Y-12512076D01*
X3959745Y-12604419D01*
X3759108Y-12738481D01*
X3588481Y-12909108D01*
X3454419Y-13109745D01*
X3362076Y-13332681D01*
X3315000Y-13569348D01*
X3225000Y-13569348D01*
X3177924Y-13332681D01*
X3085581Y-13109745D01*
X2951519Y-12909108D01*
X2780892Y-12738481D01*
X2580255Y-12604419D01*
X2357319Y-12512076D01*
X2120652Y-12465000D01*
X1879348Y-12465000D01*
X1642681Y-12512076D01*
X1419745Y-12604419D01*
X1219108Y-12738481D01*
X1048481Y-12909108D01*
X914419Y-13109745D01*
X822076Y-13332681D01*
X775000Y-13569348D01*
X425000Y-13569348D01*
X425000Y-10300000D01*
X773186Y-10300000D01*
X773186Y-12000000D01*
X780426Y-12073513D01*
X801869Y-12144200D01*
X836691Y-12209347D01*
X883552Y-12266448D01*
X940653Y-12313309D01*
X1005800Y-12348131D01*
X1076487Y-12369574D01*
X1150000Y-12376814D01*
X2850000Y-12376814D01*
X2923513Y-12369574D01*
X2994200Y-12348131D01*
X3059347Y-12313309D01*
X3116448Y-12266448D01*
X3163309Y-12209347D01*
X3198131Y-12144200D01*
X3219574Y-12073513D01*
X3226814Y-12000000D01*
X3226814Y-11029348D01*
X3315000Y-11029348D01*
X3315000Y-11270652D01*
X3362076Y-11507319D01*
X3454419Y-11730255D01*
X3588481Y-11930892D01*
X3759108Y-12101519D01*
X3959745Y-12235581D01*
X4182681Y-12327924D01*
X4419348Y-12375000D01*
X4660652Y-12375000D01*
X4897319Y-12327924D01*
X5120255Y-12235581D01*
X5320892Y-12101519D01*
X5491519Y-11930892D01*
X5625581Y-11730255D01*
X5717924Y-11507319D01*
X5765000Y-11270652D01*
X5765000Y-11029348D01*
X5717924Y-10792681D01*
X5625581Y-10569745D01*
X5491519Y-10369108D01*
X5320892Y-10198481D01*
X5120255Y-10064419D01*
X4897319Y-9972076D01*
X4660652Y-9925000D01*
X4419348Y-9925000D01*
X4182681Y-9972076D01*
X3959745Y-10064419D01*
X3759108Y-10198481D01*
X3588481Y-10369108D01*
X3454419Y-10569745D01*
X3362076Y-10792681D01*
X3315000Y-11029348D01*
X3226814Y-11029348D01*
X3226814Y-10300000D01*
X3219574Y-10226487D01*
X3198131Y-10155800D01*
X3163309Y-10090653D01*
X3116448Y-10033552D01*
X3059347Y-9986691D01*
X2994200Y-9951869D01*
X2923513Y-9930426D01*
X2850000Y-9923186D01*
X1150000Y-9923186D01*
X1076487Y-9930426D01*
X1005800Y-9951869D01*
X940653Y-9986691D01*
X883552Y-10033552D01*
X836691Y-10090653D01*
X801869Y-10155800D01*
X780426Y-10226487D01*
X773186Y-10300000D01*
X425000Y-10300000D01*
X425000Y-9173669D01*
X14525000Y-9173669D01*
X14525000Y-9326331D01*
X14554783Y-9476059D01*
X14613204Y-9617100D01*
X14698018Y-9744034D01*
X14805966Y-9851982D01*
X14932900Y-9936796D01*
X15073941Y-9995217D01*
X15223669Y-10025000D01*
X15376331Y-10025000D01*
X15526059Y-9995217D01*
X15667100Y-9936796D01*
X15794034Y-9851982D01*
X15901982Y-9744034D01*
X15986796Y-9617100D01*
X16045217Y-9476059D01*
X16070776Y-9347564D01*
X32212440Y-9347564D01*
X32212440Y-9650436D01*
X32271527Y-9947490D01*
X32387432Y-10227308D01*
X32555699Y-10479138D01*
X32769862Y-10693301D01*
X33021692Y-10861568D01*
X33301510Y-10977473D01*
X33598564Y-11036560D01*
X33901436Y-11036560D01*
X34198490Y-10977473D01*
X34478308Y-10861568D01*
X34730138Y-10693301D01*
X34944301Y-10479138D01*
X35112568Y-10227308D01*
X35228473Y-9947490D01*
X35287560Y-9650436D01*
X35287560Y-9347564D01*
X35228473Y-9050510D01*
X35112568Y-8770692D01*
X34944301Y-8518862D01*
X34730138Y-8304699D01*
X34478308Y-8136432D01*
X34198490Y-8020527D01*
X33901436Y-7961440D01*
X33598564Y-7961440D01*
X33301510Y-8020527D01*
X33021692Y-8136432D01*
X32769862Y-8304699D01*
X32555699Y-8518862D01*
X32387432Y-8770692D01*
X32271527Y-9050510D01*
X32212440Y-9347564D01*
X16070776Y-9347564D01*
X16075000Y-9326331D01*
X16075000Y-9173669D01*
X16045217Y-9023941D01*
X15986796Y-8882900D01*
X15901982Y-8755966D01*
X15794034Y-8648018D01*
X15667100Y-8563204D01*
X15526059Y-8504783D01*
X15376331Y-8475000D01*
X15223669Y-8475000D01*
X15073941Y-8504783D01*
X14932900Y-8563204D01*
X14805966Y-8648018D01*
X14698018Y-8755966D01*
X14613204Y-8882900D01*
X14554783Y-9023941D01*
X14525000Y-9173669D01*
X425000Y-9173669D01*
X425000Y-7973669D01*
X11425000Y-7973669D01*
X11425000Y-8126331D01*
X11454783Y-8276059D01*
X11513204Y-8417100D01*
X11598018Y-8544034D01*
X11705966Y-8651982D01*
X11832900Y-8736796D01*
X11973941Y-8795217D01*
X12123669Y-8825000D01*
X12276331Y-8825000D01*
X12426059Y-8795217D01*
X12567100Y-8736796D01*
X12694034Y-8651982D01*
X12801982Y-8544034D01*
X12886796Y-8417100D01*
X12945217Y-8276059D01*
X12975000Y-8126331D01*
X12975000Y-7973669D01*
X12945217Y-7823941D01*
X12886796Y-7682900D01*
X12801982Y-7555966D01*
X12694034Y-7448018D01*
X12567100Y-7363204D01*
X12471654Y-7323669D01*
X38325000Y-7323669D01*
X38325000Y-7476331D01*
X38354783Y-7626059D01*
X38413204Y-7767100D01*
X38498018Y-7894034D01*
X38605966Y-8001982D01*
X38732900Y-8086796D01*
X38873941Y-8145217D01*
X39023669Y-8175000D01*
X39176331Y-8175000D01*
X39326059Y-8145217D01*
X39467100Y-8086796D01*
X39594034Y-8001982D01*
X39701982Y-7894034D01*
X39786796Y-7767100D01*
X39845217Y-7626059D01*
X39875000Y-7476331D01*
X39875000Y-7323669D01*
X39845217Y-7173941D01*
X39786796Y-7032900D01*
X39701982Y-6905966D01*
X39594034Y-6798018D01*
X39467100Y-6713204D01*
X39326059Y-6654783D01*
X39176331Y-6625000D01*
X39023669Y-6625000D01*
X38873941Y-6654783D01*
X38732900Y-6713204D01*
X38605966Y-6798018D01*
X38498018Y-6905966D01*
X38413204Y-7032900D01*
X38354783Y-7173941D01*
X38325000Y-7323669D01*
X12471654Y-7323669D01*
X12426059Y-7304783D01*
X12276331Y-7275000D01*
X12123669Y-7275000D01*
X11973941Y-7304783D01*
X11832900Y-7363204D01*
X11705966Y-7448018D01*
X11598018Y-7555966D01*
X11513204Y-7682900D01*
X11454783Y-7823941D01*
X11425000Y-7973669D01*
X425000Y-7973669D01*
X425000Y-4754732D01*
X1238096Y-4754732D01*
X1480749Y-5084473D01*
X1918552Y-5340620D01*
X2397916Y-5506433D01*
X2900417Y-5575542D01*
X3406745Y-5545289D01*
X3897442Y-5416837D01*
X4353650Y-5195124D01*
X4519251Y-5084473D01*
X4761904Y-4754732D01*
X3000000Y-2992828D01*
X1238096Y-4754732D01*
X425000Y-4754732D01*
X425000Y-3066853D01*
X444711Y-3396745D01*
X573163Y-3887442D01*
X794876Y-4343650D01*
X905527Y-4509251D01*
X1235268Y-4751904D01*
X2997172Y-2990000D01*
X3002828Y-2990000D01*
X4764732Y-4751904D01*
X5094473Y-4509251D01*
X5350620Y-4071448D01*
X5516433Y-3592084D01*
X5518965Y-3573669D01*
X14525000Y-3573669D01*
X14525000Y-3726331D01*
X14554783Y-3876059D01*
X14613204Y-4017100D01*
X14698018Y-4144034D01*
X14753984Y-4200000D01*
X14698018Y-4255966D01*
X14613204Y-4382900D01*
X14554783Y-4523941D01*
X14525000Y-4673669D01*
X14525000Y-4826331D01*
X14554783Y-4976059D01*
X14613204Y-5117100D01*
X14698018Y-5244034D01*
X14805966Y-5351982D01*
X14932900Y-5436796D01*
X15073941Y-5495217D01*
X15223669Y-5525000D01*
X15376331Y-5525000D01*
X15526059Y-5495217D01*
X15667100Y-5436796D01*
X15794034Y-5351982D01*
X15901982Y-5244034D01*
X15986796Y-5117100D01*
X16045217Y-4976059D01*
X16075000Y-4826331D01*
X16075000Y-4723669D01*
X27875000Y-4723669D01*
X27875000Y-4876331D01*
X27904783Y-5026059D01*
X27963204Y-5167100D01*
X28048018Y-5294034D01*
X28155966Y-5401982D01*
X28282900Y-5486796D01*
X28423941Y-5545217D01*
X28573669Y-5575000D01*
X28726331Y-5575000D01*
X28876059Y-5545217D01*
X29017100Y-5486796D01*
X29144034Y-5401982D01*
X29251982Y-5294034D01*
X29336796Y-5167100D01*
X29395217Y-5026059D01*
X29425000Y-4876331D01*
X29425000Y-4723669D01*
X29395217Y-4573941D01*
X29336796Y-4432900D01*
X29251982Y-4305966D01*
X29144034Y-4198018D01*
X29017100Y-4113204D01*
X28876059Y-4054783D01*
X28726331Y-4025000D01*
X28573669Y-4025000D01*
X28423941Y-4054783D01*
X28282900Y-4113204D01*
X28155966Y-4198018D01*
X28048018Y-4305966D01*
X27963204Y-4432900D01*
X27904783Y-4573941D01*
X27875000Y-4723669D01*
X16075000Y-4723669D01*
X16075000Y-4673669D01*
X16045217Y-4523941D01*
X15986796Y-4382900D01*
X15901982Y-4255966D01*
X15846016Y-4200000D01*
X15901982Y-4144034D01*
X15986796Y-4017100D01*
X16045217Y-3876059D01*
X16075000Y-3726331D01*
X16075000Y-3573669D01*
X16045217Y-3423941D01*
X15986796Y-3282900D01*
X15901982Y-3155966D01*
X15794034Y-3048018D01*
X15667100Y-2963204D01*
X15526059Y-2904783D01*
X15376331Y-2875000D01*
X15223669Y-2875000D01*
X15073941Y-2904783D01*
X14932900Y-2963204D01*
X14805966Y-3048018D01*
X14698018Y-3155966D01*
X14613204Y-3282900D01*
X14554783Y-3423941D01*
X14525000Y-3573669D01*
X5518965Y-3573669D01*
X5585542Y-3089583D01*
X5560692Y-2673669D01*
X32125000Y-2673669D01*
X32125000Y-2826331D01*
X32154783Y-2976059D01*
X32213204Y-3117100D01*
X32298018Y-3244034D01*
X32405966Y-3351982D01*
X32532900Y-3436796D01*
X32673941Y-3495217D01*
X32823669Y-3525000D01*
X32976331Y-3525000D01*
X33126059Y-3495217D01*
X33267100Y-3436796D01*
X33394034Y-3351982D01*
X33501982Y-3244034D01*
X33586796Y-3117100D01*
X33645217Y-2976059D01*
X33675000Y-2826331D01*
X33675000Y-2673669D01*
X33670028Y-2648669D01*
X33750000Y-2648669D01*
X33750000Y-2801331D01*
X33779783Y-2951059D01*
X33838204Y-3092100D01*
X33923018Y-3219034D01*
X34030966Y-3326982D01*
X34157900Y-3411796D01*
X34298941Y-3470217D01*
X34448669Y-3500000D01*
X34601331Y-3500000D01*
X34751059Y-3470217D01*
X34892100Y-3411796D01*
X35019034Y-3326982D01*
X35126982Y-3219034D01*
X35211796Y-3092100D01*
X35270217Y-2951059D01*
X35282279Y-2890417D01*
X41614458Y-2890417D01*
X41644711Y-3396745D01*
X41773163Y-3887442D01*
X41994876Y-4343650D01*
X42105527Y-4509251D01*
X42435268Y-4751904D01*
X44197172Y-2990000D01*
X42435268Y-1228096D01*
X42105527Y-1470749D01*
X41849380Y-1908552D01*
X41683567Y-2387916D01*
X41614458Y-2890417D01*
X35282279Y-2890417D01*
X35300000Y-2801331D01*
X35300000Y-2648669D01*
X35270217Y-2498941D01*
X35211796Y-2357900D01*
X35126982Y-2230966D01*
X35019034Y-2123018D01*
X34892100Y-2038204D01*
X34751059Y-1979783D01*
X34601331Y-1950000D01*
X34448669Y-1950000D01*
X34298941Y-1979783D01*
X34157900Y-2038204D01*
X34030966Y-2123018D01*
X33923018Y-2230966D01*
X33838204Y-2357900D01*
X33779783Y-2498941D01*
X33750000Y-2648669D01*
X33670028Y-2648669D01*
X33645217Y-2523941D01*
X33586796Y-2382900D01*
X33501982Y-2255966D01*
X33394034Y-2148018D01*
X33267100Y-2063204D01*
X33126059Y-2004783D01*
X32976331Y-1975000D01*
X32823669Y-1975000D01*
X32673941Y-2004783D01*
X32532900Y-2063204D01*
X32405966Y-2148018D01*
X32298018Y-2255966D01*
X32213204Y-2382900D01*
X32154783Y-2523941D01*
X32125000Y-2673669D01*
X5560692Y-2673669D01*
X5555289Y-2583255D01*
X5426837Y-2092558D01*
X5205124Y-1636350D01*
X5094473Y-1470749D01*
X4894607Y-1323669D01*
X10725000Y-1323669D01*
X10725000Y-1476331D01*
X10754783Y-1626059D01*
X10813204Y-1767100D01*
X10898018Y-1894034D01*
X11005966Y-2001982D01*
X11132900Y-2086796D01*
X11273941Y-2145217D01*
X11423669Y-2175000D01*
X11576331Y-2175000D01*
X11726059Y-2145217D01*
X11867100Y-2086796D01*
X11994034Y-2001982D01*
X12101982Y-1894034D01*
X12186796Y-1767100D01*
X12245217Y-1626059D01*
X12275000Y-1476331D01*
X12275000Y-1323669D01*
X12325000Y-1323669D01*
X12325000Y-1476331D01*
X12354783Y-1626059D01*
X12413204Y-1767100D01*
X12498018Y-1894034D01*
X12605966Y-2001982D01*
X12732900Y-2086796D01*
X12873941Y-2145217D01*
X13023669Y-2175000D01*
X13176331Y-2175000D01*
X13326059Y-2145217D01*
X13467100Y-2086796D01*
X13594034Y-2001982D01*
X13672353Y-1923663D01*
X38325000Y-1923663D01*
X38325000Y-2076325D01*
X38354783Y-2226053D01*
X38413204Y-2367094D01*
X38498018Y-2494028D01*
X38605966Y-2601976D01*
X38732900Y-2686790D01*
X38873941Y-2745211D01*
X39023669Y-2774994D01*
X39176331Y-2774994D01*
X39326059Y-2745211D01*
X39467100Y-2686790D01*
X39594034Y-2601976D01*
X39701982Y-2494028D01*
X39786796Y-2367094D01*
X39845217Y-2226053D01*
X39875000Y-2076325D01*
X39875000Y-1923663D01*
X39845217Y-1773935D01*
X39786796Y-1632894D01*
X39701982Y-1505960D01*
X39594034Y-1398012D01*
X39467100Y-1313198D01*
X39326059Y-1254777D01*
X39176331Y-1224994D01*
X39023669Y-1224994D01*
X38873941Y-1254777D01*
X38732900Y-1313198D01*
X38605966Y-1398012D01*
X38498018Y-1505960D01*
X38413204Y-1632894D01*
X38354783Y-1773935D01*
X38325000Y-1923663D01*
X13672353Y-1923663D01*
X13701982Y-1894034D01*
X13786796Y-1767100D01*
X13845217Y-1626059D01*
X13875000Y-1476331D01*
X13875000Y-1323669D01*
X13845217Y-1173941D01*
X13786796Y-1032900D01*
X13701982Y-905966D01*
X13594034Y-798018D01*
X13467100Y-713204D01*
X13326059Y-654783D01*
X13176331Y-625000D01*
X13023669Y-625000D01*
X12873941Y-654783D01*
X12732900Y-713204D01*
X12605966Y-798018D01*
X12498018Y-905966D01*
X12413204Y-1032900D01*
X12354783Y-1173941D01*
X12325000Y-1323669D01*
X12275000Y-1323669D01*
X12245217Y-1173941D01*
X12186796Y-1032900D01*
X12101982Y-905966D01*
X11994034Y-798018D01*
X11867100Y-713204D01*
X11726059Y-654783D01*
X11576331Y-625000D01*
X11423669Y-625000D01*
X11273941Y-654783D01*
X11132900Y-713204D01*
X11005966Y-798018D01*
X10898018Y-905966D01*
X10813204Y-1032900D01*
X10754783Y-1173941D01*
X10725000Y-1323669D01*
X4894607Y-1323669D01*
X4764732Y-1228096D01*
X3002828Y-2990000D01*
X2997172Y-2990000D01*
X1235268Y-1228096D01*
X905527Y-1470749D01*
X649380Y-1908552D01*
X483567Y-2387916D01*
X425000Y-2813765D01*
X425000Y-1010790D01*
X437951Y-878710D01*
X470271Y-771661D01*
X522770Y-672924D01*
X593439Y-586275D01*
X679605Y-514992D01*
X777968Y-461807D01*
X884786Y-428742D01*
X1015525Y-415000D01*
X2923147Y-415000D01*
X2593255Y-434711D01*
G37*
G04 #@! TD.AperFunction*
M02*
