G04 #@! TF.GenerationSoftware,KiCad,Pcbnew,5.1.8-5.1.8*
G04 #@! TF.CreationDate,2020-12-12T11:36:47+01:00*
G04 #@! TF.ProjectId,ublox-breakout,75626c6f-782d-4627-9265-616b6f75742e,rev?*
G04 #@! TF.SameCoordinates,PX71f6ce0PY7b06240*
G04 #@! TF.FileFunction,Paste,Top*
G04 #@! TF.FilePolarity,Positive*
%FSLAX46Y46*%
G04 Gerber Fmt 4.6, Leading zero omitted, Abs format (unit mm)*
G04 Created by KiCad (PCBNEW 5.1.8-5.1.8) date 2020-12-12 11:36:47*
%MOMM*%
%LPD*%
G01*
G04 APERTURE LIST*
%ADD10R,0.800000X0.900000*%
%ADD11C,0.100000*%
%ADD12R,1.900000X1.000000*%
%ADD13R,1.900000X1.800000*%
%ADD14R,1.300000X1.650000*%
%ADD15R,1.550000X1.425000*%
%ADD16R,1.380000X0.450000*%
%ADD17R,0.650000X1.060000*%
%ADD18R,1.060000X0.650000*%
G04 APERTURE END LIST*
D10*
X9800000Y26700000D03*
X8850000Y28700000D03*
X10750000Y28700000D03*
G36*
G01*
X6950000Y27375000D02*
X7450000Y27375000D01*
G75*
G02*
X7675000Y27150000I0J-225000D01*
G01*
X7675000Y26700000D01*
G75*
G02*
X7450000Y26475000I-225000J0D01*
G01*
X6950000Y26475000D01*
G75*
G02*
X6725000Y26700000I0J225000D01*
G01*
X6725000Y27150000D01*
G75*
G02*
X6950000Y27375000I225000J0D01*
G01*
G37*
G36*
G01*
X6950000Y28925000D02*
X7450000Y28925000D01*
G75*
G02*
X7675000Y28700000I0J-225000D01*
G01*
X7675000Y28250000D01*
G75*
G02*
X7450000Y28025000I-225000J0D01*
G01*
X6950000Y28025000D01*
G75*
G02*
X6725000Y28250000I0J225000D01*
G01*
X6725000Y28700000D01*
G75*
G02*
X6950000Y28925000I225000J0D01*
G01*
G37*
G36*
G01*
X7675000Y25350000D02*
X7675000Y24850000D01*
G75*
G02*
X7450000Y24625000I-225000J0D01*
G01*
X7000000Y24625000D01*
G75*
G02*
X6775000Y24850000I0J225000D01*
G01*
X6775000Y25350000D01*
G75*
G02*
X7000000Y25575000I225000J0D01*
G01*
X7450000Y25575000D01*
G75*
G02*
X7675000Y25350000I0J-225000D01*
G01*
G37*
G36*
G01*
X9225000Y25350000D02*
X9225000Y24850000D01*
G75*
G02*
X9000000Y24625000I-225000J0D01*
G01*
X8550000Y24625000D01*
G75*
G02*
X8325000Y24850000I0J225000D01*
G01*
X8325000Y25350000D01*
G75*
G02*
X8550000Y25575000I225000J0D01*
G01*
X9000000Y25575000D01*
G75*
G02*
X9225000Y25350000I0J-225000D01*
G01*
G37*
G36*
G01*
X24650000Y29343750D02*
X24650000Y29856250D01*
G75*
G02*
X24868750Y30075000I218750J0D01*
G01*
X25306250Y30075000D01*
G75*
G02*
X25525000Y29856250I0J-218750D01*
G01*
X25525000Y29343750D01*
G75*
G02*
X25306250Y29125000I-218750J0D01*
G01*
X24868750Y29125000D01*
G75*
G02*
X24650000Y29343750I0J218750D01*
G01*
G37*
G36*
G01*
X23075000Y29343750D02*
X23075000Y29856250D01*
G75*
G02*
X23293750Y30075000I218750J0D01*
G01*
X23731250Y30075000D01*
G75*
G02*
X23950000Y29856250I0J-218750D01*
G01*
X23950000Y29343750D01*
G75*
G02*
X23731250Y29125000I-218750J0D01*
G01*
X23293750Y29125000D01*
G75*
G02*
X23075000Y29343750I0J218750D01*
G01*
G37*
G36*
G01*
X24650000Y27743750D02*
X24650000Y28256250D01*
G75*
G02*
X24868750Y28475000I218750J0D01*
G01*
X25306250Y28475000D01*
G75*
G02*
X25525000Y28256250I0J-218750D01*
G01*
X25525000Y27743750D01*
G75*
G02*
X25306250Y27525000I-218750J0D01*
G01*
X24868750Y27525000D01*
G75*
G02*
X24650000Y27743750I0J218750D01*
G01*
G37*
G36*
G01*
X23075000Y27743750D02*
X23075000Y28256250D01*
G75*
G02*
X23293750Y28475000I218750J0D01*
G01*
X23731250Y28475000D01*
G75*
G02*
X23950000Y28256250I0J-218750D01*
G01*
X23950000Y27743750D01*
G75*
G02*
X23731250Y27525000I-218750J0D01*
G01*
X23293750Y27525000D01*
G75*
G02*
X23075000Y27743750I0J218750D01*
G01*
G37*
D11*
G36*
X39424264Y24327208D02*
G01*
X40272792Y25175736D01*
X40909188Y24539340D01*
X40060660Y23690812D01*
X39424264Y24327208D01*
G37*
G36*
X37090812Y26660660D02*
G01*
X37939340Y27509188D01*
X38575736Y26872792D01*
X37727208Y26024264D01*
X37090812Y26660660D01*
G37*
G36*
G01*
X40750000Y15675000D02*
X41250000Y15675000D01*
G75*
G02*
X41475000Y15450000I0J-225000D01*
G01*
X41475000Y15000000D01*
G75*
G02*
X41250000Y14775000I-225000J0D01*
G01*
X40750000Y14775000D01*
G75*
G02*
X40525000Y15000000I0J225000D01*
G01*
X40525000Y15450000D01*
G75*
G02*
X40750000Y15675000I225000J0D01*
G01*
G37*
G36*
G01*
X40750000Y17225000D02*
X41250000Y17225000D01*
G75*
G02*
X41475000Y17000000I0J-225000D01*
G01*
X41475000Y16550000D01*
G75*
G02*
X41250000Y16325000I-225000J0D01*
G01*
X40750000Y16325000D01*
G75*
G02*
X40525000Y16550000I0J225000D01*
G01*
X40525000Y17000000D01*
G75*
G02*
X40750000Y17225000I225000J0D01*
G01*
G37*
D12*
X45700000Y22350000D03*
D13*
X45700000Y19650000D03*
D14*
X45700000Y24175000D03*
X45700000Y17425000D03*
D15*
X43125000Y23287500D03*
X43125000Y18312500D03*
D16*
X43040000Y22100000D03*
X43040000Y21450000D03*
X43040000Y20800000D03*
X43040000Y20150000D03*
X43040000Y19500000D03*
G36*
G01*
X20025000Y28375000D02*
X20575000Y28375000D01*
G75*
G02*
X20775000Y28175000I0J-200000D01*
G01*
X20775000Y27775000D01*
G75*
G02*
X20575000Y27575000I-200000J0D01*
G01*
X20025000Y27575000D01*
G75*
G02*
X19825000Y27775000I0J200000D01*
G01*
X19825000Y28175000D01*
G75*
G02*
X20025000Y28375000I200000J0D01*
G01*
G37*
G36*
G01*
X20025000Y30025000D02*
X20575000Y30025000D01*
G75*
G02*
X20775000Y29825000I0J-200000D01*
G01*
X20775000Y29425000D01*
G75*
G02*
X20575000Y29225000I-200000J0D01*
G01*
X20025000Y29225000D01*
G75*
G02*
X19825000Y29425000I0J200000D01*
G01*
X19825000Y29825000D01*
G75*
G02*
X20025000Y30025000I200000J0D01*
G01*
G37*
G36*
G01*
X18325000Y28375000D02*
X18875000Y28375000D01*
G75*
G02*
X19075000Y28175000I0J-200000D01*
G01*
X19075000Y27775000D01*
G75*
G02*
X18875000Y27575000I-200000J0D01*
G01*
X18325000Y27575000D01*
G75*
G02*
X18125000Y27775000I0J200000D01*
G01*
X18125000Y28175000D01*
G75*
G02*
X18325000Y28375000I200000J0D01*
G01*
G37*
G36*
G01*
X18325000Y30025000D02*
X18875000Y30025000D01*
G75*
G02*
X19075000Y29825000I0J-200000D01*
G01*
X19075000Y29425000D01*
G75*
G02*
X18875000Y29225000I-200000J0D01*
G01*
X18325000Y29225000D01*
G75*
G02*
X18125000Y29425000I0J200000D01*
G01*
X18125000Y29825000D01*
G75*
G02*
X18325000Y30025000I200000J0D01*
G01*
G37*
G36*
G01*
X33575000Y15275000D02*
X33575000Y14725000D01*
G75*
G02*
X33375000Y14525000I-200000J0D01*
G01*
X32975000Y14525000D01*
G75*
G02*
X32775000Y14725000I0J200000D01*
G01*
X32775000Y15275000D01*
G75*
G02*
X32975000Y15475000I200000J0D01*
G01*
X33375000Y15475000D01*
G75*
G02*
X33575000Y15275000I0J-200000D01*
G01*
G37*
G36*
G01*
X35225000Y15275000D02*
X35225000Y14725000D01*
G75*
G02*
X35025000Y14525000I-200000J0D01*
G01*
X34625000Y14525000D01*
G75*
G02*
X34425000Y14725000I0J200000D01*
G01*
X34425000Y15275000D01*
G75*
G02*
X34625000Y15475000I200000J0D01*
G01*
X35025000Y15475000D01*
G75*
G02*
X35225000Y15275000I0J-200000D01*
G01*
G37*
G36*
G01*
X34425000Y16325000D02*
X34425000Y16875000D01*
G75*
G02*
X34625000Y17075000I200000J0D01*
G01*
X35025000Y17075000D01*
G75*
G02*
X35225000Y16875000I0J-200000D01*
G01*
X35225000Y16325000D01*
G75*
G02*
X35025000Y16125000I-200000J0D01*
G01*
X34625000Y16125000D01*
G75*
G02*
X34425000Y16325000I0J200000D01*
G01*
G37*
G36*
G01*
X32775000Y16325000D02*
X32775000Y16875000D01*
G75*
G02*
X32975000Y17075000I200000J0D01*
G01*
X33375000Y17075000D01*
G75*
G02*
X33575000Y16875000I0J-200000D01*
G01*
X33575000Y16325000D01*
G75*
G02*
X33375000Y16125000I-200000J0D01*
G01*
X32975000Y16125000D01*
G75*
G02*
X32775000Y16325000I0J200000D01*
G01*
G37*
D17*
X7377604Y16900000D03*
X9277604Y16900000D03*
X9277604Y14700000D03*
X8327604Y14700000D03*
X7377604Y14700000D03*
G36*
G01*
X8425000Y6525000D02*
X8425000Y7075000D01*
G75*
G02*
X8625000Y7275000I200000J0D01*
G01*
X9025000Y7275000D01*
G75*
G02*
X9225000Y7075000I0J-200000D01*
G01*
X9225000Y6525000D01*
G75*
G02*
X9025000Y6325000I-200000J0D01*
G01*
X8625000Y6325000D01*
G75*
G02*
X8425000Y6525000I0J200000D01*
G01*
G37*
G36*
G01*
X6775000Y6525000D02*
X6775000Y7075000D01*
G75*
G02*
X6975000Y7275000I200000J0D01*
G01*
X7375000Y7275000D01*
G75*
G02*
X7575000Y7075000I0J-200000D01*
G01*
X7575000Y6525000D01*
G75*
G02*
X7375000Y6325000I-200000J0D01*
G01*
X6975000Y6325000D01*
G75*
G02*
X6775000Y6525000I0J200000D01*
G01*
G37*
G36*
G01*
X8425000Y8125000D02*
X8425000Y8675000D01*
G75*
G02*
X8625000Y8875000I200000J0D01*
G01*
X9025000Y8875000D01*
G75*
G02*
X9225000Y8675000I0J-200000D01*
G01*
X9225000Y8125000D01*
G75*
G02*
X9025000Y7925000I-200000J0D01*
G01*
X8625000Y7925000D01*
G75*
G02*
X8425000Y8125000I0J200000D01*
G01*
G37*
G36*
G01*
X6775000Y8125000D02*
X6775000Y8675000D01*
G75*
G02*
X6975000Y8875000I200000J0D01*
G01*
X7375000Y8875000D01*
G75*
G02*
X7575000Y8675000I0J-200000D01*
G01*
X7575000Y8125000D01*
G75*
G02*
X7375000Y7925000I-200000J0D01*
G01*
X6975000Y7925000D01*
G75*
G02*
X6775000Y8125000I0J200000D01*
G01*
G37*
G36*
G01*
X8425000Y9755000D02*
X8425000Y10305000D01*
G75*
G02*
X8625000Y10505000I200000J0D01*
G01*
X9025000Y10505000D01*
G75*
G02*
X9225000Y10305000I0J-200000D01*
G01*
X9225000Y9755000D01*
G75*
G02*
X9025000Y9555000I-200000J0D01*
G01*
X8625000Y9555000D01*
G75*
G02*
X8425000Y9755000I0J200000D01*
G01*
G37*
G36*
G01*
X6775000Y9755000D02*
X6775000Y10305000D01*
G75*
G02*
X6975000Y10505000I200000J0D01*
G01*
X7375000Y10505000D01*
G75*
G02*
X7575000Y10305000I0J-200000D01*
G01*
X7575000Y9755000D01*
G75*
G02*
X7375000Y9555000I-200000J0D01*
G01*
X6975000Y9555000D01*
G75*
G02*
X6775000Y9755000I0J200000D01*
G01*
G37*
G36*
G01*
X33375000Y22275000D02*
X33375000Y21725000D01*
G75*
G02*
X33175000Y21525000I-200000J0D01*
G01*
X32775000Y21525000D01*
G75*
G02*
X32575000Y21725000I0J200000D01*
G01*
X32575000Y22275000D01*
G75*
G02*
X32775000Y22475000I200000J0D01*
G01*
X33175000Y22475000D01*
G75*
G02*
X33375000Y22275000I0J-200000D01*
G01*
G37*
G36*
G01*
X35025000Y22275000D02*
X35025000Y21725000D01*
G75*
G02*
X34825000Y21525000I-200000J0D01*
G01*
X34425000Y21525000D01*
G75*
G02*
X34225000Y21725000I0J200000D01*
G01*
X34225000Y22275000D01*
G75*
G02*
X34425000Y22475000I200000J0D01*
G01*
X34825000Y22475000D01*
G75*
G02*
X35025000Y22275000I0J-200000D01*
G01*
G37*
G36*
G01*
X33375000Y23875000D02*
X33375000Y23325000D01*
G75*
G02*
X33175000Y23125000I-200000J0D01*
G01*
X32775000Y23125000D01*
G75*
G02*
X32575000Y23325000I0J200000D01*
G01*
X32575000Y23875000D01*
G75*
G02*
X32775000Y24075000I200000J0D01*
G01*
X33175000Y24075000D01*
G75*
G02*
X33375000Y23875000I0J-200000D01*
G01*
G37*
G36*
G01*
X35025000Y23875000D02*
X35025000Y23325000D01*
G75*
G02*
X34825000Y23125000I-200000J0D01*
G01*
X34425000Y23125000D01*
G75*
G02*
X34225000Y23325000I0J200000D01*
G01*
X34225000Y23875000D01*
G75*
G02*
X34425000Y24075000I200000J0D01*
G01*
X34825000Y24075000D01*
G75*
G02*
X35025000Y23875000I0J-200000D01*
G01*
G37*
G36*
G01*
X34425000Y12599000D02*
X34425000Y13149000D01*
G75*
G02*
X34625000Y13349000I200000J0D01*
G01*
X35025000Y13349000D01*
G75*
G02*
X35225000Y13149000I0J-200000D01*
G01*
X35225000Y12599000D01*
G75*
G02*
X35025000Y12399000I-200000J0D01*
G01*
X34625000Y12399000D01*
G75*
G02*
X34425000Y12599000I0J200000D01*
G01*
G37*
G36*
G01*
X32775000Y12599000D02*
X32775000Y13149000D01*
G75*
G02*
X32975000Y13349000I200000J0D01*
G01*
X33375000Y13349000D01*
G75*
G02*
X33575000Y13149000I0J-200000D01*
G01*
X33575000Y12599000D01*
G75*
G02*
X33375000Y12399000I-200000J0D01*
G01*
X32975000Y12399000D01*
G75*
G02*
X32775000Y12599000I0J200000D01*
G01*
G37*
G36*
G01*
X8425000Y23225000D02*
X8425000Y23775000D01*
G75*
G02*
X8625000Y23975000I200000J0D01*
G01*
X9025000Y23975000D01*
G75*
G02*
X9225000Y23775000I0J-200000D01*
G01*
X9225000Y23225000D01*
G75*
G02*
X9025000Y23025000I-200000J0D01*
G01*
X8625000Y23025000D01*
G75*
G02*
X8425000Y23225000I0J200000D01*
G01*
G37*
G36*
G01*
X6775000Y23225000D02*
X6775000Y23775000D01*
G75*
G02*
X6975000Y23975000I200000J0D01*
G01*
X7375000Y23975000D01*
G75*
G02*
X7575000Y23775000I0J-200000D01*
G01*
X7575000Y23225000D01*
G75*
G02*
X7375000Y23025000I-200000J0D01*
G01*
X6975000Y23025000D01*
G75*
G02*
X6775000Y23225000I0J200000D01*
G01*
G37*
G36*
G01*
X8425000Y21625000D02*
X8425000Y22175000D01*
G75*
G02*
X8625000Y22375000I200000J0D01*
G01*
X9025000Y22375000D01*
G75*
G02*
X9225000Y22175000I0J-200000D01*
G01*
X9225000Y21625000D01*
G75*
G02*
X9025000Y21425000I-200000J0D01*
G01*
X8625000Y21425000D01*
G75*
G02*
X8425000Y21625000I0J200000D01*
G01*
G37*
G36*
G01*
X6775000Y21625000D02*
X6775000Y22175000D01*
G75*
G02*
X6975000Y22375000I200000J0D01*
G01*
X7375000Y22375000D01*
G75*
G02*
X7575000Y22175000I0J-200000D01*
G01*
X7575000Y21625000D01*
G75*
G02*
X7375000Y21425000I-200000J0D01*
G01*
X6975000Y21425000D01*
G75*
G02*
X6775000Y21625000I0J200000D01*
G01*
G37*
G36*
G01*
X34225000Y24925000D02*
X34225000Y25475000D01*
G75*
G02*
X34425000Y25675000I200000J0D01*
G01*
X34825000Y25675000D01*
G75*
G02*
X35025000Y25475000I0J-200000D01*
G01*
X35025000Y24925000D01*
G75*
G02*
X34825000Y24725000I-200000J0D01*
G01*
X34425000Y24725000D01*
G75*
G02*
X34225000Y24925000I0J200000D01*
G01*
G37*
G36*
G01*
X32575000Y24925000D02*
X32575000Y25475000D01*
G75*
G02*
X32775000Y25675000I200000J0D01*
G01*
X33175000Y25675000D01*
G75*
G02*
X33375000Y25475000I0J-200000D01*
G01*
X33375000Y24925000D01*
G75*
G02*
X33175000Y24725000I-200000J0D01*
G01*
X32775000Y24725000D01*
G75*
G02*
X32575000Y24925000I0J200000D01*
G01*
G37*
G36*
G01*
X34325000Y11050000D02*
X34325000Y11550000D01*
G75*
G02*
X34550000Y11775000I225000J0D01*
G01*
X35000000Y11775000D01*
G75*
G02*
X35225000Y11550000I0J-225000D01*
G01*
X35225000Y11050000D01*
G75*
G02*
X35000000Y10825000I-225000J0D01*
G01*
X34550000Y10825000D01*
G75*
G02*
X34325000Y11050000I0J225000D01*
G01*
G37*
G36*
G01*
X32775000Y11050000D02*
X32775000Y11550000D01*
G75*
G02*
X33000000Y11775000I225000J0D01*
G01*
X33450000Y11775000D01*
G75*
G02*
X33675000Y11550000I0J-225000D01*
G01*
X33675000Y11050000D01*
G75*
G02*
X33450000Y10825000I-225000J0D01*
G01*
X33000000Y10825000D01*
G75*
G02*
X32775000Y11050000I0J225000D01*
G01*
G37*
G36*
G01*
X7675000Y20450000D02*
X7675000Y19950000D01*
G75*
G02*
X7450000Y19725000I-225000J0D01*
G01*
X7000000Y19725000D01*
G75*
G02*
X6775000Y19950000I0J225000D01*
G01*
X6775000Y20450000D01*
G75*
G02*
X7000000Y20675000I225000J0D01*
G01*
X7450000Y20675000D01*
G75*
G02*
X7675000Y20450000I0J-225000D01*
G01*
G37*
G36*
G01*
X9225000Y20450000D02*
X9225000Y19950000D01*
G75*
G02*
X9000000Y19725000I-225000J0D01*
G01*
X8550000Y19725000D01*
G75*
G02*
X8325000Y19950000I0J225000D01*
G01*
X8325000Y20450000D01*
G75*
G02*
X8550000Y20675000I225000J0D01*
G01*
X9000000Y20675000D01*
G75*
G02*
X9225000Y20450000I0J-225000D01*
G01*
G37*
G36*
G01*
X7675000Y18850000D02*
X7675000Y18350000D01*
G75*
G02*
X7450000Y18125000I-225000J0D01*
G01*
X7000000Y18125000D01*
G75*
G02*
X6775000Y18350000I0J225000D01*
G01*
X6775000Y18850000D01*
G75*
G02*
X7000000Y19075000I225000J0D01*
G01*
X7450000Y19075000D01*
G75*
G02*
X7675000Y18850000I0J-225000D01*
G01*
G37*
G36*
G01*
X9225000Y18850000D02*
X9225000Y18350000D01*
G75*
G02*
X9000000Y18125000I-225000J0D01*
G01*
X8550000Y18125000D01*
G75*
G02*
X8325000Y18350000I0J225000D01*
G01*
X8325000Y18850000D01*
G75*
G02*
X8550000Y19075000I225000J0D01*
G01*
X9000000Y19075000D01*
G75*
G02*
X9225000Y18850000I0J-225000D01*
G01*
G37*
G36*
G01*
X11250000Y16525000D02*
X10750000Y16525000D01*
G75*
G02*
X10525000Y16750000I0J225000D01*
G01*
X10525000Y17200000D01*
G75*
G02*
X10750000Y17425000I225000J0D01*
G01*
X11250000Y17425000D01*
G75*
G02*
X11475000Y17200000I0J-225000D01*
G01*
X11475000Y16750000D01*
G75*
G02*
X11250000Y16525000I-225000J0D01*
G01*
G37*
G36*
G01*
X11250000Y14975000D02*
X10750000Y14975000D01*
G75*
G02*
X10525000Y15200000I0J225000D01*
G01*
X10525000Y15650000D01*
G75*
G02*
X10750000Y15875000I225000J0D01*
G01*
X11250000Y15875000D01*
G75*
G02*
X11475000Y15650000I0J-225000D01*
G01*
X11475000Y15200000D01*
G75*
G02*
X11250000Y14975000I-225000J0D01*
G01*
G37*
G36*
G01*
X8325000Y12750000D02*
X8325000Y13250000D01*
G75*
G02*
X8550000Y13475000I225000J0D01*
G01*
X9000000Y13475000D01*
G75*
G02*
X9225000Y13250000I0J-225000D01*
G01*
X9225000Y12750000D01*
G75*
G02*
X9000000Y12525000I-225000J0D01*
G01*
X8550000Y12525000D01*
G75*
G02*
X8325000Y12750000I0J225000D01*
G01*
G37*
G36*
G01*
X6775000Y12750000D02*
X6775000Y13250000D01*
G75*
G02*
X7000000Y13475000I225000J0D01*
G01*
X7450000Y13475000D01*
G75*
G02*
X7675000Y13250000I0J-225000D01*
G01*
X7675000Y12750000D01*
G75*
G02*
X7450000Y12525000I-225000J0D01*
G01*
X7000000Y12525000D01*
G75*
G02*
X6775000Y12750000I0J225000D01*
G01*
G37*
G36*
G01*
X29700000Y24000000D02*
X29700000Y24400000D01*
G75*
G02*
X29900000Y24600000I200000J0D01*
G01*
X31300000Y24600000D01*
G75*
G02*
X31500000Y24400000I0J-200000D01*
G01*
X31500000Y24000000D01*
G75*
G02*
X31300000Y23800000I-200000J0D01*
G01*
X29900000Y23800000D01*
G75*
G02*
X29700000Y24000000I0J200000D01*
G01*
G37*
G36*
G01*
X29700000Y22900000D02*
X29700000Y23300000D01*
G75*
G02*
X29900000Y23500000I200000J0D01*
G01*
X31300000Y23500000D01*
G75*
G02*
X31500000Y23300000I0J-200000D01*
G01*
X31500000Y22900000D01*
G75*
G02*
X31300000Y22700000I-200000J0D01*
G01*
X29900000Y22700000D01*
G75*
G02*
X29700000Y22900000I0J200000D01*
G01*
G37*
G36*
G01*
X29700000Y21800000D02*
X29700000Y22200000D01*
G75*
G02*
X29900000Y22400000I200000J0D01*
G01*
X31300000Y22400000D01*
G75*
G02*
X31500000Y22200000I0J-200000D01*
G01*
X31500000Y21800000D01*
G75*
G02*
X31300000Y21600000I-200000J0D01*
G01*
X29900000Y21600000D01*
G75*
G02*
X29700000Y21800000I0J200000D01*
G01*
G37*
G36*
G01*
X29700000Y20700000D02*
X29700000Y21100000D01*
G75*
G02*
X29900000Y21300000I200000J0D01*
G01*
X31300000Y21300000D01*
G75*
G02*
X31500000Y21100000I0J-200000D01*
G01*
X31500000Y20700000D01*
G75*
G02*
X31300000Y20500000I-200000J0D01*
G01*
X29900000Y20500000D01*
G75*
G02*
X29700000Y20700000I0J200000D01*
G01*
G37*
G36*
G01*
X29700000Y19600000D02*
X29700000Y20000000D01*
G75*
G02*
X29900000Y20200000I200000J0D01*
G01*
X31300000Y20200000D01*
G75*
G02*
X31500000Y20000000I0J-200000D01*
G01*
X31500000Y19600000D01*
G75*
G02*
X31300000Y19400000I-200000J0D01*
G01*
X29900000Y19400000D01*
G75*
G02*
X29700000Y19600000I0J200000D01*
G01*
G37*
G36*
G01*
X29700000Y18500000D02*
X29700000Y18900000D01*
G75*
G02*
X29900000Y19100000I200000J0D01*
G01*
X31300000Y19100000D01*
G75*
G02*
X31500000Y18900000I0J-200000D01*
G01*
X31500000Y18500000D01*
G75*
G02*
X31300000Y18300000I-200000J0D01*
G01*
X29900000Y18300000D01*
G75*
G02*
X29700000Y18500000I0J200000D01*
G01*
G37*
G36*
G01*
X29700000Y17400000D02*
X29700000Y17800000D01*
G75*
G02*
X29900000Y18000000I200000J0D01*
G01*
X31300000Y18000000D01*
G75*
G02*
X31500000Y17800000I0J-200000D01*
G01*
X31500000Y17400000D01*
G75*
G02*
X31300000Y17200000I-200000J0D01*
G01*
X29900000Y17200000D01*
G75*
G02*
X29700000Y17400000I0J200000D01*
G01*
G37*
G36*
G01*
X29700000Y16300000D02*
X29700000Y16700000D01*
G75*
G02*
X29900000Y16900000I200000J0D01*
G01*
X31300000Y16900000D01*
G75*
G02*
X31500000Y16700000I0J-200000D01*
G01*
X31500000Y16300000D01*
G75*
G02*
X31300000Y16100000I-200000J0D01*
G01*
X29900000Y16100000D01*
G75*
G02*
X29700000Y16300000I0J200000D01*
G01*
G37*
G36*
G01*
X29700000Y12500000D02*
X29700000Y12900000D01*
G75*
G02*
X29900000Y13100000I200000J0D01*
G01*
X31300000Y13100000D01*
G75*
G02*
X31500000Y12900000I0J-200000D01*
G01*
X31500000Y12500000D01*
G75*
G02*
X31300000Y12300000I-200000J0D01*
G01*
X29900000Y12300000D01*
G75*
G02*
X29700000Y12500000I0J200000D01*
G01*
G37*
G36*
G01*
X29700000Y11400000D02*
X29700000Y11800000D01*
G75*
G02*
X29900000Y12000000I200000J0D01*
G01*
X31300000Y12000000D01*
G75*
G02*
X31500000Y11800000I0J-200000D01*
G01*
X31500000Y11400000D01*
G75*
G02*
X31300000Y11200000I-200000J0D01*
G01*
X29900000Y11200000D01*
G75*
G02*
X29700000Y11400000I0J200000D01*
G01*
G37*
G36*
G01*
X29700000Y10300000D02*
X29700000Y10700000D01*
G75*
G02*
X29900000Y10900000I200000J0D01*
G01*
X31300000Y10900000D01*
G75*
G02*
X31500000Y10700000I0J-200000D01*
G01*
X31500000Y10300000D01*
G75*
G02*
X31300000Y10100000I-200000J0D01*
G01*
X29900000Y10100000D01*
G75*
G02*
X29700000Y10300000I0J200000D01*
G01*
G37*
G36*
G01*
X29700000Y9200000D02*
X29700000Y9600000D01*
G75*
G02*
X29900000Y9800000I200000J0D01*
G01*
X31300000Y9800000D01*
G75*
G02*
X31500000Y9600000I0J-200000D01*
G01*
X31500000Y9200000D01*
G75*
G02*
X31300000Y9000000I-200000J0D01*
G01*
X29900000Y9000000D01*
G75*
G02*
X29700000Y9200000I0J200000D01*
G01*
G37*
G36*
G01*
X29700000Y8100000D02*
X29700000Y8500000D01*
G75*
G02*
X29900000Y8700000I200000J0D01*
G01*
X31300000Y8700000D01*
G75*
G02*
X31500000Y8500000I0J-200000D01*
G01*
X31500000Y8100000D01*
G75*
G02*
X31300000Y7900000I-200000J0D01*
G01*
X29900000Y7900000D01*
G75*
G02*
X29700000Y8100000I0J200000D01*
G01*
G37*
G36*
G01*
X29700000Y7000000D02*
X29700000Y7400000D01*
G75*
G02*
X29900000Y7600000I200000J0D01*
G01*
X31300000Y7600000D01*
G75*
G02*
X31500000Y7400000I0J-200000D01*
G01*
X31500000Y7000000D01*
G75*
G02*
X31300000Y6800000I-200000J0D01*
G01*
X29900000Y6800000D01*
G75*
G02*
X29700000Y7000000I0J200000D01*
G01*
G37*
G36*
G01*
X12900000Y7000000D02*
X12900000Y7400000D01*
G75*
G02*
X13100000Y7600000I200000J0D01*
G01*
X14500000Y7600000D01*
G75*
G02*
X14700000Y7400000I0J-200000D01*
G01*
X14700000Y7000000D01*
G75*
G02*
X14500000Y6800000I-200000J0D01*
G01*
X13100000Y6800000D01*
G75*
G02*
X12900000Y7000000I0J200000D01*
G01*
G37*
G36*
G01*
X12900000Y8100000D02*
X12900000Y8500000D01*
G75*
G02*
X13100000Y8700000I200000J0D01*
G01*
X14500000Y8700000D01*
G75*
G02*
X14700000Y8500000I0J-200000D01*
G01*
X14700000Y8100000D01*
G75*
G02*
X14500000Y7900000I-200000J0D01*
G01*
X13100000Y7900000D01*
G75*
G02*
X12900000Y8100000I0J200000D01*
G01*
G37*
G36*
G01*
X12900000Y9200000D02*
X12900000Y9600000D01*
G75*
G02*
X13100000Y9800000I200000J0D01*
G01*
X14500000Y9800000D01*
G75*
G02*
X14700000Y9600000I0J-200000D01*
G01*
X14700000Y9200000D01*
G75*
G02*
X14500000Y9000000I-200000J0D01*
G01*
X13100000Y9000000D01*
G75*
G02*
X12900000Y9200000I0J200000D01*
G01*
G37*
G36*
G01*
X12900000Y10300000D02*
X12900000Y10700000D01*
G75*
G02*
X13100000Y10900000I200000J0D01*
G01*
X14500000Y10900000D01*
G75*
G02*
X14700000Y10700000I0J-200000D01*
G01*
X14700000Y10300000D01*
G75*
G02*
X14500000Y10100000I-200000J0D01*
G01*
X13100000Y10100000D01*
G75*
G02*
X12900000Y10300000I0J200000D01*
G01*
G37*
G36*
G01*
X12900000Y11400000D02*
X12900000Y11800000D01*
G75*
G02*
X13100000Y12000000I200000J0D01*
G01*
X14500000Y12000000D01*
G75*
G02*
X14700000Y11800000I0J-200000D01*
G01*
X14700000Y11400000D01*
G75*
G02*
X14500000Y11200000I-200000J0D01*
G01*
X13100000Y11200000D01*
G75*
G02*
X12900000Y11400000I0J200000D01*
G01*
G37*
G36*
G01*
X12900000Y12500000D02*
X12900000Y12900000D01*
G75*
G02*
X13100000Y13100000I200000J0D01*
G01*
X14500000Y13100000D01*
G75*
G02*
X14700000Y12900000I0J-200000D01*
G01*
X14700000Y12500000D01*
G75*
G02*
X14500000Y12300000I-200000J0D01*
G01*
X13100000Y12300000D01*
G75*
G02*
X12900000Y12500000I0J200000D01*
G01*
G37*
G36*
G01*
X12900000Y16300000D02*
X12900000Y16700000D01*
G75*
G02*
X13100000Y16900000I200000J0D01*
G01*
X14500000Y16900000D01*
G75*
G02*
X14700000Y16700000I0J-200000D01*
G01*
X14700000Y16300000D01*
G75*
G02*
X14500000Y16100000I-200000J0D01*
G01*
X13100000Y16100000D01*
G75*
G02*
X12900000Y16300000I0J200000D01*
G01*
G37*
G36*
G01*
X12900000Y17400000D02*
X12900000Y17800000D01*
G75*
G02*
X13100000Y18000000I200000J0D01*
G01*
X14500000Y18000000D01*
G75*
G02*
X14700000Y17800000I0J-200000D01*
G01*
X14700000Y17400000D01*
G75*
G02*
X14500000Y17200000I-200000J0D01*
G01*
X13100000Y17200000D01*
G75*
G02*
X12900000Y17400000I0J200000D01*
G01*
G37*
G36*
G01*
X12900000Y18500000D02*
X12900000Y18900000D01*
G75*
G02*
X13100000Y19100000I200000J0D01*
G01*
X14500000Y19100000D01*
G75*
G02*
X14700000Y18900000I0J-200000D01*
G01*
X14700000Y18500000D01*
G75*
G02*
X14500000Y18300000I-200000J0D01*
G01*
X13100000Y18300000D01*
G75*
G02*
X12900000Y18500000I0J200000D01*
G01*
G37*
G36*
G01*
X12900000Y19600000D02*
X12900000Y20000000D01*
G75*
G02*
X13100000Y20200000I200000J0D01*
G01*
X14500000Y20200000D01*
G75*
G02*
X14700000Y20000000I0J-200000D01*
G01*
X14700000Y19600000D01*
G75*
G02*
X14500000Y19400000I-200000J0D01*
G01*
X13100000Y19400000D01*
G75*
G02*
X12900000Y19600000I0J200000D01*
G01*
G37*
G36*
G01*
X12900000Y20700000D02*
X12900000Y21100000D01*
G75*
G02*
X13100000Y21300000I200000J0D01*
G01*
X14500000Y21300000D01*
G75*
G02*
X14700000Y21100000I0J-200000D01*
G01*
X14700000Y20700000D01*
G75*
G02*
X14500000Y20500000I-200000J0D01*
G01*
X13100000Y20500000D01*
G75*
G02*
X12900000Y20700000I0J200000D01*
G01*
G37*
G36*
G01*
X12900000Y21800000D02*
X12900000Y22200000D01*
G75*
G02*
X13100000Y22400000I200000J0D01*
G01*
X14500000Y22400000D01*
G75*
G02*
X14700000Y22200000I0J-200000D01*
G01*
X14700000Y21800000D01*
G75*
G02*
X14500000Y21600000I-200000J0D01*
G01*
X13100000Y21600000D01*
G75*
G02*
X12900000Y21800000I0J200000D01*
G01*
G37*
G36*
G01*
X12900000Y22900000D02*
X12900000Y23300000D01*
G75*
G02*
X13100000Y23500000I200000J0D01*
G01*
X14500000Y23500000D01*
G75*
G02*
X14700000Y23300000I0J-200000D01*
G01*
X14700000Y22900000D01*
G75*
G02*
X14500000Y22700000I-200000J0D01*
G01*
X13100000Y22700000D01*
G75*
G02*
X12900000Y22900000I0J200000D01*
G01*
G37*
G36*
G01*
X12900000Y24000000D02*
X12900000Y24400000D01*
G75*
G02*
X13100000Y24600000I200000J0D01*
G01*
X14500000Y24600000D01*
G75*
G02*
X14700000Y24400000I0J-200000D01*
G01*
X14700000Y24000000D01*
G75*
G02*
X14500000Y23800000I-200000J0D01*
G01*
X13100000Y23800000D01*
G75*
G02*
X12900000Y24000000I0J200000D01*
G01*
G37*
D18*
X40900000Y20600000D03*
X40900000Y21550000D03*
X40900000Y19650000D03*
X38700000Y19650000D03*
X38700000Y20600000D03*
X38700000Y21550000D03*
M02*
