G04 #@! TF.GenerationSoftware,KiCad,Pcbnew,5.1.8-5.1.8*
G04 #@! TF.CreationDate,2021-01-04T23:01:06+01:00*
G04 #@! TF.ProjectId,ublox-breakout,75626c6f-782d-4627-9265-616b6f75742e,rev?*
G04 #@! TF.SameCoordinates,PX71f6ce0PY7cfd120*
G04 #@! TF.FileFunction,Copper,L2,Inr*
G04 #@! TF.FilePolarity,Positive*
%FSLAX46Y46*%
G04 Gerber Fmt 4.6, Leading zero omitted, Abs format (unit mm)*
G04 Created by KiCad (PCBNEW 5.1.8-5.1.8) date 2021-01-04 23:01:06*
%MOMM*%
%LPD*%
G01*
G04 APERTURE LIST*
G04 #@! TA.AperFunction,ComponentPad*
%ADD10C,2.250000*%
G04 #@! TD*
G04 #@! TA.AperFunction,ComponentPad*
%ADD11C,2.050000*%
G04 #@! TD*
G04 #@! TA.AperFunction,ComponentPad*
%ADD12C,0.700000*%
G04 #@! TD*
G04 #@! TA.AperFunction,ComponentPad*
%ADD13C,4.400000*%
G04 #@! TD*
G04 #@! TA.AperFunction,ComponentPad*
%ADD14R,1.700000X1.700000*%
G04 #@! TD*
G04 #@! TA.AperFunction,ComponentPad*
%ADD15O,1.700000X1.700000*%
G04 #@! TD*
G04 #@! TA.AperFunction,ViaPad*
%ADD16C,0.800000*%
G04 #@! TD*
G04 #@! TA.AperFunction,Conductor*
%ADD17C,0.250000*%
G04 #@! TD*
G04 #@! TA.AperFunction,Conductor*
%ADD18C,0.100000*%
G04 #@! TD*
G04 APERTURE END LIST*
D10*
X19340000Y7440000D03*
X19340000Y2360000D03*
X14260000Y2360000D03*
X14260000Y7440000D03*
D11*
X16800000Y4900000D03*
D12*
X4166726Y4226726D03*
X3000000Y4710000D03*
X1833274Y4226726D03*
X1350000Y3060000D03*
X1833274Y1893274D03*
X3000000Y1410000D03*
X4166726Y1893274D03*
X4650000Y3060000D03*
D13*
X3000000Y3060000D03*
D12*
X45366726Y4226726D03*
X44200000Y4710000D03*
X43033274Y4226726D03*
X42550000Y3060000D03*
X43033274Y1893274D03*
X44200000Y1410000D03*
X45366726Y1893274D03*
X45850000Y3060000D03*
D13*
X44200000Y3060000D03*
D12*
X45366726Y31426726D03*
X44200000Y31910000D03*
X43033274Y31426726D03*
X42550000Y30260000D03*
X43033274Y29093274D03*
X44200000Y28610000D03*
X45366726Y29093274D03*
X45850000Y30260000D03*
D13*
X44200000Y30260000D03*
D12*
X4166726Y31426726D03*
X3000000Y31910000D03*
X1833274Y31426726D03*
X1350000Y30260000D03*
X1833274Y29093274D03*
X3000000Y28610000D03*
X4166726Y29093274D03*
X4650000Y30260000D03*
D13*
X3000000Y30260000D03*
D14*
X2000000Y22100000D03*
D15*
X4540000Y22100000D03*
X2000000Y19560000D03*
X4540000Y19560000D03*
X2000000Y17020000D03*
X4540000Y17020000D03*
X2000000Y14480000D03*
X4540000Y14480000D03*
X2000000Y11940000D03*
X4540000Y11940000D03*
X2000000Y9400000D03*
X4540000Y9400000D03*
D10*
X40260000Y9520000D03*
X40260000Y14600000D03*
X45340000Y14600000D03*
X45340000Y9520000D03*
D11*
X42800000Y12060000D03*
D16*
X28600000Y5800000D03*
X28600000Y2750000D03*
X27800000Y20750000D03*
X18600000Y20850000D03*
X42700000Y20010000D03*
X43550000Y20710000D03*
X46000000Y19060000D03*
X45400000Y19960000D03*
X46300000Y21160000D03*
X45100000Y21160000D03*
X46300000Y22260000D03*
X45100000Y22260000D03*
X45700000Y24410000D03*
X43550000Y25010000D03*
X42700000Y25710000D03*
X46000000Y25760000D03*
X45400000Y26710000D03*
X38582041Y13266133D03*
X37428372Y14009432D03*
X36206027Y14685965D03*
X34818139Y14860000D03*
X33412092Y14860000D03*
X32200000Y12460000D03*
X33412092Y12460000D03*
X34818139Y12460000D03*
X36079434Y11983510D03*
X37220780Y11177328D03*
X38581890Y10862539D03*
X32200000Y14860000D03*
X34500000Y20150000D03*
X12300000Y12500000D03*
X15300000Y12500000D03*
X35400000Y16450000D03*
X9800000Y17600000D03*
X10300000Y22900000D03*
X15300000Y23000000D03*
X12200000Y21800000D03*
X11700000Y19200000D03*
X10600000Y18450000D03*
X15300000Y13600000D03*
X29100000Y14700000D03*
X29100000Y12500000D03*
X41400000Y24750000D03*
X6050000Y31300000D03*
X6050000Y30200000D03*
X44100000Y16150000D03*
X37300000Y17450000D03*
X1191667Y26757500D03*
X1191667Y6957500D03*
X5591667Y6957500D03*
X6691667Y3657500D03*
X8891667Y5857500D03*
X8891667Y1457500D03*
X11091667Y3657500D03*
X13291667Y20157500D03*
X15491667Y25657500D03*
X16591667Y21257500D03*
X16591667Y8057500D03*
X16591667Y1457500D03*
X17691667Y30057500D03*
X17691667Y14657500D03*
X18791667Y26757500D03*
X23191667Y10257500D03*
X26491667Y30057500D03*
X27591667Y25657500D03*
X27591667Y12457500D03*
X28625000Y9600000D03*
X36391667Y30450000D03*
X35400000Y22250000D03*
X36391667Y9157500D03*
X37491667Y26757500D03*
X41700000Y28150000D03*
X42991667Y9157500D03*
X46100000Y6957500D03*
X40900000Y18850000D03*
X39900000Y24750000D03*
X23600000Y5600000D03*
X23600000Y2550000D03*
X30500000Y7100000D03*
X29510000Y4950000D03*
X29500000Y1850000D03*
X15300000Y24000000D03*
X6100002Y28800000D03*
X7950000Y12950000D03*
X35200000Y3275000D03*
X11500000Y31850000D03*
X13100000Y31850000D03*
X39100000Y31250006D03*
X32650000Y3100000D03*
X39100000Y25850000D03*
X39900000Y18850000D03*
X34525000Y30525000D03*
X15300000Y29600000D03*
X15300000Y28500000D03*
X32900000Y30500000D03*
X31100000Y8100000D03*
X12100000Y16500000D03*
X29139996Y18059990D03*
X12200000Y18300004D03*
X28650000Y28450000D03*
X12200000Y25200000D03*
X10750000Y11700000D03*
D17*
X46316167Y32846691D02*
X46427913Y32812953D01*
X46530971Y32758157D01*
X46621430Y32684380D01*
X46695832Y32594444D01*
X46751350Y32491764D01*
X46785865Y32380265D01*
X46800001Y32245776D01*
X46800001Y27825000D01*
X45066259Y27825000D01*
X45097442Y27833163D01*
X45553650Y28054876D01*
X45719251Y28165527D01*
X45961904Y28495268D01*
X44200000Y30257172D01*
X42438096Y28495268D01*
X42680749Y28165527D01*
X43118552Y27909380D01*
X43362494Y27825000D01*
X41800000Y27825000D01*
X41775614Y27822598D01*
X41752165Y27815485D01*
X41730554Y27803934D01*
X41711612Y27788388D01*
X41696066Y27769446D01*
X41684515Y27747835D01*
X41677402Y27724386D01*
X41675000Y27700000D01*
X41675000Y24500000D01*
X41677402Y24475614D01*
X41684515Y24452165D01*
X41696066Y24430554D01*
X41711612Y24411612D01*
X41730554Y24396066D01*
X41752165Y24384515D01*
X41775614Y24377402D01*
X41800000Y24375000D01*
X42100000Y24375000D01*
X42124386Y24377402D01*
X42147835Y24384515D01*
X42169446Y24396066D01*
X42188388Y24411612D01*
X42203934Y24430554D01*
X42215485Y24452165D01*
X42222598Y24475614D01*
X42225000Y24500000D01*
X42225000Y27275000D01*
X46800001Y27275000D01*
X46800001Y18425000D01*
X42225000Y18425000D01*
X42225000Y23800000D01*
X42222598Y23824386D01*
X42215485Y23847835D01*
X42203934Y23869446D01*
X42188388Y23888388D01*
X42169446Y23903934D01*
X42147835Y23915485D01*
X42124386Y23922598D01*
X42100000Y23925000D01*
X41800000Y23925000D01*
X41775614Y23922598D01*
X41752165Y23915485D01*
X41730554Y23903934D01*
X41711612Y23888388D01*
X41696066Y23869446D01*
X41684515Y23847835D01*
X41677402Y23824386D01*
X41675000Y23800000D01*
X41675000Y18000000D01*
X41677402Y17975614D01*
X41684515Y17952165D01*
X41696066Y17930554D01*
X41711612Y17911612D01*
X41730554Y17896066D01*
X41752165Y17884515D01*
X41775614Y17877402D01*
X41800000Y17875000D01*
X46800001Y17875000D01*
X46800000Y14945953D01*
X46753402Y15123563D01*
X46624102Y15389244D01*
X46560572Y15484325D01*
X46340915Y15598086D01*
X45342828Y14600000D01*
X46340915Y13601914D01*
X46560572Y13715675D01*
X46709642Y13970788D01*
X46800000Y14232480D01*
X46800000Y9865954D01*
X46753402Y10043563D01*
X46624102Y10309244D01*
X46560572Y10404325D01*
X46340915Y10518086D01*
X45342828Y9520000D01*
X46340915Y8521914D01*
X46560572Y8635675D01*
X46709642Y8890788D01*
X46800000Y9152480D01*
X46800000Y1079564D01*
X46786691Y943833D01*
X46752953Y832088D01*
X46698156Y729028D01*
X46624380Y638570D01*
X46534444Y564168D01*
X46431764Y508650D01*
X46320265Y474135D01*
X46185785Y460000D01*
X1019564Y460000D01*
X883833Y473309D01*
X772088Y507047D01*
X669028Y561844D01*
X578570Y635620D01*
X504168Y725556D01*
X448650Y828236D01*
X414135Y939735D01*
X400000Y1074215D01*
X400000Y1295268D01*
X1238096Y1295268D01*
X1480749Y965527D01*
X1918552Y709380D01*
X2397916Y543567D01*
X2900417Y474458D01*
X3406745Y504711D01*
X3897442Y633163D01*
X4353650Y854876D01*
X4519251Y965527D01*
X4761904Y1295268D01*
X3000000Y3057172D01*
X1238096Y1295268D01*
X400000Y1295268D01*
X400000Y3159583D01*
X414458Y3159583D01*
X444711Y2653255D01*
X573163Y2162558D01*
X794876Y1706350D01*
X905527Y1540749D01*
X1235268Y1298096D01*
X2997172Y3060000D01*
X3002828Y3060000D01*
X4764732Y1298096D01*
X4847609Y1359085D01*
X13261914Y1359085D01*
X13375675Y1139428D01*
X13630788Y990358D01*
X13910082Y893922D01*
X14202823Y853827D01*
X14497762Y871614D01*
X14783563Y946598D01*
X15049244Y1075898D01*
X15144325Y1139428D01*
X15258086Y1359085D01*
X18341914Y1359085D01*
X18455675Y1139428D01*
X18710788Y990358D01*
X18990082Y893922D01*
X19282823Y853827D01*
X19577762Y871614D01*
X19863563Y946598D01*
X20129244Y1075898D01*
X20224325Y1139428D01*
X20305034Y1295268D01*
X42438096Y1295268D01*
X42680749Y965527D01*
X43118552Y709380D01*
X43597916Y543567D01*
X44100417Y474458D01*
X44606745Y504711D01*
X45097442Y633163D01*
X45553650Y854876D01*
X45719251Y965527D01*
X45961904Y1295268D01*
X44200000Y3057172D01*
X42438096Y1295268D01*
X20305034Y1295268D01*
X20338086Y1359085D01*
X19340000Y2357172D01*
X18341914Y1359085D01*
X15258086Y1359085D01*
X14260000Y2357172D01*
X13261914Y1359085D01*
X4847609Y1359085D01*
X5094473Y1540749D01*
X5350620Y1978552D01*
X5502341Y2417177D01*
X12753827Y2417177D01*
X12771614Y2122238D01*
X12846598Y1836437D01*
X12975898Y1570756D01*
X13039428Y1475675D01*
X13259085Y1361914D01*
X14257172Y2360000D01*
X14262828Y2360000D01*
X15260915Y1361914D01*
X15480572Y1475675D01*
X15629642Y1730788D01*
X15726078Y2010082D01*
X15766173Y2302823D01*
X15759277Y2417177D01*
X17833827Y2417177D01*
X17851614Y2122238D01*
X17926598Y1836437D01*
X18055898Y1570756D01*
X18119428Y1475675D01*
X18339085Y1361914D01*
X19337172Y2360000D01*
X19342828Y2360000D01*
X20340915Y1361914D01*
X20560572Y1475675D01*
X20709642Y1730788D01*
X20806078Y2010082D01*
X20846173Y2302823D01*
X20828386Y2597762D01*
X20768418Y2826331D01*
X27825000Y2826331D01*
X27825000Y2673669D01*
X27854783Y2523941D01*
X27913204Y2382900D01*
X27998018Y2255966D01*
X28105966Y2148018D01*
X28232900Y2063204D01*
X28373941Y2004783D01*
X28523669Y1975000D01*
X28676331Y1975000D01*
X28826059Y2004783D01*
X28967100Y2063204D01*
X29094034Y2148018D01*
X29201982Y2255966D01*
X29286796Y2382900D01*
X29345217Y2523941D01*
X29375000Y2673669D01*
X29375000Y2826331D01*
X29345217Y2976059D01*
X29286796Y3117100D01*
X29247220Y3176331D01*
X31875000Y3176331D01*
X31875000Y3023669D01*
X31904783Y2873941D01*
X31963204Y2732900D01*
X32048018Y2605966D01*
X32155966Y2498018D01*
X32282900Y2413204D01*
X32423941Y2354783D01*
X32573669Y2325000D01*
X32726331Y2325000D01*
X32876059Y2354783D01*
X33017100Y2413204D01*
X33144034Y2498018D01*
X33251982Y2605966D01*
X33336796Y2732900D01*
X33395217Y2873941D01*
X33425000Y3023669D01*
X33425000Y3176331D01*
X33395217Y3326059D01*
X33384750Y3351331D01*
X34425000Y3351331D01*
X34425000Y3198669D01*
X34454783Y3048941D01*
X34513204Y2907900D01*
X34598018Y2780966D01*
X34705966Y2673018D01*
X34832900Y2588204D01*
X34973941Y2529783D01*
X35123669Y2500000D01*
X35276331Y2500000D01*
X35426059Y2529783D01*
X35567100Y2588204D01*
X35694034Y2673018D01*
X35801982Y2780966D01*
X35886796Y2907900D01*
X35945217Y3048941D01*
X35967225Y3159583D01*
X41614458Y3159583D01*
X41644711Y2653255D01*
X41773163Y2162558D01*
X41994876Y1706350D01*
X42105527Y1540749D01*
X42435268Y1298096D01*
X44197172Y3060000D01*
X44202828Y3060000D01*
X45964732Y1298096D01*
X46294473Y1540749D01*
X46550620Y1978552D01*
X46716433Y2457916D01*
X46785542Y2960417D01*
X46755289Y3466745D01*
X46626837Y3957442D01*
X46405124Y4413650D01*
X46294473Y4579251D01*
X45964732Y4821904D01*
X44202828Y3060000D01*
X44197172Y3060000D01*
X42435268Y4821904D01*
X42105527Y4579251D01*
X41849380Y4141448D01*
X41683567Y3662084D01*
X41614458Y3159583D01*
X35967225Y3159583D01*
X35975000Y3198669D01*
X35975000Y3351331D01*
X35945217Y3501059D01*
X35886796Y3642100D01*
X35801982Y3769034D01*
X35694034Y3876982D01*
X35567100Y3961796D01*
X35426059Y4020217D01*
X35276331Y4050000D01*
X35123669Y4050000D01*
X34973941Y4020217D01*
X34832900Y3961796D01*
X34705966Y3876982D01*
X34598018Y3769034D01*
X34513204Y3642100D01*
X34454783Y3501059D01*
X34425000Y3351331D01*
X33384750Y3351331D01*
X33336796Y3467100D01*
X33251982Y3594034D01*
X33144034Y3701982D01*
X33017100Y3786796D01*
X32876059Y3845217D01*
X32726331Y3875000D01*
X32573669Y3875000D01*
X32423941Y3845217D01*
X32282900Y3786796D01*
X32155966Y3701982D01*
X32048018Y3594034D01*
X31963204Y3467100D01*
X31904783Y3326059D01*
X31875000Y3176331D01*
X29247220Y3176331D01*
X29201982Y3244034D01*
X29094034Y3351982D01*
X28967100Y3436796D01*
X28826059Y3495217D01*
X28676331Y3525000D01*
X28523669Y3525000D01*
X28373941Y3495217D01*
X28232900Y3436796D01*
X28105966Y3351982D01*
X27998018Y3244034D01*
X27913204Y3117100D01*
X27854783Y2976059D01*
X27825000Y2826331D01*
X20768418Y2826331D01*
X20753402Y2883563D01*
X20624102Y3149244D01*
X20560572Y3244325D01*
X20340915Y3358086D01*
X19342828Y2360000D01*
X19337172Y2360000D01*
X18339085Y3358086D01*
X18119428Y3244325D01*
X17970358Y2989212D01*
X17873922Y2709918D01*
X17833827Y2417177D01*
X15759277Y2417177D01*
X15748386Y2597762D01*
X15673402Y2883563D01*
X15544102Y3149244D01*
X15480572Y3244325D01*
X15260915Y3358086D01*
X14262828Y2360000D01*
X14257172Y2360000D01*
X13259085Y3358086D01*
X13039428Y3244325D01*
X12890358Y2989212D01*
X12793922Y2709918D01*
X12753827Y2417177D01*
X5502341Y2417177D01*
X5516433Y2457916D01*
X5585542Y2960417D01*
X5561613Y3360915D01*
X13261914Y3360915D01*
X14260000Y2362828D01*
X15258086Y3360915D01*
X15144325Y3580572D01*
X14889212Y3729642D01*
X14609918Y3826078D01*
X14317177Y3866173D01*
X14022238Y3848386D01*
X13736437Y3773402D01*
X13470756Y3644102D01*
X13375675Y3580572D01*
X13261914Y3360915D01*
X5561613Y3360915D01*
X5555289Y3466745D01*
X5426837Y3957442D01*
X5205124Y4413650D01*
X5094473Y4579251D01*
X4764732Y4821904D01*
X3002828Y3060000D01*
X2997172Y3060000D01*
X1235268Y4821904D01*
X905527Y4579251D01*
X649380Y4141448D01*
X483567Y3662084D01*
X414458Y3159583D01*
X400000Y3159583D01*
X400000Y4824732D01*
X1238096Y4824732D01*
X3000000Y3062828D01*
X4761904Y4824732D01*
X4576054Y5077284D01*
X15000000Y5077284D01*
X15000000Y4722716D01*
X15069173Y4374959D01*
X15204861Y4047380D01*
X15401849Y3752567D01*
X15652567Y3501849D01*
X15947380Y3304861D01*
X16274959Y3169173D01*
X16622716Y3100000D01*
X16977284Y3100000D01*
X17325041Y3169173D01*
X17652620Y3304861D01*
X17736510Y3360915D01*
X18341914Y3360915D01*
X19340000Y2362828D01*
X20338086Y3360915D01*
X20224325Y3580572D01*
X19969212Y3729642D01*
X19689918Y3826078D01*
X19397177Y3866173D01*
X19102238Y3848386D01*
X18816437Y3773402D01*
X18550756Y3644102D01*
X18455675Y3580572D01*
X18341914Y3360915D01*
X17736510Y3360915D01*
X17947433Y3501849D01*
X18198151Y3752567D01*
X18395139Y4047380D01*
X18530827Y4374959D01*
X18600000Y4722716D01*
X18600000Y4824732D01*
X42438096Y4824732D01*
X44200000Y3062828D01*
X45961904Y4824732D01*
X45719251Y5154473D01*
X45281448Y5410620D01*
X44802084Y5576433D01*
X44299583Y5645542D01*
X43793255Y5615289D01*
X43302558Y5486837D01*
X42846350Y5265124D01*
X42680749Y5154473D01*
X42438096Y4824732D01*
X18600000Y4824732D01*
X18600000Y5077284D01*
X18530827Y5425041D01*
X18395139Y5752620D01*
X18312478Y5876331D01*
X27825000Y5876331D01*
X27825000Y5723669D01*
X27854783Y5573941D01*
X27913204Y5432900D01*
X27998018Y5305966D01*
X28105966Y5198018D01*
X28232900Y5113204D01*
X28373941Y5054783D01*
X28523669Y5025000D01*
X28676331Y5025000D01*
X28826059Y5054783D01*
X28967100Y5113204D01*
X29094034Y5198018D01*
X29201982Y5305966D01*
X29286796Y5432900D01*
X29345217Y5573941D01*
X29375000Y5723669D01*
X29375000Y5876331D01*
X29345217Y6026059D01*
X29286796Y6167100D01*
X29201982Y6294034D01*
X29094034Y6401982D01*
X28967100Y6486796D01*
X28826059Y6545217D01*
X28676331Y6575000D01*
X28523669Y6575000D01*
X28373941Y6545217D01*
X28232900Y6486796D01*
X28105966Y6401982D01*
X27998018Y6294034D01*
X27913204Y6167100D01*
X27854783Y6026059D01*
X27825000Y5876331D01*
X18312478Y5876331D01*
X18198151Y6047433D01*
X17947433Y6298151D01*
X17736511Y6439085D01*
X18341914Y6439085D01*
X18455675Y6219428D01*
X18710788Y6070358D01*
X18990082Y5973922D01*
X19282823Y5933827D01*
X19577762Y5951614D01*
X19863563Y6026598D01*
X20129244Y6155898D01*
X20224325Y6219428D01*
X20338086Y6439085D01*
X19340000Y7437172D01*
X18341914Y6439085D01*
X17736511Y6439085D01*
X17652620Y6495139D01*
X17325041Y6630827D01*
X16977284Y6700000D01*
X16622716Y6700000D01*
X16274959Y6630827D01*
X15947380Y6495139D01*
X15652567Y6298151D01*
X15401849Y6047433D01*
X15204861Y5752620D01*
X15069173Y5425041D01*
X15000000Y5077284D01*
X4576054Y5077284D01*
X4519251Y5154473D01*
X4081448Y5410620D01*
X3602084Y5576433D01*
X3099583Y5645542D01*
X2593255Y5615289D01*
X2102558Y5486837D01*
X1646350Y5265124D01*
X1480749Y5154473D01*
X1238096Y4824732D01*
X400000Y4824732D01*
X400000Y6439085D01*
X13261914Y6439085D01*
X13375675Y6219428D01*
X13630788Y6070358D01*
X13910082Y5973922D01*
X14202823Y5933827D01*
X14497762Y5951614D01*
X14783563Y6026598D01*
X15049244Y6155898D01*
X15144325Y6219428D01*
X15258086Y6439085D01*
X14260000Y7437172D01*
X13261914Y6439085D01*
X400000Y6439085D01*
X400000Y7497177D01*
X12753827Y7497177D01*
X12771614Y7202238D01*
X12846598Y6916437D01*
X12975898Y6650756D01*
X13039428Y6555675D01*
X13259085Y6441914D01*
X14257172Y7440000D01*
X14262828Y7440000D01*
X15260915Y6441914D01*
X15480572Y6555675D01*
X15629642Y6810788D01*
X15726078Y7090082D01*
X15766173Y7382823D01*
X15759277Y7497177D01*
X17833827Y7497177D01*
X17851614Y7202238D01*
X17926598Y6916437D01*
X18055898Y6650756D01*
X18119428Y6555675D01*
X18339085Y6441914D01*
X19337172Y7440000D01*
X19342828Y7440000D01*
X20340915Y6441914D01*
X20560572Y6555675D01*
X20709642Y6810788D01*
X20806078Y7090082D01*
X20846173Y7382823D01*
X20828386Y7677762D01*
X20753402Y7963563D01*
X20649854Y8176331D01*
X30325000Y8176331D01*
X30325000Y8023669D01*
X30354783Y7873941D01*
X30413204Y7732900D01*
X30498018Y7605966D01*
X30605966Y7498018D01*
X30732900Y7413204D01*
X30873941Y7354783D01*
X31023669Y7325000D01*
X31176331Y7325000D01*
X31326059Y7354783D01*
X31467100Y7413204D01*
X31594034Y7498018D01*
X31701982Y7605966D01*
X31786796Y7732900D01*
X31845217Y7873941D01*
X31875000Y8023669D01*
X31875000Y8176331D01*
X31845217Y8326059D01*
X31786796Y8467100D01*
X31701982Y8594034D01*
X31594034Y8701982D01*
X31467100Y8786796D01*
X31326059Y8845217D01*
X31176331Y8875000D01*
X31023669Y8875000D01*
X30873941Y8845217D01*
X30732900Y8786796D01*
X30605966Y8701982D01*
X30498018Y8594034D01*
X30413204Y8467100D01*
X30354783Y8326059D01*
X30325000Y8176331D01*
X20649854Y8176331D01*
X20624102Y8229244D01*
X20560572Y8324325D01*
X20340915Y8438086D01*
X19342828Y7440000D01*
X19337172Y7440000D01*
X18339085Y8438086D01*
X18119428Y8324325D01*
X17970358Y8069212D01*
X17873922Y7789918D01*
X17833827Y7497177D01*
X15759277Y7497177D01*
X15748386Y7677762D01*
X15673402Y7963563D01*
X15544102Y8229244D01*
X15480572Y8324325D01*
X15260915Y8438086D01*
X14262828Y7440000D01*
X14257172Y7440000D01*
X13259085Y8438086D01*
X13039428Y8324325D01*
X12890358Y8069212D01*
X12793922Y7789918D01*
X12753827Y7497177D01*
X400000Y7497177D01*
X400000Y9520652D01*
X775000Y9520652D01*
X775000Y9279348D01*
X822076Y9042681D01*
X914419Y8819745D01*
X1048481Y8619108D01*
X1219108Y8448481D01*
X1419745Y8314419D01*
X1642681Y8222076D01*
X1879348Y8175000D01*
X2120652Y8175000D01*
X2357319Y8222076D01*
X2580255Y8314419D01*
X2780892Y8448481D01*
X2951519Y8619108D01*
X3085581Y8819745D01*
X3177924Y9042681D01*
X3210488Y9206393D01*
X3330397Y9206393D01*
X3348382Y9115975D01*
X3426689Y8888959D01*
X3547780Y8681582D01*
X3707002Y8501814D01*
X3898235Y8356563D01*
X4114131Y8251410D01*
X4346393Y8190397D01*
X4538000Y8268752D01*
X4538000Y9398000D01*
X4542000Y9398000D01*
X4542000Y8268752D01*
X4733607Y8190397D01*
X4965869Y8251410D01*
X5181765Y8356563D01*
X5292820Y8440915D01*
X13261914Y8440915D01*
X14260000Y7442828D01*
X15258086Y8440915D01*
X18341914Y8440915D01*
X19340000Y7442828D01*
X20338086Y8440915D01*
X20224325Y8660572D01*
X19969212Y8809642D01*
X19689918Y8906078D01*
X19397177Y8946173D01*
X19102238Y8928386D01*
X18816437Y8853402D01*
X18550756Y8724102D01*
X18455675Y8660572D01*
X18341914Y8440915D01*
X15258086Y8440915D01*
X15144325Y8660572D01*
X14889212Y8809642D01*
X14609918Y8906078D01*
X14317177Y8946173D01*
X14022238Y8928386D01*
X13736437Y8853402D01*
X13470756Y8724102D01*
X13375675Y8660572D01*
X13261914Y8440915D01*
X5292820Y8440915D01*
X5372998Y8501814D01*
X5532220Y8681582D01*
X5653311Y8888959D01*
X5731618Y9115975D01*
X5749603Y9206393D01*
X5671248Y9398000D01*
X4542000Y9398000D01*
X4538000Y9398000D01*
X3408752Y9398000D01*
X3330397Y9206393D01*
X3210488Y9206393D01*
X3225000Y9279348D01*
X3225000Y9520652D01*
X3210489Y9593607D01*
X3330397Y9593607D01*
X3408752Y9402000D01*
X4538000Y9402000D01*
X4538000Y10531248D01*
X4542000Y10531248D01*
X4542000Y9402000D01*
X5671248Y9402000D01*
X5749603Y9593607D01*
X5731618Y9684025D01*
X5653311Y9911041D01*
X5532220Y10118418D01*
X5456784Y10203589D01*
X32038282Y10203589D01*
X32038282Y9866411D01*
X32104063Y9535710D01*
X32233095Y9224198D01*
X32420422Y8943844D01*
X32658844Y8705422D01*
X32939198Y8518095D01*
X33250710Y8389063D01*
X33581411Y8323282D01*
X33918589Y8323282D01*
X34249290Y8389063D01*
X34560802Y8518095D01*
X34562283Y8519085D01*
X39261914Y8519085D01*
X39375675Y8299428D01*
X39630788Y8150358D01*
X39910082Y8053922D01*
X40202823Y8013827D01*
X40497762Y8031614D01*
X40783563Y8106598D01*
X41049244Y8235898D01*
X41144325Y8299428D01*
X41258086Y8519085D01*
X44341914Y8519085D01*
X44455675Y8299428D01*
X44710788Y8150358D01*
X44990082Y8053922D01*
X45282823Y8013827D01*
X45577762Y8031614D01*
X45863563Y8106598D01*
X46129244Y8235898D01*
X46224325Y8299428D01*
X46338086Y8519085D01*
X45340000Y9517172D01*
X44341914Y8519085D01*
X41258086Y8519085D01*
X40260000Y9517172D01*
X39261914Y8519085D01*
X34562283Y8519085D01*
X34841156Y8705422D01*
X35079578Y8943844D01*
X35266905Y9224198D01*
X35395937Y9535710D01*
X35404185Y9577177D01*
X38753827Y9577177D01*
X38771614Y9282238D01*
X38846598Y8996437D01*
X38975898Y8730756D01*
X39039428Y8635675D01*
X39259085Y8521914D01*
X40257172Y9520000D01*
X40262828Y9520000D01*
X41260915Y8521914D01*
X41480572Y8635675D01*
X41629642Y8890788D01*
X41726078Y9170082D01*
X41766173Y9462823D01*
X41759277Y9577177D01*
X43833827Y9577177D01*
X43851614Y9282238D01*
X43926598Y8996437D01*
X44055898Y8730756D01*
X44119428Y8635675D01*
X44339085Y8521914D01*
X45337172Y9520000D01*
X44339085Y10518086D01*
X44119428Y10404325D01*
X43970358Y10149212D01*
X43873922Y9869918D01*
X43833827Y9577177D01*
X41759277Y9577177D01*
X41748386Y9757762D01*
X41673402Y10043563D01*
X41544102Y10309244D01*
X41480572Y10404325D01*
X41260915Y10518086D01*
X40262828Y9520000D01*
X40257172Y9520000D01*
X39259085Y10518086D01*
X39039428Y10404325D01*
X38890358Y10149212D01*
X38793922Y9869918D01*
X38753827Y9577177D01*
X35404185Y9577177D01*
X35461718Y9866411D01*
X35461718Y10203589D01*
X35398598Y10520915D01*
X39261914Y10520915D01*
X40260000Y9522828D01*
X41258086Y10520915D01*
X41144325Y10740572D01*
X40889212Y10889642D01*
X40609918Y10986078D01*
X40317177Y11026173D01*
X40022238Y11008386D01*
X39736437Y10933402D01*
X39470756Y10804102D01*
X39375675Y10740572D01*
X39261914Y10520915D01*
X35398598Y10520915D01*
X35395937Y10534290D01*
X35266905Y10845802D01*
X35079578Y11126156D01*
X34841156Y11364578D01*
X34560802Y11551905D01*
X34249290Y11680937D01*
X33918589Y11746718D01*
X33581411Y11746718D01*
X33250710Y11680937D01*
X32939198Y11551905D01*
X32658844Y11364578D01*
X32420422Y11126156D01*
X32233095Y10845802D01*
X32104063Y10534290D01*
X32038282Y10203589D01*
X5456784Y10203589D01*
X5372998Y10298186D01*
X5181765Y10443437D01*
X4965869Y10548590D01*
X4733607Y10609603D01*
X4542000Y10531248D01*
X4538000Y10531248D01*
X4346393Y10609603D01*
X4114131Y10548590D01*
X3898235Y10443437D01*
X3707002Y10298186D01*
X3547780Y10118418D01*
X3426689Y9911041D01*
X3348382Y9684025D01*
X3330397Y9593607D01*
X3210489Y9593607D01*
X3177924Y9757319D01*
X3085581Y9980255D01*
X2951519Y10180892D01*
X2780892Y10351519D01*
X2580255Y10485581D01*
X2357319Y10577924D01*
X2120652Y10625000D01*
X1879348Y10625000D01*
X1642681Y10577924D01*
X1419745Y10485581D01*
X1219108Y10351519D01*
X1048481Y10180892D01*
X914419Y9980255D01*
X822076Y9757319D01*
X775000Y9520652D01*
X400000Y9520652D01*
X400000Y12060652D01*
X775000Y12060652D01*
X775000Y11819348D01*
X822076Y11582681D01*
X914419Y11359745D01*
X1048481Y11159108D01*
X1219108Y10988481D01*
X1419745Y10854419D01*
X1642681Y10762076D01*
X1879348Y10715000D01*
X2120652Y10715000D01*
X2357319Y10762076D01*
X2580255Y10854419D01*
X2780892Y10988481D01*
X2951519Y11159108D01*
X3085581Y11359745D01*
X3177924Y11582681D01*
X3225000Y11819348D01*
X3225000Y12060652D01*
X3315000Y12060652D01*
X3315000Y11819348D01*
X3362076Y11582681D01*
X3454419Y11359745D01*
X3588481Y11159108D01*
X3759108Y10988481D01*
X3959745Y10854419D01*
X4182681Y10762076D01*
X4419348Y10715000D01*
X4660652Y10715000D01*
X4897319Y10762076D01*
X5120255Y10854419D01*
X5320892Y10988481D01*
X5491519Y11159108D01*
X5625581Y11359745D01*
X5717924Y11582681D01*
X5756443Y11776331D01*
X9975000Y11776331D01*
X9975000Y11623669D01*
X10004783Y11473941D01*
X10063204Y11332900D01*
X10148018Y11205966D01*
X10255966Y11098018D01*
X10382900Y11013204D01*
X10523941Y10954783D01*
X10673669Y10925000D01*
X10826331Y10925000D01*
X10976059Y10954783D01*
X11117100Y11013204D01*
X11244034Y11098018D01*
X11351982Y11205966D01*
X11436796Y11332900D01*
X11495217Y11473941D01*
X11525000Y11623669D01*
X11525000Y11776331D01*
X11495217Y11926059D01*
X11436796Y12067100D01*
X11351982Y12194034D01*
X11308732Y12237284D01*
X41000000Y12237284D01*
X41000000Y11882716D01*
X41069173Y11534959D01*
X41204861Y11207380D01*
X41401849Y10912567D01*
X41652567Y10661849D01*
X41947380Y10464861D01*
X42274959Y10329173D01*
X42622716Y10260000D01*
X42977284Y10260000D01*
X43325041Y10329173D01*
X43652620Y10464861D01*
X43736510Y10520915D01*
X44341914Y10520915D01*
X45340000Y9522828D01*
X46338086Y10520915D01*
X46224325Y10740572D01*
X45969212Y10889642D01*
X45689918Y10986078D01*
X45397177Y11026173D01*
X45102238Y11008386D01*
X44816437Y10933402D01*
X44550756Y10804102D01*
X44455675Y10740572D01*
X44341914Y10520915D01*
X43736510Y10520915D01*
X43947433Y10661849D01*
X44198151Y10912567D01*
X44395139Y11207380D01*
X44530827Y11534959D01*
X44600000Y11882716D01*
X44600000Y12237284D01*
X44530827Y12585041D01*
X44395139Y12912620D01*
X44198151Y13207433D01*
X43947433Y13458151D01*
X43736511Y13599085D01*
X44341914Y13599085D01*
X44455675Y13379428D01*
X44710788Y13230358D01*
X44990082Y13133922D01*
X45282823Y13093827D01*
X45577762Y13111614D01*
X45863563Y13186598D01*
X46129244Y13315898D01*
X46224325Y13379428D01*
X46338086Y13599085D01*
X45340000Y14597172D01*
X44341914Y13599085D01*
X43736511Y13599085D01*
X43652620Y13655139D01*
X43325041Y13790827D01*
X42977284Y13860000D01*
X42622716Y13860000D01*
X42274959Y13790827D01*
X41947380Y13655139D01*
X41652567Y13458151D01*
X41401849Y13207433D01*
X41204861Y12912620D01*
X41069173Y12585041D01*
X41000000Y12237284D01*
X11308732Y12237284D01*
X11244034Y12301982D01*
X11117100Y12386796D01*
X10976059Y12445217D01*
X10826331Y12475000D01*
X10673669Y12475000D01*
X10523941Y12445217D01*
X10382900Y12386796D01*
X10255966Y12301982D01*
X10148018Y12194034D01*
X10063204Y12067100D01*
X10004783Y11926059D01*
X9975000Y11776331D01*
X5756443Y11776331D01*
X5765000Y11819348D01*
X5765000Y12060652D01*
X5717924Y12297319D01*
X5625581Y12520255D01*
X5491519Y12720892D01*
X5320892Y12891519D01*
X5120255Y13025581D01*
X5118445Y13026331D01*
X7175000Y13026331D01*
X7175000Y12873669D01*
X7204783Y12723941D01*
X7263204Y12582900D01*
X7348018Y12455966D01*
X7455966Y12348018D01*
X7582900Y12263204D01*
X7723941Y12204783D01*
X7873669Y12175000D01*
X8026331Y12175000D01*
X8176059Y12204783D01*
X8317100Y12263204D01*
X8444034Y12348018D01*
X8551982Y12455966D01*
X8636796Y12582900D01*
X8695217Y12723941D01*
X8725000Y12873669D01*
X8725000Y13026331D01*
X8695217Y13176059D01*
X8636796Y13317100D01*
X8551982Y13444034D01*
X8444034Y13551982D01*
X8373539Y13599085D01*
X39261914Y13599085D01*
X39375675Y13379428D01*
X39630788Y13230358D01*
X39910082Y13133922D01*
X40202823Y13093827D01*
X40497762Y13111614D01*
X40783563Y13186598D01*
X41049244Y13315898D01*
X41144325Y13379428D01*
X41258086Y13599085D01*
X40260000Y14597172D01*
X39261914Y13599085D01*
X8373539Y13599085D01*
X8317100Y13636796D01*
X8176059Y13695217D01*
X8026331Y13725000D01*
X7873669Y13725000D01*
X7723941Y13695217D01*
X7582900Y13636796D01*
X7455966Y13551982D01*
X7348018Y13444034D01*
X7263204Y13317100D01*
X7204783Y13176059D01*
X7175000Y13026331D01*
X5118445Y13026331D01*
X4897319Y13117924D01*
X4660652Y13165000D01*
X4419348Y13165000D01*
X4182681Y13117924D01*
X3959745Y13025581D01*
X3759108Y12891519D01*
X3588481Y12720892D01*
X3454419Y12520255D01*
X3362076Y12297319D01*
X3315000Y12060652D01*
X3225000Y12060652D01*
X3177924Y12297319D01*
X3085581Y12520255D01*
X2951519Y12720892D01*
X2780892Y12891519D01*
X2580255Y13025581D01*
X2357319Y13117924D01*
X2120652Y13165000D01*
X1879348Y13165000D01*
X1642681Y13117924D01*
X1419745Y13025581D01*
X1219108Y12891519D01*
X1048481Y12720892D01*
X914419Y12520255D01*
X822076Y12297319D01*
X775000Y12060652D01*
X400000Y12060652D01*
X400000Y14600652D01*
X775000Y14600652D01*
X775000Y14359348D01*
X822076Y14122681D01*
X914419Y13899745D01*
X1048481Y13699108D01*
X1219108Y13528481D01*
X1419745Y13394419D01*
X1642681Y13302076D01*
X1879348Y13255000D01*
X2120652Y13255000D01*
X2357319Y13302076D01*
X2580255Y13394419D01*
X2780892Y13528481D01*
X2951519Y13699108D01*
X3085581Y13899745D01*
X3177924Y14122681D01*
X3225000Y14359348D01*
X3225000Y14600652D01*
X3315000Y14600652D01*
X3315000Y14359348D01*
X3362076Y14122681D01*
X3454419Y13899745D01*
X3588481Y13699108D01*
X3759108Y13528481D01*
X3959745Y13394419D01*
X4182681Y13302076D01*
X4419348Y13255000D01*
X4660652Y13255000D01*
X4897319Y13302076D01*
X5120255Y13394419D01*
X5320892Y13528481D01*
X5491519Y13699108D01*
X5625581Y13899745D01*
X5717924Y14122681D01*
X5765000Y14359348D01*
X5765000Y14600652D01*
X5753757Y14657177D01*
X38753827Y14657177D01*
X38771614Y14362238D01*
X38846598Y14076437D01*
X38975898Y13810756D01*
X39039428Y13715675D01*
X39259085Y13601914D01*
X40257172Y14600000D01*
X40262828Y14600000D01*
X41260915Y13601914D01*
X41480572Y13715675D01*
X41629642Y13970788D01*
X41726078Y14250082D01*
X41766173Y14542823D01*
X41759277Y14657177D01*
X43833827Y14657177D01*
X43851614Y14362238D01*
X43926598Y14076437D01*
X44055898Y13810756D01*
X44119428Y13715675D01*
X44339085Y13601914D01*
X45337172Y14600000D01*
X44339085Y15598086D01*
X44119428Y15484325D01*
X43970358Y15229212D01*
X43873922Y14949918D01*
X43833827Y14657177D01*
X41759277Y14657177D01*
X41748386Y14837762D01*
X41673402Y15123563D01*
X41544102Y15389244D01*
X41480572Y15484325D01*
X41260915Y15598086D01*
X40262828Y14600000D01*
X40257172Y14600000D01*
X39259085Y15598086D01*
X39039428Y15484325D01*
X38890358Y15229212D01*
X38793922Y14949918D01*
X38753827Y14657177D01*
X5753757Y14657177D01*
X5717924Y14837319D01*
X5625581Y15060255D01*
X5491519Y15260892D01*
X5320892Y15431519D01*
X5120255Y15565581D01*
X5034952Y15600915D01*
X39261914Y15600915D01*
X40260000Y14602828D01*
X41258086Y15600915D01*
X44341914Y15600915D01*
X45340000Y14602828D01*
X46338086Y15600915D01*
X46224325Y15820572D01*
X45969212Y15969642D01*
X45689918Y16066078D01*
X45397177Y16106173D01*
X45102238Y16088386D01*
X44816437Y16013402D01*
X44550756Y15884102D01*
X44455675Y15820572D01*
X44341914Y15600915D01*
X41258086Y15600915D01*
X41144325Y15820572D01*
X40889212Y15969642D01*
X40609918Y16066078D01*
X40317177Y16106173D01*
X40022238Y16088386D01*
X39736437Y16013402D01*
X39470756Y15884102D01*
X39375675Y15820572D01*
X39261914Y15600915D01*
X5034952Y15600915D01*
X4897319Y15657924D01*
X4660652Y15705000D01*
X4419348Y15705000D01*
X4182681Y15657924D01*
X3959745Y15565581D01*
X3759108Y15431519D01*
X3588481Y15260892D01*
X3454419Y15060255D01*
X3362076Y14837319D01*
X3315000Y14600652D01*
X3225000Y14600652D01*
X3177924Y14837319D01*
X3085581Y15060255D01*
X2951519Y15260892D01*
X2780892Y15431519D01*
X2580255Y15565581D01*
X2357319Y15657924D01*
X2120652Y15705000D01*
X1879348Y15705000D01*
X1642681Y15657924D01*
X1419745Y15565581D01*
X1219108Y15431519D01*
X1048481Y15260892D01*
X914419Y15060255D01*
X822076Y14837319D01*
X775000Y14600652D01*
X400000Y14600652D01*
X400000Y17140652D01*
X775000Y17140652D01*
X775000Y16899348D01*
X822076Y16662681D01*
X914419Y16439745D01*
X1048481Y16239108D01*
X1219108Y16068481D01*
X1419745Y15934419D01*
X1642681Y15842076D01*
X1879348Y15795000D01*
X2120652Y15795000D01*
X2357319Y15842076D01*
X2580255Y15934419D01*
X2780892Y16068481D01*
X2951519Y16239108D01*
X3085581Y16439745D01*
X3177924Y16662681D01*
X3225000Y16899348D01*
X3225000Y17140652D01*
X3315000Y17140652D01*
X3315000Y16899348D01*
X3362076Y16662681D01*
X3454419Y16439745D01*
X3588481Y16239108D01*
X3759108Y16068481D01*
X3959745Y15934419D01*
X4182681Y15842076D01*
X4419348Y15795000D01*
X4660652Y15795000D01*
X4897319Y15842076D01*
X5120255Y15934419D01*
X5320892Y16068481D01*
X5491519Y16239108D01*
X5625581Y16439745D01*
X5682156Y16576331D01*
X11325000Y16576331D01*
X11325000Y16423669D01*
X11354783Y16273941D01*
X11413204Y16132900D01*
X11498018Y16005966D01*
X11605966Y15898018D01*
X11732900Y15813204D01*
X11873941Y15754783D01*
X12023669Y15725000D01*
X12176331Y15725000D01*
X12326059Y15754783D01*
X12467100Y15813204D01*
X12594034Y15898018D01*
X12701982Y16005966D01*
X12786796Y16132900D01*
X12845217Y16273941D01*
X12875000Y16423669D01*
X12875000Y16576331D01*
X12845217Y16726059D01*
X12786796Y16867100D01*
X12701982Y16994034D01*
X12594034Y17101982D01*
X12467100Y17186796D01*
X12326059Y17245217D01*
X12176331Y17275000D01*
X12023669Y17275000D01*
X11873941Y17245217D01*
X11732900Y17186796D01*
X11605966Y17101982D01*
X11498018Y16994034D01*
X11413204Y16867100D01*
X11354783Y16726059D01*
X11325000Y16576331D01*
X5682156Y16576331D01*
X5717924Y16662681D01*
X5765000Y16899348D01*
X5765000Y17140652D01*
X5717924Y17377319D01*
X5625581Y17600255D01*
X5491519Y17800892D01*
X5320892Y17971519D01*
X5120255Y18105581D01*
X4897319Y18197924D01*
X4660652Y18245000D01*
X4419348Y18245000D01*
X4182681Y18197924D01*
X3959745Y18105581D01*
X3759108Y17971519D01*
X3588481Y17800892D01*
X3454419Y17600255D01*
X3362076Y17377319D01*
X3315000Y17140652D01*
X3225000Y17140652D01*
X3177924Y17377319D01*
X3085581Y17600255D01*
X2951519Y17800892D01*
X2780892Y17971519D01*
X2580255Y18105581D01*
X2357319Y18197924D01*
X2120652Y18245000D01*
X1879348Y18245000D01*
X1642681Y18197924D01*
X1419745Y18105581D01*
X1219108Y17971519D01*
X1048481Y17800892D01*
X914419Y17600255D01*
X822076Y17377319D01*
X775000Y17140652D01*
X400000Y17140652D01*
X400000Y19680652D01*
X775000Y19680652D01*
X775000Y19439348D01*
X822076Y19202681D01*
X914419Y18979745D01*
X1048481Y18779108D01*
X1219108Y18608481D01*
X1419745Y18474419D01*
X1642681Y18382076D01*
X1879348Y18335000D01*
X2120652Y18335000D01*
X2357319Y18382076D01*
X2580255Y18474419D01*
X2780892Y18608481D01*
X2951519Y18779108D01*
X3085581Y18979745D01*
X3177924Y19202681D01*
X3225000Y19439348D01*
X3225000Y19680652D01*
X3315000Y19680652D01*
X3315000Y19439348D01*
X3362076Y19202681D01*
X3454419Y18979745D01*
X3588481Y18779108D01*
X3759108Y18608481D01*
X3959745Y18474419D01*
X4182681Y18382076D01*
X4419348Y18335000D01*
X4660652Y18335000D01*
X4868457Y18376335D01*
X11425000Y18376335D01*
X11425000Y18223673D01*
X11454783Y18073945D01*
X11513204Y17932904D01*
X11598018Y17805970D01*
X11705966Y17698022D01*
X11832900Y17613208D01*
X11973941Y17554787D01*
X12123669Y17525004D01*
X12276331Y17525004D01*
X12426059Y17554787D01*
X12567100Y17613208D01*
X12694034Y17698022D01*
X12801982Y17805970D01*
X12886796Y17932904D01*
X12945217Y18073945D01*
X12957624Y18136321D01*
X28364996Y18136321D01*
X28364996Y17983659D01*
X28394779Y17833931D01*
X28453200Y17692890D01*
X28538014Y17565956D01*
X28645962Y17458008D01*
X28772896Y17373194D01*
X28913937Y17314773D01*
X29063665Y17284990D01*
X29216327Y17284990D01*
X29366055Y17314773D01*
X29507096Y17373194D01*
X29634030Y17458008D01*
X29741978Y17565956D01*
X29826792Y17692890D01*
X29885213Y17833931D01*
X29914996Y17983659D01*
X29914996Y18136321D01*
X29885213Y18286049D01*
X29826792Y18427090D01*
X29741978Y18554024D01*
X29634030Y18661972D01*
X29507096Y18746786D01*
X29366055Y18805207D01*
X29216327Y18834990D01*
X29063665Y18834990D01*
X28913937Y18805207D01*
X28772896Y18746786D01*
X28645962Y18661972D01*
X28538014Y18554024D01*
X28453200Y18427090D01*
X28394779Y18286049D01*
X28364996Y18136321D01*
X12957624Y18136321D01*
X12975000Y18223673D01*
X12975000Y18376335D01*
X12945217Y18526063D01*
X12886796Y18667104D01*
X12801982Y18794038D01*
X12694034Y18901986D01*
X12657599Y18926331D01*
X39125000Y18926331D01*
X39125000Y18773669D01*
X39154783Y18623941D01*
X39213204Y18482900D01*
X39298018Y18355966D01*
X39405966Y18248018D01*
X39532900Y18163204D01*
X39673941Y18104783D01*
X39823669Y18075000D01*
X39976331Y18075000D01*
X40126059Y18104783D01*
X40267100Y18163204D01*
X40394034Y18248018D01*
X40501982Y18355966D01*
X40586796Y18482900D01*
X40645217Y18623941D01*
X40675000Y18773669D01*
X40675000Y18926331D01*
X40645217Y19076059D01*
X40586796Y19217100D01*
X40501982Y19344034D01*
X40394034Y19451982D01*
X40267100Y19536796D01*
X40126059Y19595217D01*
X39976331Y19625000D01*
X39823669Y19625000D01*
X39673941Y19595217D01*
X39532900Y19536796D01*
X39405966Y19451982D01*
X39298018Y19344034D01*
X39213204Y19217100D01*
X39154783Y19076059D01*
X39125000Y18926331D01*
X12657599Y18926331D01*
X12567100Y18986800D01*
X12426059Y19045221D01*
X12276331Y19075004D01*
X12123669Y19075004D01*
X11973941Y19045221D01*
X11832900Y18986800D01*
X11705966Y18901986D01*
X11598018Y18794038D01*
X11513204Y18667104D01*
X11454783Y18526063D01*
X11425000Y18376335D01*
X4868457Y18376335D01*
X4897319Y18382076D01*
X5120255Y18474419D01*
X5320892Y18608481D01*
X5491519Y18779108D01*
X5625581Y18979745D01*
X5717924Y19202681D01*
X5765000Y19439348D01*
X5765000Y19680652D01*
X5717924Y19917319D01*
X5625581Y20140255D01*
X5491519Y20340892D01*
X5320892Y20511519D01*
X5120255Y20645581D01*
X4897319Y20737924D01*
X4660652Y20785000D01*
X4419348Y20785000D01*
X4182681Y20737924D01*
X3959745Y20645581D01*
X3759108Y20511519D01*
X3588481Y20340892D01*
X3454419Y20140255D01*
X3362076Y19917319D01*
X3315000Y19680652D01*
X3225000Y19680652D01*
X3177924Y19917319D01*
X3085581Y20140255D01*
X2951519Y20340892D01*
X2780892Y20511519D01*
X2580255Y20645581D01*
X2357319Y20737924D01*
X2120652Y20785000D01*
X1879348Y20785000D01*
X1642681Y20737924D01*
X1419745Y20645581D01*
X1219108Y20511519D01*
X1048481Y20340892D01*
X914419Y20140255D01*
X822076Y19917319D01*
X775000Y19680652D01*
X400000Y19680652D01*
X400000Y22950000D01*
X773186Y22950000D01*
X773186Y21250000D01*
X780426Y21176487D01*
X801869Y21105800D01*
X836691Y21040653D01*
X883552Y20983552D01*
X940653Y20936691D01*
X1005800Y20901869D01*
X1076487Y20880426D01*
X1150000Y20873186D01*
X2850000Y20873186D01*
X2923513Y20880426D01*
X2994200Y20901869D01*
X3059347Y20936691D01*
X3116448Y20983552D01*
X3163309Y21040653D01*
X3198131Y21105800D01*
X3219574Y21176487D01*
X3226814Y21250000D01*
X3226814Y22220652D01*
X3315000Y22220652D01*
X3315000Y21979348D01*
X3362076Y21742681D01*
X3454419Y21519745D01*
X3588481Y21319108D01*
X3759108Y21148481D01*
X3959745Y21014419D01*
X4182681Y20922076D01*
X4419348Y20875000D01*
X4660652Y20875000D01*
X4897319Y20922076D01*
X5120255Y21014419D01*
X5320892Y21148481D01*
X5491519Y21319108D01*
X5625581Y21519745D01*
X5717924Y21742681D01*
X5765000Y21979348D01*
X5765000Y22220652D01*
X5717924Y22457319D01*
X5625581Y22680255D01*
X5491519Y22880892D01*
X5320892Y23051519D01*
X5120255Y23185581D01*
X4897319Y23277924D01*
X4660652Y23325000D01*
X4419348Y23325000D01*
X4182681Y23277924D01*
X3959745Y23185581D01*
X3759108Y23051519D01*
X3588481Y22880892D01*
X3454419Y22680255D01*
X3362076Y22457319D01*
X3315000Y22220652D01*
X3226814Y22220652D01*
X3226814Y22950000D01*
X3219574Y23023513D01*
X3198131Y23094200D01*
X3163309Y23159347D01*
X3116448Y23216448D01*
X3059347Y23263309D01*
X2994200Y23298131D01*
X2923513Y23319574D01*
X2850000Y23326814D01*
X1150000Y23326814D01*
X1076487Y23319574D01*
X1005800Y23298131D01*
X940653Y23263309D01*
X883552Y23216448D01*
X836691Y23159347D01*
X801869Y23094200D01*
X780426Y23023513D01*
X773186Y22950000D01*
X400000Y22950000D01*
X400000Y24076331D01*
X14525000Y24076331D01*
X14525000Y23923669D01*
X14554783Y23773941D01*
X14613204Y23632900D01*
X14698018Y23505966D01*
X14805966Y23398018D01*
X14932900Y23313204D01*
X15073941Y23254783D01*
X15223669Y23225000D01*
X15376331Y23225000D01*
X15526059Y23254783D01*
X15667100Y23313204D01*
X15794034Y23398018D01*
X15901982Y23505966D01*
X15986796Y23632900D01*
X16045217Y23773941D01*
X16074188Y23919589D01*
X32038282Y23919589D01*
X32038282Y23582411D01*
X32104063Y23251710D01*
X32233095Y22940198D01*
X32420422Y22659844D01*
X32658844Y22421422D01*
X32939198Y22234095D01*
X33250710Y22105063D01*
X33581411Y22039282D01*
X33918589Y22039282D01*
X34249290Y22105063D01*
X34560802Y22234095D01*
X34841156Y22421422D01*
X35079578Y22659844D01*
X35266905Y22940198D01*
X35395937Y23251710D01*
X35461718Y23582411D01*
X35461718Y23919589D01*
X35395937Y24250290D01*
X35266905Y24561802D01*
X35079578Y24842156D01*
X34841156Y25080578D01*
X34560802Y25267905D01*
X34249290Y25396937D01*
X33918589Y25462718D01*
X33581411Y25462718D01*
X33250710Y25396937D01*
X32939198Y25267905D01*
X32658844Y25080578D01*
X32420422Y24842156D01*
X32233095Y24561802D01*
X32104063Y24250290D01*
X32038282Y23919589D01*
X16074188Y23919589D01*
X16075000Y23923669D01*
X16075000Y24076331D01*
X16045217Y24226059D01*
X15986796Y24367100D01*
X15901982Y24494034D01*
X15794034Y24601982D01*
X15667100Y24686796D01*
X15526059Y24745217D01*
X15376331Y24775000D01*
X15223669Y24775000D01*
X15073941Y24745217D01*
X14932900Y24686796D01*
X14805966Y24601982D01*
X14698018Y24494034D01*
X14613204Y24367100D01*
X14554783Y24226059D01*
X14525000Y24076331D01*
X400000Y24076331D01*
X400000Y25276331D01*
X11425000Y25276331D01*
X11425000Y25123669D01*
X11454783Y24973941D01*
X11513204Y24832900D01*
X11598018Y24705966D01*
X11705966Y24598018D01*
X11832900Y24513204D01*
X11973941Y24454783D01*
X12123669Y24425000D01*
X12276331Y24425000D01*
X12426059Y24454783D01*
X12567100Y24513204D01*
X12694034Y24598018D01*
X12801982Y24705966D01*
X12886796Y24832900D01*
X12945217Y24973941D01*
X12975000Y25123669D01*
X12975000Y25276331D01*
X12945217Y25426059D01*
X12886796Y25567100D01*
X12801982Y25694034D01*
X12694034Y25801982D01*
X12567100Y25886796D01*
X12471654Y25926331D01*
X38325000Y25926331D01*
X38325000Y25773669D01*
X38354783Y25623941D01*
X38413204Y25482900D01*
X38498018Y25355966D01*
X38605966Y25248018D01*
X38732900Y25163204D01*
X38873941Y25104783D01*
X39023669Y25075000D01*
X39176331Y25075000D01*
X39326059Y25104783D01*
X39467100Y25163204D01*
X39594034Y25248018D01*
X39701982Y25355966D01*
X39786796Y25482900D01*
X39845217Y25623941D01*
X39875000Y25773669D01*
X39875000Y25926331D01*
X39845217Y26076059D01*
X39786796Y26217100D01*
X39701982Y26344034D01*
X39594034Y26451982D01*
X39467100Y26536796D01*
X39326059Y26595217D01*
X39176331Y26625000D01*
X39023669Y26625000D01*
X38873941Y26595217D01*
X38732900Y26536796D01*
X38605966Y26451982D01*
X38498018Y26344034D01*
X38413204Y26217100D01*
X38354783Y26076059D01*
X38325000Y25926331D01*
X12471654Y25926331D01*
X12426059Y25945217D01*
X12276331Y25975000D01*
X12123669Y25975000D01*
X11973941Y25945217D01*
X11832900Y25886796D01*
X11705966Y25801982D01*
X11598018Y25694034D01*
X11513204Y25567100D01*
X11454783Y25426059D01*
X11425000Y25276331D01*
X400000Y25276331D01*
X400000Y28495268D01*
X1238096Y28495268D01*
X1480749Y28165527D01*
X1918552Y27909380D01*
X2397916Y27743567D01*
X2900417Y27674458D01*
X3406745Y27704711D01*
X3897442Y27833163D01*
X4353650Y28054876D01*
X4519251Y28165527D01*
X4761904Y28495268D01*
X3000000Y30257172D01*
X1238096Y28495268D01*
X400000Y28495268D01*
X400000Y30359583D01*
X414458Y30359583D01*
X444711Y29853255D01*
X573163Y29362558D01*
X794876Y28906350D01*
X905527Y28740749D01*
X1235268Y28498096D01*
X2997172Y30260000D01*
X3002828Y30260000D01*
X4764732Y28498096D01*
X5094473Y28740749D01*
X5173798Y28876331D01*
X5325002Y28876331D01*
X5325002Y28723669D01*
X5354785Y28573941D01*
X5413206Y28432900D01*
X5498020Y28305966D01*
X5605968Y28198018D01*
X5732902Y28113204D01*
X5873943Y28054783D01*
X6023671Y28025000D01*
X6176333Y28025000D01*
X6326061Y28054783D01*
X6467102Y28113204D01*
X6594036Y28198018D01*
X6701984Y28305966D01*
X6786798Y28432900D01*
X6845219Y28573941D01*
X6875002Y28723669D01*
X6875002Y28876331D01*
X6845219Y29026059D01*
X6786798Y29167100D01*
X6701984Y29294034D01*
X6594036Y29401982D01*
X6467102Y29486796D01*
X6326061Y29545217D01*
X6176333Y29575000D01*
X6023671Y29575000D01*
X5873943Y29545217D01*
X5732902Y29486796D01*
X5605968Y29401982D01*
X5498020Y29294034D01*
X5413206Y29167100D01*
X5354785Y29026059D01*
X5325002Y28876331D01*
X5173798Y28876331D01*
X5350620Y29178552D01*
X5516433Y29657916D01*
X5518965Y29676331D01*
X14525000Y29676331D01*
X14525000Y29523669D01*
X14554783Y29373941D01*
X14613204Y29232900D01*
X14698018Y29105966D01*
X14753984Y29050000D01*
X14698018Y28994034D01*
X14613204Y28867100D01*
X14554783Y28726059D01*
X14525000Y28576331D01*
X14525000Y28423669D01*
X14554783Y28273941D01*
X14613204Y28132900D01*
X14698018Y28005966D01*
X14805966Y27898018D01*
X14932900Y27813204D01*
X15073941Y27754783D01*
X15223669Y27725000D01*
X15376331Y27725000D01*
X15526059Y27754783D01*
X15667100Y27813204D01*
X15794034Y27898018D01*
X15901982Y28005966D01*
X15986796Y28132900D01*
X16045217Y28273941D01*
X16075000Y28423669D01*
X16075000Y28526331D01*
X27875000Y28526331D01*
X27875000Y28373669D01*
X27904783Y28223941D01*
X27963204Y28082900D01*
X28048018Y27955966D01*
X28155966Y27848018D01*
X28282900Y27763204D01*
X28423941Y27704783D01*
X28573669Y27675000D01*
X28726331Y27675000D01*
X28876059Y27704783D01*
X29017100Y27763204D01*
X29144034Y27848018D01*
X29251982Y27955966D01*
X29336796Y28082900D01*
X29395217Y28223941D01*
X29425000Y28373669D01*
X29425000Y28526331D01*
X29395217Y28676059D01*
X29336796Y28817100D01*
X29251982Y28944034D01*
X29144034Y29051982D01*
X29017100Y29136796D01*
X28876059Y29195217D01*
X28726331Y29225000D01*
X28573669Y29225000D01*
X28423941Y29195217D01*
X28282900Y29136796D01*
X28155966Y29051982D01*
X28048018Y28944034D01*
X27963204Y28817100D01*
X27904783Y28676059D01*
X27875000Y28526331D01*
X16075000Y28526331D01*
X16075000Y28576331D01*
X16045217Y28726059D01*
X15986796Y28867100D01*
X15901982Y28994034D01*
X15846016Y29050000D01*
X15901982Y29105966D01*
X15986796Y29232900D01*
X16045217Y29373941D01*
X16075000Y29523669D01*
X16075000Y29676331D01*
X16045217Y29826059D01*
X15986796Y29967100D01*
X15901982Y30094034D01*
X15794034Y30201982D01*
X15667100Y30286796D01*
X15526059Y30345217D01*
X15376331Y30375000D01*
X15223669Y30375000D01*
X15073941Y30345217D01*
X14932900Y30286796D01*
X14805966Y30201982D01*
X14698018Y30094034D01*
X14613204Y29967100D01*
X14554783Y29826059D01*
X14525000Y29676331D01*
X5518965Y29676331D01*
X5585542Y30160417D01*
X5560692Y30576331D01*
X32125000Y30576331D01*
X32125000Y30423669D01*
X32154783Y30273941D01*
X32213204Y30132900D01*
X32298018Y30005966D01*
X32405966Y29898018D01*
X32532900Y29813204D01*
X32673941Y29754783D01*
X32823669Y29725000D01*
X32976331Y29725000D01*
X33126059Y29754783D01*
X33267100Y29813204D01*
X33394034Y29898018D01*
X33501982Y30005966D01*
X33586796Y30132900D01*
X33645217Y30273941D01*
X33675000Y30423669D01*
X33675000Y30576331D01*
X33670028Y30601331D01*
X33750000Y30601331D01*
X33750000Y30448669D01*
X33779783Y30298941D01*
X33838204Y30157900D01*
X33923018Y30030966D01*
X34030966Y29923018D01*
X34157900Y29838204D01*
X34298941Y29779783D01*
X34448669Y29750000D01*
X34601331Y29750000D01*
X34751059Y29779783D01*
X34892100Y29838204D01*
X35019034Y29923018D01*
X35126982Y30030966D01*
X35211796Y30157900D01*
X35270217Y30298941D01*
X35282279Y30359583D01*
X41614458Y30359583D01*
X41644711Y29853255D01*
X41773163Y29362558D01*
X41994876Y28906350D01*
X42105527Y28740749D01*
X42435268Y28498096D01*
X44197172Y30260000D01*
X44202828Y30260000D01*
X45964732Y28498096D01*
X46294473Y28740749D01*
X46550620Y29178552D01*
X46716433Y29657916D01*
X46785542Y30160417D01*
X46755289Y30666745D01*
X46626837Y31157442D01*
X46405124Y31613650D01*
X46294473Y31779251D01*
X45964732Y32021904D01*
X44202828Y30260000D01*
X44197172Y30260000D01*
X42435268Y32021904D01*
X42105527Y31779251D01*
X41849380Y31341448D01*
X41683567Y30862084D01*
X41614458Y30359583D01*
X35282279Y30359583D01*
X35300000Y30448669D01*
X35300000Y30601331D01*
X35270217Y30751059D01*
X35211796Y30892100D01*
X35126982Y31019034D01*
X35019034Y31126982D01*
X34892100Y31211796D01*
X34751059Y31270217D01*
X34601331Y31300000D01*
X34448669Y31300000D01*
X34298941Y31270217D01*
X34157900Y31211796D01*
X34030966Y31126982D01*
X33923018Y31019034D01*
X33838204Y30892100D01*
X33779783Y30751059D01*
X33750000Y30601331D01*
X33670028Y30601331D01*
X33645217Y30726059D01*
X33586796Y30867100D01*
X33501982Y30994034D01*
X33394034Y31101982D01*
X33267100Y31186796D01*
X33126059Y31245217D01*
X32976331Y31275000D01*
X32823669Y31275000D01*
X32673941Y31245217D01*
X32532900Y31186796D01*
X32405966Y31101982D01*
X32298018Y30994034D01*
X32213204Y30867100D01*
X32154783Y30726059D01*
X32125000Y30576331D01*
X5560692Y30576331D01*
X5555289Y30666745D01*
X5426837Y31157442D01*
X5205124Y31613650D01*
X5094473Y31779251D01*
X4894607Y31926331D01*
X10725000Y31926331D01*
X10725000Y31773669D01*
X10754783Y31623941D01*
X10813204Y31482900D01*
X10898018Y31355966D01*
X11005966Y31248018D01*
X11132900Y31163204D01*
X11273941Y31104783D01*
X11423669Y31075000D01*
X11576331Y31075000D01*
X11726059Y31104783D01*
X11867100Y31163204D01*
X11994034Y31248018D01*
X12101982Y31355966D01*
X12186796Y31482900D01*
X12245217Y31623941D01*
X12275000Y31773669D01*
X12275000Y31926331D01*
X12325000Y31926331D01*
X12325000Y31773669D01*
X12354783Y31623941D01*
X12413204Y31482900D01*
X12498018Y31355966D01*
X12605966Y31248018D01*
X12732900Y31163204D01*
X12873941Y31104783D01*
X13023669Y31075000D01*
X13176331Y31075000D01*
X13326059Y31104783D01*
X13467100Y31163204D01*
X13594034Y31248018D01*
X13672353Y31326337D01*
X38325000Y31326337D01*
X38325000Y31173675D01*
X38354783Y31023947D01*
X38413204Y30882906D01*
X38498018Y30755972D01*
X38605966Y30648024D01*
X38732900Y30563210D01*
X38873941Y30504789D01*
X39023669Y30475006D01*
X39176331Y30475006D01*
X39326059Y30504789D01*
X39467100Y30563210D01*
X39594034Y30648024D01*
X39701982Y30755972D01*
X39786796Y30882906D01*
X39845217Y31023947D01*
X39875000Y31173675D01*
X39875000Y31326337D01*
X39845217Y31476065D01*
X39786796Y31617106D01*
X39701982Y31744040D01*
X39594034Y31851988D01*
X39467100Y31936802D01*
X39326059Y31995223D01*
X39177709Y32024732D01*
X42438096Y32024732D01*
X44200000Y30262828D01*
X45961904Y32024732D01*
X45719251Y32354473D01*
X45281448Y32610620D01*
X44802084Y32776433D01*
X44299583Y32845542D01*
X43793255Y32815289D01*
X43302558Y32686837D01*
X42846350Y32465124D01*
X42680749Y32354473D01*
X42438096Y32024732D01*
X39177709Y32024732D01*
X39176331Y32025006D01*
X39023669Y32025006D01*
X38873941Y31995223D01*
X38732900Y31936802D01*
X38605966Y31851988D01*
X38498018Y31744040D01*
X38413204Y31617106D01*
X38354783Y31476065D01*
X38325000Y31326337D01*
X13672353Y31326337D01*
X13701982Y31355966D01*
X13786796Y31482900D01*
X13845217Y31623941D01*
X13875000Y31773669D01*
X13875000Y31926331D01*
X13845217Y32076059D01*
X13786796Y32217100D01*
X13701982Y32344034D01*
X13594034Y32451982D01*
X13467100Y32536796D01*
X13326059Y32595217D01*
X13176331Y32625000D01*
X13023669Y32625000D01*
X12873941Y32595217D01*
X12732900Y32536796D01*
X12605966Y32451982D01*
X12498018Y32344034D01*
X12413204Y32217100D01*
X12354783Y32076059D01*
X12325000Y31926331D01*
X12275000Y31926331D01*
X12245217Y32076059D01*
X12186796Y32217100D01*
X12101982Y32344034D01*
X11994034Y32451982D01*
X11867100Y32536796D01*
X11726059Y32595217D01*
X11576331Y32625000D01*
X11423669Y32625000D01*
X11273941Y32595217D01*
X11132900Y32536796D01*
X11005966Y32451982D01*
X10898018Y32344034D01*
X10813204Y32217100D01*
X10754783Y32076059D01*
X10725000Y31926331D01*
X4894607Y31926331D01*
X4764732Y32021904D01*
X3002828Y30260000D01*
X2997172Y30260000D01*
X1235268Y32021904D01*
X905527Y31779251D01*
X649380Y31341448D01*
X483567Y30862084D01*
X414458Y30359583D01*
X400000Y30359583D01*
X400000Y32024732D01*
X1238096Y32024732D01*
X3000000Y30262828D01*
X4761904Y32024732D01*
X4519251Y32354473D01*
X4081448Y32610620D01*
X3602084Y32776433D01*
X3099583Y32845542D01*
X2593255Y32815289D01*
X2102558Y32686837D01*
X1646350Y32465124D01*
X1480749Y32354473D01*
X1238096Y32024732D01*
X400000Y32024732D01*
X400000Y32240435D01*
X413309Y32376167D01*
X447047Y32487913D01*
X501843Y32590971D01*
X575620Y32681430D01*
X665556Y32755832D01*
X768236Y32811350D01*
X879735Y32845865D01*
X1014214Y32860000D01*
X46180435Y32860000D01*
X46316167Y32846691D01*
G04 #@! TA.AperFunction,Conductor*
D18*
G36*
X46316167Y32846691D02*
G01*
X46427913Y32812953D01*
X46530971Y32758157D01*
X46621430Y32684380D01*
X46695832Y32594444D01*
X46751350Y32491764D01*
X46785865Y32380265D01*
X46800001Y32245776D01*
X46800001Y27825000D01*
X45066259Y27825000D01*
X45097442Y27833163D01*
X45553650Y28054876D01*
X45719251Y28165527D01*
X45961904Y28495268D01*
X44200000Y30257172D01*
X42438096Y28495268D01*
X42680749Y28165527D01*
X43118552Y27909380D01*
X43362494Y27825000D01*
X41800000Y27825000D01*
X41775614Y27822598D01*
X41752165Y27815485D01*
X41730554Y27803934D01*
X41711612Y27788388D01*
X41696066Y27769446D01*
X41684515Y27747835D01*
X41677402Y27724386D01*
X41675000Y27700000D01*
X41675000Y24500000D01*
X41677402Y24475614D01*
X41684515Y24452165D01*
X41696066Y24430554D01*
X41711612Y24411612D01*
X41730554Y24396066D01*
X41752165Y24384515D01*
X41775614Y24377402D01*
X41800000Y24375000D01*
X42100000Y24375000D01*
X42124386Y24377402D01*
X42147835Y24384515D01*
X42169446Y24396066D01*
X42188388Y24411612D01*
X42203934Y24430554D01*
X42215485Y24452165D01*
X42222598Y24475614D01*
X42225000Y24500000D01*
X42225000Y27275000D01*
X46800001Y27275000D01*
X46800001Y18425000D01*
X42225000Y18425000D01*
X42225000Y23800000D01*
X42222598Y23824386D01*
X42215485Y23847835D01*
X42203934Y23869446D01*
X42188388Y23888388D01*
X42169446Y23903934D01*
X42147835Y23915485D01*
X42124386Y23922598D01*
X42100000Y23925000D01*
X41800000Y23925000D01*
X41775614Y23922598D01*
X41752165Y23915485D01*
X41730554Y23903934D01*
X41711612Y23888388D01*
X41696066Y23869446D01*
X41684515Y23847835D01*
X41677402Y23824386D01*
X41675000Y23800000D01*
X41675000Y18000000D01*
X41677402Y17975614D01*
X41684515Y17952165D01*
X41696066Y17930554D01*
X41711612Y17911612D01*
X41730554Y17896066D01*
X41752165Y17884515D01*
X41775614Y17877402D01*
X41800000Y17875000D01*
X46800001Y17875000D01*
X46800000Y14945953D01*
X46753402Y15123563D01*
X46624102Y15389244D01*
X46560572Y15484325D01*
X46340915Y15598086D01*
X45342828Y14600000D01*
X46340915Y13601914D01*
X46560572Y13715675D01*
X46709642Y13970788D01*
X46800000Y14232480D01*
X46800000Y9865954D01*
X46753402Y10043563D01*
X46624102Y10309244D01*
X46560572Y10404325D01*
X46340915Y10518086D01*
X45342828Y9520000D01*
X46340915Y8521914D01*
X46560572Y8635675D01*
X46709642Y8890788D01*
X46800000Y9152480D01*
X46800000Y1079564D01*
X46786691Y943833D01*
X46752953Y832088D01*
X46698156Y729028D01*
X46624380Y638570D01*
X46534444Y564168D01*
X46431764Y508650D01*
X46320265Y474135D01*
X46185785Y460000D01*
X1019564Y460000D01*
X883833Y473309D01*
X772088Y507047D01*
X669028Y561844D01*
X578570Y635620D01*
X504168Y725556D01*
X448650Y828236D01*
X414135Y939735D01*
X400000Y1074215D01*
X400000Y1295268D01*
X1238096Y1295268D01*
X1480749Y965527D01*
X1918552Y709380D01*
X2397916Y543567D01*
X2900417Y474458D01*
X3406745Y504711D01*
X3897442Y633163D01*
X4353650Y854876D01*
X4519251Y965527D01*
X4761904Y1295268D01*
X3000000Y3057172D01*
X1238096Y1295268D01*
X400000Y1295268D01*
X400000Y3159583D01*
X414458Y3159583D01*
X444711Y2653255D01*
X573163Y2162558D01*
X794876Y1706350D01*
X905527Y1540749D01*
X1235268Y1298096D01*
X2997172Y3060000D01*
X3002828Y3060000D01*
X4764732Y1298096D01*
X4847609Y1359085D01*
X13261914Y1359085D01*
X13375675Y1139428D01*
X13630788Y990358D01*
X13910082Y893922D01*
X14202823Y853827D01*
X14497762Y871614D01*
X14783563Y946598D01*
X15049244Y1075898D01*
X15144325Y1139428D01*
X15258086Y1359085D01*
X18341914Y1359085D01*
X18455675Y1139428D01*
X18710788Y990358D01*
X18990082Y893922D01*
X19282823Y853827D01*
X19577762Y871614D01*
X19863563Y946598D01*
X20129244Y1075898D01*
X20224325Y1139428D01*
X20305034Y1295268D01*
X42438096Y1295268D01*
X42680749Y965527D01*
X43118552Y709380D01*
X43597916Y543567D01*
X44100417Y474458D01*
X44606745Y504711D01*
X45097442Y633163D01*
X45553650Y854876D01*
X45719251Y965527D01*
X45961904Y1295268D01*
X44200000Y3057172D01*
X42438096Y1295268D01*
X20305034Y1295268D01*
X20338086Y1359085D01*
X19340000Y2357172D01*
X18341914Y1359085D01*
X15258086Y1359085D01*
X14260000Y2357172D01*
X13261914Y1359085D01*
X4847609Y1359085D01*
X5094473Y1540749D01*
X5350620Y1978552D01*
X5502341Y2417177D01*
X12753827Y2417177D01*
X12771614Y2122238D01*
X12846598Y1836437D01*
X12975898Y1570756D01*
X13039428Y1475675D01*
X13259085Y1361914D01*
X14257172Y2360000D01*
X14262828Y2360000D01*
X15260915Y1361914D01*
X15480572Y1475675D01*
X15629642Y1730788D01*
X15726078Y2010082D01*
X15766173Y2302823D01*
X15759277Y2417177D01*
X17833827Y2417177D01*
X17851614Y2122238D01*
X17926598Y1836437D01*
X18055898Y1570756D01*
X18119428Y1475675D01*
X18339085Y1361914D01*
X19337172Y2360000D01*
X19342828Y2360000D01*
X20340915Y1361914D01*
X20560572Y1475675D01*
X20709642Y1730788D01*
X20806078Y2010082D01*
X20846173Y2302823D01*
X20828386Y2597762D01*
X20768418Y2826331D01*
X27825000Y2826331D01*
X27825000Y2673669D01*
X27854783Y2523941D01*
X27913204Y2382900D01*
X27998018Y2255966D01*
X28105966Y2148018D01*
X28232900Y2063204D01*
X28373941Y2004783D01*
X28523669Y1975000D01*
X28676331Y1975000D01*
X28826059Y2004783D01*
X28967100Y2063204D01*
X29094034Y2148018D01*
X29201982Y2255966D01*
X29286796Y2382900D01*
X29345217Y2523941D01*
X29375000Y2673669D01*
X29375000Y2826331D01*
X29345217Y2976059D01*
X29286796Y3117100D01*
X29247220Y3176331D01*
X31875000Y3176331D01*
X31875000Y3023669D01*
X31904783Y2873941D01*
X31963204Y2732900D01*
X32048018Y2605966D01*
X32155966Y2498018D01*
X32282900Y2413204D01*
X32423941Y2354783D01*
X32573669Y2325000D01*
X32726331Y2325000D01*
X32876059Y2354783D01*
X33017100Y2413204D01*
X33144034Y2498018D01*
X33251982Y2605966D01*
X33336796Y2732900D01*
X33395217Y2873941D01*
X33425000Y3023669D01*
X33425000Y3176331D01*
X33395217Y3326059D01*
X33384750Y3351331D01*
X34425000Y3351331D01*
X34425000Y3198669D01*
X34454783Y3048941D01*
X34513204Y2907900D01*
X34598018Y2780966D01*
X34705966Y2673018D01*
X34832900Y2588204D01*
X34973941Y2529783D01*
X35123669Y2500000D01*
X35276331Y2500000D01*
X35426059Y2529783D01*
X35567100Y2588204D01*
X35694034Y2673018D01*
X35801982Y2780966D01*
X35886796Y2907900D01*
X35945217Y3048941D01*
X35967225Y3159583D01*
X41614458Y3159583D01*
X41644711Y2653255D01*
X41773163Y2162558D01*
X41994876Y1706350D01*
X42105527Y1540749D01*
X42435268Y1298096D01*
X44197172Y3060000D01*
X44202828Y3060000D01*
X45964732Y1298096D01*
X46294473Y1540749D01*
X46550620Y1978552D01*
X46716433Y2457916D01*
X46785542Y2960417D01*
X46755289Y3466745D01*
X46626837Y3957442D01*
X46405124Y4413650D01*
X46294473Y4579251D01*
X45964732Y4821904D01*
X44202828Y3060000D01*
X44197172Y3060000D01*
X42435268Y4821904D01*
X42105527Y4579251D01*
X41849380Y4141448D01*
X41683567Y3662084D01*
X41614458Y3159583D01*
X35967225Y3159583D01*
X35975000Y3198669D01*
X35975000Y3351331D01*
X35945217Y3501059D01*
X35886796Y3642100D01*
X35801982Y3769034D01*
X35694034Y3876982D01*
X35567100Y3961796D01*
X35426059Y4020217D01*
X35276331Y4050000D01*
X35123669Y4050000D01*
X34973941Y4020217D01*
X34832900Y3961796D01*
X34705966Y3876982D01*
X34598018Y3769034D01*
X34513204Y3642100D01*
X34454783Y3501059D01*
X34425000Y3351331D01*
X33384750Y3351331D01*
X33336796Y3467100D01*
X33251982Y3594034D01*
X33144034Y3701982D01*
X33017100Y3786796D01*
X32876059Y3845217D01*
X32726331Y3875000D01*
X32573669Y3875000D01*
X32423941Y3845217D01*
X32282900Y3786796D01*
X32155966Y3701982D01*
X32048018Y3594034D01*
X31963204Y3467100D01*
X31904783Y3326059D01*
X31875000Y3176331D01*
X29247220Y3176331D01*
X29201982Y3244034D01*
X29094034Y3351982D01*
X28967100Y3436796D01*
X28826059Y3495217D01*
X28676331Y3525000D01*
X28523669Y3525000D01*
X28373941Y3495217D01*
X28232900Y3436796D01*
X28105966Y3351982D01*
X27998018Y3244034D01*
X27913204Y3117100D01*
X27854783Y2976059D01*
X27825000Y2826331D01*
X20768418Y2826331D01*
X20753402Y2883563D01*
X20624102Y3149244D01*
X20560572Y3244325D01*
X20340915Y3358086D01*
X19342828Y2360000D01*
X19337172Y2360000D01*
X18339085Y3358086D01*
X18119428Y3244325D01*
X17970358Y2989212D01*
X17873922Y2709918D01*
X17833827Y2417177D01*
X15759277Y2417177D01*
X15748386Y2597762D01*
X15673402Y2883563D01*
X15544102Y3149244D01*
X15480572Y3244325D01*
X15260915Y3358086D01*
X14262828Y2360000D01*
X14257172Y2360000D01*
X13259085Y3358086D01*
X13039428Y3244325D01*
X12890358Y2989212D01*
X12793922Y2709918D01*
X12753827Y2417177D01*
X5502341Y2417177D01*
X5516433Y2457916D01*
X5585542Y2960417D01*
X5561613Y3360915D01*
X13261914Y3360915D01*
X14260000Y2362828D01*
X15258086Y3360915D01*
X15144325Y3580572D01*
X14889212Y3729642D01*
X14609918Y3826078D01*
X14317177Y3866173D01*
X14022238Y3848386D01*
X13736437Y3773402D01*
X13470756Y3644102D01*
X13375675Y3580572D01*
X13261914Y3360915D01*
X5561613Y3360915D01*
X5555289Y3466745D01*
X5426837Y3957442D01*
X5205124Y4413650D01*
X5094473Y4579251D01*
X4764732Y4821904D01*
X3002828Y3060000D01*
X2997172Y3060000D01*
X1235268Y4821904D01*
X905527Y4579251D01*
X649380Y4141448D01*
X483567Y3662084D01*
X414458Y3159583D01*
X400000Y3159583D01*
X400000Y4824732D01*
X1238096Y4824732D01*
X3000000Y3062828D01*
X4761904Y4824732D01*
X4576054Y5077284D01*
X15000000Y5077284D01*
X15000000Y4722716D01*
X15069173Y4374959D01*
X15204861Y4047380D01*
X15401849Y3752567D01*
X15652567Y3501849D01*
X15947380Y3304861D01*
X16274959Y3169173D01*
X16622716Y3100000D01*
X16977284Y3100000D01*
X17325041Y3169173D01*
X17652620Y3304861D01*
X17736510Y3360915D01*
X18341914Y3360915D01*
X19340000Y2362828D01*
X20338086Y3360915D01*
X20224325Y3580572D01*
X19969212Y3729642D01*
X19689918Y3826078D01*
X19397177Y3866173D01*
X19102238Y3848386D01*
X18816437Y3773402D01*
X18550756Y3644102D01*
X18455675Y3580572D01*
X18341914Y3360915D01*
X17736510Y3360915D01*
X17947433Y3501849D01*
X18198151Y3752567D01*
X18395139Y4047380D01*
X18530827Y4374959D01*
X18600000Y4722716D01*
X18600000Y4824732D01*
X42438096Y4824732D01*
X44200000Y3062828D01*
X45961904Y4824732D01*
X45719251Y5154473D01*
X45281448Y5410620D01*
X44802084Y5576433D01*
X44299583Y5645542D01*
X43793255Y5615289D01*
X43302558Y5486837D01*
X42846350Y5265124D01*
X42680749Y5154473D01*
X42438096Y4824732D01*
X18600000Y4824732D01*
X18600000Y5077284D01*
X18530827Y5425041D01*
X18395139Y5752620D01*
X18312478Y5876331D01*
X27825000Y5876331D01*
X27825000Y5723669D01*
X27854783Y5573941D01*
X27913204Y5432900D01*
X27998018Y5305966D01*
X28105966Y5198018D01*
X28232900Y5113204D01*
X28373941Y5054783D01*
X28523669Y5025000D01*
X28676331Y5025000D01*
X28826059Y5054783D01*
X28967100Y5113204D01*
X29094034Y5198018D01*
X29201982Y5305966D01*
X29286796Y5432900D01*
X29345217Y5573941D01*
X29375000Y5723669D01*
X29375000Y5876331D01*
X29345217Y6026059D01*
X29286796Y6167100D01*
X29201982Y6294034D01*
X29094034Y6401982D01*
X28967100Y6486796D01*
X28826059Y6545217D01*
X28676331Y6575000D01*
X28523669Y6575000D01*
X28373941Y6545217D01*
X28232900Y6486796D01*
X28105966Y6401982D01*
X27998018Y6294034D01*
X27913204Y6167100D01*
X27854783Y6026059D01*
X27825000Y5876331D01*
X18312478Y5876331D01*
X18198151Y6047433D01*
X17947433Y6298151D01*
X17736511Y6439085D01*
X18341914Y6439085D01*
X18455675Y6219428D01*
X18710788Y6070358D01*
X18990082Y5973922D01*
X19282823Y5933827D01*
X19577762Y5951614D01*
X19863563Y6026598D01*
X20129244Y6155898D01*
X20224325Y6219428D01*
X20338086Y6439085D01*
X19340000Y7437172D01*
X18341914Y6439085D01*
X17736511Y6439085D01*
X17652620Y6495139D01*
X17325041Y6630827D01*
X16977284Y6700000D01*
X16622716Y6700000D01*
X16274959Y6630827D01*
X15947380Y6495139D01*
X15652567Y6298151D01*
X15401849Y6047433D01*
X15204861Y5752620D01*
X15069173Y5425041D01*
X15000000Y5077284D01*
X4576054Y5077284D01*
X4519251Y5154473D01*
X4081448Y5410620D01*
X3602084Y5576433D01*
X3099583Y5645542D01*
X2593255Y5615289D01*
X2102558Y5486837D01*
X1646350Y5265124D01*
X1480749Y5154473D01*
X1238096Y4824732D01*
X400000Y4824732D01*
X400000Y6439085D01*
X13261914Y6439085D01*
X13375675Y6219428D01*
X13630788Y6070358D01*
X13910082Y5973922D01*
X14202823Y5933827D01*
X14497762Y5951614D01*
X14783563Y6026598D01*
X15049244Y6155898D01*
X15144325Y6219428D01*
X15258086Y6439085D01*
X14260000Y7437172D01*
X13261914Y6439085D01*
X400000Y6439085D01*
X400000Y7497177D01*
X12753827Y7497177D01*
X12771614Y7202238D01*
X12846598Y6916437D01*
X12975898Y6650756D01*
X13039428Y6555675D01*
X13259085Y6441914D01*
X14257172Y7440000D01*
X14262828Y7440000D01*
X15260915Y6441914D01*
X15480572Y6555675D01*
X15629642Y6810788D01*
X15726078Y7090082D01*
X15766173Y7382823D01*
X15759277Y7497177D01*
X17833827Y7497177D01*
X17851614Y7202238D01*
X17926598Y6916437D01*
X18055898Y6650756D01*
X18119428Y6555675D01*
X18339085Y6441914D01*
X19337172Y7440000D01*
X19342828Y7440000D01*
X20340915Y6441914D01*
X20560572Y6555675D01*
X20709642Y6810788D01*
X20806078Y7090082D01*
X20846173Y7382823D01*
X20828386Y7677762D01*
X20753402Y7963563D01*
X20649854Y8176331D01*
X30325000Y8176331D01*
X30325000Y8023669D01*
X30354783Y7873941D01*
X30413204Y7732900D01*
X30498018Y7605966D01*
X30605966Y7498018D01*
X30732900Y7413204D01*
X30873941Y7354783D01*
X31023669Y7325000D01*
X31176331Y7325000D01*
X31326059Y7354783D01*
X31467100Y7413204D01*
X31594034Y7498018D01*
X31701982Y7605966D01*
X31786796Y7732900D01*
X31845217Y7873941D01*
X31875000Y8023669D01*
X31875000Y8176331D01*
X31845217Y8326059D01*
X31786796Y8467100D01*
X31701982Y8594034D01*
X31594034Y8701982D01*
X31467100Y8786796D01*
X31326059Y8845217D01*
X31176331Y8875000D01*
X31023669Y8875000D01*
X30873941Y8845217D01*
X30732900Y8786796D01*
X30605966Y8701982D01*
X30498018Y8594034D01*
X30413204Y8467100D01*
X30354783Y8326059D01*
X30325000Y8176331D01*
X20649854Y8176331D01*
X20624102Y8229244D01*
X20560572Y8324325D01*
X20340915Y8438086D01*
X19342828Y7440000D01*
X19337172Y7440000D01*
X18339085Y8438086D01*
X18119428Y8324325D01*
X17970358Y8069212D01*
X17873922Y7789918D01*
X17833827Y7497177D01*
X15759277Y7497177D01*
X15748386Y7677762D01*
X15673402Y7963563D01*
X15544102Y8229244D01*
X15480572Y8324325D01*
X15260915Y8438086D01*
X14262828Y7440000D01*
X14257172Y7440000D01*
X13259085Y8438086D01*
X13039428Y8324325D01*
X12890358Y8069212D01*
X12793922Y7789918D01*
X12753827Y7497177D01*
X400000Y7497177D01*
X400000Y9520652D01*
X775000Y9520652D01*
X775000Y9279348D01*
X822076Y9042681D01*
X914419Y8819745D01*
X1048481Y8619108D01*
X1219108Y8448481D01*
X1419745Y8314419D01*
X1642681Y8222076D01*
X1879348Y8175000D01*
X2120652Y8175000D01*
X2357319Y8222076D01*
X2580255Y8314419D01*
X2780892Y8448481D01*
X2951519Y8619108D01*
X3085581Y8819745D01*
X3177924Y9042681D01*
X3210488Y9206393D01*
X3330397Y9206393D01*
X3348382Y9115975D01*
X3426689Y8888959D01*
X3547780Y8681582D01*
X3707002Y8501814D01*
X3898235Y8356563D01*
X4114131Y8251410D01*
X4346393Y8190397D01*
X4538000Y8268752D01*
X4538000Y9398000D01*
X4542000Y9398000D01*
X4542000Y8268752D01*
X4733607Y8190397D01*
X4965869Y8251410D01*
X5181765Y8356563D01*
X5292820Y8440915D01*
X13261914Y8440915D01*
X14260000Y7442828D01*
X15258086Y8440915D01*
X18341914Y8440915D01*
X19340000Y7442828D01*
X20338086Y8440915D01*
X20224325Y8660572D01*
X19969212Y8809642D01*
X19689918Y8906078D01*
X19397177Y8946173D01*
X19102238Y8928386D01*
X18816437Y8853402D01*
X18550756Y8724102D01*
X18455675Y8660572D01*
X18341914Y8440915D01*
X15258086Y8440915D01*
X15144325Y8660572D01*
X14889212Y8809642D01*
X14609918Y8906078D01*
X14317177Y8946173D01*
X14022238Y8928386D01*
X13736437Y8853402D01*
X13470756Y8724102D01*
X13375675Y8660572D01*
X13261914Y8440915D01*
X5292820Y8440915D01*
X5372998Y8501814D01*
X5532220Y8681582D01*
X5653311Y8888959D01*
X5731618Y9115975D01*
X5749603Y9206393D01*
X5671248Y9398000D01*
X4542000Y9398000D01*
X4538000Y9398000D01*
X3408752Y9398000D01*
X3330397Y9206393D01*
X3210488Y9206393D01*
X3225000Y9279348D01*
X3225000Y9520652D01*
X3210489Y9593607D01*
X3330397Y9593607D01*
X3408752Y9402000D01*
X4538000Y9402000D01*
X4538000Y10531248D01*
X4542000Y10531248D01*
X4542000Y9402000D01*
X5671248Y9402000D01*
X5749603Y9593607D01*
X5731618Y9684025D01*
X5653311Y9911041D01*
X5532220Y10118418D01*
X5456784Y10203589D01*
X32038282Y10203589D01*
X32038282Y9866411D01*
X32104063Y9535710D01*
X32233095Y9224198D01*
X32420422Y8943844D01*
X32658844Y8705422D01*
X32939198Y8518095D01*
X33250710Y8389063D01*
X33581411Y8323282D01*
X33918589Y8323282D01*
X34249290Y8389063D01*
X34560802Y8518095D01*
X34562283Y8519085D01*
X39261914Y8519085D01*
X39375675Y8299428D01*
X39630788Y8150358D01*
X39910082Y8053922D01*
X40202823Y8013827D01*
X40497762Y8031614D01*
X40783563Y8106598D01*
X41049244Y8235898D01*
X41144325Y8299428D01*
X41258086Y8519085D01*
X44341914Y8519085D01*
X44455675Y8299428D01*
X44710788Y8150358D01*
X44990082Y8053922D01*
X45282823Y8013827D01*
X45577762Y8031614D01*
X45863563Y8106598D01*
X46129244Y8235898D01*
X46224325Y8299428D01*
X46338086Y8519085D01*
X45340000Y9517172D01*
X44341914Y8519085D01*
X41258086Y8519085D01*
X40260000Y9517172D01*
X39261914Y8519085D01*
X34562283Y8519085D01*
X34841156Y8705422D01*
X35079578Y8943844D01*
X35266905Y9224198D01*
X35395937Y9535710D01*
X35404185Y9577177D01*
X38753827Y9577177D01*
X38771614Y9282238D01*
X38846598Y8996437D01*
X38975898Y8730756D01*
X39039428Y8635675D01*
X39259085Y8521914D01*
X40257172Y9520000D01*
X40262828Y9520000D01*
X41260915Y8521914D01*
X41480572Y8635675D01*
X41629642Y8890788D01*
X41726078Y9170082D01*
X41766173Y9462823D01*
X41759277Y9577177D01*
X43833827Y9577177D01*
X43851614Y9282238D01*
X43926598Y8996437D01*
X44055898Y8730756D01*
X44119428Y8635675D01*
X44339085Y8521914D01*
X45337172Y9520000D01*
X44339085Y10518086D01*
X44119428Y10404325D01*
X43970358Y10149212D01*
X43873922Y9869918D01*
X43833827Y9577177D01*
X41759277Y9577177D01*
X41748386Y9757762D01*
X41673402Y10043563D01*
X41544102Y10309244D01*
X41480572Y10404325D01*
X41260915Y10518086D01*
X40262828Y9520000D01*
X40257172Y9520000D01*
X39259085Y10518086D01*
X39039428Y10404325D01*
X38890358Y10149212D01*
X38793922Y9869918D01*
X38753827Y9577177D01*
X35404185Y9577177D01*
X35461718Y9866411D01*
X35461718Y10203589D01*
X35398598Y10520915D01*
X39261914Y10520915D01*
X40260000Y9522828D01*
X41258086Y10520915D01*
X41144325Y10740572D01*
X40889212Y10889642D01*
X40609918Y10986078D01*
X40317177Y11026173D01*
X40022238Y11008386D01*
X39736437Y10933402D01*
X39470756Y10804102D01*
X39375675Y10740572D01*
X39261914Y10520915D01*
X35398598Y10520915D01*
X35395937Y10534290D01*
X35266905Y10845802D01*
X35079578Y11126156D01*
X34841156Y11364578D01*
X34560802Y11551905D01*
X34249290Y11680937D01*
X33918589Y11746718D01*
X33581411Y11746718D01*
X33250710Y11680937D01*
X32939198Y11551905D01*
X32658844Y11364578D01*
X32420422Y11126156D01*
X32233095Y10845802D01*
X32104063Y10534290D01*
X32038282Y10203589D01*
X5456784Y10203589D01*
X5372998Y10298186D01*
X5181765Y10443437D01*
X4965869Y10548590D01*
X4733607Y10609603D01*
X4542000Y10531248D01*
X4538000Y10531248D01*
X4346393Y10609603D01*
X4114131Y10548590D01*
X3898235Y10443437D01*
X3707002Y10298186D01*
X3547780Y10118418D01*
X3426689Y9911041D01*
X3348382Y9684025D01*
X3330397Y9593607D01*
X3210489Y9593607D01*
X3177924Y9757319D01*
X3085581Y9980255D01*
X2951519Y10180892D01*
X2780892Y10351519D01*
X2580255Y10485581D01*
X2357319Y10577924D01*
X2120652Y10625000D01*
X1879348Y10625000D01*
X1642681Y10577924D01*
X1419745Y10485581D01*
X1219108Y10351519D01*
X1048481Y10180892D01*
X914419Y9980255D01*
X822076Y9757319D01*
X775000Y9520652D01*
X400000Y9520652D01*
X400000Y12060652D01*
X775000Y12060652D01*
X775000Y11819348D01*
X822076Y11582681D01*
X914419Y11359745D01*
X1048481Y11159108D01*
X1219108Y10988481D01*
X1419745Y10854419D01*
X1642681Y10762076D01*
X1879348Y10715000D01*
X2120652Y10715000D01*
X2357319Y10762076D01*
X2580255Y10854419D01*
X2780892Y10988481D01*
X2951519Y11159108D01*
X3085581Y11359745D01*
X3177924Y11582681D01*
X3225000Y11819348D01*
X3225000Y12060652D01*
X3315000Y12060652D01*
X3315000Y11819348D01*
X3362076Y11582681D01*
X3454419Y11359745D01*
X3588481Y11159108D01*
X3759108Y10988481D01*
X3959745Y10854419D01*
X4182681Y10762076D01*
X4419348Y10715000D01*
X4660652Y10715000D01*
X4897319Y10762076D01*
X5120255Y10854419D01*
X5320892Y10988481D01*
X5491519Y11159108D01*
X5625581Y11359745D01*
X5717924Y11582681D01*
X5756443Y11776331D01*
X9975000Y11776331D01*
X9975000Y11623669D01*
X10004783Y11473941D01*
X10063204Y11332900D01*
X10148018Y11205966D01*
X10255966Y11098018D01*
X10382900Y11013204D01*
X10523941Y10954783D01*
X10673669Y10925000D01*
X10826331Y10925000D01*
X10976059Y10954783D01*
X11117100Y11013204D01*
X11244034Y11098018D01*
X11351982Y11205966D01*
X11436796Y11332900D01*
X11495217Y11473941D01*
X11525000Y11623669D01*
X11525000Y11776331D01*
X11495217Y11926059D01*
X11436796Y12067100D01*
X11351982Y12194034D01*
X11308732Y12237284D01*
X41000000Y12237284D01*
X41000000Y11882716D01*
X41069173Y11534959D01*
X41204861Y11207380D01*
X41401849Y10912567D01*
X41652567Y10661849D01*
X41947380Y10464861D01*
X42274959Y10329173D01*
X42622716Y10260000D01*
X42977284Y10260000D01*
X43325041Y10329173D01*
X43652620Y10464861D01*
X43736510Y10520915D01*
X44341914Y10520915D01*
X45340000Y9522828D01*
X46338086Y10520915D01*
X46224325Y10740572D01*
X45969212Y10889642D01*
X45689918Y10986078D01*
X45397177Y11026173D01*
X45102238Y11008386D01*
X44816437Y10933402D01*
X44550756Y10804102D01*
X44455675Y10740572D01*
X44341914Y10520915D01*
X43736510Y10520915D01*
X43947433Y10661849D01*
X44198151Y10912567D01*
X44395139Y11207380D01*
X44530827Y11534959D01*
X44600000Y11882716D01*
X44600000Y12237284D01*
X44530827Y12585041D01*
X44395139Y12912620D01*
X44198151Y13207433D01*
X43947433Y13458151D01*
X43736511Y13599085D01*
X44341914Y13599085D01*
X44455675Y13379428D01*
X44710788Y13230358D01*
X44990082Y13133922D01*
X45282823Y13093827D01*
X45577762Y13111614D01*
X45863563Y13186598D01*
X46129244Y13315898D01*
X46224325Y13379428D01*
X46338086Y13599085D01*
X45340000Y14597172D01*
X44341914Y13599085D01*
X43736511Y13599085D01*
X43652620Y13655139D01*
X43325041Y13790827D01*
X42977284Y13860000D01*
X42622716Y13860000D01*
X42274959Y13790827D01*
X41947380Y13655139D01*
X41652567Y13458151D01*
X41401849Y13207433D01*
X41204861Y12912620D01*
X41069173Y12585041D01*
X41000000Y12237284D01*
X11308732Y12237284D01*
X11244034Y12301982D01*
X11117100Y12386796D01*
X10976059Y12445217D01*
X10826331Y12475000D01*
X10673669Y12475000D01*
X10523941Y12445217D01*
X10382900Y12386796D01*
X10255966Y12301982D01*
X10148018Y12194034D01*
X10063204Y12067100D01*
X10004783Y11926059D01*
X9975000Y11776331D01*
X5756443Y11776331D01*
X5765000Y11819348D01*
X5765000Y12060652D01*
X5717924Y12297319D01*
X5625581Y12520255D01*
X5491519Y12720892D01*
X5320892Y12891519D01*
X5120255Y13025581D01*
X5118445Y13026331D01*
X7175000Y13026331D01*
X7175000Y12873669D01*
X7204783Y12723941D01*
X7263204Y12582900D01*
X7348018Y12455966D01*
X7455966Y12348018D01*
X7582900Y12263204D01*
X7723941Y12204783D01*
X7873669Y12175000D01*
X8026331Y12175000D01*
X8176059Y12204783D01*
X8317100Y12263204D01*
X8444034Y12348018D01*
X8551982Y12455966D01*
X8636796Y12582900D01*
X8695217Y12723941D01*
X8725000Y12873669D01*
X8725000Y13026331D01*
X8695217Y13176059D01*
X8636796Y13317100D01*
X8551982Y13444034D01*
X8444034Y13551982D01*
X8373539Y13599085D01*
X39261914Y13599085D01*
X39375675Y13379428D01*
X39630788Y13230358D01*
X39910082Y13133922D01*
X40202823Y13093827D01*
X40497762Y13111614D01*
X40783563Y13186598D01*
X41049244Y13315898D01*
X41144325Y13379428D01*
X41258086Y13599085D01*
X40260000Y14597172D01*
X39261914Y13599085D01*
X8373539Y13599085D01*
X8317100Y13636796D01*
X8176059Y13695217D01*
X8026331Y13725000D01*
X7873669Y13725000D01*
X7723941Y13695217D01*
X7582900Y13636796D01*
X7455966Y13551982D01*
X7348018Y13444034D01*
X7263204Y13317100D01*
X7204783Y13176059D01*
X7175000Y13026331D01*
X5118445Y13026331D01*
X4897319Y13117924D01*
X4660652Y13165000D01*
X4419348Y13165000D01*
X4182681Y13117924D01*
X3959745Y13025581D01*
X3759108Y12891519D01*
X3588481Y12720892D01*
X3454419Y12520255D01*
X3362076Y12297319D01*
X3315000Y12060652D01*
X3225000Y12060652D01*
X3177924Y12297319D01*
X3085581Y12520255D01*
X2951519Y12720892D01*
X2780892Y12891519D01*
X2580255Y13025581D01*
X2357319Y13117924D01*
X2120652Y13165000D01*
X1879348Y13165000D01*
X1642681Y13117924D01*
X1419745Y13025581D01*
X1219108Y12891519D01*
X1048481Y12720892D01*
X914419Y12520255D01*
X822076Y12297319D01*
X775000Y12060652D01*
X400000Y12060652D01*
X400000Y14600652D01*
X775000Y14600652D01*
X775000Y14359348D01*
X822076Y14122681D01*
X914419Y13899745D01*
X1048481Y13699108D01*
X1219108Y13528481D01*
X1419745Y13394419D01*
X1642681Y13302076D01*
X1879348Y13255000D01*
X2120652Y13255000D01*
X2357319Y13302076D01*
X2580255Y13394419D01*
X2780892Y13528481D01*
X2951519Y13699108D01*
X3085581Y13899745D01*
X3177924Y14122681D01*
X3225000Y14359348D01*
X3225000Y14600652D01*
X3315000Y14600652D01*
X3315000Y14359348D01*
X3362076Y14122681D01*
X3454419Y13899745D01*
X3588481Y13699108D01*
X3759108Y13528481D01*
X3959745Y13394419D01*
X4182681Y13302076D01*
X4419348Y13255000D01*
X4660652Y13255000D01*
X4897319Y13302076D01*
X5120255Y13394419D01*
X5320892Y13528481D01*
X5491519Y13699108D01*
X5625581Y13899745D01*
X5717924Y14122681D01*
X5765000Y14359348D01*
X5765000Y14600652D01*
X5753757Y14657177D01*
X38753827Y14657177D01*
X38771614Y14362238D01*
X38846598Y14076437D01*
X38975898Y13810756D01*
X39039428Y13715675D01*
X39259085Y13601914D01*
X40257172Y14600000D01*
X40262828Y14600000D01*
X41260915Y13601914D01*
X41480572Y13715675D01*
X41629642Y13970788D01*
X41726078Y14250082D01*
X41766173Y14542823D01*
X41759277Y14657177D01*
X43833827Y14657177D01*
X43851614Y14362238D01*
X43926598Y14076437D01*
X44055898Y13810756D01*
X44119428Y13715675D01*
X44339085Y13601914D01*
X45337172Y14600000D01*
X44339085Y15598086D01*
X44119428Y15484325D01*
X43970358Y15229212D01*
X43873922Y14949918D01*
X43833827Y14657177D01*
X41759277Y14657177D01*
X41748386Y14837762D01*
X41673402Y15123563D01*
X41544102Y15389244D01*
X41480572Y15484325D01*
X41260915Y15598086D01*
X40262828Y14600000D01*
X40257172Y14600000D01*
X39259085Y15598086D01*
X39039428Y15484325D01*
X38890358Y15229212D01*
X38793922Y14949918D01*
X38753827Y14657177D01*
X5753757Y14657177D01*
X5717924Y14837319D01*
X5625581Y15060255D01*
X5491519Y15260892D01*
X5320892Y15431519D01*
X5120255Y15565581D01*
X5034952Y15600915D01*
X39261914Y15600915D01*
X40260000Y14602828D01*
X41258086Y15600915D01*
X44341914Y15600915D01*
X45340000Y14602828D01*
X46338086Y15600915D01*
X46224325Y15820572D01*
X45969212Y15969642D01*
X45689918Y16066078D01*
X45397177Y16106173D01*
X45102238Y16088386D01*
X44816437Y16013402D01*
X44550756Y15884102D01*
X44455675Y15820572D01*
X44341914Y15600915D01*
X41258086Y15600915D01*
X41144325Y15820572D01*
X40889212Y15969642D01*
X40609918Y16066078D01*
X40317177Y16106173D01*
X40022238Y16088386D01*
X39736437Y16013402D01*
X39470756Y15884102D01*
X39375675Y15820572D01*
X39261914Y15600915D01*
X5034952Y15600915D01*
X4897319Y15657924D01*
X4660652Y15705000D01*
X4419348Y15705000D01*
X4182681Y15657924D01*
X3959745Y15565581D01*
X3759108Y15431519D01*
X3588481Y15260892D01*
X3454419Y15060255D01*
X3362076Y14837319D01*
X3315000Y14600652D01*
X3225000Y14600652D01*
X3177924Y14837319D01*
X3085581Y15060255D01*
X2951519Y15260892D01*
X2780892Y15431519D01*
X2580255Y15565581D01*
X2357319Y15657924D01*
X2120652Y15705000D01*
X1879348Y15705000D01*
X1642681Y15657924D01*
X1419745Y15565581D01*
X1219108Y15431519D01*
X1048481Y15260892D01*
X914419Y15060255D01*
X822076Y14837319D01*
X775000Y14600652D01*
X400000Y14600652D01*
X400000Y17140652D01*
X775000Y17140652D01*
X775000Y16899348D01*
X822076Y16662681D01*
X914419Y16439745D01*
X1048481Y16239108D01*
X1219108Y16068481D01*
X1419745Y15934419D01*
X1642681Y15842076D01*
X1879348Y15795000D01*
X2120652Y15795000D01*
X2357319Y15842076D01*
X2580255Y15934419D01*
X2780892Y16068481D01*
X2951519Y16239108D01*
X3085581Y16439745D01*
X3177924Y16662681D01*
X3225000Y16899348D01*
X3225000Y17140652D01*
X3315000Y17140652D01*
X3315000Y16899348D01*
X3362076Y16662681D01*
X3454419Y16439745D01*
X3588481Y16239108D01*
X3759108Y16068481D01*
X3959745Y15934419D01*
X4182681Y15842076D01*
X4419348Y15795000D01*
X4660652Y15795000D01*
X4897319Y15842076D01*
X5120255Y15934419D01*
X5320892Y16068481D01*
X5491519Y16239108D01*
X5625581Y16439745D01*
X5682156Y16576331D01*
X11325000Y16576331D01*
X11325000Y16423669D01*
X11354783Y16273941D01*
X11413204Y16132900D01*
X11498018Y16005966D01*
X11605966Y15898018D01*
X11732900Y15813204D01*
X11873941Y15754783D01*
X12023669Y15725000D01*
X12176331Y15725000D01*
X12326059Y15754783D01*
X12467100Y15813204D01*
X12594034Y15898018D01*
X12701982Y16005966D01*
X12786796Y16132900D01*
X12845217Y16273941D01*
X12875000Y16423669D01*
X12875000Y16576331D01*
X12845217Y16726059D01*
X12786796Y16867100D01*
X12701982Y16994034D01*
X12594034Y17101982D01*
X12467100Y17186796D01*
X12326059Y17245217D01*
X12176331Y17275000D01*
X12023669Y17275000D01*
X11873941Y17245217D01*
X11732900Y17186796D01*
X11605966Y17101982D01*
X11498018Y16994034D01*
X11413204Y16867100D01*
X11354783Y16726059D01*
X11325000Y16576331D01*
X5682156Y16576331D01*
X5717924Y16662681D01*
X5765000Y16899348D01*
X5765000Y17140652D01*
X5717924Y17377319D01*
X5625581Y17600255D01*
X5491519Y17800892D01*
X5320892Y17971519D01*
X5120255Y18105581D01*
X4897319Y18197924D01*
X4660652Y18245000D01*
X4419348Y18245000D01*
X4182681Y18197924D01*
X3959745Y18105581D01*
X3759108Y17971519D01*
X3588481Y17800892D01*
X3454419Y17600255D01*
X3362076Y17377319D01*
X3315000Y17140652D01*
X3225000Y17140652D01*
X3177924Y17377319D01*
X3085581Y17600255D01*
X2951519Y17800892D01*
X2780892Y17971519D01*
X2580255Y18105581D01*
X2357319Y18197924D01*
X2120652Y18245000D01*
X1879348Y18245000D01*
X1642681Y18197924D01*
X1419745Y18105581D01*
X1219108Y17971519D01*
X1048481Y17800892D01*
X914419Y17600255D01*
X822076Y17377319D01*
X775000Y17140652D01*
X400000Y17140652D01*
X400000Y19680652D01*
X775000Y19680652D01*
X775000Y19439348D01*
X822076Y19202681D01*
X914419Y18979745D01*
X1048481Y18779108D01*
X1219108Y18608481D01*
X1419745Y18474419D01*
X1642681Y18382076D01*
X1879348Y18335000D01*
X2120652Y18335000D01*
X2357319Y18382076D01*
X2580255Y18474419D01*
X2780892Y18608481D01*
X2951519Y18779108D01*
X3085581Y18979745D01*
X3177924Y19202681D01*
X3225000Y19439348D01*
X3225000Y19680652D01*
X3315000Y19680652D01*
X3315000Y19439348D01*
X3362076Y19202681D01*
X3454419Y18979745D01*
X3588481Y18779108D01*
X3759108Y18608481D01*
X3959745Y18474419D01*
X4182681Y18382076D01*
X4419348Y18335000D01*
X4660652Y18335000D01*
X4868457Y18376335D01*
X11425000Y18376335D01*
X11425000Y18223673D01*
X11454783Y18073945D01*
X11513204Y17932904D01*
X11598018Y17805970D01*
X11705966Y17698022D01*
X11832900Y17613208D01*
X11973941Y17554787D01*
X12123669Y17525004D01*
X12276331Y17525004D01*
X12426059Y17554787D01*
X12567100Y17613208D01*
X12694034Y17698022D01*
X12801982Y17805970D01*
X12886796Y17932904D01*
X12945217Y18073945D01*
X12957624Y18136321D01*
X28364996Y18136321D01*
X28364996Y17983659D01*
X28394779Y17833931D01*
X28453200Y17692890D01*
X28538014Y17565956D01*
X28645962Y17458008D01*
X28772896Y17373194D01*
X28913937Y17314773D01*
X29063665Y17284990D01*
X29216327Y17284990D01*
X29366055Y17314773D01*
X29507096Y17373194D01*
X29634030Y17458008D01*
X29741978Y17565956D01*
X29826792Y17692890D01*
X29885213Y17833931D01*
X29914996Y17983659D01*
X29914996Y18136321D01*
X29885213Y18286049D01*
X29826792Y18427090D01*
X29741978Y18554024D01*
X29634030Y18661972D01*
X29507096Y18746786D01*
X29366055Y18805207D01*
X29216327Y18834990D01*
X29063665Y18834990D01*
X28913937Y18805207D01*
X28772896Y18746786D01*
X28645962Y18661972D01*
X28538014Y18554024D01*
X28453200Y18427090D01*
X28394779Y18286049D01*
X28364996Y18136321D01*
X12957624Y18136321D01*
X12975000Y18223673D01*
X12975000Y18376335D01*
X12945217Y18526063D01*
X12886796Y18667104D01*
X12801982Y18794038D01*
X12694034Y18901986D01*
X12657599Y18926331D01*
X39125000Y18926331D01*
X39125000Y18773669D01*
X39154783Y18623941D01*
X39213204Y18482900D01*
X39298018Y18355966D01*
X39405966Y18248018D01*
X39532900Y18163204D01*
X39673941Y18104783D01*
X39823669Y18075000D01*
X39976331Y18075000D01*
X40126059Y18104783D01*
X40267100Y18163204D01*
X40394034Y18248018D01*
X40501982Y18355966D01*
X40586796Y18482900D01*
X40645217Y18623941D01*
X40675000Y18773669D01*
X40675000Y18926331D01*
X40645217Y19076059D01*
X40586796Y19217100D01*
X40501982Y19344034D01*
X40394034Y19451982D01*
X40267100Y19536796D01*
X40126059Y19595217D01*
X39976331Y19625000D01*
X39823669Y19625000D01*
X39673941Y19595217D01*
X39532900Y19536796D01*
X39405966Y19451982D01*
X39298018Y19344034D01*
X39213204Y19217100D01*
X39154783Y19076059D01*
X39125000Y18926331D01*
X12657599Y18926331D01*
X12567100Y18986800D01*
X12426059Y19045221D01*
X12276331Y19075004D01*
X12123669Y19075004D01*
X11973941Y19045221D01*
X11832900Y18986800D01*
X11705966Y18901986D01*
X11598018Y18794038D01*
X11513204Y18667104D01*
X11454783Y18526063D01*
X11425000Y18376335D01*
X4868457Y18376335D01*
X4897319Y18382076D01*
X5120255Y18474419D01*
X5320892Y18608481D01*
X5491519Y18779108D01*
X5625581Y18979745D01*
X5717924Y19202681D01*
X5765000Y19439348D01*
X5765000Y19680652D01*
X5717924Y19917319D01*
X5625581Y20140255D01*
X5491519Y20340892D01*
X5320892Y20511519D01*
X5120255Y20645581D01*
X4897319Y20737924D01*
X4660652Y20785000D01*
X4419348Y20785000D01*
X4182681Y20737924D01*
X3959745Y20645581D01*
X3759108Y20511519D01*
X3588481Y20340892D01*
X3454419Y20140255D01*
X3362076Y19917319D01*
X3315000Y19680652D01*
X3225000Y19680652D01*
X3177924Y19917319D01*
X3085581Y20140255D01*
X2951519Y20340892D01*
X2780892Y20511519D01*
X2580255Y20645581D01*
X2357319Y20737924D01*
X2120652Y20785000D01*
X1879348Y20785000D01*
X1642681Y20737924D01*
X1419745Y20645581D01*
X1219108Y20511519D01*
X1048481Y20340892D01*
X914419Y20140255D01*
X822076Y19917319D01*
X775000Y19680652D01*
X400000Y19680652D01*
X400000Y22950000D01*
X773186Y22950000D01*
X773186Y21250000D01*
X780426Y21176487D01*
X801869Y21105800D01*
X836691Y21040653D01*
X883552Y20983552D01*
X940653Y20936691D01*
X1005800Y20901869D01*
X1076487Y20880426D01*
X1150000Y20873186D01*
X2850000Y20873186D01*
X2923513Y20880426D01*
X2994200Y20901869D01*
X3059347Y20936691D01*
X3116448Y20983552D01*
X3163309Y21040653D01*
X3198131Y21105800D01*
X3219574Y21176487D01*
X3226814Y21250000D01*
X3226814Y22220652D01*
X3315000Y22220652D01*
X3315000Y21979348D01*
X3362076Y21742681D01*
X3454419Y21519745D01*
X3588481Y21319108D01*
X3759108Y21148481D01*
X3959745Y21014419D01*
X4182681Y20922076D01*
X4419348Y20875000D01*
X4660652Y20875000D01*
X4897319Y20922076D01*
X5120255Y21014419D01*
X5320892Y21148481D01*
X5491519Y21319108D01*
X5625581Y21519745D01*
X5717924Y21742681D01*
X5765000Y21979348D01*
X5765000Y22220652D01*
X5717924Y22457319D01*
X5625581Y22680255D01*
X5491519Y22880892D01*
X5320892Y23051519D01*
X5120255Y23185581D01*
X4897319Y23277924D01*
X4660652Y23325000D01*
X4419348Y23325000D01*
X4182681Y23277924D01*
X3959745Y23185581D01*
X3759108Y23051519D01*
X3588481Y22880892D01*
X3454419Y22680255D01*
X3362076Y22457319D01*
X3315000Y22220652D01*
X3226814Y22220652D01*
X3226814Y22950000D01*
X3219574Y23023513D01*
X3198131Y23094200D01*
X3163309Y23159347D01*
X3116448Y23216448D01*
X3059347Y23263309D01*
X2994200Y23298131D01*
X2923513Y23319574D01*
X2850000Y23326814D01*
X1150000Y23326814D01*
X1076487Y23319574D01*
X1005800Y23298131D01*
X940653Y23263309D01*
X883552Y23216448D01*
X836691Y23159347D01*
X801869Y23094200D01*
X780426Y23023513D01*
X773186Y22950000D01*
X400000Y22950000D01*
X400000Y24076331D01*
X14525000Y24076331D01*
X14525000Y23923669D01*
X14554783Y23773941D01*
X14613204Y23632900D01*
X14698018Y23505966D01*
X14805966Y23398018D01*
X14932900Y23313204D01*
X15073941Y23254783D01*
X15223669Y23225000D01*
X15376331Y23225000D01*
X15526059Y23254783D01*
X15667100Y23313204D01*
X15794034Y23398018D01*
X15901982Y23505966D01*
X15986796Y23632900D01*
X16045217Y23773941D01*
X16074188Y23919589D01*
X32038282Y23919589D01*
X32038282Y23582411D01*
X32104063Y23251710D01*
X32233095Y22940198D01*
X32420422Y22659844D01*
X32658844Y22421422D01*
X32939198Y22234095D01*
X33250710Y22105063D01*
X33581411Y22039282D01*
X33918589Y22039282D01*
X34249290Y22105063D01*
X34560802Y22234095D01*
X34841156Y22421422D01*
X35079578Y22659844D01*
X35266905Y22940198D01*
X35395937Y23251710D01*
X35461718Y23582411D01*
X35461718Y23919589D01*
X35395937Y24250290D01*
X35266905Y24561802D01*
X35079578Y24842156D01*
X34841156Y25080578D01*
X34560802Y25267905D01*
X34249290Y25396937D01*
X33918589Y25462718D01*
X33581411Y25462718D01*
X33250710Y25396937D01*
X32939198Y25267905D01*
X32658844Y25080578D01*
X32420422Y24842156D01*
X32233095Y24561802D01*
X32104063Y24250290D01*
X32038282Y23919589D01*
X16074188Y23919589D01*
X16075000Y23923669D01*
X16075000Y24076331D01*
X16045217Y24226059D01*
X15986796Y24367100D01*
X15901982Y24494034D01*
X15794034Y24601982D01*
X15667100Y24686796D01*
X15526059Y24745217D01*
X15376331Y24775000D01*
X15223669Y24775000D01*
X15073941Y24745217D01*
X14932900Y24686796D01*
X14805966Y24601982D01*
X14698018Y24494034D01*
X14613204Y24367100D01*
X14554783Y24226059D01*
X14525000Y24076331D01*
X400000Y24076331D01*
X400000Y25276331D01*
X11425000Y25276331D01*
X11425000Y25123669D01*
X11454783Y24973941D01*
X11513204Y24832900D01*
X11598018Y24705966D01*
X11705966Y24598018D01*
X11832900Y24513204D01*
X11973941Y24454783D01*
X12123669Y24425000D01*
X12276331Y24425000D01*
X12426059Y24454783D01*
X12567100Y24513204D01*
X12694034Y24598018D01*
X12801982Y24705966D01*
X12886796Y24832900D01*
X12945217Y24973941D01*
X12975000Y25123669D01*
X12975000Y25276331D01*
X12945217Y25426059D01*
X12886796Y25567100D01*
X12801982Y25694034D01*
X12694034Y25801982D01*
X12567100Y25886796D01*
X12471654Y25926331D01*
X38325000Y25926331D01*
X38325000Y25773669D01*
X38354783Y25623941D01*
X38413204Y25482900D01*
X38498018Y25355966D01*
X38605966Y25248018D01*
X38732900Y25163204D01*
X38873941Y25104783D01*
X39023669Y25075000D01*
X39176331Y25075000D01*
X39326059Y25104783D01*
X39467100Y25163204D01*
X39594034Y25248018D01*
X39701982Y25355966D01*
X39786796Y25482900D01*
X39845217Y25623941D01*
X39875000Y25773669D01*
X39875000Y25926331D01*
X39845217Y26076059D01*
X39786796Y26217100D01*
X39701982Y26344034D01*
X39594034Y26451982D01*
X39467100Y26536796D01*
X39326059Y26595217D01*
X39176331Y26625000D01*
X39023669Y26625000D01*
X38873941Y26595217D01*
X38732900Y26536796D01*
X38605966Y26451982D01*
X38498018Y26344034D01*
X38413204Y26217100D01*
X38354783Y26076059D01*
X38325000Y25926331D01*
X12471654Y25926331D01*
X12426059Y25945217D01*
X12276331Y25975000D01*
X12123669Y25975000D01*
X11973941Y25945217D01*
X11832900Y25886796D01*
X11705966Y25801982D01*
X11598018Y25694034D01*
X11513204Y25567100D01*
X11454783Y25426059D01*
X11425000Y25276331D01*
X400000Y25276331D01*
X400000Y28495268D01*
X1238096Y28495268D01*
X1480749Y28165527D01*
X1918552Y27909380D01*
X2397916Y27743567D01*
X2900417Y27674458D01*
X3406745Y27704711D01*
X3897442Y27833163D01*
X4353650Y28054876D01*
X4519251Y28165527D01*
X4761904Y28495268D01*
X3000000Y30257172D01*
X1238096Y28495268D01*
X400000Y28495268D01*
X400000Y30359583D01*
X414458Y30359583D01*
X444711Y29853255D01*
X573163Y29362558D01*
X794876Y28906350D01*
X905527Y28740749D01*
X1235268Y28498096D01*
X2997172Y30260000D01*
X3002828Y30260000D01*
X4764732Y28498096D01*
X5094473Y28740749D01*
X5173798Y28876331D01*
X5325002Y28876331D01*
X5325002Y28723669D01*
X5354785Y28573941D01*
X5413206Y28432900D01*
X5498020Y28305966D01*
X5605968Y28198018D01*
X5732902Y28113204D01*
X5873943Y28054783D01*
X6023671Y28025000D01*
X6176333Y28025000D01*
X6326061Y28054783D01*
X6467102Y28113204D01*
X6594036Y28198018D01*
X6701984Y28305966D01*
X6786798Y28432900D01*
X6845219Y28573941D01*
X6875002Y28723669D01*
X6875002Y28876331D01*
X6845219Y29026059D01*
X6786798Y29167100D01*
X6701984Y29294034D01*
X6594036Y29401982D01*
X6467102Y29486796D01*
X6326061Y29545217D01*
X6176333Y29575000D01*
X6023671Y29575000D01*
X5873943Y29545217D01*
X5732902Y29486796D01*
X5605968Y29401982D01*
X5498020Y29294034D01*
X5413206Y29167100D01*
X5354785Y29026059D01*
X5325002Y28876331D01*
X5173798Y28876331D01*
X5350620Y29178552D01*
X5516433Y29657916D01*
X5518965Y29676331D01*
X14525000Y29676331D01*
X14525000Y29523669D01*
X14554783Y29373941D01*
X14613204Y29232900D01*
X14698018Y29105966D01*
X14753984Y29050000D01*
X14698018Y28994034D01*
X14613204Y28867100D01*
X14554783Y28726059D01*
X14525000Y28576331D01*
X14525000Y28423669D01*
X14554783Y28273941D01*
X14613204Y28132900D01*
X14698018Y28005966D01*
X14805966Y27898018D01*
X14932900Y27813204D01*
X15073941Y27754783D01*
X15223669Y27725000D01*
X15376331Y27725000D01*
X15526059Y27754783D01*
X15667100Y27813204D01*
X15794034Y27898018D01*
X15901982Y28005966D01*
X15986796Y28132900D01*
X16045217Y28273941D01*
X16075000Y28423669D01*
X16075000Y28526331D01*
X27875000Y28526331D01*
X27875000Y28373669D01*
X27904783Y28223941D01*
X27963204Y28082900D01*
X28048018Y27955966D01*
X28155966Y27848018D01*
X28282900Y27763204D01*
X28423941Y27704783D01*
X28573669Y27675000D01*
X28726331Y27675000D01*
X28876059Y27704783D01*
X29017100Y27763204D01*
X29144034Y27848018D01*
X29251982Y27955966D01*
X29336796Y28082900D01*
X29395217Y28223941D01*
X29425000Y28373669D01*
X29425000Y28526331D01*
X29395217Y28676059D01*
X29336796Y28817100D01*
X29251982Y28944034D01*
X29144034Y29051982D01*
X29017100Y29136796D01*
X28876059Y29195217D01*
X28726331Y29225000D01*
X28573669Y29225000D01*
X28423941Y29195217D01*
X28282900Y29136796D01*
X28155966Y29051982D01*
X28048018Y28944034D01*
X27963204Y28817100D01*
X27904783Y28676059D01*
X27875000Y28526331D01*
X16075000Y28526331D01*
X16075000Y28576331D01*
X16045217Y28726059D01*
X15986796Y28867100D01*
X15901982Y28994034D01*
X15846016Y29050000D01*
X15901982Y29105966D01*
X15986796Y29232900D01*
X16045217Y29373941D01*
X16075000Y29523669D01*
X16075000Y29676331D01*
X16045217Y29826059D01*
X15986796Y29967100D01*
X15901982Y30094034D01*
X15794034Y30201982D01*
X15667100Y30286796D01*
X15526059Y30345217D01*
X15376331Y30375000D01*
X15223669Y30375000D01*
X15073941Y30345217D01*
X14932900Y30286796D01*
X14805966Y30201982D01*
X14698018Y30094034D01*
X14613204Y29967100D01*
X14554783Y29826059D01*
X14525000Y29676331D01*
X5518965Y29676331D01*
X5585542Y30160417D01*
X5560692Y30576331D01*
X32125000Y30576331D01*
X32125000Y30423669D01*
X32154783Y30273941D01*
X32213204Y30132900D01*
X32298018Y30005966D01*
X32405966Y29898018D01*
X32532900Y29813204D01*
X32673941Y29754783D01*
X32823669Y29725000D01*
X32976331Y29725000D01*
X33126059Y29754783D01*
X33267100Y29813204D01*
X33394034Y29898018D01*
X33501982Y30005966D01*
X33586796Y30132900D01*
X33645217Y30273941D01*
X33675000Y30423669D01*
X33675000Y30576331D01*
X33670028Y30601331D01*
X33750000Y30601331D01*
X33750000Y30448669D01*
X33779783Y30298941D01*
X33838204Y30157900D01*
X33923018Y30030966D01*
X34030966Y29923018D01*
X34157900Y29838204D01*
X34298941Y29779783D01*
X34448669Y29750000D01*
X34601331Y29750000D01*
X34751059Y29779783D01*
X34892100Y29838204D01*
X35019034Y29923018D01*
X35126982Y30030966D01*
X35211796Y30157900D01*
X35270217Y30298941D01*
X35282279Y30359583D01*
X41614458Y30359583D01*
X41644711Y29853255D01*
X41773163Y29362558D01*
X41994876Y28906350D01*
X42105527Y28740749D01*
X42435268Y28498096D01*
X44197172Y30260000D01*
X44202828Y30260000D01*
X45964732Y28498096D01*
X46294473Y28740749D01*
X46550620Y29178552D01*
X46716433Y29657916D01*
X46785542Y30160417D01*
X46755289Y30666745D01*
X46626837Y31157442D01*
X46405124Y31613650D01*
X46294473Y31779251D01*
X45964732Y32021904D01*
X44202828Y30260000D01*
X44197172Y30260000D01*
X42435268Y32021904D01*
X42105527Y31779251D01*
X41849380Y31341448D01*
X41683567Y30862084D01*
X41614458Y30359583D01*
X35282279Y30359583D01*
X35300000Y30448669D01*
X35300000Y30601331D01*
X35270217Y30751059D01*
X35211796Y30892100D01*
X35126982Y31019034D01*
X35019034Y31126982D01*
X34892100Y31211796D01*
X34751059Y31270217D01*
X34601331Y31300000D01*
X34448669Y31300000D01*
X34298941Y31270217D01*
X34157900Y31211796D01*
X34030966Y31126982D01*
X33923018Y31019034D01*
X33838204Y30892100D01*
X33779783Y30751059D01*
X33750000Y30601331D01*
X33670028Y30601331D01*
X33645217Y30726059D01*
X33586796Y30867100D01*
X33501982Y30994034D01*
X33394034Y31101982D01*
X33267100Y31186796D01*
X33126059Y31245217D01*
X32976331Y31275000D01*
X32823669Y31275000D01*
X32673941Y31245217D01*
X32532900Y31186796D01*
X32405966Y31101982D01*
X32298018Y30994034D01*
X32213204Y30867100D01*
X32154783Y30726059D01*
X32125000Y30576331D01*
X5560692Y30576331D01*
X5555289Y30666745D01*
X5426837Y31157442D01*
X5205124Y31613650D01*
X5094473Y31779251D01*
X4894607Y31926331D01*
X10725000Y31926331D01*
X10725000Y31773669D01*
X10754783Y31623941D01*
X10813204Y31482900D01*
X10898018Y31355966D01*
X11005966Y31248018D01*
X11132900Y31163204D01*
X11273941Y31104783D01*
X11423669Y31075000D01*
X11576331Y31075000D01*
X11726059Y31104783D01*
X11867100Y31163204D01*
X11994034Y31248018D01*
X12101982Y31355966D01*
X12186796Y31482900D01*
X12245217Y31623941D01*
X12275000Y31773669D01*
X12275000Y31926331D01*
X12325000Y31926331D01*
X12325000Y31773669D01*
X12354783Y31623941D01*
X12413204Y31482900D01*
X12498018Y31355966D01*
X12605966Y31248018D01*
X12732900Y31163204D01*
X12873941Y31104783D01*
X13023669Y31075000D01*
X13176331Y31075000D01*
X13326059Y31104783D01*
X13467100Y31163204D01*
X13594034Y31248018D01*
X13672353Y31326337D01*
X38325000Y31326337D01*
X38325000Y31173675D01*
X38354783Y31023947D01*
X38413204Y30882906D01*
X38498018Y30755972D01*
X38605966Y30648024D01*
X38732900Y30563210D01*
X38873941Y30504789D01*
X39023669Y30475006D01*
X39176331Y30475006D01*
X39326059Y30504789D01*
X39467100Y30563210D01*
X39594034Y30648024D01*
X39701982Y30755972D01*
X39786796Y30882906D01*
X39845217Y31023947D01*
X39875000Y31173675D01*
X39875000Y31326337D01*
X39845217Y31476065D01*
X39786796Y31617106D01*
X39701982Y31744040D01*
X39594034Y31851988D01*
X39467100Y31936802D01*
X39326059Y31995223D01*
X39177709Y32024732D01*
X42438096Y32024732D01*
X44200000Y30262828D01*
X45961904Y32024732D01*
X45719251Y32354473D01*
X45281448Y32610620D01*
X44802084Y32776433D01*
X44299583Y32845542D01*
X43793255Y32815289D01*
X43302558Y32686837D01*
X42846350Y32465124D01*
X42680749Y32354473D01*
X42438096Y32024732D01*
X39177709Y32024732D01*
X39176331Y32025006D01*
X39023669Y32025006D01*
X38873941Y31995223D01*
X38732900Y31936802D01*
X38605966Y31851988D01*
X38498018Y31744040D01*
X38413204Y31617106D01*
X38354783Y31476065D01*
X38325000Y31326337D01*
X13672353Y31326337D01*
X13701982Y31355966D01*
X13786796Y31482900D01*
X13845217Y31623941D01*
X13875000Y31773669D01*
X13875000Y31926331D01*
X13845217Y32076059D01*
X13786796Y32217100D01*
X13701982Y32344034D01*
X13594034Y32451982D01*
X13467100Y32536796D01*
X13326059Y32595217D01*
X13176331Y32625000D01*
X13023669Y32625000D01*
X12873941Y32595217D01*
X12732900Y32536796D01*
X12605966Y32451982D01*
X12498018Y32344034D01*
X12413204Y32217100D01*
X12354783Y32076059D01*
X12325000Y31926331D01*
X12275000Y31926331D01*
X12245217Y32076059D01*
X12186796Y32217100D01*
X12101982Y32344034D01*
X11994034Y32451982D01*
X11867100Y32536796D01*
X11726059Y32595217D01*
X11576331Y32625000D01*
X11423669Y32625000D01*
X11273941Y32595217D01*
X11132900Y32536796D01*
X11005966Y32451982D01*
X10898018Y32344034D01*
X10813204Y32217100D01*
X10754783Y32076059D01*
X10725000Y31926331D01*
X4894607Y31926331D01*
X4764732Y32021904D01*
X3002828Y30260000D01*
X2997172Y30260000D01*
X1235268Y32021904D01*
X905527Y31779251D01*
X649380Y31341448D01*
X483567Y30862084D01*
X414458Y30359583D01*
X400000Y30359583D01*
X400000Y32024732D01*
X1238096Y32024732D01*
X3000000Y30262828D01*
X4761904Y32024732D01*
X4519251Y32354473D01*
X4081448Y32610620D01*
X3602084Y32776433D01*
X3099583Y32845542D01*
X2593255Y32815289D01*
X2102558Y32686837D01*
X1646350Y32465124D01*
X1480749Y32354473D01*
X1238096Y32024732D01*
X400000Y32024732D01*
X400000Y32240435D01*
X413309Y32376167D01*
X447047Y32487913D01*
X501843Y32590971D01*
X575620Y32681430D01*
X665556Y32755832D01*
X768236Y32811350D01*
X879735Y32845865D01*
X1014214Y32860000D01*
X46180435Y32860000D01*
X46316167Y32846691D01*
G37*
G04 #@! TD.AperFunction*
M02*
