G04 #@! TF.GenerationSoftware,KiCad,Pcbnew,5.1.9-5.1.9*
G04 #@! TF.CreationDate,2021-01-19T08:54:29+01:00*
G04 #@! TF.ProjectId,ublox-breakout,75626c6f-782d-4627-9265-616b6f75742e,rev?*
G04 #@! TF.SameCoordinates,PX71f6ce0PY5d47650*
G04 #@! TF.FileFunction,Soldermask,Top*
G04 #@! TF.FilePolarity,Negative*
%FSLAX46Y46*%
G04 Gerber Fmt 4.6, Leading zero omitted, Abs format (unit mm)*
G04 Created by KiCad (PCBNEW 5.1.9-5.1.9) date 2021-01-19 08:54:29*
%MOMM*%
%LPD*%
G01*
G04 APERTURE LIST*
%ADD10R,0.600000X0.450000*%
%ADD11R,0.650000X0.400000*%
%ADD12R,0.650000X1.060000*%
%ADD13R,0.800000X0.900000*%
%ADD14R,0.250000X0.360000*%
%ADD15C,2.250000*%
%ADD16C,2.050000*%
%ADD17R,0.900000X0.800000*%
%ADD18R,1.200000X0.900000*%
%ADD19R,1.380000X0.450000*%
%ADD20R,1.550000X1.425000*%
%ADD21R,1.300000X1.650000*%
%ADD22R,1.900000X1.800000*%
%ADD23R,1.900000X1.000000*%
%ADD24C,0.700000*%
%ADD25C,4.400000*%
%ADD26R,1.700000X1.700000*%
%ADD27O,1.700000X1.700000*%
G04 APERTURE END LIST*
D10*
X7078000Y-4625000D03*
X9178000Y-4625000D03*
G36*
G01*
X31873000Y-28049000D02*
X31373000Y-28049000D01*
G75*
G02*
X31148000Y-27824000I0J225000D01*
G01*
X31148000Y-27374000D01*
G75*
G02*
X31373000Y-27149000I225000J0D01*
G01*
X31873000Y-27149000D01*
G75*
G02*
X32098000Y-27374000I0J-225000D01*
G01*
X32098000Y-27824000D01*
G75*
G02*
X31873000Y-28049000I-225000J0D01*
G01*
G37*
G36*
G01*
X31873000Y-29599000D02*
X31373000Y-29599000D01*
G75*
G02*
X31148000Y-29374000I0J225000D01*
G01*
X31148000Y-28924000D01*
G75*
G02*
X31373000Y-28699000I225000J0D01*
G01*
X31873000Y-28699000D01*
G75*
G02*
X32098000Y-28924000I0J-225000D01*
G01*
X32098000Y-29374000D01*
G75*
G02*
X31873000Y-29599000I-225000J0D01*
G01*
G37*
G36*
G01*
X39525000Y-30525000D02*
X39525000Y-31075000D01*
G75*
G02*
X39325000Y-31275000I-200000J0D01*
G01*
X38925000Y-31275000D01*
G75*
G02*
X38725000Y-31075000I0J200000D01*
G01*
X38725000Y-30525000D01*
G75*
G02*
X38925000Y-30325000I200000J0D01*
G01*
X39325000Y-30325000D01*
G75*
G02*
X39525000Y-30525000I0J-200000D01*
G01*
G37*
G36*
G01*
X41175000Y-30525000D02*
X41175000Y-31075000D01*
G75*
G02*
X40975000Y-31275000I-200000J0D01*
G01*
X40575000Y-31275000D01*
G75*
G02*
X40375000Y-31075000I0J200000D01*
G01*
X40375000Y-30525000D01*
G75*
G02*
X40575000Y-30325000I200000J0D01*
G01*
X40975000Y-30325000D01*
G75*
G02*
X41175000Y-30525000I0J-200000D01*
G01*
G37*
G36*
G01*
X36425000Y-30543750D02*
X36425000Y-31056250D01*
G75*
G02*
X36206250Y-31275000I-218750J0D01*
G01*
X35768750Y-31275000D01*
G75*
G02*
X35550000Y-31056250I0J218750D01*
G01*
X35550000Y-30543750D01*
G75*
G02*
X35768750Y-30325000I218750J0D01*
G01*
X36206250Y-30325000D01*
G75*
G02*
X36425000Y-30543750I0J-218750D01*
G01*
G37*
G36*
G01*
X38000000Y-30543750D02*
X38000000Y-31056250D01*
G75*
G02*
X37781250Y-31275000I-218750J0D01*
G01*
X37343750Y-31275000D01*
G75*
G02*
X37125000Y-31056250I0J218750D01*
G01*
X37125000Y-30543750D01*
G75*
G02*
X37343750Y-30325000I218750J0D01*
G01*
X37781250Y-30325000D01*
G75*
G02*
X38000000Y-30543750I0J-218750D01*
G01*
G37*
G36*
G01*
X39525000Y-27500000D02*
X39525000Y-28050000D01*
G75*
G02*
X39325000Y-28250000I-200000J0D01*
G01*
X38925000Y-28250000D01*
G75*
G02*
X38725000Y-28050000I0J200000D01*
G01*
X38725000Y-27500000D01*
G75*
G02*
X38925000Y-27300000I200000J0D01*
G01*
X39325000Y-27300000D01*
G75*
G02*
X39525000Y-27500000I0J-200000D01*
G01*
G37*
G36*
G01*
X41175000Y-27500000D02*
X41175000Y-28050000D01*
G75*
G02*
X40975000Y-28250000I-200000J0D01*
G01*
X40575000Y-28250000D01*
G75*
G02*
X40375000Y-28050000I0J200000D01*
G01*
X40375000Y-27500000D01*
G75*
G02*
X40575000Y-27300000I200000J0D01*
G01*
X40975000Y-27300000D01*
G75*
G02*
X41175000Y-27500000I0J-200000D01*
G01*
G37*
G36*
G01*
X36425000Y-27518750D02*
X36425000Y-28031250D01*
G75*
G02*
X36206250Y-28250000I-218750J0D01*
G01*
X35768750Y-28250000D01*
G75*
G02*
X35550000Y-28031250I0J218750D01*
G01*
X35550000Y-27518750D01*
G75*
G02*
X35768750Y-27300000I218750J0D01*
G01*
X36206250Y-27300000D01*
G75*
G02*
X36425000Y-27518750I0J-218750D01*
G01*
G37*
G36*
G01*
X38000000Y-27518750D02*
X38000000Y-28031250D01*
G75*
G02*
X37781250Y-28250000I-218750J0D01*
G01*
X37343750Y-28250000D01*
G75*
G02*
X37125000Y-28031250I0J218750D01*
G01*
X37125000Y-27518750D01*
G75*
G02*
X37343750Y-27300000I218750J0D01*
G01*
X37781250Y-27300000D01*
G75*
G02*
X38000000Y-27518750I0J-218750D01*
G01*
G37*
D11*
X26650000Y-27450000D03*
X26650000Y-26150000D03*
X28550000Y-26800000D03*
X28550000Y-26150000D03*
X28550000Y-27450000D03*
X26650000Y-30500000D03*
X26650000Y-29200000D03*
X28550000Y-29850000D03*
X28550000Y-29200000D03*
X28550000Y-30500000D03*
G36*
G01*
X30375000Y-27925000D02*
X29825000Y-27925000D01*
G75*
G02*
X29625000Y-27725000I0J200000D01*
G01*
X29625000Y-27325000D01*
G75*
G02*
X29825000Y-27125000I200000J0D01*
G01*
X30375000Y-27125000D01*
G75*
G02*
X30575000Y-27325000I0J-200000D01*
G01*
X30575000Y-27725000D01*
G75*
G02*
X30375000Y-27925000I-200000J0D01*
G01*
G37*
G36*
G01*
X30375000Y-29575000D02*
X29825000Y-29575000D01*
G75*
G02*
X29625000Y-29375000I0J200000D01*
G01*
X29625000Y-28975000D01*
G75*
G02*
X29825000Y-28775000I200000J0D01*
G01*
X30375000Y-28775000D01*
G75*
G02*
X30575000Y-28975000I0J-200000D01*
G01*
X30575000Y-29375000D01*
G75*
G02*
X30375000Y-29575000I-200000J0D01*
G01*
G37*
G36*
G01*
X32872000Y-28799000D02*
X33422000Y-28799000D01*
G75*
G02*
X33622000Y-28999000I0J-200000D01*
G01*
X33622000Y-29399000D01*
G75*
G02*
X33422000Y-29599000I-200000J0D01*
G01*
X32872000Y-29599000D01*
G75*
G02*
X32672000Y-29399000I0J200000D01*
G01*
X32672000Y-28999000D01*
G75*
G02*
X32872000Y-28799000I200000J0D01*
G01*
G37*
G36*
G01*
X32872000Y-27149000D02*
X33422000Y-27149000D01*
G75*
G02*
X33622000Y-27349000I0J-200000D01*
G01*
X33622000Y-27749000D01*
G75*
G02*
X33422000Y-27949000I-200000J0D01*
G01*
X32872000Y-27949000D01*
G75*
G02*
X32672000Y-27749000I0J200000D01*
G01*
X32672000Y-27349000D01*
G75*
G02*
X32872000Y-27149000I200000J0D01*
G01*
G37*
G36*
G01*
X24075000Y-27400000D02*
X24075000Y-27900000D01*
G75*
G02*
X23850000Y-28125000I-225000J0D01*
G01*
X23400000Y-28125000D01*
G75*
G02*
X23175000Y-27900000I0J225000D01*
G01*
X23175000Y-27400000D01*
G75*
G02*
X23400000Y-27175000I225000J0D01*
G01*
X23850000Y-27175000D01*
G75*
G02*
X24075000Y-27400000I0J-225000D01*
G01*
G37*
G36*
G01*
X25625000Y-27400000D02*
X25625000Y-27900000D01*
G75*
G02*
X25400000Y-28125000I-225000J0D01*
G01*
X24950000Y-28125000D01*
G75*
G02*
X24725000Y-27900000I0J225000D01*
G01*
X24725000Y-27400000D01*
G75*
G02*
X24950000Y-27175000I225000J0D01*
G01*
X25400000Y-27175000D01*
G75*
G02*
X25625000Y-27400000I0J-225000D01*
G01*
G37*
D12*
X40193000Y-9600000D03*
X39243000Y-9600000D03*
X38293000Y-9600000D03*
X38293000Y-11800000D03*
X40193000Y-11800000D03*
X39243000Y-11800000D03*
D13*
X39900000Y-15400000D03*
X38950000Y-13400000D03*
X40850000Y-13400000D03*
G36*
G01*
X37050000Y-14579000D02*
X37550000Y-14579000D01*
G75*
G02*
X37775000Y-14804000I0J-225000D01*
G01*
X37775000Y-15254000D01*
G75*
G02*
X37550000Y-15479000I-225000J0D01*
G01*
X37050000Y-15479000D01*
G75*
G02*
X36825000Y-15254000I0J225000D01*
G01*
X36825000Y-14804000D01*
G75*
G02*
X37050000Y-14579000I225000J0D01*
G01*
G37*
G36*
G01*
X37050000Y-13029000D02*
X37550000Y-13029000D01*
G75*
G02*
X37775000Y-13254000I0J-225000D01*
G01*
X37775000Y-13704000D01*
G75*
G02*
X37550000Y-13929000I-225000J0D01*
G01*
X37050000Y-13929000D01*
G75*
G02*
X36825000Y-13704000I0J225000D01*
G01*
X36825000Y-13254000D01*
G75*
G02*
X37050000Y-13029000I225000J0D01*
G01*
G37*
G36*
G01*
X8150000Y-2074999D02*
X8150000Y-2925001D01*
G75*
G02*
X7900001Y-3175000I-249999J0D01*
G01*
X6999999Y-3175000D01*
G75*
G02*
X6750000Y-2925001I0J249999D01*
G01*
X6750000Y-2074999D01*
G75*
G02*
X6999999Y-1825000I249999J0D01*
G01*
X7900001Y-1825000D01*
G75*
G02*
X8150000Y-2074999I0J-249999D01*
G01*
G37*
G36*
G01*
X10850000Y-2074999D02*
X10850000Y-2925001D01*
G75*
G02*
X10600001Y-3175000I-249999J0D01*
G01*
X9699999Y-3175000D01*
G75*
G02*
X9450000Y-2925001I0J249999D01*
G01*
X9450000Y-2074999D01*
G75*
G02*
X9699999Y-1825000I249999J0D01*
G01*
X10600001Y-1825000D01*
G75*
G02*
X10850000Y-2074999I0J-249999D01*
G01*
G37*
D10*
X9050000Y-22650000D03*
X6950000Y-22650000D03*
D14*
X34100000Y-18730000D03*
X34100000Y-19570000D03*
G36*
G01*
X24075000Y-30450000D02*
X24075000Y-30950000D01*
G75*
G02*
X23850000Y-31175000I-225000J0D01*
G01*
X23400000Y-31175000D01*
G75*
G02*
X23175000Y-30950000I0J225000D01*
G01*
X23175000Y-30450000D01*
G75*
G02*
X23400000Y-30225000I225000J0D01*
G01*
X23850000Y-30225000D01*
G75*
G02*
X24075000Y-30450000I0J-225000D01*
G01*
G37*
G36*
G01*
X25625000Y-30450000D02*
X25625000Y-30950000D01*
G75*
G02*
X25400000Y-31175000I-225000J0D01*
G01*
X24950000Y-31175000D01*
G75*
G02*
X24725000Y-30950000I0J225000D01*
G01*
X24725000Y-30450000D01*
G75*
G02*
X24950000Y-30225000I225000J0D01*
G01*
X25400000Y-30225000D01*
G75*
G02*
X25625000Y-30450000I0J-225000D01*
G01*
G37*
G36*
G01*
X24825000Y-26425000D02*
X24825000Y-25875000D01*
G75*
G02*
X25025000Y-25675000I200000J0D01*
G01*
X25425000Y-25675000D01*
G75*
G02*
X25625000Y-25875000I0J-200000D01*
G01*
X25625000Y-26425000D01*
G75*
G02*
X25425000Y-26625000I-200000J0D01*
G01*
X25025000Y-26625000D01*
G75*
G02*
X24825000Y-26425000I0J200000D01*
G01*
G37*
G36*
G01*
X23175000Y-26425000D02*
X23175000Y-25875000D01*
G75*
G02*
X23375000Y-25675000I200000J0D01*
G01*
X23775000Y-25675000D01*
G75*
G02*
X23975000Y-25875000I0J-200000D01*
G01*
X23975000Y-26425000D01*
G75*
G02*
X23775000Y-26625000I-200000J0D01*
G01*
X23375000Y-26625000D01*
G75*
G02*
X23175000Y-26425000I0J200000D01*
G01*
G37*
G36*
G01*
X24825000Y-29475000D02*
X24825000Y-28925000D01*
G75*
G02*
X25025000Y-28725000I200000J0D01*
G01*
X25425000Y-28725000D01*
G75*
G02*
X25625000Y-28925000I0J-200000D01*
G01*
X25625000Y-29475000D01*
G75*
G02*
X25425000Y-29675000I-200000J0D01*
G01*
X25025000Y-29675000D01*
G75*
G02*
X24825000Y-29475000I0J200000D01*
G01*
G37*
G36*
G01*
X23175000Y-29475000D02*
X23175000Y-28925000D01*
G75*
G02*
X23375000Y-28725000I200000J0D01*
G01*
X23775000Y-28725000D01*
G75*
G02*
X23975000Y-28925000I0J-200000D01*
G01*
X23975000Y-29475000D01*
G75*
G02*
X23775000Y-29675000I-200000J0D01*
G01*
X23375000Y-29675000D01*
G75*
G02*
X23175000Y-29475000I0J200000D01*
G01*
G37*
D15*
X18340000Y-25810000D03*
X18340000Y-30890000D03*
X13260000Y-30890000D03*
X13260000Y-25810000D03*
D16*
X15800000Y-28350000D03*
D10*
X6950000Y-20650000D03*
X9050000Y-20650000D03*
G36*
G01*
X33275000Y-11825000D02*
X33275000Y-12375000D01*
G75*
G02*
X33075000Y-12575000I-200000J0D01*
G01*
X32675000Y-12575000D01*
G75*
G02*
X32475000Y-12375000I0J200000D01*
G01*
X32475000Y-11825000D01*
G75*
G02*
X32675000Y-11625000I200000J0D01*
G01*
X33075000Y-11625000D01*
G75*
G02*
X33275000Y-11825000I0J-200000D01*
G01*
G37*
G36*
G01*
X34925000Y-11825000D02*
X34925000Y-12375000D01*
G75*
G02*
X34725000Y-12575000I-200000J0D01*
G01*
X34325000Y-12575000D01*
G75*
G02*
X34125000Y-12375000I0J200000D01*
G01*
X34125000Y-11825000D01*
G75*
G02*
X34325000Y-11625000I200000J0D01*
G01*
X34725000Y-11625000D01*
G75*
G02*
X34925000Y-11825000I0J-200000D01*
G01*
G37*
G36*
G01*
X34125000Y-15465000D02*
X34125000Y-14915000D01*
G75*
G02*
X34325000Y-14715000I200000J0D01*
G01*
X34725000Y-14715000D01*
G75*
G02*
X34925000Y-14915000I0J-200000D01*
G01*
X34925000Y-15465000D01*
G75*
G02*
X34725000Y-15665000I-200000J0D01*
G01*
X34325000Y-15665000D01*
G75*
G02*
X34125000Y-15465000I0J200000D01*
G01*
G37*
G36*
G01*
X32475000Y-15465000D02*
X32475000Y-14915000D01*
G75*
G02*
X32675000Y-14715000I200000J0D01*
G01*
X33075000Y-14715000D01*
G75*
G02*
X33275000Y-14915000I0J-200000D01*
G01*
X33275000Y-15465000D01*
G75*
G02*
X33075000Y-15665000I-200000J0D01*
G01*
X32675000Y-15665000D01*
G75*
G02*
X32475000Y-15465000I0J200000D01*
G01*
G37*
G36*
G01*
X34025000Y-17040000D02*
X34025000Y-16540000D01*
G75*
G02*
X34250000Y-16315000I225000J0D01*
G01*
X34700000Y-16315000D01*
G75*
G02*
X34925000Y-16540000I0J-225000D01*
G01*
X34925000Y-17040000D01*
G75*
G02*
X34700000Y-17265000I-225000J0D01*
G01*
X34250000Y-17265000D01*
G75*
G02*
X34025000Y-17040000I0J225000D01*
G01*
G37*
G36*
G01*
X32475000Y-17040000D02*
X32475000Y-16540000D01*
G75*
G02*
X32700000Y-16315000I225000J0D01*
G01*
X33150000Y-16315000D01*
G75*
G02*
X33375000Y-16540000I0J-225000D01*
G01*
X33375000Y-17040000D01*
G75*
G02*
X33150000Y-17265000I-225000J0D01*
G01*
X32700000Y-17265000D01*
G75*
G02*
X32475000Y-17040000I0J225000D01*
G01*
G37*
D17*
X7100000Y-13050000D03*
X9100000Y-12100000D03*
X9100000Y-14000000D03*
G36*
G01*
X10350000Y-13375000D02*
X10850000Y-13375000D01*
G75*
G02*
X11075000Y-13600000I0J-225000D01*
G01*
X11075000Y-14050000D01*
G75*
G02*
X10850000Y-14275000I-225000J0D01*
G01*
X10350000Y-14275000D01*
G75*
G02*
X10125000Y-14050000I0J225000D01*
G01*
X10125000Y-13600000D01*
G75*
G02*
X10350000Y-13375000I225000J0D01*
G01*
G37*
G36*
G01*
X10350000Y-11825000D02*
X10850000Y-11825000D01*
G75*
G02*
X11075000Y-12050000I0J-225000D01*
G01*
X11075000Y-12500000D01*
G75*
G02*
X10850000Y-12725000I-225000J0D01*
G01*
X10350000Y-12725000D01*
G75*
G02*
X10125000Y-12500000I0J225000D01*
G01*
X10125000Y-12050000D01*
G75*
G02*
X10350000Y-11825000I225000J0D01*
G01*
G37*
G36*
G01*
X8325000Y-15900000D02*
X8325000Y-15400000D01*
G75*
G02*
X8550000Y-15175000I225000J0D01*
G01*
X9000000Y-15175000D01*
G75*
G02*
X9225000Y-15400000I0J-225000D01*
G01*
X9225000Y-15900000D01*
G75*
G02*
X9000000Y-16125000I-225000J0D01*
G01*
X8550000Y-16125000D01*
G75*
G02*
X8325000Y-15900000I0J225000D01*
G01*
G37*
G36*
G01*
X6775000Y-15900000D02*
X6775000Y-15400000D01*
G75*
G02*
X7000000Y-15175000I225000J0D01*
G01*
X7450000Y-15175000D01*
G75*
G02*
X7675000Y-15400000I0J-225000D01*
G01*
X7675000Y-15900000D01*
G75*
G02*
X7450000Y-16125000I-225000J0D01*
G01*
X7000000Y-16125000D01*
G75*
G02*
X6775000Y-15900000I0J225000D01*
G01*
G37*
D18*
X39100000Y-6350000D03*
X39100000Y-3050000D03*
G36*
G01*
X43625000Y-16350000D02*
X43625000Y-15850000D01*
G75*
G02*
X43850000Y-15625000I225000J0D01*
G01*
X44300000Y-15625000D01*
G75*
G02*
X44525000Y-15850000I0J-225000D01*
G01*
X44525000Y-16350000D01*
G75*
G02*
X44300000Y-16575000I-225000J0D01*
G01*
X43850000Y-16575000D01*
G75*
G02*
X43625000Y-16350000I0J225000D01*
G01*
G37*
G36*
G01*
X42075000Y-16350000D02*
X42075000Y-15850000D01*
G75*
G02*
X42300000Y-15625000I225000J0D01*
G01*
X42750000Y-15625000D01*
G75*
G02*
X42975000Y-15850000I0J-225000D01*
G01*
X42975000Y-16350000D01*
G75*
G02*
X42750000Y-16575000I-225000J0D01*
G01*
X42300000Y-16575000D01*
G75*
G02*
X42075000Y-16350000I0J225000D01*
G01*
G37*
D19*
X43040000Y-11690000D03*
X43040000Y-11040000D03*
X43040000Y-10390000D03*
X43040000Y-9740000D03*
X43040000Y-9090000D03*
D20*
X43125000Y-12877500D03*
X43125000Y-7902500D03*
D21*
X45700000Y-13765000D03*
X45700000Y-7015000D03*
D22*
X45700000Y-11540000D03*
D23*
X45700000Y-8840000D03*
D24*
X4166726Y-29023274D03*
X3000000Y-28540000D03*
X1833274Y-29023274D03*
X1350000Y-30190000D03*
X1833274Y-31356726D03*
X3000000Y-31840000D03*
X4166726Y-31356726D03*
X4650000Y-30190000D03*
D25*
X3000000Y-30190000D03*
D24*
X45366726Y-29023274D03*
X44200000Y-28540000D03*
X43033274Y-29023274D03*
X42550000Y-30190000D03*
X43033274Y-31356726D03*
X44200000Y-31840000D03*
X45366726Y-31356726D03*
X45850000Y-30190000D03*
D25*
X44200000Y-30190000D03*
D24*
X45366726Y-1823274D03*
X44200000Y-1340000D03*
X43033274Y-1823274D03*
X42550000Y-2990000D03*
X43033274Y-4156726D03*
X44200000Y-4640000D03*
X45366726Y-4156726D03*
X45850000Y-2990000D03*
D25*
X44200000Y-2990000D03*
D24*
X4166726Y-1823274D03*
X3000000Y-1340000D03*
X1833274Y-1823274D03*
X1350000Y-2990000D03*
X1833274Y-4156726D03*
X3000000Y-4640000D03*
X4166726Y-4156726D03*
X4650000Y-2990000D03*
D25*
X3000000Y-2990000D03*
G36*
G01*
X8425000Y-24725000D02*
X8425000Y-24175000D01*
G75*
G02*
X8625000Y-23975000I200000J0D01*
G01*
X9025000Y-23975000D01*
G75*
G02*
X9225000Y-24175000I0J-200000D01*
G01*
X9225000Y-24725000D01*
G75*
G02*
X9025000Y-24925000I-200000J0D01*
G01*
X8625000Y-24925000D01*
G75*
G02*
X8425000Y-24725000I0J200000D01*
G01*
G37*
G36*
G01*
X6775000Y-24725000D02*
X6775000Y-24175000D01*
G75*
G02*
X6975000Y-23975000I200000J0D01*
G01*
X7375000Y-23975000D01*
G75*
G02*
X7575000Y-24175000I0J-200000D01*
G01*
X7575000Y-24725000D01*
G75*
G02*
X7375000Y-24925000I-200000J0D01*
G01*
X6975000Y-24925000D01*
G75*
G02*
X6775000Y-24725000I0J200000D01*
G01*
G37*
G36*
G01*
X8425000Y-19165000D02*
X8425000Y-18615000D01*
G75*
G02*
X8625000Y-18415000I200000J0D01*
G01*
X9025000Y-18415000D01*
G75*
G02*
X9225000Y-18615000I0J-200000D01*
G01*
X9225000Y-19165000D01*
G75*
G02*
X9025000Y-19365000I-200000J0D01*
G01*
X8625000Y-19365000D01*
G75*
G02*
X8425000Y-19165000I0J200000D01*
G01*
G37*
G36*
G01*
X6775000Y-19165000D02*
X6775000Y-18615000D01*
G75*
G02*
X6975000Y-18415000I200000J0D01*
G01*
X7375000Y-18415000D01*
G75*
G02*
X7575000Y-18615000I0J-200000D01*
G01*
X7575000Y-19165000D01*
G75*
G02*
X7375000Y-19365000I-200000J0D01*
G01*
X6975000Y-19365000D01*
G75*
G02*
X6775000Y-19165000I0J200000D01*
G01*
G37*
G36*
G01*
X8425000Y-17625000D02*
X8425000Y-17075000D01*
G75*
G02*
X8625000Y-16875000I200000J0D01*
G01*
X9025000Y-16875000D01*
G75*
G02*
X9225000Y-17075000I0J-200000D01*
G01*
X9225000Y-17625000D01*
G75*
G02*
X9025000Y-17825000I-200000J0D01*
G01*
X8625000Y-17825000D01*
G75*
G02*
X8425000Y-17625000I0J200000D01*
G01*
G37*
G36*
G01*
X6775000Y-17625000D02*
X6775000Y-17075000D01*
G75*
G02*
X6975000Y-16875000I200000J0D01*
G01*
X7375000Y-16875000D01*
G75*
G02*
X7575000Y-17075000I0J-200000D01*
G01*
X7575000Y-17625000D01*
G75*
G02*
X7375000Y-17825000I-200000J0D01*
G01*
X6975000Y-17825000D01*
G75*
G02*
X6775000Y-17625000I0J200000D01*
G01*
G37*
D26*
X2000000Y-11150000D03*
D27*
X4540000Y-11150000D03*
X2000000Y-13690000D03*
X4540000Y-13690000D03*
X2000000Y-16230000D03*
X4540000Y-16230000D03*
X2000000Y-18770000D03*
X4540000Y-18770000D03*
X2000000Y-21310000D03*
X4540000Y-21310000D03*
X2000000Y-23850000D03*
X4540000Y-23850000D03*
G36*
G01*
X33275000Y-6615000D02*
X33275000Y-7165000D01*
G75*
G02*
X33075000Y-7365000I-200000J0D01*
G01*
X32675000Y-7365000D01*
G75*
G02*
X32475000Y-7165000I0J200000D01*
G01*
X32475000Y-6615000D01*
G75*
G02*
X32675000Y-6415000I200000J0D01*
G01*
X33075000Y-6415000D01*
G75*
G02*
X33275000Y-6615000I0J-200000D01*
G01*
G37*
G36*
G01*
X34925000Y-6615000D02*
X34925000Y-7165000D01*
G75*
G02*
X34725000Y-7365000I-200000J0D01*
G01*
X34325000Y-7365000D01*
G75*
G02*
X34125000Y-7165000I0J200000D01*
G01*
X34125000Y-6615000D01*
G75*
G02*
X34325000Y-6415000I200000J0D01*
G01*
X34725000Y-6415000D01*
G75*
G02*
X34925000Y-6615000I0J-200000D01*
G01*
G37*
G36*
G01*
X33275000Y-5015000D02*
X33275000Y-5565000D01*
G75*
G02*
X33075000Y-5765000I-200000J0D01*
G01*
X32675000Y-5765000D01*
G75*
G02*
X32475000Y-5565000I0J200000D01*
G01*
X32475000Y-5015000D01*
G75*
G02*
X32675000Y-4815000I200000J0D01*
G01*
X33075000Y-4815000D01*
G75*
G02*
X33275000Y-5015000I0J-200000D01*
G01*
G37*
G36*
G01*
X34925000Y-5015000D02*
X34925000Y-5565000D01*
G75*
G02*
X34725000Y-5765000I-200000J0D01*
G01*
X34325000Y-5765000D01*
G75*
G02*
X34125000Y-5565000I0J200000D01*
G01*
X34125000Y-5015000D01*
G75*
G02*
X34325000Y-4815000I200000J0D01*
G01*
X34725000Y-4815000D01*
G75*
G02*
X34925000Y-5015000I0J-200000D01*
G01*
G37*
G36*
G01*
X8425000Y-7965000D02*
X8425000Y-7415000D01*
G75*
G02*
X8625000Y-7215000I200000J0D01*
G01*
X9025000Y-7215000D01*
G75*
G02*
X9225000Y-7415000I0J-200000D01*
G01*
X9225000Y-7965000D01*
G75*
G02*
X9025000Y-8165000I-200000J0D01*
G01*
X8625000Y-8165000D01*
G75*
G02*
X8425000Y-7965000I0J200000D01*
G01*
G37*
G36*
G01*
X6775000Y-7965000D02*
X6775000Y-7415000D01*
G75*
G02*
X6975000Y-7215000I200000J0D01*
G01*
X7375000Y-7215000D01*
G75*
G02*
X7575000Y-7415000I0J-200000D01*
G01*
X7575000Y-7965000D01*
G75*
G02*
X7375000Y-8165000I-200000J0D01*
G01*
X6975000Y-8165000D01*
G75*
G02*
X6775000Y-7965000I0J200000D01*
G01*
G37*
G36*
G01*
X8425000Y-9565000D02*
X8425000Y-9015000D01*
G75*
G02*
X8625000Y-8815000I200000J0D01*
G01*
X9025000Y-8815000D01*
G75*
G02*
X9225000Y-9015000I0J-200000D01*
G01*
X9225000Y-9565000D01*
G75*
G02*
X9025000Y-9765000I-200000J0D01*
G01*
X8625000Y-9765000D01*
G75*
G02*
X8425000Y-9565000I0J200000D01*
G01*
G37*
G36*
G01*
X6775000Y-9565000D02*
X6775000Y-9015000D01*
G75*
G02*
X6975000Y-8815000I200000J0D01*
G01*
X7375000Y-8815000D01*
G75*
G02*
X7575000Y-9015000I0J-200000D01*
G01*
X7575000Y-9565000D01*
G75*
G02*
X7375000Y-9765000I-200000J0D01*
G01*
X6975000Y-9765000D01*
G75*
G02*
X6775000Y-9565000I0J200000D01*
G01*
G37*
G36*
G01*
X34125000Y-3965000D02*
X34125000Y-3415000D01*
G75*
G02*
X34325000Y-3215000I200000J0D01*
G01*
X34725000Y-3215000D01*
G75*
G02*
X34925000Y-3415000I0J-200000D01*
G01*
X34925000Y-3965000D01*
G75*
G02*
X34725000Y-4165000I-200000J0D01*
G01*
X34325000Y-4165000D01*
G75*
G02*
X34125000Y-3965000I0J200000D01*
G01*
G37*
G36*
G01*
X32475000Y-3965000D02*
X32475000Y-3415000D01*
G75*
G02*
X32675000Y-3215000I200000J0D01*
G01*
X33075000Y-3215000D01*
G75*
G02*
X33275000Y-3415000I0J-200000D01*
G01*
X33275000Y-3965000D01*
G75*
G02*
X33075000Y-4165000I-200000J0D01*
G01*
X32675000Y-4165000D01*
G75*
G02*
X32475000Y-3965000I0J200000D01*
G01*
G37*
G36*
G01*
X10775000Y-9000000D02*
X10775000Y-9500000D01*
G75*
G02*
X10550000Y-9725000I-225000J0D01*
G01*
X10100000Y-9725000D01*
G75*
G02*
X9875000Y-9500000I0J225000D01*
G01*
X9875000Y-9000000D01*
G75*
G02*
X10100000Y-8775000I225000J0D01*
G01*
X10550000Y-8775000D01*
G75*
G02*
X10775000Y-9000000I0J-225000D01*
G01*
G37*
G36*
G01*
X12325000Y-9000000D02*
X12325000Y-9500000D01*
G75*
G02*
X12100000Y-9725000I-225000J0D01*
G01*
X11650000Y-9725000D01*
G75*
G02*
X11425000Y-9500000I0J225000D01*
G01*
X11425000Y-9000000D01*
G75*
G02*
X11650000Y-8775000I225000J0D01*
G01*
X12100000Y-8775000D01*
G75*
G02*
X12325000Y-9000000I0J-225000D01*
G01*
G37*
G36*
G01*
X12900000Y-3890000D02*
X12900000Y-3490000D01*
G75*
G02*
X13100000Y-3290000I200000J0D01*
G01*
X14500000Y-3290000D01*
G75*
G02*
X14700000Y-3490000I0J-200000D01*
G01*
X14700000Y-3890000D01*
G75*
G02*
X14500000Y-4090000I-200000J0D01*
G01*
X13100000Y-4090000D01*
G75*
G02*
X12900000Y-3890000I0J200000D01*
G01*
G37*
G36*
G01*
X12900000Y-4990000D02*
X12900000Y-4590000D01*
G75*
G02*
X13100000Y-4390000I200000J0D01*
G01*
X14500000Y-4390000D01*
G75*
G02*
X14700000Y-4590000I0J-200000D01*
G01*
X14700000Y-4990000D01*
G75*
G02*
X14500000Y-5190000I-200000J0D01*
G01*
X13100000Y-5190000D01*
G75*
G02*
X12900000Y-4990000I0J200000D01*
G01*
G37*
G36*
G01*
X12900000Y-6090000D02*
X12900000Y-5690000D01*
G75*
G02*
X13100000Y-5490000I200000J0D01*
G01*
X14500000Y-5490000D01*
G75*
G02*
X14700000Y-5690000I0J-200000D01*
G01*
X14700000Y-6090000D01*
G75*
G02*
X14500000Y-6290000I-200000J0D01*
G01*
X13100000Y-6290000D01*
G75*
G02*
X12900000Y-6090000I0J200000D01*
G01*
G37*
G36*
G01*
X12900000Y-7190000D02*
X12900000Y-6790000D01*
G75*
G02*
X13100000Y-6590000I200000J0D01*
G01*
X14500000Y-6590000D01*
G75*
G02*
X14700000Y-6790000I0J-200000D01*
G01*
X14700000Y-7190000D01*
G75*
G02*
X14500000Y-7390000I-200000J0D01*
G01*
X13100000Y-7390000D01*
G75*
G02*
X12900000Y-7190000I0J200000D01*
G01*
G37*
G36*
G01*
X12900000Y-8290000D02*
X12900000Y-7890000D01*
G75*
G02*
X13100000Y-7690000I200000J0D01*
G01*
X14500000Y-7690000D01*
G75*
G02*
X14700000Y-7890000I0J-200000D01*
G01*
X14700000Y-8290000D01*
G75*
G02*
X14500000Y-8490000I-200000J0D01*
G01*
X13100000Y-8490000D01*
G75*
G02*
X12900000Y-8290000I0J200000D01*
G01*
G37*
G36*
G01*
X12900000Y-9390000D02*
X12900000Y-8990000D01*
G75*
G02*
X13100000Y-8790000I200000J0D01*
G01*
X14500000Y-8790000D01*
G75*
G02*
X14700000Y-8990000I0J-200000D01*
G01*
X14700000Y-9390000D01*
G75*
G02*
X14500000Y-9590000I-200000J0D01*
G01*
X13100000Y-9590000D01*
G75*
G02*
X12900000Y-9390000I0J200000D01*
G01*
G37*
G36*
G01*
X12900000Y-10490000D02*
X12900000Y-10090000D01*
G75*
G02*
X13100000Y-9890000I200000J0D01*
G01*
X14500000Y-9890000D01*
G75*
G02*
X14700000Y-10090000I0J-200000D01*
G01*
X14700000Y-10490000D01*
G75*
G02*
X14500000Y-10690000I-200000J0D01*
G01*
X13100000Y-10690000D01*
G75*
G02*
X12900000Y-10490000I0J200000D01*
G01*
G37*
G36*
G01*
X12900000Y-11590000D02*
X12900000Y-11190000D01*
G75*
G02*
X13100000Y-10990000I200000J0D01*
G01*
X14500000Y-10990000D01*
G75*
G02*
X14700000Y-11190000I0J-200000D01*
G01*
X14700000Y-11590000D01*
G75*
G02*
X14500000Y-11790000I-200000J0D01*
G01*
X13100000Y-11790000D01*
G75*
G02*
X12900000Y-11590000I0J200000D01*
G01*
G37*
G36*
G01*
X12900000Y-15390000D02*
X12900000Y-14990000D01*
G75*
G02*
X13100000Y-14790000I200000J0D01*
G01*
X14500000Y-14790000D01*
G75*
G02*
X14700000Y-14990000I0J-200000D01*
G01*
X14700000Y-15390000D01*
G75*
G02*
X14500000Y-15590000I-200000J0D01*
G01*
X13100000Y-15590000D01*
G75*
G02*
X12900000Y-15390000I0J200000D01*
G01*
G37*
G36*
G01*
X12900000Y-16490000D02*
X12900000Y-16090000D01*
G75*
G02*
X13100000Y-15890000I200000J0D01*
G01*
X14500000Y-15890000D01*
G75*
G02*
X14700000Y-16090000I0J-200000D01*
G01*
X14700000Y-16490000D01*
G75*
G02*
X14500000Y-16690000I-200000J0D01*
G01*
X13100000Y-16690000D01*
G75*
G02*
X12900000Y-16490000I0J200000D01*
G01*
G37*
G36*
G01*
X12900000Y-17590000D02*
X12900000Y-17190000D01*
G75*
G02*
X13100000Y-16990000I200000J0D01*
G01*
X14500000Y-16990000D01*
G75*
G02*
X14700000Y-17190000I0J-200000D01*
G01*
X14700000Y-17590000D01*
G75*
G02*
X14500000Y-17790000I-200000J0D01*
G01*
X13100000Y-17790000D01*
G75*
G02*
X12900000Y-17590000I0J200000D01*
G01*
G37*
G36*
G01*
X12900000Y-18690000D02*
X12900000Y-18290000D01*
G75*
G02*
X13100000Y-18090000I200000J0D01*
G01*
X14500000Y-18090000D01*
G75*
G02*
X14700000Y-18290000I0J-200000D01*
G01*
X14700000Y-18690000D01*
G75*
G02*
X14500000Y-18890000I-200000J0D01*
G01*
X13100000Y-18890000D01*
G75*
G02*
X12900000Y-18690000I0J200000D01*
G01*
G37*
G36*
G01*
X12900000Y-19790000D02*
X12900000Y-19390000D01*
G75*
G02*
X13100000Y-19190000I200000J0D01*
G01*
X14500000Y-19190000D01*
G75*
G02*
X14700000Y-19390000I0J-200000D01*
G01*
X14700000Y-19790000D01*
G75*
G02*
X14500000Y-19990000I-200000J0D01*
G01*
X13100000Y-19990000D01*
G75*
G02*
X12900000Y-19790000I0J200000D01*
G01*
G37*
G36*
G01*
X12900000Y-20890000D02*
X12900000Y-20490000D01*
G75*
G02*
X13100000Y-20290000I200000J0D01*
G01*
X14500000Y-20290000D01*
G75*
G02*
X14700000Y-20490000I0J-200000D01*
G01*
X14700000Y-20890000D01*
G75*
G02*
X14500000Y-21090000I-200000J0D01*
G01*
X13100000Y-21090000D01*
G75*
G02*
X12900000Y-20890000I0J200000D01*
G01*
G37*
G36*
G01*
X29700000Y-20890000D02*
X29700000Y-20490000D01*
G75*
G02*
X29900000Y-20290000I200000J0D01*
G01*
X31300000Y-20290000D01*
G75*
G02*
X31500000Y-20490000I0J-200000D01*
G01*
X31500000Y-20890000D01*
G75*
G02*
X31300000Y-21090000I-200000J0D01*
G01*
X29900000Y-21090000D01*
G75*
G02*
X29700000Y-20890000I0J200000D01*
G01*
G37*
G36*
G01*
X29700000Y-19790000D02*
X29700000Y-19390000D01*
G75*
G02*
X29900000Y-19190000I200000J0D01*
G01*
X31300000Y-19190000D01*
G75*
G02*
X31500000Y-19390000I0J-200000D01*
G01*
X31500000Y-19790000D01*
G75*
G02*
X31300000Y-19990000I-200000J0D01*
G01*
X29900000Y-19990000D01*
G75*
G02*
X29700000Y-19790000I0J200000D01*
G01*
G37*
G36*
G01*
X29700000Y-18690000D02*
X29700000Y-18290000D01*
G75*
G02*
X29900000Y-18090000I200000J0D01*
G01*
X31300000Y-18090000D01*
G75*
G02*
X31500000Y-18290000I0J-200000D01*
G01*
X31500000Y-18690000D01*
G75*
G02*
X31300000Y-18890000I-200000J0D01*
G01*
X29900000Y-18890000D01*
G75*
G02*
X29700000Y-18690000I0J200000D01*
G01*
G37*
G36*
G01*
X29700000Y-17590000D02*
X29700000Y-17190000D01*
G75*
G02*
X29900000Y-16990000I200000J0D01*
G01*
X31300000Y-16990000D01*
G75*
G02*
X31500000Y-17190000I0J-200000D01*
G01*
X31500000Y-17590000D01*
G75*
G02*
X31300000Y-17790000I-200000J0D01*
G01*
X29900000Y-17790000D01*
G75*
G02*
X29700000Y-17590000I0J200000D01*
G01*
G37*
G36*
G01*
X29700000Y-16490000D02*
X29700000Y-16090000D01*
G75*
G02*
X29900000Y-15890000I200000J0D01*
G01*
X31300000Y-15890000D01*
G75*
G02*
X31500000Y-16090000I0J-200000D01*
G01*
X31500000Y-16490000D01*
G75*
G02*
X31300000Y-16690000I-200000J0D01*
G01*
X29900000Y-16690000D01*
G75*
G02*
X29700000Y-16490000I0J200000D01*
G01*
G37*
G36*
G01*
X29700000Y-15390000D02*
X29700000Y-14990000D01*
G75*
G02*
X29900000Y-14790000I200000J0D01*
G01*
X31300000Y-14790000D01*
G75*
G02*
X31500000Y-14990000I0J-200000D01*
G01*
X31500000Y-15390000D01*
G75*
G02*
X31300000Y-15590000I-200000J0D01*
G01*
X29900000Y-15590000D01*
G75*
G02*
X29700000Y-15390000I0J200000D01*
G01*
G37*
G36*
G01*
X29700000Y-11590000D02*
X29700000Y-11190000D01*
G75*
G02*
X29900000Y-10990000I200000J0D01*
G01*
X31300000Y-10990000D01*
G75*
G02*
X31500000Y-11190000I0J-200000D01*
G01*
X31500000Y-11590000D01*
G75*
G02*
X31300000Y-11790000I-200000J0D01*
G01*
X29900000Y-11790000D01*
G75*
G02*
X29700000Y-11590000I0J200000D01*
G01*
G37*
G36*
G01*
X29700000Y-10490000D02*
X29700000Y-10090000D01*
G75*
G02*
X29900000Y-9890000I200000J0D01*
G01*
X31300000Y-9890000D01*
G75*
G02*
X31500000Y-10090000I0J-200000D01*
G01*
X31500000Y-10490000D01*
G75*
G02*
X31300000Y-10690000I-200000J0D01*
G01*
X29900000Y-10690000D01*
G75*
G02*
X29700000Y-10490000I0J200000D01*
G01*
G37*
G36*
G01*
X29700000Y-9390000D02*
X29700000Y-8990000D01*
G75*
G02*
X29900000Y-8790000I200000J0D01*
G01*
X31300000Y-8790000D01*
G75*
G02*
X31500000Y-8990000I0J-200000D01*
G01*
X31500000Y-9390000D01*
G75*
G02*
X31300000Y-9590000I-200000J0D01*
G01*
X29900000Y-9590000D01*
G75*
G02*
X29700000Y-9390000I0J200000D01*
G01*
G37*
G36*
G01*
X29700000Y-8290000D02*
X29700000Y-7890000D01*
G75*
G02*
X29900000Y-7690000I200000J0D01*
G01*
X31300000Y-7690000D01*
G75*
G02*
X31500000Y-7890000I0J-200000D01*
G01*
X31500000Y-8290000D01*
G75*
G02*
X31300000Y-8490000I-200000J0D01*
G01*
X29900000Y-8490000D01*
G75*
G02*
X29700000Y-8290000I0J200000D01*
G01*
G37*
G36*
G01*
X29700000Y-7190000D02*
X29700000Y-6790000D01*
G75*
G02*
X29900000Y-6590000I200000J0D01*
G01*
X31300000Y-6590000D01*
G75*
G02*
X31500000Y-6790000I0J-200000D01*
G01*
X31500000Y-7190000D01*
G75*
G02*
X31300000Y-7390000I-200000J0D01*
G01*
X29900000Y-7390000D01*
G75*
G02*
X29700000Y-7190000I0J200000D01*
G01*
G37*
G36*
G01*
X29700000Y-6090000D02*
X29700000Y-5690000D01*
G75*
G02*
X29900000Y-5490000I200000J0D01*
G01*
X31300000Y-5490000D01*
G75*
G02*
X31500000Y-5690000I0J-200000D01*
G01*
X31500000Y-6090000D01*
G75*
G02*
X31300000Y-6290000I-200000J0D01*
G01*
X29900000Y-6290000D01*
G75*
G02*
X29700000Y-6090000I0J200000D01*
G01*
G37*
G36*
G01*
X29700000Y-4990000D02*
X29700000Y-4590000D01*
G75*
G02*
X29900000Y-4390000I200000J0D01*
G01*
X31300000Y-4390000D01*
G75*
G02*
X31500000Y-4590000I0J-200000D01*
G01*
X31500000Y-4990000D01*
G75*
G02*
X31300000Y-5190000I-200000J0D01*
G01*
X29900000Y-5190000D01*
G75*
G02*
X29700000Y-4990000I0J200000D01*
G01*
G37*
G36*
G01*
X29700000Y-3890000D02*
X29700000Y-3490000D01*
G75*
G02*
X29900000Y-3290000I200000J0D01*
G01*
X31300000Y-3290000D01*
G75*
G02*
X31500000Y-3490000I0J-200000D01*
G01*
X31500000Y-3890000D01*
G75*
G02*
X31300000Y-4090000I-200000J0D01*
G01*
X29900000Y-4090000D01*
G75*
G02*
X29700000Y-3890000I0J200000D01*
G01*
G37*
D15*
X40260000Y-23730000D03*
X40260000Y-18650000D03*
X45340000Y-18650000D03*
X45340000Y-23730000D03*
D16*
X42800000Y-21190000D03*
M02*
