G04 #@! TF.GenerationSoftware,KiCad,Pcbnew,5.1.8-5.1.8*
G04 #@! TF.CreationDate,2021-01-02T12:51:55+01:00*
G04 #@! TF.ProjectId,ublox-breakout,75626c6f-782d-4627-9265-616b6f75742e,rev?*
G04 #@! TF.SameCoordinates,PX71f6ce0PY7cfd120*
G04 #@! TF.FileFunction,Soldermask,Bot*
G04 #@! TF.FilePolarity,Negative*
%FSLAX46Y46*%
G04 Gerber Fmt 4.6, Leading zero omitted, Abs format (unit mm)*
G04 Created by KiCad (PCBNEW 5.1.8-5.1.8) date 2021-01-02 12:51:55*
%MOMM*%
%LPD*%
G01*
G04 APERTURE LIST*
%ADD10C,2.250000*%
%ADD11C,2.050000*%
%ADD12C,10.200000*%
%ADD13R,3.300000X3.500000*%
%ADD14C,0.700000*%
%ADD15C,4.400000*%
%ADD16R,1.700000X1.700000*%
%ADD17O,1.700000X1.700000*%
G04 APERTURE END LIST*
D10*
X19340000Y7440000D03*
X19340000Y2360000D03*
X14260000Y2360000D03*
X14260000Y7440000D03*
D11*
X16800000Y4900000D03*
D12*
X23200000Y20900000D03*
D13*
X23200000Y13000000D03*
X23200000Y28800000D03*
D14*
X4166726Y4226726D03*
X3000000Y4710000D03*
X1833274Y4226726D03*
X1350000Y3060000D03*
X1833274Y1893274D03*
X3000000Y1410000D03*
X4166726Y1893274D03*
X4650000Y3060000D03*
D15*
X3000000Y3060000D03*
D14*
X45366726Y4226726D03*
X44200000Y4710000D03*
X43033274Y4226726D03*
X42550000Y3060000D03*
X43033274Y1893274D03*
X44200000Y1410000D03*
X45366726Y1893274D03*
X45850000Y3060000D03*
D15*
X44200000Y3060000D03*
D14*
X45366726Y31426726D03*
X44200000Y31910000D03*
X43033274Y31426726D03*
X42550000Y30260000D03*
X43033274Y29093274D03*
X44200000Y28610000D03*
X45366726Y29093274D03*
X45850000Y30260000D03*
D15*
X44200000Y30260000D03*
D14*
X4166726Y31426726D03*
X3000000Y31910000D03*
X1833274Y31426726D03*
X1350000Y30260000D03*
X1833274Y29093274D03*
X3000000Y28610000D03*
X4166726Y29093274D03*
X4650000Y30260000D03*
D15*
X3000000Y30260000D03*
D16*
X2000000Y22100000D03*
D17*
X4540000Y22100000D03*
X2000000Y19560000D03*
X4540000Y19560000D03*
X2000000Y17020000D03*
X4540000Y17020000D03*
X2000000Y14480000D03*
X4540000Y14480000D03*
X2000000Y11940000D03*
X4540000Y11940000D03*
X2000000Y9400000D03*
X4540000Y9400000D03*
D10*
X40260000Y9520000D03*
X40260000Y14600000D03*
X45340000Y14600000D03*
X45340000Y9520000D03*
D11*
X42800000Y12060000D03*
M02*
