M48
; DRILL file {KiCad 5.1.8-5.1.8} date Sat Dec 12 11:37:09 2020
; FORMAT={-:-/ absolute / metric / decimal}
; #@! TF.CreationDate,2020-12-12T11:37:09+01:00
; #@! TF.GenerationSoftware,Kicad,Pcbnew,5.1.8-5.1.8
FMAT,2
METRIC
T1C0.400
T2C1.000
T3C1.500
T4C1.700
T5C2.200
%
G90
G05
T1
X6.1Y27.4
X6.1Y26.5
X6.1Y25.3
X6.1Y20.7
X6.1Y19.4
X6.1Y18.2
X9.8Y27.9
X9.8Y9.2
X9.9Y13.5
X9.9Y12.5
X10.9Y27.0
X11.0Y11.6
X11.6Y19.5
X11.9Y29.2
X11.9Y28.3
X12.1Y20.2
X12.2Y24.2
X12.2Y23.0
X12.2Y17.6
X12.2Y16.5
X12.4Y14.0
X15.4Y18.7
X15.4Y17.6
X15.4Y10.5
X15.4Y8.2
X15.4Y7.2
X17.8Y30.4
X19.5Y30.4
X21.2Y30.4
X28.2Y28.8
X29.0Y23.0
X29.0Y12.6
X29.0Y9.4
X29.0Y7.2
X30.6Y6.2
X32.1Y9.5
X32.4Y7.1
X33.421Y9.5
X34.7Y7.1
X34.832Y9.5
X35.5Y26.1
X35.5Y10.4
X35.6Y14.1
X35.7Y12.1
X36.0Y27.0
X36.225Y9.62
X36.4Y7.2
X37.299Y10.526
X37.5Y7.6
X38.5Y8.4
X38.575Y11.104
X39.8Y22.2
X39.8Y14.6
X41.0Y23.0
X41.0Y18.1
X42.7Y23.65
X42.7Y17.95
X43.55Y22.95
X43.55Y18.65
X45.1Y20.2
X45.1Y19.1
X45.4Y24.65
X45.4Y17.9
X45.7Y22.35
X46.0Y23.7
X46.0Y17.0
X46.3Y20.2
X46.3Y19.1
X1.35Y28.2
X1.833Y29.367
X1.833Y27.033
X3.0Y29.85
X3.0Y26.55
X4.167Y29.367
X4.167Y27.033
X4.65Y28.2
X42.55Y3.0
X43.033Y4.167
X43.033Y1.833
X44.2Y4.65
X44.2Y1.35
X45.367Y4.167
X45.367Y1.833
X45.85Y3.0
X8.0Y3.0
X8.483Y4.167
X8.483Y1.833
X9.65Y4.65
X9.65Y1.35
X10.817Y4.167
X10.817Y1.833
X11.3Y3.0
X42.55Y28.2
X43.033Y29.367
X43.033Y27.033
X44.2Y29.85
X44.2Y26.55
X45.367Y29.367
X45.367Y27.033
X45.85Y28.2
T2
X2.0Y17.5
X2.0Y14.96
X2.0Y12.42
X2.0Y9.88
X2.0Y7.34
X2.0Y4.8
X4.54Y17.5
X4.54Y14.96
X4.54Y12.42
X4.54Y9.88
X4.54Y7.34
X4.54Y4.8
T3
X42.8Y10.0
T4
X40.26Y12.54
X40.26Y7.46
X45.34Y12.54
X45.34Y7.46
T5
X3.0Y28.2
X44.2Y3.0
X9.65Y3.0
X44.2Y28.2
T0
M30
