G04 #@! TF.GenerationSoftware,KiCad,Pcbnew,5.1.8-5.1.8*
G04 #@! TF.CreationDate,2021-01-02T12:51:55+01:00*
G04 #@! TF.ProjectId,ublox-breakout,75626c6f-782d-4627-9265-616b6f75742e,rev?*
G04 #@! TF.SameCoordinates,PX71f6ce0PY7cfd120*
G04 #@! TF.FileFunction,Legend,Top*
G04 #@! TF.FilePolarity,Positive*
%FSLAX46Y46*%
G04 Gerber Fmt 4.6, Leading zero omitted, Abs format (unit mm)*
G04 Created by KiCad (PCBNEW 5.1.8-5.1.8) date 2021-01-02 12:51:55*
%MOMM*%
%LPD*%
G01*
G04 APERTURE LIST*
%ADD10C,0.150000*%
%ADD11C,0.200000*%
%ADD12C,0.120000*%
%ADD13C,0.010000*%
%ADD14R,0.450000X1.450000*%
%ADD15R,0.650000X1.060000*%
%ADD16R,0.800000X0.900000*%
%ADD17R,0.600000X0.450000*%
%ADD18R,0.250000X0.360000*%
%ADD19C,2.250000*%
%ADD20C,2.050000*%
%ADD21R,0.900000X0.800000*%
%ADD22R,1.200000X0.900000*%
%ADD23R,1.380000X0.450000*%
%ADD24R,1.550000X1.425000*%
%ADD25R,1.300000X1.650000*%
%ADD26R,1.900000X1.800000*%
%ADD27R,1.900000X1.000000*%
%ADD28C,0.700000*%
%ADD29C,4.400000*%
%ADD30R,1.700000X1.700000*%
%ADD31O,1.700000X1.700000*%
G04 APERTURE END LIST*
D10*
X6757142Y4492858D02*
X6757142Y5392858D01*
X7100000Y5392858D01*
X7185714Y5350000D01*
X7228571Y5307143D01*
X7271428Y5221429D01*
X7271428Y5092858D01*
X7228571Y5007143D01*
X7185714Y4964286D01*
X7100000Y4921429D01*
X6757142Y4921429D01*
X7657142Y4492858D02*
X7657142Y5392858D01*
X8000000Y5392858D01*
X8085714Y5350000D01*
X8128571Y5307143D01*
X8171428Y5221429D01*
X8171428Y5092858D01*
X8128571Y5007143D01*
X8085714Y4964286D01*
X8000000Y4921429D01*
X7657142Y4921429D01*
X8514285Y4535715D02*
X8642857Y4492858D01*
X8857142Y4492858D01*
X8942857Y4535715D01*
X8985714Y4578572D01*
X9028571Y4664286D01*
X9028571Y4750000D01*
X8985714Y4835715D01*
X8942857Y4878572D01*
X8857142Y4921429D01*
X8685714Y4964286D01*
X8600000Y5007143D01*
X8557142Y5050000D01*
X8514285Y5135715D01*
X8514285Y5221429D01*
X8557142Y5307143D01*
X8600000Y5350000D01*
X8685714Y5392858D01*
X8900000Y5392858D01*
X9028571Y5350000D01*
X10271428Y5392858D02*
X10442857Y5392858D01*
X10528571Y5350000D01*
X10614285Y5264286D01*
X10657142Y5092858D01*
X10657142Y4792858D01*
X10614285Y4621429D01*
X10528571Y4535715D01*
X10442857Y4492858D01*
X10271428Y4492858D01*
X10185714Y4535715D01*
X10100000Y4621429D01*
X10057142Y4792858D01*
X10057142Y5092858D01*
X10100000Y5264286D01*
X10185714Y5350000D01*
X10271428Y5392858D01*
X11042857Y5392858D02*
X11042857Y4664286D01*
X11085714Y4578572D01*
X11128571Y4535715D01*
X11214285Y4492858D01*
X11385714Y4492858D01*
X11471428Y4535715D01*
X11514285Y4578572D01*
X11557142Y4664286D01*
X11557142Y5392858D01*
X11857142Y5392858D02*
X12371428Y5392858D01*
X12114285Y4492858D02*
X12114285Y5392858D01*
X40614285Y7350000D02*
X40528571Y7392858D01*
X40400000Y7392858D01*
X40271428Y7350000D01*
X40185714Y7264286D01*
X40142857Y7178572D01*
X40100000Y7007143D01*
X40100000Y6878572D01*
X40142857Y6707143D01*
X40185714Y6621429D01*
X40271428Y6535715D01*
X40400000Y6492858D01*
X40485714Y6492858D01*
X40614285Y6535715D01*
X40657142Y6578572D01*
X40657142Y6878572D01*
X40485714Y6878572D01*
X41042857Y6492858D02*
X41042857Y7392858D01*
X41385714Y7392858D01*
X41471428Y7350000D01*
X41514285Y7307143D01*
X41557142Y7221429D01*
X41557142Y7092858D01*
X41514285Y7007143D01*
X41471428Y6964286D01*
X41385714Y6921429D01*
X41042857Y6921429D01*
X41900000Y6535715D02*
X42028571Y6492858D01*
X42242857Y6492858D01*
X42328571Y6535715D01*
X42371428Y6578572D01*
X42414285Y6664286D01*
X42414285Y6750000D01*
X42371428Y6835715D01*
X42328571Y6878572D01*
X42242857Y6921429D01*
X42071428Y6964286D01*
X41985714Y7007143D01*
X41942857Y7050000D01*
X41900000Y7135715D01*
X41900000Y7221429D01*
X41942857Y7307143D01*
X41985714Y7350000D01*
X42071428Y7392858D01*
X42285714Y7392858D01*
X42414285Y7350000D01*
X43442857Y6750000D02*
X43871428Y6750000D01*
X43357142Y6492858D02*
X43657142Y7392858D01*
X43957142Y6492858D01*
X44257142Y6492858D02*
X44257142Y7392858D01*
X44771428Y6492858D01*
X44771428Y7392858D01*
X45071428Y7392858D02*
X45585714Y7392858D01*
X45328571Y6492858D02*
X45328571Y7392858D01*
X40507142Y2000000D02*
X39607142Y2000000D01*
X39607142Y2342858D01*
X39650000Y2428572D01*
X39692857Y2471429D01*
X39778571Y2514286D01*
X39907142Y2514286D01*
X39992857Y2471429D01*
X40035714Y2428572D01*
X40078571Y2342858D01*
X40078571Y2000000D01*
X39607142Y2814286D02*
X40507142Y3028572D01*
X39864285Y3200000D01*
X40507142Y3371429D01*
X39607142Y3585715D01*
X40507142Y4442858D02*
X40078571Y4142858D01*
X40507142Y3928572D02*
X39607142Y3928572D01*
X39607142Y4271429D01*
X39650000Y4357143D01*
X39692857Y4400000D01*
X39778571Y4442858D01*
X39907142Y4442858D01*
X39992857Y4400000D01*
X40035714Y4357143D01*
X40078571Y4271429D01*
X40078571Y3928572D01*
X32307142Y2085715D02*
X31407142Y2085715D01*
X31407142Y2428572D01*
X31450000Y2514286D01*
X31492857Y2557143D01*
X31578571Y2600000D01*
X31707142Y2600000D01*
X31792857Y2557143D01*
X31835714Y2514286D01*
X31878571Y2428572D01*
X31878571Y2085715D01*
X32307142Y2985715D02*
X31407142Y2985715D01*
X31407142Y3328572D01*
X31450000Y3414286D01*
X31492857Y3457143D01*
X31578571Y3500000D01*
X31707142Y3500000D01*
X31792857Y3457143D01*
X31835714Y3414286D01*
X31878571Y3328572D01*
X31878571Y2985715D01*
X32264285Y3842858D02*
X32307142Y3971429D01*
X32307142Y4185715D01*
X32264285Y4271429D01*
X32221428Y4314286D01*
X32135714Y4357143D01*
X32050000Y4357143D01*
X31964285Y4314286D01*
X31921428Y4271429D01*
X31878571Y4185715D01*
X31835714Y4014286D01*
X31792857Y3928572D01*
X31750000Y3885715D01*
X31664285Y3842858D01*
X31578571Y3842858D01*
X31492857Y3885715D01*
X31450000Y3928572D01*
X31407142Y4014286D01*
X31407142Y4228572D01*
X31450000Y4357143D01*
D11*
X35400000Y10025000D02*
G75*
G03*
X35400000Y10025000I-1650000J0D01*
G01*
X35400000Y23750000D02*
G75*
G03*
X35400000Y23750000I-1650000J0D01*
G01*
D10*
X26257142Y12381429D02*
X26857142Y12381429D01*
X26257142Y11995715D02*
X26728571Y11995715D01*
X26814285Y12038572D01*
X26857142Y12124286D01*
X26857142Y12252858D01*
X26814285Y12338572D01*
X26771428Y12381429D01*
X26514285Y12810000D02*
X26514285Y13495715D01*
X26857142Y13924286D02*
X25957142Y13924286D01*
X26300000Y13924286D02*
X26257142Y14010000D01*
X26257142Y14181429D01*
X26300000Y14267143D01*
X26342857Y14310000D01*
X26428571Y14352858D01*
X26685714Y14352858D01*
X26771428Y14310000D01*
X26814285Y14267143D01*
X26857142Y14181429D01*
X26857142Y14010000D01*
X26814285Y13924286D01*
X26857142Y14867143D02*
X26814285Y14781429D01*
X26728571Y14738572D01*
X25957142Y14738572D01*
X26857142Y15338572D02*
X26814285Y15252858D01*
X26771428Y15210000D01*
X26685714Y15167143D01*
X26428571Y15167143D01*
X26342857Y15210000D01*
X26300000Y15252858D01*
X26257142Y15338572D01*
X26257142Y15467143D01*
X26300000Y15552858D01*
X26342857Y15595715D01*
X26428571Y15638572D01*
X26685714Y15638572D01*
X26771428Y15595715D01*
X26814285Y15552858D01*
X26857142Y15467143D01*
X26857142Y15338572D01*
X26857142Y15938572D02*
X26257142Y16410000D01*
X26257142Y15938572D02*
X26857142Y16410000D01*
X26857142Y17867143D02*
X26857142Y17438572D01*
X25957142Y17438572D01*
X26385714Y18167143D02*
X26385714Y18467143D01*
X26857142Y18595715D02*
X26857142Y18167143D01*
X25957142Y18167143D01*
X25957142Y18595715D01*
X26600000Y18938572D02*
X26600000Y19367143D01*
X26857142Y18852858D02*
X25957142Y19152858D01*
X26857142Y19452858D01*
X26514285Y19752858D02*
X26514285Y20438572D01*
X26857142Y20867143D02*
X25957142Y20867143D01*
X26600000Y21167143D01*
X25957142Y21467143D01*
X26857142Y21467143D01*
X26342857Y22024286D02*
X26300000Y21938572D01*
X26257142Y21895715D01*
X26171428Y21852858D01*
X26128571Y21852858D01*
X26042857Y21895715D01*
X26000000Y21938572D01*
X25957142Y22024286D01*
X25957142Y22195715D01*
X26000000Y22281429D01*
X26042857Y22324286D01*
X26128571Y22367143D01*
X26171428Y22367143D01*
X26257142Y22324286D01*
X26300000Y22281429D01*
X26342857Y22195715D01*
X26342857Y22024286D01*
X26385714Y21938572D01*
X26428571Y21895715D01*
X26514285Y21852858D01*
X26685714Y21852858D01*
X26771428Y21895715D01*
X26814285Y21938572D01*
X26857142Y22024286D01*
X26857142Y22195715D01*
X26814285Y22281429D01*
X26771428Y22324286D01*
X26685714Y22367143D01*
X26514285Y22367143D01*
X26428571Y22324286D01*
X26385714Y22281429D01*
X26342857Y22195715D01*
X26385714Y23738572D02*
X26428571Y23867143D01*
X26471428Y23910000D01*
X26557142Y23952858D01*
X26685714Y23952858D01*
X26771428Y23910000D01*
X26814285Y23867143D01*
X26857142Y23781429D01*
X26857142Y23438572D01*
X25957142Y23438572D01*
X25957142Y23738572D01*
X26000000Y23824286D01*
X26042857Y23867143D01*
X26128571Y23910000D01*
X26214285Y23910000D01*
X26300000Y23867143D01*
X26342857Y23824286D01*
X26385714Y23738572D01*
X26385714Y23438572D01*
X26857142Y24338572D02*
X26257142Y24338572D01*
X26428571Y24338572D02*
X26342857Y24381429D01*
X26300000Y24424286D01*
X26257142Y24510000D01*
X26257142Y24595715D01*
X26814285Y25238572D02*
X26857142Y25152858D01*
X26857142Y24981429D01*
X26814285Y24895715D01*
X26728571Y24852858D01*
X26385714Y24852858D01*
X26300000Y24895715D01*
X26257142Y24981429D01*
X26257142Y25152858D01*
X26300000Y25238572D01*
X26385714Y25281429D01*
X26471428Y25281429D01*
X26557142Y24852858D01*
X26857142Y26052858D02*
X26385714Y26052858D01*
X26300000Y26010000D01*
X26257142Y25924286D01*
X26257142Y25752858D01*
X26300000Y25667143D01*
X26814285Y26052858D02*
X26857142Y25967143D01*
X26857142Y25752858D01*
X26814285Y25667143D01*
X26728571Y25624286D01*
X26642857Y25624286D01*
X26557142Y25667143D01*
X26514285Y25752858D01*
X26514285Y25967143D01*
X26471428Y26052858D01*
X26857142Y26481429D02*
X25957142Y26481429D01*
X26514285Y26567143D02*
X26857142Y26824286D01*
X26257142Y26824286D02*
X26600000Y26481429D01*
X26857142Y27338572D02*
X26814285Y27252858D01*
X26771428Y27210000D01*
X26685714Y27167143D01*
X26428571Y27167143D01*
X26342857Y27210000D01*
X26300000Y27252858D01*
X26257142Y27338572D01*
X26257142Y27467143D01*
X26300000Y27552858D01*
X26342857Y27595715D01*
X26428571Y27638572D01*
X26685714Y27638572D01*
X26771428Y27595715D01*
X26814285Y27552858D01*
X26857142Y27467143D01*
X26857142Y27338572D01*
X26257142Y28410000D02*
X26857142Y28410000D01*
X26257142Y28024286D02*
X26728571Y28024286D01*
X26814285Y28067143D01*
X26857142Y28152858D01*
X26857142Y28281429D01*
X26814285Y28367143D01*
X26771428Y28410000D01*
X26257142Y28710000D02*
X26257142Y29052858D01*
X25957142Y28838572D02*
X26728571Y28838572D01*
X26814285Y28881429D01*
X26857142Y28967143D01*
X26857142Y29052858D01*
X27671428Y14138572D02*
X27628571Y14052858D01*
X27628571Y13881429D01*
X27671428Y13795715D01*
X27757142Y13710000D01*
X27842857Y13667143D01*
X28014285Y13667143D01*
X28100000Y13710000D01*
X28185714Y13795715D01*
X28228571Y13881429D01*
X28228571Y14052858D01*
X28185714Y14138572D01*
X27328571Y13967143D02*
X27371428Y13752858D01*
X27500000Y13538572D01*
X27714285Y13410000D01*
X27928571Y13367143D01*
X28142857Y13410000D01*
X28357142Y13538572D01*
X28485714Y13752858D01*
X28528571Y13967143D01*
X28485714Y14181429D01*
X28357142Y14395715D01*
X28142857Y14524286D01*
X27928571Y14567143D01*
X27714285Y14524286D01*
X27500000Y14395715D01*
X27371428Y14181429D01*
X27328571Y13967143D01*
X27542857Y14910000D02*
X27500000Y14952858D01*
X27457142Y15038572D01*
X27457142Y15252858D01*
X27500000Y15338572D01*
X27542857Y15381429D01*
X27628571Y15424286D01*
X27714285Y15424286D01*
X27842857Y15381429D01*
X28357142Y14867143D01*
X28357142Y15424286D01*
X27457142Y15981429D02*
X27457142Y16067143D01*
X27500000Y16152858D01*
X27542857Y16195715D01*
X27628571Y16238572D01*
X27800000Y16281429D01*
X28014285Y16281429D01*
X28185714Y16238572D01*
X28271428Y16195715D01*
X28314285Y16152858D01*
X28357142Y16067143D01*
X28357142Y15981429D01*
X28314285Y15895715D01*
X28271428Y15852858D01*
X28185714Y15810000D01*
X28014285Y15767143D01*
X27800000Y15767143D01*
X27628571Y15810000D01*
X27542857Y15852858D01*
X27500000Y15895715D01*
X27457142Y15981429D01*
X27542857Y16624286D02*
X27500000Y16667143D01*
X27457142Y16752858D01*
X27457142Y16967143D01*
X27500000Y17052858D01*
X27542857Y17095715D01*
X27628571Y17138572D01*
X27714285Y17138572D01*
X27842857Y17095715D01*
X28357142Y16581429D01*
X28357142Y17138572D01*
X27457142Y17695715D02*
X27457142Y17781429D01*
X27500000Y17867143D01*
X27542857Y17910000D01*
X27628571Y17952858D01*
X27800000Y17995715D01*
X28014285Y17995715D01*
X28185714Y17952858D01*
X28271428Y17910000D01*
X28314285Y17867143D01*
X28357142Y17781429D01*
X28357142Y17695715D01*
X28314285Y17610000D01*
X28271428Y17567143D01*
X28185714Y17524286D01*
X28014285Y17481429D01*
X27800000Y17481429D01*
X27628571Y17524286D01*
X27542857Y17567143D01*
X27500000Y17610000D01*
X27457142Y17695715D01*
X28357142Y19067143D02*
X27457142Y19067143D01*
X28100000Y19367143D01*
X27457142Y19667143D01*
X28357142Y19667143D01*
X28271428Y20095715D02*
X28314285Y20138572D01*
X28357142Y20095715D01*
X28314285Y20052858D01*
X28271428Y20095715D01*
X28357142Y20095715D01*
X27457142Y21124286D02*
X28357142Y21338572D01*
X27714285Y21510000D01*
X28357142Y21681429D01*
X27457142Y21895715D01*
X28314285Y22581429D02*
X28357142Y22495715D01*
X28357142Y22324286D01*
X28314285Y22238572D01*
X28228571Y22195715D01*
X27885714Y22195715D01*
X27800000Y22238572D01*
X27757142Y22324286D01*
X27757142Y22495715D01*
X27800000Y22581429D01*
X27885714Y22624286D01*
X27971428Y22624286D01*
X28057142Y22195715D01*
X28357142Y23138572D02*
X28314285Y23052858D01*
X28228571Y23010000D01*
X27457142Y23010000D01*
X27757142Y23395715D02*
X28357142Y23567143D01*
X27928571Y23738572D01*
X28357142Y23910000D01*
X27757142Y24081429D01*
X28357142Y24810000D02*
X27885714Y24810000D01*
X27800000Y24767143D01*
X27757142Y24681429D01*
X27757142Y24510000D01*
X27800000Y24424286D01*
X28314285Y24810000D02*
X28357142Y24724286D01*
X28357142Y24510000D01*
X28314285Y24424286D01*
X28228571Y24381429D01*
X28142857Y24381429D01*
X28057142Y24424286D01*
X28014285Y24510000D01*
X28014285Y24724286D01*
X27971428Y24810000D01*
X28357142Y25238572D02*
X27757142Y25238572D01*
X27928571Y25238572D02*
X27842857Y25281429D01*
X27800000Y25324286D01*
X27757142Y25410000D01*
X27757142Y25495715D01*
X28314285Y25752858D02*
X28357142Y25838572D01*
X28357142Y26010000D01*
X28314285Y26095715D01*
X28228571Y26138572D01*
X28185714Y26138572D01*
X28100000Y26095715D01*
X28057142Y26010000D01*
X28057142Y25881429D01*
X28014285Y25795715D01*
X27928571Y25752858D01*
X27885714Y25752858D01*
X27800000Y25795715D01*
X27757142Y25881429D01*
X27757142Y26010000D01*
X27800000Y26095715D01*
X28357142Y26524286D02*
X27457142Y26524286D01*
X28014285Y26610000D02*
X28357142Y26867143D01*
X27757142Y26867143D02*
X28100000Y26524286D01*
X27757142Y27167143D02*
X28357142Y27381429D01*
X27757142Y27595715D02*
X28357142Y27381429D01*
X28571428Y27295715D01*
X28614285Y27252858D01*
X28657142Y27167143D01*
D12*
X24380000Y3900000D02*
X24380000Y5900000D01*
X27620000Y4900000D02*
X27620000Y7900000D01*
X41510000Y21650000D02*
X41510000Y24100000D01*
X38290000Y23450000D02*
X38290000Y21650000D01*
X38320000Y18090000D02*
X39250000Y18090000D01*
X41480000Y18090000D02*
X40550000Y18090000D01*
X41480000Y18090000D02*
X41480000Y20250000D01*
X38320000Y18090000D02*
X38320000Y19550000D01*
X37810000Y19390580D02*
X37810000Y19109420D01*
X36790000Y19390580D02*
X36790000Y19109420D01*
D13*
G36*
X22484505Y17718886D02*
G01*
X22521727Y17793539D01*
X22590261Y17859431D01*
X22615648Y17877577D01*
X22648866Y17897345D01*
X22684945Y17910172D01*
X22733098Y17917510D01*
X22802536Y17920813D01*
X22894206Y17921538D01*
X23019830Y17918263D01*
X23114154Y17906877D01*
X23184523Y17885041D01*
X23238286Y17850419D01*
X23282788Y17800670D01*
X23285423Y17797014D01*
X23312377Y17747985D01*
X23325712Y17688945D01*
X23329000Y17613859D01*
X23329000Y17491795D01*
X23447497Y17491744D01*
X23513492Y17490608D01*
X23552202Y17483686D01*
X23575419Y17465598D01*
X23594933Y17430962D01*
X23598920Y17422645D01*
X23617603Y17383720D01*
X23629403Y17353583D01*
X23630422Y17331174D01*
X23616761Y17315433D01*
X23584522Y17305302D01*
X23529804Y17299723D01*
X23448711Y17297635D01*
X23337344Y17297981D01*
X23191802Y17299700D01*
X23148269Y17300237D01*
X22998205Y17302172D01*
X22900042Y17303904D01*
X22900042Y17491692D01*
X22983364Y17492748D01*
X23037880Y17497438D01*
X23073837Y17508051D01*
X23101482Y17526872D01*
X23114965Y17539650D01*
X23154417Y17591890D01*
X23157628Y17638142D01*
X23125049Y17685867D01*
X23123846Y17687077D01*
X23098668Y17706494D01*
X23064447Y17718307D01*
X23011748Y17724265D01*
X22931131Y17726120D01*
X22913271Y17726154D01*
X22802175Y17721670D01*
X22725161Y17707074D01*
X22678147Y17680650D01*
X22657050Y17640683D01*
X22654923Y17617584D01*
X22664900Y17562762D01*
X22697752Y17525158D01*
X22757857Y17502523D01*
X22849598Y17492606D01*
X22900042Y17491692D01*
X22900042Y17303904D01*
X22882060Y17304222D01*
X22794679Y17306873D01*
X22730905Y17310606D01*
X22685582Y17315907D01*
X22653555Y17323258D01*
X22629668Y17333143D01*
X22608764Y17346046D01*
X22600898Y17351579D01*
X22526595Y17424969D01*
X22484467Y17517760D01*
X22472722Y17625096D01*
X22484505Y17718886D01*
G37*
X22484505Y17718886D02*
X22521727Y17793539D01*
X22590261Y17859431D01*
X22615648Y17877577D01*
X22648866Y17897345D01*
X22684945Y17910172D01*
X22733098Y17917510D01*
X22802536Y17920813D01*
X22894206Y17921538D01*
X23019830Y17918263D01*
X23114154Y17906877D01*
X23184523Y17885041D01*
X23238286Y17850419D01*
X23282788Y17800670D01*
X23285423Y17797014D01*
X23312377Y17747985D01*
X23325712Y17688945D01*
X23329000Y17613859D01*
X23329000Y17491795D01*
X23447497Y17491744D01*
X23513492Y17490608D01*
X23552202Y17483686D01*
X23575419Y17465598D01*
X23594933Y17430962D01*
X23598920Y17422645D01*
X23617603Y17383720D01*
X23629403Y17353583D01*
X23630422Y17331174D01*
X23616761Y17315433D01*
X23584522Y17305302D01*
X23529804Y17299723D01*
X23448711Y17297635D01*
X23337344Y17297981D01*
X23191802Y17299700D01*
X23148269Y17300237D01*
X22998205Y17302172D01*
X22900042Y17303904D01*
X22900042Y17491692D01*
X22983364Y17492748D01*
X23037880Y17497438D01*
X23073837Y17508051D01*
X23101482Y17526872D01*
X23114965Y17539650D01*
X23154417Y17591890D01*
X23157628Y17638142D01*
X23125049Y17685867D01*
X23123846Y17687077D01*
X23098668Y17706494D01*
X23064447Y17718307D01*
X23011748Y17724265D01*
X22931131Y17726120D01*
X22913271Y17726154D01*
X22802175Y17721670D01*
X22725161Y17707074D01*
X22678147Y17680650D01*
X22657050Y17640683D01*
X22654923Y17617584D01*
X22664900Y17562762D01*
X22697752Y17525158D01*
X22757857Y17502523D01*
X22849598Y17492606D01*
X22900042Y17491692D01*
X22900042Y17303904D01*
X22882060Y17304222D01*
X22794679Y17306873D01*
X22730905Y17310606D01*
X22685582Y17315907D01*
X22653555Y17323258D01*
X22629668Y17333143D01*
X22608764Y17346046D01*
X22600898Y17351579D01*
X22526595Y17424969D01*
X22484467Y17517760D01*
X22472722Y17625096D01*
X22484505Y17718886D01*
G36*
X22495089Y19221664D02*
G01*
X22531358Y19284367D01*
X22567358Y19327961D01*
X22605075Y19359845D01*
X22651199Y19381810D01*
X22712421Y19395649D01*
X22795431Y19403153D01*
X22906919Y19406117D01*
X22987062Y19406461D01*
X23282065Y19406461D01*
X23356515Y19240385D01*
X23033402Y19230615D01*
X22912729Y19226579D01*
X22825141Y19222344D01*
X22764650Y19217097D01*
X22725268Y19210025D01*
X22701007Y19200311D01*
X22685880Y19187144D01*
X22682606Y19182919D01*
X22657034Y19118909D01*
X22667153Y19054208D01*
X22694000Y19015692D01*
X22713024Y19000025D01*
X22737988Y18989180D01*
X22775834Y18982288D01*
X22833502Y18978479D01*
X22917935Y18976883D01*
X23005928Y18976615D01*
X23116323Y18976563D01*
X23194463Y18974672D01*
X23247165Y18968345D01*
X23281242Y18954983D01*
X23303511Y18931985D01*
X23320787Y18896754D01*
X23338738Y18849697D01*
X23358278Y18798303D01*
X23011485Y18804421D01*
X22886468Y18806884D01*
X22794082Y18809767D01*
X22727881Y18813898D01*
X22681420Y18820107D01*
X22648256Y18829226D01*
X22621944Y18842083D01*
X22598729Y18857584D01*
X22524569Y18932371D01*
X22481684Y19023628D01*
X22471412Y19122883D01*
X22495089Y19221664D01*
G37*
X22495089Y19221664D02*
X22531358Y19284367D01*
X22567358Y19327961D01*
X22605075Y19359845D01*
X22651199Y19381810D01*
X22712421Y19395649D01*
X22795431Y19403153D01*
X22906919Y19406117D01*
X22987062Y19406461D01*
X23282065Y19406461D01*
X23356515Y19240385D01*
X23033402Y19230615D01*
X22912729Y19226579D01*
X22825141Y19222344D01*
X22764650Y19217097D01*
X22725268Y19210025D01*
X22701007Y19200311D01*
X22685880Y19187144D01*
X22682606Y19182919D01*
X22657034Y19118909D01*
X22667153Y19054208D01*
X22694000Y19015692D01*
X22713024Y19000025D01*
X22737988Y18989180D01*
X22775834Y18982288D01*
X22833502Y18978479D01*
X22917935Y18976883D01*
X23005928Y18976615D01*
X23116323Y18976563D01*
X23194463Y18974672D01*
X23247165Y18968345D01*
X23281242Y18954983D01*
X23303511Y18931985D01*
X23320787Y18896754D01*
X23338738Y18849697D01*
X23358278Y18798303D01*
X23011485Y18804421D01*
X22886468Y18806884D01*
X22794082Y18809767D01*
X22727881Y18813898D01*
X22681420Y18820107D01*
X22648256Y18829226D01*
X22621944Y18842083D01*
X22598729Y18857584D01*
X22524569Y18932371D01*
X22481684Y19023628D01*
X22471412Y19122883D01*
X22495089Y19221664D01*
G36*
X22487256Y16966886D02*
G01*
X22535409Y17058464D01*
X22612905Y17126049D01*
X22662727Y17150057D01*
X22737533Y17168738D01*
X22832052Y17178301D01*
X22935210Y17179208D01*
X23035935Y17171921D01*
X23123153Y17156903D01*
X23185791Y17134615D01*
X23196579Y17127765D01*
X23277105Y17046632D01*
X23325336Y16950266D01*
X23339450Y16845701D01*
X23317629Y16739968D01*
X23304547Y16710543D01*
X23264231Y16653241D01*
X23210775Y16602950D01*
X23203995Y16598197D01*
X23171321Y16578878D01*
X23136394Y16566108D01*
X23090414Y16558564D01*
X23024584Y16554924D01*
X22930105Y16553865D01*
X22908923Y16553846D01*
X22902182Y16553894D01*
X22902182Y16749231D01*
X22991349Y16750368D01*
X23050520Y16754841D01*
X23088741Y16764246D01*
X23115053Y16780176D01*
X23123846Y16788308D01*
X23157261Y16835058D01*
X23155737Y16880447D01*
X23126752Y16926340D01*
X23095809Y16953712D01*
X23050643Y16969923D01*
X22979420Y16979026D01*
X22971114Y16979651D01*
X22842037Y16981204D01*
X22746172Y16964965D01*
X22684107Y16931152D01*
X22656432Y16879984D01*
X22654923Y16861720D01*
X22662513Y16813760D01*
X22688808Y16780953D01*
X22739095Y16760895D01*
X22818664Y16751178D01*
X22902182Y16749231D01*
X22902182Y16553894D01*
X22808249Y16554574D01*
X22737906Y16557629D01*
X22689163Y16564322D01*
X22653288Y16575960D01*
X22621548Y16593853D01*
X22615648Y16597808D01*
X22536104Y16664267D01*
X22489929Y16736685D01*
X22471599Y16824849D01*
X22470703Y16854787D01*
X22487256Y16966886D01*
G37*
X22487256Y16966886D02*
X22535409Y17058464D01*
X22612905Y17126049D01*
X22662727Y17150057D01*
X22737533Y17168738D01*
X22832052Y17178301D01*
X22935210Y17179208D01*
X23035935Y17171921D01*
X23123153Y17156903D01*
X23185791Y17134615D01*
X23196579Y17127765D01*
X23277105Y17046632D01*
X23325336Y16950266D01*
X23339450Y16845701D01*
X23317629Y16739968D01*
X23304547Y16710543D01*
X23264231Y16653241D01*
X23210775Y16602950D01*
X23203995Y16598197D01*
X23171321Y16578878D01*
X23136394Y16566108D01*
X23090414Y16558564D01*
X23024584Y16554924D01*
X22930105Y16553865D01*
X22908923Y16553846D01*
X22902182Y16553894D01*
X22902182Y16749231D01*
X22991349Y16750368D01*
X23050520Y16754841D01*
X23088741Y16764246D01*
X23115053Y16780176D01*
X23123846Y16788308D01*
X23157261Y16835058D01*
X23155737Y16880447D01*
X23126752Y16926340D01*
X23095809Y16953712D01*
X23050643Y16969923D01*
X22979420Y16979026D01*
X22971114Y16979651D01*
X22842037Y16981204D01*
X22746172Y16964965D01*
X22684107Y16931152D01*
X22656432Y16879984D01*
X22654923Y16861720D01*
X22662513Y16813760D01*
X22688808Y16780953D01*
X22739095Y16760895D01*
X22818664Y16751178D01*
X22902182Y16749231D01*
X22902182Y16553894D01*
X22808249Y16554574D01*
X22737906Y16557629D01*
X22689163Y16564322D01*
X22653288Y16575960D01*
X22621548Y16593853D01*
X22615648Y16597808D01*
X22536104Y16664267D01*
X22489929Y16736685D01*
X22471599Y16824849D01*
X22470703Y16854787D01*
X22487256Y16966886D01*
G36*
X22499745Y18484254D02*
G01*
X22551567Y18561286D01*
X22626412Y18620816D01*
X22721654Y18656378D01*
X22791756Y18663571D01*
X22821009Y18662754D01*
X22843407Y18655914D01*
X22863474Y18637112D01*
X22885733Y18600408D01*
X22914709Y18539862D01*
X22954927Y18449534D01*
X22955129Y18449077D01*
X22993210Y18365933D01*
X23027025Y18297753D01*
X23052933Y18251505D01*
X23067295Y18234158D01*
X23067411Y18234154D01*
X23098685Y18249443D01*
X23133157Y18285196D01*
X23157990Y18326242D01*
X23162923Y18347037D01*
X23145862Y18403770D01*
X23103133Y18452627D01*
X23056155Y18476465D01*
X23021522Y18499397D01*
X22982081Y18544318D01*
X22948009Y18597123D01*
X22929480Y18643710D01*
X22928462Y18653452D01*
X22945215Y18664418D01*
X22988039Y18665079D01*
X23045781Y18657020D01*
X23107289Y18641827D01*
X23161409Y18621086D01*
X23163510Y18620038D01*
X23250660Y18557621D01*
X23309939Y18476726D01*
X23339034Y18384856D01*
X23335634Y18289513D01*
X23297428Y18198198D01*
X23294741Y18194138D01*
X23229642Y18122306D01*
X23144705Y18075073D01*
X23033021Y18048934D01*
X23001643Y18045426D01*
X22853536Y18039213D01*
X22784468Y18046661D01*
X22784468Y18234154D01*
X22827552Y18236590D01*
X22840126Y18249914D01*
X22830719Y18283132D01*
X22808483Y18335494D01*
X22780610Y18394024D01*
X22779872Y18395479D01*
X22753777Y18445089D01*
X22736363Y18465000D01*
X22718107Y18460090D01*
X22694120Y18439416D01*
X22659406Y18386819D01*
X22656856Y18330177D01*
X22682119Y18279369D01*
X22730847Y18244276D01*
X22784468Y18234154D01*
X22784468Y18046661D01*
X22735036Y18051992D01*
X22641055Y18084778D01*
X22575215Y18130421D01*
X22508681Y18212802D01*
X22475676Y18303546D01*
X22473573Y18396185D01*
X22499745Y18484254D01*
G37*
X22499745Y18484254D02*
X22551567Y18561286D01*
X22626412Y18620816D01*
X22721654Y18656378D01*
X22791756Y18663571D01*
X22821009Y18662754D01*
X22843407Y18655914D01*
X22863474Y18637112D01*
X22885733Y18600408D01*
X22914709Y18539862D01*
X22954927Y18449534D01*
X22955129Y18449077D01*
X22993210Y18365933D01*
X23027025Y18297753D01*
X23052933Y18251505D01*
X23067295Y18234158D01*
X23067411Y18234154D01*
X23098685Y18249443D01*
X23133157Y18285196D01*
X23157990Y18326242D01*
X23162923Y18347037D01*
X23145862Y18403770D01*
X23103133Y18452627D01*
X23056155Y18476465D01*
X23021522Y18499397D01*
X22982081Y18544318D01*
X22948009Y18597123D01*
X22929480Y18643710D01*
X22928462Y18653452D01*
X22945215Y18664418D01*
X22988039Y18665079D01*
X23045781Y18657020D01*
X23107289Y18641827D01*
X23161409Y18621086D01*
X23163510Y18620038D01*
X23250660Y18557621D01*
X23309939Y18476726D01*
X23339034Y18384856D01*
X23335634Y18289513D01*
X23297428Y18198198D01*
X23294741Y18194138D01*
X23229642Y18122306D01*
X23144705Y18075073D01*
X23033021Y18048934D01*
X23001643Y18045426D01*
X22853536Y18039213D01*
X22784468Y18046661D01*
X22784468Y18234154D01*
X22827552Y18236590D01*
X22840126Y18249914D01*
X22830719Y18283132D01*
X22808483Y18335494D01*
X22780610Y18394024D01*
X22779872Y18395479D01*
X22753777Y18445089D01*
X22736363Y18465000D01*
X22718107Y18460090D01*
X22694120Y18439416D01*
X22659406Y18386819D01*
X22656856Y18330177D01*
X22682119Y18279369D01*
X22730847Y18244276D01*
X22784468Y18234154D01*
X22784468Y18046661D01*
X22735036Y18051992D01*
X22641055Y18084778D01*
X22575215Y18130421D01*
X22508681Y18212802D01*
X22475676Y18303546D01*
X22473573Y18396185D01*
X22499745Y18484254D01*
G36*
X22392120Y20109846D02*
G01*
X22471980Y20115572D01*
X22519039Y20122149D01*
X22539566Y20131262D01*
X22539829Y20144598D01*
X22537378Y20148923D01*
X22519636Y20206444D01*
X22520672Y20281268D01*
X22538910Y20357339D01*
X22562505Y20404918D01*
X22600198Y20453702D01*
X22642855Y20489364D01*
X22697057Y20513845D01*
X22769384Y20529087D01*
X22866419Y20537030D01*
X22994742Y20539616D01*
X23019358Y20539662D01*
X23295870Y20539692D01*
X23317320Y20478161D01*
X23331912Y20434459D01*
X23338706Y20410482D01*
X23338769Y20409777D01*
X23320345Y20407415D01*
X23269526Y20405406D01*
X23192993Y20403901D01*
X23097430Y20403053D01*
X23039329Y20402923D01*
X22924771Y20402651D01*
X22842667Y20401252D01*
X22786393Y20397849D01*
X22749326Y20391567D01*
X22724844Y20381529D01*
X22706325Y20366861D01*
X22697406Y20357702D01*
X22661466Y20294789D01*
X22658775Y20226136D01*
X22689170Y20163848D01*
X22700144Y20152329D01*
X22720779Y20135433D01*
X22745256Y20123714D01*
X22780647Y20116233D01*
X22834026Y20112054D01*
X22912466Y20110237D01*
X23020617Y20109846D01*
X23295870Y20109846D01*
X23317320Y20048315D01*
X23331912Y20004613D01*
X23338706Y19980636D01*
X23338769Y19979930D01*
X23320069Y19978126D01*
X23267322Y19976500D01*
X23185557Y19975117D01*
X23079805Y19974042D01*
X22955094Y19973340D01*
X22816455Y19973077D01*
X22281806Y19973077D01*
X22228236Y20100077D01*
X22392120Y20109846D01*
G37*
X22392120Y20109846D02*
X22471980Y20115572D01*
X22519039Y20122149D01*
X22539566Y20131262D01*
X22539829Y20144598D01*
X22537378Y20148923D01*
X22519636Y20206444D01*
X22520672Y20281268D01*
X22538910Y20357339D01*
X22562505Y20404918D01*
X22600198Y20453702D01*
X22642855Y20489364D01*
X22697057Y20513845D01*
X22769384Y20529087D01*
X22866419Y20537030D01*
X22994742Y20539616D01*
X23019358Y20539662D01*
X23295870Y20539692D01*
X23317320Y20478161D01*
X23331912Y20434459D01*
X23338706Y20410482D01*
X23338769Y20409777D01*
X23320345Y20407415D01*
X23269526Y20405406D01*
X23192993Y20403901D01*
X23097430Y20403053D01*
X23039329Y20402923D01*
X22924771Y20402651D01*
X22842667Y20401252D01*
X22786393Y20397849D01*
X22749326Y20391567D01*
X22724844Y20381529D01*
X22706325Y20366861D01*
X22697406Y20357702D01*
X22661466Y20294789D01*
X22658775Y20226136D01*
X22689170Y20163848D01*
X22700144Y20152329D01*
X22720779Y20135433D01*
X22745256Y20123714D01*
X22780647Y20116233D01*
X22834026Y20112054D01*
X22912466Y20110237D01*
X23020617Y20109846D01*
X23295870Y20109846D01*
X23317320Y20048315D01*
X23331912Y20004613D01*
X23338706Y19980636D01*
X23338769Y19979930D01*
X23320069Y19978126D01*
X23267322Y19976500D01*
X23185557Y19975117D01*
X23079805Y19974042D01*
X22955094Y19973340D01*
X22816455Y19973077D01*
X22281806Y19973077D01*
X22228236Y20100077D01*
X22392120Y20109846D01*
G36*
X22526303Y21003501D02*
G01*
X22554733Y21080060D01*
X22555279Y21080936D01*
X22590127Y21128285D01*
X22630852Y21163241D01*
X22683925Y21187825D01*
X22755814Y21204062D01*
X22852992Y21213975D01*
X22981928Y21219586D01*
X23000298Y21220077D01*
X23277287Y21227141D01*
X23308028Y21167695D01*
X23328802Y21124681D01*
X23338646Y21098710D01*
X23338769Y21097509D01*
X23320606Y21093014D01*
X23271612Y21089444D01*
X23200031Y21087248D01*
X23142068Y21086769D01*
X23048170Y21086758D01*
X22989203Y21082466D01*
X22961079Y21067503D01*
X22959706Y21035482D01*
X22980998Y20980014D01*
X23020136Y20896269D01*
X23052643Y20834689D01*
X23080845Y20803017D01*
X23111582Y20793706D01*
X23113104Y20793692D01*
X23166054Y20809057D01*
X23194660Y20854547D01*
X23198803Y20924166D01*
X23198084Y20974313D01*
X23212527Y21000754D01*
X23247218Y21017243D01*
X23291416Y21026733D01*
X23316493Y21013057D01*
X23320082Y21007907D01*
X23334496Y20959425D01*
X23336537Y20891531D01*
X23326983Y20821612D01*
X23309522Y20772068D01*
X23251364Y20703570D01*
X23170408Y20664634D01*
X23107160Y20656923D01*
X23050111Y20662807D01*
X23003542Y20684101D01*
X22962181Y20726265D01*
X22920755Y20794759D01*
X22873993Y20895044D01*
X22871350Y20901154D01*
X22829617Y20991490D01*
X22795391Y21047235D01*
X22764635Y21071129D01*
X22733311Y21065913D01*
X22697383Y21034328D01*
X22689116Y21024883D01*
X22657058Y20961617D01*
X22658407Y20896064D01*
X22689838Y20838972D01*
X22748024Y20801093D01*
X22759446Y20797574D01*
X22814837Y20763300D01*
X22841518Y20719809D01*
X22867960Y20656923D01*
X22799548Y20656923D01*
X22700110Y20676052D01*
X22608902Y20732831D01*
X22578389Y20762378D01*
X22539228Y20829542D01*
X22521500Y20914956D01*
X22526303Y21003501D01*
G37*
X22526303Y21003501D02*
X22554733Y21080060D01*
X22555279Y21080936D01*
X22590127Y21128285D01*
X22630852Y21163241D01*
X22683925Y21187825D01*
X22755814Y21204062D01*
X22852992Y21213975D01*
X22981928Y21219586D01*
X23000298Y21220077D01*
X23277287Y21227141D01*
X23308028Y21167695D01*
X23328802Y21124681D01*
X23338646Y21098710D01*
X23338769Y21097509D01*
X23320606Y21093014D01*
X23271612Y21089444D01*
X23200031Y21087248D01*
X23142068Y21086769D01*
X23048170Y21086758D01*
X22989203Y21082466D01*
X22961079Y21067503D01*
X22959706Y21035482D01*
X22980998Y20980014D01*
X23020136Y20896269D01*
X23052643Y20834689D01*
X23080845Y20803017D01*
X23111582Y20793706D01*
X23113104Y20793692D01*
X23166054Y20809057D01*
X23194660Y20854547D01*
X23198803Y20924166D01*
X23198084Y20974313D01*
X23212527Y21000754D01*
X23247218Y21017243D01*
X23291416Y21026733D01*
X23316493Y21013057D01*
X23320082Y21007907D01*
X23334496Y20959425D01*
X23336537Y20891531D01*
X23326983Y20821612D01*
X23309522Y20772068D01*
X23251364Y20703570D01*
X23170408Y20664634D01*
X23107160Y20656923D01*
X23050111Y20662807D01*
X23003542Y20684101D01*
X22962181Y20726265D01*
X22920755Y20794759D01*
X22873993Y20895044D01*
X22871350Y20901154D01*
X22829617Y20991490D01*
X22795391Y21047235D01*
X22764635Y21071129D01*
X22733311Y21065913D01*
X22697383Y21034328D01*
X22689116Y21024883D01*
X22657058Y20961617D01*
X22658407Y20896064D01*
X22689838Y20838972D01*
X22748024Y20801093D01*
X22759446Y20797574D01*
X22814837Y20763300D01*
X22841518Y20719809D01*
X22867960Y20656923D01*
X22799548Y20656923D01*
X22700110Y20676052D01*
X22608902Y20732831D01*
X22578389Y20762378D01*
X22539228Y20829542D01*
X22521500Y20914956D01*
X22526303Y21003501D01*
G36*
X22524670Y21663362D02*
G01*
X22557421Y21752117D01*
X22615350Y21824022D01*
X22656128Y21852144D01*
X22730954Y21882802D01*
X22785058Y21882165D01*
X22821446Y21849987D01*
X22827633Y21838081D01*
X22846925Y21786675D01*
X22841982Y21760422D01*
X22809587Y21751530D01*
X22791692Y21751077D01*
X22725859Y21734797D01*
X22679807Y21692365D01*
X22657564Y21633388D01*
X22663161Y21567475D01*
X22692229Y21513895D01*
X22708810Y21495798D01*
X22728925Y21482971D01*
X22759332Y21474306D01*
X22806788Y21468696D01*
X22878050Y21465035D01*
X22979875Y21462215D01*
X23012115Y21461484D01*
X23122410Y21458820D01*
X23200036Y21455792D01*
X23251396Y21451250D01*
X23282890Y21444046D01*
X23300920Y21433033D01*
X23311888Y21417060D01*
X23316733Y21406834D01*
X23333301Y21363406D01*
X23338769Y21337842D01*
X23320507Y21329395D01*
X23265296Y21324239D01*
X23172499Y21322346D01*
X23041478Y21323689D01*
X23021269Y21324107D01*
X22901733Y21327058D01*
X22814449Y21330548D01*
X22752591Y21335514D01*
X22709336Y21342893D01*
X22677860Y21353624D01*
X22651339Y21368645D01*
X22639975Y21376502D01*
X22589692Y21421553D01*
X22550581Y21471940D01*
X22547167Y21478108D01*
X22520212Y21568458D01*
X22524670Y21663362D01*
G37*
X22524670Y21663362D02*
X22557421Y21752117D01*
X22615350Y21824022D01*
X22656128Y21852144D01*
X22730954Y21882802D01*
X22785058Y21882165D01*
X22821446Y21849987D01*
X22827633Y21838081D01*
X22846925Y21786675D01*
X22841982Y21760422D01*
X22809587Y21751530D01*
X22791692Y21751077D01*
X22725859Y21734797D01*
X22679807Y21692365D01*
X22657564Y21633388D01*
X22663161Y21567475D01*
X22692229Y21513895D01*
X22708810Y21495798D01*
X22728925Y21482971D01*
X22759332Y21474306D01*
X22806788Y21468696D01*
X22878050Y21465035D01*
X22979875Y21462215D01*
X23012115Y21461484D01*
X23122410Y21458820D01*
X23200036Y21455792D01*
X23251396Y21451250D01*
X23282890Y21444046D01*
X23300920Y21433033D01*
X23311888Y21417060D01*
X23316733Y21406834D01*
X23333301Y21363406D01*
X23338769Y21337842D01*
X23320507Y21329395D01*
X23265296Y21324239D01*
X23172499Y21322346D01*
X23041478Y21323689D01*
X23021269Y21324107D01*
X22901733Y21327058D01*
X22814449Y21330548D01*
X22752591Y21335514D01*
X22709336Y21342893D01*
X22677860Y21353624D01*
X22651339Y21368645D01*
X22639975Y21376502D01*
X22589692Y21421553D01*
X22550581Y21471940D01*
X22547167Y21478108D01*
X22520212Y21568458D01*
X22524670Y21663362D01*
G36*
X22680289Y22552081D02*
G01*
X22826320Y22551833D01*
X22938655Y22550872D01*
X23022678Y22548794D01*
X23083769Y22545193D01*
X23127309Y22539665D01*
X23158679Y22531804D01*
X23183262Y22521207D01*
X23197294Y22513182D01*
X23273388Y22446728D01*
X23321084Y22362470D01*
X23338199Y22269249D01*
X23322546Y22175900D01*
X23294418Y22120312D01*
X23245760Y22061957D01*
X23186333Y22022186D01*
X23108507Y21998190D01*
X23004652Y21987161D01*
X22928462Y21985599D01*
X22922986Y21985809D01*
X22922986Y22122308D01*
X23010355Y22123141D01*
X23068192Y22126961D01*
X23106029Y22135746D01*
X23133398Y22151474D01*
X23154042Y22170266D01*
X23193890Y22233375D01*
X23197295Y22301137D01*
X23164025Y22365179D01*
X23159517Y22370164D01*
X23136067Y22391439D01*
X23108166Y22404779D01*
X23066641Y22412001D01*
X23002316Y22414923D01*
X22931200Y22415385D01*
X22841858Y22414383D01*
X22782258Y22410238D01*
X22743089Y22401236D01*
X22715040Y22385667D01*
X22700144Y22372902D01*
X22662575Y22313600D01*
X22658057Y22245301D01*
X22686753Y22180110D01*
X22697406Y22167528D01*
X22721063Y22146111D01*
X22749251Y22132744D01*
X22791245Y22125566D01*
X22856319Y22122719D01*
X22922986Y22122308D01*
X22922986Y21985809D01*
X22805765Y21990322D01*
X22713577Y22006362D01*
X22644269Y22036528D01*
X22590211Y22083629D01*
X22562505Y22120312D01*
X22532572Y22186990D01*
X22518678Y22264272D01*
X22522397Y22336110D01*
X22537400Y22376308D01*
X22541670Y22392082D01*
X22525750Y22402550D01*
X22483089Y22409856D01*
X22418106Y22415385D01*
X22345732Y22421437D01*
X22302187Y22429844D01*
X22277287Y22445141D01*
X22260845Y22471864D01*
X22253564Y22488654D01*
X22226963Y22552154D01*
X22680289Y22552081D01*
G37*
X22680289Y22552081D02*
X22826320Y22551833D01*
X22938655Y22550872D01*
X23022678Y22548794D01*
X23083769Y22545193D01*
X23127309Y22539665D01*
X23158679Y22531804D01*
X23183262Y22521207D01*
X23197294Y22513182D01*
X23273388Y22446728D01*
X23321084Y22362470D01*
X23338199Y22269249D01*
X23322546Y22175900D01*
X23294418Y22120312D01*
X23245760Y22061957D01*
X23186333Y22022186D01*
X23108507Y21998190D01*
X23004652Y21987161D01*
X22928462Y21985599D01*
X22922986Y21985809D01*
X22922986Y22122308D01*
X23010355Y22123141D01*
X23068192Y22126961D01*
X23106029Y22135746D01*
X23133398Y22151474D01*
X23154042Y22170266D01*
X23193890Y22233375D01*
X23197295Y22301137D01*
X23164025Y22365179D01*
X23159517Y22370164D01*
X23136067Y22391439D01*
X23108166Y22404779D01*
X23066641Y22412001D01*
X23002316Y22414923D01*
X22931200Y22415385D01*
X22841858Y22414383D01*
X22782258Y22410238D01*
X22743089Y22401236D01*
X22715040Y22385667D01*
X22700144Y22372902D01*
X22662575Y22313600D01*
X22658057Y22245301D01*
X22686753Y22180110D01*
X22697406Y22167528D01*
X22721063Y22146111D01*
X22749251Y22132744D01*
X22791245Y22125566D01*
X22856319Y22122719D01*
X22922986Y22122308D01*
X22922986Y21985809D01*
X22805765Y21990322D01*
X22713577Y22006362D01*
X22644269Y22036528D01*
X22590211Y22083629D01*
X22562505Y22120312D01*
X22532572Y22186990D01*
X22518678Y22264272D01*
X22522397Y22336110D01*
X22537400Y22376308D01*
X22541670Y22392082D01*
X22525750Y22402550D01*
X22483089Y22409856D01*
X22418106Y22415385D01*
X22345732Y22421437D01*
X22302187Y22429844D01*
X22277287Y22445141D01*
X22260845Y22471864D01*
X22253564Y22488654D01*
X22226963Y22552154D01*
X22680289Y22552081D01*
G36*
X22536662Y23345929D02*
G01*
X22588068Y23348911D01*
X22666192Y23351247D01*
X22764857Y23352749D01*
X22868343Y23353231D01*
X23218533Y23353231D01*
X23280363Y23291401D01*
X23318462Y23248793D01*
X23333895Y23211390D01*
X23332918Y23160270D01*
X23330433Y23139978D01*
X23323200Y23076554D01*
X23319055Y23024095D01*
X23318672Y23011308D01*
X23321176Y22968199D01*
X23327462Y22906544D01*
X23330433Y22882638D01*
X23335028Y22823922D01*
X23325046Y22784464D01*
X23294228Y22745338D01*
X23280363Y22731215D01*
X23218533Y22669385D01*
X22563503Y22669385D01*
X22540829Y22719150D01*
X22524034Y22762002D01*
X22518154Y22787073D01*
X22536736Y22793501D01*
X22588655Y22799509D01*
X22668172Y22804697D01*
X22769546Y22808664D01*
X22855192Y22810577D01*
X23192231Y22815923D01*
X23198825Y22862560D01*
X23194214Y22904976D01*
X23179287Y22925760D01*
X23151377Y22931570D01*
X23091925Y22936530D01*
X23008466Y22940246D01*
X22908532Y22942324D01*
X22857104Y22942624D01*
X22561054Y22942923D01*
X22539604Y23004454D01*
X22525020Y23048004D01*
X22518219Y23071694D01*
X22518154Y23072377D01*
X22536642Y23074754D01*
X22587906Y23077366D01*
X22665649Y23079995D01*
X22763574Y23082421D01*
X22855192Y23084115D01*
X23192231Y23089461D01*
X23192231Y23206692D01*
X22884746Y23212072D01*
X22577261Y23217451D01*
X22547707Y23274601D01*
X22527413Y23316797D01*
X22518204Y23341770D01*
X22518154Y23342491D01*
X22536662Y23345929D01*
G37*
X22536662Y23345929D02*
X22588068Y23348911D01*
X22666192Y23351247D01*
X22764857Y23352749D01*
X22868343Y23353231D01*
X23218533Y23353231D01*
X23280363Y23291401D01*
X23318462Y23248793D01*
X23333895Y23211390D01*
X23332918Y23160270D01*
X23330433Y23139978D01*
X23323200Y23076554D01*
X23319055Y23024095D01*
X23318672Y23011308D01*
X23321176Y22968199D01*
X23327462Y22906544D01*
X23330433Y22882638D01*
X23335028Y22823922D01*
X23325046Y22784464D01*
X23294228Y22745338D01*
X23280363Y22731215D01*
X23218533Y22669385D01*
X22563503Y22669385D01*
X22540829Y22719150D01*
X22524034Y22762002D01*
X22518154Y22787073D01*
X22536736Y22793501D01*
X22588655Y22799509D01*
X22668172Y22804697D01*
X22769546Y22808664D01*
X22855192Y22810577D01*
X23192231Y22815923D01*
X23198825Y22862560D01*
X23194214Y22904976D01*
X23179287Y22925760D01*
X23151377Y22931570D01*
X23091925Y22936530D01*
X23008466Y22940246D01*
X22908532Y22942324D01*
X22857104Y22942624D01*
X22561054Y22942923D01*
X22539604Y23004454D01*
X22525020Y23048004D01*
X22518219Y23071694D01*
X22518154Y23072377D01*
X22536642Y23074754D01*
X22587906Y23077366D01*
X22665649Y23079995D01*
X22763574Y23082421D01*
X22855192Y23084115D01*
X23192231Y23089461D01*
X23192231Y23206692D01*
X22884746Y23212072D01*
X22577261Y23217451D01*
X22547707Y23274601D01*
X22527413Y23316797D01*
X22518204Y23341770D01*
X22518154Y23342491D01*
X22536662Y23345929D01*
G36*
X22533528Y23837333D02*
G01*
X22559117Y23893590D01*
X22590124Y23937747D01*
X22624795Y23970101D01*
X22669520Y23992438D01*
X22730692Y24006546D01*
X22814701Y24014211D01*
X22927940Y24017220D01*
X23002509Y24017538D01*
X23293420Y24017538D01*
X23316095Y23967773D01*
X23332667Y23928576D01*
X23338769Y23909157D01*
X23320610Y23905442D01*
X23271648Y23902495D01*
X23200153Y23900691D01*
X23143385Y23900308D01*
X23061371Y23898661D01*
X22996309Y23894222D01*
X22956467Y23887740D01*
X22948000Y23882590D01*
X22956646Y23847977D01*
X22978823Y23793640D01*
X23008886Y23730722D01*
X23041192Y23670368D01*
X23070098Y23623721D01*
X23089961Y23601926D01*
X23090175Y23601839D01*
X23126935Y23603714D01*
X23162026Y23620525D01*
X23190528Y23650039D01*
X23200061Y23693116D01*
X23198950Y23729932D01*
X23198133Y23782074D01*
X23210349Y23809444D01*
X23242624Y23825882D01*
X23248710Y23827955D01*
X23294739Y23835081D01*
X23322687Y23816024D01*
X23336007Y23766353D01*
X23338470Y23712697D01*
X23320210Y23616142D01*
X23294131Y23566159D01*
X23232868Y23504429D01*
X23157670Y23471690D01*
X23078211Y23468753D01*
X23004167Y23496424D01*
X22957769Y23538047D01*
X22931793Y23579604D01*
X22898907Y23644922D01*
X22865557Y23721038D01*
X22860461Y23733726D01*
X22823565Y23817333D01*
X22791046Y23865530D01*
X22758718Y23881030D01*
X22722394Y23866550D01*
X22694000Y23841692D01*
X22659039Y23782939D01*
X22656417Y23718293D01*
X22683358Y23659008D01*
X22737088Y23616339D01*
X22750950Y23610739D01*
X22801936Y23578133D01*
X22839787Y23530530D01*
X22870850Y23470461D01*
X22782768Y23470461D01*
X22728951Y23473997D01*
X22686534Y23489156D01*
X22641279Y23522768D01*
X22606420Y23555035D01*
X22557062Y23605209D01*
X22530547Y23644193D01*
X22519911Y23686064D01*
X22518154Y23733460D01*
X22533528Y23837333D01*
G37*
X22533528Y23837333D02*
X22559117Y23893590D01*
X22590124Y23937747D01*
X22624795Y23970101D01*
X22669520Y23992438D01*
X22730692Y24006546D01*
X22814701Y24014211D01*
X22927940Y24017220D01*
X23002509Y24017538D01*
X23293420Y24017538D01*
X23316095Y23967773D01*
X23332667Y23928576D01*
X23338769Y23909157D01*
X23320610Y23905442D01*
X23271648Y23902495D01*
X23200153Y23900691D01*
X23143385Y23900308D01*
X23061371Y23898661D01*
X22996309Y23894222D01*
X22956467Y23887740D01*
X22948000Y23882590D01*
X22956646Y23847977D01*
X22978823Y23793640D01*
X23008886Y23730722D01*
X23041192Y23670368D01*
X23070098Y23623721D01*
X23089961Y23601926D01*
X23090175Y23601839D01*
X23126935Y23603714D01*
X23162026Y23620525D01*
X23190528Y23650039D01*
X23200061Y23693116D01*
X23198950Y23729932D01*
X23198133Y23782074D01*
X23210349Y23809444D01*
X23242624Y23825882D01*
X23248710Y23827955D01*
X23294739Y23835081D01*
X23322687Y23816024D01*
X23336007Y23766353D01*
X23338470Y23712697D01*
X23320210Y23616142D01*
X23294131Y23566159D01*
X23232868Y23504429D01*
X23157670Y23471690D01*
X23078211Y23468753D01*
X23004167Y23496424D01*
X22957769Y23538047D01*
X22931793Y23579604D01*
X22898907Y23644922D01*
X22865557Y23721038D01*
X22860461Y23733726D01*
X22823565Y23817333D01*
X22791046Y23865530D01*
X22758718Y23881030D01*
X22722394Y23866550D01*
X22694000Y23841692D01*
X22659039Y23782939D01*
X22656417Y23718293D01*
X22683358Y23659008D01*
X22737088Y23616339D01*
X22750950Y23610739D01*
X22801936Y23578133D01*
X22839787Y23530530D01*
X22870850Y23470461D01*
X22782768Y23470461D01*
X22728951Y23473997D01*
X22686534Y23489156D01*
X22641279Y23522768D01*
X22606420Y23555035D01*
X22557062Y23605209D01*
X22530547Y23644193D01*
X22519911Y23686064D01*
X22518154Y23733460D01*
X22533528Y23837333D01*
G36*
X22536782Y24520807D02*
G01*
X22546988Y24544161D01*
X22591134Y24599902D01*
X22654967Y24647569D01*
X22723087Y24677048D01*
X22756670Y24681846D01*
X22803556Y24665760D01*
X22828365Y24630475D01*
X22843387Y24592644D01*
X22846155Y24575321D01*
X22826066Y24566886D01*
X22782351Y24550230D01*
X22762598Y24542923D01*
X22694271Y24501948D01*
X22660191Y24442622D01*
X22661239Y24366552D01*
X22662581Y24360918D01*
X22681836Y24320305D01*
X22719375Y24290448D01*
X22779809Y24270055D01*
X22867751Y24257836D01*
X22987813Y24252500D01*
X23051698Y24252000D01*
X23152403Y24251752D01*
X23221054Y24250126D01*
X23264673Y24245801D01*
X23290282Y24237454D01*
X23304903Y24223765D01*
X23315558Y24203411D01*
X23316095Y24202234D01*
X23332667Y24163038D01*
X23338769Y24143619D01*
X23320319Y24140635D01*
X23269323Y24138081D01*
X23192308Y24136140D01*
X23095805Y24134997D01*
X23025184Y24134769D01*
X22888525Y24135932D01*
X22784851Y24140479D01*
X22708108Y24149999D01*
X22652246Y24166081D01*
X22611212Y24190313D01*
X22578954Y24224286D01*
X22556440Y24257833D01*
X22526476Y24338499D01*
X22519718Y24432381D01*
X22536782Y24520807D01*
G37*
X22536782Y24520807D02*
X22546988Y24544161D01*
X22591134Y24599902D01*
X22654967Y24647569D01*
X22723087Y24677048D01*
X22756670Y24681846D01*
X22803556Y24665760D01*
X22828365Y24630475D01*
X22843387Y24592644D01*
X22846155Y24575321D01*
X22826066Y24566886D01*
X22782351Y24550230D01*
X22762598Y24542923D01*
X22694271Y24501948D01*
X22660191Y24442622D01*
X22661239Y24366552D01*
X22662581Y24360918D01*
X22681836Y24320305D01*
X22719375Y24290448D01*
X22779809Y24270055D01*
X22867751Y24257836D01*
X22987813Y24252500D01*
X23051698Y24252000D01*
X23152403Y24251752D01*
X23221054Y24250126D01*
X23264673Y24245801D01*
X23290282Y24237454D01*
X23304903Y24223765D01*
X23315558Y24203411D01*
X23316095Y24202234D01*
X23332667Y24163038D01*
X23338769Y24143619D01*
X23320319Y24140635D01*
X23269323Y24138081D01*
X23192308Y24136140D01*
X23095805Y24134997D01*
X23025184Y24134769D01*
X22888525Y24135932D01*
X22784851Y24140479D01*
X22708108Y24149999D01*
X22652246Y24166081D01*
X22611212Y24190313D01*
X22578954Y24224286D01*
X22556440Y24257833D01*
X22526476Y24338499D01*
X22519718Y24432381D01*
X22536782Y24520807D01*
G36*
X22547838Y25195224D02*
G01*
X22598361Y25272528D01*
X22643590Y25309814D01*
X22725663Y25339353D01*
X22790607Y25341699D01*
X22877445Y25336385D01*
X22965103Y25136115D01*
X23009887Y25038739D01*
X23045913Y24975113D01*
X23077117Y24942029D01*
X23107436Y24936280D01*
X23140805Y24954658D01*
X23162923Y24974923D01*
X23198393Y25033889D01*
X23200879Y25098024D01*
X23173235Y25156926D01*
X23118320Y25200197D01*
X23098928Y25207936D01*
X23038364Y25245006D01*
X23012552Y25287654D01*
X22990471Y25346154D01*
X23074184Y25346154D01*
X23131150Y25340982D01*
X23179189Y25320723D01*
X23234346Y25278262D01*
X23241514Y25271951D01*
X23290585Y25224720D01*
X23316920Y25184121D01*
X23329035Y25133328D01*
X23333003Y25091220D01*
X23333991Y25015902D01*
X23321466Y24962286D01*
X23302869Y24928838D01*
X23261975Y24876268D01*
X23217748Y24839879D01*
X23162126Y24816850D01*
X23087047Y24804359D01*
X22984449Y24799587D01*
X22932376Y24799206D01*
X22869948Y24800501D01*
X22869948Y24918471D01*
X22903438Y24919839D01*
X22908923Y24923249D01*
X22901472Y24945753D01*
X22881753Y24994182D01*
X22853718Y25058908D01*
X22847692Y25072443D01*
X22806096Y25154244D01*
X22769538Y25199312D01*
X22735296Y25209217D01*
X22700648Y25185526D01*
X22685339Y25165960D01*
X22654721Y25095360D01*
X22659780Y25029280D01*
X22697151Y24973959D01*
X22763473Y24935636D01*
X22816116Y24923349D01*
X22869948Y24918471D01*
X22869948Y24800501D01*
X22810720Y24801730D01*
X22720710Y24811032D01*
X22655167Y24829460D01*
X22606912Y24859360D01*
X22568767Y24903080D01*
X22556440Y24922141D01*
X22524336Y25008726D01*
X22522316Y25103522D01*
X22547838Y25195224D01*
G37*
X22547838Y25195224D02*
X22598361Y25272528D01*
X22643590Y25309814D01*
X22725663Y25339353D01*
X22790607Y25341699D01*
X22877445Y25336385D01*
X22965103Y25136115D01*
X23009887Y25038739D01*
X23045913Y24975113D01*
X23077117Y24942029D01*
X23107436Y24936280D01*
X23140805Y24954658D01*
X23162923Y24974923D01*
X23198393Y25033889D01*
X23200879Y25098024D01*
X23173235Y25156926D01*
X23118320Y25200197D01*
X23098928Y25207936D01*
X23038364Y25245006D01*
X23012552Y25287654D01*
X22990471Y25346154D01*
X23074184Y25346154D01*
X23131150Y25340982D01*
X23179189Y25320723D01*
X23234346Y25278262D01*
X23241514Y25271951D01*
X23290585Y25224720D01*
X23316920Y25184121D01*
X23329035Y25133328D01*
X23333003Y25091220D01*
X23333991Y25015902D01*
X23321466Y24962286D01*
X23302869Y24928838D01*
X23261975Y24876268D01*
X23217748Y24839879D01*
X23162126Y24816850D01*
X23087047Y24804359D01*
X22984449Y24799587D01*
X22932376Y24799206D01*
X22869948Y24800501D01*
X22869948Y24918471D01*
X22903438Y24919839D01*
X22908923Y24923249D01*
X22901472Y24945753D01*
X22881753Y24994182D01*
X22853718Y25058908D01*
X22847692Y25072443D01*
X22806096Y25154244D01*
X22769538Y25199312D01*
X22735296Y25209217D01*
X22700648Y25185526D01*
X22685339Y25165960D01*
X22654721Y25095360D01*
X22659780Y25029280D01*
X22697151Y24973959D01*
X22763473Y24935636D01*
X22816116Y24923349D01*
X22869948Y24918471D01*
X22869948Y24800501D01*
X22810720Y24801730D01*
X22720710Y24811032D01*
X22655167Y24829460D01*
X22606912Y24859360D01*
X22568767Y24903080D01*
X22556440Y24922141D01*
X22524336Y25008726D01*
X22522316Y25103522D01*
X22547838Y25195224D01*
G36*
X16187776Y21089878D02*
G01*
X16188355Y21195612D01*
X16189922Y21272132D01*
X16192972Y21324372D01*
X16197996Y21357263D01*
X16205489Y21375737D01*
X16215944Y21384727D01*
X16229853Y21389163D01*
X16231654Y21389594D01*
X16264145Y21396333D01*
X16328252Y21408808D01*
X16417151Y21425719D01*
X16524019Y21445771D01*
X16642033Y21467664D01*
X16646178Y21468429D01*
X16761831Y21490359D01*
X16864014Y21510877D01*
X16946598Y21528659D01*
X17003456Y21542381D01*
X17028458Y21550718D01*
X17028901Y21551116D01*
X17041110Y21575677D01*
X17061456Y21626315D01*
X17085545Y21692095D01*
X17085674Y21692461D01*
X17116818Y21775317D01*
X17156491Y21873000D01*
X17196381Y21965077D01*
X17198353Y21969434D01*
X17266420Y22119407D01*
X17039639Y22451498D01*
X16970504Y22553374D01*
X16908697Y22645657D01*
X16857733Y22723003D01*
X16821127Y22780064D01*
X16802394Y22811495D01*
X16801004Y22814479D01*
X16807190Y22837321D01*
X16837035Y22879982D01*
X16891947Y22944128D01*
X16973334Y23031421D01*
X17059922Y23120535D01*
X17145247Y23206441D01*
X17223108Y23283327D01*
X17288697Y23346564D01*
X17337205Y23391523D01*
X17363825Y23413576D01*
X17365195Y23414396D01*
X17383463Y23416834D01*
X17413295Y23407650D01*
X17458721Y23384574D01*
X17523770Y23345337D01*
X17612470Y23287670D01*
X17726657Y23210795D01*
X17827162Y23142570D01*
X17917303Y23081582D01*
X17991849Y23031356D01*
X18045565Y22995416D01*
X18073218Y22977287D01*
X18075095Y22976146D01*
X18101590Y22978359D01*
X18153086Y22995138D01*
X18219851Y23023142D01*
X18241172Y23033122D01*
X18336159Y23076672D01*
X18443937Y23123134D01*
X18537192Y23160877D01*
X18606406Y23188073D01*
X18659006Y23209675D01*
X18686497Y23222158D01*
X18688616Y23223709D01*
X18692124Y23246668D01*
X18701738Y23300786D01*
X18716089Y23378868D01*
X18733807Y23473719D01*
X18753525Y23578143D01*
X18773874Y23684944D01*
X18793486Y23786926D01*
X18810991Y23876894D01*
X18825022Y23947653D01*
X18834209Y23992006D01*
X18836807Y24002885D01*
X18843218Y24014122D01*
X18857697Y24022605D01*
X18885133Y24028714D01*
X18930411Y24032832D01*
X18998420Y24035341D01*
X19094047Y24036621D01*
X19222180Y24037054D01*
X19274701Y24037077D01*
X19701845Y24037077D01*
X19722091Y23934500D01*
X19733070Y23877431D01*
X19749095Y23792269D01*
X19768233Y23689372D01*
X19788551Y23579096D01*
X19794132Y23548615D01*
X19813917Y23446855D01*
X19833373Y23358205D01*
X19850697Y23290108D01*
X19864088Y23250004D01*
X19868079Y23243323D01*
X19896342Y23226919D01*
X19951109Y23203399D01*
X20021588Y23177316D01*
X20036769Y23172142D01*
X20130896Y23137956D01*
X20237101Y23095523D01*
X20332473Y23053997D01*
X20332916Y23053792D01*
X20482525Y22984640D01*
X21151617Y23439512D01*
X21444116Y23147500D01*
X21531170Y23059180D01*
X21607909Y22978625D01*
X21670237Y22910360D01*
X21714056Y22858908D01*
X21735270Y22828794D01*
X21736616Y22824474D01*
X21726016Y22799111D01*
X21696547Y22747358D01*
X21651705Y22674868D01*
X21594984Y22587294D01*
X21531462Y22492612D01*
X21466668Y22396516D01*
X21410287Y22310837D01*
X21365788Y22241016D01*
X21336639Y22192494D01*
X21326308Y22170782D01*
X21335050Y22144293D01*
X21358087Y22094062D01*
X21390631Y22030451D01*
X21394249Y22023708D01*
X21437210Y21938046D01*
X21458279Y21879306D01*
X21458503Y21842772D01*
X21438928Y21823731D01*
X21438654Y21823620D01*
X21415472Y21814102D01*
X21360441Y21791403D01*
X21277822Y21757282D01*
X21171872Y21713500D01*
X21046852Y21661816D01*
X20907020Y21603992D01*
X20771637Y21547991D01*
X20622234Y21486447D01*
X20483832Y21429939D01*
X20360673Y21380161D01*
X20257002Y21338806D01*
X20177059Y21307568D01*
X20125088Y21288141D01*
X20105692Y21282154D01*
X20083443Y21297168D01*
X20047982Y21336439D01*
X20008887Y21388807D01*
X19885245Y21537941D01*
X19743522Y21654511D01*
X19586704Y21737118D01*
X19417775Y21784366D01*
X19239722Y21794857D01*
X19157539Y21787231D01*
X18987031Y21745682D01*
X18836459Y21674123D01*
X18707309Y21576995D01*
X18601064Y21458734D01*
X18519210Y21323780D01*
X18463232Y21176571D01*
X18434615Y21021544D01*
X18434844Y20863139D01*
X18465405Y20705794D01*
X18527782Y20553946D01*
X18623460Y20412035D01*
X18677572Y20352803D01*
X18816520Y20239203D01*
X18968361Y20160106D01*
X19128667Y20114986D01*
X19293012Y20103316D01*
X19456971Y20124569D01*
X19616118Y20178220D01*
X19766025Y20263740D01*
X19902267Y20380605D01*
X20008887Y20511193D01*
X20049642Y20565588D01*
X20084718Y20604014D01*
X20105726Y20617846D01*
X20128635Y20610603D01*
X20183365Y20590005D01*
X20265672Y20557746D01*
X20371315Y20515521D01*
X20496050Y20465023D01*
X20635636Y20407948D01*
X20771670Y20351854D01*
X20921201Y20289967D01*
X21059767Y20232644D01*
X21183107Y20181644D01*
X21286964Y20138727D01*
X21367080Y20105653D01*
X21419195Y20084181D01*
X21438654Y20076225D01*
X21458423Y20057429D01*
X21458365Y20021074D01*
X21437441Y19962479D01*
X21394613Y19876968D01*
X21394249Y19876292D01*
X21361012Y19811907D01*
X21336802Y19759861D01*
X21326404Y19730512D01*
X21326308Y19729217D01*
X21336855Y19707124D01*
X21366184Y19658348D01*
X21410827Y19588331D01*
X21467314Y19502514D01*
X21531462Y19407388D01*
X21596411Y19310540D01*
X21652896Y19223253D01*
X21697421Y19151181D01*
X21726490Y19099977D01*
X21736616Y19075526D01*
X21723307Y19053010D01*
X21686112Y19007742D01*
X21629128Y18944244D01*
X21556449Y18867039D01*
X21472171Y18780651D01*
X21444016Y18752399D01*
X21151416Y18460287D01*
X20825104Y18682631D01*
X20724897Y18750202D01*
X20634963Y18809507D01*
X20560510Y18857217D01*
X20506751Y18890007D01*
X20478894Y18904548D01*
X20476912Y18904974D01*
X20450655Y18897308D01*
X20397837Y18876689D01*
X20327310Y18846685D01*
X20280093Y18825625D01*
X20189694Y18786248D01*
X20098366Y18749165D01*
X20021200Y18720415D01*
X19997692Y18712605D01*
X19934916Y18690417D01*
X19886411Y18668727D01*
X19868079Y18656813D01*
X19856859Y18630523D01*
X19840954Y18573142D01*
X19822167Y18492118D01*
X19802299Y18394895D01*
X19794132Y18351385D01*
X19773829Y18240896D01*
X19754170Y18134916D01*
X19737088Y18043801D01*
X19724518Y17977908D01*
X19722091Y17965500D01*
X19701845Y17862923D01*
X19274701Y17862923D01*
X19134246Y17863153D01*
X19027979Y17864099D01*
X18951013Y17866141D01*
X18898460Y17869662D01*
X18865433Y17875043D01*
X18847045Y17882666D01*
X18838408Y17892912D01*
X18836807Y17897115D01*
X18831127Y17922470D01*
X18819795Y17978484D01*
X18804179Y18057964D01*
X18785647Y18153712D01*
X18765569Y18258533D01*
X18745312Y18365232D01*
X18726246Y18466613D01*
X18709739Y18555479D01*
X18697159Y18624637D01*
X18689875Y18666889D01*
X18688616Y18676290D01*
X18671763Y18684807D01*
X18626870Y18703660D01*
X18562430Y18729324D01*
X18537192Y18739123D01*
X18439686Y18778648D01*
X18331959Y18825192D01*
X18241172Y18866877D01*
X18171753Y18897550D01*
X18114710Y18917956D01*
X18079777Y18924768D01*
X18075095Y18923682D01*
X18052991Y18909285D01*
X18003831Y18876412D01*
X17932848Y18828590D01*
X17845278Y18769348D01*
X17746357Y18702215D01*
X17726830Y18688941D01*
X17611140Y18611046D01*
X17523044Y18553787D01*
X17458486Y18514881D01*
X17413411Y18492044D01*
X17383763Y18482994D01*
X17365485Y18485448D01*
X17365369Y18485511D01*
X17341361Y18504827D01*
X17294947Y18547551D01*
X17230937Y18609051D01*
X17154145Y18684698D01*
X17069382Y18769861D01*
X17059922Y18779465D01*
X16955989Y18886790D01*
X16879675Y18969615D01*
X16829571Y19029605D01*
X16804270Y19068423D01*
X16801004Y19085520D01*
X16815250Y19110473D01*
X16848156Y19162255D01*
X16896208Y19235520D01*
X16955890Y19324920D01*
X17023688Y19425111D01*
X17039639Y19448501D01*
X17266420Y19780593D01*
X17198353Y19930565D01*
X17158685Y20021770D01*
X17118791Y20119669D01*
X17086983Y20203831D01*
X17085674Y20207538D01*
X17061576Y20273369D01*
X17041200Y20324116D01*
X17028936Y20348842D01*
X17028901Y20348884D01*
X17006734Y20356729D01*
X16952217Y20370066D01*
X16871480Y20387570D01*
X16770650Y20407917D01*
X16655856Y20429782D01*
X16646178Y20431571D01*
X16527904Y20453504D01*
X16420542Y20473640D01*
X16330917Y20490680D01*
X16265851Y20503328D01*
X16232168Y20510284D01*
X16231654Y20510406D01*
X16217325Y20514639D01*
X16206507Y20522871D01*
X16198706Y20540033D01*
X16193429Y20571058D01*
X16190182Y20620878D01*
X16188472Y20694424D01*
X16187807Y20796629D01*
X16187693Y20932425D01*
X16187692Y20950000D01*
X16187776Y21089878D01*
G37*
X16187776Y21089878D02*
X16188355Y21195612D01*
X16189922Y21272132D01*
X16192972Y21324372D01*
X16197996Y21357263D01*
X16205489Y21375737D01*
X16215944Y21384727D01*
X16229853Y21389163D01*
X16231654Y21389594D01*
X16264145Y21396333D01*
X16328252Y21408808D01*
X16417151Y21425719D01*
X16524019Y21445771D01*
X16642033Y21467664D01*
X16646178Y21468429D01*
X16761831Y21490359D01*
X16864014Y21510877D01*
X16946598Y21528659D01*
X17003456Y21542381D01*
X17028458Y21550718D01*
X17028901Y21551116D01*
X17041110Y21575677D01*
X17061456Y21626315D01*
X17085545Y21692095D01*
X17085674Y21692461D01*
X17116818Y21775317D01*
X17156491Y21873000D01*
X17196381Y21965077D01*
X17198353Y21969434D01*
X17266420Y22119407D01*
X17039639Y22451498D01*
X16970504Y22553374D01*
X16908697Y22645657D01*
X16857733Y22723003D01*
X16821127Y22780064D01*
X16802394Y22811495D01*
X16801004Y22814479D01*
X16807190Y22837321D01*
X16837035Y22879982D01*
X16891947Y22944128D01*
X16973334Y23031421D01*
X17059922Y23120535D01*
X17145247Y23206441D01*
X17223108Y23283327D01*
X17288697Y23346564D01*
X17337205Y23391523D01*
X17363825Y23413576D01*
X17365195Y23414396D01*
X17383463Y23416834D01*
X17413295Y23407650D01*
X17458721Y23384574D01*
X17523770Y23345337D01*
X17612470Y23287670D01*
X17726657Y23210795D01*
X17827162Y23142570D01*
X17917303Y23081582D01*
X17991849Y23031356D01*
X18045565Y22995416D01*
X18073218Y22977287D01*
X18075095Y22976146D01*
X18101590Y22978359D01*
X18153086Y22995138D01*
X18219851Y23023142D01*
X18241172Y23033122D01*
X18336159Y23076672D01*
X18443937Y23123134D01*
X18537192Y23160877D01*
X18606406Y23188073D01*
X18659006Y23209675D01*
X18686497Y23222158D01*
X18688616Y23223709D01*
X18692124Y23246668D01*
X18701738Y23300786D01*
X18716089Y23378868D01*
X18733807Y23473719D01*
X18753525Y23578143D01*
X18773874Y23684944D01*
X18793486Y23786926D01*
X18810991Y23876894D01*
X18825022Y23947653D01*
X18834209Y23992006D01*
X18836807Y24002885D01*
X18843218Y24014122D01*
X18857697Y24022605D01*
X18885133Y24028714D01*
X18930411Y24032832D01*
X18998420Y24035341D01*
X19094047Y24036621D01*
X19222180Y24037054D01*
X19274701Y24037077D01*
X19701845Y24037077D01*
X19722091Y23934500D01*
X19733070Y23877431D01*
X19749095Y23792269D01*
X19768233Y23689372D01*
X19788551Y23579096D01*
X19794132Y23548615D01*
X19813917Y23446855D01*
X19833373Y23358205D01*
X19850697Y23290108D01*
X19864088Y23250004D01*
X19868079Y23243323D01*
X19896342Y23226919D01*
X19951109Y23203399D01*
X20021588Y23177316D01*
X20036769Y23172142D01*
X20130896Y23137956D01*
X20237101Y23095523D01*
X20332473Y23053997D01*
X20332916Y23053792D01*
X20482525Y22984640D01*
X21151617Y23439512D01*
X21444116Y23147500D01*
X21531170Y23059180D01*
X21607909Y22978625D01*
X21670237Y22910360D01*
X21714056Y22858908D01*
X21735270Y22828794D01*
X21736616Y22824474D01*
X21726016Y22799111D01*
X21696547Y22747358D01*
X21651705Y22674868D01*
X21594984Y22587294D01*
X21531462Y22492612D01*
X21466668Y22396516D01*
X21410287Y22310837D01*
X21365788Y22241016D01*
X21336639Y22192494D01*
X21326308Y22170782D01*
X21335050Y22144293D01*
X21358087Y22094062D01*
X21390631Y22030451D01*
X21394249Y22023708D01*
X21437210Y21938046D01*
X21458279Y21879306D01*
X21458503Y21842772D01*
X21438928Y21823731D01*
X21438654Y21823620D01*
X21415472Y21814102D01*
X21360441Y21791403D01*
X21277822Y21757282D01*
X21171872Y21713500D01*
X21046852Y21661816D01*
X20907020Y21603992D01*
X20771637Y21547991D01*
X20622234Y21486447D01*
X20483832Y21429939D01*
X20360673Y21380161D01*
X20257002Y21338806D01*
X20177059Y21307568D01*
X20125088Y21288141D01*
X20105692Y21282154D01*
X20083443Y21297168D01*
X20047982Y21336439D01*
X20008887Y21388807D01*
X19885245Y21537941D01*
X19743522Y21654511D01*
X19586704Y21737118D01*
X19417775Y21784366D01*
X19239722Y21794857D01*
X19157539Y21787231D01*
X18987031Y21745682D01*
X18836459Y21674123D01*
X18707309Y21576995D01*
X18601064Y21458734D01*
X18519210Y21323780D01*
X18463232Y21176571D01*
X18434615Y21021544D01*
X18434844Y20863139D01*
X18465405Y20705794D01*
X18527782Y20553946D01*
X18623460Y20412035D01*
X18677572Y20352803D01*
X18816520Y20239203D01*
X18968361Y20160106D01*
X19128667Y20114986D01*
X19293012Y20103316D01*
X19456971Y20124569D01*
X19616118Y20178220D01*
X19766025Y20263740D01*
X19902267Y20380605D01*
X20008887Y20511193D01*
X20049642Y20565588D01*
X20084718Y20604014D01*
X20105726Y20617846D01*
X20128635Y20610603D01*
X20183365Y20590005D01*
X20265672Y20557746D01*
X20371315Y20515521D01*
X20496050Y20465023D01*
X20635636Y20407948D01*
X20771670Y20351854D01*
X20921201Y20289967D01*
X21059767Y20232644D01*
X21183107Y20181644D01*
X21286964Y20138727D01*
X21367080Y20105653D01*
X21419195Y20084181D01*
X21438654Y20076225D01*
X21458423Y20057429D01*
X21458365Y20021074D01*
X21437441Y19962479D01*
X21394613Y19876968D01*
X21394249Y19876292D01*
X21361012Y19811907D01*
X21336802Y19759861D01*
X21326404Y19730512D01*
X21326308Y19729217D01*
X21336855Y19707124D01*
X21366184Y19658348D01*
X21410827Y19588331D01*
X21467314Y19502514D01*
X21531462Y19407388D01*
X21596411Y19310540D01*
X21652896Y19223253D01*
X21697421Y19151181D01*
X21726490Y19099977D01*
X21736616Y19075526D01*
X21723307Y19053010D01*
X21686112Y19007742D01*
X21629128Y18944244D01*
X21556449Y18867039D01*
X21472171Y18780651D01*
X21444016Y18752399D01*
X21151416Y18460287D01*
X20825104Y18682631D01*
X20724897Y18750202D01*
X20634963Y18809507D01*
X20560510Y18857217D01*
X20506751Y18890007D01*
X20478894Y18904548D01*
X20476912Y18904974D01*
X20450655Y18897308D01*
X20397837Y18876689D01*
X20327310Y18846685D01*
X20280093Y18825625D01*
X20189694Y18786248D01*
X20098366Y18749165D01*
X20021200Y18720415D01*
X19997692Y18712605D01*
X19934916Y18690417D01*
X19886411Y18668727D01*
X19868079Y18656813D01*
X19856859Y18630523D01*
X19840954Y18573142D01*
X19822167Y18492118D01*
X19802299Y18394895D01*
X19794132Y18351385D01*
X19773829Y18240896D01*
X19754170Y18134916D01*
X19737088Y18043801D01*
X19724518Y17977908D01*
X19722091Y17965500D01*
X19701845Y17862923D01*
X19274701Y17862923D01*
X19134246Y17863153D01*
X19027979Y17864099D01*
X18951013Y17866141D01*
X18898460Y17869662D01*
X18865433Y17875043D01*
X18847045Y17882666D01*
X18838408Y17892912D01*
X18836807Y17897115D01*
X18831127Y17922470D01*
X18819795Y17978484D01*
X18804179Y18057964D01*
X18785647Y18153712D01*
X18765569Y18258533D01*
X18745312Y18365232D01*
X18726246Y18466613D01*
X18709739Y18555479D01*
X18697159Y18624637D01*
X18689875Y18666889D01*
X18688616Y18676290D01*
X18671763Y18684807D01*
X18626870Y18703660D01*
X18562430Y18729324D01*
X18537192Y18739123D01*
X18439686Y18778648D01*
X18331959Y18825192D01*
X18241172Y18866877D01*
X18171753Y18897550D01*
X18114710Y18917956D01*
X18079777Y18924768D01*
X18075095Y18923682D01*
X18052991Y18909285D01*
X18003831Y18876412D01*
X17932848Y18828590D01*
X17845278Y18769348D01*
X17746357Y18702215D01*
X17726830Y18688941D01*
X17611140Y18611046D01*
X17523044Y18553787D01*
X17458486Y18514881D01*
X17413411Y18492044D01*
X17383763Y18482994D01*
X17365485Y18485448D01*
X17365369Y18485511D01*
X17341361Y18504827D01*
X17294947Y18547551D01*
X17230937Y18609051D01*
X17154145Y18684698D01*
X17069382Y18769861D01*
X17059922Y18779465D01*
X16955989Y18886790D01*
X16879675Y18969615D01*
X16829571Y19029605D01*
X16804270Y19068423D01*
X16801004Y19085520D01*
X16815250Y19110473D01*
X16848156Y19162255D01*
X16896208Y19235520D01*
X16955890Y19324920D01*
X17023688Y19425111D01*
X17039639Y19448501D01*
X17266420Y19780593D01*
X17198353Y19930565D01*
X17158685Y20021770D01*
X17118791Y20119669D01*
X17086983Y20203831D01*
X17085674Y20207538D01*
X17061576Y20273369D01*
X17041200Y20324116D01*
X17028936Y20348842D01*
X17028901Y20348884D01*
X17006734Y20356729D01*
X16952217Y20370066D01*
X16871480Y20387570D01*
X16770650Y20407917D01*
X16655856Y20429782D01*
X16646178Y20431571D01*
X16527904Y20453504D01*
X16420542Y20473640D01*
X16330917Y20490680D01*
X16265851Y20503328D01*
X16232168Y20510284D01*
X16231654Y20510406D01*
X16217325Y20514639D01*
X16206507Y20522871D01*
X16198706Y20540033D01*
X16193429Y20571058D01*
X16190182Y20620878D01*
X16188472Y20694424D01*
X16187807Y20796629D01*
X16187693Y20932425D01*
X16187692Y20950000D01*
X16187776Y21089878D01*
D12*
X11110000Y31685000D02*
X7200000Y31685000D01*
X11110000Y29815000D02*
X11110000Y31685000D01*
X7200000Y29815000D02*
X11110000Y29815000D01*
X6500000Y11450000D02*
X6500000Y9750000D01*
X6500000Y9750000D02*
X9050000Y9750000D01*
X6500000Y11450000D02*
X9050000Y11450000D01*
X34500000Y14600000D02*
X34500000Y13300000D01*
X33700000Y14600000D02*
X33700000Y13300000D01*
X33700000Y13300000D02*
X34500000Y13300000D01*
X29110000Y3340580D02*
X29110000Y3059420D01*
X28090000Y3340580D02*
X28090000Y3059420D01*
X22877500Y6362742D02*
X22877500Y6837258D01*
X23922500Y6362742D02*
X23922500Y6837258D01*
X23922500Y3437258D02*
X23922500Y2962742D01*
X22877500Y3437258D02*
X22877500Y2962742D01*
X20480000Y3100000D02*
X20480000Y6700000D01*
X13120000Y3100000D02*
X13120000Y6700000D01*
X18600000Y8580000D02*
X15000000Y8580000D01*
X18600000Y1220000D02*
X15000000Y1220000D01*
X8237258Y28277500D02*
X7762742Y28277500D01*
X8237258Y29322500D02*
X7762742Y29322500D01*
X9500000Y11750000D02*
X9500000Y13450000D01*
X9500000Y13450000D02*
X6950000Y13450000D01*
X9500000Y11750000D02*
X6950000Y11750000D01*
X8237258Y26677500D02*
X7762742Y26677500D01*
X8237258Y27722500D02*
X7762742Y27722500D01*
X33937258Y20627500D02*
X33462742Y20627500D01*
X33937258Y21672500D02*
X33462742Y21672500D01*
X33462742Y18582500D02*
X33937258Y18582500D01*
X33462742Y17537500D02*
X33937258Y17537500D01*
X33559420Y16970000D02*
X33840580Y16970000D01*
X33559420Y15950000D02*
X33840580Y15950000D01*
X7340000Y21780000D02*
X7340000Y20850000D01*
X7340000Y18620000D02*
X7340000Y19550000D01*
X7340000Y18620000D02*
X9500000Y18620000D01*
X7340000Y21780000D02*
X8800000Y21780000D01*
X11110000Y20340580D02*
X11110000Y20059420D01*
X10090000Y20340580D02*
X10090000Y20059420D01*
X7859420Y18110000D02*
X8140580Y18110000D01*
X7859420Y17090000D02*
X8140580Y17090000D01*
X32865000Y4000000D02*
X32865000Y1715000D01*
X32865000Y1715000D02*
X34335000Y1715000D01*
X34335000Y1715000D02*
X34335000Y4000000D01*
X37665000Y4000000D02*
X37665000Y1715000D01*
X37665000Y1715000D02*
X39135000Y1715000D01*
X39135000Y1715000D02*
X39135000Y4000000D01*
X40100000Y30800000D02*
X38100000Y30800000D01*
X38100000Y30800000D02*
X38100000Y26900000D01*
X40100000Y30800000D02*
X40100000Y26900000D01*
X43159420Y17660000D02*
X43440580Y17660000D01*
X43159420Y16640000D02*
X43440580Y16640000D01*
X47100000Y19050000D02*
X46840000Y19050000D01*
X44560000Y19050000D02*
X42790000Y19050000D01*
X42790000Y19050000D02*
X42790000Y19430000D01*
X42790000Y26670000D02*
X44560000Y26670000D01*
X46840000Y26670000D02*
X47100000Y26670000D01*
X42790000Y26670000D02*
X42790000Y26290000D01*
X34677500Y2962742D02*
X34677500Y3437258D01*
X35722500Y2962742D02*
X35722500Y3437258D01*
X36277500Y2962742D02*
X36277500Y3437258D01*
X37322500Y2962742D02*
X37322500Y3437258D01*
X7762742Y9322500D02*
X8237258Y9322500D01*
X7762742Y8277500D02*
X8237258Y8277500D01*
X7762742Y14882500D02*
X8237258Y14882500D01*
X7762742Y13837500D02*
X8237258Y13837500D01*
X7762742Y16422500D02*
X8237258Y16422500D01*
X7762742Y15377500D02*
X8237258Y15377500D01*
X670000Y23430000D02*
X2000000Y23430000D01*
X670000Y22100000D02*
X670000Y23430000D01*
X3270000Y23430000D02*
X5870000Y23430000D01*
X3270000Y20830000D02*
X3270000Y23430000D01*
X670000Y20830000D02*
X3270000Y20830000D01*
X5870000Y23430000D02*
X5870000Y8070000D01*
X670000Y20830000D02*
X670000Y8070000D01*
X670000Y8070000D02*
X5870000Y8070000D01*
X33937258Y25837500D02*
X33462742Y25837500D01*
X33937258Y26882500D02*
X33462742Y26882500D01*
X33937258Y27437500D02*
X33462742Y27437500D01*
X33937258Y28482500D02*
X33462742Y28482500D01*
X7762742Y26082500D02*
X8237258Y26082500D01*
X7762742Y25037500D02*
X8237258Y25037500D01*
X7762742Y24482500D02*
X8237258Y24482500D01*
X7762742Y23437500D02*
X8237258Y23437500D01*
X33462742Y30082500D02*
X33937258Y30082500D01*
X33462742Y29037500D02*
X33937258Y29037500D01*
X11240580Y23490000D02*
X10959420Y23490000D01*
X11240580Y24510000D02*
X10959420Y24510000D01*
X12900000Y30220000D02*
X13590000Y30220000D01*
X13590000Y32220000D02*
X13590000Y30220000D01*
X13590000Y21200000D02*
X13590000Y18720000D01*
X30810000Y11900000D02*
X30810000Y9600000D01*
X13590000Y9600000D02*
X30810000Y9600000D01*
X13590000Y11900000D02*
X13590000Y9600000D01*
X30810000Y21200000D02*
X30810000Y18720000D01*
X13590000Y32220000D02*
X30810000Y32220000D01*
X30810000Y32220000D02*
X30810000Y30220000D01*
X39120000Y13860000D02*
X39120000Y10260000D01*
X46480000Y13860000D02*
X46480000Y10260000D01*
X41000000Y8380000D02*
X44600000Y8380000D01*
X41000000Y15740000D02*
X44600000Y15740000D01*
D10*
X28007142Y6614286D02*
X28735714Y6614286D01*
X28821428Y6657143D01*
X28864285Y6700000D01*
X28907142Y6785715D01*
X28907142Y6957143D01*
X28864285Y7042858D01*
X28821428Y7085715D01*
X28735714Y7128572D01*
X28007142Y7128572D01*
X28907142Y8028572D02*
X28907142Y7514286D01*
X28907142Y7771429D02*
X28007142Y7771429D01*
X28135714Y7685715D01*
X28221428Y7600000D01*
X28264285Y7514286D01*
X36414285Y23042858D02*
X36414285Y22314286D01*
X36457142Y22228572D01*
X36500000Y22185715D01*
X36585714Y22142858D01*
X36757142Y22142858D01*
X36842857Y22185715D01*
X36885714Y22228572D01*
X36928571Y22314286D01*
X36928571Y23042858D01*
X37271428Y23042858D02*
X37828571Y23042858D01*
X37528571Y22700000D01*
X37657142Y22700000D01*
X37742857Y22657143D01*
X37785714Y22614286D01*
X37828571Y22528572D01*
X37828571Y22314286D01*
X37785714Y22228572D01*
X37742857Y22185715D01*
X37657142Y22142858D01*
X37400000Y22142858D01*
X37314285Y22185715D01*
X37271428Y22228572D01*
X38107142Y16264286D02*
X38835714Y16264286D01*
X38921428Y16307143D01*
X38964285Y16350000D01*
X39007142Y16435715D01*
X39007142Y16607143D01*
X38964285Y16692858D01*
X38921428Y16735715D01*
X38835714Y16778572D01*
X38107142Y16778572D01*
X38107142Y17635715D02*
X38107142Y17207143D01*
X38535714Y17164286D01*
X38492857Y17207143D01*
X38450000Y17292858D01*
X38450000Y17507143D01*
X38492857Y17592858D01*
X38535714Y17635715D01*
X38621428Y17678572D01*
X38835714Y17678572D01*
X38921428Y17635715D01*
X38964285Y17592858D01*
X39007142Y17507143D01*
X39007142Y17292858D01*
X38964285Y17207143D01*
X38921428Y17164286D01*
X36321428Y19100000D02*
X36364285Y19057143D01*
X36407142Y18928572D01*
X36407142Y18842858D01*
X36364285Y18714286D01*
X36278571Y18628572D01*
X36192857Y18585715D01*
X36021428Y18542858D01*
X35892857Y18542858D01*
X35721428Y18585715D01*
X35635714Y18628572D01*
X35550000Y18714286D01*
X35507142Y18842858D01*
X35507142Y18928572D01*
X35550000Y19057143D01*
X35592857Y19100000D01*
X35507142Y19400000D02*
X35507142Y19957143D01*
X35850000Y19657143D01*
X35850000Y19785715D01*
X35892857Y19871429D01*
X35935714Y19914286D01*
X36021428Y19957143D01*
X36235714Y19957143D01*
X36321428Y19914286D01*
X36364285Y19871429D01*
X36407142Y19785715D01*
X36407142Y19528572D01*
X36364285Y19442858D01*
X36321428Y19400000D01*
X11950000Y30428572D02*
X11907142Y30385715D01*
X11778571Y30342858D01*
X11692857Y30342858D01*
X11564285Y30385715D01*
X11478571Y30471429D01*
X11435714Y30557143D01*
X11392857Y30728572D01*
X11392857Y30857143D01*
X11435714Y31028572D01*
X11478571Y31114286D01*
X11564285Y31200000D01*
X11692857Y31242858D01*
X11778571Y31242858D01*
X11907142Y31200000D01*
X11950000Y31157143D01*
X12292857Y31157143D02*
X12335714Y31200000D01*
X12421428Y31242858D01*
X12635714Y31242858D01*
X12721428Y31200000D01*
X12764285Y31157143D01*
X12807142Y31071429D01*
X12807142Y30985715D01*
X12764285Y30857143D01*
X12250000Y30342858D01*
X12807142Y30342858D01*
X10185714Y10192858D02*
X10185714Y11092858D01*
X10400000Y11092858D01*
X10528571Y11050000D01*
X10614285Y10964286D01*
X10657142Y10878572D01*
X10700000Y10707143D01*
X10700000Y10578572D01*
X10657142Y10407143D01*
X10614285Y10321429D01*
X10528571Y10235715D01*
X10400000Y10192858D01*
X10185714Y10192858D01*
X11514285Y11092858D02*
X11085714Y11092858D01*
X11042857Y10664286D01*
X11085714Y10707143D01*
X11171428Y10750000D01*
X11385714Y10750000D01*
X11471428Y10707143D01*
X11514285Y10664286D01*
X11557142Y10578572D01*
X11557142Y10364286D01*
X11514285Y10278572D01*
X11471428Y10235715D01*
X11385714Y10192858D01*
X11171428Y10192858D01*
X11085714Y10235715D01*
X11042857Y10278572D01*
X30321428Y3550000D02*
X30364285Y3507143D01*
X30407142Y3378572D01*
X30407142Y3292858D01*
X30364285Y3164286D01*
X30278571Y3078572D01*
X30192857Y3035715D01*
X30021428Y2992858D01*
X29892857Y2992858D01*
X29721428Y3035715D01*
X29635714Y3078572D01*
X29550000Y3164286D01*
X29507142Y3292858D01*
X29507142Y3378572D01*
X29550000Y3507143D01*
X29592857Y3550000D01*
X30407142Y4407143D02*
X30407142Y3892858D01*
X30407142Y4150000D02*
X29507142Y4150000D01*
X29635714Y4064286D01*
X29721428Y3978572D01*
X29764285Y3892858D01*
X22377142Y6021429D02*
X21948571Y5721429D01*
X22377142Y5507143D02*
X21477142Y5507143D01*
X21477142Y5850000D01*
X21520000Y5935715D01*
X21562857Y5978572D01*
X21648571Y6021429D01*
X21777142Y6021429D01*
X21862857Y5978572D01*
X21905714Y5935715D01*
X21948571Y5850000D01*
X21948571Y5507143D01*
X22377142Y6878572D02*
X22377142Y6364286D01*
X22377142Y6621429D02*
X21477142Y6621429D01*
X21605714Y6535715D01*
X21691428Y6450000D01*
X21734285Y6364286D01*
X21477142Y7178572D02*
X21477142Y7778572D01*
X22377142Y7392858D01*
X22307142Y2621429D02*
X21878571Y2321429D01*
X22307142Y2107143D02*
X21407142Y2107143D01*
X21407142Y2450000D01*
X21450000Y2535715D01*
X21492857Y2578572D01*
X21578571Y2621429D01*
X21707142Y2621429D01*
X21792857Y2578572D01*
X21835714Y2535715D01*
X21878571Y2450000D01*
X21878571Y2107143D01*
X22307142Y3478572D02*
X22307142Y2964286D01*
X22307142Y3221429D02*
X21407142Y3221429D01*
X21535714Y3135715D01*
X21621428Y3050000D01*
X21664285Y2964286D01*
X21407142Y4250000D02*
X21407142Y4078572D01*
X21450000Y3992858D01*
X21492857Y3950000D01*
X21621428Y3864286D01*
X21792857Y3821429D01*
X22135714Y3821429D01*
X22221428Y3864286D01*
X22264285Y3907143D01*
X22307142Y3992858D01*
X22307142Y4164286D01*
X22264285Y4250000D01*
X22221428Y4292858D01*
X22135714Y4335715D01*
X21921428Y4335715D01*
X21835714Y4292858D01*
X21792857Y4250000D01*
X21750000Y4164286D01*
X21750000Y3992858D01*
X21792857Y3907143D01*
X21835714Y3864286D01*
X21921428Y3821429D01*
X11300000Y2792858D02*
X11300000Y2150000D01*
X11257142Y2021429D01*
X11171428Y1935715D01*
X11042857Y1892858D01*
X10957142Y1892858D01*
X11685714Y2707143D02*
X11728571Y2750000D01*
X11814285Y2792858D01*
X12028571Y2792858D01*
X12114285Y2750000D01*
X12157142Y2707143D01*
X12200000Y2621429D01*
X12200000Y2535715D01*
X12157142Y2407143D01*
X11642857Y1892858D01*
X12200000Y1892858D01*
X10321428Y28392858D02*
X10021428Y28821429D01*
X9807142Y28392858D02*
X9807142Y29292858D01*
X10150000Y29292858D01*
X10235714Y29250000D01*
X10278571Y29207143D01*
X10321428Y29121429D01*
X10321428Y28992858D01*
X10278571Y28907143D01*
X10235714Y28864286D01*
X10150000Y28821429D01*
X9807142Y28821429D01*
X11178571Y28392858D02*
X10664285Y28392858D01*
X10921428Y28392858D02*
X10921428Y29292858D01*
X10835714Y29164286D01*
X10750000Y29078572D01*
X10664285Y29035715D01*
X11950000Y28992858D02*
X11950000Y28392858D01*
X11735714Y29335715D02*
X11521428Y28692858D01*
X12078571Y28692858D01*
X10035714Y12192858D02*
X10035714Y13092858D01*
X10250000Y13092858D01*
X10378571Y13050000D01*
X10464285Y12964286D01*
X10507142Y12878572D01*
X10550000Y12707143D01*
X10550000Y12578572D01*
X10507142Y12407143D01*
X10464285Y12321429D01*
X10378571Y12235715D01*
X10250000Y12192858D01*
X10035714Y12192858D01*
X11321428Y12792858D02*
X11321428Y12192858D01*
X11107142Y13135715D02*
X10892857Y12492858D01*
X11450000Y12492858D01*
X10321428Y26792858D02*
X10021428Y27221429D01*
X9807142Y26792858D02*
X9807142Y27692858D01*
X10150000Y27692858D01*
X10235714Y27650000D01*
X10278571Y27607143D01*
X10321428Y27521429D01*
X10321428Y27392858D01*
X10278571Y27307143D01*
X10235714Y27264286D01*
X10150000Y27221429D01*
X9807142Y27221429D01*
X11178571Y26792858D02*
X10664285Y26792858D01*
X10921428Y26792858D02*
X10921428Y27692858D01*
X10835714Y27564286D01*
X10750000Y27478572D01*
X10664285Y27435715D01*
X11992857Y27692858D02*
X11564285Y27692858D01*
X11521428Y27264286D01*
X11564285Y27307143D01*
X11650000Y27350000D01*
X11864285Y27350000D01*
X11950000Y27307143D01*
X11992857Y27264286D01*
X12035714Y27178572D01*
X12035714Y26964286D01*
X11992857Y26878572D01*
X11950000Y26835715D01*
X11864285Y26792858D01*
X11650000Y26792858D01*
X11564285Y26835715D01*
X11521428Y26878572D01*
X35950000Y20742858D02*
X35650000Y21171429D01*
X35435714Y20742858D02*
X35435714Y21642858D01*
X35778571Y21642858D01*
X35864285Y21600000D01*
X35907142Y21557143D01*
X35950000Y21471429D01*
X35950000Y21342858D01*
X35907142Y21257143D01*
X35864285Y21214286D01*
X35778571Y21171429D01*
X35435714Y21171429D01*
X36378571Y20742858D02*
X36550000Y20742858D01*
X36635714Y20785715D01*
X36678571Y20828572D01*
X36764285Y20957143D01*
X36807142Y21128572D01*
X36807142Y21471429D01*
X36764285Y21557143D01*
X36721428Y21600000D01*
X36635714Y21642858D01*
X36464285Y21642858D01*
X36378571Y21600000D01*
X36335714Y21557143D01*
X36292857Y21471429D01*
X36292857Y21257143D01*
X36335714Y21171429D01*
X36378571Y21128572D01*
X36464285Y21085715D01*
X36635714Y21085715D01*
X36721428Y21128572D01*
X36764285Y21171429D01*
X36807142Y21257143D01*
X33550000Y18942858D02*
X33250000Y19371429D01*
X33035714Y18942858D02*
X33035714Y19842858D01*
X33378571Y19842858D01*
X33464285Y19800000D01*
X33507142Y19757143D01*
X33550000Y19671429D01*
X33550000Y19542858D01*
X33507142Y19457143D01*
X33464285Y19414286D01*
X33378571Y19371429D01*
X33035714Y19371429D01*
X34321428Y19542858D02*
X34321428Y18942858D01*
X34107142Y19885715D02*
X33892857Y19242858D01*
X34450000Y19242858D01*
X36450000Y16128572D02*
X36407142Y16085715D01*
X36278571Y16042858D01*
X36192857Y16042858D01*
X36064285Y16085715D01*
X35978571Y16171429D01*
X35935714Y16257143D01*
X35892857Y16428572D01*
X35892857Y16557143D01*
X35935714Y16728572D01*
X35978571Y16814286D01*
X36064285Y16900000D01*
X36192857Y16942858D01*
X36278571Y16942858D01*
X36407142Y16900000D01*
X36450000Y16857143D01*
X37264285Y16942858D02*
X36835714Y16942858D01*
X36792857Y16514286D01*
X36835714Y16557143D01*
X36921428Y16600000D01*
X37135714Y16600000D01*
X37221428Y16557143D01*
X37264285Y16514286D01*
X37307142Y16428572D01*
X37307142Y16214286D01*
X37264285Y16128572D01*
X37221428Y16085715D01*
X37135714Y16042858D01*
X36921428Y16042858D01*
X36835714Y16085715D01*
X36792857Y16128572D01*
X7414285Y22992858D02*
X7414285Y22264286D01*
X7457142Y22178572D01*
X7500000Y22135715D01*
X7585714Y22092858D01*
X7757142Y22092858D01*
X7842857Y22135715D01*
X7885714Y22178572D01*
X7928571Y22264286D01*
X7928571Y22992858D01*
X8742857Y22692858D02*
X8742857Y22092858D01*
X8528571Y23035715D02*
X8314285Y22392858D01*
X8871428Y22392858D01*
X12321428Y20250000D02*
X12364285Y20207143D01*
X12407142Y20078572D01*
X12407142Y19992858D01*
X12364285Y19864286D01*
X12278571Y19778572D01*
X12192857Y19735715D01*
X12021428Y19692858D01*
X11892857Y19692858D01*
X11721428Y19735715D01*
X11635714Y19778572D01*
X11550000Y19864286D01*
X11507142Y19992858D01*
X11507142Y20078572D01*
X11550000Y20207143D01*
X11592857Y20250000D01*
X11892857Y20764286D02*
X11850000Y20678572D01*
X11807142Y20635715D01*
X11721428Y20592858D01*
X11678571Y20592858D01*
X11592857Y20635715D01*
X11550000Y20678572D01*
X11507142Y20764286D01*
X11507142Y20935715D01*
X11550000Y21021429D01*
X11592857Y21064286D01*
X11678571Y21107143D01*
X11721428Y21107143D01*
X11807142Y21064286D01*
X11850000Y21021429D01*
X11892857Y20935715D01*
X11892857Y20764286D01*
X11935714Y20678572D01*
X11978571Y20635715D01*
X12064285Y20592858D01*
X12235714Y20592858D01*
X12321428Y20635715D01*
X12364285Y20678572D01*
X12407142Y20764286D01*
X12407142Y20935715D01*
X12364285Y21021429D01*
X12321428Y21064286D01*
X12235714Y21107143D01*
X12064285Y21107143D01*
X11978571Y21064286D01*
X11935714Y21021429D01*
X11892857Y20935715D01*
X10850000Y16978572D02*
X10807142Y16935715D01*
X10678571Y16892858D01*
X10592857Y16892858D01*
X10464285Y16935715D01*
X10378571Y17021429D01*
X10335714Y17107143D01*
X10292857Y17278572D01*
X10292857Y17407143D01*
X10335714Y17578572D01*
X10378571Y17664286D01*
X10464285Y17750000D01*
X10592857Y17792858D01*
X10678571Y17792858D01*
X10807142Y17750000D01*
X10850000Y17707143D01*
X11150000Y17792858D02*
X11750000Y17792858D01*
X11364285Y16892858D01*
X34007142Y5035715D02*
X33107142Y5035715D01*
X33107142Y5250000D01*
X33150000Y5378572D01*
X33235714Y5464286D01*
X33321428Y5507143D01*
X33492857Y5550000D01*
X33621428Y5550000D01*
X33792857Y5507143D01*
X33878571Y5464286D01*
X33964285Y5378572D01*
X34007142Y5250000D01*
X34007142Y5035715D01*
X33107142Y5850000D02*
X33107142Y6407143D01*
X33450000Y6107143D01*
X33450000Y6235715D01*
X33492857Y6321429D01*
X33535714Y6364286D01*
X33621428Y6407143D01*
X33835714Y6407143D01*
X33921428Y6364286D01*
X33964285Y6321429D01*
X34007142Y6235715D01*
X34007142Y5978572D01*
X33964285Y5892858D01*
X33921428Y5850000D01*
X38807142Y5035715D02*
X37907142Y5035715D01*
X37907142Y5250000D01*
X37950000Y5378572D01*
X38035714Y5464286D01*
X38121428Y5507143D01*
X38292857Y5550000D01*
X38421428Y5550000D01*
X38592857Y5507143D01*
X38678571Y5464286D01*
X38764285Y5378572D01*
X38807142Y5250000D01*
X38807142Y5035715D01*
X37992857Y5892858D02*
X37950000Y5935715D01*
X37907142Y6021429D01*
X37907142Y6235715D01*
X37950000Y6321429D01*
X37992857Y6364286D01*
X38078571Y6407143D01*
X38164285Y6407143D01*
X38292857Y6364286D01*
X38807142Y5850000D01*
X38807142Y6407143D01*
X38435714Y31842858D02*
X38435714Y32742858D01*
X38650000Y32742858D01*
X38778571Y32700000D01*
X38864285Y32614286D01*
X38907142Y32528572D01*
X38950000Y32357143D01*
X38950000Y32228572D01*
X38907142Y32057143D01*
X38864285Y31971429D01*
X38778571Y31885715D01*
X38650000Y31842858D01*
X38435714Y31842858D01*
X39807142Y31842858D02*
X39292857Y31842858D01*
X39550000Y31842858D02*
X39550000Y32742858D01*
X39464285Y32614286D01*
X39378571Y32528572D01*
X39292857Y32485715D01*
X40750000Y16228572D02*
X40707142Y16185715D01*
X40578571Y16142858D01*
X40492857Y16142858D01*
X40364285Y16185715D01*
X40278571Y16271429D01*
X40235714Y16357143D01*
X40192857Y16528572D01*
X40192857Y16657143D01*
X40235714Y16828572D01*
X40278571Y16914286D01*
X40364285Y17000000D01*
X40492857Y17042858D01*
X40578571Y17042858D01*
X40707142Y17000000D01*
X40750000Y16957143D01*
X41521428Y17042858D02*
X41350000Y17042858D01*
X41264285Y17000000D01*
X41221428Y16957143D01*
X41135714Y16828572D01*
X41092857Y16657143D01*
X41092857Y16314286D01*
X41135714Y16228572D01*
X41178571Y16185715D01*
X41264285Y16142858D01*
X41435714Y16142858D01*
X41521428Y16185715D01*
X41564285Y16228572D01*
X41607142Y16314286D01*
X41607142Y16528572D01*
X41564285Y16614286D01*
X41521428Y16657143D01*
X41435714Y16700000D01*
X41264285Y16700000D01*
X41178571Y16657143D01*
X41135714Y16614286D01*
X41092857Y16528572D01*
X45700000Y18042858D02*
X45700000Y17400000D01*
X45657142Y17271429D01*
X45571428Y17185715D01*
X45442857Y17142858D01*
X45357142Y17142858D01*
X46514285Y17742858D02*
X46514285Y17142858D01*
X46300000Y18085715D02*
X46085714Y17442858D01*
X46642857Y17442858D01*
X35607142Y5521429D02*
X35178571Y5221429D01*
X35607142Y5007143D02*
X34707142Y5007143D01*
X34707142Y5350000D01*
X34750000Y5435715D01*
X34792857Y5478572D01*
X34878571Y5521429D01*
X35007142Y5521429D01*
X35092857Y5478572D01*
X35135714Y5435715D01*
X35178571Y5350000D01*
X35178571Y5007143D01*
X35607142Y6378572D02*
X35607142Y5864286D01*
X35607142Y6121429D02*
X34707142Y6121429D01*
X34835714Y6035715D01*
X34921428Y5950000D01*
X34964285Y5864286D01*
X34707142Y6678572D02*
X34707142Y7235715D01*
X35050000Y6935715D01*
X35050000Y7064286D01*
X35092857Y7150000D01*
X35135714Y7192858D01*
X35221428Y7235715D01*
X35435714Y7235715D01*
X35521428Y7192858D01*
X35564285Y7150000D01*
X35607142Y7064286D01*
X35607142Y6807143D01*
X35564285Y6721429D01*
X35521428Y6678572D01*
X37207142Y5521429D02*
X36778571Y5221429D01*
X37207142Y5007143D02*
X36307142Y5007143D01*
X36307142Y5350000D01*
X36350000Y5435715D01*
X36392857Y5478572D01*
X36478571Y5521429D01*
X36607142Y5521429D01*
X36692857Y5478572D01*
X36735714Y5435715D01*
X36778571Y5350000D01*
X36778571Y5007143D01*
X37207142Y6378572D02*
X37207142Y5864286D01*
X37207142Y6121429D02*
X36307142Y6121429D01*
X36435714Y6035715D01*
X36521428Y5950000D01*
X36564285Y5864286D01*
X36392857Y6721429D02*
X36350000Y6764286D01*
X36307142Y6850000D01*
X36307142Y7064286D01*
X36350000Y7150000D01*
X36392857Y7192858D01*
X36478571Y7235715D01*
X36564285Y7235715D01*
X36692857Y7192858D01*
X37207142Y6678572D01*
X37207142Y7235715D01*
X10469428Y8392858D02*
X10169428Y8821429D01*
X9955142Y8392858D02*
X9955142Y9292858D01*
X10298000Y9292858D01*
X10383714Y9250000D01*
X10426571Y9207143D01*
X10469428Y9121429D01*
X10469428Y8992858D01*
X10426571Y8907143D01*
X10383714Y8864286D01*
X10298000Y8821429D01*
X9955142Y8821429D01*
X11326571Y8392858D02*
X10812285Y8392858D01*
X11069428Y8392858D02*
X11069428Y9292858D01*
X10983714Y9164286D01*
X10898000Y9078572D01*
X10812285Y9035715D01*
X12183714Y8392858D02*
X11669428Y8392858D01*
X11926571Y8392858D02*
X11926571Y9292858D01*
X11840857Y9164286D01*
X11755142Y9078572D01*
X11669428Y9035715D01*
X10469428Y13952858D02*
X10169428Y14381429D01*
X9955142Y13952858D02*
X9955142Y14852858D01*
X10298000Y14852858D01*
X10383714Y14810000D01*
X10426571Y14767143D01*
X10469428Y14681429D01*
X10469428Y14552858D01*
X10426571Y14467143D01*
X10383714Y14424286D01*
X10298000Y14381429D01*
X9955142Y14381429D01*
X11326571Y13952858D02*
X10812285Y13952858D01*
X11069428Y13952858D02*
X11069428Y14852858D01*
X10983714Y14724286D01*
X10898000Y14638572D01*
X10812285Y14595715D01*
X11883714Y14852858D02*
X11969428Y14852858D01*
X12055142Y14810000D01*
X12098000Y14767143D01*
X12140857Y14681429D01*
X12183714Y14510000D01*
X12183714Y14295715D01*
X12140857Y14124286D01*
X12098000Y14038572D01*
X12055142Y13995715D01*
X11969428Y13952858D01*
X11883714Y13952858D01*
X11798000Y13995715D01*
X11755142Y14038572D01*
X11712285Y14124286D01*
X11669428Y14295715D01*
X11669428Y14510000D01*
X11712285Y14681429D01*
X11755142Y14767143D01*
X11798000Y14810000D01*
X11883714Y14852858D01*
X10390000Y15492858D02*
X10090000Y15921429D01*
X9875714Y15492858D02*
X9875714Y16392858D01*
X10218571Y16392858D01*
X10304285Y16350000D01*
X10347142Y16307143D01*
X10390000Y16221429D01*
X10390000Y16092858D01*
X10347142Y16007143D01*
X10304285Y15964286D01*
X10218571Y15921429D01*
X9875714Y15921429D01*
X10904285Y16007143D02*
X10818571Y16050000D01*
X10775714Y16092858D01*
X10732857Y16178572D01*
X10732857Y16221429D01*
X10775714Y16307143D01*
X10818571Y16350000D01*
X10904285Y16392858D01*
X11075714Y16392858D01*
X11161428Y16350000D01*
X11204285Y16307143D01*
X11247142Y16221429D01*
X11247142Y16178572D01*
X11204285Y16092858D01*
X11161428Y16050000D01*
X11075714Y16007143D01*
X10904285Y16007143D01*
X10818571Y15964286D01*
X10775714Y15921429D01*
X10732857Y15835715D01*
X10732857Y15664286D01*
X10775714Y15578572D01*
X10818571Y15535715D01*
X10904285Y15492858D01*
X11075714Y15492858D01*
X11161428Y15535715D01*
X11204285Y15578572D01*
X11247142Y15664286D01*
X11247142Y15835715D01*
X11204285Y15921429D01*
X11161428Y15964286D01*
X11075714Y16007143D01*
X1700000Y24992858D02*
X1700000Y24350000D01*
X1657142Y24221429D01*
X1571428Y24135715D01*
X1442857Y24092858D01*
X1357142Y24092858D01*
X2600000Y24092858D02*
X2085714Y24092858D01*
X2342857Y24092858D02*
X2342857Y24992858D01*
X2257142Y24864286D01*
X2171428Y24778572D01*
X2085714Y24735715D01*
X36150000Y25952858D02*
X35850000Y26381429D01*
X35635714Y25952858D02*
X35635714Y26852858D01*
X35978571Y26852858D01*
X36064285Y26810000D01*
X36107142Y26767143D01*
X36150000Y26681429D01*
X36150000Y26552858D01*
X36107142Y26467143D01*
X36064285Y26424286D01*
X35978571Y26381429D01*
X35635714Y26381429D01*
X36921428Y26852858D02*
X36750000Y26852858D01*
X36664285Y26810000D01*
X36621428Y26767143D01*
X36535714Y26638572D01*
X36492857Y26467143D01*
X36492857Y26124286D01*
X36535714Y26038572D01*
X36578571Y25995715D01*
X36664285Y25952858D01*
X36835714Y25952858D01*
X36921428Y25995715D01*
X36964285Y26038572D01*
X37007142Y26124286D01*
X37007142Y26338572D01*
X36964285Y26424286D01*
X36921428Y26467143D01*
X36835714Y26510000D01*
X36664285Y26510000D01*
X36578571Y26467143D01*
X36535714Y26424286D01*
X36492857Y26338572D01*
X36150000Y27552858D02*
X35850000Y27981429D01*
X35635714Y27552858D02*
X35635714Y28452858D01*
X35978571Y28452858D01*
X36064285Y28410000D01*
X36107142Y28367143D01*
X36150000Y28281429D01*
X36150000Y28152858D01*
X36107142Y28067143D01*
X36064285Y28024286D01*
X35978571Y27981429D01*
X35635714Y27981429D01*
X36964285Y28452858D02*
X36535714Y28452858D01*
X36492857Y28024286D01*
X36535714Y28067143D01*
X36621428Y28110000D01*
X36835714Y28110000D01*
X36921428Y28067143D01*
X36964285Y28024286D01*
X37007142Y27938572D01*
X37007142Y27724286D01*
X36964285Y27638572D01*
X36921428Y27595715D01*
X36835714Y27552858D01*
X36621428Y27552858D01*
X36535714Y27595715D01*
X36492857Y27638572D01*
X10390000Y25152858D02*
X10090000Y25581429D01*
X9875714Y25152858D02*
X9875714Y26052858D01*
X10218571Y26052858D01*
X10304285Y26010000D01*
X10347142Y25967143D01*
X10390000Y25881429D01*
X10390000Y25752858D01*
X10347142Y25667143D01*
X10304285Y25624286D01*
X10218571Y25581429D01*
X9875714Y25581429D01*
X10690000Y26052858D02*
X11247142Y26052858D01*
X10947142Y25710000D01*
X11075714Y25710000D01*
X11161428Y25667143D01*
X11204285Y25624286D01*
X11247142Y25538572D01*
X11247142Y25324286D01*
X11204285Y25238572D01*
X11161428Y25195715D01*
X11075714Y25152858D01*
X10818571Y25152858D01*
X10732857Y25195715D01*
X10690000Y25238572D01*
X5350000Y23792858D02*
X5050000Y24221429D01*
X4835714Y23792858D02*
X4835714Y24692858D01*
X5178571Y24692858D01*
X5264285Y24650000D01*
X5307142Y24607143D01*
X5350000Y24521429D01*
X5350000Y24392858D01*
X5307142Y24307143D01*
X5264285Y24264286D01*
X5178571Y24221429D01*
X4835714Y24221429D01*
X5692857Y24607143D02*
X5735714Y24650000D01*
X5821428Y24692858D01*
X6035714Y24692858D01*
X6121428Y24650000D01*
X6164285Y24607143D01*
X6207142Y24521429D01*
X6207142Y24435715D01*
X6164285Y24307143D01*
X5650000Y23792858D01*
X6207142Y23792858D01*
X36150000Y29152858D02*
X35850000Y29581429D01*
X35635714Y29152858D02*
X35635714Y30052858D01*
X35978571Y30052858D01*
X36064285Y30010000D01*
X36107142Y29967143D01*
X36150000Y29881429D01*
X36150000Y29752858D01*
X36107142Y29667143D01*
X36064285Y29624286D01*
X35978571Y29581429D01*
X35635714Y29581429D01*
X37007142Y29152858D02*
X36492857Y29152858D01*
X36750000Y29152858D02*
X36750000Y30052858D01*
X36664285Y29924286D01*
X36578571Y29838572D01*
X36492857Y29795715D01*
X11450000Y22278572D02*
X11407142Y22235715D01*
X11278571Y22192858D01*
X11192857Y22192858D01*
X11064285Y22235715D01*
X10978571Y22321429D01*
X10935714Y22407143D01*
X10892857Y22578572D01*
X10892857Y22707143D01*
X10935714Y22878572D01*
X10978571Y22964286D01*
X11064285Y23050000D01*
X11192857Y23092858D01*
X11278571Y23092858D01*
X11407142Y23050000D01*
X11450000Y23007143D01*
X12221428Y22792858D02*
X12221428Y22192858D01*
X12007142Y23135715D02*
X11792857Y22492858D01*
X12350000Y22492858D01*
X31514285Y31852858D02*
X31514285Y31124286D01*
X31557142Y31038572D01*
X31600000Y30995715D01*
X31685714Y30952858D01*
X31857142Y30952858D01*
X31942857Y30995715D01*
X31985714Y31038572D01*
X32028571Y31124286D01*
X32028571Y31852858D01*
X32414285Y31767143D02*
X32457142Y31810000D01*
X32542857Y31852858D01*
X32757142Y31852858D01*
X32842857Y31810000D01*
X32885714Y31767143D01*
X32928571Y31681429D01*
X32928571Y31595715D01*
X32885714Y31467143D01*
X32371428Y30952858D01*
X32928571Y30952858D01*
X37500000Y10042858D02*
X37500000Y9400000D01*
X37457142Y9271429D01*
X37371428Y9185715D01*
X37242857Y9142858D01*
X37157142Y9142858D01*
X37842857Y10042858D02*
X38400000Y10042858D01*
X38100000Y9700000D01*
X38228571Y9700000D01*
X38314285Y9657143D01*
X38357142Y9614286D01*
X38400000Y9528572D01*
X38400000Y9314286D01*
X38357142Y9228572D01*
X38314285Y9185715D01*
X38228571Y9142858D01*
X37971428Y9142858D01*
X37885714Y9185715D01*
X37842857Y9228572D01*
%LPC*%
D14*
X26975000Y2700000D03*
X26325000Y2700000D03*
X25675000Y2700000D03*
X25025000Y2700000D03*
X25025000Y7100000D03*
X25675000Y7100000D03*
X26325000Y7100000D03*
X26975000Y7100000D03*
D15*
X40850000Y23650000D03*
X39900000Y23650000D03*
X38950000Y23650000D03*
X38950000Y21450000D03*
X40850000Y21450000D03*
X39900000Y21450000D03*
D16*
X39900000Y17850000D03*
X38950000Y19850000D03*
X40850000Y19850000D03*
G36*
G01*
X37050000Y18925000D02*
X37550000Y18925000D01*
G75*
G02*
X37775000Y18700000I0J-225000D01*
G01*
X37775000Y18250000D01*
G75*
G02*
X37550000Y18025000I-225000J0D01*
G01*
X37050000Y18025000D01*
G75*
G02*
X36825000Y18250000I0J225000D01*
G01*
X36825000Y18700000D01*
G75*
G02*
X37050000Y18925000I225000J0D01*
G01*
G37*
G36*
G01*
X37050000Y20475000D02*
X37550000Y20475000D01*
G75*
G02*
X37775000Y20250000I0J-225000D01*
G01*
X37775000Y19800000D01*
G75*
G02*
X37550000Y19575000I-225000J0D01*
G01*
X37050000Y19575000D01*
G75*
G02*
X36825000Y19800000I0J225000D01*
G01*
X36825000Y20250000D01*
G75*
G02*
X37050000Y20475000I225000J0D01*
G01*
G37*
G36*
G01*
X8150000Y31175001D02*
X8150000Y30324999D01*
G75*
G02*
X7900001Y30075000I-249999J0D01*
G01*
X6999999Y30075000D01*
G75*
G02*
X6750000Y30324999I0J249999D01*
G01*
X6750000Y31175001D01*
G75*
G02*
X6999999Y31425000I249999J0D01*
G01*
X7900001Y31425000D01*
G75*
G02*
X8150000Y31175001I0J-249999D01*
G01*
G37*
G36*
G01*
X10850000Y31175001D02*
X10850000Y30324999D01*
G75*
G02*
X10600001Y30075000I-249999J0D01*
G01*
X9699999Y30075000D01*
G75*
G02*
X9450000Y30324999I0J249999D01*
G01*
X9450000Y31175001D01*
G75*
G02*
X9699999Y31425000I249999J0D01*
G01*
X10600001Y31425000D01*
G75*
G02*
X10850000Y31175001I0J-249999D01*
G01*
G37*
D17*
X9050000Y10600000D03*
X6950000Y10600000D03*
D18*
X34100000Y14520000D03*
X34100000Y13680000D03*
G36*
G01*
X28350000Y2875000D02*
X28850000Y2875000D01*
G75*
G02*
X29075000Y2650000I0J-225000D01*
G01*
X29075000Y2200000D01*
G75*
G02*
X28850000Y1975000I-225000J0D01*
G01*
X28350000Y1975000D01*
G75*
G02*
X28125000Y2200000I0J225000D01*
G01*
X28125000Y2650000D01*
G75*
G02*
X28350000Y2875000I225000J0D01*
G01*
G37*
G36*
G01*
X28350000Y4425000D02*
X28850000Y4425000D01*
G75*
G02*
X29075000Y4200000I0J-225000D01*
G01*
X29075000Y3750000D01*
G75*
G02*
X28850000Y3525000I-225000J0D01*
G01*
X28350000Y3525000D01*
G75*
G02*
X28125000Y3750000I0J225000D01*
G01*
X28125000Y4200000D01*
G75*
G02*
X28350000Y4425000I225000J0D01*
G01*
G37*
G36*
G01*
X23675000Y7025000D02*
X23125000Y7025000D01*
G75*
G02*
X22925000Y7225000I0J200000D01*
G01*
X22925000Y7625000D01*
G75*
G02*
X23125000Y7825000I200000J0D01*
G01*
X23675000Y7825000D01*
G75*
G02*
X23875000Y7625000I0J-200000D01*
G01*
X23875000Y7225000D01*
G75*
G02*
X23675000Y7025000I-200000J0D01*
G01*
G37*
G36*
G01*
X23675000Y5375000D02*
X23125000Y5375000D01*
G75*
G02*
X22925000Y5575000I0J200000D01*
G01*
X22925000Y5975000D01*
G75*
G02*
X23125000Y6175000I200000J0D01*
G01*
X23675000Y6175000D01*
G75*
G02*
X23875000Y5975000I0J-200000D01*
G01*
X23875000Y5575000D01*
G75*
G02*
X23675000Y5375000I-200000J0D01*
G01*
G37*
G36*
G01*
X23125000Y2775000D02*
X23675000Y2775000D01*
G75*
G02*
X23875000Y2575000I0J-200000D01*
G01*
X23875000Y2175000D01*
G75*
G02*
X23675000Y1975000I-200000J0D01*
G01*
X23125000Y1975000D01*
G75*
G02*
X22925000Y2175000I0J200000D01*
G01*
X22925000Y2575000D01*
G75*
G02*
X23125000Y2775000I200000J0D01*
G01*
G37*
G36*
G01*
X23125000Y4425000D02*
X23675000Y4425000D01*
G75*
G02*
X23875000Y4225000I0J-200000D01*
G01*
X23875000Y3825000D01*
G75*
G02*
X23675000Y3625000I-200000J0D01*
G01*
X23125000Y3625000D01*
G75*
G02*
X22925000Y3825000I0J200000D01*
G01*
X22925000Y4225000D01*
G75*
G02*
X23125000Y4425000I200000J0D01*
G01*
G37*
D19*
X19340000Y7440000D03*
X19340000Y2360000D03*
X14260000Y2360000D03*
X14260000Y7440000D03*
D20*
X16800000Y4900000D03*
G36*
G01*
X7575000Y29075000D02*
X7575000Y28525000D01*
G75*
G02*
X7375000Y28325000I-200000J0D01*
G01*
X6975000Y28325000D01*
G75*
G02*
X6775000Y28525000I0J200000D01*
G01*
X6775000Y29075000D01*
G75*
G02*
X6975000Y29275000I200000J0D01*
G01*
X7375000Y29275000D01*
G75*
G02*
X7575000Y29075000I0J-200000D01*
G01*
G37*
G36*
G01*
X9225000Y29075000D02*
X9225000Y28525000D01*
G75*
G02*
X9025000Y28325000I-200000J0D01*
G01*
X8625000Y28325000D01*
G75*
G02*
X8425000Y28525000I0J200000D01*
G01*
X8425000Y29075000D01*
G75*
G02*
X8625000Y29275000I200000J0D01*
G01*
X9025000Y29275000D01*
G75*
G02*
X9225000Y29075000I0J-200000D01*
G01*
G37*
D17*
X6950000Y12600000D03*
X9050000Y12600000D03*
G36*
G01*
X7575000Y27475000D02*
X7575000Y26925000D01*
G75*
G02*
X7375000Y26725000I-200000J0D01*
G01*
X6975000Y26725000D01*
G75*
G02*
X6775000Y26925000I0J200000D01*
G01*
X6775000Y27475000D01*
G75*
G02*
X6975000Y27675000I200000J0D01*
G01*
X7375000Y27675000D01*
G75*
G02*
X7575000Y27475000I0J-200000D01*
G01*
G37*
G36*
G01*
X9225000Y27475000D02*
X9225000Y26925000D01*
G75*
G02*
X9025000Y26725000I-200000J0D01*
G01*
X8625000Y26725000D01*
G75*
G02*
X8425000Y26925000I0J200000D01*
G01*
X8425000Y27475000D01*
G75*
G02*
X8625000Y27675000I200000J0D01*
G01*
X9025000Y27675000D01*
G75*
G02*
X9225000Y27475000I0J-200000D01*
G01*
G37*
G36*
G01*
X33275000Y21425000D02*
X33275000Y20875000D01*
G75*
G02*
X33075000Y20675000I-200000J0D01*
G01*
X32675000Y20675000D01*
G75*
G02*
X32475000Y20875000I0J200000D01*
G01*
X32475000Y21425000D01*
G75*
G02*
X32675000Y21625000I200000J0D01*
G01*
X33075000Y21625000D01*
G75*
G02*
X33275000Y21425000I0J-200000D01*
G01*
G37*
G36*
G01*
X34925000Y21425000D02*
X34925000Y20875000D01*
G75*
G02*
X34725000Y20675000I-200000J0D01*
G01*
X34325000Y20675000D01*
G75*
G02*
X34125000Y20875000I0J200000D01*
G01*
X34125000Y21425000D01*
G75*
G02*
X34325000Y21625000I200000J0D01*
G01*
X34725000Y21625000D01*
G75*
G02*
X34925000Y21425000I0J-200000D01*
G01*
G37*
G36*
G01*
X34125000Y17785000D02*
X34125000Y18335000D01*
G75*
G02*
X34325000Y18535000I200000J0D01*
G01*
X34725000Y18535000D01*
G75*
G02*
X34925000Y18335000I0J-200000D01*
G01*
X34925000Y17785000D01*
G75*
G02*
X34725000Y17585000I-200000J0D01*
G01*
X34325000Y17585000D01*
G75*
G02*
X34125000Y17785000I0J200000D01*
G01*
G37*
G36*
G01*
X32475000Y17785000D02*
X32475000Y18335000D01*
G75*
G02*
X32675000Y18535000I200000J0D01*
G01*
X33075000Y18535000D01*
G75*
G02*
X33275000Y18335000I0J-200000D01*
G01*
X33275000Y17785000D01*
G75*
G02*
X33075000Y17585000I-200000J0D01*
G01*
X32675000Y17585000D01*
G75*
G02*
X32475000Y17785000I0J200000D01*
G01*
G37*
G36*
G01*
X34025000Y16210000D02*
X34025000Y16710000D01*
G75*
G02*
X34250000Y16935000I225000J0D01*
G01*
X34700000Y16935000D01*
G75*
G02*
X34925000Y16710000I0J-225000D01*
G01*
X34925000Y16210000D01*
G75*
G02*
X34700000Y15985000I-225000J0D01*
G01*
X34250000Y15985000D01*
G75*
G02*
X34025000Y16210000I0J225000D01*
G01*
G37*
G36*
G01*
X32475000Y16210000D02*
X32475000Y16710000D01*
G75*
G02*
X32700000Y16935000I225000J0D01*
G01*
X33150000Y16935000D01*
G75*
G02*
X33375000Y16710000I0J-225000D01*
G01*
X33375000Y16210000D01*
G75*
G02*
X33150000Y15985000I-225000J0D01*
G01*
X32700000Y15985000D01*
G75*
G02*
X32475000Y16210000I0J225000D01*
G01*
G37*
D21*
X7100000Y20200000D03*
X9100000Y21150000D03*
X9100000Y19250000D03*
G36*
G01*
X10350000Y19875000D02*
X10850000Y19875000D01*
G75*
G02*
X11075000Y19650000I0J-225000D01*
G01*
X11075000Y19200000D01*
G75*
G02*
X10850000Y18975000I-225000J0D01*
G01*
X10350000Y18975000D01*
G75*
G02*
X10125000Y19200000I0J225000D01*
G01*
X10125000Y19650000D01*
G75*
G02*
X10350000Y19875000I225000J0D01*
G01*
G37*
G36*
G01*
X10350000Y21425000D02*
X10850000Y21425000D01*
G75*
G02*
X11075000Y21200000I0J-225000D01*
G01*
X11075000Y20750000D01*
G75*
G02*
X10850000Y20525000I-225000J0D01*
G01*
X10350000Y20525000D01*
G75*
G02*
X10125000Y20750000I0J225000D01*
G01*
X10125000Y21200000D01*
G75*
G02*
X10350000Y21425000I225000J0D01*
G01*
G37*
G36*
G01*
X8325000Y17350000D02*
X8325000Y17850000D01*
G75*
G02*
X8550000Y18075000I225000J0D01*
G01*
X9000000Y18075000D01*
G75*
G02*
X9225000Y17850000I0J-225000D01*
G01*
X9225000Y17350000D01*
G75*
G02*
X9000000Y17125000I-225000J0D01*
G01*
X8550000Y17125000D01*
G75*
G02*
X8325000Y17350000I0J225000D01*
G01*
G37*
G36*
G01*
X6775000Y17350000D02*
X6775000Y17850000D01*
G75*
G02*
X7000000Y18075000I225000J0D01*
G01*
X7450000Y18075000D01*
G75*
G02*
X7675000Y17850000I0J-225000D01*
G01*
X7675000Y17350000D01*
G75*
G02*
X7450000Y17125000I-225000J0D01*
G01*
X7000000Y17125000D01*
G75*
G02*
X6775000Y17350000I0J225000D01*
G01*
G37*
G36*
G01*
X33856250Y3550000D02*
X33343750Y3550000D01*
G75*
G02*
X33125000Y3768750I0J218750D01*
G01*
X33125000Y4206250D01*
G75*
G02*
X33343750Y4425000I218750J0D01*
G01*
X33856250Y4425000D01*
G75*
G02*
X34075000Y4206250I0J-218750D01*
G01*
X34075000Y3768750D01*
G75*
G02*
X33856250Y3550000I-218750J0D01*
G01*
G37*
G36*
G01*
X33856250Y1975000D02*
X33343750Y1975000D01*
G75*
G02*
X33125000Y2193750I0J218750D01*
G01*
X33125000Y2631250D01*
G75*
G02*
X33343750Y2850000I218750J0D01*
G01*
X33856250Y2850000D01*
G75*
G02*
X34075000Y2631250I0J-218750D01*
G01*
X34075000Y2193750D01*
G75*
G02*
X33856250Y1975000I-218750J0D01*
G01*
G37*
G36*
G01*
X38656250Y3550000D02*
X38143750Y3550000D01*
G75*
G02*
X37925000Y3768750I0J218750D01*
G01*
X37925000Y4206250D01*
G75*
G02*
X38143750Y4425000I218750J0D01*
G01*
X38656250Y4425000D01*
G75*
G02*
X38875000Y4206250I0J-218750D01*
G01*
X38875000Y3768750D01*
G75*
G02*
X38656250Y3550000I-218750J0D01*
G01*
G37*
G36*
G01*
X38656250Y1975000D02*
X38143750Y1975000D01*
G75*
G02*
X37925000Y2193750I0J218750D01*
G01*
X37925000Y2631250D01*
G75*
G02*
X38143750Y2850000I218750J0D01*
G01*
X38656250Y2850000D01*
G75*
G02*
X38875000Y2631250I0J-218750D01*
G01*
X38875000Y2193750D01*
G75*
G02*
X38656250Y1975000I-218750J0D01*
G01*
G37*
D22*
X39100000Y26900000D03*
X39100000Y30200000D03*
G36*
G01*
X43625000Y16900000D02*
X43625000Y17400000D01*
G75*
G02*
X43850000Y17625000I225000J0D01*
G01*
X44300000Y17625000D01*
G75*
G02*
X44525000Y17400000I0J-225000D01*
G01*
X44525000Y16900000D01*
G75*
G02*
X44300000Y16675000I-225000J0D01*
G01*
X43850000Y16675000D01*
G75*
G02*
X43625000Y16900000I0J225000D01*
G01*
G37*
G36*
G01*
X42075000Y16900000D02*
X42075000Y17400000D01*
G75*
G02*
X42300000Y17625000I225000J0D01*
G01*
X42750000Y17625000D01*
G75*
G02*
X42975000Y17400000I0J-225000D01*
G01*
X42975000Y16900000D01*
G75*
G02*
X42750000Y16675000I-225000J0D01*
G01*
X42300000Y16675000D01*
G75*
G02*
X42075000Y16900000I0J225000D01*
G01*
G37*
D23*
X43040000Y21560000D03*
X43040000Y22210000D03*
X43040000Y22860000D03*
X43040000Y23510000D03*
X43040000Y24160000D03*
D24*
X43125000Y20372500D03*
X43125000Y25347500D03*
D25*
X45700000Y19485000D03*
X45700000Y26235000D03*
D26*
X45700000Y21710000D03*
D27*
X45700000Y24410000D03*
G36*
G01*
X35475000Y3625000D02*
X34925000Y3625000D01*
G75*
G02*
X34725000Y3825000I0J200000D01*
G01*
X34725000Y4225000D01*
G75*
G02*
X34925000Y4425000I200000J0D01*
G01*
X35475000Y4425000D01*
G75*
G02*
X35675000Y4225000I0J-200000D01*
G01*
X35675000Y3825000D01*
G75*
G02*
X35475000Y3625000I-200000J0D01*
G01*
G37*
G36*
G01*
X35475000Y1975000D02*
X34925000Y1975000D01*
G75*
G02*
X34725000Y2175000I0J200000D01*
G01*
X34725000Y2575000D01*
G75*
G02*
X34925000Y2775000I200000J0D01*
G01*
X35475000Y2775000D01*
G75*
G02*
X35675000Y2575000I0J-200000D01*
G01*
X35675000Y2175000D01*
G75*
G02*
X35475000Y1975000I-200000J0D01*
G01*
G37*
G36*
G01*
X37075000Y3625000D02*
X36525000Y3625000D01*
G75*
G02*
X36325000Y3825000I0J200000D01*
G01*
X36325000Y4225000D01*
G75*
G02*
X36525000Y4425000I200000J0D01*
G01*
X37075000Y4425000D01*
G75*
G02*
X37275000Y4225000I0J-200000D01*
G01*
X37275000Y3825000D01*
G75*
G02*
X37075000Y3625000I-200000J0D01*
G01*
G37*
G36*
G01*
X37075000Y1975000D02*
X36525000Y1975000D01*
G75*
G02*
X36325000Y2175000I0J200000D01*
G01*
X36325000Y2575000D01*
G75*
G02*
X36525000Y2775000I200000J0D01*
G01*
X37075000Y2775000D01*
G75*
G02*
X37275000Y2575000I0J-200000D01*
G01*
X37275000Y2175000D01*
G75*
G02*
X37075000Y1975000I-200000J0D01*
G01*
G37*
D28*
X4166726Y4226726D03*
X3000000Y4710000D03*
X1833274Y4226726D03*
X1350000Y3060000D03*
X1833274Y1893274D03*
X3000000Y1410000D03*
X4166726Y1893274D03*
X4650000Y3060000D03*
D29*
X3000000Y3060000D03*
D28*
X45366726Y4226726D03*
X44200000Y4710000D03*
X43033274Y4226726D03*
X42550000Y3060000D03*
X43033274Y1893274D03*
X44200000Y1410000D03*
X45366726Y1893274D03*
X45850000Y3060000D03*
D29*
X44200000Y3060000D03*
D28*
X45366726Y31426726D03*
X44200000Y31910000D03*
X43033274Y31426726D03*
X42550000Y30260000D03*
X43033274Y29093274D03*
X44200000Y28610000D03*
X45366726Y29093274D03*
X45850000Y30260000D03*
D29*
X44200000Y30260000D03*
D28*
X4166726Y31426726D03*
X3000000Y31910000D03*
X1833274Y31426726D03*
X1350000Y30260000D03*
X1833274Y29093274D03*
X3000000Y28610000D03*
X4166726Y29093274D03*
X4650000Y30260000D03*
D29*
X3000000Y30260000D03*
G36*
G01*
X8425000Y8525000D02*
X8425000Y9075000D01*
G75*
G02*
X8625000Y9275000I200000J0D01*
G01*
X9025000Y9275000D01*
G75*
G02*
X9225000Y9075000I0J-200000D01*
G01*
X9225000Y8525000D01*
G75*
G02*
X9025000Y8325000I-200000J0D01*
G01*
X8625000Y8325000D01*
G75*
G02*
X8425000Y8525000I0J200000D01*
G01*
G37*
G36*
G01*
X6775000Y8525000D02*
X6775000Y9075000D01*
G75*
G02*
X6975000Y9275000I200000J0D01*
G01*
X7375000Y9275000D01*
G75*
G02*
X7575000Y9075000I0J-200000D01*
G01*
X7575000Y8525000D01*
G75*
G02*
X7375000Y8325000I-200000J0D01*
G01*
X6975000Y8325000D01*
G75*
G02*
X6775000Y8525000I0J200000D01*
G01*
G37*
G36*
G01*
X8425000Y14085000D02*
X8425000Y14635000D01*
G75*
G02*
X8625000Y14835000I200000J0D01*
G01*
X9025000Y14835000D01*
G75*
G02*
X9225000Y14635000I0J-200000D01*
G01*
X9225000Y14085000D01*
G75*
G02*
X9025000Y13885000I-200000J0D01*
G01*
X8625000Y13885000D01*
G75*
G02*
X8425000Y14085000I0J200000D01*
G01*
G37*
G36*
G01*
X6775000Y14085000D02*
X6775000Y14635000D01*
G75*
G02*
X6975000Y14835000I200000J0D01*
G01*
X7375000Y14835000D01*
G75*
G02*
X7575000Y14635000I0J-200000D01*
G01*
X7575000Y14085000D01*
G75*
G02*
X7375000Y13885000I-200000J0D01*
G01*
X6975000Y13885000D01*
G75*
G02*
X6775000Y14085000I0J200000D01*
G01*
G37*
G36*
G01*
X8425000Y15625000D02*
X8425000Y16175000D01*
G75*
G02*
X8625000Y16375000I200000J0D01*
G01*
X9025000Y16375000D01*
G75*
G02*
X9225000Y16175000I0J-200000D01*
G01*
X9225000Y15625000D01*
G75*
G02*
X9025000Y15425000I-200000J0D01*
G01*
X8625000Y15425000D01*
G75*
G02*
X8425000Y15625000I0J200000D01*
G01*
G37*
G36*
G01*
X6775000Y15625000D02*
X6775000Y16175000D01*
G75*
G02*
X6975000Y16375000I200000J0D01*
G01*
X7375000Y16375000D01*
G75*
G02*
X7575000Y16175000I0J-200000D01*
G01*
X7575000Y15625000D01*
G75*
G02*
X7375000Y15425000I-200000J0D01*
G01*
X6975000Y15425000D01*
G75*
G02*
X6775000Y15625000I0J200000D01*
G01*
G37*
D30*
X2000000Y22100000D03*
D31*
X4540000Y22100000D03*
X2000000Y19560000D03*
X4540000Y19560000D03*
X2000000Y17020000D03*
X4540000Y17020000D03*
X2000000Y14480000D03*
X4540000Y14480000D03*
X2000000Y11940000D03*
X4540000Y11940000D03*
X2000000Y9400000D03*
X4540000Y9400000D03*
G36*
G01*
X33275000Y26635000D02*
X33275000Y26085000D01*
G75*
G02*
X33075000Y25885000I-200000J0D01*
G01*
X32675000Y25885000D01*
G75*
G02*
X32475000Y26085000I0J200000D01*
G01*
X32475000Y26635000D01*
G75*
G02*
X32675000Y26835000I200000J0D01*
G01*
X33075000Y26835000D01*
G75*
G02*
X33275000Y26635000I0J-200000D01*
G01*
G37*
G36*
G01*
X34925000Y26635000D02*
X34925000Y26085000D01*
G75*
G02*
X34725000Y25885000I-200000J0D01*
G01*
X34325000Y25885000D01*
G75*
G02*
X34125000Y26085000I0J200000D01*
G01*
X34125000Y26635000D01*
G75*
G02*
X34325000Y26835000I200000J0D01*
G01*
X34725000Y26835000D01*
G75*
G02*
X34925000Y26635000I0J-200000D01*
G01*
G37*
G36*
G01*
X33275000Y28235000D02*
X33275000Y27685000D01*
G75*
G02*
X33075000Y27485000I-200000J0D01*
G01*
X32675000Y27485000D01*
G75*
G02*
X32475000Y27685000I0J200000D01*
G01*
X32475000Y28235000D01*
G75*
G02*
X32675000Y28435000I200000J0D01*
G01*
X33075000Y28435000D01*
G75*
G02*
X33275000Y28235000I0J-200000D01*
G01*
G37*
G36*
G01*
X34925000Y28235000D02*
X34925000Y27685000D01*
G75*
G02*
X34725000Y27485000I-200000J0D01*
G01*
X34325000Y27485000D01*
G75*
G02*
X34125000Y27685000I0J200000D01*
G01*
X34125000Y28235000D01*
G75*
G02*
X34325000Y28435000I200000J0D01*
G01*
X34725000Y28435000D01*
G75*
G02*
X34925000Y28235000I0J-200000D01*
G01*
G37*
G36*
G01*
X8425000Y25285000D02*
X8425000Y25835000D01*
G75*
G02*
X8625000Y26035000I200000J0D01*
G01*
X9025000Y26035000D01*
G75*
G02*
X9225000Y25835000I0J-200000D01*
G01*
X9225000Y25285000D01*
G75*
G02*
X9025000Y25085000I-200000J0D01*
G01*
X8625000Y25085000D01*
G75*
G02*
X8425000Y25285000I0J200000D01*
G01*
G37*
G36*
G01*
X6775000Y25285000D02*
X6775000Y25835000D01*
G75*
G02*
X6975000Y26035000I200000J0D01*
G01*
X7375000Y26035000D01*
G75*
G02*
X7575000Y25835000I0J-200000D01*
G01*
X7575000Y25285000D01*
G75*
G02*
X7375000Y25085000I-200000J0D01*
G01*
X6975000Y25085000D01*
G75*
G02*
X6775000Y25285000I0J200000D01*
G01*
G37*
G36*
G01*
X8425000Y23685000D02*
X8425000Y24235000D01*
G75*
G02*
X8625000Y24435000I200000J0D01*
G01*
X9025000Y24435000D01*
G75*
G02*
X9225000Y24235000I0J-200000D01*
G01*
X9225000Y23685000D01*
G75*
G02*
X9025000Y23485000I-200000J0D01*
G01*
X8625000Y23485000D01*
G75*
G02*
X8425000Y23685000I0J200000D01*
G01*
G37*
G36*
G01*
X6775000Y23685000D02*
X6775000Y24235000D01*
G75*
G02*
X6975000Y24435000I200000J0D01*
G01*
X7375000Y24435000D01*
G75*
G02*
X7575000Y24235000I0J-200000D01*
G01*
X7575000Y23685000D01*
G75*
G02*
X7375000Y23485000I-200000J0D01*
G01*
X6975000Y23485000D01*
G75*
G02*
X6775000Y23685000I0J200000D01*
G01*
G37*
G36*
G01*
X34125000Y29285000D02*
X34125000Y29835000D01*
G75*
G02*
X34325000Y30035000I200000J0D01*
G01*
X34725000Y30035000D01*
G75*
G02*
X34925000Y29835000I0J-200000D01*
G01*
X34925000Y29285000D01*
G75*
G02*
X34725000Y29085000I-200000J0D01*
G01*
X34325000Y29085000D01*
G75*
G02*
X34125000Y29285000I0J200000D01*
G01*
G37*
G36*
G01*
X32475000Y29285000D02*
X32475000Y29835000D01*
G75*
G02*
X32675000Y30035000I200000J0D01*
G01*
X33075000Y30035000D01*
G75*
G02*
X33275000Y29835000I0J-200000D01*
G01*
X33275000Y29285000D01*
G75*
G02*
X33075000Y29085000I-200000J0D01*
G01*
X32675000Y29085000D01*
G75*
G02*
X32475000Y29285000I0J200000D01*
G01*
G37*
G36*
G01*
X10775000Y24250000D02*
X10775000Y23750000D01*
G75*
G02*
X10550000Y23525000I-225000J0D01*
G01*
X10100000Y23525000D01*
G75*
G02*
X9875000Y23750000I0J225000D01*
G01*
X9875000Y24250000D01*
G75*
G02*
X10100000Y24475000I225000J0D01*
G01*
X10550000Y24475000D01*
G75*
G02*
X10775000Y24250000I0J-225000D01*
G01*
G37*
G36*
G01*
X12325000Y24250000D02*
X12325000Y23750000D01*
G75*
G02*
X12100000Y23525000I-225000J0D01*
G01*
X11650000Y23525000D01*
G75*
G02*
X11425000Y23750000I0J225000D01*
G01*
X11425000Y24250000D01*
G75*
G02*
X11650000Y24475000I225000J0D01*
G01*
X12100000Y24475000D01*
G75*
G02*
X12325000Y24250000I0J-225000D01*
G01*
G37*
G36*
G01*
X12900000Y29360000D02*
X12900000Y29760000D01*
G75*
G02*
X13100000Y29960000I200000J0D01*
G01*
X14500000Y29960000D01*
G75*
G02*
X14700000Y29760000I0J-200000D01*
G01*
X14700000Y29360000D01*
G75*
G02*
X14500000Y29160000I-200000J0D01*
G01*
X13100000Y29160000D01*
G75*
G02*
X12900000Y29360000I0J200000D01*
G01*
G37*
G36*
G01*
X12900000Y28260000D02*
X12900000Y28660000D01*
G75*
G02*
X13100000Y28860000I200000J0D01*
G01*
X14500000Y28860000D01*
G75*
G02*
X14700000Y28660000I0J-200000D01*
G01*
X14700000Y28260000D01*
G75*
G02*
X14500000Y28060000I-200000J0D01*
G01*
X13100000Y28060000D01*
G75*
G02*
X12900000Y28260000I0J200000D01*
G01*
G37*
G36*
G01*
X12900000Y27160000D02*
X12900000Y27560000D01*
G75*
G02*
X13100000Y27760000I200000J0D01*
G01*
X14500000Y27760000D01*
G75*
G02*
X14700000Y27560000I0J-200000D01*
G01*
X14700000Y27160000D01*
G75*
G02*
X14500000Y26960000I-200000J0D01*
G01*
X13100000Y26960000D01*
G75*
G02*
X12900000Y27160000I0J200000D01*
G01*
G37*
G36*
G01*
X12900000Y26060000D02*
X12900000Y26460000D01*
G75*
G02*
X13100000Y26660000I200000J0D01*
G01*
X14500000Y26660000D01*
G75*
G02*
X14700000Y26460000I0J-200000D01*
G01*
X14700000Y26060000D01*
G75*
G02*
X14500000Y25860000I-200000J0D01*
G01*
X13100000Y25860000D01*
G75*
G02*
X12900000Y26060000I0J200000D01*
G01*
G37*
G36*
G01*
X12900000Y24960000D02*
X12900000Y25360000D01*
G75*
G02*
X13100000Y25560000I200000J0D01*
G01*
X14500000Y25560000D01*
G75*
G02*
X14700000Y25360000I0J-200000D01*
G01*
X14700000Y24960000D01*
G75*
G02*
X14500000Y24760000I-200000J0D01*
G01*
X13100000Y24760000D01*
G75*
G02*
X12900000Y24960000I0J200000D01*
G01*
G37*
G36*
G01*
X12900000Y23860000D02*
X12900000Y24260000D01*
G75*
G02*
X13100000Y24460000I200000J0D01*
G01*
X14500000Y24460000D01*
G75*
G02*
X14700000Y24260000I0J-200000D01*
G01*
X14700000Y23860000D01*
G75*
G02*
X14500000Y23660000I-200000J0D01*
G01*
X13100000Y23660000D01*
G75*
G02*
X12900000Y23860000I0J200000D01*
G01*
G37*
G36*
G01*
X12900000Y22760000D02*
X12900000Y23160000D01*
G75*
G02*
X13100000Y23360000I200000J0D01*
G01*
X14500000Y23360000D01*
G75*
G02*
X14700000Y23160000I0J-200000D01*
G01*
X14700000Y22760000D01*
G75*
G02*
X14500000Y22560000I-200000J0D01*
G01*
X13100000Y22560000D01*
G75*
G02*
X12900000Y22760000I0J200000D01*
G01*
G37*
G36*
G01*
X12900000Y21660000D02*
X12900000Y22060000D01*
G75*
G02*
X13100000Y22260000I200000J0D01*
G01*
X14500000Y22260000D01*
G75*
G02*
X14700000Y22060000I0J-200000D01*
G01*
X14700000Y21660000D01*
G75*
G02*
X14500000Y21460000I-200000J0D01*
G01*
X13100000Y21460000D01*
G75*
G02*
X12900000Y21660000I0J200000D01*
G01*
G37*
G36*
G01*
X12900000Y17860000D02*
X12900000Y18260000D01*
G75*
G02*
X13100000Y18460000I200000J0D01*
G01*
X14500000Y18460000D01*
G75*
G02*
X14700000Y18260000I0J-200000D01*
G01*
X14700000Y17860000D01*
G75*
G02*
X14500000Y17660000I-200000J0D01*
G01*
X13100000Y17660000D01*
G75*
G02*
X12900000Y17860000I0J200000D01*
G01*
G37*
G36*
G01*
X12900000Y16760000D02*
X12900000Y17160000D01*
G75*
G02*
X13100000Y17360000I200000J0D01*
G01*
X14500000Y17360000D01*
G75*
G02*
X14700000Y17160000I0J-200000D01*
G01*
X14700000Y16760000D01*
G75*
G02*
X14500000Y16560000I-200000J0D01*
G01*
X13100000Y16560000D01*
G75*
G02*
X12900000Y16760000I0J200000D01*
G01*
G37*
G36*
G01*
X12900000Y15660000D02*
X12900000Y16060000D01*
G75*
G02*
X13100000Y16260000I200000J0D01*
G01*
X14500000Y16260000D01*
G75*
G02*
X14700000Y16060000I0J-200000D01*
G01*
X14700000Y15660000D01*
G75*
G02*
X14500000Y15460000I-200000J0D01*
G01*
X13100000Y15460000D01*
G75*
G02*
X12900000Y15660000I0J200000D01*
G01*
G37*
G36*
G01*
X12900000Y14560000D02*
X12900000Y14960000D01*
G75*
G02*
X13100000Y15160000I200000J0D01*
G01*
X14500000Y15160000D01*
G75*
G02*
X14700000Y14960000I0J-200000D01*
G01*
X14700000Y14560000D01*
G75*
G02*
X14500000Y14360000I-200000J0D01*
G01*
X13100000Y14360000D01*
G75*
G02*
X12900000Y14560000I0J200000D01*
G01*
G37*
G36*
G01*
X12900000Y13460000D02*
X12900000Y13860000D01*
G75*
G02*
X13100000Y14060000I200000J0D01*
G01*
X14500000Y14060000D01*
G75*
G02*
X14700000Y13860000I0J-200000D01*
G01*
X14700000Y13460000D01*
G75*
G02*
X14500000Y13260000I-200000J0D01*
G01*
X13100000Y13260000D01*
G75*
G02*
X12900000Y13460000I0J200000D01*
G01*
G37*
G36*
G01*
X12900000Y12360000D02*
X12900000Y12760000D01*
G75*
G02*
X13100000Y12960000I200000J0D01*
G01*
X14500000Y12960000D01*
G75*
G02*
X14700000Y12760000I0J-200000D01*
G01*
X14700000Y12360000D01*
G75*
G02*
X14500000Y12160000I-200000J0D01*
G01*
X13100000Y12160000D01*
G75*
G02*
X12900000Y12360000I0J200000D01*
G01*
G37*
G36*
G01*
X29700000Y12360000D02*
X29700000Y12760000D01*
G75*
G02*
X29900000Y12960000I200000J0D01*
G01*
X31300000Y12960000D01*
G75*
G02*
X31500000Y12760000I0J-200000D01*
G01*
X31500000Y12360000D01*
G75*
G02*
X31300000Y12160000I-200000J0D01*
G01*
X29900000Y12160000D01*
G75*
G02*
X29700000Y12360000I0J200000D01*
G01*
G37*
G36*
G01*
X29700000Y13460000D02*
X29700000Y13860000D01*
G75*
G02*
X29900000Y14060000I200000J0D01*
G01*
X31300000Y14060000D01*
G75*
G02*
X31500000Y13860000I0J-200000D01*
G01*
X31500000Y13460000D01*
G75*
G02*
X31300000Y13260000I-200000J0D01*
G01*
X29900000Y13260000D01*
G75*
G02*
X29700000Y13460000I0J200000D01*
G01*
G37*
G36*
G01*
X29700000Y14560000D02*
X29700000Y14960000D01*
G75*
G02*
X29900000Y15160000I200000J0D01*
G01*
X31300000Y15160000D01*
G75*
G02*
X31500000Y14960000I0J-200000D01*
G01*
X31500000Y14560000D01*
G75*
G02*
X31300000Y14360000I-200000J0D01*
G01*
X29900000Y14360000D01*
G75*
G02*
X29700000Y14560000I0J200000D01*
G01*
G37*
G36*
G01*
X29700000Y15660000D02*
X29700000Y16060000D01*
G75*
G02*
X29900000Y16260000I200000J0D01*
G01*
X31300000Y16260000D01*
G75*
G02*
X31500000Y16060000I0J-200000D01*
G01*
X31500000Y15660000D01*
G75*
G02*
X31300000Y15460000I-200000J0D01*
G01*
X29900000Y15460000D01*
G75*
G02*
X29700000Y15660000I0J200000D01*
G01*
G37*
G36*
G01*
X29700000Y16760000D02*
X29700000Y17160000D01*
G75*
G02*
X29900000Y17360000I200000J0D01*
G01*
X31300000Y17360000D01*
G75*
G02*
X31500000Y17160000I0J-200000D01*
G01*
X31500000Y16760000D01*
G75*
G02*
X31300000Y16560000I-200000J0D01*
G01*
X29900000Y16560000D01*
G75*
G02*
X29700000Y16760000I0J200000D01*
G01*
G37*
G36*
G01*
X29700000Y17860000D02*
X29700000Y18260000D01*
G75*
G02*
X29900000Y18460000I200000J0D01*
G01*
X31300000Y18460000D01*
G75*
G02*
X31500000Y18260000I0J-200000D01*
G01*
X31500000Y17860000D01*
G75*
G02*
X31300000Y17660000I-200000J0D01*
G01*
X29900000Y17660000D01*
G75*
G02*
X29700000Y17860000I0J200000D01*
G01*
G37*
G36*
G01*
X29700000Y21660000D02*
X29700000Y22060000D01*
G75*
G02*
X29900000Y22260000I200000J0D01*
G01*
X31300000Y22260000D01*
G75*
G02*
X31500000Y22060000I0J-200000D01*
G01*
X31500000Y21660000D01*
G75*
G02*
X31300000Y21460000I-200000J0D01*
G01*
X29900000Y21460000D01*
G75*
G02*
X29700000Y21660000I0J200000D01*
G01*
G37*
G36*
G01*
X29700000Y22760000D02*
X29700000Y23160000D01*
G75*
G02*
X29900000Y23360000I200000J0D01*
G01*
X31300000Y23360000D01*
G75*
G02*
X31500000Y23160000I0J-200000D01*
G01*
X31500000Y22760000D01*
G75*
G02*
X31300000Y22560000I-200000J0D01*
G01*
X29900000Y22560000D01*
G75*
G02*
X29700000Y22760000I0J200000D01*
G01*
G37*
G36*
G01*
X29700000Y23860000D02*
X29700000Y24260000D01*
G75*
G02*
X29900000Y24460000I200000J0D01*
G01*
X31300000Y24460000D01*
G75*
G02*
X31500000Y24260000I0J-200000D01*
G01*
X31500000Y23860000D01*
G75*
G02*
X31300000Y23660000I-200000J0D01*
G01*
X29900000Y23660000D01*
G75*
G02*
X29700000Y23860000I0J200000D01*
G01*
G37*
G36*
G01*
X29700000Y24960000D02*
X29700000Y25360000D01*
G75*
G02*
X29900000Y25560000I200000J0D01*
G01*
X31300000Y25560000D01*
G75*
G02*
X31500000Y25360000I0J-200000D01*
G01*
X31500000Y24960000D01*
G75*
G02*
X31300000Y24760000I-200000J0D01*
G01*
X29900000Y24760000D01*
G75*
G02*
X29700000Y24960000I0J200000D01*
G01*
G37*
G36*
G01*
X29700000Y26060000D02*
X29700000Y26460000D01*
G75*
G02*
X29900000Y26660000I200000J0D01*
G01*
X31300000Y26660000D01*
G75*
G02*
X31500000Y26460000I0J-200000D01*
G01*
X31500000Y26060000D01*
G75*
G02*
X31300000Y25860000I-200000J0D01*
G01*
X29900000Y25860000D01*
G75*
G02*
X29700000Y26060000I0J200000D01*
G01*
G37*
G36*
G01*
X29700000Y27160000D02*
X29700000Y27560000D01*
G75*
G02*
X29900000Y27760000I200000J0D01*
G01*
X31300000Y27760000D01*
G75*
G02*
X31500000Y27560000I0J-200000D01*
G01*
X31500000Y27160000D01*
G75*
G02*
X31300000Y26960000I-200000J0D01*
G01*
X29900000Y26960000D01*
G75*
G02*
X29700000Y27160000I0J200000D01*
G01*
G37*
G36*
G01*
X29700000Y28260000D02*
X29700000Y28660000D01*
G75*
G02*
X29900000Y28860000I200000J0D01*
G01*
X31300000Y28860000D01*
G75*
G02*
X31500000Y28660000I0J-200000D01*
G01*
X31500000Y28260000D01*
G75*
G02*
X31300000Y28060000I-200000J0D01*
G01*
X29900000Y28060000D01*
G75*
G02*
X29700000Y28260000I0J200000D01*
G01*
G37*
G36*
G01*
X29700000Y29360000D02*
X29700000Y29760000D01*
G75*
G02*
X29900000Y29960000I200000J0D01*
G01*
X31300000Y29960000D01*
G75*
G02*
X31500000Y29760000I0J-200000D01*
G01*
X31500000Y29360000D01*
G75*
G02*
X31300000Y29160000I-200000J0D01*
G01*
X29900000Y29160000D01*
G75*
G02*
X29700000Y29360000I0J200000D01*
G01*
G37*
D19*
X40260000Y9520000D03*
X40260000Y14600000D03*
X45340000Y14600000D03*
X45340000Y9520000D03*
D20*
X42800000Y12060000D03*
M02*
