M48
; DRILL file {KiCad 5.1.8-5.1.8} date Mon Jan  4 23:01:08 2021
; FORMAT={-:-/ absolute / metric / decimal}
; #@! TF.CreationDate,2021-01-04T23:01:08+01:00
; #@! TF.GenerationSoftware,Kicad,Pcbnew,5.1.8-5.1.8
FMAT,2
METRIC
T1C0.400
T2C1.000
T3C1.500
T4C1.700
T5C2.200
%
G90
G05
T1
X1.192Y26.758
X1.192Y6.957
X5.592Y6.957
X6.05Y31.3
X6.05Y30.2
X6.1Y28.8
X6.692Y3.657
X7.95Y12.95
X8.892Y5.857
X8.892Y1.458
X9.8Y17.6
X10.3Y22.9
X10.6Y18.45
X10.75Y11.7
X11.092Y3.657
X11.5Y31.85
X11.7Y19.2
X12.1Y16.5
X12.2Y25.2
X12.2Y21.8
X12.2Y18.3
X12.3Y12.5
X13.1Y31.85
X13.292Y20.157
X15.3Y29.6
X15.3Y28.5
X15.3Y24.0
X15.3Y23.0
X15.3Y13.6
X15.3Y12.5
X15.492Y25.657
X16.592Y21.258
X16.592Y8.057
X16.592Y1.458
X17.692Y30.057
X17.692Y14.657
X18.6Y20.85
X18.792Y26.758
X23.192Y10.258
X23.6Y5.6
X23.6Y2.55
X26.492Y30.057
X27.592Y25.657
X27.592Y12.457
X27.8Y20.75
X28.6Y5.8
X28.6Y2.75
X28.625Y9.6
X28.65Y28.45
X29.1Y14.7
X29.1Y12.5
X29.14Y18.06
X29.5Y1.85
X29.51Y4.95
X30.5Y7.1
X31.1Y8.1
X32.2Y14.86
X32.2Y12.46
X32.65Y3.1
X32.9Y30.5
X33.412Y14.86
X33.412Y12.46
X34.5Y20.15
X34.525Y30.525
X34.818Y14.86
X34.818Y12.46
X35.2Y3.275
X35.4Y22.25
X35.4Y16.45
X36.079Y11.984
X36.206Y14.686
X36.392Y30.45
X36.392Y9.157
X37.221Y11.177
X37.3Y17.45
X37.428Y14.009
X37.492Y26.758
X38.582Y10.863
X38.582Y13.266
X39.1Y31.25
X39.1Y25.85
X39.9Y24.75
X39.9Y18.85
X40.9Y18.85
X41.4Y24.75
X41.7Y28.15
X42.7Y25.71
X42.7Y20.01
X42.992Y9.157
X43.55Y25.01
X43.55Y20.71
X44.1Y16.15
X45.1Y22.26
X45.1Y21.16
X45.4Y26.71
X45.4Y19.96
X45.7Y24.41
X46.0Y25.76
X46.0Y19.06
X46.1Y6.957
X46.3Y22.26
X46.3Y21.16
X1.35Y30.26
X1.833Y31.427
X1.833Y29.093
X3.0Y31.91
X3.0Y28.61
X4.167Y31.427
X4.167Y29.093
X4.65Y30.26
X42.55Y3.06
X43.033Y4.227
X43.033Y1.893
X44.2Y4.71
X44.2Y1.41
X45.367Y4.227
X45.367Y1.893
X45.85Y3.06
X42.55Y30.26
X43.033Y31.427
X43.033Y29.093
X44.2Y31.91
X44.2Y28.61
X45.367Y31.427
X45.367Y29.093
X45.85Y30.26
X1.35Y3.06
X1.833Y4.227
X1.833Y1.893
X3.0Y4.71
X3.0Y1.41
X4.167Y4.227
X4.167Y1.893
X4.65Y3.06
T2
X2.0Y22.1
X2.0Y19.56
X2.0Y17.02
X2.0Y14.48
X2.0Y11.94
X2.0Y9.4
X4.54Y22.1
X4.54Y19.56
X4.54Y17.02
X4.54Y14.48
X4.54Y11.94
X4.54Y9.4
T3
X16.8Y4.9
X42.8Y12.06
T4
X14.26Y7.44
X14.26Y2.36
X19.34Y7.44
X19.34Y2.36
X40.26Y14.6
X40.26Y9.52
X45.34Y14.6
X45.34Y9.52
T5
X3.0Y30.26
X44.2Y3.06
X44.2Y30.26
X3.0Y3.06
T0
M30
