M48
; DRILL file {KiCad 5.1.9-5.1.9} date Tue Jan 19 08:54:25 2021
; FORMAT={-:-/ absolute / metric / decimal}
; #@! TF.CreationDate,2021-01-19T08:54:25+01:00
; #@! TF.GenerationSoftware,Kicad,Pcbnew,5.1.9-5.1.9
FMAT,2
METRIC
T1C0.400
T2C1.000
T3C1.500
T4C1.700
T5C2.200
%
G90
G05
T1
X1.192Y-6.492
X1.192Y-26.293
X1.35Y-2.99
X1.35Y-30.19
X1.833Y-1.823
X1.833Y-4.157
X1.833Y-29.023
X1.833Y-31.357
X3.0Y-1.34
X3.0Y-4.64
X3.0Y-28.54
X3.0Y-31.84
X4.167Y-1.823
X4.167Y-4.157
X4.167Y-29.023
X4.167Y-31.357
X4.65Y-2.99
X4.65Y-30.19
X5.592Y-26.293
X6.05Y-1.95
X6.05Y-3.05
X6.096Y-4.625
X6.692Y-29.592
X7.95Y-20.3
X8.892Y-27.392
X8.892Y-31.792
X9.8Y-15.65
X10.3Y-10.35
X10.6Y-14.8
X10.75Y-21.55
X10.795Y-8.181
X11.092Y-29.592
X11.5Y-1.4
X11.7Y-14.05
X12.1Y-16.75
X12.2Y-8.05
X12.2Y-11.45
X12.2Y-14.95
X12.3Y-20.75
X13.1Y-1.4
X13.292Y-13.092
X15.3Y-3.65
X15.3Y-4.75
X15.3Y-9.25
X15.3Y-10.25
X15.3Y-19.65
X15.3Y-20.75
X15.492Y-7.592
X15.592Y-25.192
X15.592Y-31.792
X16.592Y-11.992
X17.692Y-3.192
X17.692Y-18.592
X18.6Y-12.4
X18.792Y-6.492
X22.6Y-27.65
X22.6Y-30.7
X23.192Y-22.992
X26.492Y-3.192
X26.543Y-31.295
X26.67Y-28.374
X27.559Y-26.85
X27.559Y-29.898
X27.592Y-7.592
X27.592Y-20.793
X27.8Y-12.5
X28.625Y-23.65
X28.65Y-4.8
X29.1Y-18.55
X29.1Y-20.75
X29.14Y-15.19
X30.1Y-25.15
X32.2Y-18.39
X32.2Y-20.79
X32.9Y-2.75
X33.147Y-30.152
X33.412Y-18.39
X33.412Y-20.79
X34.5Y-13.1
X34.525Y-2.725
X34.818Y-18.39
X34.818Y-20.79
X35.052Y-32.057
X35.4Y-11.0
X35.4Y-16.8
X36.079Y-21.266
X36.206Y-18.564
X36.392Y-2.8
X36.392Y-24.092
X37.221Y-22.073
X37.3Y-16.054
X37.428Y-19.241
X37.492Y-6.492
X38.582Y-22.387
X38.582Y-19.984
X39.1Y-2.0
X39.1Y-7.4
X39.9Y-8.308
X39.9Y-14.4
X40.9Y-14.4
X41.402Y-9.07
X41.7Y-5.1
X42.55Y-2.99
X42.55Y-30.19
X42.7Y-7.54
X42.7Y-13.24
X42.992Y-24.092
X43.033Y-1.823
X43.033Y-4.157
X43.033Y-29.023
X43.033Y-31.357
X43.55Y-8.24
X43.55Y-12.54
X44.1Y-17.1
X44.2Y-1.34
X44.2Y-4.64
X44.2Y-28.54
X44.2Y-31.84
X45.1Y-10.99
X45.1Y-12.09
X45.367Y-1.823
X45.367Y-4.157
X45.367Y-29.023
X45.367Y-31.357
X45.4Y-6.54
X45.4Y-13.29
X45.7Y-8.84
X45.85Y-2.99
X45.85Y-30.19
X46.0Y-7.49
X46.0Y-14.19
X46.1Y-26.293
X46.3Y-10.99
X46.3Y-12.09
T2
X2.0Y-11.15
X2.0Y-13.69
X2.0Y-16.23
X2.0Y-18.77
X2.0Y-21.31
X2.0Y-23.85
X4.54Y-11.15
X4.54Y-13.69
X4.54Y-16.23
X4.54Y-18.77
X4.54Y-21.31
X4.54Y-23.85
T3
X15.8Y-28.35
X42.8Y-21.19
T4
X13.26Y-25.81
X13.26Y-30.89
X18.34Y-25.81
X18.34Y-30.89
X40.26Y-18.65
X40.26Y-23.73
X45.34Y-18.65
X45.34Y-23.73
T5
X3.0Y-2.99
X3.0Y-30.19
X44.2Y-2.99
X44.2Y-30.19
T0
M30
