G04 #@! TF.GenerationSoftware,KiCad,Pcbnew,5.1.8-5.1.8*
G04 #@! TF.CreationDate,2020-12-12T11:36:47+01:00*
G04 #@! TF.ProjectId,ublox-breakout,75626c6f-782d-4627-9265-616b6f75742e,rev?*
G04 #@! TF.SameCoordinates,PX71f6ce0PY7b06240*
G04 #@! TF.FileFunction,Legend,Bot*
G04 #@! TF.FilePolarity,Positive*
%FSLAX46Y46*%
G04 Gerber Fmt 4.6, Leading zero omitted, Abs format (unit mm)*
G04 Created by KiCad (PCBNEW 5.1.8-5.1.8) date 2020-12-12 11:36:47*
%MOMM*%
%LPD*%
G01*
G04 APERTURE LIST*
%ADD10C,0.700000*%
%ADD11C,4.400000*%
%ADD12O,1.700000X1.700000*%
%ADD13R,1.700000X1.700000*%
%ADD14C,2.250000*%
%ADD15C,2.050000*%
G04 APERTURE END LIST*
%LPC*%
D10*
X10816726Y4166726D03*
X9650000Y4650000D03*
X8483274Y4166726D03*
X8000000Y3000000D03*
X8483274Y1833274D03*
X9650000Y1350000D03*
X10816726Y1833274D03*
X11300000Y3000000D03*
D11*
X9650000Y3000000D03*
D10*
X45366726Y4166726D03*
X44200000Y4650000D03*
X43033274Y4166726D03*
X42550000Y3000000D03*
X43033274Y1833274D03*
X44200000Y1350000D03*
X45366726Y1833274D03*
X45850000Y3000000D03*
D11*
X44200000Y3000000D03*
D10*
X45366726Y29366726D03*
X44200000Y29850000D03*
X43033274Y29366726D03*
X42550000Y28200000D03*
X43033274Y27033274D03*
X44200000Y26550000D03*
X45366726Y27033274D03*
X45850000Y28200000D03*
D11*
X44200000Y28200000D03*
D10*
X4166726Y29366726D03*
X3000000Y29850000D03*
X1833274Y29366726D03*
X1350000Y28200000D03*
X1833274Y27033274D03*
X3000000Y26550000D03*
X4166726Y27033274D03*
X4650000Y28200000D03*
D11*
X3000000Y28200000D03*
D12*
X4540000Y4800000D03*
X2000000Y4800000D03*
X4540000Y7340000D03*
X2000000Y7340000D03*
X4540000Y9880000D03*
X2000000Y9880000D03*
X4540000Y12420000D03*
X2000000Y12420000D03*
X4540000Y14960000D03*
X2000000Y14960000D03*
X4540000Y17500000D03*
D13*
X2000000Y17500000D03*
D14*
X40260000Y7460000D03*
X40260000Y12540000D03*
X45340000Y12540000D03*
X45340000Y7460000D03*
D15*
X42800000Y10000000D03*
M02*
