G04 #@! TF.GenerationSoftware,KiCad,Pcbnew,5.1.8-5.1.8*
G04 #@! TF.CreationDate,2020-12-12T11:36:47+01:00*
G04 #@! TF.ProjectId,ublox-breakout,75626c6f-782d-4627-9265-616b6f75742e,rev?*
G04 #@! TF.SameCoordinates,PX71f6ce0PY7b06240*
G04 #@! TF.FileFunction,Copper,L3,Inr*
G04 #@! TF.FilePolarity,Positive*
%FSLAX46Y46*%
G04 Gerber Fmt 4.6, Leading zero omitted, Abs format (unit mm)*
G04 Created by KiCad (PCBNEW 5.1.8-5.1.8) date 2020-12-12 11:36:47*
%MOMM*%
%LPD*%
G01*
G04 APERTURE LIST*
G04 #@! TA.AperFunction,ComponentPad*
%ADD10C,0.700000*%
G04 #@! TD*
G04 #@! TA.AperFunction,ComponentPad*
%ADD11C,4.400000*%
G04 #@! TD*
G04 #@! TA.AperFunction,ComponentPad*
%ADD12O,1.700000X1.700000*%
G04 #@! TD*
G04 #@! TA.AperFunction,ComponentPad*
%ADD13R,1.700000X1.700000*%
G04 #@! TD*
G04 #@! TA.AperFunction,ComponentPad*
%ADD14C,2.250000*%
G04 #@! TD*
G04 #@! TA.AperFunction,ComponentPad*
%ADD15C,2.050000*%
G04 #@! TD*
G04 #@! TA.AperFunction,ViaPad*
%ADD16C,0.800000*%
G04 #@! TD*
G04 #@! TA.AperFunction,Conductor*
%ADD17C,0.250000*%
G04 #@! TD*
G04 #@! TA.AperFunction,Conductor*
%ADD18C,0.100000*%
G04 #@! TD*
G04 APERTURE END LIST*
D10*
X10816726Y4166726D03*
X9650000Y4650000D03*
X8483274Y4166726D03*
X8000000Y3000000D03*
X8483274Y1833274D03*
X9650000Y1350000D03*
X10816726Y1833274D03*
X11300000Y3000000D03*
D11*
X9650000Y3000000D03*
D10*
X45366726Y4166726D03*
X44200000Y4650000D03*
X43033274Y4166726D03*
X42550000Y3000000D03*
X43033274Y1833274D03*
X44200000Y1350000D03*
X45366726Y1833274D03*
X45850000Y3000000D03*
D11*
X44200000Y3000000D03*
D10*
X45366726Y29366726D03*
X44200000Y29850000D03*
X43033274Y29366726D03*
X42550000Y28200000D03*
X43033274Y27033274D03*
X44200000Y26550000D03*
X45366726Y27033274D03*
X45850000Y28200000D03*
D11*
X44200000Y28200000D03*
D10*
X4166726Y29366726D03*
X3000000Y29850000D03*
X1833274Y29366726D03*
X1350000Y28200000D03*
X1833274Y27033274D03*
X3000000Y26550000D03*
X4166726Y27033274D03*
X4650000Y28200000D03*
D11*
X3000000Y28200000D03*
D12*
X4540000Y4800000D03*
X2000000Y4800000D03*
X4540000Y7340000D03*
X2000000Y7340000D03*
X4540000Y9880000D03*
X2000000Y9880000D03*
X4540000Y12420000D03*
X2000000Y12420000D03*
X4540000Y14960000D03*
X2000000Y14960000D03*
X4540000Y17500000D03*
D13*
X2000000Y17500000D03*
D14*
X40260000Y7460000D03*
X40260000Y12540000D03*
X45340000Y12540000D03*
X45340000Y7460000D03*
D15*
X42800000Y10000000D03*
D16*
X32400000Y7100000D03*
X34700000Y7100000D03*
X37500000Y7600000D03*
X38500000Y8400000D03*
X38575453Y11104103D03*
X37298810Y10525674D03*
X36224688Y9619776D03*
X34831946Y9500000D03*
X33421297Y9500000D03*
X32100000Y9500000D03*
X42700000Y17950000D03*
X43550000Y18650000D03*
X46000000Y17000000D03*
X45400000Y17900000D03*
X46300000Y19100000D03*
X45100000Y19100000D03*
X46300000Y20200000D03*
X45100000Y20200000D03*
X45700000Y22350000D03*
X43550000Y22950000D03*
X42700000Y23650000D03*
X46000000Y23700000D03*
X45400000Y24650000D03*
X15400000Y17600000D03*
X29000000Y9400000D03*
X29000000Y7200000D03*
X15400000Y8200000D03*
X15400000Y7200000D03*
X9900000Y13500000D03*
X9900000Y12500000D03*
X6100000Y18200000D03*
X6100000Y19400000D03*
X6100000Y20700000D03*
X30600000Y6200000D03*
X12200000Y17600000D03*
X35600000Y14100000D03*
X35700000Y12100000D03*
X35500000Y10400000D03*
X15400000Y10500000D03*
X15400000Y18700000D03*
X39800000Y22200002D03*
X36400000Y7200000D03*
X11000000Y11600000D03*
X17800000Y30400000D03*
X19500000Y30400000D03*
X21200000Y30400000D03*
X39800000Y14600000D03*
X6100000Y27400000D03*
X6100000Y26500000D03*
X6100000Y25300000D03*
X11900000Y29200000D03*
X11900000Y28300000D03*
X12200000Y16500000D03*
X28200000Y28800000D03*
X9800000Y27900000D03*
X12100000Y20200000D03*
X11600000Y19500000D03*
X36000000Y27000000D03*
X10900000Y27000000D03*
X41000000Y23000000D03*
X41000000Y18100000D03*
X35499992Y26100000D03*
X12200000Y24200000D03*
X12200000Y23000000D03*
X29000000Y12600000D03*
X9800000Y9200000D03*
X29000000Y23000000D03*
X12400000Y14000000D03*
D17*
X4540000Y7340000D02*
X6800000Y9600000D01*
X6800000Y9600000D02*
X6800000Y13273002D01*
X6800000Y13273002D02*
X19626998Y26100000D01*
X19626998Y26100000D02*
X35499992Y26100000D01*
X3300000Y15459002D02*
X3300000Y13300000D01*
X4040998Y16200000D02*
X3300000Y15459002D01*
X4180000Y12420000D02*
X4540000Y12420000D01*
X4979002Y16200000D02*
X4040998Y16200000D01*
X3300000Y13300000D02*
X4180000Y12420000D01*
X11200000Y23200000D02*
X11200000Y22420998D01*
X11200000Y22420998D02*
X6875001Y18095999D01*
X6875001Y17827999D02*
X6472001Y17424999D01*
X12200000Y24200000D02*
X11200000Y23200000D01*
X6875001Y18095999D02*
X6875001Y17827999D01*
X6204001Y17424999D02*
X4979002Y16200000D01*
X6472001Y17424999D02*
X6204001Y17424999D01*
X7375012Y17795012D02*
X7375012Y16592931D01*
X11800001Y22600001D02*
X11800001Y22220001D01*
X11800001Y22220001D02*
X7375012Y17795012D01*
X5742081Y14960000D02*
X4540000Y14960000D01*
X7375012Y16592931D02*
X5742081Y14960000D01*
X12200000Y23000000D02*
X11800001Y22600001D01*
X26000001Y9600001D02*
X29000000Y12600000D01*
X10200001Y9600001D02*
X26000001Y9600001D01*
X9800000Y9200000D02*
X10200001Y9600001D01*
X22200020Y23000000D02*
X29000000Y23000000D01*
X13200020Y14000000D02*
X22200020Y23000000D01*
X12400000Y14000000D02*
X13200020Y14000000D01*
X17113204Y30767100D02*
X17054783Y30626059D01*
X17025000Y30476331D01*
X17025000Y30323669D01*
X17054783Y30173941D01*
X17113204Y30032900D01*
X17198018Y29905966D01*
X17305966Y29798018D01*
X17432900Y29713204D01*
X17573941Y29654783D01*
X17723669Y29625000D01*
X17876331Y29625000D01*
X18026059Y29654783D01*
X18167100Y29713204D01*
X18294034Y29798018D01*
X18401982Y29905966D01*
X18486796Y30032900D01*
X18545217Y30173941D01*
X18575000Y30323669D01*
X18575000Y30476331D01*
X18545217Y30626059D01*
X18486796Y30767100D01*
X18464813Y30800000D01*
X18835187Y30800000D01*
X18813204Y30767100D01*
X18754783Y30626059D01*
X18725000Y30476331D01*
X18725000Y30323669D01*
X18754783Y30173941D01*
X18813204Y30032900D01*
X18898018Y29905966D01*
X19005966Y29798018D01*
X19132900Y29713204D01*
X19273941Y29654783D01*
X19423669Y29625000D01*
X19576331Y29625000D01*
X19726059Y29654783D01*
X19867100Y29713204D01*
X19994034Y29798018D01*
X20101982Y29905966D01*
X20186796Y30032900D01*
X20245217Y30173941D01*
X20275000Y30323669D01*
X20275000Y30476331D01*
X20245217Y30626059D01*
X20186796Y30767100D01*
X20164813Y30800000D01*
X20535187Y30800000D01*
X20513204Y30767100D01*
X20454783Y30626059D01*
X20425000Y30476331D01*
X20425000Y30323669D01*
X20454783Y30173941D01*
X20513204Y30032900D01*
X20598018Y29905966D01*
X20705966Y29798018D01*
X20832900Y29713204D01*
X20973941Y29654783D01*
X21123669Y29625000D01*
X21276331Y29625000D01*
X21426059Y29654783D01*
X21567100Y29713204D01*
X21694034Y29798018D01*
X21801982Y29905966D01*
X21886796Y30032900D01*
X21945217Y30173941D01*
X21975000Y30323669D01*
X21975000Y30476331D01*
X21945217Y30626059D01*
X21886796Y30767100D01*
X21864813Y30800000D01*
X46180435Y30800000D01*
X46316167Y30786691D01*
X46427913Y30752953D01*
X46530971Y30698157D01*
X46621430Y30624380D01*
X46695832Y30534444D01*
X46751350Y30431764D01*
X46785865Y30320265D01*
X46800001Y30185776D01*
X46800001Y20796015D01*
X46794034Y20801982D01*
X46667100Y20886796D01*
X46526059Y20945217D01*
X46376331Y20975000D01*
X46223669Y20975000D01*
X46073941Y20945217D01*
X45932900Y20886796D01*
X45805966Y20801982D01*
X45700000Y20696016D01*
X45594034Y20801982D01*
X45467100Y20886796D01*
X45326059Y20945217D01*
X45176331Y20975000D01*
X45023669Y20975000D01*
X44873941Y20945217D01*
X44732900Y20886796D01*
X44605966Y20801982D01*
X44498018Y20694034D01*
X44413204Y20567100D01*
X44354783Y20426059D01*
X44325000Y20276331D01*
X44325000Y20123669D01*
X44354783Y19973941D01*
X44413204Y19832900D01*
X44498018Y19705966D01*
X44553984Y19650000D01*
X44498018Y19594034D01*
X44413204Y19467100D01*
X44354783Y19326059D01*
X44325000Y19176331D01*
X44325000Y19023669D01*
X44354783Y18873941D01*
X44413204Y18732900D01*
X44498018Y18605966D01*
X44605966Y18498018D01*
X44732900Y18413204D01*
X44793935Y18387923D01*
X44713204Y18267100D01*
X44654783Y18126059D01*
X44625000Y17976331D01*
X44625000Y17823669D01*
X44654783Y17673941D01*
X44713204Y17532900D01*
X44798018Y17405966D01*
X44905966Y17298018D01*
X45032900Y17213204D01*
X45173941Y17154783D01*
X45238068Y17142027D01*
X45225000Y17076331D01*
X45225000Y16923669D01*
X45254783Y16773941D01*
X45313204Y16632900D01*
X45398018Y16505966D01*
X45505966Y16398018D01*
X45632900Y16313204D01*
X45773941Y16254783D01*
X45923669Y16225000D01*
X46076331Y16225000D01*
X46226059Y16254783D01*
X46367100Y16313204D01*
X46494034Y16398018D01*
X46601982Y16505966D01*
X46686796Y16632900D01*
X46745217Y16773941D01*
X46775000Y16923669D01*
X46775000Y17076331D01*
X46745217Y17226059D01*
X46686796Y17367100D01*
X46601982Y17494034D01*
X46494034Y17601982D01*
X46367100Y17686796D01*
X46226059Y17745217D01*
X46161932Y17757973D01*
X46175000Y17823669D01*
X46175000Y17976331D01*
X46145217Y18126059D01*
X46086796Y18267100D01*
X46010708Y18380975D01*
X46073941Y18354783D01*
X46223669Y18325000D01*
X46376331Y18325000D01*
X46526059Y18354783D01*
X46667100Y18413204D01*
X46794034Y18498018D01*
X46800001Y18503985D01*
X46800000Y12888829D01*
X46782356Y12977534D01*
X46669283Y13250517D01*
X46505126Y13496194D01*
X46296194Y13705126D01*
X46050517Y13869283D01*
X45777534Y13982356D01*
X45487737Y14040000D01*
X45192263Y14040000D01*
X44902466Y13982356D01*
X44629483Y13869283D01*
X44383806Y13705126D01*
X44174874Y13496194D01*
X44010717Y13250517D01*
X43897644Y12977534D01*
X43840000Y12687737D01*
X43840000Y12392263D01*
X43897644Y12102466D01*
X44010717Y11829483D01*
X44174874Y11583806D01*
X44383806Y11374874D01*
X44629483Y11210717D01*
X44902466Y11097644D01*
X45192263Y11040000D01*
X45487737Y11040000D01*
X45777534Y11097644D01*
X46050517Y11210717D01*
X46296194Y11374874D01*
X46505126Y11583806D01*
X46669283Y11829483D01*
X46782356Y12102466D01*
X46800000Y12191171D01*
X46800000Y7808830D01*
X46782356Y7897534D01*
X46669283Y8170517D01*
X46505126Y8416194D01*
X46296194Y8625126D01*
X46050517Y8789283D01*
X45777534Y8902356D01*
X45487737Y8960000D01*
X45192263Y8960000D01*
X44902466Y8902356D01*
X44629483Y8789283D01*
X44383806Y8625126D01*
X44174874Y8416194D01*
X44010717Y8170517D01*
X43897644Y7897534D01*
X43840000Y7607737D01*
X43840000Y7312263D01*
X43897644Y7022466D01*
X44010717Y6749483D01*
X44174874Y6503806D01*
X44383806Y6294874D01*
X44629483Y6130717D01*
X44902466Y6017644D01*
X45192263Y5960000D01*
X45487737Y5960000D01*
X45777534Y6017644D01*
X46050517Y6130717D01*
X46296194Y6294874D01*
X46505126Y6503806D01*
X46669283Y6749483D01*
X46782356Y7022466D01*
X46800000Y7111170D01*
X46800000Y1019564D01*
X46786691Y883833D01*
X46752953Y772088D01*
X46698156Y669028D01*
X46624380Y578570D01*
X46534444Y504168D01*
X46431764Y448650D01*
X46320265Y414135D01*
X46185785Y400000D01*
X1019564Y400000D01*
X883833Y413309D01*
X772088Y447047D01*
X669028Y501844D01*
X578570Y575620D01*
X504168Y665556D01*
X448650Y768236D01*
X414135Y879735D01*
X400000Y1014215D01*
X400000Y3253615D01*
X7075000Y3253615D01*
X7075000Y2746385D01*
X7173956Y2248900D01*
X7368065Y1780280D01*
X7649867Y1358533D01*
X8008533Y999867D01*
X8430280Y718065D01*
X8898900Y523956D01*
X9396385Y425000D01*
X9903615Y425000D01*
X10401100Y523956D01*
X10869720Y718065D01*
X11291467Y999867D01*
X11650133Y1358533D01*
X11931935Y1780280D01*
X12126044Y2248900D01*
X12225000Y2746385D01*
X12225000Y3253615D01*
X41625000Y3253615D01*
X41625000Y2746385D01*
X41723956Y2248900D01*
X41918065Y1780280D01*
X42199867Y1358533D01*
X42558533Y999867D01*
X42980280Y718065D01*
X43448900Y523956D01*
X43946385Y425000D01*
X44453615Y425000D01*
X44951100Y523956D01*
X45419720Y718065D01*
X45841467Y999867D01*
X46200133Y1358533D01*
X46481935Y1780280D01*
X46676044Y2248900D01*
X46775000Y2746385D01*
X46775000Y3253615D01*
X46676044Y3751100D01*
X46481935Y4219720D01*
X46200133Y4641467D01*
X45841467Y5000133D01*
X45419720Y5281935D01*
X44951100Y5476044D01*
X44453615Y5575000D01*
X43946385Y5575000D01*
X43448900Y5476044D01*
X42980280Y5281935D01*
X42558533Y5000133D01*
X42199867Y4641467D01*
X41918065Y4219720D01*
X41723956Y3751100D01*
X41625000Y3253615D01*
X12225000Y3253615D01*
X12126044Y3751100D01*
X11931935Y4219720D01*
X11650133Y4641467D01*
X11291467Y5000133D01*
X10869720Y5281935D01*
X10401100Y5476044D01*
X9903615Y5575000D01*
X9396385Y5575000D01*
X8898900Y5476044D01*
X8430280Y5281935D01*
X8008533Y5000133D01*
X7649867Y4641467D01*
X7368065Y4219720D01*
X7173956Y3751100D01*
X7075000Y3253615D01*
X400000Y3253615D01*
X400000Y4920652D01*
X775000Y4920652D01*
X775000Y4679348D01*
X822076Y4442681D01*
X914419Y4219745D01*
X1048481Y4019108D01*
X1219108Y3848481D01*
X1419745Y3714419D01*
X1642681Y3622076D01*
X1879348Y3575000D01*
X2120652Y3575000D01*
X2357319Y3622076D01*
X2580255Y3714419D01*
X2780892Y3848481D01*
X2951519Y4019108D01*
X3085581Y4219745D01*
X3177924Y4442681D01*
X3225000Y4679348D01*
X3225000Y4920652D01*
X3315000Y4920652D01*
X3315000Y4679348D01*
X3362076Y4442681D01*
X3454419Y4219745D01*
X3588481Y4019108D01*
X3759108Y3848481D01*
X3959745Y3714419D01*
X4182681Y3622076D01*
X4419348Y3575000D01*
X4660652Y3575000D01*
X4897319Y3622076D01*
X5120255Y3714419D01*
X5320892Y3848481D01*
X5491519Y4019108D01*
X5625581Y4219745D01*
X5717924Y4442681D01*
X5765000Y4679348D01*
X5765000Y4920652D01*
X5717924Y5157319D01*
X5625581Y5380255D01*
X5491519Y5580892D01*
X5320892Y5751519D01*
X5120255Y5885581D01*
X4897319Y5977924D01*
X4660652Y6025000D01*
X4419348Y6025000D01*
X4182681Y5977924D01*
X3959745Y5885581D01*
X3759108Y5751519D01*
X3588481Y5580892D01*
X3454419Y5380255D01*
X3362076Y5157319D01*
X3315000Y4920652D01*
X3225000Y4920652D01*
X3177924Y5157319D01*
X3085581Y5380255D01*
X2951519Y5580892D01*
X2780892Y5751519D01*
X2580255Y5885581D01*
X2357319Y5977924D01*
X2120652Y6025000D01*
X1879348Y6025000D01*
X1642681Y5977924D01*
X1419745Y5885581D01*
X1219108Y5751519D01*
X1048481Y5580892D01*
X914419Y5380255D01*
X822076Y5157319D01*
X775000Y4920652D01*
X400000Y4920652D01*
X400000Y7460652D01*
X775000Y7460652D01*
X775000Y7219348D01*
X822076Y6982681D01*
X914419Y6759745D01*
X1048481Y6559108D01*
X1219108Y6388481D01*
X1419745Y6254419D01*
X1642681Y6162076D01*
X1879348Y6115000D01*
X2120652Y6115000D01*
X2357319Y6162076D01*
X2580255Y6254419D01*
X2780892Y6388481D01*
X2951519Y6559108D01*
X3085581Y6759745D01*
X3177924Y6982681D01*
X3225000Y7219348D01*
X3225000Y7460652D01*
X3315000Y7460652D01*
X3315000Y7219348D01*
X3362076Y6982681D01*
X3454419Y6759745D01*
X3588481Y6559108D01*
X3759108Y6388481D01*
X3959745Y6254419D01*
X4182681Y6162076D01*
X4419348Y6115000D01*
X4660652Y6115000D01*
X4897319Y6162076D01*
X5120255Y6254419D01*
X5153048Y6276331D01*
X29825000Y6276331D01*
X29825000Y6123669D01*
X29854783Y5973941D01*
X29913204Y5832900D01*
X29998018Y5705966D01*
X30105966Y5598018D01*
X30232900Y5513204D01*
X30373941Y5454783D01*
X30523669Y5425000D01*
X30676331Y5425000D01*
X30826059Y5454783D01*
X30967100Y5513204D01*
X31094034Y5598018D01*
X31201982Y5705966D01*
X31286796Y5832900D01*
X31345217Y5973941D01*
X31375000Y6123669D01*
X31375000Y6276331D01*
X31345217Y6426059D01*
X31286796Y6567100D01*
X31201982Y6694034D01*
X31094034Y6801982D01*
X30967100Y6886796D01*
X30826059Y6945217D01*
X30676331Y6975000D01*
X30523669Y6975000D01*
X30373941Y6945217D01*
X30232900Y6886796D01*
X30105966Y6801982D01*
X29998018Y6694034D01*
X29913204Y6567100D01*
X29854783Y6426059D01*
X29825000Y6276331D01*
X5153048Y6276331D01*
X5320892Y6388481D01*
X5491519Y6559108D01*
X5625581Y6759745D01*
X5717924Y6982681D01*
X5765000Y7219348D01*
X5765000Y7460652D01*
X5717924Y7697319D01*
X5684681Y7777575D01*
X6183437Y8276331D01*
X14625000Y8276331D01*
X14625000Y8123669D01*
X14654783Y7973941D01*
X14713204Y7832900D01*
X14798018Y7705966D01*
X14803984Y7700000D01*
X14798018Y7694034D01*
X14713204Y7567100D01*
X14654783Y7426059D01*
X14625000Y7276331D01*
X14625000Y7123669D01*
X14654783Y6973941D01*
X14713204Y6832900D01*
X14798018Y6705966D01*
X14905966Y6598018D01*
X15032900Y6513204D01*
X15173941Y6454783D01*
X15323669Y6425000D01*
X15476331Y6425000D01*
X15626059Y6454783D01*
X15767100Y6513204D01*
X15894034Y6598018D01*
X16001982Y6705966D01*
X16086796Y6832900D01*
X16145217Y6973941D01*
X16175000Y7123669D01*
X16175000Y7276331D01*
X28225000Y7276331D01*
X28225000Y7123669D01*
X28254783Y6973941D01*
X28313204Y6832900D01*
X28398018Y6705966D01*
X28505966Y6598018D01*
X28632900Y6513204D01*
X28773941Y6454783D01*
X28923669Y6425000D01*
X29076331Y6425000D01*
X29226059Y6454783D01*
X29367100Y6513204D01*
X29494034Y6598018D01*
X29601982Y6705966D01*
X29686796Y6832900D01*
X29745217Y6973941D01*
X29775000Y7123669D01*
X29775000Y7176331D01*
X31625000Y7176331D01*
X31625000Y7023669D01*
X31654783Y6873941D01*
X31713204Y6732900D01*
X31798018Y6605966D01*
X31905966Y6498018D01*
X32032900Y6413204D01*
X32173941Y6354783D01*
X32290431Y6331611D01*
X32233095Y6245802D01*
X32104063Y5934290D01*
X32038282Y5603589D01*
X32038282Y5266411D01*
X32104063Y4935710D01*
X32233095Y4624198D01*
X32420422Y4343844D01*
X32658844Y4105422D01*
X32939198Y3918095D01*
X33250710Y3789063D01*
X33581411Y3723282D01*
X33918589Y3723282D01*
X34249290Y3789063D01*
X34560802Y3918095D01*
X34841156Y4105422D01*
X35079578Y4343844D01*
X35266905Y4624198D01*
X35395937Y4935710D01*
X35461718Y5266411D01*
X35461718Y5603589D01*
X35395937Y5934290D01*
X35266905Y6245802D01*
X35127904Y6453832D01*
X35194034Y6498018D01*
X35301982Y6605966D01*
X35386796Y6732900D01*
X35445217Y6873941D01*
X35475000Y7023669D01*
X35475000Y7176331D01*
X35455109Y7276331D01*
X35625000Y7276331D01*
X35625000Y7123669D01*
X35654783Y6973941D01*
X35713204Y6832900D01*
X35798018Y6705966D01*
X35905966Y6598018D01*
X36032900Y6513204D01*
X36173941Y6454783D01*
X36323669Y6425000D01*
X36476331Y6425000D01*
X36626059Y6454783D01*
X36767100Y6513204D01*
X36894034Y6598018D01*
X37001982Y6705966D01*
X37086796Y6832900D01*
X37122843Y6919924D01*
X37132900Y6913204D01*
X37273941Y6854783D01*
X37423669Y6825000D01*
X37576331Y6825000D01*
X37726059Y6854783D01*
X37867100Y6913204D01*
X37994034Y6998018D01*
X38101982Y7105966D01*
X38186796Y7232900D01*
X38245217Y7373941D01*
X38275000Y7523669D01*
X38275000Y7654572D01*
X38423669Y7625000D01*
X38576331Y7625000D01*
X38726059Y7654783D01*
X38773246Y7674328D01*
X38760000Y7607737D01*
X38760000Y7312263D01*
X38817644Y7022466D01*
X38930717Y6749483D01*
X39094874Y6503806D01*
X39303806Y6294874D01*
X39549483Y6130717D01*
X39822466Y6017644D01*
X40112263Y5960000D01*
X40407737Y5960000D01*
X40697534Y6017644D01*
X40970517Y6130717D01*
X41216194Y6294874D01*
X41425126Y6503806D01*
X41589283Y6749483D01*
X41702356Y7022466D01*
X41760000Y7312263D01*
X41760000Y7607737D01*
X41702356Y7897534D01*
X41589283Y8170517D01*
X41425126Y8416194D01*
X41216194Y8625126D01*
X40970517Y8789283D01*
X40697534Y8902356D01*
X40407737Y8960000D01*
X40112263Y8960000D01*
X39822466Y8902356D01*
X39549483Y8789283D01*
X39303806Y8625126D01*
X39255092Y8576412D01*
X39245217Y8626059D01*
X39186796Y8767100D01*
X39101982Y8894034D01*
X38994034Y9001982D01*
X38867100Y9086796D01*
X38726059Y9145217D01*
X38576331Y9175000D01*
X38423669Y9175000D01*
X38273941Y9145217D01*
X38132900Y9086796D01*
X38005966Y9001982D01*
X37898018Y8894034D01*
X37813204Y8767100D01*
X37754783Y8626059D01*
X37725000Y8476331D01*
X37725000Y8345428D01*
X37576331Y8375000D01*
X37423669Y8375000D01*
X37273941Y8345217D01*
X37132900Y8286796D01*
X37005966Y8201982D01*
X36898018Y8094034D01*
X36813204Y7967100D01*
X36777157Y7880076D01*
X36767100Y7886796D01*
X36626059Y7945217D01*
X36476331Y7975000D01*
X36323669Y7975000D01*
X36173941Y7945217D01*
X36032900Y7886796D01*
X35905966Y7801982D01*
X35798018Y7694034D01*
X35713204Y7567100D01*
X35654783Y7426059D01*
X35625000Y7276331D01*
X35455109Y7276331D01*
X35445217Y7326059D01*
X35386796Y7467100D01*
X35301982Y7594034D01*
X35194034Y7701982D01*
X35067100Y7786796D01*
X34926059Y7845217D01*
X34776331Y7875000D01*
X34623669Y7875000D01*
X34473941Y7845217D01*
X34332900Y7786796D01*
X34205966Y7701982D01*
X34098018Y7594034D01*
X34013204Y7467100D01*
X33954783Y7326059D01*
X33925000Y7176331D01*
X33925000Y7145443D01*
X33918589Y7146718D01*
X33581411Y7146718D01*
X33250710Y7080937D01*
X33175000Y7049577D01*
X33175000Y7176331D01*
X33145217Y7326059D01*
X33086796Y7467100D01*
X33001982Y7594034D01*
X32894034Y7701982D01*
X32767100Y7786796D01*
X32626059Y7845217D01*
X32476331Y7875000D01*
X32323669Y7875000D01*
X32173941Y7845217D01*
X32032900Y7786796D01*
X31905966Y7701982D01*
X31798018Y7594034D01*
X31713204Y7467100D01*
X31654783Y7326059D01*
X31625000Y7176331D01*
X29775000Y7176331D01*
X29775000Y7276331D01*
X29745217Y7426059D01*
X29686796Y7567100D01*
X29601982Y7694034D01*
X29494034Y7801982D01*
X29367100Y7886796D01*
X29226059Y7945217D01*
X29076331Y7975000D01*
X28923669Y7975000D01*
X28773941Y7945217D01*
X28632900Y7886796D01*
X28505966Y7801982D01*
X28398018Y7694034D01*
X28313204Y7567100D01*
X28254783Y7426059D01*
X28225000Y7276331D01*
X16175000Y7276331D01*
X16145217Y7426059D01*
X16086796Y7567100D01*
X16001982Y7694034D01*
X15996016Y7700000D01*
X16001982Y7705966D01*
X16086796Y7832900D01*
X16145217Y7973941D01*
X16175000Y8123669D01*
X16175000Y8276331D01*
X16145217Y8426059D01*
X16086796Y8567100D01*
X16001982Y8694034D01*
X15894034Y8801982D01*
X15767100Y8886796D01*
X15626059Y8945217D01*
X15476331Y8975000D01*
X15323669Y8975000D01*
X15173941Y8945217D01*
X15032900Y8886796D01*
X14905966Y8801982D01*
X14798018Y8694034D01*
X14713204Y8567100D01*
X14654783Y8426059D01*
X14625000Y8276331D01*
X6183437Y8276331D01*
X7136189Y9229082D01*
X7155264Y9244736D01*
X7181193Y9276331D01*
X9025000Y9276331D01*
X9025000Y9123669D01*
X9054783Y8973941D01*
X9113204Y8832900D01*
X9198018Y8705966D01*
X9305966Y8598018D01*
X9432900Y8513204D01*
X9573941Y8454783D01*
X9723669Y8425000D01*
X9876331Y8425000D01*
X10026059Y8454783D01*
X10167100Y8513204D01*
X10294034Y8598018D01*
X10401982Y8705966D01*
X10486796Y8832900D01*
X10545217Y8973941D01*
X10570292Y9100001D01*
X25975441Y9100001D01*
X26000001Y9097582D01*
X26024561Y9100001D01*
X26098018Y9107236D01*
X26192268Y9135826D01*
X26279130Y9182255D01*
X26355265Y9244737D01*
X26370930Y9263825D01*
X26583436Y9476331D01*
X28225000Y9476331D01*
X28225000Y9323669D01*
X28254783Y9173941D01*
X28313204Y9032900D01*
X28398018Y8905966D01*
X28505966Y8798018D01*
X28632900Y8713204D01*
X28773941Y8654783D01*
X28923669Y8625000D01*
X29076331Y8625000D01*
X29226059Y8654783D01*
X29367100Y8713204D01*
X29494034Y8798018D01*
X29601982Y8905966D01*
X29686796Y9032900D01*
X29745217Y9173941D01*
X29775000Y9323669D01*
X29775000Y9476331D01*
X29755109Y9576331D01*
X31325000Y9576331D01*
X31325000Y9423669D01*
X31354783Y9273941D01*
X31413204Y9132900D01*
X31498018Y9005966D01*
X31605966Y8898018D01*
X31732900Y8813204D01*
X31873941Y8754783D01*
X32023669Y8725000D01*
X32176331Y8725000D01*
X32326059Y8754783D01*
X32467100Y8813204D01*
X32594034Y8898018D01*
X32701982Y9005966D01*
X32760649Y9093767D01*
X32819315Y9005966D01*
X32927263Y8898018D01*
X33054197Y8813204D01*
X33195238Y8754783D01*
X33344966Y8725000D01*
X33497628Y8725000D01*
X33647356Y8754783D01*
X33788397Y8813204D01*
X33915331Y8898018D01*
X34023279Y9005966D01*
X34108093Y9132900D01*
X34126622Y9177632D01*
X34145150Y9132900D01*
X34229964Y9005966D01*
X34337912Y8898018D01*
X34464846Y8813204D01*
X34605887Y8754783D01*
X34755615Y8725000D01*
X34908277Y8725000D01*
X35058005Y8754783D01*
X35199046Y8813204D01*
X35325980Y8898018D01*
X35433928Y9005966D01*
X35518742Y9132900D01*
X35556697Y9224532D01*
X35622706Y9125742D01*
X35730654Y9017794D01*
X35857588Y8932980D01*
X35998629Y8874559D01*
X36148357Y8844776D01*
X36301019Y8844776D01*
X36450747Y8874559D01*
X36591788Y8932980D01*
X36718722Y9017794D01*
X36826670Y9125742D01*
X36911484Y9252676D01*
X36969905Y9393717D01*
X36999688Y9543445D01*
X36999688Y9696107D01*
X36974843Y9821012D01*
X37072751Y9780457D01*
X37222479Y9750674D01*
X37375141Y9750674D01*
X37524869Y9780457D01*
X37665910Y9838878D01*
X37792844Y9923692D01*
X37900792Y10031640D01*
X37985606Y10158574D01*
X37990671Y10170804D01*
X41065800Y10170804D01*
X41065800Y9829196D01*
X41132444Y9494153D01*
X41263172Y9178548D01*
X41452959Y8894512D01*
X41694512Y8652959D01*
X41978548Y8463172D01*
X42294153Y8332444D01*
X42629196Y8265800D01*
X42970804Y8265800D01*
X43305847Y8332444D01*
X43621452Y8463172D01*
X43905488Y8652959D01*
X44147041Y8894512D01*
X44336828Y9178548D01*
X44467556Y9494153D01*
X44534200Y9829196D01*
X44534200Y10170804D01*
X44467556Y10505847D01*
X44336828Y10821452D01*
X44147041Y11105488D01*
X43905488Y11347041D01*
X43621452Y11536828D01*
X43305847Y11667556D01*
X42970804Y11734200D01*
X42629196Y11734200D01*
X42294153Y11667556D01*
X41978548Y11536828D01*
X41694512Y11347041D01*
X41452959Y11105488D01*
X41263172Y10821452D01*
X41132444Y10505847D01*
X41065800Y10170804D01*
X37990671Y10170804D01*
X38044027Y10299615D01*
X38073810Y10449343D01*
X38073810Y10509730D01*
X38081419Y10502121D01*
X38208353Y10417307D01*
X38349394Y10358886D01*
X38499122Y10329103D01*
X38651784Y10329103D01*
X38801512Y10358886D01*
X38942553Y10417307D01*
X39069487Y10502121D01*
X39177435Y10610069D01*
X39262249Y10737003D01*
X39320670Y10878044D01*
X39350453Y11027772D01*
X39350453Y11180434D01*
X39320670Y11330162D01*
X39300979Y11377701D01*
X39303806Y11374874D01*
X39549483Y11210717D01*
X39822466Y11097644D01*
X40112263Y11040000D01*
X40407737Y11040000D01*
X40697534Y11097644D01*
X40970517Y11210717D01*
X41216194Y11374874D01*
X41425126Y11583806D01*
X41589283Y11829483D01*
X41702356Y12102466D01*
X41760000Y12392263D01*
X41760000Y12687737D01*
X41702356Y12977534D01*
X41589283Y13250517D01*
X41425126Y13496194D01*
X41216194Y13705126D01*
X40970517Y13869283D01*
X40697534Y13982356D01*
X40407737Y14040000D01*
X40336016Y14040000D01*
X40401982Y14105966D01*
X40486796Y14232900D01*
X40545217Y14373941D01*
X40575000Y14523669D01*
X40575000Y14676331D01*
X40545217Y14826059D01*
X40486796Y14967100D01*
X40401982Y15094034D01*
X40294034Y15201982D01*
X40167100Y15286796D01*
X40026059Y15345217D01*
X39876331Y15375000D01*
X39723669Y15375000D01*
X39573941Y15345217D01*
X39432900Y15286796D01*
X39305966Y15201982D01*
X39198018Y15094034D01*
X39113204Y14967100D01*
X39054783Y14826059D01*
X39025000Y14676331D01*
X39025000Y14523669D01*
X39054783Y14373941D01*
X39113204Y14232900D01*
X39198018Y14105966D01*
X39305966Y13998018D01*
X39432900Y13913204D01*
X39545446Y13866586D01*
X39303806Y13705126D01*
X39094874Y13496194D01*
X38930717Y13250517D01*
X38817644Y12977534D01*
X38760000Y12687737D01*
X38760000Y12392263D01*
X38817644Y12102466D01*
X38930717Y11829483D01*
X38967746Y11774066D01*
X38942553Y11790899D01*
X38801512Y11849320D01*
X38651784Y11879103D01*
X38499122Y11879103D01*
X38349394Y11849320D01*
X38208353Y11790899D01*
X38081419Y11706085D01*
X37973471Y11598137D01*
X37888657Y11471203D01*
X37830236Y11330162D01*
X37800453Y11180434D01*
X37800453Y11120047D01*
X37792844Y11127656D01*
X37665910Y11212470D01*
X37524869Y11270891D01*
X37375141Y11300674D01*
X37222479Y11300674D01*
X37072751Y11270891D01*
X36931710Y11212470D01*
X36804776Y11127656D01*
X36696828Y11019708D01*
X36612014Y10892774D01*
X36553593Y10751733D01*
X36523810Y10602005D01*
X36523810Y10449343D01*
X36548655Y10324438D01*
X36450747Y10364993D01*
X36301019Y10394776D01*
X36275000Y10394776D01*
X36275000Y10476331D01*
X36245217Y10626059D01*
X36186796Y10767100D01*
X36101982Y10894034D01*
X35994034Y11001982D01*
X35867100Y11086796D01*
X35726059Y11145217D01*
X35576331Y11175000D01*
X35423669Y11175000D01*
X35273941Y11145217D01*
X35132900Y11086796D01*
X35005966Y11001982D01*
X34898018Y10894034D01*
X34813204Y10767100D01*
X34754783Y10626059D01*
X34725000Y10476331D01*
X34725000Y10323669D01*
X34735478Y10270994D01*
X34605887Y10245217D01*
X34464846Y10186796D01*
X34337912Y10101982D01*
X34229964Y9994034D01*
X34145150Y9867100D01*
X34126622Y9822368D01*
X34108093Y9867100D01*
X34023279Y9994034D01*
X33915331Y10101982D01*
X33788397Y10186796D01*
X33647356Y10245217D01*
X33497628Y10275000D01*
X33344966Y10275000D01*
X33195238Y10245217D01*
X33054197Y10186796D01*
X32927263Y10101982D01*
X32819315Y9994034D01*
X32760649Y9906233D01*
X32701982Y9994034D01*
X32594034Y10101982D01*
X32467100Y10186796D01*
X32326059Y10245217D01*
X32176331Y10275000D01*
X32023669Y10275000D01*
X31873941Y10245217D01*
X31732900Y10186796D01*
X31605966Y10101982D01*
X31498018Y9994034D01*
X31413204Y9867100D01*
X31354783Y9726059D01*
X31325000Y9576331D01*
X29755109Y9576331D01*
X29745217Y9626059D01*
X29686796Y9767100D01*
X29601982Y9894034D01*
X29494034Y10001982D01*
X29367100Y10086796D01*
X29226059Y10145217D01*
X29076331Y10175000D01*
X28923669Y10175000D01*
X28773941Y10145217D01*
X28632900Y10086796D01*
X28505966Y10001982D01*
X28398018Y9894034D01*
X28313204Y9767100D01*
X28254783Y9626059D01*
X28225000Y9476331D01*
X26583436Y9476331D01*
X28932107Y11825000D01*
X29076331Y11825000D01*
X29226059Y11854783D01*
X29367100Y11913204D01*
X29494034Y11998018D01*
X29601982Y12105966D01*
X29648998Y12176331D01*
X34925000Y12176331D01*
X34925000Y12023669D01*
X34954783Y11873941D01*
X35013204Y11732900D01*
X35098018Y11605966D01*
X35205966Y11498018D01*
X35332900Y11413204D01*
X35473941Y11354783D01*
X35623669Y11325000D01*
X35776331Y11325000D01*
X35926059Y11354783D01*
X36067100Y11413204D01*
X36194034Y11498018D01*
X36301982Y11605966D01*
X36386796Y11732900D01*
X36445217Y11873941D01*
X36475000Y12023669D01*
X36475000Y12176331D01*
X36445217Y12326059D01*
X36386796Y12467100D01*
X36301982Y12594034D01*
X36194034Y12701982D01*
X36067100Y12786796D01*
X35926059Y12845217D01*
X35776331Y12875000D01*
X35623669Y12875000D01*
X35473941Y12845217D01*
X35332900Y12786796D01*
X35205966Y12701982D01*
X35098018Y12594034D01*
X35013204Y12467100D01*
X34954783Y12326059D01*
X34925000Y12176331D01*
X29648998Y12176331D01*
X29686796Y12232900D01*
X29745217Y12373941D01*
X29775000Y12523669D01*
X29775000Y12676331D01*
X29745217Y12826059D01*
X29686796Y12967100D01*
X29601982Y13094034D01*
X29494034Y13201982D01*
X29367100Y13286796D01*
X29226059Y13345217D01*
X29076331Y13375000D01*
X28923669Y13375000D01*
X28773941Y13345217D01*
X28632900Y13286796D01*
X28505966Y13201982D01*
X28398018Y13094034D01*
X28313204Y12967100D01*
X28254783Y12826059D01*
X28225000Y12676331D01*
X28225000Y12532107D01*
X25792896Y10100001D01*
X10224561Y10100001D01*
X10200001Y10102420D01*
X10175441Y10100001D01*
X10101984Y10092766D01*
X10007734Y10064176D01*
X9920872Y10017747D01*
X9868784Y9975000D01*
X9723669Y9975000D01*
X9573941Y9945217D01*
X9432900Y9886796D01*
X9305966Y9801982D01*
X9198018Y9694034D01*
X9113204Y9567100D01*
X9054783Y9426059D01*
X9025000Y9276331D01*
X7181193Y9276331D01*
X7217746Y9320871D01*
X7264175Y9407733D01*
X7292765Y9501983D01*
X7300000Y9575440D01*
X7300000Y9575441D01*
X7302419Y9600000D01*
X7300000Y9624560D01*
X7300000Y13065897D01*
X7810434Y13576331D01*
X9125000Y13576331D01*
X9125000Y13423669D01*
X9154783Y13273941D01*
X9213204Y13132900D01*
X9298018Y13005966D01*
X9303984Y13000000D01*
X9298018Y12994034D01*
X9213204Y12867100D01*
X9154783Y12726059D01*
X9125000Y12576331D01*
X9125000Y12423669D01*
X9154783Y12273941D01*
X9213204Y12132900D01*
X9298018Y12005966D01*
X9405966Y11898018D01*
X9532900Y11813204D01*
X9673941Y11754783D01*
X9823669Y11725000D01*
X9976331Y11725000D01*
X10126059Y11754783D01*
X10250890Y11806490D01*
X10225000Y11676331D01*
X10225000Y11523669D01*
X10254783Y11373941D01*
X10313204Y11232900D01*
X10398018Y11105966D01*
X10505966Y10998018D01*
X10632900Y10913204D01*
X10773941Y10854783D01*
X10923669Y10825000D01*
X11076331Y10825000D01*
X11226059Y10854783D01*
X11367100Y10913204D01*
X11494034Y10998018D01*
X11601982Y11105966D01*
X11686796Y11232900D01*
X11745217Y11373941D01*
X11775000Y11523669D01*
X11775000Y11676331D01*
X11745217Y11826059D01*
X11686796Y11967100D01*
X11601982Y12094034D01*
X11494034Y12201982D01*
X11367100Y12286796D01*
X11226059Y12345217D01*
X11076331Y12375000D01*
X10923669Y12375000D01*
X10773941Y12345217D01*
X10649110Y12293510D01*
X10675000Y12423669D01*
X10675000Y12576331D01*
X10645217Y12726059D01*
X10586796Y12867100D01*
X10501982Y12994034D01*
X10496016Y13000000D01*
X10501982Y13005966D01*
X10586796Y13132900D01*
X10645217Y13273941D01*
X10675000Y13423669D01*
X10675000Y13576331D01*
X10645217Y13726059D01*
X10586796Y13867100D01*
X10501982Y13994034D01*
X10419685Y14076331D01*
X11625000Y14076331D01*
X11625000Y13923669D01*
X11654783Y13773941D01*
X11713204Y13632900D01*
X11798018Y13505966D01*
X11905966Y13398018D01*
X12032900Y13313204D01*
X12173941Y13254783D01*
X12323669Y13225000D01*
X12476331Y13225000D01*
X12626059Y13254783D01*
X12767100Y13313204D01*
X12894034Y13398018D01*
X12996016Y13500000D01*
X13175460Y13500000D01*
X13200020Y13497581D01*
X13224580Y13500000D01*
X13298037Y13507235D01*
X13392287Y13535825D01*
X13479149Y13582254D01*
X13555284Y13644736D01*
X13570949Y13663824D01*
X14083456Y14176331D01*
X34825000Y14176331D01*
X34825000Y14023669D01*
X34854783Y13873941D01*
X34913204Y13732900D01*
X34998018Y13605966D01*
X35105966Y13498018D01*
X35232900Y13413204D01*
X35373941Y13354783D01*
X35523669Y13325000D01*
X35676331Y13325000D01*
X35826059Y13354783D01*
X35967100Y13413204D01*
X36094034Y13498018D01*
X36201982Y13605966D01*
X36286796Y13732900D01*
X36345217Y13873941D01*
X36375000Y14023669D01*
X36375000Y14176331D01*
X36345217Y14326059D01*
X36286796Y14467100D01*
X36201982Y14594034D01*
X36094034Y14701982D01*
X35967100Y14786796D01*
X35826059Y14845217D01*
X35676331Y14875000D01*
X35523669Y14875000D01*
X35373941Y14845217D01*
X35232900Y14786796D01*
X35105966Y14701982D01*
X34998018Y14594034D01*
X34913204Y14467100D01*
X34854783Y14326059D01*
X34825000Y14176331D01*
X14083456Y14176331D01*
X19226714Y19319589D01*
X32038282Y19319589D01*
X32038282Y18982411D01*
X32104063Y18651710D01*
X32233095Y18340198D01*
X32420422Y18059844D01*
X32658844Y17821422D01*
X32939198Y17634095D01*
X33250710Y17505063D01*
X33581411Y17439282D01*
X33918589Y17439282D01*
X34249290Y17505063D01*
X34560802Y17634095D01*
X34841156Y17821422D01*
X35079578Y18059844D01*
X35157412Y18176331D01*
X40225000Y18176331D01*
X40225000Y18023669D01*
X40254783Y17873941D01*
X40313204Y17732900D01*
X40398018Y17605966D01*
X40505966Y17498018D01*
X40632900Y17413204D01*
X40773941Y17354783D01*
X40923669Y17325000D01*
X41076331Y17325000D01*
X41226059Y17354783D01*
X41367100Y17413204D01*
X41494034Y17498018D01*
X41601982Y17605966D01*
X41686796Y17732900D01*
X41745217Y17873941D01*
X41775000Y18023669D01*
X41775000Y18026331D01*
X41925000Y18026331D01*
X41925000Y17873669D01*
X41954783Y17723941D01*
X42013204Y17582900D01*
X42098018Y17455966D01*
X42205966Y17348018D01*
X42332900Y17263204D01*
X42473941Y17204783D01*
X42623669Y17175000D01*
X42776331Y17175000D01*
X42926059Y17204783D01*
X43067100Y17263204D01*
X43194034Y17348018D01*
X43301982Y17455966D01*
X43386796Y17582900D01*
X43445217Y17723941D01*
X43475000Y17873669D01*
X43475000Y17875000D01*
X43626331Y17875000D01*
X43776059Y17904783D01*
X43917100Y17963204D01*
X44044034Y18048018D01*
X44151982Y18155966D01*
X44236796Y18282900D01*
X44295217Y18423941D01*
X44325000Y18573669D01*
X44325000Y18726331D01*
X44295217Y18876059D01*
X44236796Y19017100D01*
X44151982Y19144034D01*
X44044034Y19251982D01*
X43917100Y19336796D01*
X43776059Y19395217D01*
X43626331Y19425000D01*
X43473669Y19425000D01*
X43323941Y19395217D01*
X43182900Y19336796D01*
X43055966Y19251982D01*
X42948018Y19144034D01*
X42863204Y19017100D01*
X42804783Y18876059D01*
X42775000Y18726331D01*
X42775000Y18725000D01*
X42623669Y18725000D01*
X42473941Y18695217D01*
X42332900Y18636796D01*
X42205966Y18551982D01*
X42098018Y18444034D01*
X42013204Y18317100D01*
X41954783Y18176059D01*
X41925000Y18026331D01*
X41775000Y18026331D01*
X41775000Y18176331D01*
X41745217Y18326059D01*
X41686796Y18467100D01*
X41601982Y18594034D01*
X41494034Y18701982D01*
X41367100Y18786796D01*
X41226059Y18845217D01*
X41076331Y18875000D01*
X40923669Y18875000D01*
X40773941Y18845217D01*
X40632900Y18786796D01*
X40505966Y18701982D01*
X40398018Y18594034D01*
X40313204Y18467100D01*
X40254783Y18326059D01*
X40225000Y18176331D01*
X35157412Y18176331D01*
X35266905Y18340198D01*
X35395937Y18651710D01*
X35461718Y18982411D01*
X35461718Y19319589D01*
X35395937Y19650290D01*
X35266905Y19961802D01*
X35079578Y20242156D01*
X34841156Y20480578D01*
X34560802Y20667905D01*
X34249290Y20796937D01*
X33918589Y20862718D01*
X33581411Y20862718D01*
X33250710Y20796937D01*
X32939198Y20667905D01*
X32658844Y20480578D01*
X32420422Y20242156D01*
X32233095Y19961802D01*
X32104063Y19650290D01*
X32038282Y19319589D01*
X19226714Y19319589D01*
X22407126Y22500000D01*
X28403984Y22500000D01*
X28505966Y22398018D01*
X28632900Y22313204D01*
X28773941Y22254783D01*
X28923669Y22225000D01*
X29076331Y22225000D01*
X29226059Y22254783D01*
X29278085Y22276333D01*
X39025000Y22276333D01*
X39025000Y22123671D01*
X39054783Y21973943D01*
X39113204Y21832902D01*
X39198018Y21705968D01*
X39305966Y21598020D01*
X39432900Y21513206D01*
X39573941Y21454785D01*
X39723669Y21425002D01*
X39876331Y21425002D01*
X40026059Y21454785D01*
X40167100Y21513206D01*
X40294034Y21598020D01*
X40401982Y21705968D01*
X40486796Y21832902D01*
X40545217Y21973943D01*
X40575000Y22123671D01*
X40575000Y22276333D01*
X40557667Y22363473D01*
X40632900Y22313204D01*
X40773941Y22254783D01*
X40923669Y22225000D01*
X41076331Y22225000D01*
X41226059Y22254783D01*
X41367100Y22313204D01*
X41494034Y22398018D01*
X41601982Y22505966D01*
X41686796Y22632900D01*
X41745217Y22773941D01*
X41775000Y22923669D01*
X41775000Y23076331D01*
X41745217Y23226059D01*
X41686796Y23367100D01*
X41601982Y23494034D01*
X41494034Y23601982D01*
X41367100Y23686796D01*
X41271654Y23726331D01*
X41925000Y23726331D01*
X41925000Y23573669D01*
X41954783Y23423941D01*
X42013204Y23282900D01*
X42098018Y23155966D01*
X42205966Y23048018D01*
X42332900Y22963204D01*
X42473941Y22904783D01*
X42623669Y22875000D01*
X42775000Y22875000D01*
X42775000Y22873669D01*
X42804783Y22723941D01*
X42863204Y22582900D01*
X42948018Y22455966D01*
X43055966Y22348018D01*
X43182900Y22263204D01*
X43323941Y22204783D01*
X43473669Y22175000D01*
X43626331Y22175000D01*
X43776059Y22204783D01*
X43917100Y22263204D01*
X44044034Y22348018D01*
X44151982Y22455966D01*
X44236796Y22582900D01*
X44295217Y22723941D01*
X44325000Y22873669D01*
X44325000Y23026331D01*
X44295217Y23176059D01*
X44236796Y23317100D01*
X44151982Y23444034D01*
X44044034Y23551982D01*
X43917100Y23636796D01*
X43776059Y23695217D01*
X43626331Y23725000D01*
X43475000Y23725000D01*
X43475000Y23726331D01*
X43445217Y23876059D01*
X43386796Y24017100D01*
X43301982Y24144034D01*
X43194034Y24251982D01*
X43067100Y24336796D01*
X42926059Y24395217D01*
X42776331Y24425000D01*
X42623669Y24425000D01*
X42473941Y24395217D01*
X42332900Y24336796D01*
X42205966Y24251982D01*
X42098018Y24144034D01*
X42013204Y24017100D01*
X41954783Y23876059D01*
X41925000Y23726331D01*
X41271654Y23726331D01*
X41226059Y23745217D01*
X41076331Y23775000D01*
X40923669Y23775000D01*
X40773941Y23745217D01*
X40632900Y23686796D01*
X40505966Y23601982D01*
X40398018Y23494034D01*
X40313204Y23367100D01*
X40254783Y23226059D01*
X40225000Y23076331D01*
X40225000Y22923669D01*
X40242333Y22836529D01*
X40167100Y22886798D01*
X40026059Y22945219D01*
X39876331Y22975002D01*
X39723669Y22975002D01*
X39573941Y22945219D01*
X39432900Y22886798D01*
X39305966Y22801984D01*
X39198018Y22694036D01*
X39113204Y22567102D01*
X39054783Y22426061D01*
X39025000Y22276333D01*
X29278085Y22276333D01*
X29367100Y22313204D01*
X29494034Y22398018D01*
X29601982Y22505966D01*
X29686796Y22632900D01*
X29745217Y22773941D01*
X29775000Y22923669D01*
X29775000Y23076331D01*
X29745217Y23226059D01*
X29686796Y23367100D01*
X29601982Y23494034D01*
X29494034Y23601982D01*
X29367100Y23686796D01*
X29226059Y23745217D01*
X29076331Y23775000D01*
X28923669Y23775000D01*
X28773941Y23745217D01*
X28632900Y23686796D01*
X28505966Y23601982D01*
X28403984Y23500000D01*
X22224577Y23500000D01*
X22200019Y23502419D01*
X22175461Y23500000D01*
X22175460Y23500000D01*
X22102003Y23492765D01*
X22007753Y23464175D01*
X21920891Y23417746D01*
X21844756Y23355264D01*
X21829095Y23336181D01*
X16174045Y17681131D01*
X16145217Y17826059D01*
X16086796Y17967100D01*
X16001982Y18094034D01*
X15894034Y18201982D01*
X15767100Y18286796D01*
X15626059Y18345217D01*
X15476331Y18375000D01*
X15323669Y18375000D01*
X15173941Y18345217D01*
X15032900Y18286796D01*
X14905966Y18201982D01*
X14798018Y18094034D01*
X14713204Y17967100D01*
X14654783Y17826059D01*
X14625000Y17676331D01*
X14625000Y17523669D01*
X14654783Y17373941D01*
X14713204Y17232900D01*
X14798018Y17105966D01*
X14905966Y16998018D01*
X15032900Y16913204D01*
X15173941Y16854783D01*
X15318869Y16825955D01*
X12994465Y14501551D01*
X12894034Y14601982D01*
X12767100Y14686796D01*
X12626059Y14745217D01*
X12476331Y14775000D01*
X12323669Y14775000D01*
X12173941Y14745217D01*
X12032900Y14686796D01*
X11905966Y14601982D01*
X11798018Y14494034D01*
X11713204Y14367100D01*
X11654783Y14226059D01*
X11625000Y14076331D01*
X10419685Y14076331D01*
X10394034Y14101982D01*
X10267100Y14186796D01*
X10126059Y14245217D01*
X9976331Y14275000D01*
X9823669Y14275000D01*
X9673941Y14245217D01*
X9532900Y14186796D01*
X9405966Y14101982D01*
X9298018Y13994034D01*
X9213204Y13867100D01*
X9154783Y13726059D01*
X9125000Y13576331D01*
X7810434Y13576331D01*
X11499672Y17265569D01*
X11513204Y17232900D01*
X11598018Y17105966D01*
X11653984Y17050000D01*
X11598018Y16994034D01*
X11513204Y16867100D01*
X11454783Y16726059D01*
X11425000Y16576331D01*
X11425000Y16423669D01*
X11454783Y16273941D01*
X11513204Y16132900D01*
X11598018Y16005966D01*
X11705966Y15898018D01*
X11832900Y15813204D01*
X11973941Y15754783D01*
X12123669Y15725000D01*
X12276331Y15725000D01*
X12426059Y15754783D01*
X12567100Y15813204D01*
X12694034Y15898018D01*
X12801982Y16005966D01*
X12886796Y16132900D01*
X12945217Y16273941D01*
X12975000Y16423669D01*
X12975000Y16576331D01*
X12945217Y16726059D01*
X12886796Y16867100D01*
X12801982Y16994034D01*
X12746016Y17050000D01*
X12801982Y17105966D01*
X12886796Y17232900D01*
X12945217Y17373941D01*
X12975000Y17523669D01*
X12975000Y17676331D01*
X12945217Y17826059D01*
X12886796Y17967100D01*
X12801982Y18094034D01*
X12694034Y18201982D01*
X12567100Y18286796D01*
X12534432Y18300328D01*
X18960435Y24726331D01*
X44625000Y24726331D01*
X44625000Y24573669D01*
X44654783Y24423941D01*
X44713204Y24282900D01*
X44798018Y24155966D01*
X44905966Y24048018D01*
X45032900Y23963204D01*
X45173941Y23904783D01*
X45247635Y23890124D01*
X45225000Y23776331D01*
X45225000Y23623669D01*
X45254783Y23473941D01*
X45313204Y23332900D01*
X45398018Y23205966D01*
X45502989Y23100995D01*
X45473941Y23095217D01*
X45332900Y23036796D01*
X45205966Y22951982D01*
X45098018Y22844034D01*
X45013204Y22717100D01*
X44954783Y22576059D01*
X44925000Y22426331D01*
X44925000Y22273669D01*
X44954783Y22123941D01*
X45013204Y21982900D01*
X45098018Y21855966D01*
X45205966Y21748018D01*
X45332900Y21663204D01*
X45473941Y21604783D01*
X45623669Y21575000D01*
X45776331Y21575000D01*
X45926059Y21604783D01*
X46067100Y21663204D01*
X46194034Y21748018D01*
X46301982Y21855966D01*
X46386796Y21982900D01*
X46445217Y22123941D01*
X46475000Y22273669D01*
X46475000Y22426331D01*
X46445217Y22576059D01*
X46386796Y22717100D01*
X46301982Y22844034D01*
X46197011Y22949005D01*
X46226059Y22954783D01*
X46367100Y23013204D01*
X46494034Y23098018D01*
X46601982Y23205966D01*
X46686796Y23332900D01*
X46745217Y23473941D01*
X46775000Y23623669D01*
X46775000Y23776331D01*
X46745217Y23926059D01*
X46686796Y24067100D01*
X46601982Y24194034D01*
X46494034Y24301982D01*
X46367100Y24386796D01*
X46226059Y24445217D01*
X46152365Y24459876D01*
X46175000Y24573669D01*
X46175000Y24726331D01*
X46145217Y24876059D01*
X46086796Y25017100D01*
X46001982Y25144034D01*
X45894034Y25251982D01*
X45767100Y25336796D01*
X45626059Y25395217D01*
X45476331Y25425000D01*
X45323669Y25425000D01*
X45173941Y25395217D01*
X45032900Y25336796D01*
X44905966Y25251982D01*
X44798018Y25144034D01*
X44713204Y25017100D01*
X44654783Y24876059D01*
X44625000Y24726331D01*
X18960435Y24726331D01*
X19834105Y25600000D01*
X34903976Y25600000D01*
X35005958Y25498018D01*
X35132892Y25413204D01*
X35273933Y25354783D01*
X35423661Y25325000D01*
X35576323Y25325000D01*
X35726051Y25354783D01*
X35867092Y25413204D01*
X35994026Y25498018D01*
X36101974Y25605966D01*
X36186788Y25732900D01*
X36245209Y25873941D01*
X36274992Y26023669D01*
X36274992Y26176331D01*
X36256850Y26267537D01*
X36367100Y26313204D01*
X36494034Y26398018D01*
X36601982Y26505966D01*
X36686796Y26632900D01*
X36745217Y26773941D01*
X36775000Y26923669D01*
X36775000Y27076331D01*
X36745217Y27226059D01*
X36686796Y27367100D01*
X36601982Y27494034D01*
X36494034Y27601982D01*
X36367100Y27686796D01*
X36226059Y27745217D01*
X36076331Y27775000D01*
X35923669Y27775000D01*
X35773941Y27745217D01*
X35632900Y27686796D01*
X35505966Y27601982D01*
X35398018Y27494034D01*
X35313204Y27367100D01*
X35254783Y27226059D01*
X35225000Y27076331D01*
X35225000Y26923669D01*
X35243142Y26832463D01*
X35132892Y26786796D01*
X35005958Y26701982D01*
X34903976Y26600000D01*
X19651558Y26600000D01*
X19626998Y26602419D01*
X19602438Y26600000D01*
X19528981Y26592765D01*
X19434731Y26564175D01*
X19347869Y26517746D01*
X19271734Y26455264D01*
X19256078Y26436187D01*
X6463820Y13643927D01*
X6444737Y13628266D01*
X6382255Y13552131D01*
X6354390Y13500000D01*
X6335826Y13465269D01*
X6307235Y13371019D01*
X6297581Y13273002D01*
X6300001Y13248432D01*
X6300000Y9807107D01*
X4977575Y8484681D01*
X4897319Y8517924D01*
X4660652Y8565000D01*
X4419348Y8565000D01*
X4182681Y8517924D01*
X3959745Y8425581D01*
X3759108Y8291519D01*
X3588481Y8120892D01*
X3454419Y7920255D01*
X3362076Y7697319D01*
X3315000Y7460652D01*
X3225000Y7460652D01*
X3177924Y7697319D01*
X3085581Y7920255D01*
X2951519Y8120892D01*
X2780892Y8291519D01*
X2580255Y8425581D01*
X2357319Y8517924D01*
X2120652Y8565000D01*
X1879348Y8565000D01*
X1642681Y8517924D01*
X1419745Y8425581D01*
X1219108Y8291519D01*
X1048481Y8120892D01*
X914419Y7920255D01*
X822076Y7697319D01*
X775000Y7460652D01*
X400000Y7460652D01*
X400000Y10000652D01*
X775000Y10000652D01*
X775000Y9759348D01*
X822076Y9522681D01*
X914419Y9299745D01*
X1048481Y9099108D01*
X1219108Y8928481D01*
X1419745Y8794419D01*
X1642681Y8702076D01*
X1879348Y8655000D01*
X2120652Y8655000D01*
X2357319Y8702076D01*
X2580255Y8794419D01*
X2780892Y8928481D01*
X2951519Y9099108D01*
X3085581Y9299745D01*
X3177924Y9522681D01*
X3225000Y9759348D01*
X3225000Y10000652D01*
X3315000Y10000652D01*
X3315000Y9759348D01*
X3362076Y9522681D01*
X3454419Y9299745D01*
X3588481Y9099108D01*
X3759108Y8928481D01*
X3959745Y8794419D01*
X4182681Y8702076D01*
X4419348Y8655000D01*
X4660652Y8655000D01*
X4897319Y8702076D01*
X5120255Y8794419D01*
X5320892Y8928481D01*
X5491519Y9099108D01*
X5625581Y9299745D01*
X5717924Y9522681D01*
X5765000Y9759348D01*
X5765000Y10000652D01*
X5717924Y10237319D01*
X5625581Y10460255D01*
X5491519Y10660892D01*
X5320892Y10831519D01*
X5120255Y10965581D01*
X4897319Y11057924D01*
X4660652Y11105000D01*
X4419348Y11105000D01*
X4182681Y11057924D01*
X3959745Y10965581D01*
X3759108Y10831519D01*
X3588481Y10660892D01*
X3454419Y10460255D01*
X3362076Y10237319D01*
X3315000Y10000652D01*
X3225000Y10000652D01*
X3177924Y10237319D01*
X3085581Y10460255D01*
X2951519Y10660892D01*
X2780892Y10831519D01*
X2580255Y10965581D01*
X2357319Y11057924D01*
X2120652Y11105000D01*
X1879348Y11105000D01*
X1642681Y11057924D01*
X1419745Y10965581D01*
X1219108Y10831519D01*
X1048481Y10660892D01*
X914419Y10460255D01*
X822076Y10237319D01*
X775000Y10000652D01*
X400000Y10000652D01*
X400000Y15080652D01*
X775000Y15080652D01*
X775000Y14839348D01*
X822076Y14602681D01*
X914419Y14379745D01*
X1048481Y14179108D01*
X1219108Y14008481D01*
X1419745Y13874419D01*
X1642681Y13782076D01*
X1879348Y13735000D01*
X2120652Y13735000D01*
X2357319Y13782076D01*
X2580255Y13874419D01*
X2780892Y14008481D01*
X2800001Y14027590D01*
X2800001Y13352410D01*
X2780892Y13371519D01*
X2580255Y13505581D01*
X2357319Y13597924D01*
X2120652Y13645000D01*
X1879348Y13645000D01*
X1642681Y13597924D01*
X1419745Y13505581D01*
X1219108Y13371519D01*
X1048481Y13200892D01*
X914419Y13000255D01*
X822076Y12777319D01*
X775000Y12540652D01*
X775000Y12299348D01*
X822076Y12062681D01*
X914419Y11839745D01*
X1048481Y11639108D01*
X1219108Y11468481D01*
X1419745Y11334419D01*
X1642681Y11242076D01*
X1879348Y11195000D01*
X2120652Y11195000D01*
X2357319Y11242076D01*
X2580255Y11334419D01*
X2780892Y11468481D01*
X2951519Y11639108D01*
X3085581Y11839745D01*
X3177924Y12062681D01*
X3225000Y12299348D01*
X3225000Y12540652D01*
X3193405Y12699489D01*
X3321179Y12571716D01*
X3315000Y12540652D01*
X3315000Y12299348D01*
X3362076Y12062681D01*
X3454419Y11839745D01*
X3588481Y11639108D01*
X3759108Y11468481D01*
X3959745Y11334419D01*
X4182681Y11242076D01*
X4419348Y11195000D01*
X4660652Y11195000D01*
X4897319Y11242076D01*
X5120255Y11334419D01*
X5320892Y11468481D01*
X5491519Y11639108D01*
X5625581Y11839745D01*
X5717924Y12062681D01*
X5765000Y12299348D01*
X5765000Y12540652D01*
X5717924Y12777319D01*
X5625581Y13000255D01*
X5491519Y13200892D01*
X5320892Y13371519D01*
X5120255Y13505581D01*
X4897319Y13597924D01*
X4660652Y13645000D01*
X4419348Y13645000D01*
X4182681Y13597924D01*
X3959745Y13505581D01*
X3864899Y13442206D01*
X3800000Y13507105D01*
X3800000Y13981158D01*
X3959745Y13874419D01*
X4182681Y13782076D01*
X4419348Y13735000D01*
X4660652Y13735000D01*
X4897319Y13782076D01*
X5120255Y13874419D01*
X5320892Y14008481D01*
X5491519Y14179108D01*
X5625581Y14379745D01*
X5658824Y14460000D01*
X5717521Y14460000D01*
X5742081Y14457581D01*
X5766641Y14460000D01*
X5840098Y14467235D01*
X5934348Y14495825D01*
X6021210Y14542254D01*
X6097345Y14604736D01*
X6113010Y14623824D01*
X7711193Y16222006D01*
X7730276Y16237667D01*
X7792758Y16313802D01*
X7839187Y16400664D01*
X7867777Y16494914D01*
X7875012Y16568371D01*
X7875012Y16568372D01*
X7877431Y16592930D01*
X7875012Y16617488D01*
X7875012Y17587907D01*
X12136188Y21849081D01*
X12155265Y21864737D01*
X12217747Y21940872D01*
X12264176Y22027734D01*
X12292766Y22121985D01*
X12300001Y22195442D01*
X12300001Y22195450D01*
X12302419Y22220000D01*
X12301435Y22229993D01*
X12426059Y22254783D01*
X12567100Y22313204D01*
X12694034Y22398018D01*
X12801982Y22505966D01*
X12886796Y22632900D01*
X12945217Y22773941D01*
X12975000Y22923669D01*
X12975000Y23076331D01*
X12945217Y23226059D01*
X12886796Y23367100D01*
X12801982Y23494034D01*
X12696016Y23600000D01*
X12801982Y23705966D01*
X12886796Y23832900D01*
X12945217Y23973941D01*
X12975000Y24123669D01*
X12975000Y24276331D01*
X12945217Y24426059D01*
X12886796Y24567100D01*
X12801982Y24694034D01*
X12694034Y24801982D01*
X12567100Y24886796D01*
X12426059Y24945217D01*
X12276331Y24975000D01*
X12123669Y24975000D01*
X11973941Y24945217D01*
X11832900Y24886796D01*
X11705966Y24801982D01*
X11598018Y24694034D01*
X11513204Y24567100D01*
X11454783Y24426059D01*
X11425000Y24276331D01*
X11425000Y24132106D01*
X10863824Y23570929D01*
X10844736Y23555264D01*
X10782254Y23479129D01*
X10735825Y23392266D01*
X10717817Y23332900D01*
X10707235Y23298017D01*
X10697581Y23200000D01*
X10700000Y23175439D01*
X10700001Y22628106D01*
X6727596Y18655699D01*
X6701982Y18694034D01*
X6596016Y18800000D01*
X6701982Y18905966D01*
X6786796Y19032900D01*
X6845217Y19173941D01*
X6875000Y19323669D01*
X6875000Y19476331D01*
X6845217Y19626059D01*
X6786796Y19767100D01*
X6701982Y19894034D01*
X6594034Y20001982D01*
X6522169Y20050000D01*
X6594034Y20098018D01*
X6701982Y20205966D01*
X6786796Y20332900D01*
X6845217Y20473941D01*
X6875000Y20623669D01*
X6875000Y20776331D01*
X6845217Y20926059D01*
X6786796Y21067100D01*
X6701982Y21194034D01*
X6594034Y21301982D01*
X6467100Y21386796D01*
X6326059Y21445217D01*
X6176331Y21475000D01*
X6023669Y21475000D01*
X5873941Y21445217D01*
X5732900Y21386796D01*
X5605966Y21301982D01*
X5498018Y21194034D01*
X5413204Y21067100D01*
X5354783Y20926059D01*
X5325000Y20776331D01*
X5325000Y20623669D01*
X5354783Y20473941D01*
X5413204Y20332900D01*
X5498018Y20205966D01*
X5605966Y20098018D01*
X5677831Y20050000D01*
X5605966Y20001982D01*
X5498018Y19894034D01*
X5413204Y19767100D01*
X5354783Y19626059D01*
X5325000Y19476331D01*
X5325000Y19323669D01*
X5354783Y19173941D01*
X5413204Y19032900D01*
X5498018Y18905966D01*
X5603984Y18800000D01*
X5498018Y18694034D01*
X5413204Y18567100D01*
X5354783Y18426059D01*
X5353384Y18419027D01*
X5320892Y18451519D01*
X5120255Y18585581D01*
X4897319Y18677924D01*
X4660652Y18725000D01*
X4419348Y18725000D01*
X4182681Y18677924D01*
X3959745Y18585581D01*
X3759108Y18451519D01*
X3588481Y18280892D01*
X3454419Y18080255D01*
X3362076Y17857319D01*
X3315000Y17620652D01*
X3315000Y17379348D01*
X3362076Y17142681D01*
X3454419Y16919745D01*
X3588481Y16719108D01*
X3722309Y16585280D01*
X3685734Y16555264D01*
X3670078Y16536187D01*
X2963824Y15829931D01*
X2944736Y15814266D01*
X2914720Y15777691D01*
X2780892Y15911519D01*
X2580255Y16045581D01*
X2357319Y16137924D01*
X2120652Y16185000D01*
X1879348Y16185000D01*
X1642681Y16137924D01*
X1419745Y16045581D01*
X1219108Y15911519D01*
X1048481Y15740892D01*
X914419Y15540255D01*
X822076Y15317319D01*
X775000Y15080652D01*
X400000Y15080652D01*
X400000Y18350000D01*
X773186Y18350000D01*
X773186Y16650000D01*
X780426Y16576487D01*
X801869Y16505800D01*
X836691Y16440653D01*
X883552Y16383552D01*
X940653Y16336691D01*
X1005800Y16301869D01*
X1076487Y16280426D01*
X1150000Y16273186D01*
X2850000Y16273186D01*
X2923513Y16280426D01*
X2994200Y16301869D01*
X3059347Y16336691D01*
X3116448Y16383552D01*
X3163309Y16440653D01*
X3198131Y16505800D01*
X3219574Y16576487D01*
X3226814Y16650000D01*
X3226814Y18350000D01*
X3219574Y18423513D01*
X3198131Y18494200D01*
X3163309Y18559347D01*
X3116448Y18616448D01*
X3059347Y18663309D01*
X2994200Y18698131D01*
X2923513Y18719574D01*
X2850000Y18726814D01*
X1150000Y18726814D01*
X1076487Y18719574D01*
X1005800Y18698131D01*
X940653Y18663309D01*
X883552Y18616448D01*
X836691Y18559347D01*
X801869Y18494200D01*
X780426Y18423513D01*
X773186Y18350000D01*
X400000Y18350000D01*
X400000Y28453615D01*
X425000Y28453615D01*
X425000Y27946385D01*
X523956Y27448900D01*
X718065Y26980280D01*
X999867Y26558533D01*
X1358533Y26199867D01*
X1780280Y25918065D01*
X2248900Y25723956D01*
X2746385Y25625000D01*
X3253615Y25625000D01*
X3751100Y25723956D01*
X4219720Y25918065D01*
X4641467Y26199867D01*
X5000133Y26558533D01*
X5281935Y26980280D01*
X5358468Y27165046D01*
X5413204Y27032900D01*
X5468596Y26950000D01*
X5413204Y26867100D01*
X5354783Y26726059D01*
X5325000Y26576331D01*
X5325000Y26423669D01*
X5354783Y26273941D01*
X5413204Y26132900D01*
X5498018Y26005966D01*
X5603984Y25900000D01*
X5498018Y25794034D01*
X5413204Y25667100D01*
X5354783Y25526059D01*
X5325000Y25376331D01*
X5325000Y25223669D01*
X5354783Y25073941D01*
X5413204Y24932900D01*
X5498018Y24805966D01*
X5605966Y24698018D01*
X5732900Y24613204D01*
X5873941Y24554783D01*
X6023669Y24525000D01*
X6176331Y24525000D01*
X6326059Y24554783D01*
X6467100Y24613204D01*
X6594034Y24698018D01*
X6701982Y24805966D01*
X6786796Y24932900D01*
X6845217Y25073941D01*
X6875000Y25223669D01*
X6875000Y25376331D01*
X6845217Y25526059D01*
X6786796Y25667100D01*
X6701982Y25794034D01*
X6596016Y25900000D01*
X6701982Y26005966D01*
X6786796Y26132900D01*
X6845217Y26273941D01*
X6875000Y26423669D01*
X6875000Y26576331D01*
X6845217Y26726059D01*
X6786796Y26867100D01*
X6731404Y26950000D01*
X6786796Y27032900D01*
X6804785Y27076331D01*
X10125000Y27076331D01*
X10125000Y26923669D01*
X10154783Y26773941D01*
X10213204Y26632900D01*
X10298018Y26505966D01*
X10405966Y26398018D01*
X10532900Y26313204D01*
X10673941Y26254783D01*
X10823669Y26225000D01*
X10976331Y26225000D01*
X11126059Y26254783D01*
X11267100Y26313204D01*
X11394034Y26398018D01*
X11501982Y26505966D01*
X11586796Y26632900D01*
X11645217Y26773941D01*
X11675000Y26923669D01*
X11675000Y27076331D01*
X11645217Y27226059D01*
X11586796Y27367100D01*
X11501982Y27494034D01*
X11394034Y27601982D01*
X11267100Y27686796D01*
X11126059Y27745217D01*
X10976331Y27775000D01*
X10823669Y27775000D01*
X10673941Y27745217D01*
X10532900Y27686796D01*
X10405966Y27601982D01*
X10298018Y27494034D01*
X10213204Y27367100D01*
X10154783Y27226059D01*
X10125000Y27076331D01*
X6804785Y27076331D01*
X6845217Y27173941D01*
X6875000Y27323669D01*
X6875000Y27476331D01*
X6845217Y27626059D01*
X6786796Y27767100D01*
X6701982Y27894034D01*
X6594034Y28001982D01*
X6467100Y28086796D01*
X6326059Y28145217D01*
X6176331Y28175000D01*
X6023669Y28175000D01*
X5873941Y28145217D01*
X5732900Y28086796D01*
X5605966Y28001982D01*
X5575000Y27971016D01*
X5575000Y28453615D01*
X5476044Y28951100D01*
X5341329Y29276331D01*
X11125000Y29276331D01*
X11125000Y29123669D01*
X11154783Y28973941D01*
X11213204Y28832900D01*
X11268596Y28750000D01*
X11213204Y28667100D01*
X11154783Y28526059D01*
X11125000Y28376331D01*
X11125000Y28223669D01*
X11154783Y28073941D01*
X11213204Y27932900D01*
X11298018Y27805966D01*
X11405966Y27698018D01*
X11532900Y27613204D01*
X11673941Y27554783D01*
X11823669Y27525000D01*
X11976331Y27525000D01*
X12126059Y27554783D01*
X12267100Y27613204D01*
X12394034Y27698018D01*
X12501982Y27805966D01*
X12586796Y27932900D01*
X12645217Y28073941D01*
X12675000Y28223669D01*
X12675000Y28376331D01*
X12659628Y28453615D01*
X41625000Y28453615D01*
X41625000Y27946385D01*
X41723956Y27448900D01*
X41918065Y26980280D01*
X42199867Y26558533D01*
X42558533Y26199867D01*
X42980280Y25918065D01*
X43448900Y25723956D01*
X43946385Y25625000D01*
X44453615Y25625000D01*
X44951100Y25723956D01*
X45419720Y25918065D01*
X45841467Y26199867D01*
X46200133Y26558533D01*
X46481935Y26980280D01*
X46676044Y27448900D01*
X46775000Y27946385D01*
X46775000Y28453615D01*
X46676044Y28951100D01*
X46481935Y29419720D01*
X46200133Y29841467D01*
X45841467Y30200133D01*
X45419720Y30481935D01*
X44951100Y30676044D01*
X44453615Y30775000D01*
X43946385Y30775000D01*
X43448900Y30676044D01*
X42980280Y30481935D01*
X42558533Y30200133D01*
X42199867Y29841467D01*
X41918065Y29419720D01*
X41723956Y28951100D01*
X41625000Y28453615D01*
X12659628Y28453615D01*
X12645217Y28526059D01*
X12586796Y28667100D01*
X12531404Y28750000D01*
X12586796Y28832900D01*
X12645217Y28973941D01*
X12675000Y29123669D01*
X12675000Y29276331D01*
X12645217Y29426059D01*
X12586796Y29567100D01*
X12501982Y29694034D01*
X12394034Y29801982D01*
X12267100Y29886796D01*
X12126059Y29945217D01*
X11976331Y29975000D01*
X11823669Y29975000D01*
X11673941Y29945217D01*
X11532900Y29886796D01*
X11405966Y29801982D01*
X11298018Y29694034D01*
X11213204Y29567100D01*
X11154783Y29426059D01*
X11125000Y29276331D01*
X5341329Y29276331D01*
X5281935Y29419720D01*
X5000133Y29841467D01*
X4641467Y30200133D01*
X4219720Y30481935D01*
X3751100Y30676044D01*
X3253615Y30775000D01*
X2746385Y30775000D01*
X2248900Y30676044D01*
X1780280Y30481935D01*
X1358533Y30200133D01*
X999867Y29841467D01*
X718065Y29419720D01*
X523956Y28951100D01*
X425000Y28453615D01*
X400000Y28453615D01*
X400000Y30180435D01*
X413309Y30316167D01*
X447047Y30427913D01*
X501843Y30530971D01*
X575620Y30621430D01*
X665556Y30695832D01*
X768236Y30751350D01*
X879735Y30785865D01*
X1014214Y30800000D01*
X17135187Y30800000D01*
X17113204Y30767100D01*
G04 #@! TA.AperFunction,Conductor*
D18*
G36*
X17113204Y30767100D02*
G01*
X17054783Y30626059D01*
X17025000Y30476331D01*
X17025000Y30323669D01*
X17054783Y30173941D01*
X17113204Y30032900D01*
X17198018Y29905966D01*
X17305966Y29798018D01*
X17432900Y29713204D01*
X17573941Y29654783D01*
X17723669Y29625000D01*
X17876331Y29625000D01*
X18026059Y29654783D01*
X18167100Y29713204D01*
X18294034Y29798018D01*
X18401982Y29905966D01*
X18486796Y30032900D01*
X18545217Y30173941D01*
X18575000Y30323669D01*
X18575000Y30476331D01*
X18545217Y30626059D01*
X18486796Y30767100D01*
X18464813Y30800000D01*
X18835187Y30800000D01*
X18813204Y30767100D01*
X18754783Y30626059D01*
X18725000Y30476331D01*
X18725000Y30323669D01*
X18754783Y30173941D01*
X18813204Y30032900D01*
X18898018Y29905966D01*
X19005966Y29798018D01*
X19132900Y29713204D01*
X19273941Y29654783D01*
X19423669Y29625000D01*
X19576331Y29625000D01*
X19726059Y29654783D01*
X19867100Y29713204D01*
X19994034Y29798018D01*
X20101982Y29905966D01*
X20186796Y30032900D01*
X20245217Y30173941D01*
X20275000Y30323669D01*
X20275000Y30476331D01*
X20245217Y30626059D01*
X20186796Y30767100D01*
X20164813Y30800000D01*
X20535187Y30800000D01*
X20513204Y30767100D01*
X20454783Y30626059D01*
X20425000Y30476331D01*
X20425000Y30323669D01*
X20454783Y30173941D01*
X20513204Y30032900D01*
X20598018Y29905966D01*
X20705966Y29798018D01*
X20832900Y29713204D01*
X20973941Y29654783D01*
X21123669Y29625000D01*
X21276331Y29625000D01*
X21426059Y29654783D01*
X21567100Y29713204D01*
X21694034Y29798018D01*
X21801982Y29905966D01*
X21886796Y30032900D01*
X21945217Y30173941D01*
X21975000Y30323669D01*
X21975000Y30476331D01*
X21945217Y30626059D01*
X21886796Y30767100D01*
X21864813Y30800000D01*
X46180435Y30800000D01*
X46316167Y30786691D01*
X46427913Y30752953D01*
X46530971Y30698157D01*
X46621430Y30624380D01*
X46695832Y30534444D01*
X46751350Y30431764D01*
X46785865Y30320265D01*
X46800001Y30185776D01*
X46800001Y20796015D01*
X46794034Y20801982D01*
X46667100Y20886796D01*
X46526059Y20945217D01*
X46376331Y20975000D01*
X46223669Y20975000D01*
X46073941Y20945217D01*
X45932900Y20886796D01*
X45805966Y20801982D01*
X45700000Y20696016D01*
X45594034Y20801982D01*
X45467100Y20886796D01*
X45326059Y20945217D01*
X45176331Y20975000D01*
X45023669Y20975000D01*
X44873941Y20945217D01*
X44732900Y20886796D01*
X44605966Y20801982D01*
X44498018Y20694034D01*
X44413204Y20567100D01*
X44354783Y20426059D01*
X44325000Y20276331D01*
X44325000Y20123669D01*
X44354783Y19973941D01*
X44413204Y19832900D01*
X44498018Y19705966D01*
X44553984Y19650000D01*
X44498018Y19594034D01*
X44413204Y19467100D01*
X44354783Y19326059D01*
X44325000Y19176331D01*
X44325000Y19023669D01*
X44354783Y18873941D01*
X44413204Y18732900D01*
X44498018Y18605966D01*
X44605966Y18498018D01*
X44732900Y18413204D01*
X44793935Y18387923D01*
X44713204Y18267100D01*
X44654783Y18126059D01*
X44625000Y17976331D01*
X44625000Y17823669D01*
X44654783Y17673941D01*
X44713204Y17532900D01*
X44798018Y17405966D01*
X44905966Y17298018D01*
X45032900Y17213204D01*
X45173941Y17154783D01*
X45238068Y17142027D01*
X45225000Y17076331D01*
X45225000Y16923669D01*
X45254783Y16773941D01*
X45313204Y16632900D01*
X45398018Y16505966D01*
X45505966Y16398018D01*
X45632900Y16313204D01*
X45773941Y16254783D01*
X45923669Y16225000D01*
X46076331Y16225000D01*
X46226059Y16254783D01*
X46367100Y16313204D01*
X46494034Y16398018D01*
X46601982Y16505966D01*
X46686796Y16632900D01*
X46745217Y16773941D01*
X46775000Y16923669D01*
X46775000Y17076331D01*
X46745217Y17226059D01*
X46686796Y17367100D01*
X46601982Y17494034D01*
X46494034Y17601982D01*
X46367100Y17686796D01*
X46226059Y17745217D01*
X46161932Y17757973D01*
X46175000Y17823669D01*
X46175000Y17976331D01*
X46145217Y18126059D01*
X46086796Y18267100D01*
X46010708Y18380975D01*
X46073941Y18354783D01*
X46223669Y18325000D01*
X46376331Y18325000D01*
X46526059Y18354783D01*
X46667100Y18413204D01*
X46794034Y18498018D01*
X46800001Y18503985D01*
X46800000Y12888829D01*
X46782356Y12977534D01*
X46669283Y13250517D01*
X46505126Y13496194D01*
X46296194Y13705126D01*
X46050517Y13869283D01*
X45777534Y13982356D01*
X45487737Y14040000D01*
X45192263Y14040000D01*
X44902466Y13982356D01*
X44629483Y13869283D01*
X44383806Y13705126D01*
X44174874Y13496194D01*
X44010717Y13250517D01*
X43897644Y12977534D01*
X43840000Y12687737D01*
X43840000Y12392263D01*
X43897644Y12102466D01*
X44010717Y11829483D01*
X44174874Y11583806D01*
X44383806Y11374874D01*
X44629483Y11210717D01*
X44902466Y11097644D01*
X45192263Y11040000D01*
X45487737Y11040000D01*
X45777534Y11097644D01*
X46050517Y11210717D01*
X46296194Y11374874D01*
X46505126Y11583806D01*
X46669283Y11829483D01*
X46782356Y12102466D01*
X46800000Y12191171D01*
X46800000Y7808830D01*
X46782356Y7897534D01*
X46669283Y8170517D01*
X46505126Y8416194D01*
X46296194Y8625126D01*
X46050517Y8789283D01*
X45777534Y8902356D01*
X45487737Y8960000D01*
X45192263Y8960000D01*
X44902466Y8902356D01*
X44629483Y8789283D01*
X44383806Y8625126D01*
X44174874Y8416194D01*
X44010717Y8170517D01*
X43897644Y7897534D01*
X43840000Y7607737D01*
X43840000Y7312263D01*
X43897644Y7022466D01*
X44010717Y6749483D01*
X44174874Y6503806D01*
X44383806Y6294874D01*
X44629483Y6130717D01*
X44902466Y6017644D01*
X45192263Y5960000D01*
X45487737Y5960000D01*
X45777534Y6017644D01*
X46050517Y6130717D01*
X46296194Y6294874D01*
X46505126Y6503806D01*
X46669283Y6749483D01*
X46782356Y7022466D01*
X46800000Y7111170D01*
X46800000Y1019564D01*
X46786691Y883833D01*
X46752953Y772088D01*
X46698156Y669028D01*
X46624380Y578570D01*
X46534444Y504168D01*
X46431764Y448650D01*
X46320265Y414135D01*
X46185785Y400000D01*
X1019564Y400000D01*
X883833Y413309D01*
X772088Y447047D01*
X669028Y501844D01*
X578570Y575620D01*
X504168Y665556D01*
X448650Y768236D01*
X414135Y879735D01*
X400000Y1014215D01*
X400000Y3253615D01*
X7075000Y3253615D01*
X7075000Y2746385D01*
X7173956Y2248900D01*
X7368065Y1780280D01*
X7649867Y1358533D01*
X8008533Y999867D01*
X8430280Y718065D01*
X8898900Y523956D01*
X9396385Y425000D01*
X9903615Y425000D01*
X10401100Y523956D01*
X10869720Y718065D01*
X11291467Y999867D01*
X11650133Y1358533D01*
X11931935Y1780280D01*
X12126044Y2248900D01*
X12225000Y2746385D01*
X12225000Y3253615D01*
X41625000Y3253615D01*
X41625000Y2746385D01*
X41723956Y2248900D01*
X41918065Y1780280D01*
X42199867Y1358533D01*
X42558533Y999867D01*
X42980280Y718065D01*
X43448900Y523956D01*
X43946385Y425000D01*
X44453615Y425000D01*
X44951100Y523956D01*
X45419720Y718065D01*
X45841467Y999867D01*
X46200133Y1358533D01*
X46481935Y1780280D01*
X46676044Y2248900D01*
X46775000Y2746385D01*
X46775000Y3253615D01*
X46676044Y3751100D01*
X46481935Y4219720D01*
X46200133Y4641467D01*
X45841467Y5000133D01*
X45419720Y5281935D01*
X44951100Y5476044D01*
X44453615Y5575000D01*
X43946385Y5575000D01*
X43448900Y5476044D01*
X42980280Y5281935D01*
X42558533Y5000133D01*
X42199867Y4641467D01*
X41918065Y4219720D01*
X41723956Y3751100D01*
X41625000Y3253615D01*
X12225000Y3253615D01*
X12126044Y3751100D01*
X11931935Y4219720D01*
X11650133Y4641467D01*
X11291467Y5000133D01*
X10869720Y5281935D01*
X10401100Y5476044D01*
X9903615Y5575000D01*
X9396385Y5575000D01*
X8898900Y5476044D01*
X8430280Y5281935D01*
X8008533Y5000133D01*
X7649867Y4641467D01*
X7368065Y4219720D01*
X7173956Y3751100D01*
X7075000Y3253615D01*
X400000Y3253615D01*
X400000Y4920652D01*
X775000Y4920652D01*
X775000Y4679348D01*
X822076Y4442681D01*
X914419Y4219745D01*
X1048481Y4019108D01*
X1219108Y3848481D01*
X1419745Y3714419D01*
X1642681Y3622076D01*
X1879348Y3575000D01*
X2120652Y3575000D01*
X2357319Y3622076D01*
X2580255Y3714419D01*
X2780892Y3848481D01*
X2951519Y4019108D01*
X3085581Y4219745D01*
X3177924Y4442681D01*
X3225000Y4679348D01*
X3225000Y4920652D01*
X3315000Y4920652D01*
X3315000Y4679348D01*
X3362076Y4442681D01*
X3454419Y4219745D01*
X3588481Y4019108D01*
X3759108Y3848481D01*
X3959745Y3714419D01*
X4182681Y3622076D01*
X4419348Y3575000D01*
X4660652Y3575000D01*
X4897319Y3622076D01*
X5120255Y3714419D01*
X5320892Y3848481D01*
X5491519Y4019108D01*
X5625581Y4219745D01*
X5717924Y4442681D01*
X5765000Y4679348D01*
X5765000Y4920652D01*
X5717924Y5157319D01*
X5625581Y5380255D01*
X5491519Y5580892D01*
X5320892Y5751519D01*
X5120255Y5885581D01*
X4897319Y5977924D01*
X4660652Y6025000D01*
X4419348Y6025000D01*
X4182681Y5977924D01*
X3959745Y5885581D01*
X3759108Y5751519D01*
X3588481Y5580892D01*
X3454419Y5380255D01*
X3362076Y5157319D01*
X3315000Y4920652D01*
X3225000Y4920652D01*
X3177924Y5157319D01*
X3085581Y5380255D01*
X2951519Y5580892D01*
X2780892Y5751519D01*
X2580255Y5885581D01*
X2357319Y5977924D01*
X2120652Y6025000D01*
X1879348Y6025000D01*
X1642681Y5977924D01*
X1419745Y5885581D01*
X1219108Y5751519D01*
X1048481Y5580892D01*
X914419Y5380255D01*
X822076Y5157319D01*
X775000Y4920652D01*
X400000Y4920652D01*
X400000Y7460652D01*
X775000Y7460652D01*
X775000Y7219348D01*
X822076Y6982681D01*
X914419Y6759745D01*
X1048481Y6559108D01*
X1219108Y6388481D01*
X1419745Y6254419D01*
X1642681Y6162076D01*
X1879348Y6115000D01*
X2120652Y6115000D01*
X2357319Y6162076D01*
X2580255Y6254419D01*
X2780892Y6388481D01*
X2951519Y6559108D01*
X3085581Y6759745D01*
X3177924Y6982681D01*
X3225000Y7219348D01*
X3225000Y7460652D01*
X3315000Y7460652D01*
X3315000Y7219348D01*
X3362076Y6982681D01*
X3454419Y6759745D01*
X3588481Y6559108D01*
X3759108Y6388481D01*
X3959745Y6254419D01*
X4182681Y6162076D01*
X4419348Y6115000D01*
X4660652Y6115000D01*
X4897319Y6162076D01*
X5120255Y6254419D01*
X5153048Y6276331D01*
X29825000Y6276331D01*
X29825000Y6123669D01*
X29854783Y5973941D01*
X29913204Y5832900D01*
X29998018Y5705966D01*
X30105966Y5598018D01*
X30232900Y5513204D01*
X30373941Y5454783D01*
X30523669Y5425000D01*
X30676331Y5425000D01*
X30826059Y5454783D01*
X30967100Y5513204D01*
X31094034Y5598018D01*
X31201982Y5705966D01*
X31286796Y5832900D01*
X31345217Y5973941D01*
X31375000Y6123669D01*
X31375000Y6276331D01*
X31345217Y6426059D01*
X31286796Y6567100D01*
X31201982Y6694034D01*
X31094034Y6801982D01*
X30967100Y6886796D01*
X30826059Y6945217D01*
X30676331Y6975000D01*
X30523669Y6975000D01*
X30373941Y6945217D01*
X30232900Y6886796D01*
X30105966Y6801982D01*
X29998018Y6694034D01*
X29913204Y6567100D01*
X29854783Y6426059D01*
X29825000Y6276331D01*
X5153048Y6276331D01*
X5320892Y6388481D01*
X5491519Y6559108D01*
X5625581Y6759745D01*
X5717924Y6982681D01*
X5765000Y7219348D01*
X5765000Y7460652D01*
X5717924Y7697319D01*
X5684681Y7777575D01*
X6183437Y8276331D01*
X14625000Y8276331D01*
X14625000Y8123669D01*
X14654783Y7973941D01*
X14713204Y7832900D01*
X14798018Y7705966D01*
X14803984Y7700000D01*
X14798018Y7694034D01*
X14713204Y7567100D01*
X14654783Y7426059D01*
X14625000Y7276331D01*
X14625000Y7123669D01*
X14654783Y6973941D01*
X14713204Y6832900D01*
X14798018Y6705966D01*
X14905966Y6598018D01*
X15032900Y6513204D01*
X15173941Y6454783D01*
X15323669Y6425000D01*
X15476331Y6425000D01*
X15626059Y6454783D01*
X15767100Y6513204D01*
X15894034Y6598018D01*
X16001982Y6705966D01*
X16086796Y6832900D01*
X16145217Y6973941D01*
X16175000Y7123669D01*
X16175000Y7276331D01*
X28225000Y7276331D01*
X28225000Y7123669D01*
X28254783Y6973941D01*
X28313204Y6832900D01*
X28398018Y6705966D01*
X28505966Y6598018D01*
X28632900Y6513204D01*
X28773941Y6454783D01*
X28923669Y6425000D01*
X29076331Y6425000D01*
X29226059Y6454783D01*
X29367100Y6513204D01*
X29494034Y6598018D01*
X29601982Y6705966D01*
X29686796Y6832900D01*
X29745217Y6973941D01*
X29775000Y7123669D01*
X29775000Y7176331D01*
X31625000Y7176331D01*
X31625000Y7023669D01*
X31654783Y6873941D01*
X31713204Y6732900D01*
X31798018Y6605966D01*
X31905966Y6498018D01*
X32032900Y6413204D01*
X32173941Y6354783D01*
X32290431Y6331611D01*
X32233095Y6245802D01*
X32104063Y5934290D01*
X32038282Y5603589D01*
X32038282Y5266411D01*
X32104063Y4935710D01*
X32233095Y4624198D01*
X32420422Y4343844D01*
X32658844Y4105422D01*
X32939198Y3918095D01*
X33250710Y3789063D01*
X33581411Y3723282D01*
X33918589Y3723282D01*
X34249290Y3789063D01*
X34560802Y3918095D01*
X34841156Y4105422D01*
X35079578Y4343844D01*
X35266905Y4624198D01*
X35395937Y4935710D01*
X35461718Y5266411D01*
X35461718Y5603589D01*
X35395937Y5934290D01*
X35266905Y6245802D01*
X35127904Y6453832D01*
X35194034Y6498018D01*
X35301982Y6605966D01*
X35386796Y6732900D01*
X35445217Y6873941D01*
X35475000Y7023669D01*
X35475000Y7176331D01*
X35455109Y7276331D01*
X35625000Y7276331D01*
X35625000Y7123669D01*
X35654783Y6973941D01*
X35713204Y6832900D01*
X35798018Y6705966D01*
X35905966Y6598018D01*
X36032900Y6513204D01*
X36173941Y6454783D01*
X36323669Y6425000D01*
X36476331Y6425000D01*
X36626059Y6454783D01*
X36767100Y6513204D01*
X36894034Y6598018D01*
X37001982Y6705966D01*
X37086796Y6832900D01*
X37122843Y6919924D01*
X37132900Y6913204D01*
X37273941Y6854783D01*
X37423669Y6825000D01*
X37576331Y6825000D01*
X37726059Y6854783D01*
X37867100Y6913204D01*
X37994034Y6998018D01*
X38101982Y7105966D01*
X38186796Y7232900D01*
X38245217Y7373941D01*
X38275000Y7523669D01*
X38275000Y7654572D01*
X38423669Y7625000D01*
X38576331Y7625000D01*
X38726059Y7654783D01*
X38773246Y7674328D01*
X38760000Y7607737D01*
X38760000Y7312263D01*
X38817644Y7022466D01*
X38930717Y6749483D01*
X39094874Y6503806D01*
X39303806Y6294874D01*
X39549483Y6130717D01*
X39822466Y6017644D01*
X40112263Y5960000D01*
X40407737Y5960000D01*
X40697534Y6017644D01*
X40970517Y6130717D01*
X41216194Y6294874D01*
X41425126Y6503806D01*
X41589283Y6749483D01*
X41702356Y7022466D01*
X41760000Y7312263D01*
X41760000Y7607737D01*
X41702356Y7897534D01*
X41589283Y8170517D01*
X41425126Y8416194D01*
X41216194Y8625126D01*
X40970517Y8789283D01*
X40697534Y8902356D01*
X40407737Y8960000D01*
X40112263Y8960000D01*
X39822466Y8902356D01*
X39549483Y8789283D01*
X39303806Y8625126D01*
X39255092Y8576412D01*
X39245217Y8626059D01*
X39186796Y8767100D01*
X39101982Y8894034D01*
X38994034Y9001982D01*
X38867100Y9086796D01*
X38726059Y9145217D01*
X38576331Y9175000D01*
X38423669Y9175000D01*
X38273941Y9145217D01*
X38132900Y9086796D01*
X38005966Y9001982D01*
X37898018Y8894034D01*
X37813204Y8767100D01*
X37754783Y8626059D01*
X37725000Y8476331D01*
X37725000Y8345428D01*
X37576331Y8375000D01*
X37423669Y8375000D01*
X37273941Y8345217D01*
X37132900Y8286796D01*
X37005966Y8201982D01*
X36898018Y8094034D01*
X36813204Y7967100D01*
X36777157Y7880076D01*
X36767100Y7886796D01*
X36626059Y7945217D01*
X36476331Y7975000D01*
X36323669Y7975000D01*
X36173941Y7945217D01*
X36032900Y7886796D01*
X35905966Y7801982D01*
X35798018Y7694034D01*
X35713204Y7567100D01*
X35654783Y7426059D01*
X35625000Y7276331D01*
X35455109Y7276331D01*
X35445217Y7326059D01*
X35386796Y7467100D01*
X35301982Y7594034D01*
X35194034Y7701982D01*
X35067100Y7786796D01*
X34926059Y7845217D01*
X34776331Y7875000D01*
X34623669Y7875000D01*
X34473941Y7845217D01*
X34332900Y7786796D01*
X34205966Y7701982D01*
X34098018Y7594034D01*
X34013204Y7467100D01*
X33954783Y7326059D01*
X33925000Y7176331D01*
X33925000Y7145443D01*
X33918589Y7146718D01*
X33581411Y7146718D01*
X33250710Y7080937D01*
X33175000Y7049577D01*
X33175000Y7176331D01*
X33145217Y7326059D01*
X33086796Y7467100D01*
X33001982Y7594034D01*
X32894034Y7701982D01*
X32767100Y7786796D01*
X32626059Y7845217D01*
X32476331Y7875000D01*
X32323669Y7875000D01*
X32173941Y7845217D01*
X32032900Y7786796D01*
X31905966Y7701982D01*
X31798018Y7594034D01*
X31713204Y7467100D01*
X31654783Y7326059D01*
X31625000Y7176331D01*
X29775000Y7176331D01*
X29775000Y7276331D01*
X29745217Y7426059D01*
X29686796Y7567100D01*
X29601982Y7694034D01*
X29494034Y7801982D01*
X29367100Y7886796D01*
X29226059Y7945217D01*
X29076331Y7975000D01*
X28923669Y7975000D01*
X28773941Y7945217D01*
X28632900Y7886796D01*
X28505966Y7801982D01*
X28398018Y7694034D01*
X28313204Y7567100D01*
X28254783Y7426059D01*
X28225000Y7276331D01*
X16175000Y7276331D01*
X16145217Y7426059D01*
X16086796Y7567100D01*
X16001982Y7694034D01*
X15996016Y7700000D01*
X16001982Y7705966D01*
X16086796Y7832900D01*
X16145217Y7973941D01*
X16175000Y8123669D01*
X16175000Y8276331D01*
X16145217Y8426059D01*
X16086796Y8567100D01*
X16001982Y8694034D01*
X15894034Y8801982D01*
X15767100Y8886796D01*
X15626059Y8945217D01*
X15476331Y8975000D01*
X15323669Y8975000D01*
X15173941Y8945217D01*
X15032900Y8886796D01*
X14905966Y8801982D01*
X14798018Y8694034D01*
X14713204Y8567100D01*
X14654783Y8426059D01*
X14625000Y8276331D01*
X6183437Y8276331D01*
X7136189Y9229082D01*
X7155264Y9244736D01*
X7181193Y9276331D01*
X9025000Y9276331D01*
X9025000Y9123669D01*
X9054783Y8973941D01*
X9113204Y8832900D01*
X9198018Y8705966D01*
X9305966Y8598018D01*
X9432900Y8513204D01*
X9573941Y8454783D01*
X9723669Y8425000D01*
X9876331Y8425000D01*
X10026059Y8454783D01*
X10167100Y8513204D01*
X10294034Y8598018D01*
X10401982Y8705966D01*
X10486796Y8832900D01*
X10545217Y8973941D01*
X10570292Y9100001D01*
X25975441Y9100001D01*
X26000001Y9097582D01*
X26024561Y9100001D01*
X26098018Y9107236D01*
X26192268Y9135826D01*
X26279130Y9182255D01*
X26355265Y9244737D01*
X26370930Y9263825D01*
X26583436Y9476331D01*
X28225000Y9476331D01*
X28225000Y9323669D01*
X28254783Y9173941D01*
X28313204Y9032900D01*
X28398018Y8905966D01*
X28505966Y8798018D01*
X28632900Y8713204D01*
X28773941Y8654783D01*
X28923669Y8625000D01*
X29076331Y8625000D01*
X29226059Y8654783D01*
X29367100Y8713204D01*
X29494034Y8798018D01*
X29601982Y8905966D01*
X29686796Y9032900D01*
X29745217Y9173941D01*
X29775000Y9323669D01*
X29775000Y9476331D01*
X29755109Y9576331D01*
X31325000Y9576331D01*
X31325000Y9423669D01*
X31354783Y9273941D01*
X31413204Y9132900D01*
X31498018Y9005966D01*
X31605966Y8898018D01*
X31732900Y8813204D01*
X31873941Y8754783D01*
X32023669Y8725000D01*
X32176331Y8725000D01*
X32326059Y8754783D01*
X32467100Y8813204D01*
X32594034Y8898018D01*
X32701982Y9005966D01*
X32760649Y9093767D01*
X32819315Y9005966D01*
X32927263Y8898018D01*
X33054197Y8813204D01*
X33195238Y8754783D01*
X33344966Y8725000D01*
X33497628Y8725000D01*
X33647356Y8754783D01*
X33788397Y8813204D01*
X33915331Y8898018D01*
X34023279Y9005966D01*
X34108093Y9132900D01*
X34126622Y9177632D01*
X34145150Y9132900D01*
X34229964Y9005966D01*
X34337912Y8898018D01*
X34464846Y8813204D01*
X34605887Y8754783D01*
X34755615Y8725000D01*
X34908277Y8725000D01*
X35058005Y8754783D01*
X35199046Y8813204D01*
X35325980Y8898018D01*
X35433928Y9005966D01*
X35518742Y9132900D01*
X35556697Y9224532D01*
X35622706Y9125742D01*
X35730654Y9017794D01*
X35857588Y8932980D01*
X35998629Y8874559D01*
X36148357Y8844776D01*
X36301019Y8844776D01*
X36450747Y8874559D01*
X36591788Y8932980D01*
X36718722Y9017794D01*
X36826670Y9125742D01*
X36911484Y9252676D01*
X36969905Y9393717D01*
X36999688Y9543445D01*
X36999688Y9696107D01*
X36974843Y9821012D01*
X37072751Y9780457D01*
X37222479Y9750674D01*
X37375141Y9750674D01*
X37524869Y9780457D01*
X37665910Y9838878D01*
X37792844Y9923692D01*
X37900792Y10031640D01*
X37985606Y10158574D01*
X37990671Y10170804D01*
X41065800Y10170804D01*
X41065800Y9829196D01*
X41132444Y9494153D01*
X41263172Y9178548D01*
X41452959Y8894512D01*
X41694512Y8652959D01*
X41978548Y8463172D01*
X42294153Y8332444D01*
X42629196Y8265800D01*
X42970804Y8265800D01*
X43305847Y8332444D01*
X43621452Y8463172D01*
X43905488Y8652959D01*
X44147041Y8894512D01*
X44336828Y9178548D01*
X44467556Y9494153D01*
X44534200Y9829196D01*
X44534200Y10170804D01*
X44467556Y10505847D01*
X44336828Y10821452D01*
X44147041Y11105488D01*
X43905488Y11347041D01*
X43621452Y11536828D01*
X43305847Y11667556D01*
X42970804Y11734200D01*
X42629196Y11734200D01*
X42294153Y11667556D01*
X41978548Y11536828D01*
X41694512Y11347041D01*
X41452959Y11105488D01*
X41263172Y10821452D01*
X41132444Y10505847D01*
X41065800Y10170804D01*
X37990671Y10170804D01*
X38044027Y10299615D01*
X38073810Y10449343D01*
X38073810Y10509730D01*
X38081419Y10502121D01*
X38208353Y10417307D01*
X38349394Y10358886D01*
X38499122Y10329103D01*
X38651784Y10329103D01*
X38801512Y10358886D01*
X38942553Y10417307D01*
X39069487Y10502121D01*
X39177435Y10610069D01*
X39262249Y10737003D01*
X39320670Y10878044D01*
X39350453Y11027772D01*
X39350453Y11180434D01*
X39320670Y11330162D01*
X39300979Y11377701D01*
X39303806Y11374874D01*
X39549483Y11210717D01*
X39822466Y11097644D01*
X40112263Y11040000D01*
X40407737Y11040000D01*
X40697534Y11097644D01*
X40970517Y11210717D01*
X41216194Y11374874D01*
X41425126Y11583806D01*
X41589283Y11829483D01*
X41702356Y12102466D01*
X41760000Y12392263D01*
X41760000Y12687737D01*
X41702356Y12977534D01*
X41589283Y13250517D01*
X41425126Y13496194D01*
X41216194Y13705126D01*
X40970517Y13869283D01*
X40697534Y13982356D01*
X40407737Y14040000D01*
X40336016Y14040000D01*
X40401982Y14105966D01*
X40486796Y14232900D01*
X40545217Y14373941D01*
X40575000Y14523669D01*
X40575000Y14676331D01*
X40545217Y14826059D01*
X40486796Y14967100D01*
X40401982Y15094034D01*
X40294034Y15201982D01*
X40167100Y15286796D01*
X40026059Y15345217D01*
X39876331Y15375000D01*
X39723669Y15375000D01*
X39573941Y15345217D01*
X39432900Y15286796D01*
X39305966Y15201982D01*
X39198018Y15094034D01*
X39113204Y14967100D01*
X39054783Y14826059D01*
X39025000Y14676331D01*
X39025000Y14523669D01*
X39054783Y14373941D01*
X39113204Y14232900D01*
X39198018Y14105966D01*
X39305966Y13998018D01*
X39432900Y13913204D01*
X39545446Y13866586D01*
X39303806Y13705126D01*
X39094874Y13496194D01*
X38930717Y13250517D01*
X38817644Y12977534D01*
X38760000Y12687737D01*
X38760000Y12392263D01*
X38817644Y12102466D01*
X38930717Y11829483D01*
X38967746Y11774066D01*
X38942553Y11790899D01*
X38801512Y11849320D01*
X38651784Y11879103D01*
X38499122Y11879103D01*
X38349394Y11849320D01*
X38208353Y11790899D01*
X38081419Y11706085D01*
X37973471Y11598137D01*
X37888657Y11471203D01*
X37830236Y11330162D01*
X37800453Y11180434D01*
X37800453Y11120047D01*
X37792844Y11127656D01*
X37665910Y11212470D01*
X37524869Y11270891D01*
X37375141Y11300674D01*
X37222479Y11300674D01*
X37072751Y11270891D01*
X36931710Y11212470D01*
X36804776Y11127656D01*
X36696828Y11019708D01*
X36612014Y10892774D01*
X36553593Y10751733D01*
X36523810Y10602005D01*
X36523810Y10449343D01*
X36548655Y10324438D01*
X36450747Y10364993D01*
X36301019Y10394776D01*
X36275000Y10394776D01*
X36275000Y10476331D01*
X36245217Y10626059D01*
X36186796Y10767100D01*
X36101982Y10894034D01*
X35994034Y11001982D01*
X35867100Y11086796D01*
X35726059Y11145217D01*
X35576331Y11175000D01*
X35423669Y11175000D01*
X35273941Y11145217D01*
X35132900Y11086796D01*
X35005966Y11001982D01*
X34898018Y10894034D01*
X34813204Y10767100D01*
X34754783Y10626059D01*
X34725000Y10476331D01*
X34725000Y10323669D01*
X34735478Y10270994D01*
X34605887Y10245217D01*
X34464846Y10186796D01*
X34337912Y10101982D01*
X34229964Y9994034D01*
X34145150Y9867100D01*
X34126622Y9822368D01*
X34108093Y9867100D01*
X34023279Y9994034D01*
X33915331Y10101982D01*
X33788397Y10186796D01*
X33647356Y10245217D01*
X33497628Y10275000D01*
X33344966Y10275000D01*
X33195238Y10245217D01*
X33054197Y10186796D01*
X32927263Y10101982D01*
X32819315Y9994034D01*
X32760649Y9906233D01*
X32701982Y9994034D01*
X32594034Y10101982D01*
X32467100Y10186796D01*
X32326059Y10245217D01*
X32176331Y10275000D01*
X32023669Y10275000D01*
X31873941Y10245217D01*
X31732900Y10186796D01*
X31605966Y10101982D01*
X31498018Y9994034D01*
X31413204Y9867100D01*
X31354783Y9726059D01*
X31325000Y9576331D01*
X29755109Y9576331D01*
X29745217Y9626059D01*
X29686796Y9767100D01*
X29601982Y9894034D01*
X29494034Y10001982D01*
X29367100Y10086796D01*
X29226059Y10145217D01*
X29076331Y10175000D01*
X28923669Y10175000D01*
X28773941Y10145217D01*
X28632900Y10086796D01*
X28505966Y10001982D01*
X28398018Y9894034D01*
X28313204Y9767100D01*
X28254783Y9626059D01*
X28225000Y9476331D01*
X26583436Y9476331D01*
X28932107Y11825000D01*
X29076331Y11825000D01*
X29226059Y11854783D01*
X29367100Y11913204D01*
X29494034Y11998018D01*
X29601982Y12105966D01*
X29648998Y12176331D01*
X34925000Y12176331D01*
X34925000Y12023669D01*
X34954783Y11873941D01*
X35013204Y11732900D01*
X35098018Y11605966D01*
X35205966Y11498018D01*
X35332900Y11413204D01*
X35473941Y11354783D01*
X35623669Y11325000D01*
X35776331Y11325000D01*
X35926059Y11354783D01*
X36067100Y11413204D01*
X36194034Y11498018D01*
X36301982Y11605966D01*
X36386796Y11732900D01*
X36445217Y11873941D01*
X36475000Y12023669D01*
X36475000Y12176331D01*
X36445217Y12326059D01*
X36386796Y12467100D01*
X36301982Y12594034D01*
X36194034Y12701982D01*
X36067100Y12786796D01*
X35926059Y12845217D01*
X35776331Y12875000D01*
X35623669Y12875000D01*
X35473941Y12845217D01*
X35332900Y12786796D01*
X35205966Y12701982D01*
X35098018Y12594034D01*
X35013204Y12467100D01*
X34954783Y12326059D01*
X34925000Y12176331D01*
X29648998Y12176331D01*
X29686796Y12232900D01*
X29745217Y12373941D01*
X29775000Y12523669D01*
X29775000Y12676331D01*
X29745217Y12826059D01*
X29686796Y12967100D01*
X29601982Y13094034D01*
X29494034Y13201982D01*
X29367100Y13286796D01*
X29226059Y13345217D01*
X29076331Y13375000D01*
X28923669Y13375000D01*
X28773941Y13345217D01*
X28632900Y13286796D01*
X28505966Y13201982D01*
X28398018Y13094034D01*
X28313204Y12967100D01*
X28254783Y12826059D01*
X28225000Y12676331D01*
X28225000Y12532107D01*
X25792896Y10100001D01*
X10224561Y10100001D01*
X10200001Y10102420D01*
X10175441Y10100001D01*
X10101984Y10092766D01*
X10007734Y10064176D01*
X9920872Y10017747D01*
X9868784Y9975000D01*
X9723669Y9975000D01*
X9573941Y9945217D01*
X9432900Y9886796D01*
X9305966Y9801982D01*
X9198018Y9694034D01*
X9113204Y9567100D01*
X9054783Y9426059D01*
X9025000Y9276331D01*
X7181193Y9276331D01*
X7217746Y9320871D01*
X7264175Y9407733D01*
X7292765Y9501983D01*
X7300000Y9575440D01*
X7300000Y9575441D01*
X7302419Y9600000D01*
X7300000Y9624560D01*
X7300000Y13065897D01*
X7810434Y13576331D01*
X9125000Y13576331D01*
X9125000Y13423669D01*
X9154783Y13273941D01*
X9213204Y13132900D01*
X9298018Y13005966D01*
X9303984Y13000000D01*
X9298018Y12994034D01*
X9213204Y12867100D01*
X9154783Y12726059D01*
X9125000Y12576331D01*
X9125000Y12423669D01*
X9154783Y12273941D01*
X9213204Y12132900D01*
X9298018Y12005966D01*
X9405966Y11898018D01*
X9532900Y11813204D01*
X9673941Y11754783D01*
X9823669Y11725000D01*
X9976331Y11725000D01*
X10126059Y11754783D01*
X10250890Y11806490D01*
X10225000Y11676331D01*
X10225000Y11523669D01*
X10254783Y11373941D01*
X10313204Y11232900D01*
X10398018Y11105966D01*
X10505966Y10998018D01*
X10632900Y10913204D01*
X10773941Y10854783D01*
X10923669Y10825000D01*
X11076331Y10825000D01*
X11226059Y10854783D01*
X11367100Y10913204D01*
X11494034Y10998018D01*
X11601982Y11105966D01*
X11686796Y11232900D01*
X11745217Y11373941D01*
X11775000Y11523669D01*
X11775000Y11676331D01*
X11745217Y11826059D01*
X11686796Y11967100D01*
X11601982Y12094034D01*
X11494034Y12201982D01*
X11367100Y12286796D01*
X11226059Y12345217D01*
X11076331Y12375000D01*
X10923669Y12375000D01*
X10773941Y12345217D01*
X10649110Y12293510D01*
X10675000Y12423669D01*
X10675000Y12576331D01*
X10645217Y12726059D01*
X10586796Y12867100D01*
X10501982Y12994034D01*
X10496016Y13000000D01*
X10501982Y13005966D01*
X10586796Y13132900D01*
X10645217Y13273941D01*
X10675000Y13423669D01*
X10675000Y13576331D01*
X10645217Y13726059D01*
X10586796Y13867100D01*
X10501982Y13994034D01*
X10419685Y14076331D01*
X11625000Y14076331D01*
X11625000Y13923669D01*
X11654783Y13773941D01*
X11713204Y13632900D01*
X11798018Y13505966D01*
X11905966Y13398018D01*
X12032900Y13313204D01*
X12173941Y13254783D01*
X12323669Y13225000D01*
X12476331Y13225000D01*
X12626059Y13254783D01*
X12767100Y13313204D01*
X12894034Y13398018D01*
X12996016Y13500000D01*
X13175460Y13500000D01*
X13200020Y13497581D01*
X13224580Y13500000D01*
X13298037Y13507235D01*
X13392287Y13535825D01*
X13479149Y13582254D01*
X13555284Y13644736D01*
X13570949Y13663824D01*
X14083456Y14176331D01*
X34825000Y14176331D01*
X34825000Y14023669D01*
X34854783Y13873941D01*
X34913204Y13732900D01*
X34998018Y13605966D01*
X35105966Y13498018D01*
X35232900Y13413204D01*
X35373941Y13354783D01*
X35523669Y13325000D01*
X35676331Y13325000D01*
X35826059Y13354783D01*
X35967100Y13413204D01*
X36094034Y13498018D01*
X36201982Y13605966D01*
X36286796Y13732900D01*
X36345217Y13873941D01*
X36375000Y14023669D01*
X36375000Y14176331D01*
X36345217Y14326059D01*
X36286796Y14467100D01*
X36201982Y14594034D01*
X36094034Y14701982D01*
X35967100Y14786796D01*
X35826059Y14845217D01*
X35676331Y14875000D01*
X35523669Y14875000D01*
X35373941Y14845217D01*
X35232900Y14786796D01*
X35105966Y14701982D01*
X34998018Y14594034D01*
X34913204Y14467100D01*
X34854783Y14326059D01*
X34825000Y14176331D01*
X14083456Y14176331D01*
X19226714Y19319589D01*
X32038282Y19319589D01*
X32038282Y18982411D01*
X32104063Y18651710D01*
X32233095Y18340198D01*
X32420422Y18059844D01*
X32658844Y17821422D01*
X32939198Y17634095D01*
X33250710Y17505063D01*
X33581411Y17439282D01*
X33918589Y17439282D01*
X34249290Y17505063D01*
X34560802Y17634095D01*
X34841156Y17821422D01*
X35079578Y18059844D01*
X35157412Y18176331D01*
X40225000Y18176331D01*
X40225000Y18023669D01*
X40254783Y17873941D01*
X40313204Y17732900D01*
X40398018Y17605966D01*
X40505966Y17498018D01*
X40632900Y17413204D01*
X40773941Y17354783D01*
X40923669Y17325000D01*
X41076331Y17325000D01*
X41226059Y17354783D01*
X41367100Y17413204D01*
X41494034Y17498018D01*
X41601982Y17605966D01*
X41686796Y17732900D01*
X41745217Y17873941D01*
X41775000Y18023669D01*
X41775000Y18026331D01*
X41925000Y18026331D01*
X41925000Y17873669D01*
X41954783Y17723941D01*
X42013204Y17582900D01*
X42098018Y17455966D01*
X42205966Y17348018D01*
X42332900Y17263204D01*
X42473941Y17204783D01*
X42623669Y17175000D01*
X42776331Y17175000D01*
X42926059Y17204783D01*
X43067100Y17263204D01*
X43194034Y17348018D01*
X43301982Y17455966D01*
X43386796Y17582900D01*
X43445217Y17723941D01*
X43475000Y17873669D01*
X43475000Y17875000D01*
X43626331Y17875000D01*
X43776059Y17904783D01*
X43917100Y17963204D01*
X44044034Y18048018D01*
X44151982Y18155966D01*
X44236796Y18282900D01*
X44295217Y18423941D01*
X44325000Y18573669D01*
X44325000Y18726331D01*
X44295217Y18876059D01*
X44236796Y19017100D01*
X44151982Y19144034D01*
X44044034Y19251982D01*
X43917100Y19336796D01*
X43776059Y19395217D01*
X43626331Y19425000D01*
X43473669Y19425000D01*
X43323941Y19395217D01*
X43182900Y19336796D01*
X43055966Y19251982D01*
X42948018Y19144034D01*
X42863204Y19017100D01*
X42804783Y18876059D01*
X42775000Y18726331D01*
X42775000Y18725000D01*
X42623669Y18725000D01*
X42473941Y18695217D01*
X42332900Y18636796D01*
X42205966Y18551982D01*
X42098018Y18444034D01*
X42013204Y18317100D01*
X41954783Y18176059D01*
X41925000Y18026331D01*
X41775000Y18026331D01*
X41775000Y18176331D01*
X41745217Y18326059D01*
X41686796Y18467100D01*
X41601982Y18594034D01*
X41494034Y18701982D01*
X41367100Y18786796D01*
X41226059Y18845217D01*
X41076331Y18875000D01*
X40923669Y18875000D01*
X40773941Y18845217D01*
X40632900Y18786796D01*
X40505966Y18701982D01*
X40398018Y18594034D01*
X40313204Y18467100D01*
X40254783Y18326059D01*
X40225000Y18176331D01*
X35157412Y18176331D01*
X35266905Y18340198D01*
X35395937Y18651710D01*
X35461718Y18982411D01*
X35461718Y19319589D01*
X35395937Y19650290D01*
X35266905Y19961802D01*
X35079578Y20242156D01*
X34841156Y20480578D01*
X34560802Y20667905D01*
X34249290Y20796937D01*
X33918589Y20862718D01*
X33581411Y20862718D01*
X33250710Y20796937D01*
X32939198Y20667905D01*
X32658844Y20480578D01*
X32420422Y20242156D01*
X32233095Y19961802D01*
X32104063Y19650290D01*
X32038282Y19319589D01*
X19226714Y19319589D01*
X22407126Y22500000D01*
X28403984Y22500000D01*
X28505966Y22398018D01*
X28632900Y22313204D01*
X28773941Y22254783D01*
X28923669Y22225000D01*
X29076331Y22225000D01*
X29226059Y22254783D01*
X29278085Y22276333D01*
X39025000Y22276333D01*
X39025000Y22123671D01*
X39054783Y21973943D01*
X39113204Y21832902D01*
X39198018Y21705968D01*
X39305966Y21598020D01*
X39432900Y21513206D01*
X39573941Y21454785D01*
X39723669Y21425002D01*
X39876331Y21425002D01*
X40026059Y21454785D01*
X40167100Y21513206D01*
X40294034Y21598020D01*
X40401982Y21705968D01*
X40486796Y21832902D01*
X40545217Y21973943D01*
X40575000Y22123671D01*
X40575000Y22276333D01*
X40557667Y22363473D01*
X40632900Y22313204D01*
X40773941Y22254783D01*
X40923669Y22225000D01*
X41076331Y22225000D01*
X41226059Y22254783D01*
X41367100Y22313204D01*
X41494034Y22398018D01*
X41601982Y22505966D01*
X41686796Y22632900D01*
X41745217Y22773941D01*
X41775000Y22923669D01*
X41775000Y23076331D01*
X41745217Y23226059D01*
X41686796Y23367100D01*
X41601982Y23494034D01*
X41494034Y23601982D01*
X41367100Y23686796D01*
X41271654Y23726331D01*
X41925000Y23726331D01*
X41925000Y23573669D01*
X41954783Y23423941D01*
X42013204Y23282900D01*
X42098018Y23155966D01*
X42205966Y23048018D01*
X42332900Y22963204D01*
X42473941Y22904783D01*
X42623669Y22875000D01*
X42775000Y22875000D01*
X42775000Y22873669D01*
X42804783Y22723941D01*
X42863204Y22582900D01*
X42948018Y22455966D01*
X43055966Y22348018D01*
X43182900Y22263204D01*
X43323941Y22204783D01*
X43473669Y22175000D01*
X43626331Y22175000D01*
X43776059Y22204783D01*
X43917100Y22263204D01*
X44044034Y22348018D01*
X44151982Y22455966D01*
X44236796Y22582900D01*
X44295217Y22723941D01*
X44325000Y22873669D01*
X44325000Y23026331D01*
X44295217Y23176059D01*
X44236796Y23317100D01*
X44151982Y23444034D01*
X44044034Y23551982D01*
X43917100Y23636796D01*
X43776059Y23695217D01*
X43626331Y23725000D01*
X43475000Y23725000D01*
X43475000Y23726331D01*
X43445217Y23876059D01*
X43386796Y24017100D01*
X43301982Y24144034D01*
X43194034Y24251982D01*
X43067100Y24336796D01*
X42926059Y24395217D01*
X42776331Y24425000D01*
X42623669Y24425000D01*
X42473941Y24395217D01*
X42332900Y24336796D01*
X42205966Y24251982D01*
X42098018Y24144034D01*
X42013204Y24017100D01*
X41954783Y23876059D01*
X41925000Y23726331D01*
X41271654Y23726331D01*
X41226059Y23745217D01*
X41076331Y23775000D01*
X40923669Y23775000D01*
X40773941Y23745217D01*
X40632900Y23686796D01*
X40505966Y23601982D01*
X40398018Y23494034D01*
X40313204Y23367100D01*
X40254783Y23226059D01*
X40225000Y23076331D01*
X40225000Y22923669D01*
X40242333Y22836529D01*
X40167100Y22886798D01*
X40026059Y22945219D01*
X39876331Y22975002D01*
X39723669Y22975002D01*
X39573941Y22945219D01*
X39432900Y22886798D01*
X39305966Y22801984D01*
X39198018Y22694036D01*
X39113204Y22567102D01*
X39054783Y22426061D01*
X39025000Y22276333D01*
X29278085Y22276333D01*
X29367100Y22313204D01*
X29494034Y22398018D01*
X29601982Y22505966D01*
X29686796Y22632900D01*
X29745217Y22773941D01*
X29775000Y22923669D01*
X29775000Y23076331D01*
X29745217Y23226059D01*
X29686796Y23367100D01*
X29601982Y23494034D01*
X29494034Y23601982D01*
X29367100Y23686796D01*
X29226059Y23745217D01*
X29076331Y23775000D01*
X28923669Y23775000D01*
X28773941Y23745217D01*
X28632900Y23686796D01*
X28505966Y23601982D01*
X28403984Y23500000D01*
X22224577Y23500000D01*
X22200019Y23502419D01*
X22175461Y23500000D01*
X22175460Y23500000D01*
X22102003Y23492765D01*
X22007753Y23464175D01*
X21920891Y23417746D01*
X21844756Y23355264D01*
X21829095Y23336181D01*
X16174045Y17681131D01*
X16145217Y17826059D01*
X16086796Y17967100D01*
X16001982Y18094034D01*
X15894034Y18201982D01*
X15767100Y18286796D01*
X15626059Y18345217D01*
X15476331Y18375000D01*
X15323669Y18375000D01*
X15173941Y18345217D01*
X15032900Y18286796D01*
X14905966Y18201982D01*
X14798018Y18094034D01*
X14713204Y17967100D01*
X14654783Y17826059D01*
X14625000Y17676331D01*
X14625000Y17523669D01*
X14654783Y17373941D01*
X14713204Y17232900D01*
X14798018Y17105966D01*
X14905966Y16998018D01*
X15032900Y16913204D01*
X15173941Y16854783D01*
X15318869Y16825955D01*
X12994465Y14501551D01*
X12894034Y14601982D01*
X12767100Y14686796D01*
X12626059Y14745217D01*
X12476331Y14775000D01*
X12323669Y14775000D01*
X12173941Y14745217D01*
X12032900Y14686796D01*
X11905966Y14601982D01*
X11798018Y14494034D01*
X11713204Y14367100D01*
X11654783Y14226059D01*
X11625000Y14076331D01*
X10419685Y14076331D01*
X10394034Y14101982D01*
X10267100Y14186796D01*
X10126059Y14245217D01*
X9976331Y14275000D01*
X9823669Y14275000D01*
X9673941Y14245217D01*
X9532900Y14186796D01*
X9405966Y14101982D01*
X9298018Y13994034D01*
X9213204Y13867100D01*
X9154783Y13726059D01*
X9125000Y13576331D01*
X7810434Y13576331D01*
X11499672Y17265569D01*
X11513204Y17232900D01*
X11598018Y17105966D01*
X11653984Y17050000D01*
X11598018Y16994034D01*
X11513204Y16867100D01*
X11454783Y16726059D01*
X11425000Y16576331D01*
X11425000Y16423669D01*
X11454783Y16273941D01*
X11513204Y16132900D01*
X11598018Y16005966D01*
X11705966Y15898018D01*
X11832900Y15813204D01*
X11973941Y15754783D01*
X12123669Y15725000D01*
X12276331Y15725000D01*
X12426059Y15754783D01*
X12567100Y15813204D01*
X12694034Y15898018D01*
X12801982Y16005966D01*
X12886796Y16132900D01*
X12945217Y16273941D01*
X12975000Y16423669D01*
X12975000Y16576331D01*
X12945217Y16726059D01*
X12886796Y16867100D01*
X12801982Y16994034D01*
X12746016Y17050000D01*
X12801982Y17105966D01*
X12886796Y17232900D01*
X12945217Y17373941D01*
X12975000Y17523669D01*
X12975000Y17676331D01*
X12945217Y17826059D01*
X12886796Y17967100D01*
X12801982Y18094034D01*
X12694034Y18201982D01*
X12567100Y18286796D01*
X12534432Y18300328D01*
X18960435Y24726331D01*
X44625000Y24726331D01*
X44625000Y24573669D01*
X44654783Y24423941D01*
X44713204Y24282900D01*
X44798018Y24155966D01*
X44905966Y24048018D01*
X45032900Y23963204D01*
X45173941Y23904783D01*
X45247635Y23890124D01*
X45225000Y23776331D01*
X45225000Y23623669D01*
X45254783Y23473941D01*
X45313204Y23332900D01*
X45398018Y23205966D01*
X45502989Y23100995D01*
X45473941Y23095217D01*
X45332900Y23036796D01*
X45205966Y22951982D01*
X45098018Y22844034D01*
X45013204Y22717100D01*
X44954783Y22576059D01*
X44925000Y22426331D01*
X44925000Y22273669D01*
X44954783Y22123941D01*
X45013204Y21982900D01*
X45098018Y21855966D01*
X45205966Y21748018D01*
X45332900Y21663204D01*
X45473941Y21604783D01*
X45623669Y21575000D01*
X45776331Y21575000D01*
X45926059Y21604783D01*
X46067100Y21663204D01*
X46194034Y21748018D01*
X46301982Y21855966D01*
X46386796Y21982900D01*
X46445217Y22123941D01*
X46475000Y22273669D01*
X46475000Y22426331D01*
X46445217Y22576059D01*
X46386796Y22717100D01*
X46301982Y22844034D01*
X46197011Y22949005D01*
X46226059Y22954783D01*
X46367100Y23013204D01*
X46494034Y23098018D01*
X46601982Y23205966D01*
X46686796Y23332900D01*
X46745217Y23473941D01*
X46775000Y23623669D01*
X46775000Y23776331D01*
X46745217Y23926059D01*
X46686796Y24067100D01*
X46601982Y24194034D01*
X46494034Y24301982D01*
X46367100Y24386796D01*
X46226059Y24445217D01*
X46152365Y24459876D01*
X46175000Y24573669D01*
X46175000Y24726331D01*
X46145217Y24876059D01*
X46086796Y25017100D01*
X46001982Y25144034D01*
X45894034Y25251982D01*
X45767100Y25336796D01*
X45626059Y25395217D01*
X45476331Y25425000D01*
X45323669Y25425000D01*
X45173941Y25395217D01*
X45032900Y25336796D01*
X44905966Y25251982D01*
X44798018Y25144034D01*
X44713204Y25017100D01*
X44654783Y24876059D01*
X44625000Y24726331D01*
X18960435Y24726331D01*
X19834105Y25600000D01*
X34903976Y25600000D01*
X35005958Y25498018D01*
X35132892Y25413204D01*
X35273933Y25354783D01*
X35423661Y25325000D01*
X35576323Y25325000D01*
X35726051Y25354783D01*
X35867092Y25413204D01*
X35994026Y25498018D01*
X36101974Y25605966D01*
X36186788Y25732900D01*
X36245209Y25873941D01*
X36274992Y26023669D01*
X36274992Y26176331D01*
X36256850Y26267537D01*
X36367100Y26313204D01*
X36494034Y26398018D01*
X36601982Y26505966D01*
X36686796Y26632900D01*
X36745217Y26773941D01*
X36775000Y26923669D01*
X36775000Y27076331D01*
X36745217Y27226059D01*
X36686796Y27367100D01*
X36601982Y27494034D01*
X36494034Y27601982D01*
X36367100Y27686796D01*
X36226059Y27745217D01*
X36076331Y27775000D01*
X35923669Y27775000D01*
X35773941Y27745217D01*
X35632900Y27686796D01*
X35505966Y27601982D01*
X35398018Y27494034D01*
X35313204Y27367100D01*
X35254783Y27226059D01*
X35225000Y27076331D01*
X35225000Y26923669D01*
X35243142Y26832463D01*
X35132892Y26786796D01*
X35005958Y26701982D01*
X34903976Y26600000D01*
X19651558Y26600000D01*
X19626998Y26602419D01*
X19602438Y26600000D01*
X19528981Y26592765D01*
X19434731Y26564175D01*
X19347869Y26517746D01*
X19271734Y26455264D01*
X19256078Y26436187D01*
X6463820Y13643927D01*
X6444737Y13628266D01*
X6382255Y13552131D01*
X6354390Y13500000D01*
X6335826Y13465269D01*
X6307235Y13371019D01*
X6297581Y13273002D01*
X6300001Y13248432D01*
X6300000Y9807107D01*
X4977575Y8484681D01*
X4897319Y8517924D01*
X4660652Y8565000D01*
X4419348Y8565000D01*
X4182681Y8517924D01*
X3959745Y8425581D01*
X3759108Y8291519D01*
X3588481Y8120892D01*
X3454419Y7920255D01*
X3362076Y7697319D01*
X3315000Y7460652D01*
X3225000Y7460652D01*
X3177924Y7697319D01*
X3085581Y7920255D01*
X2951519Y8120892D01*
X2780892Y8291519D01*
X2580255Y8425581D01*
X2357319Y8517924D01*
X2120652Y8565000D01*
X1879348Y8565000D01*
X1642681Y8517924D01*
X1419745Y8425581D01*
X1219108Y8291519D01*
X1048481Y8120892D01*
X914419Y7920255D01*
X822076Y7697319D01*
X775000Y7460652D01*
X400000Y7460652D01*
X400000Y10000652D01*
X775000Y10000652D01*
X775000Y9759348D01*
X822076Y9522681D01*
X914419Y9299745D01*
X1048481Y9099108D01*
X1219108Y8928481D01*
X1419745Y8794419D01*
X1642681Y8702076D01*
X1879348Y8655000D01*
X2120652Y8655000D01*
X2357319Y8702076D01*
X2580255Y8794419D01*
X2780892Y8928481D01*
X2951519Y9099108D01*
X3085581Y9299745D01*
X3177924Y9522681D01*
X3225000Y9759348D01*
X3225000Y10000652D01*
X3315000Y10000652D01*
X3315000Y9759348D01*
X3362076Y9522681D01*
X3454419Y9299745D01*
X3588481Y9099108D01*
X3759108Y8928481D01*
X3959745Y8794419D01*
X4182681Y8702076D01*
X4419348Y8655000D01*
X4660652Y8655000D01*
X4897319Y8702076D01*
X5120255Y8794419D01*
X5320892Y8928481D01*
X5491519Y9099108D01*
X5625581Y9299745D01*
X5717924Y9522681D01*
X5765000Y9759348D01*
X5765000Y10000652D01*
X5717924Y10237319D01*
X5625581Y10460255D01*
X5491519Y10660892D01*
X5320892Y10831519D01*
X5120255Y10965581D01*
X4897319Y11057924D01*
X4660652Y11105000D01*
X4419348Y11105000D01*
X4182681Y11057924D01*
X3959745Y10965581D01*
X3759108Y10831519D01*
X3588481Y10660892D01*
X3454419Y10460255D01*
X3362076Y10237319D01*
X3315000Y10000652D01*
X3225000Y10000652D01*
X3177924Y10237319D01*
X3085581Y10460255D01*
X2951519Y10660892D01*
X2780892Y10831519D01*
X2580255Y10965581D01*
X2357319Y11057924D01*
X2120652Y11105000D01*
X1879348Y11105000D01*
X1642681Y11057924D01*
X1419745Y10965581D01*
X1219108Y10831519D01*
X1048481Y10660892D01*
X914419Y10460255D01*
X822076Y10237319D01*
X775000Y10000652D01*
X400000Y10000652D01*
X400000Y15080652D01*
X775000Y15080652D01*
X775000Y14839348D01*
X822076Y14602681D01*
X914419Y14379745D01*
X1048481Y14179108D01*
X1219108Y14008481D01*
X1419745Y13874419D01*
X1642681Y13782076D01*
X1879348Y13735000D01*
X2120652Y13735000D01*
X2357319Y13782076D01*
X2580255Y13874419D01*
X2780892Y14008481D01*
X2800001Y14027590D01*
X2800001Y13352410D01*
X2780892Y13371519D01*
X2580255Y13505581D01*
X2357319Y13597924D01*
X2120652Y13645000D01*
X1879348Y13645000D01*
X1642681Y13597924D01*
X1419745Y13505581D01*
X1219108Y13371519D01*
X1048481Y13200892D01*
X914419Y13000255D01*
X822076Y12777319D01*
X775000Y12540652D01*
X775000Y12299348D01*
X822076Y12062681D01*
X914419Y11839745D01*
X1048481Y11639108D01*
X1219108Y11468481D01*
X1419745Y11334419D01*
X1642681Y11242076D01*
X1879348Y11195000D01*
X2120652Y11195000D01*
X2357319Y11242076D01*
X2580255Y11334419D01*
X2780892Y11468481D01*
X2951519Y11639108D01*
X3085581Y11839745D01*
X3177924Y12062681D01*
X3225000Y12299348D01*
X3225000Y12540652D01*
X3193405Y12699489D01*
X3321179Y12571716D01*
X3315000Y12540652D01*
X3315000Y12299348D01*
X3362076Y12062681D01*
X3454419Y11839745D01*
X3588481Y11639108D01*
X3759108Y11468481D01*
X3959745Y11334419D01*
X4182681Y11242076D01*
X4419348Y11195000D01*
X4660652Y11195000D01*
X4897319Y11242076D01*
X5120255Y11334419D01*
X5320892Y11468481D01*
X5491519Y11639108D01*
X5625581Y11839745D01*
X5717924Y12062681D01*
X5765000Y12299348D01*
X5765000Y12540652D01*
X5717924Y12777319D01*
X5625581Y13000255D01*
X5491519Y13200892D01*
X5320892Y13371519D01*
X5120255Y13505581D01*
X4897319Y13597924D01*
X4660652Y13645000D01*
X4419348Y13645000D01*
X4182681Y13597924D01*
X3959745Y13505581D01*
X3864899Y13442206D01*
X3800000Y13507105D01*
X3800000Y13981158D01*
X3959745Y13874419D01*
X4182681Y13782076D01*
X4419348Y13735000D01*
X4660652Y13735000D01*
X4897319Y13782076D01*
X5120255Y13874419D01*
X5320892Y14008481D01*
X5491519Y14179108D01*
X5625581Y14379745D01*
X5658824Y14460000D01*
X5717521Y14460000D01*
X5742081Y14457581D01*
X5766641Y14460000D01*
X5840098Y14467235D01*
X5934348Y14495825D01*
X6021210Y14542254D01*
X6097345Y14604736D01*
X6113010Y14623824D01*
X7711193Y16222006D01*
X7730276Y16237667D01*
X7792758Y16313802D01*
X7839187Y16400664D01*
X7867777Y16494914D01*
X7875012Y16568371D01*
X7875012Y16568372D01*
X7877431Y16592930D01*
X7875012Y16617488D01*
X7875012Y17587907D01*
X12136188Y21849081D01*
X12155265Y21864737D01*
X12217747Y21940872D01*
X12264176Y22027734D01*
X12292766Y22121985D01*
X12300001Y22195442D01*
X12300001Y22195450D01*
X12302419Y22220000D01*
X12301435Y22229993D01*
X12426059Y22254783D01*
X12567100Y22313204D01*
X12694034Y22398018D01*
X12801982Y22505966D01*
X12886796Y22632900D01*
X12945217Y22773941D01*
X12975000Y22923669D01*
X12975000Y23076331D01*
X12945217Y23226059D01*
X12886796Y23367100D01*
X12801982Y23494034D01*
X12696016Y23600000D01*
X12801982Y23705966D01*
X12886796Y23832900D01*
X12945217Y23973941D01*
X12975000Y24123669D01*
X12975000Y24276331D01*
X12945217Y24426059D01*
X12886796Y24567100D01*
X12801982Y24694034D01*
X12694034Y24801982D01*
X12567100Y24886796D01*
X12426059Y24945217D01*
X12276331Y24975000D01*
X12123669Y24975000D01*
X11973941Y24945217D01*
X11832900Y24886796D01*
X11705966Y24801982D01*
X11598018Y24694034D01*
X11513204Y24567100D01*
X11454783Y24426059D01*
X11425000Y24276331D01*
X11425000Y24132106D01*
X10863824Y23570929D01*
X10844736Y23555264D01*
X10782254Y23479129D01*
X10735825Y23392266D01*
X10717817Y23332900D01*
X10707235Y23298017D01*
X10697581Y23200000D01*
X10700000Y23175439D01*
X10700001Y22628106D01*
X6727596Y18655699D01*
X6701982Y18694034D01*
X6596016Y18800000D01*
X6701982Y18905966D01*
X6786796Y19032900D01*
X6845217Y19173941D01*
X6875000Y19323669D01*
X6875000Y19476331D01*
X6845217Y19626059D01*
X6786796Y19767100D01*
X6701982Y19894034D01*
X6594034Y20001982D01*
X6522169Y20050000D01*
X6594034Y20098018D01*
X6701982Y20205966D01*
X6786796Y20332900D01*
X6845217Y20473941D01*
X6875000Y20623669D01*
X6875000Y20776331D01*
X6845217Y20926059D01*
X6786796Y21067100D01*
X6701982Y21194034D01*
X6594034Y21301982D01*
X6467100Y21386796D01*
X6326059Y21445217D01*
X6176331Y21475000D01*
X6023669Y21475000D01*
X5873941Y21445217D01*
X5732900Y21386796D01*
X5605966Y21301982D01*
X5498018Y21194034D01*
X5413204Y21067100D01*
X5354783Y20926059D01*
X5325000Y20776331D01*
X5325000Y20623669D01*
X5354783Y20473941D01*
X5413204Y20332900D01*
X5498018Y20205966D01*
X5605966Y20098018D01*
X5677831Y20050000D01*
X5605966Y20001982D01*
X5498018Y19894034D01*
X5413204Y19767100D01*
X5354783Y19626059D01*
X5325000Y19476331D01*
X5325000Y19323669D01*
X5354783Y19173941D01*
X5413204Y19032900D01*
X5498018Y18905966D01*
X5603984Y18800000D01*
X5498018Y18694034D01*
X5413204Y18567100D01*
X5354783Y18426059D01*
X5353384Y18419027D01*
X5320892Y18451519D01*
X5120255Y18585581D01*
X4897319Y18677924D01*
X4660652Y18725000D01*
X4419348Y18725000D01*
X4182681Y18677924D01*
X3959745Y18585581D01*
X3759108Y18451519D01*
X3588481Y18280892D01*
X3454419Y18080255D01*
X3362076Y17857319D01*
X3315000Y17620652D01*
X3315000Y17379348D01*
X3362076Y17142681D01*
X3454419Y16919745D01*
X3588481Y16719108D01*
X3722309Y16585280D01*
X3685734Y16555264D01*
X3670078Y16536187D01*
X2963824Y15829931D01*
X2944736Y15814266D01*
X2914720Y15777691D01*
X2780892Y15911519D01*
X2580255Y16045581D01*
X2357319Y16137924D01*
X2120652Y16185000D01*
X1879348Y16185000D01*
X1642681Y16137924D01*
X1419745Y16045581D01*
X1219108Y15911519D01*
X1048481Y15740892D01*
X914419Y15540255D01*
X822076Y15317319D01*
X775000Y15080652D01*
X400000Y15080652D01*
X400000Y18350000D01*
X773186Y18350000D01*
X773186Y16650000D01*
X780426Y16576487D01*
X801869Y16505800D01*
X836691Y16440653D01*
X883552Y16383552D01*
X940653Y16336691D01*
X1005800Y16301869D01*
X1076487Y16280426D01*
X1150000Y16273186D01*
X2850000Y16273186D01*
X2923513Y16280426D01*
X2994200Y16301869D01*
X3059347Y16336691D01*
X3116448Y16383552D01*
X3163309Y16440653D01*
X3198131Y16505800D01*
X3219574Y16576487D01*
X3226814Y16650000D01*
X3226814Y18350000D01*
X3219574Y18423513D01*
X3198131Y18494200D01*
X3163309Y18559347D01*
X3116448Y18616448D01*
X3059347Y18663309D01*
X2994200Y18698131D01*
X2923513Y18719574D01*
X2850000Y18726814D01*
X1150000Y18726814D01*
X1076487Y18719574D01*
X1005800Y18698131D01*
X940653Y18663309D01*
X883552Y18616448D01*
X836691Y18559347D01*
X801869Y18494200D01*
X780426Y18423513D01*
X773186Y18350000D01*
X400000Y18350000D01*
X400000Y28453615D01*
X425000Y28453615D01*
X425000Y27946385D01*
X523956Y27448900D01*
X718065Y26980280D01*
X999867Y26558533D01*
X1358533Y26199867D01*
X1780280Y25918065D01*
X2248900Y25723956D01*
X2746385Y25625000D01*
X3253615Y25625000D01*
X3751100Y25723956D01*
X4219720Y25918065D01*
X4641467Y26199867D01*
X5000133Y26558533D01*
X5281935Y26980280D01*
X5358468Y27165046D01*
X5413204Y27032900D01*
X5468596Y26950000D01*
X5413204Y26867100D01*
X5354783Y26726059D01*
X5325000Y26576331D01*
X5325000Y26423669D01*
X5354783Y26273941D01*
X5413204Y26132900D01*
X5498018Y26005966D01*
X5603984Y25900000D01*
X5498018Y25794034D01*
X5413204Y25667100D01*
X5354783Y25526059D01*
X5325000Y25376331D01*
X5325000Y25223669D01*
X5354783Y25073941D01*
X5413204Y24932900D01*
X5498018Y24805966D01*
X5605966Y24698018D01*
X5732900Y24613204D01*
X5873941Y24554783D01*
X6023669Y24525000D01*
X6176331Y24525000D01*
X6326059Y24554783D01*
X6467100Y24613204D01*
X6594034Y24698018D01*
X6701982Y24805966D01*
X6786796Y24932900D01*
X6845217Y25073941D01*
X6875000Y25223669D01*
X6875000Y25376331D01*
X6845217Y25526059D01*
X6786796Y25667100D01*
X6701982Y25794034D01*
X6596016Y25900000D01*
X6701982Y26005966D01*
X6786796Y26132900D01*
X6845217Y26273941D01*
X6875000Y26423669D01*
X6875000Y26576331D01*
X6845217Y26726059D01*
X6786796Y26867100D01*
X6731404Y26950000D01*
X6786796Y27032900D01*
X6804785Y27076331D01*
X10125000Y27076331D01*
X10125000Y26923669D01*
X10154783Y26773941D01*
X10213204Y26632900D01*
X10298018Y26505966D01*
X10405966Y26398018D01*
X10532900Y26313204D01*
X10673941Y26254783D01*
X10823669Y26225000D01*
X10976331Y26225000D01*
X11126059Y26254783D01*
X11267100Y26313204D01*
X11394034Y26398018D01*
X11501982Y26505966D01*
X11586796Y26632900D01*
X11645217Y26773941D01*
X11675000Y26923669D01*
X11675000Y27076331D01*
X11645217Y27226059D01*
X11586796Y27367100D01*
X11501982Y27494034D01*
X11394034Y27601982D01*
X11267100Y27686796D01*
X11126059Y27745217D01*
X10976331Y27775000D01*
X10823669Y27775000D01*
X10673941Y27745217D01*
X10532900Y27686796D01*
X10405966Y27601982D01*
X10298018Y27494034D01*
X10213204Y27367100D01*
X10154783Y27226059D01*
X10125000Y27076331D01*
X6804785Y27076331D01*
X6845217Y27173941D01*
X6875000Y27323669D01*
X6875000Y27476331D01*
X6845217Y27626059D01*
X6786796Y27767100D01*
X6701982Y27894034D01*
X6594034Y28001982D01*
X6467100Y28086796D01*
X6326059Y28145217D01*
X6176331Y28175000D01*
X6023669Y28175000D01*
X5873941Y28145217D01*
X5732900Y28086796D01*
X5605966Y28001982D01*
X5575000Y27971016D01*
X5575000Y28453615D01*
X5476044Y28951100D01*
X5341329Y29276331D01*
X11125000Y29276331D01*
X11125000Y29123669D01*
X11154783Y28973941D01*
X11213204Y28832900D01*
X11268596Y28750000D01*
X11213204Y28667100D01*
X11154783Y28526059D01*
X11125000Y28376331D01*
X11125000Y28223669D01*
X11154783Y28073941D01*
X11213204Y27932900D01*
X11298018Y27805966D01*
X11405966Y27698018D01*
X11532900Y27613204D01*
X11673941Y27554783D01*
X11823669Y27525000D01*
X11976331Y27525000D01*
X12126059Y27554783D01*
X12267100Y27613204D01*
X12394034Y27698018D01*
X12501982Y27805966D01*
X12586796Y27932900D01*
X12645217Y28073941D01*
X12675000Y28223669D01*
X12675000Y28376331D01*
X12659628Y28453615D01*
X41625000Y28453615D01*
X41625000Y27946385D01*
X41723956Y27448900D01*
X41918065Y26980280D01*
X42199867Y26558533D01*
X42558533Y26199867D01*
X42980280Y25918065D01*
X43448900Y25723956D01*
X43946385Y25625000D01*
X44453615Y25625000D01*
X44951100Y25723956D01*
X45419720Y25918065D01*
X45841467Y26199867D01*
X46200133Y26558533D01*
X46481935Y26980280D01*
X46676044Y27448900D01*
X46775000Y27946385D01*
X46775000Y28453615D01*
X46676044Y28951100D01*
X46481935Y29419720D01*
X46200133Y29841467D01*
X45841467Y30200133D01*
X45419720Y30481935D01*
X44951100Y30676044D01*
X44453615Y30775000D01*
X43946385Y30775000D01*
X43448900Y30676044D01*
X42980280Y30481935D01*
X42558533Y30200133D01*
X42199867Y29841467D01*
X41918065Y29419720D01*
X41723956Y28951100D01*
X41625000Y28453615D01*
X12659628Y28453615D01*
X12645217Y28526059D01*
X12586796Y28667100D01*
X12531404Y28750000D01*
X12586796Y28832900D01*
X12645217Y28973941D01*
X12675000Y29123669D01*
X12675000Y29276331D01*
X12645217Y29426059D01*
X12586796Y29567100D01*
X12501982Y29694034D01*
X12394034Y29801982D01*
X12267100Y29886796D01*
X12126059Y29945217D01*
X11976331Y29975000D01*
X11823669Y29975000D01*
X11673941Y29945217D01*
X11532900Y29886796D01*
X11405966Y29801982D01*
X11298018Y29694034D01*
X11213204Y29567100D01*
X11154783Y29426059D01*
X11125000Y29276331D01*
X5341329Y29276331D01*
X5281935Y29419720D01*
X5000133Y29841467D01*
X4641467Y30200133D01*
X4219720Y30481935D01*
X3751100Y30676044D01*
X3253615Y30775000D01*
X2746385Y30775000D01*
X2248900Y30676044D01*
X1780280Y30481935D01*
X1358533Y30200133D01*
X999867Y29841467D01*
X718065Y29419720D01*
X523956Y28951100D01*
X425000Y28453615D01*
X400000Y28453615D01*
X400000Y30180435D01*
X413309Y30316167D01*
X447047Y30427913D01*
X501843Y30530971D01*
X575620Y30621430D01*
X665556Y30695832D01*
X768236Y30751350D01*
X879735Y30785865D01*
X1014214Y30800000D01*
X17135187Y30800000D01*
X17113204Y30767100D01*
G37*
G04 #@! TD.AperFunction*
M02*
