G04 #@! TF.GenerationSoftware,KiCad,Pcbnew,5.1.8-5.1.8*
G04 #@! TF.CreationDate,2020-12-12T11:36:47+01:00*
G04 #@! TF.ProjectId,ublox-breakout,75626c6f-782d-4627-9265-616b6f75742e,rev?*
G04 #@! TF.SameCoordinates,PX71f6ce0PY7b06240*
G04 #@! TF.FileFunction,Legend,Top*
G04 #@! TF.FilePolarity,Positive*
%FSLAX46Y46*%
G04 Gerber Fmt 4.6, Leading zero omitted, Abs format (unit mm)*
G04 Created by KiCad (PCBNEW 5.1.8-5.1.8) date 2020-12-12 11:36:47*
%MOMM*%
%LPD*%
G01*
G04 APERTURE LIST*
%ADD10C,0.200000*%
%ADD11C,0.150000*%
%ADD12C,0.120000*%
%ADD13R,0.800000X0.900000*%
%ADD14C,0.100000*%
%ADD15R,1.900000X1.000000*%
%ADD16R,1.900000X1.800000*%
%ADD17R,1.300000X1.650000*%
%ADD18R,1.550000X1.425000*%
%ADD19R,1.380000X0.450000*%
%ADD20C,0.700000*%
%ADD21C,4.400000*%
%ADD22R,0.650000X1.060000*%
%ADD23O,1.700000X1.700000*%
%ADD24R,1.700000X1.700000*%
%ADD25C,2.250000*%
%ADD26C,2.050000*%
%ADD27R,1.060000X0.650000*%
G04 APERTURE END LIST*
D10*
X35400000Y5425000D02*
G75*
G03*
X35400000Y5425000I-1650000J0D01*
G01*
X35400000Y19150000D02*
G75*
G03*
X35400000Y19150000I-1650000J0D01*
G01*
D11*
X14121428Y3342858D02*
X14121428Y2742858D01*
X13735714Y3342858D02*
X13735714Y2871429D01*
X13778571Y2785715D01*
X13864285Y2742858D01*
X13992857Y2742858D01*
X14078571Y2785715D01*
X14121428Y2828572D01*
X14550000Y3085715D02*
X15235714Y3085715D01*
X15664285Y2742858D02*
X15664285Y3642858D01*
X15664285Y3300000D02*
X15750000Y3342858D01*
X15921428Y3342858D01*
X16007142Y3300000D01*
X16050000Y3257143D01*
X16092857Y3171429D01*
X16092857Y2914286D01*
X16050000Y2828572D01*
X16007142Y2785715D01*
X15921428Y2742858D01*
X15750000Y2742858D01*
X15664285Y2785715D01*
X16607142Y2742858D02*
X16521428Y2785715D01*
X16478571Y2871429D01*
X16478571Y3642858D01*
X17078571Y2742858D02*
X16992857Y2785715D01*
X16950000Y2828572D01*
X16907142Y2914286D01*
X16907142Y3171429D01*
X16950000Y3257143D01*
X16992857Y3300000D01*
X17078571Y3342858D01*
X17207142Y3342858D01*
X17292857Y3300000D01*
X17335714Y3257143D01*
X17378571Y3171429D01*
X17378571Y2914286D01*
X17335714Y2828572D01*
X17292857Y2785715D01*
X17207142Y2742858D01*
X17078571Y2742858D01*
X17678571Y2742858D02*
X18150000Y3342858D01*
X17678571Y3342858D02*
X18150000Y2742858D01*
X19607142Y2742858D02*
X19178571Y2742858D01*
X19178571Y3642858D01*
X19907142Y3214286D02*
X20207142Y3214286D01*
X20335714Y2742858D02*
X19907142Y2742858D01*
X19907142Y3642858D01*
X20335714Y3642858D01*
X20678571Y3000000D02*
X21107142Y3000000D01*
X20592857Y2742858D02*
X20892857Y3642858D01*
X21192857Y2742858D01*
X21492857Y3085715D02*
X22178571Y3085715D01*
X22607142Y2742858D02*
X22607142Y3642858D01*
X22907142Y3000000D01*
X23207142Y3642858D01*
X23207142Y2742858D01*
X23764285Y3257143D02*
X23678571Y3300000D01*
X23635714Y3342858D01*
X23592857Y3428572D01*
X23592857Y3471429D01*
X23635714Y3557143D01*
X23678571Y3600000D01*
X23764285Y3642858D01*
X23935714Y3642858D01*
X24021428Y3600000D01*
X24064285Y3557143D01*
X24107142Y3471429D01*
X24107142Y3428572D01*
X24064285Y3342858D01*
X24021428Y3300000D01*
X23935714Y3257143D01*
X23764285Y3257143D01*
X23678571Y3214286D01*
X23635714Y3171429D01*
X23592857Y3085715D01*
X23592857Y2914286D01*
X23635714Y2828572D01*
X23678571Y2785715D01*
X23764285Y2742858D01*
X23935714Y2742858D01*
X24021428Y2785715D01*
X24064285Y2828572D01*
X24107142Y2914286D01*
X24107142Y3085715D01*
X24064285Y3171429D01*
X24021428Y3214286D01*
X23935714Y3257143D01*
X25478571Y3214286D02*
X25607142Y3171429D01*
X25650000Y3128572D01*
X25692857Y3042858D01*
X25692857Y2914286D01*
X25650000Y2828572D01*
X25607142Y2785715D01*
X25521428Y2742858D01*
X25178571Y2742858D01*
X25178571Y3642858D01*
X25478571Y3642858D01*
X25564285Y3600000D01*
X25607142Y3557143D01*
X25650000Y3471429D01*
X25650000Y3385715D01*
X25607142Y3300000D01*
X25564285Y3257143D01*
X25478571Y3214286D01*
X25178571Y3214286D01*
X26078571Y2742858D02*
X26078571Y3342858D01*
X26078571Y3171429D02*
X26121428Y3257143D01*
X26164285Y3300000D01*
X26250000Y3342858D01*
X26335714Y3342858D01*
X26978571Y2785715D02*
X26892857Y2742858D01*
X26721428Y2742858D01*
X26635714Y2785715D01*
X26592857Y2871429D01*
X26592857Y3214286D01*
X26635714Y3300000D01*
X26721428Y3342858D01*
X26892857Y3342858D01*
X26978571Y3300000D01*
X27021428Y3214286D01*
X27021428Y3128572D01*
X26592857Y3042858D01*
X27792857Y2742858D02*
X27792857Y3214286D01*
X27750000Y3300000D01*
X27664285Y3342858D01*
X27492857Y3342858D01*
X27407142Y3300000D01*
X27792857Y2785715D02*
X27707142Y2742858D01*
X27492857Y2742858D01*
X27407142Y2785715D01*
X27364285Y2871429D01*
X27364285Y2957143D01*
X27407142Y3042858D01*
X27492857Y3085715D01*
X27707142Y3085715D01*
X27792857Y3128572D01*
X28221428Y2742858D02*
X28221428Y3642858D01*
X28307142Y3085715D02*
X28564285Y2742858D01*
X28564285Y3342858D02*
X28221428Y3000000D01*
X29078571Y2742858D02*
X28992857Y2785715D01*
X28950000Y2828572D01*
X28907142Y2914286D01*
X28907142Y3171429D01*
X28950000Y3257143D01*
X28992857Y3300000D01*
X29078571Y3342858D01*
X29207142Y3342858D01*
X29292857Y3300000D01*
X29335714Y3257143D01*
X29378571Y3171429D01*
X29378571Y2914286D01*
X29335714Y2828572D01*
X29292857Y2785715D01*
X29207142Y2742858D01*
X29078571Y2742858D01*
X30150000Y3342858D02*
X30150000Y2742858D01*
X29764285Y3342858D02*
X29764285Y2871429D01*
X29807142Y2785715D01*
X29892857Y2742858D01*
X30021428Y2742858D01*
X30107142Y2785715D01*
X30150000Y2828572D01*
X30450000Y3342858D02*
X30792857Y3342858D01*
X30578571Y3642858D02*
X30578571Y2871429D01*
X30621428Y2785715D01*
X30707142Y2742858D01*
X30792857Y2742858D01*
X15878571Y1928572D02*
X15792857Y1971429D01*
X15621428Y1971429D01*
X15535714Y1928572D01*
X15450000Y1842858D01*
X15407142Y1757143D01*
X15407142Y1585715D01*
X15450000Y1500000D01*
X15535714Y1414286D01*
X15621428Y1371429D01*
X15792857Y1371429D01*
X15878571Y1414286D01*
X15707142Y2271429D02*
X15492857Y2228572D01*
X15278571Y2100000D01*
X15150000Y1885715D01*
X15107142Y1671429D01*
X15150000Y1457143D01*
X15278571Y1242858D01*
X15492857Y1114286D01*
X15707142Y1071429D01*
X15921428Y1114286D01*
X16135714Y1242858D01*
X16264285Y1457143D01*
X16307142Y1671429D01*
X16264285Y1885715D01*
X16135714Y2100000D01*
X15921428Y2228572D01*
X15707142Y2271429D01*
X16650000Y2057143D02*
X16692857Y2100000D01*
X16778571Y2142858D01*
X16992857Y2142858D01*
X17078571Y2100000D01*
X17121428Y2057143D01*
X17164285Y1971429D01*
X17164285Y1885715D01*
X17121428Y1757143D01*
X16607142Y1242858D01*
X17164285Y1242858D01*
X17721428Y2142858D02*
X17807142Y2142858D01*
X17892857Y2100000D01*
X17935714Y2057143D01*
X17978571Y1971429D01*
X18021428Y1800000D01*
X18021428Y1585715D01*
X17978571Y1414286D01*
X17935714Y1328572D01*
X17892857Y1285715D01*
X17807142Y1242858D01*
X17721428Y1242858D01*
X17635714Y1285715D01*
X17592857Y1328572D01*
X17550000Y1414286D01*
X17507142Y1585715D01*
X17507142Y1800000D01*
X17550000Y1971429D01*
X17592857Y2057143D01*
X17635714Y2100000D01*
X17721428Y2142858D01*
X18364285Y2057143D02*
X18407142Y2100000D01*
X18492857Y2142858D01*
X18707142Y2142858D01*
X18792857Y2100000D01*
X18835714Y2057143D01*
X18878571Y1971429D01*
X18878571Y1885715D01*
X18835714Y1757143D01*
X18321428Y1242858D01*
X18878571Y1242858D01*
X19435714Y2142858D02*
X19521428Y2142858D01*
X19607142Y2100000D01*
X19650000Y2057143D01*
X19692857Y1971429D01*
X19735714Y1800000D01*
X19735714Y1585715D01*
X19692857Y1414286D01*
X19650000Y1328572D01*
X19607142Y1285715D01*
X19521428Y1242858D01*
X19435714Y1242858D01*
X19350000Y1285715D01*
X19307142Y1328572D01*
X19264285Y1414286D01*
X19221428Y1585715D01*
X19221428Y1800000D01*
X19264285Y1971429D01*
X19307142Y2057143D01*
X19350000Y2100000D01*
X19435714Y2142858D01*
X20807142Y1242858D02*
X20807142Y2142858D01*
X21107142Y1500000D01*
X21407142Y2142858D01*
X21407142Y1242858D01*
X21835714Y1328572D02*
X21878571Y1285715D01*
X21835714Y1242858D01*
X21792857Y1285715D01*
X21835714Y1328572D01*
X21835714Y1242858D01*
X22864285Y2142858D02*
X23078571Y1242858D01*
X23250000Y1885715D01*
X23421428Y1242858D01*
X23635714Y2142858D01*
X24321428Y1285715D02*
X24235714Y1242858D01*
X24064285Y1242858D01*
X23978571Y1285715D01*
X23935714Y1371429D01*
X23935714Y1714286D01*
X23978571Y1800000D01*
X24064285Y1842858D01*
X24235714Y1842858D01*
X24321428Y1800000D01*
X24364285Y1714286D01*
X24364285Y1628572D01*
X23935714Y1542858D01*
X24878571Y1242858D02*
X24792857Y1285715D01*
X24750000Y1371429D01*
X24750000Y2142858D01*
X25135714Y1842858D02*
X25307142Y1242858D01*
X25478571Y1671429D01*
X25650000Y1242858D01*
X25821428Y1842858D01*
X26550000Y1242858D02*
X26550000Y1714286D01*
X26507142Y1800000D01*
X26421428Y1842858D01*
X26250000Y1842858D01*
X26164285Y1800000D01*
X26550000Y1285715D02*
X26464285Y1242858D01*
X26250000Y1242858D01*
X26164285Y1285715D01*
X26121428Y1371429D01*
X26121428Y1457143D01*
X26164285Y1542858D01*
X26250000Y1585715D01*
X26464285Y1585715D01*
X26550000Y1628572D01*
X26978571Y1242858D02*
X26978571Y1842858D01*
X26978571Y1671429D02*
X27021428Y1757143D01*
X27064285Y1800000D01*
X27150000Y1842858D01*
X27235714Y1842858D01*
X27492857Y1285715D02*
X27578571Y1242858D01*
X27750000Y1242858D01*
X27835714Y1285715D01*
X27878571Y1371429D01*
X27878571Y1414286D01*
X27835714Y1500000D01*
X27750000Y1542858D01*
X27621428Y1542858D01*
X27535714Y1585715D01*
X27492857Y1671429D01*
X27492857Y1714286D01*
X27535714Y1800000D01*
X27621428Y1842858D01*
X27750000Y1842858D01*
X27835714Y1800000D01*
X28264285Y1242858D02*
X28264285Y2142858D01*
X28350000Y1585715D02*
X28607142Y1242858D01*
X28607142Y1842858D02*
X28264285Y1500000D01*
X28907142Y1842858D02*
X29121428Y1242858D01*
X29335714Y1842858D02*
X29121428Y1242858D01*
X29035714Y1028572D01*
X28992857Y985715D01*
X28907142Y942858D01*
D12*
X8220000Y26940000D02*
X9150000Y26940000D01*
X11380000Y26940000D02*
X10450000Y26940000D01*
X11380000Y26940000D02*
X11380000Y29100000D01*
X8220000Y26940000D02*
X8220000Y28400000D01*
X7710000Y27840580D02*
X7710000Y27559420D01*
X6690000Y27840580D02*
X6690000Y27559420D01*
X8140580Y24590000D02*
X7859420Y24590000D01*
X8140580Y25610000D02*
X7859420Y25610000D01*
X25100000Y30335000D02*
X22815000Y30335000D01*
X22815000Y30335000D02*
X22815000Y28865000D01*
X22815000Y28865000D02*
X25100000Y28865000D01*
X25100000Y28735000D02*
X22815000Y28735000D01*
X22815000Y28735000D02*
X22815000Y27265000D01*
X22815000Y27265000D02*
X25100000Y27265000D01*
X38116117Y27898097D02*
X36701903Y26483883D01*
X36701903Y26483883D02*
X39459619Y23726167D01*
X38116117Y27898097D02*
X40873833Y25140381D01*
X41510000Y16140580D02*
X41510000Y15859420D01*
X40490000Y16140580D02*
X40490000Y15859420D01*
X42790000Y24610000D02*
X42790000Y24230000D01*
X46840000Y24610000D02*
X47100000Y24610000D01*
X42790000Y24610000D02*
X44560000Y24610000D01*
X42790000Y16990000D02*
X42790000Y17370000D01*
X44560000Y16990000D02*
X42790000Y16990000D01*
X47100000Y16990000D02*
X46840000Y16990000D01*
X20822500Y29037258D02*
X20822500Y28562742D01*
X19777500Y29037258D02*
X19777500Y28562742D01*
X19122500Y29037258D02*
X19122500Y28562742D01*
X18077500Y29037258D02*
X18077500Y28562742D01*
X34237258Y14477500D02*
X33762742Y14477500D01*
X34237258Y15522500D02*
X33762742Y15522500D01*
X33762742Y17122500D02*
X34237258Y17122500D01*
X33762742Y16077500D02*
X34237258Y16077500D01*
X9937604Y14900000D02*
X9937604Y16700000D01*
X6717604Y16700000D02*
X6717604Y14250000D01*
X7762742Y7322500D02*
X8237258Y7322500D01*
X7762742Y6277500D02*
X8237258Y6277500D01*
X7762742Y8922500D02*
X8237258Y8922500D01*
X7762742Y7877500D02*
X8237258Y7877500D01*
X7762742Y10552500D02*
X8237258Y10552500D01*
X7762742Y9507500D02*
X8237258Y9507500D01*
X670000Y3470000D02*
X5870000Y3470000D01*
X670000Y16230000D02*
X670000Y3470000D01*
X5870000Y18830000D02*
X5870000Y3470000D01*
X670000Y16230000D02*
X3270000Y16230000D01*
X3270000Y16230000D02*
X3270000Y18830000D01*
X3270000Y18830000D02*
X5870000Y18830000D01*
X670000Y17500000D02*
X670000Y18830000D01*
X670000Y18830000D02*
X2000000Y18830000D01*
X34037258Y21477500D02*
X33562742Y21477500D01*
X34037258Y22522500D02*
X33562742Y22522500D01*
X34037258Y23077500D02*
X33562742Y23077500D01*
X34037258Y24122500D02*
X33562742Y24122500D01*
X33762742Y13396500D02*
X34237258Y13396500D01*
X33762742Y12351500D02*
X34237258Y12351500D01*
X7762742Y24022500D02*
X8237258Y24022500D01*
X7762742Y22977500D02*
X8237258Y22977500D01*
X7762742Y22422500D02*
X8237258Y22422500D01*
X7762742Y21377500D02*
X8237258Y21377500D01*
X33562742Y25722500D02*
X34037258Y25722500D01*
X33562742Y24677500D02*
X34037258Y24677500D01*
X33859420Y11810000D02*
X34140580Y11810000D01*
X33859420Y10790000D02*
X34140580Y10790000D01*
X8140580Y19690000D02*
X7859420Y19690000D01*
X8140580Y20710000D02*
X7859420Y20710000D01*
X8140580Y18090000D02*
X7859420Y18090000D01*
X8140580Y19110000D02*
X7859420Y19110000D01*
X10490000Y16059420D02*
X10490000Y16340580D01*
X11510000Y16059420D02*
X11510000Y16340580D01*
X7859420Y13510000D02*
X8140580Y13510000D01*
X7859420Y12490000D02*
X8140580Y12490000D01*
X30810000Y26860000D02*
X30810000Y24860000D01*
X13590000Y26860000D02*
X30810000Y26860000D01*
X30810000Y15840000D02*
X30810000Y13360000D01*
X13590000Y6540000D02*
X13590000Y4240000D01*
X13590000Y4240000D02*
X30810000Y4240000D01*
X30810000Y6540000D02*
X30810000Y4240000D01*
X13590000Y15840000D02*
X13590000Y13360000D01*
X13590000Y26860000D02*
X13590000Y24860000D01*
X12900000Y24860000D02*
X13590000Y24860000D01*
X39120000Y11800000D02*
X39120000Y8200000D01*
X46480000Y11800000D02*
X46480000Y8200000D01*
X41000000Y6320000D02*
X44600000Y6320000D01*
X41000000Y13680000D02*
X44600000Y13680000D01*
X38900000Y18990000D02*
X40700000Y18990000D01*
X40700000Y22210000D02*
X38250000Y22210000D01*
D11*
X9038095Y30547620D02*
X9038095Y29738096D01*
X9085714Y29642858D01*
X9133333Y29595239D01*
X9228571Y29547620D01*
X9419047Y29547620D01*
X9514285Y29595239D01*
X9561904Y29642858D01*
X9609523Y29738096D01*
X9609523Y30547620D01*
X10514285Y30214286D02*
X10514285Y29547620D01*
X10276190Y30595239D02*
X10038095Y29880953D01*
X10657142Y29880953D01*
X7033333Y29642858D02*
X6985714Y29595239D01*
X6842857Y29547620D01*
X6747619Y29547620D01*
X6604761Y29595239D01*
X6509523Y29690477D01*
X6461904Y29785715D01*
X6414285Y29976191D01*
X6414285Y30119048D01*
X6461904Y30309524D01*
X6509523Y30404762D01*
X6604761Y30500000D01*
X6747619Y30547620D01*
X6842857Y30547620D01*
X6985714Y30500000D01*
X7033333Y30452381D01*
X7604761Y30119048D02*
X7509523Y30166667D01*
X7461904Y30214286D01*
X7414285Y30309524D01*
X7414285Y30357143D01*
X7461904Y30452381D01*
X7509523Y30500000D01*
X7604761Y30547620D01*
X7795238Y30547620D01*
X7890476Y30500000D01*
X7938095Y30452381D01*
X7985714Y30357143D01*
X7985714Y30309524D01*
X7938095Y30214286D01*
X7890476Y30166667D01*
X7795238Y30119048D01*
X7604761Y30119048D01*
X7509523Y30071429D01*
X7461904Y30023810D01*
X7414285Y29928572D01*
X7414285Y29738096D01*
X7461904Y29642858D01*
X7509523Y29595239D01*
X7604761Y29547620D01*
X7795238Y29547620D01*
X7890476Y29595239D01*
X7938095Y29642858D01*
X7985714Y29738096D01*
X7985714Y29928572D01*
X7938095Y30023810D01*
X7890476Y30071429D01*
X7795238Y30119048D01*
X10333333Y24742858D02*
X10285714Y24695239D01*
X10142857Y24647620D01*
X10047619Y24647620D01*
X9904761Y24695239D01*
X9809523Y24790477D01*
X9761904Y24885715D01*
X9714285Y25076191D01*
X9714285Y25219048D01*
X9761904Y25409524D01*
X9809523Y25504762D01*
X9904761Y25600000D01*
X10047619Y25647620D01*
X10142857Y25647620D01*
X10285714Y25600000D01*
X10333333Y25552381D01*
X10666666Y25647620D02*
X11333333Y25647620D01*
X10904761Y24647620D01*
X26261904Y29147620D02*
X26261904Y30147620D01*
X26500000Y30147620D01*
X26642857Y30100000D01*
X26738095Y30004762D01*
X26785714Y29909524D01*
X26833333Y29719048D01*
X26833333Y29576191D01*
X26785714Y29385715D01*
X26738095Y29290477D01*
X26642857Y29195239D01*
X26500000Y29147620D01*
X26261904Y29147620D01*
X27166666Y30147620D02*
X27785714Y30147620D01*
X27452380Y29766667D01*
X27595238Y29766667D01*
X27690476Y29719048D01*
X27738095Y29671429D01*
X27785714Y29576191D01*
X27785714Y29338096D01*
X27738095Y29242858D01*
X27690476Y29195239D01*
X27595238Y29147620D01*
X27309523Y29147620D01*
X27214285Y29195239D01*
X27166666Y29242858D01*
X26261904Y27547620D02*
X26261904Y28547620D01*
X26500000Y28547620D01*
X26642857Y28500000D01*
X26738095Y28404762D01*
X26785714Y28309524D01*
X26833333Y28119048D01*
X26833333Y27976191D01*
X26785714Y27785715D01*
X26738095Y27690477D01*
X26642857Y27595239D01*
X26500000Y27547620D01*
X26261904Y27547620D01*
X27214285Y28452381D02*
X27261904Y28500000D01*
X27357142Y28547620D01*
X27595238Y28547620D01*
X27690476Y28500000D01*
X27738095Y28452381D01*
X27785714Y28357143D01*
X27785714Y28261905D01*
X27738095Y28119048D01*
X27166666Y27547620D01*
X27785714Y27547620D01*
X39572420Y27216245D02*
X40279526Y27923352D01*
X40447885Y27754993D01*
X40515229Y27620306D01*
X40515229Y27485619D01*
X40481557Y27384604D01*
X40380542Y27216245D01*
X40279526Y27115230D01*
X40111168Y27014214D01*
X40010152Y26980543D01*
X39875465Y26980543D01*
X39740778Y27047886D01*
X39572420Y27216245D01*
X40649916Y26138749D02*
X40245855Y26542810D01*
X40447885Y26340779D02*
X41154992Y27047886D01*
X40986633Y27014214D01*
X40851946Y27014214D01*
X40750931Y27047886D01*
X39957142Y15833334D02*
X40004761Y15785715D01*
X40052380Y15642858D01*
X40052380Y15547620D01*
X40004761Y15404762D01*
X39909523Y15309524D01*
X39814285Y15261905D01*
X39623809Y15214286D01*
X39480952Y15214286D01*
X39290476Y15261905D01*
X39195238Y15309524D01*
X39100000Y15404762D01*
X39052380Y15547620D01*
X39052380Y15642858D01*
X39100000Y15785715D01*
X39147619Y15833334D01*
X39052380Y16690477D02*
X39052380Y16500000D01*
X39100000Y16404762D01*
X39147619Y16357143D01*
X39290476Y16261905D01*
X39480952Y16214286D01*
X39861904Y16214286D01*
X39957142Y16261905D01*
X40004761Y16309524D01*
X40052380Y16404762D01*
X40052380Y16595239D01*
X40004761Y16690477D01*
X39957142Y16738096D01*
X39861904Y16785715D01*
X39623809Y16785715D01*
X39528571Y16738096D01*
X39480952Y16690477D01*
X39433333Y16595239D01*
X39433333Y16404762D01*
X39480952Y16309524D01*
X39528571Y16261905D01*
X39623809Y16214286D01*
X45600000Y15892858D02*
X45600000Y15250000D01*
X45557142Y15121429D01*
X45471428Y15035715D01*
X45342857Y14992858D01*
X45257142Y14992858D01*
X46414285Y15592858D02*
X46414285Y14992858D01*
X46200000Y15935715D02*
X45985714Y15292858D01*
X46542857Y15292858D01*
X22207142Y28221429D02*
X21778571Y27921429D01*
X22207142Y27707143D02*
X21307142Y27707143D01*
X21307142Y28050000D01*
X21350000Y28135715D01*
X21392857Y28178572D01*
X21478571Y28221429D01*
X21607142Y28221429D01*
X21692857Y28178572D01*
X21735714Y28135715D01*
X21778571Y28050000D01*
X21778571Y27707143D01*
X22207142Y29078572D02*
X22207142Y28564286D01*
X22207142Y28821429D02*
X21307142Y28821429D01*
X21435714Y28735715D01*
X21521428Y28650000D01*
X21564285Y28564286D01*
X21307142Y29378572D02*
X21307142Y29935715D01*
X21650000Y29635715D01*
X21650000Y29764286D01*
X21692857Y29850000D01*
X21735714Y29892858D01*
X21821428Y29935715D01*
X22035714Y29935715D01*
X22121428Y29892858D01*
X22164285Y29850000D01*
X22207142Y29764286D01*
X22207142Y29507143D01*
X22164285Y29421429D01*
X22121428Y29378572D01*
X17607142Y28221429D02*
X17178571Y27921429D01*
X17607142Y27707143D02*
X16707142Y27707143D01*
X16707142Y28050000D01*
X16750000Y28135715D01*
X16792857Y28178572D01*
X16878571Y28221429D01*
X17007142Y28221429D01*
X17092857Y28178572D01*
X17135714Y28135715D01*
X17178571Y28050000D01*
X17178571Y27707143D01*
X17607142Y29078572D02*
X17607142Y28564286D01*
X17607142Y28821429D02*
X16707142Y28821429D01*
X16835714Y28735715D01*
X16921428Y28650000D01*
X16964285Y28564286D01*
X16792857Y29421429D02*
X16750000Y29464286D01*
X16707142Y29550000D01*
X16707142Y29764286D01*
X16750000Y29850000D01*
X16792857Y29892858D01*
X16878571Y29935715D01*
X16964285Y29935715D01*
X17092857Y29892858D01*
X17607142Y29378572D01*
X17607142Y29935715D01*
X36250000Y14592858D02*
X35950000Y15021429D01*
X35735714Y14592858D02*
X35735714Y15492858D01*
X36078571Y15492858D01*
X36164285Y15450000D01*
X36207142Y15407143D01*
X36250000Y15321429D01*
X36250000Y15192858D01*
X36207142Y15107143D01*
X36164285Y15064286D01*
X36078571Y15021429D01*
X35735714Y15021429D01*
X36678571Y14592858D02*
X36850000Y14592858D01*
X36935714Y14635715D01*
X36978571Y14678572D01*
X37064285Y14807143D01*
X37107142Y14978572D01*
X37107142Y15321429D01*
X37064285Y15407143D01*
X37021428Y15450000D01*
X36935714Y15492858D01*
X36764285Y15492858D01*
X36678571Y15450000D01*
X36635714Y15407143D01*
X36592857Y15321429D01*
X36592857Y15107143D01*
X36635714Y15021429D01*
X36678571Y14978572D01*
X36764285Y14935715D01*
X36935714Y14935715D01*
X37021428Y14978572D01*
X37064285Y15021429D01*
X37107142Y15107143D01*
X36250000Y16192858D02*
X35950000Y16621429D01*
X35735714Y16192858D02*
X35735714Y17092858D01*
X36078571Y17092858D01*
X36164285Y17050000D01*
X36207142Y17007143D01*
X36250000Y16921429D01*
X36250000Y16792858D01*
X36207142Y16707143D01*
X36164285Y16664286D01*
X36078571Y16621429D01*
X35735714Y16621429D01*
X36550000Y17092858D02*
X37150000Y17092858D01*
X36764285Y16192858D01*
X10414285Y13892858D02*
X10414285Y13164286D01*
X10457142Y13078572D01*
X10500000Y13035715D01*
X10585714Y12992858D01*
X10757142Y12992858D01*
X10842857Y13035715D01*
X10885714Y13078572D01*
X10928571Y13164286D01*
X10928571Y13892858D01*
X11828571Y12992858D02*
X11314285Y12992858D01*
X11571428Y12992858D02*
X11571428Y13892858D01*
X11485714Y13764286D01*
X11400000Y13678572D01*
X11314285Y13635715D01*
X10469428Y6392858D02*
X10169428Y6821429D01*
X9955142Y6392858D02*
X9955142Y7292858D01*
X10298000Y7292858D01*
X10383714Y7250000D01*
X10426571Y7207143D01*
X10469428Y7121429D01*
X10469428Y6992858D01*
X10426571Y6907143D01*
X10383714Y6864286D01*
X10298000Y6821429D01*
X9955142Y6821429D01*
X11326571Y6392858D02*
X10812285Y6392858D01*
X11069428Y6392858D02*
X11069428Y7292858D01*
X10983714Y7164286D01*
X10898000Y7078572D01*
X10812285Y7035715D01*
X12183714Y6392858D02*
X11669428Y6392858D01*
X11926571Y6392858D02*
X11926571Y7292858D01*
X11840857Y7164286D01*
X11755142Y7078572D01*
X11669428Y7035715D01*
X10469428Y7992858D02*
X10169428Y8421429D01*
X9955142Y7992858D02*
X9955142Y8892858D01*
X10298000Y8892858D01*
X10383714Y8850000D01*
X10426571Y8807143D01*
X10469428Y8721429D01*
X10469428Y8592858D01*
X10426571Y8507143D01*
X10383714Y8464286D01*
X10298000Y8421429D01*
X9955142Y8421429D01*
X11326571Y7992858D02*
X10812285Y7992858D01*
X11069428Y7992858D02*
X11069428Y8892858D01*
X10983714Y8764286D01*
X10898000Y8678572D01*
X10812285Y8635715D01*
X11883714Y8892858D02*
X11969428Y8892858D01*
X12055142Y8850000D01*
X12098000Y8807143D01*
X12140857Y8721429D01*
X12183714Y8550000D01*
X12183714Y8335715D01*
X12140857Y8164286D01*
X12098000Y8078572D01*
X12055142Y8035715D01*
X11969428Y7992858D01*
X11883714Y7992858D01*
X11798000Y8035715D01*
X11755142Y8078572D01*
X11712285Y8164286D01*
X11669428Y8335715D01*
X11669428Y8550000D01*
X11712285Y8721429D01*
X11755142Y8807143D01*
X11798000Y8850000D01*
X11883714Y8892858D01*
X10390000Y9622858D02*
X10090000Y10051429D01*
X9875714Y9622858D02*
X9875714Y10522858D01*
X10218571Y10522858D01*
X10304285Y10480000D01*
X10347142Y10437143D01*
X10390000Y10351429D01*
X10390000Y10222858D01*
X10347142Y10137143D01*
X10304285Y10094286D01*
X10218571Y10051429D01*
X9875714Y10051429D01*
X10904285Y10137143D02*
X10818571Y10180000D01*
X10775714Y10222858D01*
X10732857Y10308572D01*
X10732857Y10351429D01*
X10775714Y10437143D01*
X10818571Y10480000D01*
X10904285Y10522858D01*
X11075714Y10522858D01*
X11161428Y10480000D01*
X11204285Y10437143D01*
X11247142Y10351429D01*
X11247142Y10308572D01*
X11204285Y10222858D01*
X11161428Y10180000D01*
X11075714Y10137143D01*
X10904285Y10137143D01*
X10818571Y10094286D01*
X10775714Y10051429D01*
X10732857Y9965715D01*
X10732857Y9794286D01*
X10775714Y9708572D01*
X10818571Y9665715D01*
X10904285Y9622858D01*
X11075714Y9622858D01*
X11161428Y9665715D01*
X11204285Y9708572D01*
X11247142Y9794286D01*
X11247142Y9965715D01*
X11204285Y10051429D01*
X11161428Y10094286D01*
X11075714Y10137143D01*
X2970000Y20322858D02*
X2970000Y19680000D01*
X2927142Y19551429D01*
X2841428Y19465715D01*
X2712857Y19422858D01*
X2627142Y19422858D01*
X3870000Y19422858D02*
X3355714Y19422858D01*
X3612857Y19422858D02*
X3612857Y20322858D01*
X3527142Y20194286D01*
X3441428Y20108572D01*
X3355714Y20065715D01*
X36250000Y21592858D02*
X35950000Y22021429D01*
X35735714Y21592858D02*
X35735714Y22492858D01*
X36078571Y22492858D01*
X36164285Y22450000D01*
X36207142Y22407143D01*
X36250000Y22321429D01*
X36250000Y22192858D01*
X36207142Y22107143D01*
X36164285Y22064286D01*
X36078571Y22021429D01*
X35735714Y22021429D01*
X37021428Y22492858D02*
X36850000Y22492858D01*
X36764285Y22450000D01*
X36721428Y22407143D01*
X36635714Y22278572D01*
X36592857Y22107143D01*
X36592857Y21764286D01*
X36635714Y21678572D01*
X36678571Y21635715D01*
X36764285Y21592858D01*
X36935714Y21592858D01*
X37021428Y21635715D01*
X37064285Y21678572D01*
X37107142Y21764286D01*
X37107142Y21978572D01*
X37064285Y22064286D01*
X37021428Y22107143D01*
X36935714Y22150000D01*
X36764285Y22150000D01*
X36678571Y22107143D01*
X36635714Y22064286D01*
X36592857Y21978572D01*
X36250000Y23192858D02*
X35950000Y23621429D01*
X35735714Y23192858D02*
X35735714Y24092858D01*
X36078571Y24092858D01*
X36164285Y24050000D01*
X36207142Y24007143D01*
X36250000Y23921429D01*
X36250000Y23792858D01*
X36207142Y23707143D01*
X36164285Y23664286D01*
X36078571Y23621429D01*
X35735714Y23621429D01*
X37064285Y24092858D02*
X36635714Y24092858D01*
X36592857Y23664286D01*
X36635714Y23707143D01*
X36721428Y23750000D01*
X36935714Y23750000D01*
X37021428Y23707143D01*
X37064285Y23664286D01*
X37107142Y23578572D01*
X37107142Y23364286D01*
X37064285Y23278572D01*
X37021428Y23235715D01*
X36935714Y23192858D01*
X36721428Y23192858D01*
X36635714Y23235715D01*
X36592857Y23278572D01*
X36250000Y12392858D02*
X35950000Y12821429D01*
X35735714Y12392858D02*
X35735714Y13292858D01*
X36078571Y13292858D01*
X36164285Y13250000D01*
X36207142Y13207143D01*
X36250000Y13121429D01*
X36250000Y12992858D01*
X36207142Y12907143D01*
X36164285Y12864286D01*
X36078571Y12821429D01*
X35735714Y12821429D01*
X37021428Y12992858D02*
X37021428Y12392858D01*
X36807142Y13335715D02*
X36592857Y12692858D01*
X37150000Y12692858D01*
X10390000Y23092858D02*
X10090000Y23521429D01*
X9875714Y23092858D02*
X9875714Y23992858D01*
X10218571Y23992858D01*
X10304285Y23950000D01*
X10347142Y23907143D01*
X10390000Y23821429D01*
X10390000Y23692858D01*
X10347142Y23607143D01*
X10304285Y23564286D01*
X10218571Y23521429D01*
X9875714Y23521429D01*
X10690000Y23992858D02*
X11247142Y23992858D01*
X10947142Y23650000D01*
X11075714Y23650000D01*
X11161428Y23607143D01*
X11204285Y23564286D01*
X11247142Y23478572D01*
X11247142Y23264286D01*
X11204285Y23178572D01*
X11161428Y23135715D01*
X11075714Y23092858D01*
X10818571Y23092858D01*
X10732857Y23135715D01*
X10690000Y23178572D01*
X10390000Y21492858D02*
X10090000Y21921429D01*
X9875714Y21492858D02*
X9875714Y22392858D01*
X10218571Y22392858D01*
X10304285Y22350000D01*
X10347142Y22307143D01*
X10390000Y22221429D01*
X10390000Y22092858D01*
X10347142Y22007143D01*
X10304285Y21964286D01*
X10218571Y21921429D01*
X9875714Y21921429D01*
X10732857Y22307143D02*
X10775714Y22350000D01*
X10861428Y22392858D01*
X11075714Y22392858D01*
X11161428Y22350000D01*
X11204285Y22307143D01*
X11247142Y22221429D01*
X11247142Y22135715D01*
X11204285Y22007143D01*
X10690000Y21492858D01*
X11247142Y21492858D01*
X36250000Y24792858D02*
X35950000Y25221429D01*
X35735714Y24792858D02*
X35735714Y25692858D01*
X36078571Y25692858D01*
X36164285Y25650000D01*
X36207142Y25607143D01*
X36250000Y25521429D01*
X36250000Y25392858D01*
X36207142Y25307143D01*
X36164285Y25264286D01*
X36078571Y25221429D01*
X35735714Y25221429D01*
X37107142Y24792858D02*
X36592857Y24792858D01*
X36850000Y24792858D02*
X36850000Y25692858D01*
X36764285Y25564286D01*
X36678571Y25478572D01*
X36592857Y25435715D01*
X36250000Y10878572D02*
X36207142Y10835715D01*
X36078571Y10792858D01*
X35992857Y10792858D01*
X35864285Y10835715D01*
X35778571Y10921429D01*
X35735714Y11007143D01*
X35692857Y11178572D01*
X35692857Y11307143D01*
X35735714Y11478572D01*
X35778571Y11564286D01*
X35864285Y11650000D01*
X35992857Y11692858D01*
X36078571Y11692858D01*
X36207142Y11650000D01*
X36250000Y11607143D01*
X37064285Y11692858D02*
X36635714Y11692858D01*
X36592857Y11264286D01*
X36635714Y11307143D01*
X36721428Y11350000D01*
X36935714Y11350000D01*
X37021428Y11307143D01*
X37064285Y11264286D01*
X37107142Y11178572D01*
X37107142Y10964286D01*
X37064285Y10878572D01*
X37021428Y10835715D01*
X36935714Y10792858D01*
X36721428Y10792858D01*
X36635714Y10835715D01*
X36592857Y10878572D01*
X10390000Y19878572D02*
X10347142Y19835715D01*
X10218571Y19792858D01*
X10132857Y19792858D01*
X10004285Y19835715D01*
X9918571Y19921429D01*
X9875714Y20007143D01*
X9832857Y20178572D01*
X9832857Y20307143D01*
X9875714Y20478572D01*
X9918571Y20564286D01*
X10004285Y20650000D01*
X10132857Y20692858D01*
X10218571Y20692858D01*
X10347142Y20650000D01*
X10390000Y20607143D01*
X11161428Y20392858D02*
X11161428Y19792858D01*
X10947142Y20735715D02*
X10732857Y20092858D01*
X11290000Y20092858D01*
X10450000Y18278572D02*
X10407142Y18235715D01*
X10278571Y18192858D01*
X10192857Y18192858D01*
X10064285Y18235715D01*
X9978571Y18321429D01*
X9935714Y18407143D01*
X9892857Y18578572D01*
X9892857Y18707143D01*
X9935714Y18878572D01*
X9978571Y18964286D01*
X10064285Y19050000D01*
X10192857Y19092858D01*
X10278571Y19092858D01*
X10407142Y19050000D01*
X10450000Y19007143D01*
X10750000Y19092858D02*
X11307142Y19092858D01*
X11007142Y18750000D01*
X11135714Y18750000D01*
X11221428Y18707143D01*
X11264285Y18664286D01*
X11307142Y18578572D01*
X11307142Y18364286D01*
X11264285Y18278572D01*
X11221428Y18235715D01*
X11135714Y18192858D01*
X10878571Y18192858D01*
X10792857Y18235715D01*
X10750000Y18278572D01*
X12450000Y14678572D02*
X12407142Y14635715D01*
X12278571Y14592858D01*
X12192857Y14592858D01*
X12064285Y14635715D01*
X11978571Y14721429D01*
X11935714Y14807143D01*
X11892857Y14978572D01*
X11892857Y15107143D01*
X11935714Y15278572D01*
X11978571Y15364286D01*
X12064285Y15450000D01*
X12192857Y15492858D01*
X12278571Y15492858D01*
X12407142Y15450000D01*
X12450000Y15407143D01*
X12792857Y15407143D02*
X12835714Y15450000D01*
X12921428Y15492858D01*
X13135714Y15492858D01*
X13221428Y15450000D01*
X13264285Y15407143D01*
X13307142Y15321429D01*
X13307142Y15235715D01*
X13264285Y15107143D01*
X12750000Y14592858D01*
X13307142Y14592858D01*
X7850000Y11278572D02*
X7807142Y11235715D01*
X7678571Y11192858D01*
X7592857Y11192858D01*
X7464285Y11235715D01*
X7378571Y11321429D01*
X7335714Y11407143D01*
X7292857Y11578572D01*
X7292857Y11707143D01*
X7335714Y11878572D01*
X7378571Y11964286D01*
X7464285Y12050000D01*
X7592857Y12092858D01*
X7678571Y12092858D01*
X7807142Y12050000D01*
X7850000Y12007143D01*
X8707142Y11192858D02*
X8192857Y11192858D01*
X8450000Y11192858D02*
X8450000Y12092858D01*
X8364285Y11964286D01*
X8278571Y11878572D01*
X8192857Y11835715D01*
X13714285Y28192858D02*
X13714285Y27464286D01*
X13757142Y27378572D01*
X13800000Y27335715D01*
X13885714Y27292858D01*
X14057142Y27292858D01*
X14142857Y27335715D01*
X14185714Y27378572D01*
X14228571Y27464286D01*
X14228571Y28192858D01*
X14614285Y28107143D02*
X14657142Y28150000D01*
X14742857Y28192858D01*
X14957142Y28192858D01*
X15042857Y28150000D01*
X15085714Y28107143D01*
X15128571Y28021429D01*
X15128571Y27935715D01*
X15085714Y27807143D01*
X14571428Y27292858D01*
X15128571Y27292858D01*
X42500000Y15572858D02*
X42500000Y14930000D01*
X42457142Y14801429D01*
X42371428Y14715715D01*
X42242857Y14672858D01*
X42157142Y14672858D01*
X42842857Y15572858D02*
X43400000Y15572858D01*
X43100000Y15230000D01*
X43228571Y15230000D01*
X43314285Y15187143D01*
X43357142Y15144286D01*
X43400000Y15058572D01*
X43400000Y14844286D01*
X43357142Y14758572D01*
X43314285Y14715715D01*
X43228571Y14672858D01*
X42971428Y14672858D01*
X42885714Y14715715D01*
X42842857Y14758572D01*
X37714285Y23492858D02*
X37714285Y22764286D01*
X37757142Y22678572D01*
X37800000Y22635715D01*
X37885714Y22592858D01*
X38057142Y22592858D01*
X38142857Y22635715D01*
X38185714Y22678572D01*
X38228571Y22764286D01*
X38228571Y23492858D01*
X38571428Y23492858D02*
X39128571Y23492858D01*
X38828571Y23150000D01*
X38957142Y23150000D01*
X39042857Y23107143D01*
X39085714Y23064286D01*
X39128571Y22978572D01*
X39128571Y22764286D01*
X39085714Y22678572D01*
X39042857Y22635715D01*
X38957142Y22592858D01*
X38700000Y22592858D01*
X38614285Y22635715D01*
X38571428Y22678572D01*
%LPC*%
D13*
X9800000Y26700000D03*
X8850000Y28700000D03*
X10750000Y28700000D03*
G36*
G01*
X6950000Y27375000D02*
X7450000Y27375000D01*
G75*
G02*
X7675000Y27150000I0J-225000D01*
G01*
X7675000Y26700000D01*
G75*
G02*
X7450000Y26475000I-225000J0D01*
G01*
X6950000Y26475000D01*
G75*
G02*
X6725000Y26700000I0J225000D01*
G01*
X6725000Y27150000D01*
G75*
G02*
X6950000Y27375000I225000J0D01*
G01*
G37*
G36*
G01*
X6950000Y28925000D02*
X7450000Y28925000D01*
G75*
G02*
X7675000Y28700000I0J-225000D01*
G01*
X7675000Y28250000D01*
G75*
G02*
X7450000Y28025000I-225000J0D01*
G01*
X6950000Y28025000D01*
G75*
G02*
X6725000Y28250000I0J225000D01*
G01*
X6725000Y28700000D01*
G75*
G02*
X6950000Y28925000I225000J0D01*
G01*
G37*
G36*
G01*
X7675000Y25350000D02*
X7675000Y24850000D01*
G75*
G02*
X7450000Y24625000I-225000J0D01*
G01*
X7000000Y24625000D01*
G75*
G02*
X6775000Y24850000I0J225000D01*
G01*
X6775000Y25350000D01*
G75*
G02*
X7000000Y25575000I225000J0D01*
G01*
X7450000Y25575000D01*
G75*
G02*
X7675000Y25350000I0J-225000D01*
G01*
G37*
G36*
G01*
X9225000Y25350000D02*
X9225000Y24850000D01*
G75*
G02*
X9000000Y24625000I-225000J0D01*
G01*
X8550000Y24625000D01*
G75*
G02*
X8325000Y24850000I0J225000D01*
G01*
X8325000Y25350000D01*
G75*
G02*
X8550000Y25575000I225000J0D01*
G01*
X9000000Y25575000D01*
G75*
G02*
X9225000Y25350000I0J-225000D01*
G01*
G37*
G36*
G01*
X24650000Y29343750D02*
X24650000Y29856250D01*
G75*
G02*
X24868750Y30075000I218750J0D01*
G01*
X25306250Y30075000D01*
G75*
G02*
X25525000Y29856250I0J-218750D01*
G01*
X25525000Y29343750D01*
G75*
G02*
X25306250Y29125000I-218750J0D01*
G01*
X24868750Y29125000D01*
G75*
G02*
X24650000Y29343750I0J218750D01*
G01*
G37*
G36*
G01*
X23075000Y29343750D02*
X23075000Y29856250D01*
G75*
G02*
X23293750Y30075000I218750J0D01*
G01*
X23731250Y30075000D01*
G75*
G02*
X23950000Y29856250I0J-218750D01*
G01*
X23950000Y29343750D01*
G75*
G02*
X23731250Y29125000I-218750J0D01*
G01*
X23293750Y29125000D01*
G75*
G02*
X23075000Y29343750I0J218750D01*
G01*
G37*
G36*
G01*
X24650000Y27743750D02*
X24650000Y28256250D01*
G75*
G02*
X24868750Y28475000I218750J0D01*
G01*
X25306250Y28475000D01*
G75*
G02*
X25525000Y28256250I0J-218750D01*
G01*
X25525000Y27743750D01*
G75*
G02*
X25306250Y27525000I-218750J0D01*
G01*
X24868750Y27525000D01*
G75*
G02*
X24650000Y27743750I0J218750D01*
G01*
G37*
G36*
G01*
X23075000Y27743750D02*
X23075000Y28256250D01*
G75*
G02*
X23293750Y28475000I218750J0D01*
G01*
X23731250Y28475000D01*
G75*
G02*
X23950000Y28256250I0J-218750D01*
G01*
X23950000Y27743750D01*
G75*
G02*
X23731250Y27525000I-218750J0D01*
G01*
X23293750Y27525000D01*
G75*
G02*
X23075000Y27743750I0J218750D01*
G01*
G37*
D14*
G36*
X39424264Y24327208D02*
G01*
X40272792Y25175736D01*
X40909188Y24539340D01*
X40060660Y23690812D01*
X39424264Y24327208D01*
G37*
G36*
X37090812Y26660660D02*
G01*
X37939340Y27509188D01*
X38575736Y26872792D01*
X37727208Y26024264D01*
X37090812Y26660660D01*
G37*
G36*
G01*
X40750000Y15675000D02*
X41250000Y15675000D01*
G75*
G02*
X41475000Y15450000I0J-225000D01*
G01*
X41475000Y15000000D01*
G75*
G02*
X41250000Y14775000I-225000J0D01*
G01*
X40750000Y14775000D01*
G75*
G02*
X40525000Y15000000I0J225000D01*
G01*
X40525000Y15450000D01*
G75*
G02*
X40750000Y15675000I225000J0D01*
G01*
G37*
G36*
G01*
X40750000Y17225000D02*
X41250000Y17225000D01*
G75*
G02*
X41475000Y17000000I0J-225000D01*
G01*
X41475000Y16550000D01*
G75*
G02*
X41250000Y16325000I-225000J0D01*
G01*
X40750000Y16325000D01*
G75*
G02*
X40525000Y16550000I0J225000D01*
G01*
X40525000Y17000000D01*
G75*
G02*
X40750000Y17225000I225000J0D01*
G01*
G37*
D15*
X45700000Y22350000D03*
D16*
X45700000Y19650000D03*
D17*
X45700000Y24175000D03*
X45700000Y17425000D03*
D18*
X43125000Y23287500D03*
X43125000Y18312500D03*
D19*
X43040000Y22100000D03*
X43040000Y21450000D03*
X43040000Y20800000D03*
X43040000Y20150000D03*
X43040000Y19500000D03*
G36*
G01*
X20025000Y28375000D02*
X20575000Y28375000D01*
G75*
G02*
X20775000Y28175000I0J-200000D01*
G01*
X20775000Y27775000D01*
G75*
G02*
X20575000Y27575000I-200000J0D01*
G01*
X20025000Y27575000D01*
G75*
G02*
X19825000Y27775000I0J200000D01*
G01*
X19825000Y28175000D01*
G75*
G02*
X20025000Y28375000I200000J0D01*
G01*
G37*
G36*
G01*
X20025000Y30025000D02*
X20575000Y30025000D01*
G75*
G02*
X20775000Y29825000I0J-200000D01*
G01*
X20775000Y29425000D01*
G75*
G02*
X20575000Y29225000I-200000J0D01*
G01*
X20025000Y29225000D01*
G75*
G02*
X19825000Y29425000I0J200000D01*
G01*
X19825000Y29825000D01*
G75*
G02*
X20025000Y30025000I200000J0D01*
G01*
G37*
G36*
G01*
X18325000Y28375000D02*
X18875000Y28375000D01*
G75*
G02*
X19075000Y28175000I0J-200000D01*
G01*
X19075000Y27775000D01*
G75*
G02*
X18875000Y27575000I-200000J0D01*
G01*
X18325000Y27575000D01*
G75*
G02*
X18125000Y27775000I0J200000D01*
G01*
X18125000Y28175000D01*
G75*
G02*
X18325000Y28375000I200000J0D01*
G01*
G37*
G36*
G01*
X18325000Y30025000D02*
X18875000Y30025000D01*
G75*
G02*
X19075000Y29825000I0J-200000D01*
G01*
X19075000Y29425000D01*
G75*
G02*
X18875000Y29225000I-200000J0D01*
G01*
X18325000Y29225000D01*
G75*
G02*
X18125000Y29425000I0J200000D01*
G01*
X18125000Y29825000D01*
G75*
G02*
X18325000Y30025000I200000J0D01*
G01*
G37*
D20*
X10816726Y4166726D03*
X9650000Y4650000D03*
X8483274Y4166726D03*
X8000000Y3000000D03*
X8483274Y1833274D03*
X9650000Y1350000D03*
X10816726Y1833274D03*
X11300000Y3000000D03*
D21*
X9650000Y3000000D03*
D20*
X45366726Y4166726D03*
X44200000Y4650000D03*
X43033274Y4166726D03*
X42550000Y3000000D03*
X43033274Y1833274D03*
X44200000Y1350000D03*
X45366726Y1833274D03*
X45850000Y3000000D03*
D21*
X44200000Y3000000D03*
D20*
X45366726Y29366726D03*
X44200000Y29850000D03*
X43033274Y29366726D03*
X42550000Y28200000D03*
X43033274Y27033274D03*
X44200000Y26550000D03*
X45366726Y27033274D03*
X45850000Y28200000D03*
D21*
X44200000Y28200000D03*
D20*
X4166726Y29366726D03*
X3000000Y29850000D03*
X1833274Y29366726D03*
X1350000Y28200000D03*
X1833274Y27033274D03*
X3000000Y26550000D03*
X4166726Y27033274D03*
X4650000Y28200000D03*
D21*
X3000000Y28200000D03*
G36*
G01*
X33575000Y15275000D02*
X33575000Y14725000D01*
G75*
G02*
X33375000Y14525000I-200000J0D01*
G01*
X32975000Y14525000D01*
G75*
G02*
X32775000Y14725000I0J200000D01*
G01*
X32775000Y15275000D01*
G75*
G02*
X32975000Y15475000I200000J0D01*
G01*
X33375000Y15475000D01*
G75*
G02*
X33575000Y15275000I0J-200000D01*
G01*
G37*
G36*
G01*
X35225000Y15275000D02*
X35225000Y14725000D01*
G75*
G02*
X35025000Y14525000I-200000J0D01*
G01*
X34625000Y14525000D01*
G75*
G02*
X34425000Y14725000I0J200000D01*
G01*
X34425000Y15275000D01*
G75*
G02*
X34625000Y15475000I200000J0D01*
G01*
X35025000Y15475000D01*
G75*
G02*
X35225000Y15275000I0J-200000D01*
G01*
G37*
G36*
G01*
X34425000Y16325000D02*
X34425000Y16875000D01*
G75*
G02*
X34625000Y17075000I200000J0D01*
G01*
X35025000Y17075000D01*
G75*
G02*
X35225000Y16875000I0J-200000D01*
G01*
X35225000Y16325000D01*
G75*
G02*
X35025000Y16125000I-200000J0D01*
G01*
X34625000Y16125000D01*
G75*
G02*
X34425000Y16325000I0J200000D01*
G01*
G37*
G36*
G01*
X32775000Y16325000D02*
X32775000Y16875000D01*
G75*
G02*
X32975000Y17075000I200000J0D01*
G01*
X33375000Y17075000D01*
G75*
G02*
X33575000Y16875000I0J-200000D01*
G01*
X33575000Y16325000D01*
G75*
G02*
X33375000Y16125000I-200000J0D01*
G01*
X32975000Y16125000D01*
G75*
G02*
X32775000Y16325000I0J200000D01*
G01*
G37*
D22*
X7377604Y16900000D03*
X9277604Y16900000D03*
X9277604Y14700000D03*
X8327604Y14700000D03*
X7377604Y14700000D03*
G36*
G01*
X8425000Y6525000D02*
X8425000Y7075000D01*
G75*
G02*
X8625000Y7275000I200000J0D01*
G01*
X9025000Y7275000D01*
G75*
G02*
X9225000Y7075000I0J-200000D01*
G01*
X9225000Y6525000D01*
G75*
G02*
X9025000Y6325000I-200000J0D01*
G01*
X8625000Y6325000D01*
G75*
G02*
X8425000Y6525000I0J200000D01*
G01*
G37*
G36*
G01*
X6775000Y6525000D02*
X6775000Y7075000D01*
G75*
G02*
X6975000Y7275000I200000J0D01*
G01*
X7375000Y7275000D01*
G75*
G02*
X7575000Y7075000I0J-200000D01*
G01*
X7575000Y6525000D01*
G75*
G02*
X7375000Y6325000I-200000J0D01*
G01*
X6975000Y6325000D01*
G75*
G02*
X6775000Y6525000I0J200000D01*
G01*
G37*
G36*
G01*
X8425000Y8125000D02*
X8425000Y8675000D01*
G75*
G02*
X8625000Y8875000I200000J0D01*
G01*
X9025000Y8875000D01*
G75*
G02*
X9225000Y8675000I0J-200000D01*
G01*
X9225000Y8125000D01*
G75*
G02*
X9025000Y7925000I-200000J0D01*
G01*
X8625000Y7925000D01*
G75*
G02*
X8425000Y8125000I0J200000D01*
G01*
G37*
G36*
G01*
X6775000Y8125000D02*
X6775000Y8675000D01*
G75*
G02*
X6975000Y8875000I200000J0D01*
G01*
X7375000Y8875000D01*
G75*
G02*
X7575000Y8675000I0J-200000D01*
G01*
X7575000Y8125000D01*
G75*
G02*
X7375000Y7925000I-200000J0D01*
G01*
X6975000Y7925000D01*
G75*
G02*
X6775000Y8125000I0J200000D01*
G01*
G37*
G36*
G01*
X8425000Y9755000D02*
X8425000Y10305000D01*
G75*
G02*
X8625000Y10505000I200000J0D01*
G01*
X9025000Y10505000D01*
G75*
G02*
X9225000Y10305000I0J-200000D01*
G01*
X9225000Y9755000D01*
G75*
G02*
X9025000Y9555000I-200000J0D01*
G01*
X8625000Y9555000D01*
G75*
G02*
X8425000Y9755000I0J200000D01*
G01*
G37*
G36*
G01*
X6775000Y9755000D02*
X6775000Y10305000D01*
G75*
G02*
X6975000Y10505000I200000J0D01*
G01*
X7375000Y10505000D01*
G75*
G02*
X7575000Y10305000I0J-200000D01*
G01*
X7575000Y9755000D01*
G75*
G02*
X7375000Y9555000I-200000J0D01*
G01*
X6975000Y9555000D01*
G75*
G02*
X6775000Y9755000I0J200000D01*
G01*
G37*
D23*
X4540000Y4800000D03*
X2000000Y4800000D03*
X4540000Y7340000D03*
X2000000Y7340000D03*
X4540000Y9880000D03*
X2000000Y9880000D03*
X4540000Y12420000D03*
X2000000Y12420000D03*
X4540000Y14960000D03*
X2000000Y14960000D03*
X4540000Y17500000D03*
D24*
X2000000Y17500000D03*
G36*
G01*
X33375000Y22275000D02*
X33375000Y21725000D01*
G75*
G02*
X33175000Y21525000I-200000J0D01*
G01*
X32775000Y21525000D01*
G75*
G02*
X32575000Y21725000I0J200000D01*
G01*
X32575000Y22275000D01*
G75*
G02*
X32775000Y22475000I200000J0D01*
G01*
X33175000Y22475000D01*
G75*
G02*
X33375000Y22275000I0J-200000D01*
G01*
G37*
G36*
G01*
X35025000Y22275000D02*
X35025000Y21725000D01*
G75*
G02*
X34825000Y21525000I-200000J0D01*
G01*
X34425000Y21525000D01*
G75*
G02*
X34225000Y21725000I0J200000D01*
G01*
X34225000Y22275000D01*
G75*
G02*
X34425000Y22475000I200000J0D01*
G01*
X34825000Y22475000D01*
G75*
G02*
X35025000Y22275000I0J-200000D01*
G01*
G37*
G36*
G01*
X33375000Y23875000D02*
X33375000Y23325000D01*
G75*
G02*
X33175000Y23125000I-200000J0D01*
G01*
X32775000Y23125000D01*
G75*
G02*
X32575000Y23325000I0J200000D01*
G01*
X32575000Y23875000D01*
G75*
G02*
X32775000Y24075000I200000J0D01*
G01*
X33175000Y24075000D01*
G75*
G02*
X33375000Y23875000I0J-200000D01*
G01*
G37*
G36*
G01*
X35025000Y23875000D02*
X35025000Y23325000D01*
G75*
G02*
X34825000Y23125000I-200000J0D01*
G01*
X34425000Y23125000D01*
G75*
G02*
X34225000Y23325000I0J200000D01*
G01*
X34225000Y23875000D01*
G75*
G02*
X34425000Y24075000I200000J0D01*
G01*
X34825000Y24075000D01*
G75*
G02*
X35025000Y23875000I0J-200000D01*
G01*
G37*
G36*
G01*
X34425000Y12599000D02*
X34425000Y13149000D01*
G75*
G02*
X34625000Y13349000I200000J0D01*
G01*
X35025000Y13349000D01*
G75*
G02*
X35225000Y13149000I0J-200000D01*
G01*
X35225000Y12599000D01*
G75*
G02*
X35025000Y12399000I-200000J0D01*
G01*
X34625000Y12399000D01*
G75*
G02*
X34425000Y12599000I0J200000D01*
G01*
G37*
G36*
G01*
X32775000Y12599000D02*
X32775000Y13149000D01*
G75*
G02*
X32975000Y13349000I200000J0D01*
G01*
X33375000Y13349000D01*
G75*
G02*
X33575000Y13149000I0J-200000D01*
G01*
X33575000Y12599000D01*
G75*
G02*
X33375000Y12399000I-200000J0D01*
G01*
X32975000Y12399000D01*
G75*
G02*
X32775000Y12599000I0J200000D01*
G01*
G37*
G36*
G01*
X8425000Y23225000D02*
X8425000Y23775000D01*
G75*
G02*
X8625000Y23975000I200000J0D01*
G01*
X9025000Y23975000D01*
G75*
G02*
X9225000Y23775000I0J-200000D01*
G01*
X9225000Y23225000D01*
G75*
G02*
X9025000Y23025000I-200000J0D01*
G01*
X8625000Y23025000D01*
G75*
G02*
X8425000Y23225000I0J200000D01*
G01*
G37*
G36*
G01*
X6775000Y23225000D02*
X6775000Y23775000D01*
G75*
G02*
X6975000Y23975000I200000J0D01*
G01*
X7375000Y23975000D01*
G75*
G02*
X7575000Y23775000I0J-200000D01*
G01*
X7575000Y23225000D01*
G75*
G02*
X7375000Y23025000I-200000J0D01*
G01*
X6975000Y23025000D01*
G75*
G02*
X6775000Y23225000I0J200000D01*
G01*
G37*
G36*
G01*
X8425000Y21625000D02*
X8425000Y22175000D01*
G75*
G02*
X8625000Y22375000I200000J0D01*
G01*
X9025000Y22375000D01*
G75*
G02*
X9225000Y22175000I0J-200000D01*
G01*
X9225000Y21625000D01*
G75*
G02*
X9025000Y21425000I-200000J0D01*
G01*
X8625000Y21425000D01*
G75*
G02*
X8425000Y21625000I0J200000D01*
G01*
G37*
G36*
G01*
X6775000Y21625000D02*
X6775000Y22175000D01*
G75*
G02*
X6975000Y22375000I200000J0D01*
G01*
X7375000Y22375000D01*
G75*
G02*
X7575000Y22175000I0J-200000D01*
G01*
X7575000Y21625000D01*
G75*
G02*
X7375000Y21425000I-200000J0D01*
G01*
X6975000Y21425000D01*
G75*
G02*
X6775000Y21625000I0J200000D01*
G01*
G37*
G36*
G01*
X34225000Y24925000D02*
X34225000Y25475000D01*
G75*
G02*
X34425000Y25675000I200000J0D01*
G01*
X34825000Y25675000D01*
G75*
G02*
X35025000Y25475000I0J-200000D01*
G01*
X35025000Y24925000D01*
G75*
G02*
X34825000Y24725000I-200000J0D01*
G01*
X34425000Y24725000D01*
G75*
G02*
X34225000Y24925000I0J200000D01*
G01*
G37*
G36*
G01*
X32575000Y24925000D02*
X32575000Y25475000D01*
G75*
G02*
X32775000Y25675000I200000J0D01*
G01*
X33175000Y25675000D01*
G75*
G02*
X33375000Y25475000I0J-200000D01*
G01*
X33375000Y24925000D01*
G75*
G02*
X33175000Y24725000I-200000J0D01*
G01*
X32775000Y24725000D01*
G75*
G02*
X32575000Y24925000I0J200000D01*
G01*
G37*
G36*
G01*
X34325000Y11050000D02*
X34325000Y11550000D01*
G75*
G02*
X34550000Y11775000I225000J0D01*
G01*
X35000000Y11775000D01*
G75*
G02*
X35225000Y11550000I0J-225000D01*
G01*
X35225000Y11050000D01*
G75*
G02*
X35000000Y10825000I-225000J0D01*
G01*
X34550000Y10825000D01*
G75*
G02*
X34325000Y11050000I0J225000D01*
G01*
G37*
G36*
G01*
X32775000Y11050000D02*
X32775000Y11550000D01*
G75*
G02*
X33000000Y11775000I225000J0D01*
G01*
X33450000Y11775000D01*
G75*
G02*
X33675000Y11550000I0J-225000D01*
G01*
X33675000Y11050000D01*
G75*
G02*
X33450000Y10825000I-225000J0D01*
G01*
X33000000Y10825000D01*
G75*
G02*
X32775000Y11050000I0J225000D01*
G01*
G37*
G36*
G01*
X7675000Y20450000D02*
X7675000Y19950000D01*
G75*
G02*
X7450000Y19725000I-225000J0D01*
G01*
X7000000Y19725000D01*
G75*
G02*
X6775000Y19950000I0J225000D01*
G01*
X6775000Y20450000D01*
G75*
G02*
X7000000Y20675000I225000J0D01*
G01*
X7450000Y20675000D01*
G75*
G02*
X7675000Y20450000I0J-225000D01*
G01*
G37*
G36*
G01*
X9225000Y20450000D02*
X9225000Y19950000D01*
G75*
G02*
X9000000Y19725000I-225000J0D01*
G01*
X8550000Y19725000D01*
G75*
G02*
X8325000Y19950000I0J225000D01*
G01*
X8325000Y20450000D01*
G75*
G02*
X8550000Y20675000I225000J0D01*
G01*
X9000000Y20675000D01*
G75*
G02*
X9225000Y20450000I0J-225000D01*
G01*
G37*
G36*
G01*
X7675000Y18850000D02*
X7675000Y18350000D01*
G75*
G02*
X7450000Y18125000I-225000J0D01*
G01*
X7000000Y18125000D01*
G75*
G02*
X6775000Y18350000I0J225000D01*
G01*
X6775000Y18850000D01*
G75*
G02*
X7000000Y19075000I225000J0D01*
G01*
X7450000Y19075000D01*
G75*
G02*
X7675000Y18850000I0J-225000D01*
G01*
G37*
G36*
G01*
X9225000Y18850000D02*
X9225000Y18350000D01*
G75*
G02*
X9000000Y18125000I-225000J0D01*
G01*
X8550000Y18125000D01*
G75*
G02*
X8325000Y18350000I0J225000D01*
G01*
X8325000Y18850000D01*
G75*
G02*
X8550000Y19075000I225000J0D01*
G01*
X9000000Y19075000D01*
G75*
G02*
X9225000Y18850000I0J-225000D01*
G01*
G37*
G36*
G01*
X11250000Y16525000D02*
X10750000Y16525000D01*
G75*
G02*
X10525000Y16750000I0J225000D01*
G01*
X10525000Y17200000D01*
G75*
G02*
X10750000Y17425000I225000J0D01*
G01*
X11250000Y17425000D01*
G75*
G02*
X11475000Y17200000I0J-225000D01*
G01*
X11475000Y16750000D01*
G75*
G02*
X11250000Y16525000I-225000J0D01*
G01*
G37*
G36*
G01*
X11250000Y14975000D02*
X10750000Y14975000D01*
G75*
G02*
X10525000Y15200000I0J225000D01*
G01*
X10525000Y15650000D01*
G75*
G02*
X10750000Y15875000I225000J0D01*
G01*
X11250000Y15875000D01*
G75*
G02*
X11475000Y15650000I0J-225000D01*
G01*
X11475000Y15200000D01*
G75*
G02*
X11250000Y14975000I-225000J0D01*
G01*
G37*
G36*
G01*
X8325000Y12750000D02*
X8325000Y13250000D01*
G75*
G02*
X8550000Y13475000I225000J0D01*
G01*
X9000000Y13475000D01*
G75*
G02*
X9225000Y13250000I0J-225000D01*
G01*
X9225000Y12750000D01*
G75*
G02*
X9000000Y12525000I-225000J0D01*
G01*
X8550000Y12525000D01*
G75*
G02*
X8325000Y12750000I0J225000D01*
G01*
G37*
G36*
G01*
X6775000Y12750000D02*
X6775000Y13250000D01*
G75*
G02*
X7000000Y13475000I225000J0D01*
G01*
X7450000Y13475000D01*
G75*
G02*
X7675000Y13250000I0J-225000D01*
G01*
X7675000Y12750000D01*
G75*
G02*
X7450000Y12525000I-225000J0D01*
G01*
X7000000Y12525000D01*
G75*
G02*
X6775000Y12750000I0J225000D01*
G01*
G37*
G36*
G01*
X29700000Y24000000D02*
X29700000Y24400000D01*
G75*
G02*
X29900000Y24600000I200000J0D01*
G01*
X31300000Y24600000D01*
G75*
G02*
X31500000Y24400000I0J-200000D01*
G01*
X31500000Y24000000D01*
G75*
G02*
X31300000Y23800000I-200000J0D01*
G01*
X29900000Y23800000D01*
G75*
G02*
X29700000Y24000000I0J200000D01*
G01*
G37*
G36*
G01*
X29700000Y22900000D02*
X29700000Y23300000D01*
G75*
G02*
X29900000Y23500000I200000J0D01*
G01*
X31300000Y23500000D01*
G75*
G02*
X31500000Y23300000I0J-200000D01*
G01*
X31500000Y22900000D01*
G75*
G02*
X31300000Y22700000I-200000J0D01*
G01*
X29900000Y22700000D01*
G75*
G02*
X29700000Y22900000I0J200000D01*
G01*
G37*
G36*
G01*
X29700000Y21800000D02*
X29700000Y22200000D01*
G75*
G02*
X29900000Y22400000I200000J0D01*
G01*
X31300000Y22400000D01*
G75*
G02*
X31500000Y22200000I0J-200000D01*
G01*
X31500000Y21800000D01*
G75*
G02*
X31300000Y21600000I-200000J0D01*
G01*
X29900000Y21600000D01*
G75*
G02*
X29700000Y21800000I0J200000D01*
G01*
G37*
G36*
G01*
X29700000Y20700000D02*
X29700000Y21100000D01*
G75*
G02*
X29900000Y21300000I200000J0D01*
G01*
X31300000Y21300000D01*
G75*
G02*
X31500000Y21100000I0J-200000D01*
G01*
X31500000Y20700000D01*
G75*
G02*
X31300000Y20500000I-200000J0D01*
G01*
X29900000Y20500000D01*
G75*
G02*
X29700000Y20700000I0J200000D01*
G01*
G37*
G36*
G01*
X29700000Y19600000D02*
X29700000Y20000000D01*
G75*
G02*
X29900000Y20200000I200000J0D01*
G01*
X31300000Y20200000D01*
G75*
G02*
X31500000Y20000000I0J-200000D01*
G01*
X31500000Y19600000D01*
G75*
G02*
X31300000Y19400000I-200000J0D01*
G01*
X29900000Y19400000D01*
G75*
G02*
X29700000Y19600000I0J200000D01*
G01*
G37*
G36*
G01*
X29700000Y18500000D02*
X29700000Y18900000D01*
G75*
G02*
X29900000Y19100000I200000J0D01*
G01*
X31300000Y19100000D01*
G75*
G02*
X31500000Y18900000I0J-200000D01*
G01*
X31500000Y18500000D01*
G75*
G02*
X31300000Y18300000I-200000J0D01*
G01*
X29900000Y18300000D01*
G75*
G02*
X29700000Y18500000I0J200000D01*
G01*
G37*
G36*
G01*
X29700000Y17400000D02*
X29700000Y17800000D01*
G75*
G02*
X29900000Y18000000I200000J0D01*
G01*
X31300000Y18000000D01*
G75*
G02*
X31500000Y17800000I0J-200000D01*
G01*
X31500000Y17400000D01*
G75*
G02*
X31300000Y17200000I-200000J0D01*
G01*
X29900000Y17200000D01*
G75*
G02*
X29700000Y17400000I0J200000D01*
G01*
G37*
G36*
G01*
X29700000Y16300000D02*
X29700000Y16700000D01*
G75*
G02*
X29900000Y16900000I200000J0D01*
G01*
X31300000Y16900000D01*
G75*
G02*
X31500000Y16700000I0J-200000D01*
G01*
X31500000Y16300000D01*
G75*
G02*
X31300000Y16100000I-200000J0D01*
G01*
X29900000Y16100000D01*
G75*
G02*
X29700000Y16300000I0J200000D01*
G01*
G37*
G36*
G01*
X29700000Y12500000D02*
X29700000Y12900000D01*
G75*
G02*
X29900000Y13100000I200000J0D01*
G01*
X31300000Y13100000D01*
G75*
G02*
X31500000Y12900000I0J-200000D01*
G01*
X31500000Y12500000D01*
G75*
G02*
X31300000Y12300000I-200000J0D01*
G01*
X29900000Y12300000D01*
G75*
G02*
X29700000Y12500000I0J200000D01*
G01*
G37*
G36*
G01*
X29700000Y11400000D02*
X29700000Y11800000D01*
G75*
G02*
X29900000Y12000000I200000J0D01*
G01*
X31300000Y12000000D01*
G75*
G02*
X31500000Y11800000I0J-200000D01*
G01*
X31500000Y11400000D01*
G75*
G02*
X31300000Y11200000I-200000J0D01*
G01*
X29900000Y11200000D01*
G75*
G02*
X29700000Y11400000I0J200000D01*
G01*
G37*
G36*
G01*
X29700000Y10300000D02*
X29700000Y10700000D01*
G75*
G02*
X29900000Y10900000I200000J0D01*
G01*
X31300000Y10900000D01*
G75*
G02*
X31500000Y10700000I0J-200000D01*
G01*
X31500000Y10300000D01*
G75*
G02*
X31300000Y10100000I-200000J0D01*
G01*
X29900000Y10100000D01*
G75*
G02*
X29700000Y10300000I0J200000D01*
G01*
G37*
G36*
G01*
X29700000Y9200000D02*
X29700000Y9600000D01*
G75*
G02*
X29900000Y9800000I200000J0D01*
G01*
X31300000Y9800000D01*
G75*
G02*
X31500000Y9600000I0J-200000D01*
G01*
X31500000Y9200000D01*
G75*
G02*
X31300000Y9000000I-200000J0D01*
G01*
X29900000Y9000000D01*
G75*
G02*
X29700000Y9200000I0J200000D01*
G01*
G37*
G36*
G01*
X29700000Y8100000D02*
X29700000Y8500000D01*
G75*
G02*
X29900000Y8700000I200000J0D01*
G01*
X31300000Y8700000D01*
G75*
G02*
X31500000Y8500000I0J-200000D01*
G01*
X31500000Y8100000D01*
G75*
G02*
X31300000Y7900000I-200000J0D01*
G01*
X29900000Y7900000D01*
G75*
G02*
X29700000Y8100000I0J200000D01*
G01*
G37*
G36*
G01*
X29700000Y7000000D02*
X29700000Y7400000D01*
G75*
G02*
X29900000Y7600000I200000J0D01*
G01*
X31300000Y7600000D01*
G75*
G02*
X31500000Y7400000I0J-200000D01*
G01*
X31500000Y7000000D01*
G75*
G02*
X31300000Y6800000I-200000J0D01*
G01*
X29900000Y6800000D01*
G75*
G02*
X29700000Y7000000I0J200000D01*
G01*
G37*
G36*
G01*
X12900000Y7000000D02*
X12900000Y7400000D01*
G75*
G02*
X13100000Y7600000I200000J0D01*
G01*
X14500000Y7600000D01*
G75*
G02*
X14700000Y7400000I0J-200000D01*
G01*
X14700000Y7000000D01*
G75*
G02*
X14500000Y6800000I-200000J0D01*
G01*
X13100000Y6800000D01*
G75*
G02*
X12900000Y7000000I0J200000D01*
G01*
G37*
G36*
G01*
X12900000Y8100000D02*
X12900000Y8500000D01*
G75*
G02*
X13100000Y8700000I200000J0D01*
G01*
X14500000Y8700000D01*
G75*
G02*
X14700000Y8500000I0J-200000D01*
G01*
X14700000Y8100000D01*
G75*
G02*
X14500000Y7900000I-200000J0D01*
G01*
X13100000Y7900000D01*
G75*
G02*
X12900000Y8100000I0J200000D01*
G01*
G37*
G36*
G01*
X12900000Y9200000D02*
X12900000Y9600000D01*
G75*
G02*
X13100000Y9800000I200000J0D01*
G01*
X14500000Y9800000D01*
G75*
G02*
X14700000Y9600000I0J-200000D01*
G01*
X14700000Y9200000D01*
G75*
G02*
X14500000Y9000000I-200000J0D01*
G01*
X13100000Y9000000D01*
G75*
G02*
X12900000Y9200000I0J200000D01*
G01*
G37*
G36*
G01*
X12900000Y10300000D02*
X12900000Y10700000D01*
G75*
G02*
X13100000Y10900000I200000J0D01*
G01*
X14500000Y10900000D01*
G75*
G02*
X14700000Y10700000I0J-200000D01*
G01*
X14700000Y10300000D01*
G75*
G02*
X14500000Y10100000I-200000J0D01*
G01*
X13100000Y10100000D01*
G75*
G02*
X12900000Y10300000I0J200000D01*
G01*
G37*
G36*
G01*
X12900000Y11400000D02*
X12900000Y11800000D01*
G75*
G02*
X13100000Y12000000I200000J0D01*
G01*
X14500000Y12000000D01*
G75*
G02*
X14700000Y11800000I0J-200000D01*
G01*
X14700000Y11400000D01*
G75*
G02*
X14500000Y11200000I-200000J0D01*
G01*
X13100000Y11200000D01*
G75*
G02*
X12900000Y11400000I0J200000D01*
G01*
G37*
G36*
G01*
X12900000Y12500000D02*
X12900000Y12900000D01*
G75*
G02*
X13100000Y13100000I200000J0D01*
G01*
X14500000Y13100000D01*
G75*
G02*
X14700000Y12900000I0J-200000D01*
G01*
X14700000Y12500000D01*
G75*
G02*
X14500000Y12300000I-200000J0D01*
G01*
X13100000Y12300000D01*
G75*
G02*
X12900000Y12500000I0J200000D01*
G01*
G37*
G36*
G01*
X12900000Y16300000D02*
X12900000Y16700000D01*
G75*
G02*
X13100000Y16900000I200000J0D01*
G01*
X14500000Y16900000D01*
G75*
G02*
X14700000Y16700000I0J-200000D01*
G01*
X14700000Y16300000D01*
G75*
G02*
X14500000Y16100000I-200000J0D01*
G01*
X13100000Y16100000D01*
G75*
G02*
X12900000Y16300000I0J200000D01*
G01*
G37*
G36*
G01*
X12900000Y17400000D02*
X12900000Y17800000D01*
G75*
G02*
X13100000Y18000000I200000J0D01*
G01*
X14500000Y18000000D01*
G75*
G02*
X14700000Y17800000I0J-200000D01*
G01*
X14700000Y17400000D01*
G75*
G02*
X14500000Y17200000I-200000J0D01*
G01*
X13100000Y17200000D01*
G75*
G02*
X12900000Y17400000I0J200000D01*
G01*
G37*
G36*
G01*
X12900000Y18500000D02*
X12900000Y18900000D01*
G75*
G02*
X13100000Y19100000I200000J0D01*
G01*
X14500000Y19100000D01*
G75*
G02*
X14700000Y18900000I0J-200000D01*
G01*
X14700000Y18500000D01*
G75*
G02*
X14500000Y18300000I-200000J0D01*
G01*
X13100000Y18300000D01*
G75*
G02*
X12900000Y18500000I0J200000D01*
G01*
G37*
G36*
G01*
X12900000Y19600000D02*
X12900000Y20000000D01*
G75*
G02*
X13100000Y20200000I200000J0D01*
G01*
X14500000Y20200000D01*
G75*
G02*
X14700000Y20000000I0J-200000D01*
G01*
X14700000Y19600000D01*
G75*
G02*
X14500000Y19400000I-200000J0D01*
G01*
X13100000Y19400000D01*
G75*
G02*
X12900000Y19600000I0J200000D01*
G01*
G37*
G36*
G01*
X12900000Y20700000D02*
X12900000Y21100000D01*
G75*
G02*
X13100000Y21300000I200000J0D01*
G01*
X14500000Y21300000D01*
G75*
G02*
X14700000Y21100000I0J-200000D01*
G01*
X14700000Y20700000D01*
G75*
G02*
X14500000Y20500000I-200000J0D01*
G01*
X13100000Y20500000D01*
G75*
G02*
X12900000Y20700000I0J200000D01*
G01*
G37*
G36*
G01*
X12900000Y21800000D02*
X12900000Y22200000D01*
G75*
G02*
X13100000Y22400000I200000J0D01*
G01*
X14500000Y22400000D01*
G75*
G02*
X14700000Y22200000I0J-200000D01*
G01*
X14700000Y21800000D01*
G75*
G02*
X14500000Y21600000I-200000J0D01*
G01*
X13100000Y21600000D01*
G75*
G02*
X12900000Y21800000I0J200000D01*
G01*
G37*
G36*
G01*
X12900000Y22900000D02*
X12900000Y23300000D01*
G75*
G02*
X13100000Y23500000I200000J0D01*
G01*
X14500000Y23500000D01*
G75*
G02*
X14700000Y23300000I0J-200000D01*
G01*
X14700000Y22900000D01*
G75*
G02*
X14500000Y22700000I-200000J0D01*
G01*
X13100000Y22700000D01*
G75*
G02*
X12900000Y22900000I0J200000D01*
G01*
G37*
G36*
G01*
X12900000Y24000000D02*
X12900000Y24400000D01*
G75*
G02*
X13100000Y24600000I200000J0D01*
G01*
X14500000Y24600000D01*
G75*
G02*
X14700000Y24400000I0J-200000D01*
G01*
X14700000Y24000000D01*
G75*
G02*
X14500000Y23800000I-200000J0D01*
G01*
X13100000Y23800000D01*
G75*
G02*
X12900000Y24000000I0J200000D01*
G01*
G37*
D25*
X40260000Y7460000D03*
X40260000Y12540000D03*
X45340000Y12540000D03*
X45340000Y7460000D03*
D26*
X42800000Y10000000D03*
D27*
X40900000Y20600000D03*
X40900000Y21550000D03*
X40900000Y19650000D03*
X38700000Y19650000D03*
X38700000Y20600000D03*
X38700000Y21550000D03*
M02*
