G04 #@! TF.GenerationSoftware,KiCad,Pcbnew,5.1.9-5.1.9*
G04 #@! TF.CreationDate,2021-01-19T08:54:29+01:00*
G04 #@! TF.ProjectId,ublox-breakout,75626c6f-782d-4627-9265-616b6f75742e,rev?*
G04 #@! TF.SameCoordinates,PX71f6ce0PY5d47650*
G04 #@! TF.FileFunction,Copper,L3,Inr*
G04 #@! TF.FilePolarity,Positive*
%FSLAX46Y46*%
G04 Gerber Fmt 4.6, Leading zero omitted, Abs format (unit mm)*
G04 Created by KiCad (PCBNEW 5.1.9-5.1.9) date 2021-01-19 08:54:29*
%MOMM*%
%LPD*%
G01*
G04 APERTURE LIST*
G04 #@! TA.AperFunction,ComponentPad*
%ADD10C,2.250000*%
G04 #@! TD*
G04 #@! TA.AperFunction,ComponentPad*
%ADD11C,2.050000*%
G04 #@! TD*
G04 #@! TA.AperFunction,ComponentPad*
%ADD12C,0.700000*%
G04 #@! TD*
G04 #@! TA.AperFunction,ComponentPad*
%ADD13C,4.400000*%
G04 #@! TD*
G04 #@! TA.AperFunction,ComponentPad*
%ADD14R,1.700000X1.700000*%
G04 #@! TD*
G04 #@! TA.AperFunction,ComponentPad*
%ADD15O,1.700000X1.700000*%
G04 #@! TD*
G04 #@! TA.AperFunction,ViaPad*
%ADD16C,0.800000*%
G04 #@! TD*
G04 #@! TA.AperFunction,Conductor*
%ADD17C,0.250000*%
G04 #@! TD*
G04 #@! TA.AperFunction,Conductor*
%ADD18C,0.100000*%
G04 #@! TD*
G04 APERTURE END LIST*
D10*
X18340000Y-25810000D03*
X18340000Y-30890000D03*
X13260000Y-30890000D03*
X13260000Y-25810000D03*
D11*
X15800000Y-28350000D03*
D12*
X4166726Y-29023274D03*
X3000000Y-28540000D03*
X1833274Y-29023274D03*
X1350000Y-30190000D03*
X1833274Y-31356726D03*
X3000000Y-31840000D03*
X4166726Y-31356726D03*
X4650000Y-30190000D03*
D13*
X3000000Y-30190000D03*
D12*
X45366726Y-29023274D03*
X44200000Y-28540000D03*
X43033274Y-29023274D03*
X42550000Y-30190000D03*
X43033274Y-31356726D03*
X44200000Y-31840000D03*
X45366726Y-31356726D03*
X45850000Y-30190000D03*
D13*
X44200000Y-30190000D03*
D12*
X45366726Y-1823274D03*
X44200000Y-1340000D03*
X43033274Y-1823274D03*
X42550000Y-2990000D03*
X43033274Y-4156726D03*
X44200000Y-4640000D03*
X45366726Y-4156726D03*
X45850000Y-2990000D03*
D13*
X44200000Y-2990000D03*
D12*
X4166726Y-1823274D03*
X3000000Y-1340000D03*
X1833274Y-1823274D03*
X1350000Y-2990000D03*
X1833274Y-4156726D03*
X3000000Y-4640000D03*
X4166726Y-4156726D03*
X4650000Y-2990000D03*
D13*
X3000000Y-2990000D03*
D14*
X2000000Y-11150000D03*
D15*
X4540000Y-11150000D03*
X2000000Y-13690000D03*
X4540000Y-13690000D03*
X2000000Y-16230000D03*
X4540000Y-16230000D03*
X2000000Y-18770000D03*
X4540000Y-18770000D03*
X2000000Y-21310000D03*
X4540000Y-21310000D03*
X2000000Y-23850000D03*
X4540000Y-23850000D03*
D10*
X40260000Y-23730000D03*
X40260000Y-18650000D03*
X45340000Y-18650000D03*
X45340000Y-23730000D03*
D11*
X42800000Y-21190000D03*
D16*
X27800000Y-12500000D03*
X18600000Y-12400000D03*
X42700000Y-13240000D03*
X43550000Y-12540000D03*
X46000000Y-14190000D03*
X45400000Y-13290000D03*
X46300000Y-12090000D03*
X45100000Y-12090000D03*
X46300000Y-10990000D03*
X45100000Y-10990000D03*
X45700000Y-8840000D03*
X43550000Y-8240000D03*
X42700000Y-7540000D03*
X46000000Y-7490000D03*
X45400000Y-6540000D03*
X38582041Y-19983867D03*
X37428372Y-19240568D03*
X36206027Y-18564035D03*
X34818139Y-18390000D03*
X33412092Y-18390000D03*
X32200000Y-20790000D03*
X33412092Y-20790000D03*
X34818139Y-20790000D03*
X36079434Y-21266490D03*
X37220780Y-22072672D03*
X38581890Y-22387461D03*
X32200000Y-18390000D03*
X34500000Y-13100000D03*
X12300000Y-20750000D03*
X15300000Y-20750000D03*
X35400000Y-16800000D03*
X9800000Y-15650000D03*
X10300000Y-10350000D03*
X15300000Y-10250000D03*
X12200000Y-11450000D03*
X11700000Y-14050000D03*
X10600000Y-14800000D03*
X15300000Y-19650000D03*
X29100000Y-18550000D03*
X29100000Y-20750000D03*
X41402000Y-9070000D03*
X6050000Y-1950000D03*
X6050000Y-3050000D03*
X44100000Y-17100000D03*
X37300000Y-16054000D03*
X1191667Y-6492500D03*
X1191667Y-26292500D03*
X5591667Y-26292500D03*
X6691667Y-29592500D03*
X8891667Y-27392500D03*
X8891667Y-31792500D03*
X11091667Y-29592500D03*
X13291667Y-13092500D03*
X15491667Y-7592500D03*
X16591667Y-11992500D03*
X15591667Y-25192500D03*
X15591667Y-31792500D03*
X17691667Y-3192500D03*
X17691667Y-18592500D03*
X18791667Y-6492500D03*
X23191667Y-22992500D03*
X26491667Y-3192500D03*
X27591667Y-7592500D03*
X27591667Y-20792500D03*
X28625000Y-23650000D03*
X36391667Y-2800000D03*
X35400000Y-11000000D03*
X36391667Y-24092500D03*
X37491667Y-6492500D03*
X41700000Y-5100000D03*
X42991667Y-24092500D03*
X46100000Y-26292500D03*
X40900000Y-14400000D03*
X39900000Y-8308000D03*
X22600000Y-27650000D03*
X22600000Y-30700000D03*
X27559000Y-26850000D03*
X27559000Y-29898000D03*
X10795000Y-8181000D03*
X6096000Y-4625000D03*
X15300000Y-9250000D03*
X7950000Y-20300000D03*
X35052000Y-32057000D03*
X11500000Y-1400000D03*
X13100000Y-1400000D03*
X39100000Y-1999994D03*
X26670000Y-28374000D03*
X26543000Y-31295000D03*
X33147000Y-30152000D03*
X39100000Y-7400000D03*
X39900000Y-14400000D03*
X34525000Y-2725000D03*
X15300000Y-3650000D03*
X15300000Y-4750000D03*
X32900000Y-2750000D03*
X30100000Y-25150000D03*
X12100000Y-16750000D03*
X29139996Y-15190010D03*
X12200000Y-14949996D03*
X28650000Y-4800000D03*
X12200000Y-8050000D03*
X10750000Y-21550000D03*
D17*
X30149989Y-15563601D02*
X30149989Y-3500011D01*
X23553591Y-22159999D02*
X30149989Y-15563601D01*
X11213003Y-22159999D02*
X23553591Y-22159999D01*
X31700000Y-1950000D02*
X33750000Y-1950000D01*
X11098001Y-22275001D02*
X11213003Y-22159999D01*
X33750000Y-1950000D02*
X34525000Y-2725000D01*
X5505001Y-22275001D02*
X11098001Y-22275001D01*
X4540000Y-21310000D02*
X5505001Y-22275001D01*
X30149989Y-3500011D02*
X31700000Y-1950000D01*
X16200000Y-4550000D02*
X16200000Y-5150000D01*
X8100000Y-9096589D02*
X8100000Y-12670000D01*
X16200000Y-5150000D02*
X15600000Y-5750000D01*
X8100000Y-12670000D02*
X4540000Y-16230000D01*
X15300000Y-3650000D02*
X16200000Y-4550000D01*
X11446589Y-5750000D02*
X8100000Y-9096589D01*
X15600000Y-5750000D02*
X11446589Y-5750000D01*
X5389999Y-12840001D02*
X4540000Y-13690000D01*
X7500000Y-10730000D02*
X5389999Y-12840001D01*
X11810178Y-4750000D02*
X7500000Y-9060178D01*
X15300000Y-4750000D02*
X11810178Y-4750000D01*
X7500000Y-9060178D02*
X7500000Y-10730000D01*
X30600000Y-24650000D02*
X30100000Y-25150000D01*
X30600000Y-5050000D02*
X30600000Y-24650000D01*
X32900000Y-2750000D02*
X30600000Y-5050000D01*
X12100000Y-16750000D02*
X27580006Y-16750000D01*
X27580006Y-16750000D02*
X29139996Y-15190010D01*
X18500004Y-14949996D02*
X28650000Y-4800000D01*
X12200000Y-14949996D02*
X18500004Y-14949996D01*
X3175001Y-17594999D02*
X2000000Y-18770000D01*
X8600000Y-14650000D02*
X5655001Y-17594999D01*
X5655001Y-17594999D02*
X3175001Y-17594999D01*
X8600000Y-9233000D02*
X8600000Y-14650000D01*
X10414000Y-7419000D02*
X8600000Y-9233000D01*
X11569000Y-7419000D02*
X10414000Y-7419000D01*
X12200000Y-8050000D02*
X11569000Y-7419000D01*
X43448900Y-513956D02*
X42980280Y-708065D01*
X42558533Y-989867D01*
X42199867Y-1348533D01*
X41918065Y-1770280D01*
X41723956Y-2238900D01*
X41625000Y-2736385D01*
X41625000Y-3243615D01*
X41723956Y-3741100D01*
X41918065Y-4209720D01*
X42049026Y-4405718D01*
X41926059Y-4354783D01*
X41776331Y-4325000D01*
X41623669Y-4325000D01*
X41473941Y-4354783D01*
X41332900Y-4413204D01*
X41205966Y-4498018D01*
X41098018Y-4605966D01*
X41013204Y-4732900D01*
X40954783Y-4873941D01*
X40925000Y-5023669D01*
X40925000Y-5176331D01*
X40954783Y-5326059D01*
X41013204Y-5467100D01*
X41098018Y-5594034D01*
X41205966Y-5701982D01*
X41332900Y-5786796D01*
X41473941Y-5845217D01*
X41623669Y-5875000D01*
X41675000Y-5875000D01*
X41675000Y-8344227D01*
X41628059Y-8324783D01*
X41478331Y-8295000D01*
X41325669Y-8295000D01*
X41175941Y-8324783D01*
X41034900Y-8383204D01*
X40907966Y-8468018D01*
X40800018Y-8575966D01*
X40715204Y-8702900D01*
X40656783Y-8843941D01*
X40627000Y-8993669D01*
X40627000Y-9146331D01*
X40656783Y-9296059D01*
X40715204Y-9437100D01*
X40800018Y-9564034D01*
X40907966Y-9671982D01*
X41034900Y-9756796D01*
X41175941Y-9815217D01*
X41325669Y-9845000D01*
X41478331Y-9845000D01*
X41628059Y-9815217D01*
X41675000Y-9795773D01*
X41675000Y-14323669D01*
X41645217Y-14173941D01*
X41586796Y-14032900D01*
X41501982Y-13905966D01*
X41394034Y-13798018D01*
X41267100Y-13713204D01*
X41126059Y-13654783D01*
X40976331Y-13625000D01*
X40823669Y-13625000D01*
X40673941Y-13654783D01*
X40532900Y-13713204D01*
X40405966Y-13798018D01*
X40400000Y-13803984D01*
X40394034Y-13798018D01*
X40267100Y-13713204D01*
X40126059Y-13654783D01*
X39976331Y-13625000D01*
X39823669Y-13625000D01*
X39673941Y-13654783D01*
X39532900Y-13713204D01*
X39405966Y-13798018D01*
X39298018Y-13905966D01*
X39213204Y-14032900D01*
X39154783Y-14173941D01*
X39125000Y-14323669D01*
X39125000Y-14476331D01*
X39154783Y-14626059D01*
X39213204Y-14767100D01*
X39298018Y-14894034D01*
X39405966Y-15001982D01*
X39532900Y-15086796D01*
X39673941Y-15145217D01*
X39823669Y-15175000D01*
X39976331Y-15175000D01*
X40126059Y-15145217D01*
X40267100Y-15086796D01*
X40394034Y-15001982D01*
X40400000Y-14996016D01*
X40405966Y-15001982D01*
X40532900Y-15086796D01*
X40673941Y-15145217D01*
X40823669Y-15175000D01*
X40976331Y-15175000D01*
X41126059Y-15145217D01*
X41267100Y-15086796D01*
X41394034Y-15001982D01*
X41501982Y-14894034D01*
X41586796Y-14767100D01*
X41645217Y-14626059D01*
X41675000Y-14476331D01*
X41675000Y-15250000D01*
X41677402Y-15274386D01*
X41684515Y-15297835D01*
X41696066Y-15319446D01*
X41711612Y-15338388D01*
X41730554Y-15353934D01*
X41752165Y-15365485D01*
X41775614Y-15372598D01*
X41800000Y-15375000D01*
X46775001Y-15375000D01*
X46775000Y-18194708D01*
X46669283Y-17939483D01*
X46505126Y-17693806D01*
X46296194Y-17484874D01*
X46050517Y-17320717D01*
X45777534Y-17207644D01*
X45487737Y-17150000D01*
X45192263Y-17150000D01*
X44902466Y-17207644D01*
X44865746Y-17222854D01*
X44875000Y-17176331D01*
X44875000Y-17023669D01*
X44845217Y-16873941D01*
X44786796Y-16732900D01*
X44701982Y-16605966D01*
X44594034Y-16498018D01*
X44467100Y-16413204D01*
X44326059Y-16354783D01*
X44176331Y-16325000D01*
X44023669Y-16325000D01*
X43873941Y-16354783D01*
X43732900Y-16413204D01*
X43605966Y-16498018D01*
X43498018Y-16605966D01*
X43413204Y-16732900D01*
X43354783Y-16873941D01*
X43325000Y-17023669D01*
X43325000Y-17176331D01*
X43354783Y-17326059D01*
X43413204Y-17467100D01*
X43498018Y-17594034D01*
X43605966Y-17701982D01*
X43732900Y-17786796D01*
X43873941Y-17845217D01*
X44023669Y-17875000D01*
X44053803Y-17875000D01*
X44010717Y-17939483D01*
X43897644Y-18212466D01*
X43840000Y-18502263D01*
X43840000Y-18797737D01*
X43897644Y-19087534D01*
X44010717Y-19360517D01*
X44174874Y-19606194D01*
X44383806Y-19815126D01*
X44629483Y-19979283D01*
X44902466Y-20092356D01*
X45192263Y-20150000D01*
X45487737Y-20150000D01*
X45777534Y-20092356D01*
X46050517Y-19979283D01*
X46296194Y-19815126D01*
X46505126Y-19606194D01*
X46669283Y-19360517D01*
X46775000Y-19105292D01*
X46775000Y-23274708D01*
X46669283Y-23019483D01*
X46505126Y-22773806D01*
X46296194Y-22564874D01*
X46050517Y-22400717D01*
X45777534Y-22287644D01*
X45487737Y-22230000D01*
X45192263Y-22230000D01*
X44902466Y-22287644D01*
X44629483Y-22400717D01*
X44383806Y-22564874D01*
X44174874Y-22773806D01*
X44010717Y-23019483D01*
X43897644Y-23292466D01*
X43840000Y-23582263D01*
X43840000Y-23877737D01*
X43897644Y-24167534D01*
X44010717Y-24440517D01*
X44174874Y-24686194D01*
X44383806Y-24895126D01*
X44629483Y-25059283D01*
X44902466Y-25172356D01*
X45192263Y-25230000D01*
X45487737Y-25230000D01*
X45777534Y-25172356D01*
X46050517Y-25059283D01*
X46296194Y-24895126D01*
X46505126Y-24686194D01*
X46669283Y-24440517D01*
X46775000Y-24185292D01*
X46775000Y-25907746D01*
X46701982Y-25798466D01*
X46594034Y-25690518D01*
X46467100Y-25605704D01*
X46326059Y-25547283D01*
X46176331Y-25517500D01*
X46023669Y-25517500D01*
X45873941Y-25547283D01*
X45732900Y-25605704D01*
X45605966Y-25690518D01*
X45498018Y-25798466D01*
X45413204Y-25925400D01*
X45354783Y-26066441D01*
X45325000Y-26216169D01*
X45325000Y-26368831D01*
X45354783Y-26518559D01*
X45413204Y-26659600D01*
X45498018Y-26786534D01*
X45605966Y-26894482D01*
X45732900Y-26979296D01*
X45873941Y-27037717D01*
X46023669Y-27067500D01*
X46176331Y-27067500D01*
X46326059Y-27037717D01*
X46467100Y-26979296D01*
X46594034Y-26894482D01*
X46701982Y-26786534D01*
X46775000Y-26677254D01*
X46775000Y-29936385D01*
X46676044Y-29438900D01*
X46481935Y-28970280D01*
X46200133Y-28548533D01*
X45841467Y-28189867D01*
X45419720Y-27908065D01*
X44951100Y-27713956D01*
X44453615Y-27615000D01*
X43946385Y-27615000D01*
X43448900Y-27713956D01*
X42980280Y-27908065D01*
X42558533Y-28189867D01*
X42199867Y-28548533D01*
X41918065Y-28970280D01*
X41723956Y-29438900D01*
X41625000Y-29936385D01*
X41625000Y-30443615D01*
X41723956Y-30941100D01*
X41918065Y-31409720D01*
X42199867Y-31831467D01*
X42558533Y-32190133D01*
X42980280Y-32471935D01*
X43448900Y-32666044D01*
X43946385Y-32765000D01*
X3253615Y-32765000D01*
X3751100Y-32666044D01*
X4219720Y-32471935D01*
X4641467Y-32190133D01*
X5000133Y-31831467D01*
X5077172Y-31716169D01*
X8116667Y-31716169D01*
X8116667Y-31868831D01*
X8146450Y-32018559D01*
X8204871Y-32159600D01*
X8289685Y-32286534D01*
X8397633Y-32394482D01*
X8524567Y-32479296D01*
X8665608Y-32537717D01*
X8815336Y-32567500D01*
X8967998Y-32567500D01*
X9117726Y-32537717D01*
X9258767Y-32479296D01*
X9385701Y-32394482D01*
X9493649Y-32286534D01*
X9578463Y-32159600D01*
X9636884Y-32018559D01*
X9666667Y-31868831D01*
X9666667Y-31716169D01*
X9636884Y-31566441D01*
X9578463Y-31425400D01*
X9493649Y-31298466D01*
X9385701Y-31190518D01*
X9258767Y-31105704D01*
X9117726Y-31047283D01*
X8967998Y-31017500D01*
X8815336Y-31017500D01*
X8665608Y-31047283D01*
X8524567Y-31105704D01*
X8397633Y-31190518D01*
X8289685Y-31298466D01*
X8204871Y-31425400D01*
X8146450Y-31566441D01*
X8116667Y-31716169D01*
X5077172Y-31716169D01*
X5281935Y-31409720D01*
X5476044Y-30941100D01*
X5515595Y-30742263D01*
X11760000Y-30742263D01*
X11760000Y-31037737D01*
X11817644Y-31327534D01*
X11930717Y-31600517D01*
X12094874Y-31846194D01*
X12303806Y-32055126D01*
X12549483Y-32219283D01*
X12822466Y-32332356D01*
X13112263Y-32390000D01*
X13407737Y-32390000D01*
X13697534Y-32332356D01*
X13970517Y-32219283D01*
X14216194Y-32055126D01*
X14425126Y-31846194D01*
X14512006Y-31716169D01*
X14816667Y-31716169D01*
X14816667Y-31868831D01*
X14846450Y-32018559D01*
X14904871Y-32159600D01*
X14989685Y-32286534D01*
X15097633Y-32394482D01*
X15224567Y-32479296D01*
X15365608Y-32537717D01*
X15515336Y-32567500D01*
X15667998Y-32567500D01*
X15817726Y-32537717D01*
X15958767Y-32479296D01*
X16085701Y-32394482D01*
X16193649Y-32286534D01*
X16278463Y-32159600D01*
X16336884Y-32018559D01*
X16366667Y-31868831D01*
X16366667Y-31716169D01*
X16336884Y-31566441D01*
X16278463Y-31425400D01*
X16193649Y-31298466D01*
X16085701Y-31190518D01*
X15958767Y-31105704D01*
X15817726Y-31047283D01*
X15667998Y-31017500D01*
X15515336Y-31017500D01*
X15365608Y-31047283D01*
X15224567Y-31105704D01*
X15097633Y-31190518D01*
X14989685Y-31298466D01*
X14904871Y-31425400D01*
X14846450Y-31566441D01*
X14816667Y-31716169D01*
X14512006Y-31716169D01*
X14589283Y-31600517D01*
X14702356Y-31327534D01*
X14760000Y-31037737D01*
X14760000Y-30742263D01*
X16840000Y-30742263D01*
X16840000Y-31037737D01*
X16897644Y-31327534D01*
X17010717Y-31600517D01*
X17174874Y-31846194D01*
X17383806Y-32055126D01*
X17629483Y-32219283D01*
X17902466Y-32332356D01*
X18192263Y-32390000D01*
X18487737Y-32390000D01*
X18777534Y-32332356D01*
X19050517Y-32219283D01*
X19296194Y-32055126D01*
X19505126Y-31846194D01*
X19669283Y-31600517D01*
X19782356Y-31327534D01*
X19840000Y-31037737D01*
X19840000Y-30742263D01*
X19816411Y-30623669D01*
X21825000Y-30623669D01*
X21825000Y-30776331D01*
X21854783Y-30926059D01*
X21913204Y-31067100D01*
X21998018Y-31194034D01*
X22105966Y-31301982D01*
X22232900Y-31386796D01*
X22373941Y-31445217D01*
X22523669Y-31475000D01*
X22676331Y-31475000D01*
X22826059Y-31445217D01*
X22967100Y-31386796D01*
X23094034Y-31301982D01*
X23177347Y-31218669D01*
X25768000Y-31218669D01*
X25768000Y-31371331D01*
X25797783Y-31521059D01*
X25856204Y-31662100D01*
X25941018Y-31789034D01*
X26048966Y-31896982D01*
X26175900Y-31981796D01*
X26316941Y-32040217D01*
X26466669Y-32070000D01*
X26619331Y-32070000D01*
X26769059Y-32040217D01*
X26910100Y-31981796D01*
X27037034Y-31896982D01*
X27144982Y-31789034D01*
X27229796Y-31662100D01*
X27288217Y-31521059D01*
X27318000Y-31371331D01*
X27318000Y-31218669D01*
X27288217Y-31068941D01*
X27229796Y-30927900D01*
X27144982Y-30800966D01*
X27037034Y-30693018D01*
X26910100Y-30608204D01*
X26769059Y-30549783D01*
X26619331Y-30520000D01*
X26466669Y-30520000D01*
X26316941Y-30549783D01*
X26175900Y-30608204D01*
X26048966Y-30693018D01*
X25941018Y-30800966D01*
X25856204Y-30927900D01*
X25797783Y-31068941D01*
X25768000Y-31218669D01*
X23177347Y-31218669D01*
X23201982Y-31194034D01*
X23286796Y-31067100D01*
X23345217Y-30926059D01*
X23375000Y-30776331D01*
X23375000Y-30623669D01*
X23345217Y-30473941D01*
X23286796Y-30332900D01*
X23201982Y-30205966D01*
X23094034Y-30098018D01*
X22967100Y-30013204D01*
X22826059Y-29954783D01*
X22676331Y-29925000D01*
X22523669Y-29925000D01*
X22373941Y-29954783D01*
X22232900Y-30013204D01*
X22105966Y-30098018D01*
X21998018Y-30205966D01*
X21913204Y-30332900D01*
X21854783Y-30473941D01*
X21825000Y-30623669D01*
X19816411Y-30623669D01*
X19782356Y-30452466D01*
X19669283Y-30179483D01*
X19505126Y-29933806D01*
X19392989Y-29821669D01*
X26784000Y-29821669D01*
X26784000Y-29974331D01*
X26813783Y-30124059D01*
X26872204Y-30265100D01*
X26957018Y-30392034D01*
X27064966Y-30499982D01*
X27191900Y-30584796D01*
X27332941Y-30643217D01*
X27482669Y-30673000D01*
X27635331Y-30673000D01*
X27785059Y-30643217D01*
X27926100Y-30584796D01*
X28053034Y-30499982D01*
X28160982Y-30392034D01*
X28245796Y-30265100D01*
X28304217Y-30124059D01*
X28313842Y-30075669D01*
X32372000Y-30075669D01*
X32372000Y-30228331D01*
X32401783Y-30378059D01*
X32460204Y-30519100D01*
X32545018Y-30646034D01*
X32652966Y-30753982D01*
X32779900Y-30838796D01*
X32920941Y-30897217D01*
X33070669Y-30927000D01*
X33223331Y-30927000D01*
X33373059Y-30897217D01*
X33514100Y-30838796D01*
X33641034Y-30753982D01*
X33748982Y-30646034D01*
X33833796Y-30519100D01*
X33892217Y-30378059D01*
X33922000Y-30228331D01*
X33922000Y-30075669D01*
X33892217Y-29925941D01*
X33833796Y-29784900D01*
X33748982Y-29657966D01*
X33641034Y-29550018D01*
X33514100Y-29465204D01*
X33373059Y-29406783D01*
X33223331Y-29377000D01*
X33070669Y-29377000D01*
X32920941Y-29406783D01*
X32779900Y-29465204D01*
X32652966Y-29550018D01*
X32545018Y-29657966D01*
X32460204Y-29784900D01*
X32401783Y-29925941D01*
X32372000Y-30075669D01*
X28313842Y-30075669D01*
X28334000Y-29974331D01*
X28334000Y-29821669D01*
X28304217Y-29671941D01*
X28245796Y-29530900D01*
X28160982Y-29403966D01*
X28053034Y-29296018D01*
X27926100Y-29211204D01*
X27785059Y-29152783D01*
X27635331Y-29123000D01*
X27482669Y-29123000D01*
X27332941Y-29152783D01*
X27191900Y-29211204D01*
X27064966Y-29296018D01*
X26957018Y-29403966D01*
X26872204Y-29530900D01*
X26813783Y-29671941D01*
X26784000Y-29821669D01*
X19392989Y-29821669D01*
X19296194Y-29724874D01*
X19050517Y-29560717D01*
X18777534Y-29447644D01*
X18487737Y-29390000D01*
X18192263Y-29390000D01*
X17902466Y-29447644D01*
X17629483Y-29560717D01*
X17383806Y-29724874D01*
X17174874Y-29933806D01*
X17010717Y-30179483D01*
X16897644Y-30452466D01*
X16840000Y-30742263D01*
X14760000Y-30742263D01*
X14702356Y-30452466D01*
X14589283Y-30179483D01*
X14425126Y-29933806D01*
X14216194Y-29724874D01*
X13970517Y-29560717D01*
X13697534Y-29447644D01*
X13407737Y-29390000D01*
X13112263Y-29390000D01*
X12822466Y-29447644D01*
X12549483Y-29560717D01*
X12303806Y-29724874D01*
X12094874Y-29933806D01*
X11930717Y-30179483D01*
X11817644Y-30452466D01*
X11760000Y-30742263D01*
X5515595Y-30742263D01*
X5575000Y-30443615D01*
X5575000Y-29936385D01*
X5491414Y-29516169D01*
X5916667Y-29516169D01*
X5916667Y-29668831D01*
X5946450Y-29818559D01*
X6004871Y-29959600D01*
X6089685Y-30086534D01*
X6197633Y-30194482D01*
X6324567Y-30279296D01*
X6465608Y-30337717D01*
X6615336Y-30367500D01*
X6767998Y-30367500D01*
X6917726Y-30337717D01*
X7058767Y-30279296D01*
X7185701Y-30194482D01*
X7293649Y-30086534D01*
X7378463Y-29959600D01*
X7436884Y-29818559D01*
X7466667Y-29668831D01*
X7466667Y-29516169D01*
X10316667Y-29516169D01*
X10316667Y-29668831D01*
X10346450Y-29818559D01*
X10404871Y-29959600D01*
X10489685Y-30086534D01*
X10597633Y-30194482D01*
X10724567Y-30279296D01*
X10865608Y-30337717D01*
X11015336Y-30367500D01*
X11167998Y-30367500D01*
X11317726Y-30337717D01*
X11458767Y-30279296D01*
X11585701Y-30194482D01*
X11693649Y-30086534D01*
X11778463Y-29959600D01*
X11836884Y-29818559D01*
X11866667Y-29668831D01*
X11866667Y-29516169D01*
X11836884Y-29366441D01*
X11778463Y-29225400D01*
X11693649Y-29098466D01*
X11585701Y-28990518D01*
X11458767Y-28905704D01*
X11317726Y-28847283D01*
X11167998Y-28817500D01*
X11015336Y-28817500D01*
X10865608Y-28847283D01*
X10724567Y-28905704D01*
X10597633Y-28990518D01*
X10489685Y-29098466D01*
X10404871Y-29225400D01*
X10346450Y-29366441D01*
X10316667Y-29516169D01*
X7466667Y-29516169D01*
X7436884Y-29366441D01*
X7378463Y-29225400D01*
X7293649Y-29098466D01*
X7185701Y-28990518D01*
X7058767Y-28905704D01*
X6917726Y-28847283D01*
X6767998Y-28817500D01*
X6615336Y-28817500D01*
X6465608Y-28847283D01*
X6324567Y-28905704D01*
X6197633Y-28990518D01*
X6089685Y-29098466D01*
X6004871Y-29225400D01*
X5946450Y-29366441D01*
X5916667Y-29516169D01*
X5491414Y-29516169D01*
X5476044Y-29438900D01*
X5281935Y-28970280D01*
X5000133Y-28548533D01*
X4641467Y-28189867D01*
X4615799Y-28172716D01*
X14000000Y-28172716D01*
X14000000Y-28527284D01*
X14069173Y-28875041D01*
X14204861Y-29202620D01*
X14401849Y-29497433D01*
X14652567Y-29748151D01*
X14947380Y-29945139D01*
X15274959Y-30080827D01*
X15622716Y-30150000D01*
X15977284Y-30150000D01*
X16325041Y-30080827D01*
X16652620Y-29945139D01*
X16947433Y-29748151D01*
X17198151Y-29497433D01*
X17395139Y-29202620D01*
X17530827Y-28875041D01*
X17600000Y-28527284D01*
X17600000Y-28172716D01*
X17530827Y-27824959D01*
X17426740Y-27573669D01*
X21825000Y-27573669D01*
X21825000Y-27726331D01*
X21854783Y-27876059D01*
X21913204Y-28017100D01*
X21998018Y-28144034D01*
X22105966Y-28251982D01*
X22232900Y-28336796D01*
X22373941Y-28395217D01*
X22523669Y-28425000D01*
X22676331Y-28425000D01*
X22826059Y-28395217D01*
X22967100Y-28336796D01*
X23025658Y-28297669D01*
X25895000Y-28297669D01*
X25895000Y-28450331D01*
X25924783Y-28600059D01*
X25983204Y-28741100D01*
X26068018Y-28868034D01*
X26175966Y-28975982D01*
X26302900Y-29060796D01*
X26443941Y-29119217D01*
X26593669Y-29149000D01*
X26746331Y-29149000D01*
X26896059Y-29119217D01*
X27037100Y-29060796D01*
X27164034Y-28975982D01*
X27271982Y-28868034D01*
X27356796Y-28741100D01*
X27415217Y-28600059D01*
X27445000Y-28450331D01*
X27445000Y-28297669D01*
X27415217Y-28147941D01*
X27356796Y-28006900D01*
X27271982Y-27879966D01*
X27164034Y-27772018D01*
X27037100Y-27687204D01*
X26896059Y-27628783D01*
X26746331Y-27599000D01*
X26593669Y-27599000D01*
X26443941Y-27628783D01*
X26302900Y-27687204D01*
X26175966Y-27772018D01*
X26068018Y-27879966D01*
X25983204Y-28006900D01*
X25924783Y-28147941D01*
X25895000Y-28297669D01*
X23025658Y-28297669D01*
X23094034Y-28251982D01*
X23201982Y-28144034D01*
X23286796Y-28017100D01*
X23345217Y-27876059D01*
X23375000Y-27726331D01*
X23375000Y-27573669D01*
X23345217Y-27423941D01*
X23286796Y-27282900D01*
X23201982Y-27155966D01*
X23094034Y-27048018D01*
X22967100Y-26963204D01*
X22826059Y-26904783D01*
X22676331Y-26875000D01*
X22523669Y-26875000D01*
X22373941Y-26904783D01*
X22232900Y-26963204D01*
X22105966Y-27048018D01*
X21998018Y-27155966D01*
X21913204Y-27282900D01*
X21854783Y-27423941D01*
X21825000Y-27573669D01*
X17426740Y-27573669D01*
X17395139Y-27497380D01*
X17198151Y-27202567D01*
X16947433Y-26951849D01*
X16652620Y-26754861D01*
X16325041Y-26619173D01*
X15977284Y-26550000D01*
X15622716Y-26550000D01*
X15274959Y-26619173D01*
X14947380Y-26754861D01*
X14652567Y-26951849D01*
X14401849Y-27202567D01*
X14204861Y-27497380D01*
X14069173Y-27824959D01*
X14000000Y-28172716D01*
X4615799Y-28172716D01*
X4219720Y-27908065D01*
X3751100Y-27713956D01*
X3253615Y-27615000D01*
X2746385Y-27615000D01*
X2248900Y-27713956D01*
X1780280Y-27908065D01*
X1358533Y-28189867D01*
X999867Y-28548533D01*
X718065Y-28970280D01*
X523956Y-29438900D01*
X425000Y-29936385D01*
X425000Y-27316169D01*
X8116667Y-27316169D01*
X8116667Y-27468831D01*
X8146450Y-27618559D01*
X8204871Y-27759600D01*
X8289685Y-27886534D01*
X8397633Y-27994482D01*
X8524567Y-28079296D01*
X8665608Y-28137717D01*
X8815336Y-28167500D01*
X8967998Y-28167500D01*
X9117726Y-28137717D01*
X9258767Y-28079296D01*
X9385701Y-27994482D01*
X9493649Y-27886534D01*
X9578463Y-27759600D01*
X9636884Y-27618559D01*
X9666667Y-27468831D01*
X9666667Y-27316169D01*
X9636884Y-27166441D01*
X9578463Y-27025400D01*
X9493649Y-26898466D01*
X9385701Y-26790518D01*
X9258767Y-26705704D01*
X9117726Y-26647283D01*
X8967998Y-26617500D01*
X8815336Y-26617500D01*
X8665608Y-26647283D01*
X8524567Y-26705704D01*
X8397633Y-26790518D01*
X8289685Y-26898466D01*
X8204871Y-27025400D01*
X8146450Y-27166441D01*
X8116667Y-27316169D01*
X425000Y-27316169D01*
X425000Y-26410723D01*
X446450Y-26518559D01*
X504871Y-26659600D01*
X589685Y-26786534D01*
X697633Y-26894482D01*
X824567Y-26979296D01*
X965608Y-27037717D01*
X1115336Y-27067500D01*
X1267998Y-27067500D01*
X1417726Y-27037717D01*
X1558767Y-26979296D01*
X1685701Y-26894482D01*
X1793649Y-26786534D01*
X1878463Y-26659600D01*
X1936884Y-26518559D01*
X1966667Y-26368831D01*
X1966667Y-26216169D01*
X4816667Y-26216169D01*
X4816667Y-26368831D01*
X4846450Y-26518559D01*
X4904871Y-26659600D01*
X4989685Y-26786534D01*
X5097633Y-26894482D01*
X5224567Y-26979296D01*
X5365608Y-27037717D01*
X5515336Y-27067500D01*
X5667998Y-27067500D01*
X5817726Y-27037717D01*
X5958767Y-26979296D01*
X6085701Y-26894482D01*
X6193649Y-26786534D01*
X6278463Y-26659600D01*
X6336884Y-26518559D01*
X6366667Y-26368831D01*
X6366667Y-26216169D01*
X6336884Y-26066441D01*
X6278463Y-25925400D01*
X6193649Y-25798466D01*
X6085701Y-25690518D01*
X6043415Y-25662263D01*
X11760000Y-25662263D01*
X11760000Y-25957737D01*
X11817644Y-26247534D01*
X11930717Y-26520517D01*
X12094874Y-26766194D01*
X12303806Y-26975126D01*
X12549483Y-27139283D01*
X12822466Y-27252356D01*
X13112263Y-27310000D01*
X13407737Y-27310000D01*
X13697534Y-27252356D01*
X13970517Y-27139283D01*
X14216194Y-26975126D01*
X14425126Y-26766194D01*
X14589283Y-26520517D01*
X14702356Y-26247534D01*
X14760000Y-25957737D01*
X14760000Y-25662263D01*
X14702356Y-25372466D01*
X14596195Y-25116169D01*
X14816667Y-25116169D01*
X14816667Y-25268831D01*
X14846450Y-25418559D01*
X14904871Y-25559600D01*
X14989685Y-25686534D01*
X15097633Y-25794482D01*
X15224567Y-25879296D01*
X15365608Y-25937717D01*
X15515336Y-25967500D01*
X15667998Y-25967500D01*
X15817726Y-25937717D01*
X15958767Y-25879296D01*
X16085701Y-25794482D01*
X16193649Y-25686534D01*
X16209866Y-25662263D01*
X16840000Y-25662263D01*
X16840000Y-25957737D01*
X16897644Y-26247534D01*
X17010717Y-26520517D01*
X17174874Y-26766194D01*
X17383806Y-26975126D01*
X17629483Y-27139283D01*
X17902466Y-27252356D01*
X18192263Y-27310000D01*
X18487737Y-27310000D01*
X18777534Y-27252356D01*
X19050517Y-27139283D01*
X19296194Y-26975126D01*
X19497651Y-26773669D01*
X26784000Y-26773669D01*
X26784000Y-26926331D01*
X26813783Y-27076059D01*
X26872204Y-27217100D01*
X26957018Y-27344034D01*
X27064966Y-27451982D01*
X27191900Y-27536796D01*
X27332941Y-27595217D01*
X27482669Y-27625000D01*
X27635331Y-27625000D01*
X27785059Y-27595217D01*
X27926100Y-27536796D01*
X28053034Y-27451982D01*
X28160982Y-27344034D01*
X28245796Y-27217100D01*
X28304217Y-27076059D01*
X28334000Y-26926331D01*
X28334000Y-26773669D01*
X28304217Y-26623941D01*
X28245796Y-26482900D01*
X28160982Y-26355966D01*
X28053034Y-26248018D01*
X27926100Y-26163204D01*
X27785059Y-26104783D01*
X27635331Y-26075000D01*
X27482669Y-26075000D01*
X27332941Y-26104783D01*
X27191900Y-26163204D01*
X27064966Y-26248018D01*
X26957018Y-26355966D01*
X26872204Y-26482900D01*
X26813783Y-26623941D01*
X26784000Y-26773669D01*
X19497651Y-26773669D01*
X19505126Y-26766194D01*
X19669283Y-26520517D01*
X19782356Y-26247534D01*
X19840000Y-25957737D01*
X19840000Y-25662263D01*
X19782356Y-25372466D01*
X19669283Y-25099483D01*
X19505126Y-24853806D01*
X19296194Y-24644874D01*
X19050517Y-24480717D01*
X18777534Y-24367644D01*
X18487737Y-24310000D01*
X18192263Y-24310000D01*
X17902466Y-24367644D01*
X17629483Y-24480717D01*
X17383806Y-24644874D01*
X17174874Y-24853806D01*
X17010717Y-25099483D01*
X16897644Y-25372466D01*
X16840000Y-25662263D01*
X16209866Y-25662263D01*
X16278463Y-25559600D01*
X16336884Y-25418559D01*
X16366667Y-25268831D01*
X16366667Y-25116169D01*
X16336884Y-24966441D01*
X16278463Y-24825400D01*
X16193649Y-24698466D01*
X16085701Y-24590518D01*
X15958767Y-24505704D01*
X15817726Y-24447283D01*
X15667998Y-24417500D01*
X15515336Y-24417500D01*
X15365608Y-24447283D01*
X15224567Y-24505704D01*
X15097633Y-24590518D01*
X14989685Y-24698466D01*
X14904871Y-24825400D01*
X14846450Y-24966441D01*
X14816667Y-25116169D01*
X14596195Y-25116169D01*
X14589283Y-25099483D01*
X14425126Y-24853806D01*
X14216194Y-24644874D01*
X13970517Y-24480717D01*
X13697534Y-24367644D01*
X13407737Y-24310000D01*
X13112263Y-24310000D01*
X12822466Y-24367644D01*
X12549483Y-24480717D01*
X12303806Y-24644874D01*
X12094874Y-24853806D01*
X11930717Y-25099483D01*
X11817644Y-25372466D01*
X11760000Y-25662263D01*
X6043415Y-25662263D01*
X5958767Y-25605704D01*
X5817726Y-25547283D01*
X5667998Y-25517500D01*
X5515336Y-25517500D01*
X5365608Y-25547283D01*
X5224567Y-25605704D01*
X5097633Y-25690518D01*
X4989685Y-25798466D01*
X4904871Y-25925400D01*
X4846450Y-26066441D01*
X4816667Y-26216169D01*
X1966667Y-26216169D01*
X1936884Y-26066441D01*
X1878463Y-25925400D01*
X1793649Y-25798466D01*
X1685701Y-25690518D01*
X1558767Y-25605704D01*
X1417726Y-25547283D01*
X1267998Y-25517500D01*
X1115336Y-25517500D01*
X965608Y-25547283D01*
X824567Y-25605704D01*
X697633Y-25690518D01*
X589685Y-25798466D01*
X504871Y-25925400D01*
X446450Y-26066441D01*
X425000Y-26174277D01*
X425000Y-23729348D01*
X775000Y-23729348D01*
X775000Y-23970652D01*
X822076Y-24207319D01*
X914419Y-24430255D01*
X1048481Y-24630892D01*
X1219108Y-24801519D01*
X1419745Y-24935581D01*
X1642681Y-25027924D01*
X1879348Y-25075000D01*
X2120652Y-25075000D01*
X2357319Y-25027924D01*
X2580255Y-24935581D01*
X2780892Y-24801519D01*
X2951519Y-24630892D01*
X3085581Y-24430255D01*
X3177924Y-24207319D01*
X3225000Y-23970652D01*
X3225000Y-23729348D01*
X3315000Y-23729348D01*
X3315000Y-23970652D01*
X3362076Y-24207319D01*
X3454419Y-24430255D01*
X3588481Y-24630892D01*
X3759108Y-24801519D01*
X3959745Y-24935581D01*
X4182681Y-25027924D01*
X4419348Y-25075000D01*
X4660652Y-25075000D01*
X4897319Y-25027924D01*
X5120255Y-24935581D01*
X5320892Y-24801519D01*
X5491519Y-24630892D01*
X5625581Y-24430255D01*
X5717924Y-24207319D01*
X5765000Y-23970652D01*
X5765000Y-23729348D01*
X5717924Y-23492681D01*
X5625581Y-23269745D01*
X5491519Y-23069108D01*
X5320892Y-22898481D01*
X5120255Y-22764419D01*
X4897319Y-22672076D01*
X4660652Y-22625000D01*
X4419348Y-22625000D01*
X4182681Y-22672076D01*
X3959745Y-22764419D01*
X3759108Y-22898481D01*
X3588481Y-23069108D01*
X3454419Y-23269745D01*
X3362076Y-23492681D01*
X3315000Y-23729348D01*
X3225000Y-23729348D01*
X3177924Y-23492681D01*
X3085581Y-23269745D01*
X2951519Y-23069108D01*
X2780892Y-22898481D01*
X2580255Y-22764419D01*
X2357319Y-22672076D01*
X2120652Y-22625000D01*
X1879348Y-22625000D01*
X1642681Y-22672076D01*
X1419745Y-22764419D01*
X1219108Y-22898481D01*
X1048481Y-23069108D01*
X914419Y-23269745D01*
X822076Y-23492681D01*
X775000Y-23729348D01*
X425000Y-23729348D01*
X425000Y-21189348D01*
X775000Y-21189348D01*
X775000Y-21430652D01*
X822076Y-21667319D01*
X914419Y-21890255D01*
X1048481Y-22090892D01*
X1219108Y-22261519D01*
X1419745Y-22395581D01*
X1642681Y-22487924D01*
X1879348Y-22535000D01*
X2120652Y-22535000D01*
X2357319Y-22487924D01*
X2580255Y-22395581D01*
X2780892Y-22261519D01*
X2951519Y-22090892D01*
X3085581Y-21890255D01*
X3177924Y-21667319D01*
X3225000Y-21430652D01*
X3225000Y-21189348D01*
X3315000Y-21189348D01*
X3315000Y-21430652D01*
X3362076Y-21667319D01*
X3454419Y-21890255D01*
X3588481Y-22090892D01*
X3759108Y-22261519D01*
X3959745Y-22395581D01*
X4182681Y-22487924D01*
X4419348Y-22535000D01*
X4660652Y-22535000D01*
X4897319Y-22487924D01*
X4977575Y-22454681D01*
X5134081Y-22611188D01*
X5149737Y-22630265D01*
X5225872Y-22692747D01*
X5312734Y-22739176D01*
X5406984Y-22767766D01*
X5505001Y-22777420D01*
X5529561Y-22775001D01*
X11073441Y-22775001D01*
X11098001Y-22777420D01*
X11122561Y-22775001D01*
X11196018Y-22767766D01*
X11290268Y-22739176D01*
X11377130Y-22692747D01*
X11417034Y-22659999D01*
X22490540Y-22659999D01*
X22446450Y-22766441D01*
X22416667Y-22916169D01*
X22416667Y-23068831D01*
X22446450Y-23218559D01*
X22504871Y-23359600D01*
X22589685Y-23486534D01*
X22697633Y-23594482D01*
X22824567Y-23679296D01*
X22965608Y-23737717D01*
X23115336Y-23767500D01*
X23267998Y-23767500D01*
X23417726Y-23737717D01*
X23558767Y-23679296D01*
X23685701Y-23594482D01*
X23706514Y-23573669D01*
X27850000Y-23573669D01*
X27850000Y-23726331D01*
X27879783Y-23876059D01*
X27938204Y-24017100D01*
X28023018Y-24144034D01*
X28130966Y-24251982D01*
X28257900Y-24336796D01*
X28398941Y-24395217D01*
X28548669Y-24425000D01*
X28701331Y-24425000D01*
X28851059Y-24395217D01*
X28992100Y-24336796D01*
X29119034Y-24251982D01*
X29226982Y-24144034D01*
X29311796Y-24017100D01*
X29370217Y-23876059D01*
X29400000Y-23726331D01*
X29400000Y-23573669D01*
X29370217Y-23423941D01*
X29311796Y-23282900D01*
X29226982Y-23155966D01*
X29119034Y-23048018D01*
X28992100Y-22963204D01*
X28851059Y-22904783D01*
X28701331Y-22875000D01*
X28548669Y-22875000D01*
X28398941Y-22904783D01*
X28257900Y-22963204D01*
X28130966Y-23048018D01*
X28023018Y-23155966D01*
X27938204Y-23282900D01*
X27879783Y-23423941D01*
X27850000Y-23573669D01*
X23706514Y-23573669D01*
X23793649Y-23486534D01*
X23878463Y-23359600D01*
X23936884Y-23218559D01*
X23966667Y-23068831D01*
X23966667Y-22916169D01*
X23936884Y-22766441D01*
X23878463Y-22625400D01*
X23841698Y-22570377D01*
X23908855Y-22515263D01*
X23924520Y-22496175D01*
X25704526Y-20716169D01*
X26816667Y-20716169D01*
X26816667Y-20868831D01*
X26846450Y-21018559D01*
X26904871Y-21159600D01*
X26989685Y-21286534D01*
X27097633Y-21394482D01*
X27224567Y-21479296D01*
X27365608Y-21537717D01*
X27515336Y-21567500D01*
X27667998Y-21567500D01*
X27817726Y-21537717D01*
X27958767Y-21479296D01*
X28085701Y-21394482D01*
X28193649Y-21286534D01*
X28278463Y-21159600D01*
X28336884Y-21018559D01*
X28350060Y-20952317D01*
X28354783Y-20976059D01*
X28413204Y-21117100D01*
X28498018Y-21244034D01*
X28605966Y-21351982D01*
X28732900Y-21436796D01*
X28873941Y-21495217D01*
X29023669Y-21525000D01*
X29176331Y-21525000D01*
X29326059Y-21495217D01*
X29467100Y-21436796D01*
X29594034Y-21351982D01*
X29701982Y-21244034D01*
X29786796Y-21117100D01*
X29845217Y-20976059D01*
X29875000Y-20826331D01*
X29875000Y-20673669D01*
X29845217Y-20523941D01*
X29786796Y-20382900D01*
X29701982Y-20255966D01*
X29594034Y-20148018D01*
X29467100Y-20063204D01*
X29326059Y-20004783D01*
X29176331Y-19975000D01*
X29023669Y-19975000D01*
X28873941Y-20004783D01*
X28732900Y-20063204D01*
X28605966Y-20148018D01*
X28498018Y-20255966D01*
X28413204Y-20382900D01*
X28354783Y-20523941D01*
X28341607Y-20590183D01*
X28336884Y-20566441D01*
X28278463Y-20425400D01*
X28193649Y-20298466D01*
X28085701Y-20190518D01*
X27958767Y-20105704D01*
X27817726Y-20047283D01*
X27667998Y-20017500D01*
X27515336Y-20017500D01*
X27365608Y-20047283D01*
X27224567Y-20105704D01*
X27097633Y-20190518D01*
X26989685Y-20298466D01*
X26904871Y-20425400D01*
X26846450Y-20566441D01*
X26816667Y-20716169D01*
X25704526Y-20716169D01*
X27947027Y-18473669D01*
X28325000Y-18473669D01*
X28325000Y-18626331D01*
X28354783Y-18776059D01*
X28413204Y-18917100D01*
X28498018Y-19044034D01*
X28605966Y-19151982D01*
X28732900Y-19236796D01*
X28873941Y-19295217D01*
X29023669Y-19325000D01*
X29176331Y-19325000D01*
X29326059Y-19295217D01*
X29467100Y-19236796D01*
X29594034Y-19151982D01*
X29701982Y-19044034D01*
X29786796Y-18917100D01*
X29845217Y-18776059D01*
X29875000Y-18626331D01*
X29875000Y-18473669D01*
X29845217Y-18323941D01*
X29786796Y-18182900D01*
X29701982Y-18055966D01*
X29594034Y-17948018D01*
X29467100Y-17863204D01*
X29326059Y-17804783D01*
X29176331Y-17775000D01*
X29023669Y-17775000D01*
X28873941Y-17804783D01*
X28732900Y-17863204D01*
X28605966Y-17948018D01*
X28498018Y-18055966D01*
X28413204Y-18182900D01*
X28354783Y-18323941D01*
X28325000Y-18473669D01*
X27947027Y-18473669D01*
X30100001Y-16320696D01*
X30100001Y-24375000D01*
X30023669Y-24375000D01*
X29873941Y-24404783D01*
X29732900Y-24463204D01*
X29605966Y-24548018D01*
X29498018Y-24655966D01*
X29413204Y-24782900D01*
X29354783Y-24923941D01*
X29325000Y-25073669D01*
X29325000Y-25226331D01*
X29354783Y-25376059D01*
X29413204Y-25517100D01*
X29498018Y-25644034D01*
X29605966Y-25751982D01*
X29732900Y-25836796D01*
X29873941Y-25895217D01*
X30023669Y-25925000D01*
X30176331Y-25925000D01*
X30326059Y-25895217D01*
X30467100Y-25836796D01*
X30594034Y-25751982D01*
X30701982Y-25644034D01*
X30786796Y-25517100D01*
X30845217Y-25376059D01*
X30875000Y-25226331D01*
X30875000Y-25082107D01*
X30936186Y-25020921D01*
X30955264Y-25005264D01*
X31017746Y-24929129D01*
X31064175Y-24842267D01*
X31092765Y-24748017D01*
X31100000Y-24674560D01*
X31102419Y-24650000D01*
X31100000Y-24625440D01*
X31100000Y-23063564D01*
X32212440Y-23063564D01*
X32212440Y-23366436D01*
X32271527Y-23663490D01*
X32387432Y-23943308D01*
X32555699Y-24195138D01*
X32769862Y-24409301D01*
X33021692Y-24577568D01*
X33301510Y-24693473D01*
X33598564Y-24752560D01*
X33901436Y-24752560D01*
X34198490Y-24693473D01*
X34478308Y-24577568D01*
X34730138Y-24409301D01*
X34944301Y-24195138D01*
X35063883Y-24016169D01*
X35616667Y-24016169D01*
X35616667Y-24168831D01*
X35646450Y-24318559D01*
X35704871Y-24459600D01*
X35789685Y-24586534D01*
X35897633Y-24694482D01*
X36024567Y-24779296D01*
X36165608Y-24837717D01*
X36315336Y-24867500D01*
X36467998Y-24867500D01*
X36617726Y-24837717D01*
X36758767Y-24779296D01*
X36885701Y-24694482D01*
X36993649Y-24586534D01*
X37078463Y-24459600D01*
X37136884Y-24318559D01*
X37166667Y-24168831D01*
X37166667Y-24016169D01*
X37136884Y-23866441D01*
X37078463Y-23725400D01*
X36993649Y-23598466D01*
X36885701Y-23490518D01*
X36758767Y-23405704D01*
X36617726Y-23347283D01*
X36467998Y-23317500D01*
X36315336Y-23317500D01*
X36165608Y-23347283D01*
X36024567Y-23405704D01*
X35897633Y-23490518D01*
X35789685Y-23598466D01*
X35704871Y-23725400D01*
X35646450Y-23866441D01*
X35616667Y-24016169D01*
X35063883Y-24016169D01*
X35112568Y-23943308D01*
X35228473Y-23663490D01*
X35287560Y-23366436D01*
X35287560Y-23063564D01*
X35228473Y-22766510D01*
X35112568Y-22486692D01*
X34944301Y-22234862D01*
X34730138Y-22020699D01*
X34478308Y-21852432D01*
X34198490Y-21736527D01*
X33901436Y-21677440D01*
X33598564Y-21677440D01*
X33301510Y-21736527D01*
X33021692Y-21852432D01*
X32769862Y-22020699D01*
X32555699Y-22234862D01*
X32387432Y-22486692D01*
X32271527Y-22766510D01*
X32212440Y-23063564D01*
X31100000Y-23063564D01*
X31100000Y-20713669D01*
X31425000Y-20713669D01*
X31425000Y-20866331D01*
X31454783Y-21016059D01*
X31513204Y-21157100D01*
X31598018Y-21284034D01*
X31705966Y-21391982D01*
X31832900Y-21476796D01*
X31973941Y-21535217D01*
X32123669Y-21565000D01*
X32276331Y-21565000D01*
X32426059Y-21535217D01*
X32567100Y-21476796D01*
X32694034Y-21391982D01*
X32801982Y-21284034D01*
X32806046Y-21277952D01*
X32810110Y-21284034D01*
X32918058Y-21391982D01*
X33044992Y-21476796D01*
X33186033Y-21535217D01*
X33335761Y-21565000D01*
X33488423Y-21565000D01*
X33638151Y-21535217D01*
X33779192Y-21476796D01*
X33906126Y-21391982D01*
X34014074Y-21284034D01*
X34098888Y-21157100D01*
X34115116Y-21117923D01*
X34131343Y-21157100D01*
X34216157Y-21284034D01*
X34324105Y-21391982D01*
X34451039Y-21476796D01*
X34592080Y-21535217D01*
X34741808Y-21565000D01*
X34894470Y-21565000D01*
X35044198Y-21535217D01*
X35185239Y-21476796D01*
X35312173Y-21391982D01*
X35313874Y-21390281D01*
X35334217Y-21492549D01*
X35392638Y-21633590D01*
X35477452Y-21760524D01*
X35585400Y-21868472D01*
X35712334Y-21953286D01*
X35853375Y-22011707D01*
X36003103Y-22041490D01*
X36155765Y-22041490D01*
X36305493Y-22011707D01*
X36446534Y-21953286D01*
X36455541Y-21947267D01*
X36445780Y-21996341D01*
X36445780Y-22149003D01*
X36475563Y-22298731D01*
X36533984Y-22439772D01*
X36618798Y-22566706D01*
X36726746Y-22674654D01*
X36853680Y-22759468D01*
X36994721Y-22817889D01*
X37144449Y-22847672D01*
X37297111Y-22847672D01*
X37446839Y-22817889D01*
X37587880Y-22759468D01*
X37714814Y-22674654D01*
X37822762Y-22566706D01*
X37826306Y-22561402D01*
X37836673Y-22613520D01*
X37895094Y-22754561D01*
X37979908Y-22881495D01*
X38087856Y-22989443D01*
X38214790Y-23074257D01*
X38355831Y-23132678D01*
X38505559Y-23162461D01*
X38658221Y-23162461D01*
X38807949Y-23132678D01*
X38899546Y-23094737D01*
X38817644Y-23292466D01*
X38760000Y-23582263D01*
X38760000Y-23877737D01*
X38817644Y-24167534D01*
X38930717Y-24440517D01*
X39094874Y-24686194D01*
X39303806Y-24895126D01*
X39549483Y-25059283D01*
X39822466Y-25172356D01*
X40112263Y-25230000D01*
X40407737Y-25230000D01*
X40697534Y-25172356D01*
X40970517Y-25059283D01*
X41216194Y-24895126D01*
X41425126Y-24686194D01*
X41589283Y-24440517D01*
X41702356Y-24167534D01*
X41732464Y-24016169D01*
X42216667Y-24016169D01*
X42216667Y-24168831D01*
X42246450Y-24318559D01*
X42304871Y-24459600D01*
X42389685Y-24586534D01*
X42497633Y-24694482D01*
X42624567Y-24779296D01*
X42765608Y-24837717D01*
X42915336Y-24867500D01*
X43067998Y-24867500D01*
X43217726Y-24837717D01*
X43358767Y-24779296D01*
X43485701Y-24694482D01*
X43593649Y-24586534D01*
X43678463Y-24459600D01*
X43736884Y-24318559D01*
X43766667Y-24168831D01*
X43766667Y-24016169D01*
X43736884Y-23866441D01*
X43678463Y-23725400D01*
X43593649Y-23598466D01*
X43485701Y-23490518D01*
X43358767Y-23405704D01*
X43217726Y-23347283D01*
X43067998Y-23317500D01*
X42915336Y-23317500D01*
X42765608Y-23347283D01*
X42624567Y-23405704D01*
X42497633Y-23490518D01*
X42389685Y-23598466D01*
X42304871Y-23725400D01*
X42246450Y-23866441D01*
X42216667Y-24016169D01*
X41732464Y-24016169D01*
X41760000Y-23877737D01*
X41760000Y-23582263D01*
X41702356Y-23292466D01*
X41589283Y-23019483D01*
X41425126Y-22773806D01*
X41216194Y-22564874D01*
X40970517Y-22400717D01*
X40697534Y-22287644D01*
X40407737Y-22230000D01*
X40112263Y-22230000D01*
X39822466Y-22287644D01*
X39549483Y-22400717D01*
X39341838Y-22539462D01*
X39356890Y-22463792D01*
X39356890Y-22311130D01*
X39327107Y-22161402D01*
X39268686Y-22020361D01*
X39183872Y-21893427D01*
X39075924Y-21785479D01*
X38948990Y-21700665D01*
X38807949Y-21642244D01*
X38658221Y-21612461D01*
X38505559Y-21612461D01*
X38355831Y-21642244D01*
X38214790Y-21700665D01*
X38087856Y-21785479D01*
X37979908Y-21893427D01*
X37976364Y-21898731D01*
X37965997Y-21846613D01*
X37907576Y-21705572D01*
X37822762Y-21578638D01*
X37714814Y-21470690D01*
X37587880Y-21385876D01*
X37446839Y-21327455D01*
X37297111Y-21297672D01*
X37144449Y-21297672D01*
X36994721Y-21327455D01*
X36853680Y-21385876D01*
X36844673Y-21391895D01*
X36854434Y-21342821D01*
X36854434Y-21190159D01*
X36824651Y-21040431D01*
X36813172Y-21012716D01*
X41000000Y-21012716D01*
X41000000Y-21367284D01*
X41069173Y-21715041D01*
X41204861Y-22042620D01*
X41401849Y-22337433D01*
X41652567Y-22588151D01*
X41947380Y-22785139D01*
X42274959Y-22920827D01*
X42622716Y-22990000D01*
X42977284Y-22990000D01*
X43325041Y-22920827D01*
X43652620Y-22785139D01*
X43947433Y-22588151D01*
X44198151Y-22337433D01*
X44395139Y-22042620D01*
X44530827Y-21715041D01*
X44600000Y-21367284D01*
X44600000Y-21012716D01*
X44530827Y-20664959D01*
X44395139Y-20337380D01*
X44198151Y-20042567D01*
X43947433Y-19791849D01*
X43652620Y-19594861D01*
X43325041Y-19459173D01*
X42977284Y-19390000D01*
X42622716Y-19390000D01*
X42274959Y-19459173D01*
X41947380Y-19594861D01*
X41652567Y-19791849D01*
X41401849Y-20042567D01*
X41204861Y-20337380D01*
X41069173Y-20664959D01*
X41000000Y-21012716D01*
X36813172Y-21012716D01*
X36766230Y-20899390D01*
X36681416Y-20772456D01*
X36573468Y-20664508D01*
X36446534Y-20579694D01*
X36305493Y-20521273D01*
X36155765Y-20491490D01*
X36003103Y-20491490D01*
X35853375Y-20521273D01*
X35712334Y-20579694D01*
X35585400Y-20664508D01*
X35583699Y-20666209D01*
X35563356Y-20563941D01*
X35504935Y-20422900D01*
X35420121Y-20295966D01*
X35312173Y-20188018D01*
X35185239Y-20103204D01*
X35044198Y-20044783D01*
X34894470Y-20015000D01*
X34741808Y-20015000D01*
X34592080Y-20044783D01*
X34451039Y-20103204D01*
X34324105Y-20188018D01*
X34216157Y-20295966D01*
X34131343Y-20422900D01*
X34115116Y-20462077D01*
X34098888Y-20422900D01*
X34014074Y-20295966D01*
X33906126Y-20188018D01*
X33779192Y-20103204D01*
X33638151Y-20044783D01*
X33488423Y-20015000D01*
X33335761Y-20015000D01*
X33186033Y-20044783D01*
X33044992Y-20103204D01*
X32918058Y-20188018D01*
X32810110Y-20295966D01*
X32806046Y-20302048D01*
X32801982Y-20295966D01*
X32694034Y-20188018D01*
X32567100Y-20103204D01*
X32426059Y-20044783D01*
X32276331Y-20015000D01*
X32123669Y-20015000D01*
X31973941Y-20044783D01*
X31832900Y-20103204D01*
X31705966Y-20188018D01*
X31598018Y-20295966D01*
X31513204Y-20422900D01*
X31454783Y-20563941D01*
X31425000Y-20713669D01*
X31100000Y-20713669D01*
X31100000Y-18313669D01*
X31425000Y-18313669D01*
X31425000Y-18466331D01*
X31454783Y-18616059D01*
X31513204Y-18757100D01*
X31598018Y-18884034D01*
X31705966Y-18991982D01*
X31832900Y-19076796D01*
X31973941Y-19135217D01*
X32123669Y-19165000D01*
X32276331Y-19165000D01*
X32426059Y-19135217D01*
X32567100Y-19076796D01*
X32694034Y-18991982D01*
X32801982Y-18884034D01*
X32806046Y-18877952D01*
X32810110Y-18884034D01*
X32918058Y-18991982D01*
X33044992Y-19076796D01*
X33186033Y-19135217D01*
X33335761Y-19165000D01*
X33488423Y-19165000D01*
X33638151Y-19135217D01*
X33779192Y-19076796D01*
X33906126Y-18991982D01*
X34014074Y-18884034D01*
X34098888Y-18757100D01*
X34115116Y-18717923D01*
X34131343Y-18757100D01*
X34216157Y-18884034D01*
X34324105Y-18991982D01*
X34451039Y-19076796D01*
X34592080Y-19135217D01*
X34741808Y-19165000D01*
X34894470Y-19165000D01*
X35044198Y-19135217D01*
X35185239Y-19076796D01*
X35312173Y-18991982D01*
X35420121Y-18884034D01*
X35469259Y-18810493D01*
X35519231Y-18931135D01*
X35604045Y-19058069D01*
X35711993Y-19166017D01*
X35838927Y-19250831D01*
X35979968Y-19309252D01*
X36129696Y-19339035D01*
X36282358Y-19339035D01*
X36432086Y-19309252D01*
X36573127Y-19250831D01*
X36653372Y-19197213D01*
X36653372Y-19316899D01*
X36683155Y-19466627D01*
X36741576Y-19607668D01*
X36826390Y-19734602D01*
X36934338Y-19842550D01*
X37061272Y-19927364D01*
X37202313Y-19985785D01*
X37352041Y-20015568D01*
X37504703Y-20015568D01*
X37654431Y-19985785D01*
X37795472Y-19927364D01*
X37807041Y-19919634D01*
X37807041Y-20060198D01*
X37836824Y-20209926D01*
X37895245Y-20350967D01*
X37980059Y-20477901D01*
X38088007Y-20585849D01*
X38214941Y-20670663D01*
X38355982Y-20729084D01*
X38505710Y-20758867D01*
X38658372Y-20758867D01*
X38808100Y-20729084D01*
X38949141Y-20670663D01*
X39076075Y-20585849D01*
X39184023Y-20477901D01*
X39268837Y-20350967D01*
X39327258Y-20209926D01*
X39357041Y-20060198D01*
X39357041Y-19907536D01*
X39344002Y-19841984D01*
X39549483Y-19979283D01*
X39822466Y-20092356D01*
X40112263Y-20150000D01*
X40407737Y-20150000D01*
X40697534Y-20092356D01*
X40970517Y-19979283D01*
X41216194Y-19815126D01*
X41425126Y-19606194D01*
X41589283Y-19360517D01*
X41702356Y-19087534D01*
X41760000Y-18797737D01*
X41760000Y-18502263D01*
X41702356Y-18212466D01*
X41589283Y-17939483D01*
X41425126Y-17693806D01*
X41216194Y-17484874D01*
X40970517Y-17320717D01*
X40697534Y-17207644D01*
X40407737Y-17150000D01*
X40112263Y-17150000D01*
X39822466Y-17207644D01*
X39549483Y-17320717D01*
X39303806Y-17484874D01*
X39094874Y-17693806D01*
X38930717Y-17939483D01*
X38817644Y-18212466D01*
X38760000Y-18502263D01*
X38760000Y-18797737D01*
X38817644Y-19087534D01*
X38895178Y-19274719D01*
X38808100Y-19238650D01*
X38658372Y-19208867D01*
X38505710Y-19208867D01*
X38355982Y-19238650D01*
X38214941Y-19297071D01*
X38203372Y-19304801D01*
X38203372Y-19164237D01*
X38173589Y-19014509D01*
X38115168Y-18873468D01*
X38030354Y-18746534D01*
X37922406Y-18638586D01*
X37795472Y-18553772D01*
X37654431Y-18495351D01*
X37504703Y-18465568D01*
X37352041Y-18465568D01*
X37202313Y-18495351D01*
X37061272Y-18553772D01*
X36981027Y-18607390D01*
X36981027Y-18487704D01*
X36951244Y-18337976D01*
X36892823Y-18196935D01*
X36808009Y-18070001D01*
X36700061Y-17962053D01*
X36573127Y-17877239D01*
X36432086Y-17818818D01*
X36282358Y-17789035D01*
X36129696Y-17789035D01*
X35979968Y-17818818D01*
X35838927Y-17877239D01*
X35711993Y-17962053D01*
X35604045Y-18070001D01*
X35554907Y-18143542D01*
X35504935Y-18022900D01*
X35420121Y-17895966D01*
X35312173Y-17788018D01*
X35185239Y-17703204D01*
X35044198Y-17644783D01*
X34894470Y-17615000D01*
X34741808Y-17615000D01*
X34592080Y-17644783D01*
X34451039Y-17703204D01*
X34324105Y-17788018D01*
X34216157Y-17895966D01*
X34131343Y-18022900D01*
X34115116Y-18062077D01*
X34098888Y-18022900D01*
X34014074Y-17895966D01*
X33906126Y-17788018D01*
X33779192Y-17703204D01*
X33638151Y-17644783D01*
X33488423Y-17615000D01*
X33335761Y-17615000D01*
X33186033Y-17644783D01*
X33044992Y-17703204D01*
X32918058Y-17788018D01*
X32810110Y-17895966D01*
X32806046Y-17902048D01*
X32801982Y-17895966D01*
X32694034Y-17788018D01*
X32567100Y-17703204D01*
X32426059Y-17644783D01*
X32276331Y-17615000D01*
X32123669Y-17615000D01*
X31973941Y-17644783D01*
X31832900Y-17703204D01*
X31705966Y-17788018D01*
X31598018Y-17895966D01*
X31513204Y-18022900D01*
X31454783Y-18163941D01*
X31425000Y-18313669D01*
X31100000Y-18313669D01*
X31100000Y-16723669D01*
X34625000Y-16723669D01*
X34625000Y-16876331D01*
X34654783Y-17026059D01*
X34713204Y-17167100D01*
X34798018Y-17294034D01*
X34905966Y-17401982D01*
X35032900Y-17486796D01*
X35173941Y-17545217D01*
X35323669Y-17575000D01*
X35476331Y-17575000D01*
X35626059Y-17545217D01*
X35767100Y-17486796D01*
X35894034Y-17401982D01*
X36001982Y-17294034D01*
X36086796Y-17167100D01*
X36145217Y-17026059D01*
X36175000Y-16876331D01*
X36175000Y-16723669D01*
X36145217Y-16573941D01*
X36086796Y-16432900D01*
X36001982Y-16305966D01*
X35894034Y-16198018D01*
X35767100Y-16113204D01*
X35626059Y-16054783D01*
X35476331Y-16025000D01*
X35323669Y-16025000D01*
X35173941Y-16054783D01*
X35032900Y-16113204D01*
X34905966Y-16198018D01*
X34798018Y-16305966D01*
X34713204Y-16432900D01*
X34654783Y-16573941D01*
X34625000Y-16723669D01*
X31100000Y-16723669D01*
X31100000Y-15977669D01*
X36525000Y-15977669D01*
X36525000Y-16130331D01*
X36554783Y-16280059D01*
X36613204Y-16421100D01*
X36698018Y-16548034D01*
X36805966Y-16655982D01*
X36932900Y-16740796D01*
X37073941Y-16799217D01*
X37223669Y-16829000D01*
X37376331Y-16829000D01*
X37526059Y-16799217D01*
X37667100Y-16740796D01*
X37794034Y-16655982D01*
X37901982Y-16548034D01*
X37986796Y-16421100D01*
X38045217Y-16280059D01*
X38075000Y-16130331D01*
X38075000Y-15977669D01*
X38045217Y-15827941D01*
X37986796Y-15686900D01*
X37901982Y-15559966D01*
X37794034Y-15452018D01*
X37667100Y-15367204D01*
X37526059Y-15308783D01*
X37376331Y-15279000D01*
X37223669Y-15279000D01*
X37073941Y-15308783D01*
X36932900Y-15367204D01*
X36805966Y-15452018D01*
X36698018Y-15559966D01*
X36613204Y-15686900D01*
X36554783Y-15827941D01*
X36525000Y-15977669D01*
X31100000Y-15977669D01*
X31100000Y-13023669D01*
X33725000Y-13023669D01*
X33725000Y-13176331D01*
X33754783Y-13326059D01*
X33813204Y-13467100D01*
X33898018Y-13594034D01*
X34005966Y-13701982D01*
X34132900Y-13786796D01*
X34273941Y-13845217D01*
X34423669Y-13875000D01*
X34576331Y-13875000D01*
X34726059Y-13845217D01*
X34867100Y-13786796D01*
X34994034Y-13701982D01*
X35101982Y-13594034D01*
X35186796Y-13467100D01*
X35245217Y-13326059D01*
X35275000Y-13176331D01*
X35275000Y-13023669D01*
X35245217Y-12873941D01*
X35186796Y-12732900D01*
X35101982Y-12605966D01*
X34994034Y-12498018D01*
X34867100Y-12413204D01*
X34726059Y-12354783D01*
X34576331Y-12325000D01*
X34423669Y-12325000D01*
X34273941Y-12354783D01*
X34132900Y-12413204D01*
X34005966Y-12498018D01*
X33898018Y-12605966D01*
X33813204Y-12732900D01*
X33754783Y-12873941D01*
X33725000Y-13023669D01*
X31100000Y-13023669D01*
X31100000Y-9347564D01*
X32212440Y-9347564D01*
X32212440Y-9650436D01*
X32271527Y-9947490D01*
X32387432Y-10227308D01*
X32555699Y-10479138D01*
X32769862Y-10693301D01*
X33021692Y-10861568D01*
X33301510Y-10977473D01*
X33598564Y-11036560D01*
X33901436Y-11036560D01*
X34198490Y-10977473D01*
X34478308Y-10861568D01*
X34672131Y-10732060D01*
X34654783Y-10773941D01*
X34625000Y-10923669D01*
X34625000Y-11076331D01*
X34654783Y-11226059D01*
X34713204Y-11367100D01*
X34798018Y-11494034D01*
X34905966Y-11601982D01*
X35032900Y-11686796D01*
X35173941Y-11745217D01*
X35323669Y-11775000D01*
X35476331Y-11775000D01*
X35626059Y-11745217D01*
X35767100Y-11686796D01*
X35894034Y-11601982D01*
X36001982Y-11494034D01*
X36086796Y-11367100D01*
X36145217Y-11226059D01*
X36175000Y-11076331D01*
X36175000Y-10923669D01*
X36145217Y-10773941D01*
X36086796Y-10632900D01*
X36001982Y-10505966D01*
X35894034Y-10398018D01*
X35767100Y-10313204D01*
X35626059Y-10254783D01*
X35476331Y-10225000D01*
X35323669Y-10225000D01*
X35173941Y-10254783D01*
X35063698Y-10300447D01*
X35112568Y-10227308D01*
X35228473Y-9947490D01*
X35287560Y-9650436D01*
X35287560Y-9347564D01*
X35228473Y-9050510D01*
X35112568Y-8770692D01*
X34944301Y-8518862D01*
X34730138Y-8304699D01*
X34478308Y-8136432D01*
X34198490Y-8020527D01*
X33901436Y-7961440D01*
X33598564Y-7961440D01*
X33301510Y-8020527D01*
X33021692Y-8136432D01*
X32769862Y-8304699D01*
X32555699Y-8518862D01*
X32387432Y-8770692D01*
X32271527Y-9050510D01*
X32212440Y-9347564D01*
X31100000Y-9347564D01*
X31100000Y-7323669D01*
X38325000Y-7323669D01*
X38325000Y-7476331D01*
X38354783Y-7626059D01*
X38413204Y-7767100D01*
X38498018Y-7894034D01*
X38605966Y-8001982D01*
X38732900Y-8086796D01*
X38873941Y-8145217D01*
X39023669Y-8175000D01*
X39136272Y-8175000D01*
X39125000Y-8231669D01*
X39125000Y-8384331D01*
X39154783Y-8534059D01*
X39213204Y-8675100D01*
X39298018Y-8802034D01*
X39405966Y-8909982D01*
X39532900Y-8994796D01*
X39673941Y-9053217D01*
X39823669Y-9083000D01*
X39976331Y-9083000D01*
X40126059Y-9053217D01*
X40267100Y-8994796D01*
X40394034Y-8909982D01*
X40501982Y-8802034D01*
X40586796Y-8675100D01*
X40645217Y-8534059D01*
X40675000Y-8384331D01*
X40675000Y-8231669D01*
X40645217Y-8081941D01*
X40586796Y-7940900D01*
X40501982Y-7813966D01*
X40394034Y-7706018D01*
X40267100Y-7621204D01*
X40126059Y-7562783D01*
X39976331Y-7533000D01*
X39863728Y-7533000D01*
X39875000Y-7476331D01*
X39875000Y-7323669D01*
X39845217Y-7173941D01*
X39786796Y-7032900D01*
X39701982Y-6905966D01*
X39594034Y-6798018D01*
X39467100Y-6713204D01*
X39326059Y-6654783D01*
X39176331Y-6625000D01*
X39023669Y-6625000D01*
X38873941Y-6654783D01*
X38732900Y-6713204D01*
X38605966Y-6798018D01*
X38498018Y-6905966D01*
X38413204Y-7032900D01*
X38354783Y-7173941D01*
X38325000Y-7323669D01*
X31100000Y-7323669D01*
X31100000Y-6416169D01*
X36716667Y-6416169D01*
X36716667Y-6568831D01*
X36746450Y-6718559D01*
X36804871Y-6859600D01*
X36889685Y-6986534D01*
X36997633Y-7094482D01*
X37124567Y-7179296D01*
X37265608Y-7237717D01*
X37415336Y-7267500D01*
X37567998Y-7267500D01*
X37717726Y-7237717D01*
X37858767Y-7179296D01*
X37985701Y-7094482D01*
X38093649Y-6986534D01*
X38178463Y-6859600D01*
X38236884Y-6718559D01*
X38266667Y-6568831D01*
X38266667Y-6416169D01*
X38236884Y-6266441D01*
X38178463Y-6125400D01*
X38093649Y-5998466D01*
X37985701Y-5890518D01*
X37858767Y-5805704D01*
X37717726Y-5747283D01*
X37567998Y-5717500D01*
X37415336Y-5717500D01*
X37265608Y-5747283D01*
X37124567Y-5805704D01*
X36997633Y-5890518D01*
X36889685Y-5998466D01*
X36804871Y-6125400D01*
X36746450Y-6266441D01*
X36716667Y-6416169D01*
X31100000Y-6416169D01*
X31100000Y-5257105D01*
X32832106Y-3525000D01*
X32976331Y-3525000D01*
X33126059Y-3495217D01*
X33267100Y-3436796D01*
X33394034Y-3351982D01*
X33501982Y-3244034D01*
X33586796Y-3117100D01*
X33645217Y-2976059D01*
X33675000Y-2826331D01*
X33675000Y-2673669D01*
X33652264Y-2559370D01*
X33750000Y-2657106D01*
X33750000Y-2801331D01*
X33779783Y-2951059D01*
X33838204Y-3092100D01*
X33923018Y-3219034D01*
X34030966Y-3326982D01*
X34157900Y-3411796D01*
X34298941Y-3470217D01*
X34448669Y-3500000D01*
X34601331Y-3500000D01*
X34751059Y-3470217D01*
X34892100Y-3411796D01*
X35019034Y-3326982D01*
X35126982Y-3219034D01*
X35211796Y-3092100D01*
X35270217Y-2951059D01*
X35300000Y-2801331D01*
X35300000Y-2723669D01*
X35616667Y-2723669D01*
X35616667Y-2876331D01*
X35646450Y-3026059D01*
X35704871Y-3167100D01*
X35789685Y-3294034D01*
X35897633Y-3401982D01*
X36024567Y-3486796D01*
X36165608Y-3545217D01*
X36315336Y-3575000D01*
X36467998Y-3575000D01*
X36617726Y-3545217D01*
X36758767Y-3486796D01*
X36885701Y-3401982D01*
X36993649Y-3294034D01*
X37078463Y-3167100D01*
X37136884Y-3026059D01*
X37166667Y-2876331D01*
X37166667Y-2723669D01*
X37136884Y-2573941D01*
X37078463Y-2432900D01*
X36993649Y-2305966D01*
X36885701Y-2198018D01*
X36758767Y-2113204D01*
X36617726Y-2054783D01*
X36467998Y-2025000D01*
X36315336Y-2025000D01*
X36165608Y-2054783D01*
X36024567Y-2113204D01*
X35897633Y-2198018D01*
X35789685Y-2305966D01*
X35704871Y-2432900D01*
X35646450Y-2573941D01*
X35616667Y-2723669D01*
X35300000Y-2723669D01*
X35300000Y-2648669D01*
X35270217Y-2498941D01*
X35211796Y-2357900D01*
X35126982Y-2230966D01*
X35019034Y-2123018D01*
X34892100Y-2038204D01*
X34751059Y-1979783D01*
X34601331Y-1950000D01*
X34457106Y-1950000D01*
X34430769Y-1923663D01*
X38325000Y-1923663D01*
X38325000Y-2076325D01*
X38354783Y-2226053D01*
X38413204Y-2367094D01*
X38498018Y-2494028D01*
X38605966Y-2601976D01*
X38732900Y-2686790D01*
X38873941Y-2745211D01*
X39023669Y-2774994D01*
X39176331Y-2774994D01*
X39326059Y-2745211D01*
X39467100Y-2686790D01*
X39594034Y-2601976D01*
X39701982Y-2494028D01*
X39786796Y-2367094D01*
X39845217Y-2226053D01*
X39875000Y-2076325D01*
X39875000Y-1923663D01*
X39845217Y-1773935D01*
X39786796Y-1632894D01*
X39701982Y-1505960D01*
X39594034Y-1398012D01*
X39467100Y-1313198D01*
X39326059Y-1254777D01*
X39176331Y-1224994D01*
X39023669Y-1224994D01*
X38873941Y-1254777D01*
X38732900Y-1313198D01*
X38605966Y-1398012D01*
X38498018Y-1505960D01*
X38413204Y-1632894D01*
X38354783Y-1773935D01*
X38325000Y-1923663D01*
X34430769Y-1923663D01*
X34120929Y-1613824D01*
X34105264Y-1594736D01*
X34029129Y-1532254D01*
X33942267Y-1485825D01*
X33848017Y-1457235D01*
X33774560Y-1450000D01*
X33750000Y-1447581D01*
X33725440Y-1450000D01*
X31724560Y-1450000D01*
X31700000Y-1447581D01*
X31675440Y-1450000D01*
X31601983Y-1457235D01*
X31507733Y-1485825D01*
X31420871Y-1532254D01*
X31344736Y-1594736D01*
X31329080Y-1613813D01*
X29813808Y-3129087D01*
X29794726Y-3144747D01*
X29732244Y-3220882D01*
X29685815Y-3307744D01*
X29657224Y-3401994D01*
X29647570Y-3500011D01*
X29649990Y-3524581D01*
X29649989Y-14603987D01*
X29634030Y-14588028D01*
X29507096Y-14503214D01*
X29366055Y-14444793D01*
X29216327Y-14415010D01*
X29063665Y-14415010D01*
X28913937Y-14444793D01*
X28772896Y-14503214D01*
X28645962Y-14588028D01*
X28538014Y-14695976D01*
X28453200Y-14822910D01*
X28394779Y-14963951D01*
X28364996Y-15113679D01*
X28364996Y-15257904D01*
X27372901Y-16250000D01*
X12696016Y-16250000D01*
X12594034Y-16148018D01*
X12467100Y-16063204D01*
X12326059Y-16004783D01*
X12176331Y-15975000D01*
X12023669Y-15975000D01*
X11873941Y-16004783D01*
X11732900Y-16063204D01*
X11605966Y-16148018D01*
X11498018Y-16255966D01*
X11413204Y-16382900D01*
X11354783Y-16523941D01*
X11325000Y-16673669D01*
X11325000Y-16826331D01*
X11354783Y-16976059D01*
X11413204Y-17117100D01*
X11498018Y-17244034D01*
X11605966Y-17351982D01*
X11732900Y-17436796D01*
X11873941Y-17495217D01*
X12023669Y-17525000D01*
X12176331Y-17525000D01*
X12326059Y-17495217D01*
X12467100Y-17436796D01*
X12594034Y-17351982D01*
X12696016Y-17250000D01*
X27555446Y-17250000D01*
X27580006Y-17252419D01*
X27604566Y-17250000D01*
X27678023Y-17242765D01*
X27772273Y-17214175D01*
X27815315Y-17191168D01*
X23346486Y-21659999D01*
X11518303Y-21659999D01*
X11525000Y-21626331D01*
X11525000Y-21473669D01*
X11495217Y-21323941D01*
X11436796Y-21182900D01*
X11351982Y-21055966D01*
X11244034Y-20948018D01*
X11117100Y-20863204D01*
X10976059Y-20804783D01*
X10826331Y-20775000D01*
X10673669Y-20775000D01*
X10523941Y-20804783D01*
X10382900Y-20863204D01*
X10255966Y-20948018D01*
X10148018Y-21055966D01*
X10063204Y-21182900D01*
X10004783Y-21323941D01*
X9975000Y-21473669D01*
X9975000Y-21626331D01*
X10004573Y-21775001D01*
X5712108Y-21775001D01*
X5684681Y-21747575D01*
X5717924Y-21667319D01*
X5765000Y-21430652D01*
X5765000Y-21189348D01*
X5717924Y-20952681D01*
X5625581Y-20729745D01*
X5588113Y-20673669D01*
X11525000Y-20673669D01*
X11525000Y-20826331D01*
X11554783Y-20976059D01*
X11613204Y-21117100D01*
X11698018Y-21244034D01*
X11805966Y-21351982D01*
X11932900Y-21436796D01*
X12073941Y-21495217D01*
X12223669Y-21525000D01*
X12376331Y-21525000D01*
X12526059Y-21495217D01*
X12667100Y-21436796D01*
X12794034Y-21351982D01*
X12901982Y-21244034D01*
X12986796Y-21117100D01*
X13045217Y-20976059D01*
X13075000Y-20826331D01*
X13075000Y-20673669D01*
X13045217Y-20523941D01*
X12986796Y-20382900D01*
X12901982Y-20255966D01*
X12794034Y-20148018D01*
X12667100Y-20063204D01*
X12526059Y-20004783D01*
X12376331Y-19975000D01*
X12223669Y-19975000D01*
X12073941Y-20004783D01*
X11932900Y-20063204D01*
X11805966Y-20148018D01*
X11698018Y-20255966D01*
X11613204Y-20382900D01*
X11554783Y-20523941D01*
X11525000Y-20673669D01*
X5588113Y-20673669D01*
X5491519Y-20529108D01*
X5320892Y-20358481D01*
X5120255Y-20224419D01*
X4897319Y-20132076D01*
X4660652Y-20085000D01*
X4419348Y-20085000D01*
X4182681Y-20132076D01*
X3959745Y-20224419D01*
X3759108Y-20358481D01*
X3588481Y-20529108D01*
X3454419Y-20729745D01*
X3362076Y-20952681D01*
X3315000Y-21189348D01*
X3225000Y-21189348D01*
X3177924Y-20952681D01*
X3085581Y-20729745D01*
X2951519Y-20529108D01*
X2780892Y-20358481D01*
X2580255Y-20224419D01*
X2357319Y-20132076D01*
X2120652Y-20085000D01*
X1879348Y-20085000D01*
X1642681Y-20132076D01*
X1419745Y-20224419D01*
X1219108Y-20358481D01*
X1048481Y-20529108D01*
X914419Y-20729745D01*
X822076Y-20952681D01*
X775000Y-21189348D01*
X425000Y-21189348D01*
X425000Y-18649348D01*
X775000Y-18649348D01*
X775000Y-18890652D01*
X822076Y-19127319D01*
X914419Y-19350255D01*
X1048481Y-19550892D01*
X1219108Y-19721519D01*
X1419745Y-19855581D01*
X1642681Y-19947924D01*
X1879348Y-19995000D01*
X2120652Y-19995000D01*
X2357319Y-19947924D01*
X2580255Y-19855581D01*
X2780892Y-19721519D01*
X2951519Y-19550892D01*
X3085581Y-19350255D01*
X3177924Y-19127319D01*
X3225000Y-18890652D01*
X3225000Y-18649348D01*
X3177924Y-18412681D01*
X3144681Y-18332425D01*
X3382108Y-18094999D01*
X3517727Y-18094999D01*
X3454419Y-18189745D01*
X3362076Y-18412681D01*
X3315000Y-18649348D01*
X3315000Y-18890652D01*
X3362076Y-19127319D01*
X3454419Y-19350255D01*
X3588481Y-19550892D01*
X3759108Y-19721519D01*
X3959745Y-19855581D01*
X4182681Y-19947924D01*
X4419348Y-19995000D01*
X4660652Y-19995000D01*
X4897319Y-19947924D01*
X5120255Y-19855581D01*
X5320892Y-19721519D01*
X5468742Y-19573669D01*
X14525000Y-19573669D01*
X14525000Y-19726331D01*
X14554783Y-19876059D01*
X14613204Y-20017100D01*
X14698018Y-20144034D01*
X14753984Y-20200000D01*
X14698018Y-20255966D01*
X14613204Y-20382900D01*
X14554783Y-20523941D01*
X14525000Y-20673669D01*
X14525000Y-20826331D01*
X14554783Y-20976059D01*
X14613204Y-21117100D01*
X14698018Y-21244034D01*
X14805966Y-21351982D01*
X14932900Y-21436796D01*
X15073941Y-21495217D01*
X15223669Y-21525000D01*
X15376331Y-21525000D01*
X15526059Y-21495217D01*
X15667100Y-21436796D01*
X15794034Y-21351982D01*
X15901982Y-21244034D01*
X15986796Y-21117100D01*
X16045217Y-20976059D01*
X16075000Y-20826331D01*
X16075000Y-20673669D01*
X16045217Y-20523941D01*
X15986796Y-20382900D01*
X15901982Y-20255966D01*
X15846016Y-20200000D01*
X15901982Y-20144034D01*
X15986796Y-20017100D01*
X16045217Y-19876059D01*
X16075000Y-19726331D01*
X16075000Y-19573669D01*
X16045217Y-19423941D01*
X15986796Y-19282900D01*
X15901982Y-19155966D01*
X15794034Y-19048018D01*
X15667100Y-18963204D01*
X15526059Y-18904783D01*
X15376331Y-18875000D01*
X15223669Y-18875000D01*
X15073941Y-18904783D01*
X14932900Y-18963204D01*
X14805966Y-19048018D01*
X14698018Y-19155966D01*
X14613204Y-19282900D01*
X14554783Y-19423941D01*
X14525000Y-19573669D01*
X5468742Y-19573669D01*
X5491519Y-19550892D01*
X5625581Y-19350255D01*
X5717924Y-19127319D01*
X5765000Y-18890652D01*
X5765000Y-18649348D01*
X5738510Y-18516169D01*
X16916667Y-18516169D01*
X16916667Y-18668831D01*
X16946450Y-18818559D01*
X17004871Y-18959600D01*
X17089685Y-19086534D01*
X17197633Y-19194482D01*
X17324567Y-19279296D01*
X17465608Y-19337717D01*
X17615336Y-19367500D01*
X17767998Y-19367500D01*
X17917726Y-19337717D01*
X18058767Y-19279296D01*
X18185701Y-19194482D01*
X18293649Y-19086534D01*
X18378463Y-18959600D01*
X18436884Y-18818559D01*
X18466667Y-18668831D01*
X18466667Y-18516169D01*
X18436884Y-18366441D01*
X18378463Y-18225400D01*
X18293649Y-18098466D01*
X18185701Y-17990518D01*
X18058767Y-17905704D01*
X17917726Y-17847283D01*
X17767998Y-17817500D01*
X17615336Y-17817500D01*
X17465608Y-17847283D01*
X17324567Y-17905704D01*
X17197633Y-17990518D01*
X17089685Y-18098466D01*
X17004871Y-18225400D01*
X16946450Y-18366441D01*
X16916667Y-18516169D01*
X5738510Y-18516169D01*
X5717924Y-18412681D01*
X5625581Y-18189745D01*
X5562273Y-18094999D01*
X5630441Y-18094999D01*
X5655001Y-18097418D01*
X5679561Y-18094999D01*
X5753018Y-18087764D01*
X5847268Y-18059174D01*
X5934130Y-18012745D01*
X6010265Y-17950263D01*
X6025930Y-17931175D01*
X8383437Y-15573669D01*
X9025000Y-15573669D01*
X9025000Y-15726331D01*
X9054783Y-15876059D01*
X9113204Y-16017100D01*
X9198018Y-16144034D01*
X9305966Y-16251982D01*
X9432900Y-16336796D01*
X9573941Y-16395217D01*
X9723669Y-16425000D01*
X9876331Y-16425000D01*
X10026059Y-16395217D01*
X10167100Y-16336796D01*
X10294034Y-16251982D01*
X10401982Y-16144034D01*
X10486796Y-16017100D01*
X10545217Y-15876059D01*
X10575000Y-15726331D01*
X10575000Y-15575000D01*
X10676331Y-15575000D01*
X10826059Y-15545217D01*
X10967100Y-15486796D01*
X11094034Y-15401982D01*
X11201982Y-15294034D01*
X11286796Y-15167100D01*
X11345217Y-15026059D01*
X11375000Y-14876331D01*
X11375000Y-14754234D01*
X11443142Y-14782460D01*
X11425000Y-14873665D01*
X11425000Y-15026327D01*
X11454783Y-15176055D01*
X11513204Y-15317096D01*
X11598018Y-15444030D01*
X11705966Y-15551978D01*
X11832900Y-15636792D01*
X11973941Y-15695213D01*
X12123669Y-15724996D01*
X12276331Y-15724996D01*
X12426059Y-15695213D01*
X12567100Y-15636792D01*
X12694034Y-15551978D01*
X12796016Y-15449996D01*
X18475444Y-15449996D01*
X18500004Y-15452415D01*
X18524564Y-15449996D01*
X18598021Y-15442761D01*
X18692271Y-15414171D01*
X18779133Y-15367742D01*
X18855268Y-15305260D01*
X18870933Y-15286172D01*
X21733436Y-12423669D01*
X27025000Y-12423669D01*
X27025000Y-12576331D01*
X27054783Y-12726059D01*
X27113204Y-12867100D01*
X27198018Y-12994034D01*
X27305966Y-13101982D01*
X27432900Y-13186796D01*
X27573941Y-13245217D01*
X27723669Y-13275000D01*
X27876331Y-13275000D01*
X28026059Y-13245217D01*
X28167100Y-13186796D01*
X28294034Y-13101982D01*
X28401982Y-12994034D01*
X28486796Y-12867100D01*
X28545217Y-12726059D01*
X28575000Y-12576331D01*
X28575000Y-12423669D01*
X28545217Y-12273941D01*
X28486796Y-12132900D01*
X28401982Y-12005966D01*
X28294034Y-11898018D01*
X28167100Y-11813204D01*
X28026059Y-11754783D01*
X27876331Y-11725000D01*
X27723669Y-11725000D01*
X27573941Y-11754783D01*
X27432900Y-11813204D01*
X27305966Y-11898018D01*
X27198018Y-12005966D01*
X27113204Y-12132900D01*
X27054783Y-12273941D01*
X27025000Y-12423669D01*
X21733436Y-12423669D01*
X26885896Y-7271210D01*
X26846450Y-7366441D01*
X26816667Y-7516169D01*
X26816667Y-7668831D01*
X26846450Y-7818559D01*
X26904871Y-7959600D01*
X26989685Y-8086534D01*
X27097633Y-8194482D01*
X27224567Y-8279296D01*
X27365608Y-8337717D01*
X27515336Y-8367500D01*
X27667998Y-8367500D01*
X27817726Y-8337717D01*
X27958767Y-8279296D01*
X28085701Y-8194482D01*
X28193649Y-8086534D01*
X28278463Y-7959600D01*
X28336884Y-7818559D01*
X28366667Y-7668831D01*
X28366667Y-7516169D01*
X28336884Y-7366441D01*
X28278463Y-7225400D01*
X28193649Y-7098466D01*
X28085701Y-6990518D01*
X27958767Y-6905704D01*
X27817726Y-6847283D01*
X27667998Y-6817500D01*
X27515336Y-6817500D01*
X27365608Y-6847283D01*
X27270377Y-6886729D01*
X28582106Y-5575000D01*
X28726331Y-5575000D01*
X28876059Y-5545217D01*
X29017100Y-5486796D01*
X29144034Y-5401982D01*
X29251982Y-5294034D01*
X29336796Y-5167100D01*
X29395217Y-5026059D01*
X29425000Y-4876331D01*
X29425000Y-4723669D01*
X29395217Y-4573941D01*
X29336796Y-4432900D01*
X29251982Y-4305966D01*
X29144034Y-4198018D01*
X29017100Y-4113204D01*
X28876059Y-4054783D01*
X28726331Y-4025000D01*
X28573669Y-4025000D01*
X28423941Y-4054783D01*
X28282900Y-4113204D01*
X28155966Y-4198018D01*
X28048018Y-4305966D01*
X27963204Y-4432900D01*
X27904783Y-4573941D01*
X27875000Y-4723669D01*
X27875000Y-4867894D01*
X18292899Y-14449996D01*
X12796016Y-14449996D01*
X12694034Y-14348014D01*
X12567100Y-14263200D01*
X12456858Y-14217536D01*
X12475000Y-14126331D01*
X12475000Y-13973669D01*
X12445217Y-13823941D01*
X12386796Y-13682900D01*
X12301982Y-13555966D01*
X12194034Y-13448018D01*
X12067100Y-13363204D01*
X11926059Y-13304783D01*
X11776331Y-13275000D01*
X11623669Y-13275000D01*
X11473941Y-13304783D01*
X11332900Y-13363204D01*
X11205966Y-13448018D01*
X11098018Y-13555966D01*
X11013204Y-13682900D01*
X10954783Y-13823941D01*
X10925000Y-13973669D01*
X10925000Y-14095766D01*
X10826059Y-14054783D01*
X10676331Y-14025000D01*
X10523669Y-14025000D01*
X10373941Y-14054783D01*
X10232900Y-14113204D01*
X10105966Y-14198018D01*
X9998018Y-14305966D01*
X9913204Y-14432900D01*
X9854783Y-14573941D01*
X9825000Y-14723669D01*
X9825000Y-14875000D01*
X9723669Y-14875000D01*
X9573941Y-14904783D01*
X9432900Y-14963204D01*
X9305966Y-15048018D01*
X9198018Y-15155966D01*
X9113204Y-15282900D01*
X9054783Y-15423941D01*
X9025000Y-15573669D01*
X8383437Y-15573669D01*
X8936187Y-15020920D01*
X8955264Y-15005264D01*
X8989169Y-14963951D01*
X9017746Y-14929129D01*
X9043710Y-14880554D01*
X9064175Y-14842267D01*
X9092765Y-14748017D01*
X9100000Y-14674560D01*
X9102419Y-14650000D01*
X9100000Y-14625440D01*
X9100000Y-13016169D01*
X12516667Y-13016169D01*
X12516667Y-13168831D01*
X12546450Y-13318559D01*
X12604871Y-13459600D01*
X12689685Y-13586534D01*
X12797633Y-13694482D01*
X12924567Y-13779296D01*
X13065608Y-13837717D01*
X13215336Y-13867500D01*
X13367998Y-13867500D01*
X13517726Y-13837717D01*
X13658767Y-13779296D01*
X13785701Y-13694482D01*
X13893649Y-13586534D01*
X13978463Y-13459600D01*
X14036884Y-13318559D01*
X14066667Y-13168831D01*
X14066667Y-13016169D01*
X14036884Y-12866441D01*
X13978463Y-12725400D01*
X13893649Y-12598466D01*
X13785701Y-12490518D01*
X13658767Y-12405704D01*
X13517726Y-12347283D01*
X13367998Y-12317500D01*
X13215336Y-12317500D01*
X13065608Y-12347283D01*
X12924567Y-12405704D01*
X12797633Y-12490518D01*
X12689685Y-12598466D01*
X12604871Y-12725400D01*
X12546450Y-12866441D01*
X12516667Y-13016169D01*
X9100000Y-13016169D01*
X9100000Y-11373669D01*
X11425000Y-11373669D01*
X11425000Y-11526331D01*
X11454783Y-11676059D01*
X11513204Y-11817100D01*
X11598018Y-11944034D01*
X11705966Y-12051982D01*
X11832900Y-12136796D01*
X11973941Y-12195217D01*
X12123669Y-12225000D01*
X12276331Y-12225000D01*
X12426059Y-12195217D01*
X12567100Y-12136796D01*
X12694034Y-12051982D01*
X12801982Y-11944034D01*
X12820600Y-11916169D01*
X15816667Y-11916169D01*
X15816667Y-12068831D01*
X15846450Y-12218559D01*
X15904871Y-12359600D01*
X15989685Y-12486534D01*
X16097633Y-12594482D01*
X16224567Y-12679296D01*
X16365608Y-12737717D01*
X16515336Y-12767500D01*
X16667998Y-12767500D01*
X16817726Y-12737717D01*
X16958767Y-12679296D01*
X17085701Y-12594482D01*
X17193649Y-12486534D01*
X17278463Y-12359600D01*
X17293346Y-12323669D01*
X17825000Y-12323669D01*
X17825000Y-12476331D01*
X17854783Y-12626059D01*
X17913204Y-12767100D01*
X17998018Y-12894034D01*
X18105966Y-13001982D01*
X18232900Y-13086796D01*
X18373941Y-13145217D01*
X18523669Y-13175000D01*
X18676331Y-13175000D01*
X18826059Y-13145217D01*
X18967100Y-13086796D01*
X19094034Y-13001982D01*
X19201982Y-12894034D01*
X19286796Y-12767100D01*
X19345217Y-12626059D01*
X19375000Y-12476331D01*
X19375000Y-12323669D01*
X19345217Y-12173941D01*
X19286796Y-12032900D01*
X19201982Y-11905966D01*
X19094034Y-11798018D01*
X18967100Y-11713204D01*
X18826059Y-11654783D01*
X18676331Y-11625000D01*
X18523669Y-11625000D01*
X18373941Y-11654783D01*
X18232900Y-11713204D01*
X18105966Y-11798018D01*
X17998018Y-11905966D01*
X17913204Y-12032900D01*
X17854783Y-12173941D01*
X17825000Y-12323669D01*
X17293346Y-12323669D01*
X17336884Y-12218559D01*
X17366667Y-12068831D01*
X17366667Y-11916169D01*
X17336884Y-11766441D01*
X17278463Y-11625400D01*
X17193649Y-11498466D01*
X17085701Y-11390518D01*
X16958767Y-11305704D01*
X16817726Y-11247283D01*
X16667998Y-11217500D01*
X16515336Y-11217500D01*
X16365608Y-11247283D01*
X16224567Y-11305704D01*
X16097633Y-11390518D01*
X15989685Y-11498466D01*
X15904871Y-11625400D01*
X15846450Y-11766441D01*
X15816667Y-11916169D01*
X12820600Y-11916169D01*
X12886796Y-11817100D01*
X12945217Y-11676059D01*
X12975000Y-11526331D01*
X12975000Y-11373669D01*
X12945217Y-11223941D01*
X12886796Y-11082900D01*
X12801982Y-10955966D01*
X12694034Y-10848018D01*
X12567100Y-10763204D01*
X12426059Y-10704783D01*
X12276331Y-10675000D01*
X12123669Y-10675000D01*
X11973941Y-10704783D01*
X11832900Y-10763204D01*
X11705966Y-10848018D01*
X11598018Y-10955966D01*
X11513204Y-11082900D01*
X11454783Y-11223941D01*
X11425000Y-11373669D01*
X9100000Y-11373669D01*
X9100000Y-10273669D01*
X9525000Y-10273669D01*
X9525000Y-10426331D01*
X9554783Y-10576059D01*
X9613204Y-10717100D01*
X9698018Y-10844034D01*
X9805966Y-10951982D01*
X9932900Y-11036796D01*
X10073941Y-11095217D01*
X10223669Y-11125000D01*
X10376331Y-11125000D01*
X10526059Y-11095217D01*
X10667100Y-11036796D01*
X10794034Y-10951982D01*
X10901982Y-10844034D01*
X10986796Y-10717100D01*
X11045217Y-10576059D01*
X11075000Y-10426331D01*
X11075000Y-10273669D01*
X11055109Y-10173669D01*
X14525000Y-10173669D01*
X14525000Y-10326331D01*
X14554783Y-10476059D01*
X14613204Y-10617100D01*
X14698018Y-10744034D01*
X14805966Y-10851982D01*
X14932900Y-10936796D01*
X15073941Y-10995217D01*
X15223669Y-11025000D01*
X15376331Y-11025000D01*
X15526059Y-10995217D01*
X15667100Y-10936796D01*
X15794034Y-10851982D01*
X15901982Y-10744034D01*
X15986796Y-10617100D01*
X16045217Y-10476059D01*
X16075000Y-10326331D01*
X16075000Y-10173669D01*
X16045217Y-10023941D01*
X15986796Y-9882900D01*
X15901982Y-9755966D01*
X15794034Y-9648018D01*
X15667100Y-9563204D01*
X15526059Y-9504783D01*
X15376331Y-9475000D01*
X15223669Y-9475000D01*
X15073941Y-9504783D01*
X14932900Y-9563204D01*
X14805966Y-9648018D01*
X14698018Y-9755966D01*
X14613204Y-9882900D01*
X14554783Y-10023941D01*
X14525000Y-10173669D01*
X11055109Y-10173669D01*
X11045217Y-10123941D01*
X10986796Y-9982900D01*
X10901982Y-9855966D01*
X10794034Y-9748018D01*
X10667100Y-9663204D01*
X10526059Y-9604783D01*
X10376331Y-9575000D01*
X10223669Y-9575000D01*
X10073941Y-9604783D01*
X9932900Y-9663204D01*
X9805966Y-9748018D01*
X9698018Y-9855966D01*
X9613204Y-9982900D01*
X9554783Y-10123941D01*
X9525000Y-10273669D01*
X9100000Y-10273669D01*
X9100000Y-9440105D01*
X10074171Y-8465936D01*
X10108204Y-8548100D01*
X10193018Y-8675034D01*
X10300966Y-8782982D01*
X10427900Y-8867796D01*
X10568941Y-8926217D01*
X10718669Y-8956000D01*
X10871331Y-8956000D01*
X11021059Y-8926217D01*
X11162100Y-8867796D01*
X11289034Y-8782982D01*
X11396982Y-8675034D01*
X11481796Y-8548100D01*
X11527312Y-8438214D01*
X11598018Y-8544034D01*
X11705966Y-8651982D01*
X11832900Y-8736796D01*
X11973941Y-8795217D01*
X12123669Y-8825000D01*
X12276331Y-8825000D01*
X12426059Y-8795217D01*
X12567100Y-8736796D01*
X12694034Y-8651982D01*
X12801982Y-8544034D01*
X12886796Y-8417100D01*
X12945217Y-8276059D01*
X12975000Y-8126331D01*
X12975000Y-7973669D01*
X12945217Y-7823941D01*
X12886796Y-7682900D01*
X12801982Y-7555966D01*
X12762185Y-7516169D01*
X14716667Y-7516169D01*
X14716667Y-7668831D01*
X14746450Y-7818559D01*
X14804871Y-7959600D01*
X14889685Y-8086534D01*
X14997633Y-8194482D01*
X15124567Y-8279296D01*
X15265608Y-8337717D01*
X15415336Y-8367500D01*
X15567998Y-8367500D01*
X15717726Y-8337717D01*
X15858767Y-8279296D01*
X15985701Y-8194482D01*
X16093649Y-8086534D01*
X16178463Y-7959600D01*
X16236884Y-7818559D01*
X16266667Y-7668831D01*
X16266667Y-7516169D01*
X16236884Y-7366441D01*
X16178463Y-7225400D01*
X16093649Y-7098466D01*
X15985701Y-6990518D01*
X15858767Y-6905704D01*
X15717726Y-6847283D01*
X15567998Y-6817500D01*
X15415336Y-6817500D01*
X15265608Y-6847283D01*
X15124567Y-6905704D01*
X14997633Y-6990518D01*
X14889685Y-7098466D01*
X14804871Y-7225400D01*
X14746450Y-7366441D01*
X14716667Y-7516169D01*
X12762185Y-7516169D01*
X12694034Y-7448018D01*
X12567100Y-7363204D01*
X12426059Y-7304783D01*
X12276331Y-7275000D01*
X12132106Y-7275000D01*
X11939929Y-7082824D01*
X11924264Y-7063736D01*
X11848129Y-7001254D01*
X11761267Y-6954825D01*
X11667017Y-6926235D01*
X11593560Y-6919000D01*
X11569000Y-6916581D01*
X11544440Y-6919000D01*
X10984696Y-6919000D01*
X11487527Y-6416169D01*
X18016667Y-6416169D01*
X18016667Y-6568831D01*
X18046450Y-6718559D01*
X18104871Y-6859600D01*
X18189685Y-6986534D01*
X18297633Y-7094482D01*
X18424567Y-7179296D01*
X18565608Y-7237717D01*
X18715336Y-7267500D01*
X18867998Y-7267500D01*
X19017726Y-7237717D01*
X19158767Y-7179296D01*
X19285701Y-7094482D01*
X19393649Y-6986534D01*
X19478463Y-6859600D01*
X19536884Y-6718559D01*
X19566667Y-6568831D01*
X19566667Y-6416169D01*
X19536884Y-6266441D01*
X19478463Y-6125400D01*
X19393649Y-5998466D01*
X19285701Y-5890518D01*
X19158767Y-5805704D01*
X19017726Y-5747283D01*
X18867998Y-5717500D01*
X18715336Y-5717500D01*
X18565608Y-5747283D01*
X18424567Y-5805704D01*
X18297633Y-5890518D01*
X18189685Y-5998466D01*
X18104871Y-6125400D01*
X18046450Y-6266441D01*
X18016667Y-6416169D01*
X11487527Y-6416169D01*
X11653696Y-6250000D01*
X15575440Y-6250000D01*
X15600000Y-6252419D01*
X15624560Y-6250000D01*
X15698017Y-6242765D01*
X15792267Y-6214175D01*
X15879129Y-6167746D01*
X15955264Y-6105264D01*
X15970929Y-6086176D01*
X16536181Y-5520925D01*
X16555264Y-5505264D01*
X16617746Y-5429129D01*
X16664175Y-5342267D01*
X16692765Y-5248017D01*
X16700000Y-5174560D01*
X16700000Y-5174559D01*
X16702419Y-5150001D01*
X16700000Y-5125443D01*
X16700000Y-4574557D01*
X16702419Y-4549999D01*
X16694625Y-4470871D01*
X16692765Y-4451983D01*
X16664175Y-4357733D01*
X16617746Y-4270871D01*
X16555264Y-4194736D01*
X16536181Y-4179075D01*
X16075000Y-3717895D01*
X16075000Y-3573669D01*
X16045217Y-3423941D01*
X15986796Y-3282900D01*
X15901982Y-3155966D01*
X15862185Y-3116169D01*
X16916667Y-3116169D01*
X16916667Y-3268831D01*
X16946450Y-3418559D01*
X17004871Y-3559600D01*
X17089685Y-3686534D01*
X17197633Y-3794482D01*
X17324567Y-3879296D01*
X17465608Y-3937717D01*
X17615336Y-3967500D01*
X17767998Y-3967500D01*
X17917726Y-3937717D01*
X18058767Y-3879296D01*
X18185701Y-3794482D01*
X18293649Y-3686534D01*
X18378463Y-3559600D01*
X18436884Y-3418559D01*
X18466667Y-3268831D01*
X18466667Y-3116169D01*
X25716667Y-3116169D01*
X25716667Y-3268831D01*
X25746450Y-3418559D01*
X25804871Y-3559600D01*
X25889685Y-3686534D01*
X25997633Y-3794482D01*
X26124567Y-3879296D01*
X26265608Y-3937717D01*
X26415336Y-3967500D01*
X26567998Y-3967500D01*
X26717726Y-3937717D01*
X26858767Y-3879296D01*
X26985701Y-3794482D01*
X27093649Y-3686534D01*
X27178463Y-3559600D01*
X27236884Y-3418559D01*
X27266667Y-3268831D01*
X27266667Y-3116169D01*
X27236884Y-2966441D01*
X27178463Y-2825400D01*
X27093649Y-2698466D01*
X26985701Y-2590518D01*
X26858767Y-2505704D01*
X26717726Y-2447283D01*
X26567998Y-2417500D01*
X26415336Y-2417500D01*
X26265608Y-2447283D01*
X26124567Y-2505704D01*
X25997633Y-2590518D01*
X25889685Y-2698466D01*
X25804871Y-2825400D01*
X25746450Y-2966441D01*
X25716667Y-3116169D01*
X18466667Y-3116169D01*
X18436884Y-2966441D01*
X18378463Y-2825400D01*
X18293649Y-2698466D01*
X18185701Y-2590518D01*
X18058767Y-2505704D01*
X17917726Y-2447283D01*
X17767998Y-2417500D01*
X17615336Y-2417500D01*
X17465608Y-2447283D01*
X17324567Y-2505704D01*
X17197633Y-2590518D01*
X17089685Y-2698466D01*
X17004871Y-2825400D01*
X16946450Y-2966441D01*
X16916667Y-3116169D01*
X15862185Y-3116169D01*
X15794034Y-3048018D01*
X15667100Y-2963204D01*
X15526059Y-2904783D01*
X15376331Y-2875000D01*
X15223669Y-2875000D01*
X15073941Y-2904783D01*
X14932900Y-2963204D01*
X14805966Y-3048018D01*
X14698018Y-3155966D01*
X14613204Y-3282900D01*
X14554783Y-3423941D01*
X14525000Y-3573669D01*
X14525000Y-3726331D01*
X14554783Y-3876059D01*
X14613204Y-4017100D01*
X14698018Y-4144034D01*
X14753984Y-4200000D01*
X14703984Y-4250000D01*
X11834735Y-4250000D01*
X11810177Y-4247581D01*
X11785619Y-4250000D01*
X11785618Y-4250000D01*
X11712161Y-4257235D01*
X11617911Y-4285825D01*
X11531049Y-4332254D01*
X11454914Y-4394736D01*
X11439253Y-4413819D01*
X7163824Y-8689249D01*
X7144736Y-8704914D01*
X7082254Y-8781049D01*
X7035825Y-8867912D01*
X7018139Y-8926217D01*
X7007235Y-8962161D01*
X6997581Y-9060178D01*
X7000000Y-9084738D01*
X7000001Y-10522893D01*
X4977575Y-12545319D01*
X4897319Y-12512076D01*
X4660652Y-12465000D01*
X4419348Y-12465000D01*
X4182681Y-12512076D01*
X3959745Y-12604419D01*
X3759108Y-12738481D01*
X3588481Y-12909108D01*
X3454419Y-13109745D01*
X3362076Y-13332681D01*
X3315000Y-13569348D01*
X3315000Y-13810652D01*
X3362076Y-14047319D01*
X3454419Y-14270255D01*
X3588481Y-14470892D01*
X3759108Y-14641519D01*
X3959745Y-14775581D01*
X4182681Y-14867924D01*
X4419348Y-14915000D01*
X4660652Y-14915000D01*
X4897319Y-14867924D01*
X5120255Y-14775581D01*
X5320892Y-14641519D01*
X5491519Y-14470892D01*
X5625581Y-14270255D01*
X5717924Y-14047319D01*
X5765000Y-13810652D01*
X5765000Y-13569348D01*
X5717924Y-13332681D01*
X5684681Y-13252425D01*
X7600001Y-11337105D01*
X7600001Y-12462892D01*
X4977575Y-15085319D01*
X4897319Y-15052076D01*
X4660652Y-15005000D01*
X4419348Y-15005000D01*
X4182681Y-15052076D01*
X3959745Y-15144419D01*
X3759108Y-15278481D01*
X3588481Y-15449108D01*
X3454419Y-15649745D01*
X3362076Y-15872681D01*
X3315000Y-16109348D01*
X3315000Y-16350652D01*
X3362076Y-16587319D01*
X3454419Y-16810255D01*
X3588481Y-17010892D01*
X3672588Y-17094999D01*
X3199550Y-17094999D01*
X3175000Y-17092581D01*
X3150450Y-17094999D01*
X3150441Y-17094999D01*
X3076984Y-17102234D01*
X2982734Y-17130824D01*
X2895872Y-17177253D01*
X2819737Y-17239735D01*
X2804081Y-17258812D01*
X2437575Y-17625319D01*
X2357319Y-17592076D01*
X2120652Y-17545000D01*
X1879348Y-17545000D01*
X1642681Y-17592076D01*
X1419745Y-17684419D01*
X1219108Y-17818481D01*
X1048481Y-17989108D01*
X914419Y-18189745D01*
X822076Y-18412681D01*
X775000Y-18649348D01*
X425000Y-18649348D01*
X425000Y-16109348D01*
X775000Y-16109348D01*
X775000Y-16350652D01*
X822076Y-16587319D01*
X914419Y-16810255D01*
X1048481Y-17010892D01*
X1219108Y-17181519D01*
X1419745Y-17315581D01*
X1642681Y-17407924D01*
X1879348Y-17455000D01*
X2120652Y-17455000D01*
X2357319Y-17407924D01*
X2580255Y-17315581D01*
X2780892Y-17181519D01*
X2951519Y-17010892D01*
X3085581Y-16810255D01*
X3177924Y-16587319D01*
X3225000Y-16350652D01*
X3225000Y-16109348D01*
X3177924Y-15872681D01*
X3085581Y-15649745D01*
X2951519Y-15449108D01*
X2780892Y-15278481D01*
X2580255Y-15144419D01*
X2357319Y-15052076D01*
X2120652Y-15005000D01*
X1879348Y-15005000D01*
X1642681Y-15052076D01*
X1419745Y-15144419D01*
X1219108Y-15278481D01*
X1048481Y-15449108D01*
X914419Y-15649745D01*
X822076Y-15872681D01*
X775000Y-16109348D01*
X425000Y-16109348D01*
X425000Y-13569348D01*
X775000Y-13569348D01*
X775000Y-13810652D01*
X822076Y-14047319D01*
X914419Y-14270255D01*
X1048481Y-14470892D01*
X1219108Y-14641519D01*
X1419745Y-14775581D01*
X1642681Y-14867924D01*
X1879348Y-14915000D01*
X2120652Y-14915000D01*
X2357319Y-14867924D01*
X2580255Y-14775581D01*
X2780892Y-14641519D01*
X2951519Y-14470892D01*
X3085581Y-14270255D01*
X3177924Y-14047319D01*
X3225000Y-13810652D01*
X3225000Y-13569348D01*
X3177924Y-13332681D01*
X3085581Y-13109745D01*
X2951519Y-12909108D01*
X2780892Y-12738481D01*
X2580255Y-12604419D01*
X2357319Y-12512076D01*
X2120652Y-12465000D01*
X1879348Y-12465000D01*
X1642681Y-12512076D01*
X1419745Y-12604419D01*
X1219108Y-12738481D01*
X1048481Y-12909108D01*
X914419Y-13109745D01*
X822076Y-13332681D01*
X775000Y-13569348D01*
X425000Y-13569348D01*
X425000Y-10300000D01*
X773186Y-10300000D01*
X773186Y-12000000D01*
X780426Y-12073513D01*
X801869Y-12144200D01*
X836691Y-12209347D01*
X883552Y-12266448D01*
X940653Y-12313309D01*
X1005800Y-12348131D01*
X1076487Y-12369574D01*
X1150000Y-12376814D01*
X2850000Y-12376814D01*
X2923513Y-12369574D01*
X2994200Y-12348131D01*
X3059347Y-12313309D01*
X3116448Y-12266448D01*
X3163309Y-12209347D01*
X3198131Y-12144200D01*
X3219574Y-12073513D01*
X3226814Y-12000000D01*
X3226814Y-11029348D01*
X3315000Y-11029348D01*
X3315000Y-11270652D01*
X3362076Y-11507319D01*
X3454419Y-11730255D01*
X3588481Y-11930892D01*
X3759108Y-12101519D01*
X3959745Y-12235581D01*
X4182681Y-12327924D01*
X4419348Y-12375000D01*
X4660652Y-12375000D01*
X4897319Y-12327924D01*
X5120255Y-12235581D01*
X5320892Y-12101519D01*
X5491519Y-11930892D01*
X5625581Y-11730255D01*
X5717924Y-11507319D01*
X5765000Y-11270652D01*
X5765000Y-11029348D01*
X5717924Y-10792681D01*
X5625581Y-10569745D01*
X5491519Y-10369108D01*
X5320892Y-10198481D01*
X5120255Y-10064419D01*
X4897319Y-9972076D01*
X4660652Y-9925000D01*
X4419348Y-9925000D01*
X4182681Y-9972076D01*
X3959745Y-10064419D01*
X3759108Y-10198481D01*
X3588481Y-10369108D01*
X3454419Y-10569745D01*
X3362076Y-10792681D01*
X3315000Y-11029348D01*
X3226814Y-11029348D01*
X3226814Y-10300000D01*
X3219574Y-10226487D01*
X3198131Y-10155800D01*
X3163309Y-10090653D01*
X3116448Y-10033552D01*
X3059347Y-9986691D01*
X2994200Y-9951869D01*
X2923513Y-9930426D01*
X2850000Y-9923186D01*
X1150000Y-9923186D01*
X1076487Y-9930426D01*
X1005800Y-9951869D01*
X940653Y-9986691D01*
X883552Y-10033552D01*
X836691Y-10090653D01*
X801869Y-10155800D01*
X780426Y-10226487D01*
X773186Y-10300000D01*
X425000Y-10300000D01*
X425000Y-6610723D01*
X446450Y-6718559D01*
X504871Y-6859600D01*
X589685Y-6986534D01*
X697633Y-7094482D01*
X824567Y-7179296D01*
X965608Y-7237717D01*
X1115336Y-7267500D01*
X1267998Y-7267500D01*
X1417726Y-7237717D01*
X1558767Y-7179296D01*
X1685701Y-7094482D01*
X1793649Y-6986534D01*
X1878463Y-6859600D01*
X1936884Y-6718559D01*
X1966667Y-6568831D01*
X1966667Y-6416169D01*
X1936884Y-6266441D01*
X1878463Y-6125400D01*
X1793649Y-5998466D01*
X1685701Y-5890518D01*
X1558767Y-5805704D01*
X1417726Y-5747283D01*
X1267998Y-5717500D01*
X1115336Y-5717500D01*
X965608Y-5747283D01*
X824567Y-5805704D01*
X697633Y-5890518D01*
X589685Y-5998466D01*
X504871Y-6125400D01*
X446450Y-6266441D01*
X425000Y-6374277D01*
X425000Y-3243615D01*
X523956Y-3741100D01*
X718065Y-4209720D01*
X999867Y-4631467D01*
X1358533Y-4990133D01*
X1780280Y-5271935D01*
X2248900Y-5466044D01*
X2746385Y-5565000D01*
X3253615Y-5565000D01*
X3751100Y-5466044D01*
X4219720Y-5271935D01*
X4641467Y-4990133D01*
X5000133Y-4631467D01*
X5055456Y-4548669D01*
X5321000Y-4548669D01*
X5321000Y-4701331D01*
X5350783Y-4851059D01*
X5409204Y-4992100D01*
X5494018Y-5119034D01*
X5601966Y-5226982D01*
X5728900Y-5311796D01*
X5869941Y-5370217D01*
X6019669Y-5400000D01*
X6172331Y-5400000D01*
X6322059Y-5370217D01*
X6463100Y-5311796D01*
X6590034Y-5226982D01*
X6697982Y-5119034D01*
X6782796Y-4992100D01*
X6841217Y-4851059D01*
X6871000Y-4701331D01*
X6871000Y-4548669D01*
X6841217Y-4398941D01*
X6782796Y-4257900D01*
X6697982Y-4130966D01*
X6590034Y-4023018D01*
X6463100Y-3938204D01*
X6322059Y-3879783D01*
X6172331Y-3850000D01*
X6019669Y-3850000D01*
X5869941Y-3879783D01*
X5728900Y-3938204D01*
X5601966Y-4023018D01*
X5494018Y-4130966D01*
X5409204Y-4257900D01*
X5350783Y-4398941D01*
X5321000Y-4548669D01*
X5055456Y-4548669D01*
X5281935Y-4209720D01*
X5476044Y-3741100D01*
X5504090Y-3600106D01*
X5555966Y-3651982D01*
X5682900Y-3736796D01*
X5823941Y-3795217D01*
X5973669Y-3825000D01*
X6126331Y-3825000D01*
X6276059Y-3795217D01*
X6417100Y-3736796D01*
X6544034Y-3651982D01*
X6651982Y-3544034D01*
X6736796Y-3417100D01*
X6795217Y-3276059D01*
X6825000Y-3126331D01*
X6825000Y-2973669D01*
X6795217Y-2823941D01*
X6736796Y-2682900D01*
X6651982Y-2555966D01*
X6596016Y-2500000D01*
X6651982Y-2444034D01*
X6736796Y-2317100D01*
X6795217Y-2176059D01*
X6825000Y-2026331D01*
X6825000Y-1873669D01*
X6795217Y-1723941D01*
X6736796Y-1582900D01*
X6651982Y-1455966D01*
X6544034Y-1348018D01*
X6507593Y-1323669D01*
X10725000Y-1323669D01*
X10725000Y-1476331D01*
X10754783Y-1626059D01*
X10813204Y-1767100D01*
X10898018Y-1894034D01*
X11005966Y-2001982D01*
X11132900Y-2086796D01*
X11273941Y-2145217D01*
X11423669Y-2175000D01*
X11576331Y-2175000D01*
X11726059Y-2145217D01*
X11867100Y-2086796D01*
X11994034Y-2001982D01*
X12101982Y-1894034D01*
X12186796Y-1767100D01*
X12245217Y-1626059D01*
X12275000Y-1476331D01*
X12275000Y-1323669D01*
X12325000Y-1323669D01*
X12325000Y-1476331D01*
X12354783Y-1626059D01*
X12413204Y-1767100D01*
X12498018Y-1894034D01*
X12605966Y-2001982D01*
X12732900Y-2086796D01*
X12873941Y-2145217D01*
X13023669Y-2175000D01*
X13176331Y-2175000D01*
X13326059Y-2145217D01*
X13467100Y-2086796D01*
X13594034Y-2001982D01*
X13701982Y-1894034D01*
X13786796Y-1767100D01*
X13845217Y-1626059D01*
X13875000Y-1476331D01*
X13875000Y-1323669D01*
X13845217Y-1173941D01*
X13786796Y-1032900D01*
X13701982Y-905966D01*
X13594034Y-798018D01*
X13467100Y-713204D01*
X13326059Y-654783D01*
X13176331Y-625000D01*
X13023669Y-625000D01*
X12873941Y-654783D01*
X12732900Y-713204D01*
X12605966Y-798018D01*
X12498018Y-905966D01*
X12413204Y-1032900D01*
X12354783Y-1173941D01*
X12325000Y-1323669D01*
X12275000Y-1323669D01*
X12245217Y-1173941D01*
X12186796Y-1032900D01*
X12101982Y-905966D01*
X11994034Y-798018D01*
X11867100Y-713204D01*
X11726059Y-654783D01*
X11576331Y-625000D01*
X11423669Y-625000D01*
X11273941Y-654783D01*
X11132900Y-713204D01*
X11005966Y-798018D01*
X10898018Y-905966D01*
X10813204Y-1032900D01*
X10754783Y-1173941D01*
X10725000Y-1323669D01*
X6507593Y-1323669D01*
X6417100Y-1263204D01*
X6276059Y-1204783D01*
X6126331Y-1175000D01*
X5973669Y-1175000D01*
X5823941Y-1204783D01*
X5682900Y-1263204D01*
X5555966Y-1348018D01*
X5448018Y-1455966D01*
X5363204Y-1582900D01*
X5304783Y-1723941D01*
X5291143Y-1792511D01*
X5281935Y-1770280D01*
X5000133Y-1348533D01*
X4641467Y-989867D01*
X4219720Y-708065D01*
X3751100Y-513956D01*
X3253615Y-415000D01*
X43946385Y-415000D01*
X43448900Y-513956D01*
G04 #@! TA.AperFunction,Conductor*
D18*
G36*
X43448900Y-513956D02*
G01*
X42980280Y-708065D01*
X42558533Y-989867D01*
X42199867Y-1348533D01*
X41918065Y-1770280D01*
X41723956Y-2238900D01*
X41625000Y-2736385D01*
X41625000Y-3243615D01*
X41723956Y-3741100D01*
X41918065Y-4209720D01*
X42049026Y-4405718D01*
X41926059Y-4354783D01*
X41776331Y-4325000D01*
X41623669Y-4325000D01*
X41473941Y-4354783D01*
X41332900Y-4413204D01*
X41205966Y-4498018D01*
X41098018Y-4605966D01*
X41013204Y-4732900D01*
X40954783Y-4873941D01*
X40925000Y-5023669D01*
X40925000Y-5176331D01*
X40954783Y-5326059D01*
X41013204Y-5467100D01*
X41098018Y-5594034D01*
X41205966Y-5701982D01*
X41332900Y-5786796D01*
X41473941Y-5845217D01*
X41623669Y-5875000D01*
X41675000Y-5875000D01*
X41675000Y-8344227D01*
X41628059Y-8324783D01*
X41478331Y-8295000D01*
X41325669Y-8295000D01*
X41175941Y-8324783D01*
X41034900Y-8383204D01*
X40907966Y-8468018D01*
X40800018Y-8575966D01*
X40715204Y-8702900D01*
X40656783Y-8843941D01*
X40627000Y-8993669D01*
X40627000Y-9146331D01*
X40656783Y-9296059D01*
X40715204Y-9437100D01*
X40800018Y-9564034D01*
X40907966Y-9671982D01*
X41034900Y-9756796D01*
X41175941Y-9815217D01*
X41325669Y-9845000D01*
X41478331Y-9845000D01*
X41628059Y-9815217D01*
X41675000Y-9795773D01*
X41675000Y-14323669D01*
X41645217Y-14173941D01*
X41586796Y-14032900D01*
X41501982Y-13905966D01*
X41394034Y-13798018D01*
X41267100Y-13713204D01*
X41126059Y-13654783D01*
X40976331Y-13625000D01*
X40823669Y-13625000D01*
X40673941Y-13654783D01*
X40532900Y-13713204D01*
X40405966Y-13798018D01*
X40400000Y-13803984D01*
X40394034Y-13798018D01*
X40267100Y-13713204D01*
X40126059Y-13654783D01*
X39976331Y-13625000D01*
X39823669Y-13625000D01*
X39673941Y-13654783D01*
X39532900Y-13713204D01*
X39405966Y-13798018D01*
X39298018Y-13905966D01*
X39213204Y-14032900D01*
X39154783Y-14173941D01*
X39125000Y-14323669D01*
X39125000Y-14476331D01*
X39154783Y-14626059D01*
X39213204Y-14767100D01*
X39298018Y-14894034D01*
X39405966Y-15001982D01*
X39532900Y-15086796D01*
X39673941Y-15145217D01*
X39823669Y-15175000D01*
X39976331Y-15175000D01*
X40126059Y-15145217D01*
X40267100Y-15086796D01*
X40394034Y-15001982D01*
X40400000Y-14996016D01*
X40405966Y-15001982D01*
X40532900Y-15086796D01*
X40673941Y-15145217D01*
X40823669Y-15175000D01*
X40976331Y-15175000D01*
X41126059Y-15145217D01*
X41267100Y-15086796D01*
X41394034Y-15001982D01*
X41501982Y-14894034D01*
X41586796Y-14767100D01*
X41645217Y-14626059D01*
X41675000Y-14476331D01*
X41675000Y-15250000D01*
X41677402Y-15274386D01*
X41684515Y-15297835D01*
X41696066Y-15319446D01*
X41711612Y-15338388D01*
X41730554Y-15353934D01*
X41752165Y-15365485D01*
X41775614Y-15372598D01*
X41800000Y-15375000D01*
X46775001Y-15375000D01*
X46775000Y-18194708D01*
X46669283Y-17939483D01*
X46505126Y-17693806D01*
X46296194Y-17484874D01*
X46050517Y-17320717D01*
X45777534Y-17207644D01*
X45487737Y-17150000D01*
X45192263Y-17150000D01*
X44902466Y-17207644D01*
X44865746Y-17222854D01*
X44875000Y-17176331D01*
X44875000Y-17023669D01*
X44845217Y-16873941D01*
X44786796Y-16732900D01*
X44701982Y-16605966D01*
X44594034Y-16498018D01*
X44467100Y-16413204D01*
X44326059Y-16354783D01*
X44176331Y-16325000D01*
X44023669Y-16325000D01*
X43873941Y-16354783D01*
X43732900Y-16413204D01*
X43605966Y-16498018D01*
X43498018Y-16605966D01*
X43413204Y-16732900D01*
X43354783Y-16873941D01*
X43325000Y-17023669D01*
X43325000Y-17176331D01*
X43354783Y-17326059D01*
X43413204Y-17467100D01*
X43498018Y-17594034D01*
X43605966Y-17701982D01*
X43732900Y-17786796D01*
X43873941Y-17845217D01*
X44023669Y-17875000D01*
X44053803Y-17875000D01*
X44010717Y-17939483D01*
X43897644Y-18212466D01*
X43840000Y-18502263D01*
X43840000Y-18797737D01*
X43897644Y-19087534D01*
X44010717Y-19360517D01*
X44174874Y-19606194D01*
X44383806Y-19815126D01*
X44629483Y-19979283D01*
X44902466Y-20092356D01*
X45192263Y-20150000D01*
X45487737Y-20150000D01*
X45777534Y-20092356D01*
X46050517Y-19979283D01*
X46296194Y-19815126D01*
X46505126Y-19606194D01*
X46669283Y-19360517D01*
X46775000Y-19105292D01*
X46775000Y-23274708D01*
X46669283Y-23019483D01*
X46505126Y-22773806D01*
X46296194Y-22564874D01*
X46050517Y-22400717D01*
X45777534Y-22287644D01*
X45487737Y-22230000D01*
X45192263Y-22230000D01*
X44902466Y-22287644D01*
X44629483Y-22400717D01*
X44383806Y-22564874D01*
X44174874Y-22773806D01*
X44010717Y-23019483D01*
X43897644Y-23292466D01*
X43840000Y-23582263D01*
X43840000Y-23877737D01*
X43897644Y-24167534D01*
X44010717Y-24440517D01*
X44174874Y-24686194D01*
X44383806Y-24895126D01*
X44629483Y-25059283D01*
X44902466Y-25172356D01*
X45192263Y-25230000D01*
X45487737Y-25230000D01*
X45777534Y-25172356D01*
X46050517Y-25059283D01*
X46296194Y-24895126D01*
X46505126Y-24686194D01*
X46669283Y-24440517D01*
X46775000Y-24185292D01*
X46775000Y-25907746D01*
X46701982Y-25798466D01*
X46594034Y-25690518D01*
X46467100Y-25605704D01*
X46326059Y-25547283D01*
X46176331Y-25517500D01*
X46023669Y-25517500D01*
X45873941Y-25547283D01*
X45732900Y-25605704D01*
X45605966Y-25690518D01*
X45498018Y-25798466D01*
X45413204Y-25925400D01*
X45354783Y-26066441D01*
X45325000Y-26216169D01*
X45325000Y-26368831D01*
X45354783Y-26518559D01*
X45413204Y-26659600D01*
X45498018Y-26786534D01*
X45605966Y-26894482D01*
X45732900Y-26979296D01*
X45873941Y-27037717D01*
X46023669Y-27067500D01*
X46176331Y-27067500D01*
X46326059Y-27037717D01*
X46467100Y-26979296D01*
X46594034Y-26894482D01*
X46701982Y-26786534D01*
X46775000Y-26677254D01*
X46775000Y-29936385D01*
X46676044Y-29438900D01*
X46481935Y-28970280D01*
X46200133Y-28548533D01*
X45841467Y-28189867D01*
X45419720Y-27908065D01*
X44951100Y-27713956D01*
X44453615Y-27615000D01*
X43946385Y-27615000D01*
X43448900Y-27713956D01*
X42980280Y-27908065D01*
X42558533Y-28189867D01*
X42199867Y-28548533D01*
X41918065Y-28970280D01*
X41723956Y-29438900D01*
X41625000Y-29936385D01*
X41625000Y-30443615D01*
X41723956Y-30941100D01*
X41918065Y-31409720D01*
X42199867Y-31831467D01*
X42558533Y-32190133D01*
X42980280Y-32471935D01*
X43448900Y-32666044D01*
X43946385Y-32765000D01*
X3253615Y-32765000D01*
X3751100Y-32666044D01*
X4219720Y-32471935D01*
X4641467Y-32190133D01*
X5000133Y-31831467D01*
X5077172Y-31716169D01*
X8116667Y-31716169D01*
X8116667Y-31868831D01*
X8146450Y-32018559D01*
X8204871Y-32159600D01*
X8289685Y-32286534D01*
X8397633Y-32394482D01*
X8524567Y-32479296D01*
X8665608Y-32537717D01*
X8815336Y-32567500D01*
X8967998Y-32567500D01*
X9117726Y-32537717D01*
X9258767Y-32479296D01*
X9385701Y-32394482D01*
X9493649Y-32286534D01*
X9578463Y-32159600D01*
X9636884Y-32018559D01*
X9666667Y-31868831D01*
X9666667Y-31716169D01*
X9636884Y-31566441D01*
X9578463Y-31425400D01*
X9493649Y-31298466D01*
X9385701Y-31190518D01*
X9258767Y-31105704D01*
X9117726Y-31047283D01*
X8967998Y-31017500D01*
X8815336Y-31017500D01*
X8665608Y-31047283D01*
X8524567Y-31105704D01*
X8397633Y-31190518D01*
X8289685Y-31298466D01*
X8204871Y-31425400D01*
X8146450Y-31566441D01*
X8116667Y-31716169D01*
X5077172Y-31716169D01*
X5281935Y-31409720D01*
X5476044Y-30941100D01*
X5515595Y-30742263D01*
X11760000Y-30742263D01*
X11760000Y-31037737D01*
X11817644Y-31327534D01*
X11930717Y-31600517D01*
X12094874Y-31846194D01*
X12303806Y-32055126D01*
X12549483Y-32219283D01*
X12822466Y-32332356D01*
X13112263Y-32390000D01*
X13407737Y-32390000D01*
X13697534Y-32332356D01*
X13970517Y-32219283D01*
X14216194Y-32055126D01*
X14425126Y-31846194D01*
X14512006Y-31716169D01*
X14816667Y-31716169D01*
X14816667Y-31868831D01*
X14846450Y-32018559D01*
X14904871Y-32159600D01*
X14989685Y-32286534D01*
X15097633Y-32394482D01*
X15224567Y-32479296D01*
X15365608Y-32537717D01*
X15515336Y-32567500D01*
X15667998Y-32567500D01*
X15817726Y-32537717D01*
X15958767Y-32479296D01*
X16085701Y-32394482D01*
X16193649Y-32286534D01*
X16278463Y-32159600D01*
X16336884Y-32018559D01*
X16366667Y-31868831D01*
X16366667Y-31716169D01*
X16336884Y-31566441D01*
X16278463Y-31425400D01*
X16193649Y-31298466D01*
X16085701Y-31190518D01*
X15958767Y-31105704D01*
X15817726Y-31047283D01*
X15667998Y-31017500D01*
X15515336Y-31017500D01*
X15365608Y-31047283D01*
X15224567Y-31105704D01*
X15097633Y-31190518D01*
X14989685Y-31298466D01*
X14904871Y-31425400D01*
X14846450Y-31566441D01*
X14816667Y-31716169D01*
X14512006Y-31716169D01*
X14589283Y-31600517D01*
X14702356Y-31327534D01*
X14760000Y-31037737D01*
X14760000Y-30742263D01*
X16840000Y-30742263D01*
X16840000Y-31037737D01*
X16897644Y-31327534D01*
X17010717Y-31600517D01*
X17174874Y-31846194D01*
X17383806Y-32055126D01*
X17629483Y-32219283D01*
X17902466Y-32332356D01*
X18192263Y-32390000D01*
X18487737Y-32390000D01*
X18777534Y-32332356D01*
X19050517Y-32219283D01*
X19296194Y-32055126D01*
X19505126Y-31846194D01*
X19669283Y-31600517D01*
X19782356Y-31327534D01*
X19840000Y-31037737D01*
X19840000Y-30742263D01*
X19816411Y-30623669D01*
X21825000Y-30623669D01*
X21825000Y-30776331D01*
X21854783Y-30926059D01*
X21913204Y-31067100D01*
X21998018Y-31194034D01*
X22105966Y-31301982D01*
X22232900Y-31386796D01*
X22373941Y-31445217D01*
X22523669Y-31475000D01*
X22676331Y-31475000D01*
X22826059Y-31445217D01*
X22967100Y-31386796D01*
X23094034Y-31301982D01*
X23177347Y-31218669D01*
X25768000Y-31218669D01*
X25768000Y-31371331D01*
X25797783Y-31521059D01*
X25856204Y-31662100D01*
X25941018Y-31789034D01*
X26048966Y-31896982D01*
X26175900Y-31981796D01*
X26316941Y-32040217D01*
X26466669Y-32070000D01*
X26619331Y-32070000D01*
X26769059Y-32040217D01*
X26910100Y-31981796D01*
X27037034Y-31896982D01*
X27144982Y-31789034D01*
X27229796Y-31662100D01*
X27288217Y-31521059D01*
X27318000Y-31371331D01*
X27318000Y-31218669D01*
X27288217Y-31068941D01*
X27229796Y-30927900D01*
X27144982Y-30800966D01*
X27037034Y-30693018D01*
X26910100Y-30608204D01*
X26769059Y-30549783D01*
X26619331Y-30520000D01*
X26466669Y-30520000D01*
X26316941Y-30549783D01*
X26175900Y-30608204D01*
X26048966Y-30693018D01*
X25941018Y-30800966D01*
X25856204Y-30927900D01*
X25797783Y-31068941D01*
X25768000Y-31218669D01*
X23177347Y-31218669D01*
X23201982Y-31194034D01*
X23286796Y-31067100D01*
X23345217Y-30926059D01*
X23375000Y-30776331D01*
X23375000Y-30623669D01*
X23345217Y-30473941D01*
X23286796Y-30332900D01*
X23201982Y-30205966D01*
X23094034Y-30098018D01*
X22967100Y-30013204D01*
X22826059Y-29954783D01*
X22676331Y-29925000D01*
X22523669Y-29925000D01*
X22373941Y-29954783D01*
X22232900Y-30013204D01*
X22105966Y-30098018D01*
X21998018Y-30205966D01*
X21913204Y-30332900D01*
X21854783Y-30473941D01*
X21825000Y-30623669D01*
X19816411Y-30623669D01*
X19782356Y-30452466D01*
X19669283Y-30179483D01*
X19505126Y-29933806D01*
X19392989Y-29821669D01*
X26784000Y-29821669D01*
X26784000Y-29974331D01*
X26813783Y-30124059D01*
X26872204Y-30265100D01*
X26957018Y-30392034D01*
X27064966Y-30499982D01*
X27191900Y-30584796D01*
X27332941Y-30643217D01*
X27482669Y-30673000D01*
X27635331Y-30673000D01*
X27785059Y-30643217D01*
X27926100Y-30584796D01*
X28053034Y-30499982D01*
X28160982Y-30392034D01*
X28245796Y-30265100D01*
X28304217Y-30124059D01*
X28313842Y-30075669D01*
X32372000Y-30075669D01*
X32372000Y-30228331D01*
X32401783Y-30378059D01*
X32460204Y-30519100D01*
X32545018Y-30646034D01*
X32652966Y-30753982D01*
X32779900Y-30838796D01*
X32920941Y-30897217D01*
X33070669Y-30927000D01*
X33223331Y-30927000D01*
X33373059Y-30897217D01*
X33514100Y-30838796D01*
X33641034Y-30753982D01*
X33748982Y-30646034D01*
X33833796Y-30519100D01*
X33892217Y-30378059D01*
X33922000Y-30228331D01*
X33922000Y-30075669D01*
X33892217Y-29925941D01*
X33833796Y-29784900D01*
X33748982Y-29657966D01*
X33641034Y-29550018D01*
X33514100Y-29465204D01*
X33373059Y-29406783D01*
X33223331Y-29377000D01*
X33070669Y-29377000D01*
X32920941Y-29406783D01*
X32779900Y-29465204D01*
X32652966Y-29550018D01*
X32545018Y-29657966D01*
X32460204Y-29784900D01*
X32401783Y-29925941D01*
X32372000Y-30075669D01*
X28313842Y-30075669D01*
X28334000Y-29974331D01*
X28334000Y-29821669D01*
X28304217Y-29671941D01*
X28245796Y-29530900D01*
X28160982Y-29403966D01*
X28053034Y-29296018D01*
X27926100Y-29211204D01*
X27785059Y-29152783D01*
X27635331Y-29123000D01*
X27482669Y-29123000D01*
X27332941Y-29152783D01*
X27191900Y-29211204D01*
X27064966Y-29296018D01*
X26957018Y-29403966D01*
X26872204Y-29530900D01*
X26813783Y-29671941D01*
X26784000Y-29821669D01*
X19392989Y-29821669D01*
X19296194Y-29724874D01*
X19050517Y-29560717D01*
X18777534Y-29447644D01*
X18487737Y-29390000D01*
X18192263Y-29390000D01*
X17902466Y-29447644D01*
X17629483Y-29560717D01*
X17383806Y-29724874D01*
X17174874Y-29933806D01*
X17010717Y-30179483D01*
X16897644Y-30452466D01*
X16840000Y-30742263D01*
X14760000Y-30742263D01*
X14702356Y-30452466D01*
X14589283Y-30179483D01*
X14425126Y-29933806D01*
X14216194Y-29724874D01*
X13970517Y-29560717D01*
X13697534Y-29447644D01*
X13407737Y-29390000D01*
X13112263Y-29390000D01*
X12822466Y-29447644D01*
X12549483Y-29560717D01*
X12303806Y-29724874D01*
X12094874Y-29933806D01*
X11930717Y-30179483D01*
X11817644Y-30452466D01*
X11760000Y-30742263D01*
X5515595Y-30742263D01*
X5575000Y-30443615D01*
X5575000Y-29936385D01*
X5491414Y-29516169D01*
X5916667Y-29516169D01*
X5916667Y-29668831D01*
X5946450Y-29818559D01*
X6004871Y-29959600D01*
X6089685Y-30086534D01*
X6197633Y-30194482D01*
X6324567Y-30279296D01*
X6465608Y-30337717D01*
X6615336Y-30367500D01*
X6767998Y-30367500D01*
X6917726Y-30337717D01*
X7058767Y-30279296D01*
X7185701Y-30194482D01*
X7293649Y-30086534D01*
X7378463Y-29959600D01*
X7436884Y-29818559D01*
X7466667Y-29668831D01*
X7466667Y-29516169D01*
X10316667Y-29516169D01*
X10316667Y-29668831D01*
X10346450Y-29818559D01*
X10404871Y-29959600D01*
X10489685Y-30086534D01*
X10597633Y-30194482D01*
X10724567Y-30279296D01*
X10865608Y-30337717D01*
X11015336Y-30367500D01*
X11167998Y-30367500D01*
X11317726Y-30337717D01*
X11458767Y-30279296D01*
X11585701Y-30194482D01*
X11693649Y-30086534D01*
X11778463Y-29959600D01*
X11836884Y-29818559D01*
X11866667Y-29668831D01*
X11866667Y-29516169D01*
X11836884Y-29366441D01*
X11778463Y-29225400D01*
X11693649Y-29098466D01*
X11585701Y-28990518D01*
X11458767Y-28905704D01*
X11317726Y-28847283D01*
X11167998Y-28817500D01*
X11015336Y-28817500D01*
X10865608Y-28847283D01*
X10724567Y-28905704D01*
X10597633Y-28990518D01*
X10489685Y-29098466D01*
X10404871Y-29225400D01*
X10346450Y-29366441D01*
X10316667Y-29516169D01*
X7466667Y-29516169D01*
X7436884Y-29366441D01*
X7378463Y-29225400D01*
X7293649Y-29098466D01*
X7185701Y-28990518D01*
X7058767Y-28905704D01*
X6917726Y-28847283D01*
X6767998Y-28817500D01*
X6615336Y-28817500D01*
X6465608Y-28847283D01*
X6324567Y-28905704D01*
X6197633Y-28990518D01*
X6089685Y-29098466D01*
X6004871Y-29225400D01*
X5946450Y-29366441D01*
X5916667Y-29516169D01*
X5491414Y-29516169D01*
X5476044Y-29438900D01*
X5281935Y-28970280D01*
X5000133Y-28548533D01*
X4641467Y-28189867D01*
X4615799Y-28172716D01*
X14000000Y-28172716D01*
X14000000Y-28527284D01*
X14069173Y-28875041D01*
X14204861Y-29202620D01*
X14401849Y-29497433D01*
X14652567Y-29748151D01*
X14947380Y-29945139D01*
X15274959Y-30080827D01*
X15622716Y-30150000D01*
X15977284Y-30150000D01*
X16325041Y-30080827D01*
X16652620Y-29945139D01*
X16947433Y-29748151D01*
X17198151Y-29497433D01*
X17395139Y-29202620D01*
X17530827Y-28875041D01*
X17600000Y-28527284D01*
X17600000Y-28172716D01*
X17530827Y-27824959D01*
X17426740Y-27573669D01*
X21825000Y-27573669D01*
X21825000Y-27726331D01*
X21854783Y-27876059D01*
X21913204Y-28017100D01*
X21998018Y-28144034D01*
X22105966Y-28251982D01*
X22232900Y-28336796D01*
X22373941Y-28395217D01*
X22523669Y-28425000D01*
X22676331Y-28425000D01*
X22826059Y-28395217D01*
X22967100Y-28336796D01*
X23025658Y-28297669D01*
X25895000Y-28297669D01*
X25895000Y-28450331D01*
X25924783Y-28600059D01*
X25983204Y-28741100D01*
X26068018Y-28868034D01*
X26175966Y-28975982D01*
X26302900Y-29060796D01*
X26443941Y-29119217D01*
X26593669Y-29149000D01*
X26746331Y-29149000D01*
X26896059Y-29119217D01*
X27037100Y-29060796D01*
X27164034Y-28975982D01*
X27271982Y-28868034D01*
X27356796Y-28741100D01*
X27415217Y-28600059D01*
X27445000Y-28450331D01*
X27445000Y-28297669D01*
X27415217Y-28147941D01*
X27356796Y-28006900D01*
X27271982Y-27879966D01*
X27164034Y-27772018D01*
X27037100Y-27687204D01*
X26896059Y-27628783D01*
X26746331Y-27599000D01*
X26593669Y-27599000D01*
X26443941Y-27628783D01*
X26302900Y-27687204D01*
X26175966Y-27772018D01*
X26068018Y-27879966D01*
X25983204Y-28006900D01*
X25924783Y-28147941D01*
X25895000Y-28297669D01*
X23025658Y-28297669D01*
X23094034Y-28251982D01*
X23201982Y-28144034D01*
X23286796Y-28017100D01*
X23345217Y-27876059D01*
X23375000Y-27726331D01*
X23375000Y-27573669D01*
X23345217Y-27423941D01*
X23286796Y-27282900D01*
X23201982Y-27155966D01*
X23094034Y-27048018D01*
X22967100Y-26963204D01*
X22826059Y-26904783D01*
X22676331Y-26875000D01*
X22523669Y-26875000D01*
X22373941Y-26904783D01*
X22232900Y-26963204D01*
X22105966Y-27048018D01*
X21998018Y-27155966D01*
X21913204Y-27282900D01*
X21854783Y-27423941D01*
X21825000Y-27573669D01*
X17426740Y-27573669D01*
X17395139Y-27497380D01*
X17198151Y-27202567D01*
X16947433Y-26951849D01*
X16652620Y-26754861D01*
X16325041Y-26619173D01*
X15977284Y-26550000D01*
X15622716Y-26550000D01*
X15274959Y-26619173D01*
X14947380Y-26754861D01*
X14652567Y-26951849D01*
X14401849Y-27202567D01*
X14204861Y-27497380D01*
X14069173Y-27824959D01*
X14000000Y-28172716D01*
X4615799Y-28172716D01*
X4219720Y-27908065D01*
X3751100Y-27713956D01*
X3253615Y-27615000D01*
X2746385Y-27615000D01*
X2248900Y-27713956D01*
X1780280Y-27908065D01*
X1358533Y-28189867D01*
X999867Y-28548533D01*
X718065Y-28970280D01*
X523956Y-29438900D01*
X425000Y-29936385D01*
X425000Y-27316169D01*
X8116667Y-27316169D01*
X8116667Y-27468831D01*
X8146450Y-27618559D01*
X8204871Y-27759600D01*
X8289685Y-27886534D01*
X8397633Y-27994482D01*
X8524567Y-28079296D01*
X8665608Y-28137717D01*
X8815336Y-28167500D01*
X8967998Y-28167500D01*
X9117726Y-28137717D01*
X9258767Y-28079296D01*
X9385701Y-27994482D01*
X9493649Y-27886534D01*
X9578463Y-27759600D01*
X9636884Y-27618559D01*
X9666667Y-27468831D01*
X9666667Y-27316169D01*
X9636884Y-27166441D01*
X9578463Y-27025400D01*
X9493649Y-26898466D01*
X9385701Y-26790518D01*
X9258767Y-26705704D01*
X9117726Y-26647283D01*
X8967998Y-26617500D01*
X8815336Y-26617500D01*
X8665608Y-26647283D01*
X8524567Y-26705704D01*
X8397633Y-26790518D01*
X8289685Y-26898466D01*
X8204871Y-27025400D01*
X8146450Y-27166441D01*
X8116667Y-27316169D01*
X425000Y-27316169D01*
X425000Y-26410723D01*
X446450Y-26518559D01*
X504871Y-26659600D01*
X589685Y-26786534D01*
X697633Y-26894482D01*
X824567Y-26979296D01*
X965608Y-27037717D01*
X1115336Y-27067500D01*
X1267998Y-27067500D01*
X1417726Y-27037717D01*
X1558767Y-26979296D01*
X1685701Y-26894482D01*
X1793649Y-26786534D01*
X1878463Y-26659600D01*
X1936884Y-26518559D01*
X1966667Y-26368831D01*
X1966667Y-26216169D01*
X4816667Y-26216169D01*
X4816667Y-26368831D01*
X4846450Y-26518559D01*
X4904871Y-26659600D01*
X4989685Y-26786534D01*
X5097633Y-26894482D01*
X5224567Y-26979296D01*
X5365608Y-27037717D01*
X5515336Y-27067500D01*
X5667998Y-27067500D01*
X5817726Y-27037717D01*
X5958767Y-26979296D01*
X6085701Y-26894482D01*
X6193649Y-26786534D01*
X6278463Y-26659600D01*
X6336884Y-26518559D01*
X6366667Y-26368831D01*
X6366667Y-26216169D01*
X6336884Y-26066441D01*
X6278463Y-25925400D01*
X6193649Y-25798466D01*
X6085701Y-25690518D01*
X6043415Y-25662263D01*
X11760000Y-25662263D01*
X11760000Y-25957737D01*
X11817644Y-26247534D01*
X11930717Y-26520517D01*
X12094874Y-26766194D01*
X12303806Y-26975126D01*
X12549483Y-27139283D01*
X12822466Y-27252356D01*
X13112263Y-27310000D01*
X13407737Y-27310000D01*
X13697534Y-27252356D01*
X13970517Y-27139283D01*
X14216194Y-26975126D01*
X14425126Y-26766194D01*
X14589283Y-26520517D01*
X14702356Y-26247534D01*
X14760000Y-25957737D01*
X14760000Y-25662263D01*
X14702356Y-25372466D01*
X14596195Y-25116169D01*
X14816667Y-25116169D01*
X14816667Y-25268831D01*
X14846450Y-25418559D01*
X14904871Y-25559600D01*
X14989685Y-25686534D01*
X15097633Y-25794482D01*
X15224567Y-25879296D01*
X15365608Y-25937717D01*
X15515336Y-25967500D01*
X15667998Y-25967500D01*
X15817726Y-25937717D01*
X15958767Y-25879296D01*
X16085701Y-25794482D01*
X16193649Y-25686534D01*
X16209866Y-25662263D01*
X16840000Y-25662263D01*
X16840000Y-25957737D01*
X16897644Y-26247534D01*
X17010717Y-26520517D01*
X17174874Y-26766194D01*
X17383806Y-26975126D01*
X17629483Y-27139283D01*
X17902466Y-27252356D01*
X18192263Y-27310000D01*
X18487737Y-27310000D01*
X18777534Y-27252356D01*
X19050517Y-27139283D01*
X19296194Y-26975126D01*
X19497651Y-26773669D01*
X26784000Y-26773669D01*
X26784000Y-26926331D01*
X26813783Y-27076059D01*
X26872204Y-27217100D01*
X26957018Y-27344034D01*
X27064966Y-27451982D01*
X27191900Y-27536796D01*
X27332941Y-27595217D01*
X27482669Y-27625000D01*
X27635331Y-27625000D01*
X27785059Y-27595217D01*
X27926100Y-27536796D01*
X28053034Y-27451982D01*
X28160982Y-27344034D01*
X28245796Y-27217100D01*
X28304217Y-27076059D01*
X28334000Y-26926331D01*
X28334000Y-26773669D01*
X28304217Y-26623941D01*
X28245796Y-26482900D01*
X28160982Y-26355966D01*
X28053034Y-26248018D01*
X27926100Y-26163204D01*
X27785059Y-26104783D01*
X27635331Y-26075000D01*
X27482669Y-26075000D01*
X27332941Y-26104783D01*
X27191900Y-26163204D01*
X27064966Y-26248018D01*
X26957018Y-26355966D01*
X26872204Y-26482900D01*
X26813783Y-26623941D01*
X26784000Y-26773669D01*
X19497651Y-26773669D01*
X19505126Y-26766194D01*
X19669283Y-26520517D01*
X19782356Y-26247534D01*
X19840000Y-25957737D01*
X19840000Y-25662263D01*
X19782356Y-25372466D01*
X19669283Y-25099483D01*
X19505126Y-24853806D01*
X19296194Y-24644874D01*
X19050517Y-24480717D01*
X18777534Y-24367644D01*
X18487737Y-24310000D01*
X18192263Y-24310000D01*
X17902466Y-24367644D01*
X17629483Y-24480717D01*
X17383806Y-24644874D01*
X17174874Y-24853806D01*
X17010717Y-25099483D01*
X16897644Y-25372466D01*
X16840000Y-25662263D01*
X16209866Y-25662263D01*
X16278463Y-25559600D01*
X16336884Y-25418559D01*
X16366667Y-25268831D01*
X16366667Y-25116169D01*
X16336884Y-24966441D01*
X16278463Y-24825400D01*
X16193649Y-24698466D01*
X16085701Y-24590518D01*
X15958767Y-24505704D01*
X15817726Y-24447283D01*
X15667998Y-24417500D01*
X15515336Y-24417500D01*
X15365608Y-24447283D01*
X15224567Y-24505704D01*
X15097633Y-24590518D01*
X14989685Y-24698466D01*
X14904871Y-24825400D01*
X14846450Y-24966441D01*
X14816667Y-25116169D01*
X14596195Y-25116169D01*
X14589283Y-25099483D01*
X14425126Y-24853806D01*
X14216194Y-24644874D01*
X13970517Y-24480717D01*
X13697534Y-24367644D01*
X13407737Y-24310000D01*
X13112263Y-24310000D01*
X12822466Y-24367644D01*
X12549483Y-24480717D01*
X12303806Y-24644874D01*
X12094874Y-24853806D01*
X11930717Y-25099483D01*
X11817644Y-25372466D01*
X11760000Y-25662263D01*
X6043415Y-25662263D01*
X5958767Y-25605704D01*
X5817726Y-25547283D01*
X5667998Y-25517500D01*
X5515336Y-25517500D01*
X5365608Y-25547283D01*
X5224567Y-25605704D01*
X5097633Y-25690518D01*
X4989685Y-25798466D01*
X4904871Y-25925400D01*
X4846450Y-26066441D01*
X4816667Y-26216169D01*
X1966667Y-26216169D01*
X1936884Y-26066441D01*
X1878463Y-25925400D01*
X1793649Y-25798466D01*
X1685701Y-25690518D01*
X1558767Y-25605704D01*
X1417726Y-25547283D01*
X1267998Y-25517500D01*
X1115336Y-25517500D01*
X965608Y-25547283D01*
X824567Y-25605704D01*
X697633Y-25690518D01*
X589685Y-25798466D01*
X504871Y-25925400D01*
X446450Y-26066441D01*
X425000Y-26174277D01*
X425000Y-23729348D01*
X775000Y-23729348D01*
X775000Y-23970652D01*
X822076Y-24207319D01*
X914419Y-24430255D01*
X1048481Y-24630892D01*
X1219108Y-24801519D01*
X1419745Y-24935581D01*
X1642681Y-25027924D01*
X1879348Y-25075000D01*
X2120652Y-25075000D01*
X2357319Y-25027924D01*
X2580255Y-24935581D01*
X2780892Y-24801519D01*
X2951519Y-24630892D01*
X3085581Y-24430255D01*
X3177924Y-24207319D01*
X3225000Y-23970652D01*
X3225000Y-23729348D01*
X3315000Y-23729348D01*
X3315000Y-23970652D01*
X3362076Y-24207319D01*
X3454419Y-24430255D01*
X3588481Y-24630892D01*
X3759108Y-24801519D01*
X3959745Y-24935581D01*
X4182681Y-25027924D01*
X4419348Y-25075000D01*
X4660652Y-25075000D01*
X4897319Y-25027924D01*
X5120255Y-24935581D01*
X5320892Y-24801519D01*
X5491519Y-24630892D01*
X5625581Y-24430255D01*
X5717924Y-24207319D01*
X5765000Y-23970652D01*
X5765000Y-23729348D01*
X5717924Y-23492681D01*
X5625581Y-23269745D01*
X5491519Y-23069108D01*
X5320892Y-22898481D01*
X5120255Y-22764419D01*
X4897319Y-22672076D01*
X4660652Y-22625000D01*
X4419348Y-22625000D01*
X4182681Y-22672076D01*
X3959745Y-22764419D01*
X3759108Y-22898481D01*
X3588481Y-23069108D01*
X3454419Y-23269745D01*
X3362076Y-23492681D01*
X3315000Y-23729348D01*
X3225000Y-23729348D01*
X3177924Y-23492681D01*
X3085581Y-23269745D01*
X2951519Y-23069108D01*
X2780892Y-22898481D01*
X2580255Y-22764419D01*
X2357319Y-22672076D01*
X2120652Y-22625000D01*
X1879348Y-22625000D01*
X1642681Y-22672076D01*
X1419745Y-22764419D01*
X1219108Y-22898481D01*
X1048481Y-23069108D01*
X914419Y-23269745D01*
X822076Y-23492681D01*
X775000Y-23729348D01*
X425000Y-23729348D01*
X425000Y-21189348D01*
X775000Y-21189348D01*
X775000Y-21430652D01*
X822076Y-21667319D01*
X914419Y-21890255D01*
X1048481Y-22090892D01*
X1219108Y-22261519D01*
X1419745Y-22395581D01*
X1642681Y-22487924D01*
X1879348Y-22535000D01*
X2120652Y-22535000D01*
X2357319Y-22487924D01*
X2580255Y-22395581D01*
X2780892Y-22261519D01*
X2951519Y-22090892D01*
X3085581Y-21890255D01*
X3177924Y-21667319D01*
X3225000Y-21430652D01*
X3225000Y-21189348D01*
X3315000Y-21189348D01*
X3315000Y-21430652D01*
X3362076Y-21667319D01*
X3454419Y-21890255D01*
X3588481Y-22090892D01*
X3759108Y-22261519D01*
X3959745Y-22395581D01*
X4182681Y-22487924D01*
X4419348Y-22535000D01*
X4660652Y-22535000D01*
X4897319Y-22487924D01*
X4977575Y-22454681D01*
X5134081Y-22611188D01*
X5149737Y-22630265D01*
X5225872Y-22692747D01*
X5312734Y-22739176D01*
X5406984Y-22767766D01*
X5505001Y-22777420D01*
X5529561Y-22775001D01*
X11073441Y-22775001D01*
X11098001Y-22777420D01*
X11122561Y-22775001D01*
X11196018Y-22767766D01*
X11290268Y-22739176D01*
X11377130Y-22692747D01*
X11417034Y-22659999D01*
X22490540Y-22659999D01*
X22446450Y-22766441D01*
X22416667Y-22916169D01*
X22416667Y-23068831D01*
X22446450Y-23218559D01*
X22504871Y-23359600D01*
X22589685Y-23486534D01*
X22697633Y-23594482D01*
X22824567Y-23679296D01*
X22965608Y-23737717D01*
X23115336Y-23767500D01*
X23267998Y-23767500D01*
X23417726Y-23737717D01*
X23558767Y-23679296D01*
X23685701Y-23594482D01*
X23706514Y-23573669D01*
X27850000Y-23573669D01*
X27850000Y-23726331D01*
X27879783Y-23876059D01*
X27938204Y-24017100D01*
X28023018Y-24144034D01*
X28130966Y-24251982D01*
X28257900Y-24336796D01*
X28398941Y-24395217D01*
X28548669Y-24425000D01*
X28701331Y-24425000D01*
X28851059Y-24395217D01*
X28992100Y-24336796D01*
X29119034Y-24251982D01*
X29226982Y-24144034D01*
X29311796Y-24017100D01*
X29370217Y-23876059D01*
X29400000Y-23726331D01*
X29400000Y-23573669D01*
X29370217Y-23423941D01*
X29311796Y-23282900D01*
X29226982Y-23155966D01*
X29119034Y-23048018D01*
X28992100Y-22963204D01*
X28851059Y-22904783D01*
X28701331Y-22875000D01*
X28548669Y-22875000D01*
X28398941Y-22904783D01*
X28257900Y-22963204D01*
X28130966Y-23048018D01*
X28023018Y-23155966D01*
X27938204Y-23282900D01*
X27879783Y-23423941D01*
X27850000Y-23573669D01*
X23706514Y-23573669D01*
X23793649Y-23486534D01*
X23878463Y-23359600D01*
X23936884Y-23218559D01*
X23966667Y-23068831D01*
X23966667Y-22916169D01*
X23936884Y-22766441D01*
X23878463Y-22625400D01*
X23841698Y-22570377D01*
X23908855Y-22515263D01*
X23924520Y-22496175D01*
X25704526Y-20716169D01*
X26816667Y-20716169D01*
X26816667Y-20868831D01*
X26846450Y-21018559D01*
X26904871Y-21159600D01*
X26989685Y-21286534D01*
X27097633Y-21394482D01*
X27224567Y-21479296D01*
X27365608Y-21537717D01*
X27515336Y-21567500D01*
X27667998Y-21567500D01*
X27817726Y-21537717D01*
X27958767Y-21479296D01*
X28085701Y-21394482D01*
X28193649Y-21286534D01*
X28278463Y-21159600D01*
X28336884Y-21018559D01*
X28350060Y-20952317D01*
X28354783Y-20976059D01*
X28413204Y-21117100D01*
X28498018Y-21244034D01*
X28605966Y-21351982D01*
X28732900Y-21436796D01*
X28873941Y-21495217D01*
X29023669Y-21525000D01*
X29176331Y-21525000D01*
X29326059Y-21495217D01*
X29467100Y-21436796D01*
X29594034Y-21351982D01*
X29701982Y-21244034D01*
X29786796Y-21117100D01*
X29845217Y-20976059D01*
X29875000Y-20826331D01*
X29875000Y-20673669D01*
X29845217Y-20523941D01*
X29786796Y-20382900D01*
X29701982Y-20255966D01*
X29594034Y-20148018D01*
X29467100Y-20063204D01*
X29326059Y-20004783D01*
X29176331Y-19975000D01*
X29023669Y-19975000D01*
X28873941Y-20004783D01*
X28732900Y-20063204D01*
X28605966Y-20148018D01*
X28498018Y-20255966D01*
X28413204Y-20382900D01*
X28354783Y-20523941D01*
X28341607Y-20590183D01*
X28336884Y-20566441D01*
X28278463Y-20425400D01*
X28193649Y-20298466D01*
X28085701Y-20190518D01*
X27958767Y-20105704D01*
X27817726Y-20047283D01*
X27667998Y-20017500D01*
X27515336Y-20017500D01*
X27365608Y-20047283D01*
X27224567Y-20105704D01*
X27097633Y-20190518D01*
X26989685Y-20298466D01*
X26904871Y-20425400D01*
X26846450Y-20566441D01*
X26816667Y-20716169D01*
X25704526Y-20716169D01*
X27947027Y-18473669D01*
X28325000Y-18473669D01*
X28325000Y-18626331D01*
X28354783Y-18776059D01*
X28413204Y-18917100D01*
X28498018Y-19044034D01*
X28605966Y-19151982D01*
X28732900Y-19236796D01*
X28873941Y-19295217D01*
X29023669Y-19325000D01*
X29176331Y-19325000D01*
X29326059Y-19295217D01*
X29467100Y-19236796D01*
X29594034Y-19151982D01*
X29701982Y-19044034D01*
X29786796Y-18917100D01*
X29845217Y-18776059D01*
X29875000Y-18626331D01*
X29875000Y-18473669D01*
X29845217Y-18323941D01*
X29786796Y-18182900D01*
X29701982Y-18055966D01*
X29594034Y-17948018D01*
X29467100Y-17863204D01*
X29326059Y-17804783D01*
X29176331Y-17775000D01*
X29023669Y-17775000D01*
X28873941Y-17804783D01*
X28732900Y-17863204D01*
X28605966Y-17948018D01*
X28498018Y-18055966D01*
X28413204Y-18182900D01*
X28354783Y-18323941D01*
X28325000Y-18473669D01*
X27947027Y-18473669D01*
X30100001Y-16320696D01*
X30100001Y-24375000D01*
X30023669Y-24375000D01*
X29873941Y-24404783D01*
X29732900Y-24463204D01*
X29605966Y-24548018D01*
X29498018Y-24655966D01*
X29413204Y-24782900D01*
X29354783Y-24923941D01*
X29325000Y-25073669D01*
X29325000Y-25226331D01*
X29354783Y-25376059D01*
X29413204Y-25517100D01*
X29498018Y-25644034D01*
X29605966Y-25751982D01*
X29732900Y-25836796D01*
X29873941Y-25895217D01*
X30023669Y-25925000D01*
X30176331Y-25925000D01*
X30326059Y-25895217D01*
X30467100Y-25836796D01*
X30594034Y-25751982D01*
X30701982Y-25644034D01*
X30786796Y-25517100D01*
X30845217Y-25376059D01*
X30875000Y-25226331D01*
X30875000Y-25082107D01*
X30936186Y-25020921D01*
X30955264Y-25005264D01*
X31017746Y-24929129D01*
X31064175Y-24842267D01*
X31092765Y-24748017D01*
X31100000Y-24674560D01*
X31102419Y-24650000D01*
X31100000Y-24625440D01*
X31100000Y-23063564D01*
X32212440Y-23063564D01*
X32212440Y-23366436D01*
X32271527Y-23663490D01*
X32387432Y-23943308D01*
X32555699Y-24195138D01*
X32769862Y-24409301D01*
X33021692Y-24577568D01*
X33301510Y-24693473D01*
X33598564Y-24752560D01*
X33901436Y-24752560D01*
X34198490Y-24693473D01*
X34478308Y-24577568D01*
X34730138Y-24409301D01*
X34944301Y-24195138D01*
X35063883Y-24016169D01*
X35616667Y-24016169D01*
X35616667Y-24168831D01*
X35646450Y-24318559D01*
X35704871Y-24459600D01*
X35789685Y-24586534D01*
X35897633Y-24694482D01*
X36024567Y-24779296D01*
X36165608Y-24837717D01*
X36315336Y-24867500D01*
X36467998Y-24867500D01*
X36617726Y-24837717D01*
X36758767Y-24779296D01*
X36885701Y-24694482D01*
X36993649Y-24586534D01*
X37078463Y-24459600D01*
X37136884Y-24318559D01*
X37166667Y-24168831D01*
X37166667Y-24016169D01*
X37136884Y-23866441D01*
X37078463Y-23725400D01*
X36993649Y-23598466D01*
X36885701Y-23490518D01*
X36758767Y-23405704D01*
X36617726Y-23347283D01*
X36467998Y-23317500D01*
X36315336Y-23317500D01*
X36165608Y-23347283D01*
X36024567Y-23405704D01*
X35897633Y-23490518D01*
X35789685Y-23598466D01*
X35704871Y-23725400D01*
X35646450Y-23866441D01*
X35616667Y-24016169D01*
X35063883Y-24016169D01*
X35112568Y-23943308D01*
X35228473Y-23663490D01*
X35287560Y-23366436D01*
X35287560Y-23063564D01*
X35228473Y-22766510D01*
X35112568Y-22486692D01*
X34944301Y-22234862D01*
X34730138Y-22020699D01*
X34478308Y-21852432D01*
X34198490Y-21736527D01*
X33901436Y-21677440D01*
X33598564Y-21677440D01*
X33301510Y-21736527D01*
X33021692Y-21852432D01*
X32769862Y-22020699D01*
X32555699Y-22234862D01*
X32387432Y-22486692D01*
X32271527Y-22766510D01*
X32212440Y-23063564D01*
X31100000Y-23063564D01*
X31100000Y-20713669D01*
X31425000Y-20713669D01*
X31425000Y-20866331D01*
X31454783Y-21016059D01*
X31513204Y-21157100D01*
X31598018Y-21284034D01*
X31705966Y-21391982D01*
X31832900Y-21476796D01*
X31973941Y-21535217D01*
X32123669Y-21565000D01*
X32276331Y-21565000D01*
X32426059Y-21535217D01*
X32567100Y-21476796D01*
X32694034Y-21391982D01*
X32801982Y-21284034D01*
X32806046Y-21277952D01*
X32810110Y-21284034D01*
X32918058Y-21391982D01*
X33044992Y-21476796D01*
X33186033Y-21535217D01*
X33335761Y-21565000D01*
X33488423Y-21565000D01*
X33638151Y-21535217D01*
X33779192Y-21476796D01*
X33906126Y-21391982D01*
X34014074Y-21284034D01*
X34098888Y-21157100D01*
X34115116Y-21117923D01*
X34131343Y-21157100D01*
X34216157Y-21284034D01*
X34324105Y-21391982D01*
X34451039Y-21476796D01*
X34592080Y-21535217D01*
X34741808Y-21565000D01*
X34894470Y-21565000D01*
X35044198Y-21535217D01*
X35185239Y-21476796D01*
X35312173Y-21391982D01*
X35313874Y-21390281D01*
X35334217Y-21492549D01*
X35392638Y-21633590D01*
X35477452Y-21760524D01*
X35585400Y-21868472D01*
X35712334Y-21953286D01*
X35853375Y-22011707D01*
X36003103Y-22041490D01*
X36155765Y-22041490D01*
X36305493Y-22011707D01*
X36446534Y-21953286D01*
X36455541Y-21947267D01*
X36445780Y-21996341D01*
X36445780Y-22149003D01*
X36475563Y-22298731D01*
X36533984Y-22439772D01*
X36618798Y-22566706D01*
X36726746Y-22674654D01*
X36853680Y-22759468D01*
X36994721Y-22817889D01*
X37144449Y-22847672D01*
X37297111Y-22847672D01*
X37446839Y-22817889D01*
X37587880Y-22759468D01*
X37714814Y-22674654D01*
X37822762Y-22566706D01*
X37826306Y-22561402D01*
X37836673Y-22613520D01*
X37895094Y-22754561D01*
X37979908Y-22881495D01*
X38087856Y-22989443D01*
X38214790Y-23074257D01*
X38355831Y-23132678D01*
X38505559Y-23162461D01*
X38658221Y-23162461D01*
X38807949Y-23132678D01*
X38899546Y-23094737D01*
X38817644Y-23292466D01*
X38760000Y-23582263D01*
X38760000Y-23877737D01*
X38817644Y-24167534D01*
X38930717Y-24440517D01*
X39094874Y-24686194D01*
X39303806Y-24895126D01*
X39549483Y-25059283D01*
X39822466Y-25172356D01*
X40112263Y-25230000D01*
X40407737Y-25230000D01*
X40697534Y-25172356D01*
X40970517Y-25059283D01*
X41216194Y-24895126D01*
X41425126Y-24686194D01*
X41589283Y-24440517D01*
X41702356Y-24167534D01*
X41732464Y-24016169D01*
X42216667Y-24016169D01*
X42216667Y-24168831D01*
X42246450Y-24318559D01*
X42304871Y-24459600D01*
X42389685Y-24586534D01*
X42497633Y-24694482D01*
X42624567Y-24779296D01*
X42765608Y-24837717D01*
X42915336Y-24867500D01*
X43067998Y-24867500D01*
X43217726Y-24837717D01*
X43358767Y-24779296D01*
X43485701Y-24694482D01*
X43593649Y-24586534D01*
X43678463Y-24459600D01*
X43736884Y-24318559D01*
X43766667Y-24168831D01*
X43766667Y-24016169D01*
X43736884Y-23866441D01*
X43678463Y-23725400D01*
X43593649Y-23598466D01*
X43485701Y-23490518D01*
X43358767Y-23405704D01*
X43217726Y-23347283D01*
X43067998Y-23317500D01*
X42915336Y-23317500D01*
X42765608Y-23347283D01*
X42624567Y-23405704D01*
X42497633Y-23490518D01*
X42389685Y-23598466D01*
X42304871Y-23725400D01*
X42246450Y-23866441D01*
X42216667Y-24016169D01*
X41732464Y-24016169D01*
X41760000Y-23877737D01*
X41760000Y-23582263D01*
X41702356Y-23292466D01*
X41589283Y-23019483D01*
X41425126Y-22773806D01*
X41216194Y-22564874D01*
X40970517Y-22400717D01*
X40697534Y-22287644D01*
X40407737Y-22230000D01*
X40112263Y-22230000D01*
X39822466Y-22287644D01*
X39549483Y-22400717D01*
X39341838Y-22539462D01*
X39356890Y-22463792D01*
X39356890Y-22311130D01*
X39327107Y-22161402D01*
X39268686Y-22020361D01*
X39183872Y-21893427D01*
X39075924Y-21785479D01*
X38948990Y-21700665D01*
X38807949Y-21642244D01*
X38658221Y-21612461D01*
X38505559Y-21612461D01*
X38355831Y-21642244D01*
X38214790Y-21700665D01*
X38087856Y-21785479D01*
X37979908Y-21893427D01*
X37976364Y-21898731D01*
X37965997Y-21846613D01*
X37907576Y-21705572D01*
X37822762Y-21578638D01*
X37714814Y-21470690D01*
X37587880Y-21385876D01*
X37446839Y-21327455D01*
X37297111Y-21297672D01*
X37144449Y-21297672D01*
X36994721Y-21327455D01*
X36853680Y-21385876D01*
X36844673Y-21391895D01*
X36854434Y-21342821D01*
X36854434Y-21190159D01*
X36824651Y-21040431D01*
X36813172Y-21012716D01*
X41000000Y-21012716D01*
X41000000Y-21367284D01*
X41069173Y-21715041D01*
X41204861Y-22042620D01*
X41401849Y-22337433D01*
X41652567Y-22588151D01*
X41947380Y-22785139D01*
X42274959Y-22920827D01*
X42622716Y-22990000D01*
X42977284Y-22990000D01*
X43325041Y-22920827D01*
X43652620Y-22785139D01*
X43947433Y-22588151D01*
X44198151Y-22337433D01*
X44395139Y-22042620D01*
X44530827Y-21715041D01*
X44600000Y-21367284D01*
X44600000Y-21012716D01*
X44530827Y-20664959D01*
X44395139Y-20337380D01*
X44198151Y-20042567D01*
X43947433Y-19791849D01*
X43652620Y-19594861D01*
X43325041Y-19459173D01*
X42977284Y-19390000D01*
X42622716Y-19390000D01*
X42274959Y-19459173D01*
X41947380Y-19594861D01*
X41652567Y-19791849D01*
X41401849Y-20042567D01*
X41204861Y-20337380D01*
X41069173Y-20664959D01*
X41000000Y-21012716D01*
X36813172Y-21012716D01*
X36766230Y-20899390D01*
X36681416Y-20772456D01*
X36573468Y-20664508D01*
X36446534Y-20579694D01*
X36305493Y-20521273D01*
X36155765Y-20491490D01*
X36003103Y-20491490D01*
X35853375Y-20521273D01*
X35712334Y-20579694D01*
X35585400Y-20664508D01*
X35583699Y-20666209D01*
X35563356Y-20563941D01*
X35504935Y-20422900D01*
X35420121Y-20295966D01*
X35312173Y-20188018D01*
X35185239Y-20103204D01*
X35044198Y-20044783D01*
X34894470Y-20015000D01*
X34741808Y-20015000D01*
X34592080Y-20044783D01*
X34451039Y-20103204D01*
X34324105Y-20188018D01*
X34216157Y-20295966D01*
X34131343Y-20422900D01*
X34115116Y-20462077D01*
X34098888Y-20422900D01*
X34014074Y-20295966D01*
X33906126Y-20188018D01*
X33779192Y-20103204D01*
X33638151Y-20044783D01*
X33488423Y-20015000D01*
X33335761Y-20015000D01*
X33186033Y-20044783D01*
X33044992Y-20103204D01*
X32918058Y-20188018D01*
X32810110Y-20295966D01*
X32806046Y-20302048D01*
X32801982Y-20295966D01*
X32694034Y-20188018D01*
X32567100Y-20103204D01*
X32426059Y-20044783D01*
X32276331Y-20015000D01*
X32123669Y-20015000D01*
X31973941Y-20044783D01*
X31832900Y-20103204D01*
X31705966Y-20188018D01*
X31598018Y-20295966D01*
X31513204Y-20422900D01*
X31454783Y-20563941D01*
X31425000Y-20713669D01*
X31100000Y-20713669D01*
X31100000Y-18313669D01*
X31425000Y-18313669D01*
X31425000Y-18466331D01*
X31454783Y-18616059D01*
X31513204Y-18757100D01*
X31598018Y-18884034D01*
X31705966Y-18991982D01*
X31832900Y-19076796D01*
X31973941Y-19135217D01*
X32123669Y-19165000D01*
X32276331Y-19165000D01*
X32426059Y-19135217D01*
X32567100Y-19076796D01*
X32694034Y-18991982D01*
X32801982Y-18884034D01*
X32806046Y-18877952D01*
X32810110Y-18884034D01*
X32918058Y-18991982D01*
X33044992Y-19076796D01*
X33186033Y-19135217D01*
X33335761Y-19165000D01*
X33488423Y-19165000D01*
X33638151Y-19135217D01*
X33779192Y-19076796D01*
X33906126Y-18991982D01*
X34014074Y-18884034D01*
X34098888Y-18757100D01*
X34115116Y-18717923D01*
X34131343Y-18757100D01*
X34216157Y-18884034D01*
X34324105Y-18991982D01*
X34451039Y-19076796D01*
X34592080Y-19135217D01*
X34741808Y-19165000D01*
X34894470Y-19165000D01*
X35044198Y-19135217D01*
X35185239Y-19076796D01*
X35312173Y-18991982D01*
X35420121Y-18884034D01*
X35469259Y-18810493D01*
X35519231Y-18931135D01*
X35604045Y-19058069D01*
X35711993Y-19166017D01*
X35838927Y-19250831D01*
X35979968Y-19309252D01*
X36129696Y-19339035D01*
X36282358Y-19339035D01*
X36432086Y-19309252D01*
X36573127Y-19250831D01*
X36653372Y-19197213D01*
X36653372Y-19316899D01*
X36683155Y-19466627D01*
X36741576Y-19607668D01*
X36826390Y-19734602D01*
X36934338Y-19842550D01*
X37061272Y-19927364D01*
X37202313Y-19985785D01*
X37352041Y-20015568D01*
X37504703Y-20015568D01*
X37654431Y-19985785D01*
X37795472Y-19927364D01*
X37807041Y-19919634D01*
X37807041Y-20060198D01*
X37836824Y-20209926D01*
X37895245Y-20350967D01*
X37980059Y-20477901D01*
X38088007Y-20585849D01*
X38214941Y-20670663D01*
X38355982Y-20729084D01*
X38505710Y-20758867D01*
X38658372Y-20758867D01*
X38808100Y-20729084D01*
X38949141Y-20670663D01*
X39076075Y-20585849D01*
X39184023Y-20477901D01*
X39268837Y-20350967D01*
X39327258Y-20209926D01*
X39357041Y-20060198D01*
X39357041Y-19907536D01*
X39344002Y-19841984D01*
X39549483Y-19979283D01*
X39822466Y-20092356D01*
X40112263Y-20150000D01*
X40407737Y-20150000D01*
X40697534Y-20092356D01*
X40970517Y-19979283D01*
X41216194Y-19815126D01*
X41425126Y-19606194D01*
X41589283Y-19360517D01*
X41702356Y-19087534D01*
X41760000Y-18797737D01*
X41760000Y-18502263D01*
X41702356Y-18212466D01*
X41589283Y-17939483D01*
X41425126Y-17693806D01*
X41216194Y-17484874D01*
X40970517Y-17320717D01*
X40697534Y-17207644D01*
X40407737Y-17150000D01*
X40112263Y-17150000D01*
X39822466Y-17207644D01*
X39549483Y-17320717D01*
X39303806Y-17484874D01*
X39094874Y-17693806D01*
X38930717Y-17939483D01*
X38817644Y-18212466D01*
X38760000Y-18502263D01*
X38760000Y-18797737D01*
X38817644Y-19087534D01*
X38895178Y-19274719D01*
X38808100Y-19238650D01*
X38658372Y-19208867D01*
X38505710Y-19208867D01*
X38355982Y-19238650D01*
X38214941Y-19297071D01*
X38203372Y-19304801D01*
X38203372Y-19164237D01*
X38173589Y-19014509D01*
X38115168Y-18873468D01*
X38030354Y-18746534D01*
X37922406Y-18638586D01*
X37795472Y-18553772D01*
X37654431Y-18495351D01*
X37504703Y-18465568D01*
X37352041Y-18465568D01*
X37202313Y-18495351D01*
X37061272Y-18553772D01*
X36981027Y-18607390D01*
X36981027Y-18487704D01*
X36951244Y-18337976D01*
X36892823Y-18196935D01*
X36808009Y-18070001D01*
X36700061Y-17962053D01*
X36573127Y-17877239D01*
X36432086Y-17818818D01*
X36282358Y-17789035D01*
X36129696Y-17789035D01*
X35979968Y-17818818D01*
X35838927Y-17877239D01*
X35711993Y-17962053D01*
X35604045Y-18070001D01*
X35554907Y-18143542D01*
X35504935Y-18022900D01*
X35420121Y-17895966D01*
X35312173Y-17788018D01*
X35185239Y-17703204D01*
X35044198Y-17644783D01*
X34894470Y-17615000D01*
X34741808Y-17615000D01*
X34592080Y-17644783D01*
X34451039Y-17703204D01*
X34324105Y-17788018D01*
X34216157Y-17895966D01*
X34131343Y-18022900D01*
X34115116Y-18062077D01*
X34098888Y-18022900D01*
X34014074Y-17895966D01*
X33906126Y-17788018D01*
X33779192Y-17703204D01*
X33638151Y-17644783D01*
X33488423Y-17615000D01*
X33335761Y-17615000D01*
X33186033Y-17644783D01*
X33044992Y-17703204D01*
X32918058Y-17788018D01*
X32810110Y-17895966D01*
X32806046Y-17902048D01*
X32801982Y-17895966D01*
X32694034Y-17788018D01*
X32567100Y-17703204D01*
X32426059Y-17644783D01*
X32276331Y-17615000D01*
X32123669Y-17615000D01*
X31973941Y-17644783D01*
X31832900Y-17703204D01*
X31705966Y-17788018D01*
X31598018Y-17895966D01*
X31513204Y-18022900D01*
X31454783Y-18163941D01*
X31425000Y-18313669D01*
X31100000Y-18313669D01*
X31100000Y-16723669D01*
X34625000Y-16723669D01*
X34625000Y-16876331D01*
X34654783Y-17026059D01*
X34713204Y-17167100D01*
X34798018Y-17294034D01*
X34905966Y-17401982D01*
X35032900Y-17486796D01*
X35173941Y-17545217D01*
X35323669Y-17575000D01*
X35476331Y-17575000D01*
X35626059Y-17545217D01*
X35767100Y-17486796D01*
X35894034Y-17401982D01*
X36001982Y-17294034D01*
X36086796Y-17167100D01*
X36145217Y-17026059D01*
X36175000Y-16876331D01*
X36175000Y-16723669D01*
X36145217Y-16573941D01*
X36086796Y-16432900D01*
X36001982Y-16305966D01*
X35894034Y-16198018D01*
X35767100Y-16113204D01*
X35626059Y-16054783D01*
X35476331Y-16025000D01*
X35323669Y-16025000D01*
X35173941Y-16054783D01*
X35032900Y-16113204D01*
X34905966Y-16198018D01*
X34798018Y-16305966D01*
X34713204Y-16432900D01*
X34654783Y-16573941D01*
X34625000Y-16723669D01*
X31100000Y-16723669D01*
X31100000Y-15977669D01*
X36525000Y-15977669D01*
X36525000Y-16130331D01*
X36554783Y-16280059D01*
X36613204Y-16421100D01*
X36698018Y-16548034D01*
X36805966Y-16655982D01*
X36932900Y-16740796D01*
X37073941Y-16799217D01*
X37223669Y-16829000D01*
X37376331Y-16829000D01*
X37526059Y-16799217D01*
X37667100Y-16740796D01*
X37794034Y-16655982D01*
X37901982Y-16548034D01*
X37986796Y-16421100D01*
X38045217Y-16280059D01*
X38075000Y-16130331D01*
X38075000Y-15977669D01*
X38045217Y-15827941D01*
X37986796Y-15686900D01*
X37901982Y-15559966D01*
X37794034Y-15452018D01*
X37667100Y-15367204D01*
X37526059Y-15308783D01*
X37376331Y-15279000D01*
X37223669Y-15279000D01*
X37073941Y-15308783D01*
X36932900Y-15367204D01*
X36805966Y-15452018D01*
X36698018Y-15559966D01*
X36613204Y-15686900D01*
X36554783Y-15827941D01*
X36525000Y-15977669D01*
X31100000Y-15977669D01*
X31100000Y-13023669D01*
X33725000Y-13023669D01*
X33725000Y-13176331D01*
X33754783Y-13326059D01*
X33813204Y-13467100D01*
X33898018Y-13594034D01*
X34005966Y-13701982D01*
X34132900Y-13786796D01*
X34273941Y-13845217D01*
X34423669Y-13875000D01*
X34576331Y-13875000D01*
X34726059Y-13845217D01*
X34867100Y-13786796D01*
X34994034Y-13701982D01*
X35101982Y-13594034D01*
X35186796Y-13467100D01*
X35245217Y-13326059D01*
X35275000Y-13176331D01*
X35275000Y-13023669D01*
X35245217Y-12873941D01*
X35186796Y-12732900D01*
X35101982Y-12605966D01*
X34994034Y-12498018D01*
X34867100Y-12413204D01*
X34726059Y-12354783D01*
X34576331Y-12325000D01*
X34423669Y-12325000D01*
X34273941Y-12354783D01*
X34132900Y-12413204D01*
X34005966Y-12498018D01*
X33898018Y-12605966D01*
X33813204Y-12732900D01*
X33754783Y-12873941D01*
X33725000Y-13023669D01*
X31100000Y-13023669D01*
X31100000Y-9347564D01*
X32212440Y-9347564D01*
X32212440Y-9650436D01*
X32271527Y-9947490D01*
X32387432Y-10227308D01*
X32555699Y-10479138D01*
X32769862Y-10693301D01*
X33021692Y-10861568D01*
X33301510Y-10977473D01*
X33598564Y-11036560D01*
X33901436Y-11036560D01*
X34198490Y-10977473D01*
X34478308Y-10861568D01*
X34672131Y-10732060D01*
X34654783Y-10773941D01*
X34625000Y-10923669D01*
X34625000Y-11076331D01*
X34654783Y-11226059D01*
X34713204Y-11367100D01*
X34798018Y-11494034D01*
X34905966Y-11601982D01*
X35032900Y-11686796D01*
X35173941Y-11745217D01*
X35323669Y-11775000D01*
X35476331Y-11775000D01*
X35626059Y-11745217D01*
X35767100Y-11686796D01*
X35894034Y-11601982D01*
X36001982Y-11494034D01*
X36086796Y-11367100D01*
X36145217Y-11226059D01*
X36175000Y-11076331D01*
X36175000Y-10923669D01*
X36145217Y-10773941D01*
X36086796Y-10632900D01*
X36001982Y-10505966D01*
X35894034Y-10398018D01*
X35767100Y-10313204D01*
X35626059Y-10254783D01*
X35476331Y-10225000D01*
X35323669Y-10225000D01*
X35173941Y-10254783D01*
X35063698Y-10300447D01*
X35112568Y-10227308D01*
X35228473Y-9947490D01*
X35287560Y-9650436D01*
X35287560Y-9347564D01*
X35228473Y-9050510D01*
X35112568Y-8770692D01*
X34944301Y-8518862D01*
X34730138Y-8304699D01*
X34478308Y-8136432D01*
X34198490Y-8020527D01*
X33901436Y-7961440D01*
X33598564Y-7961440D01*
X33301510Y-8020527D01*
X33021692Y-8136432D01*
X32769862Y-8304699D01*
X32555699Y-8518862D01*
X32387432Y-8770692D01*
X32271527Y-9050510D01*
X32212440Y-9347564D01*
X31100000Y-9347564D01*
X31100000Y-7323669D01*
X38325000Y-7323669D01*
X38325000Y-7476331D01*
X38354783Y-7626059D01*
X38413204Y-7767100D01*
X38498018Y-7894034D01*
X38605966Y-8001982D01*
X38732900Y-8086796D01*
X38873941Y-8145217D01*
X39023669Y-8175000D01*
X39136272Y-8175000D01*
X39125000Y-8231669D01*
X39125000Y-8384331D01*
X39154783Y-8534059D01*
X39213204Y-8675100D01*
X39298018Y-8802034D01*
X39405966Y-8909982D01*
X39532900Y-8994796D01*
X39673941Y-9053217D01*
X39823669Y-9083000D01*
X39976331Y-9083000D01*
X40126059Y-9053217D01*
X40267100Y-8994796D01*
X40394034Y-8909982D01*
X40501982Y-8802034D01*
X40586796Y-8675100D01*
X40645217Y-8534059D01*
X40675000Y-8384331D01*
X40675000Y-8231669D01*
X40645217Y-8081941D01*
X40586796Y-7940900D01*
X40501982Y-7813966D01*
X40394034Y-7706018D01*
X40267100Y-7621204D01*
X40126059Y-7562783D01*
X39976331Y-7533000D01*
X39863728Y-7533000D01*
X39875000Y-7476331D01*
X39875000Y-7323669D01*
X39845217Y-7173941D01*
X39786796Y-7032900D01*
X39701982Y-6905966D01*
X39594034Y-6798018D01*
X39467100Y-6713204D01*
X39326059Y-6654783D01*
X39176331Y-6625000D01*
X39023669Y-6625000D01*
X38873941Y-6654783D01*
X38732900Y-6713204D01*
X38605966Y-6798018D01*
X38498018Y-6905966D01*
X38413204Y-7032900D01*
X38354783Y-7173941D01*
X38325000Y-7323669D01*
X31100000Y-7323669D01*
X31100000Y-6416169D01*
X36716667Y-6416169D01*
X36716667Y-6568831D01*
X36746450Y-6718559D01*
X36804871Y-6859600D01*
X36889685Y-6986534D01*
X36997633Y-7094482D01*
X37124567Y-7179296D01*
X37265608Y-7237717D01*
X37415336Y-7267500D01*
X37567998Y-7267500D01*
X37717726Y-7237717D01*
X37858767Y-7179296D01*
X37985701Y-7094482D01*
X38093649Y-6986534D01*
X38178463Y-6859600D01*
X38236884Y-6718559D01*
X38266667Y-6568831D01*
X38266667Y-6416169D01*
X38236884Y-6266441D01*
X38178463Y-6125400D01*
X38093649Y-5998466D01*
X37985701Y-5890518D01*
X37858767Y-5805704D01*
X37717726Y-5747283D01*
X37567998Y-5717500D01*
X37415336Y-5717500D01*
X37265608Y-5747283D01*
X37124567Y-5805704D01*
X36997633Y-5890518D01*
X36889685Y-5998466D01*
X36804871Y-6125400D01*
X36746450Y-6266441D01*
X36716667Y-6416169D01*
X31100000Y-6416169D01*
X31100000Y-5257105D01*
X32832106Y-3525000D01*
X32976331Y-3525000D01*
X33126059Y-3495217D01*
X33267100Y-3436796D01*
X33394034Y-3351982D01*
X33501982Y-3244034D01*
X33586796Y-3117100D01*
X33645217Y-2976059D01*
X33675000Y-2826331D01*
X33675000Y-2673669D01*
X33652264Y-2559370D01*
X33750000Y-2657106D01*
X33750000Y-2801331D01*
X33779783Y-2951059D01*
X33838204Y-3092100D01*
X33923018Y-3219034D01*
X34030966Y-3326982D01*
X34157900Y-3411796D01*
X34298941Y-3470217D01*
X34448669Y-3500000D01*
X34601331Y-3500000D01*
X34751059Y-3470217D01*
X34892100Y-3411796D01*
X35019034Y-3326982D01*
X35126982Y-3219034D01*
X35211796Y-3092100D01*
X35270217Y-2951059D01*
X35300000Y-2801331D01*
X35300000Y-2723669D01*
X35616667Y-2723669D01*
X35616667Y-2876331D01*
X35646450Y-3026059D01*
X35704871Y-3167100D01*
X35789685Y-3294034D01*
X35897633Y-3401982D01*
X36024567Y-3486796D01*
X36165608Y-3545217D01*
X36315336Y-3575000D01*
X36467998Y-3575000D01*
X36617726Y-3545217D01*
X36758767Y-3486796D01*
X36885701Y-3401982D01*
X36993649Y-3294034D01*
X37078463Y-3167100D01*
X37136884Y-3026059D01*
X37166667Y-2876331D01*
X37166667Y-2723669D01*
X37136884Y-2573941D01*
X37078463Y-2432900D01*
X36993649Y-2305966D01*
X36885701Y-2198018D01*
X36758767Y-2113204D01*
X36617726Y-2054783D01*
X36467998Y-2025000D01*
X36315336Y-2025000D01*
X36165608Y-2054783D01*
X36024567Y-2113204D01*
X35897633Y-2198018D01*
X35789685Y-2305966D01*
X35704871Y-2432900D01*
X35646450Y-2573941D01*
X35616667Y-2723669D01*
X35300000Y-2723669D01*
X35300000Y-2648669D01*
X35270217Y-2498941D01*
X35211796Y-2357900D01*
X35126982Y-2230966D01*
X35019034Y-2123018D01*
X34892100Y-2038204D01*
X34751059Y-1979783D01*
X34601331Y-1950000D01*
X34457106Y-1950000D01*
X34430769Y-1923663D01*
X38325000Y-1923663D01*
X38325000Y-2076325D01*
X38354783Y-2226053D01*
X38413204Y-2367094D01*
X38498018Y-2494028D01*
X38605966Y-2601976D01*
X38732900Y-2686790D01*
X38873941Y-2745211D01*
X39023669Y-2774994D01*
X39176331Y-2774994D01*
X39326059Y-2745211D01*
X39467100Y-2686790D01*
X39594034Y-2601976D01*
X39701982Y-2494028D01*
X39786796Y-2367094D01*
X39845217Y-2226053D01*
X39875000Y-2076325D01*
X39875000Y-1923663D01*
X39845217Y-1773935D01*
X39786796Y-1632894D01*
X39701982Y-1505960D01*
X39594034Y-1398012D01*
X39467100Y-1313198D01*
X39326059Y-1254777D01*
X39176331Y-1224994D01*
X39023669Y-1224994D01*
X38873941Y-1254777D01*
X38732900Y-1313198D01*
X38605966Y-1398012D01*
X38498018Y-1505960D01*
X38413204Y-1632894D01*
X38354783Y-1773935D01*
X38325000Y-1923663D01*
X34430769Y-1923663D01*
X34120929Y-1613824D01*
X34105264Y-1594736D01*
X34029129Y-1532254D01*
X33942267Y-1485825D01*
X33848017Y-1457235D01*
X33774560Y-1450000D01*
X33750000Y-1447581D01*
X33725440Y-1450000D01*
X31724560Y-1450000D01*
X31700000Y-1447581D01*
X31675440Y-1450000D01*
X31601983Y-1457235D01*
X31507733Y-1485825D01*
X31420871Y-1532254D01*
X31344736Y-1594736D01*
X31329080Y-1613813D01*
X29813808Y-3129087D01*
X29794726Y-3144747D01*
X29732244Y-3220882D01*
X29685815Y-3307744D01*
X29657224Y-3401994D01*
X29647570Y-3500011D01*
X29649990Y-3524581D01*
X29649989Y-14603987D01*
X29634030Y-14588028D01*
X29507096Y-14503214D01*
X29366055Y-14444793D01*
X29216327Y-14415010D01*
X29063665Y-14415010D01*
X28913937Y-14444793D01*
X28772896Y-14503214D01*
X28645962Y-14588028D01*
X28538014Y-14695976D01*
X28453200Y-14822910D01*
X28394779Y-14963951D01*
X28364996Y-15113679D01*
X28364996Y-15257904D01*
X27372901Y-16250000D01*
X12696016Y-16250000D01*
X12594034Y-16148018D01*
X12467100Y-16063204D01*
X12326059Y-16004783D01*
X12176331Y-15975000D01*
X12023669Y-15975000D01*
X11873941Y-16004783D01*
X11732900Y-16063204D01*
X11605966Y-16148018D01*
X11498018Y-16255966D01*
X11413204Y-16382900D01*
X11354783Y-16523941D01*
X11325000Y-16673669D01*
X11325000Y-16826331D01*
X11354783Y-16976059D01*
X11413204Y-17117100D01*
X11498018Y-17244034D01*
X11605966Y-17351982D01*
X11732900Y-17436796D01*
X11873941Y-17495217D01*
X12023669Y-17525000D01*
X12176331Y-17525000D01*
X12326059Y-17495217D01*
X12467100Y-17436796D01*
X12594034Y-17351982D01*
X12696016Y-17250000D01*
X27555446Y-17250000D01*
X27580006Y-17252419D01*
X27604566Y-17250000D01*
X27678023Y-17242765D01*
X27772273Y-17214175D01*
X27815315Y-17191168D01*
X23346486Y-21659999D01*
X11518303Y-21659999D01*
X11525000Y-21626331D01*
X11525000Y-21473669D01*
X11495217Y-21323941D01*
X11436796Y-21182900D01*
X11351982Y-21055966D01*
X11244034Y-20948018D01*
X11117100Y-20863204D01*
X10976059Y-20804783D01*
X10826331Y-20775000D01*
X10673669Y-20775000D01*
X10523941Y-20804783D01*
X10382900Y-20863204D01*
X10255966Y-20948018D01*
X10148018Y-21055966D01*
X10063204Y-21182900D01*
X10004783Y-21323941D01*
X9975000Y-21473669D01*
X9975000Y-21626331D01*
X10004573Y-21775001D01*
X5712108Y-21775001D01*
X5684681Y-21747575D01*
X5717924Y-21667319D01*
X5765000Y-21430652D01*
X5765000Y-21189348D01*
X5717924Y-20952681D01*
X5625581Y-20729745D01*
X5588113Y-20673669D01*
X11525000Y-20673669D01*
X11525000Y-20826331D01*
X11554783Y-20976059D01*
X11613204Y-21117100D01*
X11698018Y-21244034D01*
X11805966Y-21351982D01*
X11932900Y-21436796D01*
X12073941Y-21495217D01*
X12223669Y-21525000D01*
X12376331Y-21525000D01*
X12526059Y-21495217D01*
X12667100Y-21436796D01*
X12794034Y-21351982D01*
X12901982Y-21244034D01*
X12986796Y-21117100D01*
X13045217Y-20976059D01*
X13075000Y-20826331D01*
X13075000Y-20673669D01*
X13045217Y-20523941D01*
X12986796Y-20382900D01*
X12901982Y-20255966D01*
X12794034Y-20148018D01*
X12667100Y-20063204D01*
X12526059Y-20004783D01*
X12376331Y-19975000D01*
X12223669Y-19975000D01*
X12073941Y-20004783D01*
X11932900Y-20063204D01*
X11805966Y-20148018D01*
X11698018Y-20255966D01*
X11613204Y-20382900D01*
X11554783Y-20523941D01*
X11525000Y-20673669D01*
X5588113Y-20673669D01*
X5491519Y-20529108D01*
X5320892Y-20358481D01*
X5120255Y-20224419D01*
X4897319Y-20132076D01*
X4660652Y-20085000D01*
X4419348Y-20085000D01*
X4182681Y-20132076D01*
X3959745Y-20224419D01*
X3759108Y-20358481D01*
X3588481Y-20529108D01*
X3454419Y-20729745D01*
X3362076Y-20952681D01*
X3315000Y-21189348D01*
X3225000Y-21189348D01*
X3177924Y-20952681D01*
X3085581Y-20729745D01*
X2951519Y-20529108D01*
X2780892Y-20358481D01*
X2580255Y-20224419D01*
X2357319Y-20132076D01*
X2120652Y-20085000D01*
X1879348Y-20085000D01*
X1642681Y-20132076D01*
X1419745Y-20224419D01*
X1219108Y-20358481D01*
X1048481Y-20529108D01*
X914419Y-20729745D01*
X822076Y-20952681D01*
X775000Y-21189348D01*
X425000Y-21189348D01*
X425000Y-18649348D01*
X775000Y-18649348D01*
X775000Y-18890652D01*
X822076Y-19127319D01*
X914419Y-19350255D01*
X1048481Y-19550892D01*
X1219108Y-19721519D01*
X1419745Y-19855581D01*
X1642681Y-19947924D01*
X1879348Y-19995000D01*
X2120652Y-19995000D01*
X2357319Y-19947924D01*
X2580255Y-19855581D01*
X2780892Y-19721519D01*
X2951519Y-19550892D01*
X3085581Y-19350255D01*
X3177924Y-19127319D01*
X3225000Y-18890652D01*
X3225000Y-18649348D01*
X3177924Y-18412681D01*
X3144681Y-18332425D01*
X3382108Y-18094999D01*
X3517727Y-18094999D01*
X3454419Y-18189745D01*
X3362076Y-18412681D01*
X3315000Y-18649348D01*
X3315000Y-18890652D01*
X3362076Y-19127319D01*
X3454419Y-19350255D01*
X3588481Y-19550892D01*
X3759108Y-19721519D01*
X3959745Y-19855581D01*
X4182681Y-19947924D01*
X4419348Y-19995000D01*
X4660652Y-19995000D01*
X4897319Y-19947924D01*
X5120255Y-19855581D01*
X5320892Y-19721519D01*
X5468742Y-19573669D01*
X14525000Y-19573669D01*
X14525000Y-19726331D01*
X14554783Y-19876059D01*
X14613204Y-20017100D01*
X14698018Y-20144034D01*
X14753984Y-20200000D01*
X14698018Y-20255966D01*
X14613204Y-20382900D01*
X14554783Y-20523941D01*
X14525000Y-20673669D01*
X14525000Y-20826331D01*
X14554783Y-20976059D01*
X14613204Y-21117100D01*
X14698018Y-21244034D01*
X14805966Y-21351982D01*
X14932900Y-21436796D01*
X15073941Y-21495217D01*
X15223669Y-21525000D01*
X15376331Y-21525000D01*
X15526059Y-21495217D01*
X15667100Y-21436796D01*
X15794034Y-21351982D01*
X15901982Y-21244034D01*
X15986796Y-21117100D01*
X16045217Y-20976059D01*
X16075000Y-20826331D01*
X16075000Y-20673669D01*
X16045217Y-20523941D01*
X15986796Y-20382900D01*
X15901982Y-20255966D01*
X15846016Y-20200000D01*
X15901982Y-20144034D01*
X15986796Y-20017100D01*
X16045217Y-19876059D01*
X16075000Y-19726331D01*
X16075000Y-19573669D01*
X16045217Y-19423941D01*
X15986796Y-19282900D01*
X15901982Y-19155966D01*
X15794034Y-19048018D01*
X15667100Y-18963204D01*
X15526059Y-18904783D01*
X15376331Y-18875000D01*
X15223669Y-18875000D01*
X15073941Y-18904783D01*
X14932900Y-18963204D01*
X14805966Y-19048018D01*
X14698018Y-19155966D01*
X14613204Y-19282900D01*
X14554783Y-19423941D01*
X14525000Y-19573669D01*
X5468742Y-19573669D01*
X5491519Y-19550892D01*
X5625581Y-19350255D01*
X5717924Y-19127319D01*
X5765000Y-18890652D01*
X5765000Y-18649348D01*
X5738510Y-18516169D01*
X16916667Y-18516169D01*
X16916667Y-18668831D01*
X16946450Y-18818559D01*
X17004871Y-18959600D01*
X17089685Y-19086534D01*
X17197633Y-19194482D01*
X17324567Y-19279296D01*
X17465608Y-19337717D01*
X17615336Y-19367500D01*
X17767998Y-19367500D01*
X17917726Y-19337717D01*
X18058767Y-19279296D01*
X18185701Y-19194482D01*
X18293649Y-19086534D01*
X18378463Y-18959600D01*
X18436884Y-18818559D01*
X18466667Y-18668831D01*
X18466667Y-18516169D01*
X18436884Y-18366441D01*
X18378463Y-18225400D01*
X18293649Y-18098466D01*
X18185701Y-17990518D01*
X18058767Y-17905704D01*
X17917726Y-17847283D01*
X17767998Y-17817500D01*
X17615336Y-17817500D01*
X17465608Y-17847283D01*
X17324567Y-17905704D01*
X17197633Y-17990518D01*
X17089685Y-18098466D01*
X17004871Y-18225400D01*
X16946450Y-18366441D01*
X16916667Y-18516169D01*
X5738510Y-18516169D01*
X5717924Y-18412681D01*
X5625581Y-18189745D01*
X5562273Y-18094999D01*
X5630441Y-18094999D01*
X5655001Y-18097418D01*
X5679561Y-18094999D01*
X5753018Y-18087764D01*
X5847268Y-18059174D01*
X5934130Y-18012745D01*
X6010265Y-17950263D01*
X6025930Y-17931175D01*
X8383437Y-15573669D01*
X9025000Y-15573669D01*
X9025000Y-15726331D01*
X9054783Y-15876059D01*
X9113204Y-16017100D01*
X9198018Y-16144034D01*
X9305966Y-16251982D01*
X9432900Y-16336796D01*
X9573941Y-16395217D01*
X9723669Y-16425000D01*
X9876331Y-16425000D01*
X10026059Y-16395217D01*
X10167100Y-16336796D01*
X10294034Y-16251982D01*
X10401982Y-16144034D01*
X10486796Y-16017100D01*
X10545217Y-15876059D01*
X10575000Y-15726331D01*
X10575000Y-15575000D01*
X10676331Y-15575000D01*
X10826059Y-15545217D01*
X10967100Y-15486796D01*
X11094034Y-15401982D01*
X11201982Y-15294034D01*
X11286796Y-15167100D01*
X11345217Y-15026059D01*
X11375000Y-14876331D01*
X11375000Y-14754234D01*
X11443142Y-14782460D01*
X11425000Y-14873665D01*
X11425000Y-15026327D01*
X11454783Y-15176055D01*
X11513204Y-15317096D01*
X11598018Y-15444030D01*
X11705966Y-15551978D01*
X11832900Y-15636792D01*
X11973941Y-15695213D01*
X12123669Y-15724996D01*
X12276331Y-15724996D01*
X12426059Y-15695213D01*
X12567100Y-15636792D01*
X12694034Y-15551978D01*
X12796016Y-15449996D01*
X18475444Y-15449996D01*
X18500004Y-15452415D01*
X18524564Y-15449996D01*
X18598021Y-15442761D01*
X18692271Y-15414171D01*
X18779133Y-15367742D01*
X18855268Y-15305260D01*
X18870933Y-15286172D01*
X21733436Y-12423669D01*
X27025000Y-12423669D01*
X27025000Y-12576331D01*
X27054783Y-12726059D01*
X27113204Y-12867100D01*
X27198018Y-12994034D01*
X27305966Y-13101982D01*
X27432900Y-13186796D01*
X27573941Y-13245217D01*
X27723669Y-13275000D01*
X27876331Y-13275000D01*
X28026059Y-13245217D01*
X28167100Y-13186796D01*
X28294034Y-13101982D01*
X28401982Y-12994034D01*
X28486796Y-12867100D01*
X28545217Y-12726059D01*
X28575000Y-12576331D01*
X28575000Y-12423669D01*
X28545217Y-12273941D01*
X28486796Y-12132900D01*
X28401982Y-12005966D01*
X28294034Y-11898018D01*
X28167100Y-11813204D01*
X28026059Y-11754783D01*
X27876331Y-11725000D01*
X27723669Y-11725000D01*
X27573941Y-11754783D01*
X27432900Y-11813204D01*
X27305966Y-11898018D01*
X27198018Y-12005966D01*
X27113204Y-12132900D01*
X27054783Y-12273941D01*
X27025000Y-12423669D01*
X21733436Y-12423669D01*
X26885896Y-7271210D01*
X26846450Y-7366441D01*
X26816667Y-7516169D01*
X26816667Y-7668831D01*
X26846450Y-7818559D01*
X26904871Y-7959600D01*
X26989685Y-8086534D01*
X27097633Y-8194482D01*
X27224567Y-8279296D01*
X27365608Y-8337717D01*
X27515336Y-8367500D01*
X27667998Y-8367500D01*
X27817726Y-8337717D01*
X27958767Y-8279296D01*
X28085701Y-8194482D01*
X28193649Y-8086534D01*
X28278463Y-7959600D01*
X28336884Y-7818559D01*
X28366667Y-7668831D01*
X28366667Y-7516169D01*
X28336884Y-7366441D01*
X28278463Y-7225400D01*
X28193649Y-7098466D01*
X28085701Y-6990518D01*
X27958767Y-6905704D01*
X27817726Y-6847283D01*
X27667998Y-6817500D01*
X27515336Y-6817500D01*
X27365608Y-6847283D01*
X27270377Y-6886729D01*
X28582106Y-5575000D01*
X28726331Y-5575000D01*
X28876059Y-5545217D01*
X29017100Y-5486796D01*
X29144034Y-5401982D01*
X29251982Y-5294034D01*
X29336796Y-5167100D01*
X29395217Y-5026059D01*
X29425000Y-4876331D01*
X29425000Y-4723669D01*
X29395217Y-4573941D01*
X29336796Y-4432900D01*
X29251982Y-4305966D01*
X29144034Y-4198018D01*
X29017100Y-4113204D01*
X28876059Y-4054783D01*
X28726331Y-4025000D01*
X28573669Y-4025000D01*
X28423941Y-4054783D01*
X28282900Y-4113204D01*
X28155966Y-4198018D01*
X28048018Y-4305966D01*
X27963204Y-4432900D01*
X27904783Y-4573941D01*
X27875000Y-4723669D01*
X27875000Y-4867894D01*
X18292899Y-14449996D01*
X12796016Y-14449996D01*
X12694034Y-14348014D01*
X12567100Y-14263200D01*
X12456858Y-14217536D01*
X12475000Y-14126331D01*
X12475000Y-13973669D01*
X12445217Y-13823941D01*
X12386796Y-13682900D01*
X12301982Y-13555966D01*
X12194034Y-13448018D01*
X12067100Y-13363204D01*
X11926059Y-13304783D01*
X11776331Y-13275000D01*
X11623669Y-13275000D01*
X11473941Y-13304783D01*
X11332900Y-13363204D01*
X11205966Y-13448018D01*
X11098018Y-13555966D01*
X11013204Y-13682900D01*
X10954783Y-13823941D01*
X10925000Y-13973669D01*
X10925000Y-14095766D01*
X10826059Y-14054783D01*
X10676331Y-14025000D01*
X10523669Y-14025000D01*
X10373941Y-14054783D01*
X10232900Y-14113204D01*
X10105966Y-14198018D01*
X9998018Y-14305966D01*
X9913204Y-14432900D01*
X9854783Y-14573941D01*
X9825000Y-14723669D01*
X9825000Y-14875000D01*
X9723669Y-14875000D01*
X9573941Y-14904783D01*
X9432900Y-14963204D01*
X9305966Y-15048018D01*
X9198018Y-15155966D01*
X9113204Y-15282900D01*
X9054783Y-15423941D01*
X9025000Y-15573669D01*
X8383437Y-15573669D01*
X8936187Y-15020920D01*
X8955264Y-15005264D01*
X8989169Y-14963951D01*
X9017746Y-14929129D01*
X9043710Y-14880554D01*
X9064175Y-14842267D01*
X9092765Y-14748017D01*
X9100000Y-14674560D01*
X9102419Y-14650000D01*
X9100000Y-14625440D01*
X9100000Y-13016169D01*
X12516667Y-13016169D01*
X12516667Y-13168831D01*
X12546450Y-13318559D01*
X12604871Y-13459600D01*
X12689685Y-13586534D01*
X12797633Y-13694482D01*
X12924567Y-13779296D01*
X13065608Y-13837717D01*
X13215336Y-13867500D01*
X13367998Y-13867500D01*
X13517726Y-13837717D01*
X13658767Y-13779296D01*
X13785701Y-13694482D01*
X13893649Y-13586534D01*
X13978463Y-13459600D01*
X14036884Y-13318559D01*
X14066667Y-13168831D01*
X14066667Y-13016169D01*
X14036884Y-12866441D01*
X13978463Y-12725400D01*
X13893649Y-12598466D01*
X13785701Y-12490518D01*
X13658767Y-12405704D01*
X13517726Y-12347283D01*
X13367998Y-12317500D01*
X13215336Y-12317500D01*
X13065608Y-12347283D01*
X12924567Y-12405704D01*
X12797633Y-12490518D01*
X12689685Y-12598466D01*
X12604871Y-12725400D01*
X12546450Y-12866441D01*
X12516667Y-13016169D01*
X9100000Y-13016169D01*
X9100000Y-11373669D01*
X11425000Y-11373669D01*
X11425000Y-11526331D01*
X11454783Y-11676059D01*
X11513204Y-11817100D01*
X11598018Y-11944034D01*
X11705966Y-12051982D01*
X11832900Y-12136796D01*
X11973941Y-12195217D01*
X12123669Y-12225000D01*
X12276331Y-12225000D01*
X12426059Y-12195217D01*
X12567100Y-12136796D01*
X12694034Y-12051982D01*
X12801982Y-11944034D01*
X12820600Y-11916169D01*
X15816667Y-11916169D01*
X15816667Y-12068831D01*
X15846450Y-12218559D01*
X15904871Y-12359600D01*
X15989685Y-12486534D01*
X16097633Y-12594482D01*
X16224567Y-12679296D01*
X16365608Y-12737717D01*
X16515336Y-12767500D01*
X16667998Y-12767500D01*
X16817726Y-12737717D01*
X16958767Y-12679296D01*
X17085701Y-12594482D01*
X17193649Y-12486534D01*
X17278463Y-12359600D01*
X17293346Y-12323669D01*
X17825000Y-12323669D01*
X17825000Y-12476331D01*
X17854783Y-12626059D01*
X17913204Y-12767100D01*
X17998018Y-12894034D01*
X18105966Y-13001982D01*
X18232900Y-13086796D01*
X18373941Y-13145217D01*
X18523669Y-13175000D01*
X18676331Y-13175000D01*
X18826059Y-13145217D01*
X18967100Y-13086796D01*
X19094034Y-13001982D01*
X19201982Y-12894034D01*
X19286796Y-12767100D01*
X19345217Y-12626059D01*
X19375000Y-12476331D01*
X19375000Y-12323669D01*
X19345217Y-12173941D01*
X19286796Y-12032900D01*
X19201982Y-11905966D01*
X19094034Y-11798018D01*
X18967100Y-11713204D01*
X18826059Y-11654783D01*
X18676331Y-11625000D01*
X18523669Y-11625000D01*
X18373941Y-11654783D01*
X18232900Y-11713204D01*
X18105966Y-11798018D01*
X17998018Y-11905966D01*
X17913204Y-12032900D01*
X17854783Y-12173941D01*
X17825000Y-12323669D01*
X17293346Y-12323669D01*
X17336884Y-12218559D01*
X17366667Y-12068831D01*
X17366667Y-11916169D01*
X17336884Y-11766441D01*
X17278463Y-11625400D01*
X17193649Y-11498466D01*
X17085701Y-11390518D01*
X16958767Y-11305704D01*
X16817726Y-11247283D01*
X16667998Y-11217500D01*
X16515336Y-11217500D01*
X16365608Y-11247283D01*
X16224567Y-11305704D01*
X16097633Y-11390518D01*
X15989685Y-11498466D01*
X15904871Y-11625400D01*
X15846450Y-11766441D01*
X15816667Y-11916169D01*
X12820600Y-11916169D01*
X12886796Y-11817100D01*
X12945217Y-11676059D01*
X12975000Y-11526331D01*
X12975000Y-11373669D01*
X12945217Y-11223941D01*
X12886796Y-11082900D01*
X12801982Y-10955966D01*
X12694034Y-10848018D01*
X12567100Y-10763204D01*
X12426059Y-10704783D01*
X12276331Y-10675000D01*
X12123669Y-10675000D01*
X11973941Y-10704783D01*
X11832900Y-10763204D01*
X11705966Y-10848018D01*
X11598018Y-10955966D01*
X11513204Y-11082900D01*
X11454783Y-11223941D01*
X11425000Y-11373669D01*
X9100000Y-11373669D01*
X9100000Y-10273669D01*
X9525000Y-10273669D01*
X9525000Y-10426331D01*
X9554783Y-10576059D01*
X9613204Y-10717100D01*
X9698018Y-10844034D01*
X9805966Y-10951982D01*
X9932900Y-11036796D01*
X10073941Y-11095217D01*
X10223669Y-11125000D01*
X10376331Y-11125000D01*
X10526059Y-11095217D01*
X10667100Y-11036796D01*
X10794034Y-10951982D01*
X10901982Y-10844034D01*
X10986796Y-10717100D01*
X11045217Y-10576059D01*
X11075000Y-10426331D01*
X11075000Y-10273669D01*
X11055109Y-10173669D01*
X14525000Y-10173669D01*
X14525000Y-10326331D01*
X14554783Y-10476059D01*
X14613204Y-10617100D01*
X14698018Y-10744034D01*
X14805966Y-10851982D01*
X14932900Y-10936796D01*
X15073941Y-10995217D01*
X15223669Y-11025000D01*
X15376331Y-11025000D01*
X15526059Y-10995217D01*
X15667100Y-10936796D01*
X15794034Y-10851982D01*
X15901982Y-10744034D01*
X15986796Y-10617100D01*
X16045217Y-10476059D01*
X16075000Y-10326331D01*
X16075000Y-10173669D01*
X16045217Y-10023941D01*
X15986796Y-9882900D01*
X15901982Y-9755966D01*
X15794034Y-9648018D01*
X15667100Y-9563204D01*
X15526059Y-9504783D01*
X15376331Y-9475000D01*
X15223669Y-9475000D01*
X15073941Y-9504783D01*
X14932900Y-9563204D01*
X14805966Y-9648018D01*
X14698018Y-9755966D01*
X14613204Y-9882900D01*
X14554783Y-10023941D01*
X14525000Y-10173669D01*
X11055109Y-10173669D01*
X11045217Y-10123941D01*
X10986796Y-9982900D01*
X10901982Y-9855966D01*
X10794034Y-9748018D01*
X10667100Y-9663204D01*
X10526059Y-9604783D01*
X10376331Y-9575000D01*
X10223669Y-9575000D01*
X10073941Y-9604783D01*
X9932900Y-9663204D01*
X9805966Y-9748018D01*
X9698018Y-9855966D01*
X9613204Y-9982900D01*
X9554783Y-10123941D01*
X9525000Y-10273669D01*
X9100000Y-10273669D01*
X9100000Y-9440105D01*
X10074171Y-8465936D01*
X10108204Y-8548100D01*
X10193018Y-8675034D01*
X10300966Y-8782982D01*
X10427900Y-8867796D01*
X10568941Y-8926217D01*
X10718669Y-8956000D01*
X10871331Y-8956000D01*
X11021059Y-8926217D01*
X11162100Y-8867796D01*
X11289034Y-8782982D01*
X11396982Y-8675034D01*
X11481796Y-8548100D01*
X11527312Y-8438214D01*
X11598018Y-8544034D01*
X11705966Y-8651982D01*
X11832900Y-8736796D01*
X11973941Y-8795217D01*
X12123669Y-8825000D01*
X12276331Y-8825000D01*
X12426059Y-8795217D01*
X12567100Y-8736796D01*
X12694034Y-8651982D01*
X12801982Y-8544034D01*
X12886796Y-8417100D01*
X12945217Y-8276059D01*
X12975000Y-8126331D01*
X12975000Y-7973669D01*
X12945217Y-7823941D01*
X12886796Y-7682900D01*
X12801982Y-7555966D01*
X12762185Y-7516169D01*
X14716667Y-7516169D01*
X14716667Y-7668831D01*
X14746450Y-7818559D01*
X14804871Y-7959600D01*
X14889685Y-8086534D01*
X14997633Y-8194482D01*
X15124567Y-8279296D01*
X15265608Y-8337717D01*
X15415336Y-8367500D01*
X15567998Y-8367500D01*
X15717726Y-8337717D01*
X15858767Y-8279296D01*
X15985701Y-8194482D01*
X16093649Y-8086534D01*
X16178463Y-7959600D01*
X16236884Y-7818559D01*
X16266667Y-7668831D01*
X16266667Y-7516169D01*
X16236884Y-7366441D01*
X16178463Y-7225400D01*
X16093649Y-7098466D01*
X15985701Y-6990518D01*
X15858767Y-6905704D01*
X15717726Y-6847283D01*
X15567998Y-6817500D01*
X15415336Y-6817500D01*
X15265608Y-6847283D01*
X15124567Y-6905704D01*
X14997633Y-6990518D01*
X14889685Y-7098466D01*
X14804871Y-7225400D01*
X14746450Y-7366441D01*
X14716667Y-7516169D01*
X12762185Y-7516169D01*
X12694034Y-7448018D01*
X12567100Y-7363204D01*
X12426059Y-7304783D01*
X12276331Y-7275000D01*
X12132106Y-7275000D01*
X11939929Y-7082824D01*
X11924264Y-7063736D01*
X11848129Y-7001254D01*
X11761267Y-6954825D01*
X11667017Y-6926235D01*
X11593560Y-6919000D01*
X11569000Y-6916581D01*
X11544440Y-6919000D01*
X10984696Y-6919000D01*
X11487527Y-6416169D01*
X18016667Y-6416169D01*
X18016667Y-6568831D01*
X18046450Y-6718559D01*
X18104871Y-6859600D01*
X18189685Y-6986534D01*
X18297633Y-7094482D01*
X18424567Y-7179296D01*
X18565608Y-7237717D01*
X18715336Y-7267500D01*
X18867998Y-7267500D01*
X19017726Y-7237717D01*
X19158767Y-7179296D01*
X19285701Y-7094482D01*
X19393649Y-6986534D01*
X19478463Y-6859600D01*
X19536884Y-6718559D01*
X19566667Y-6568831D01*
X19566667Y-6416169D01*
X19536884Y-6266441D01*
X19478463Y-6125400D01*
X19393649Y-5998466D01*
X19285701Y-5890518D01*
X19158767Y-5805704D01*
X19017726Y-5747283D01*
X18867998Y-5717500D01*
X18715336Y-5717500D01*
X18565608Y-5747283D01*
X18424567Y-5805704D01*
X18297633Y-5890518D01*
X18189685Y-5998466D01*
X18104871Y-6125400D01*
X18046450Y-6266441D01*
X18016667Y-6416169D01*
X11487527Y-6416169D01*
X11653696Y-6250000D01*
X15575440Y-6250000D01*
X15600000Y-6252419D01*
X15624560Y-6250000D01*
X15698017Y-6242765D01*
X15792267Y-6214175D01*
X15879129Y-6167746D01*
X15955264Y-6105264D01*
X15970929Y-6086176D01*
X16536181Y-5520925D01*
X16555264Y-5505264D01*
X16617746Y-5429129D01*
X16664175Y-5342267D01*
X16692765Y-5248017D01*
X16700000Y-5174560D01*
X16700000Y-5174559D01*
X16702419Y-5150001D01*
X16700000Y-5125443D01*
X16700000Y-4574557D01*
X16702419Y-4549999D01*
X16694625Y-4470871D01*
X16692765Y-4451983D01*
X16664175Y-4357733D01*
X16617746Y-4270871D01*
X16555264Y-4194736D01*
X16536181Y-4179075D01*
X16075000Y-3717895D01*
X16075000Y-3573669D01*
X16045217Y-3423941D01*
X15986796Y-3282900D01*
X15901982Y-3155966D01*
X15862185Y-3116169D01*
X16916667Y-3116169D01*
X16916667Y-3268831D01*
X16946450Y-3418559D01*
X17004871Y-3559600D01*
X17089685Y-3686534D01*
X17197633Y-3794482D01*
X17324567Y-3879296D01*
X17465608Y-3937717D01*
X17615336Y-3967500D01*
X17767998Y-3967500D01*
X17917726Y-3937717D01*
X18058767Y-3879296D01*
X18185701Y-3794482D01*
X18293649Y-3686534D01*
X18378463Y-3559600D01*
X18436884Y-3418559D01*
X18466667Y-3268831D01*
X18466667Y-3116169D01*
X25716667Y-3116169D01*
X25716667Y-3268831D01*
X25746450Y-3418559D01*
X25804871Y-3559600D01*
X25889685Y-3686534D01*
X25997633Y-3794482D01*
X26124567Y-3879296D01*
X26265608Y-3937717D01*
X26415336Y-3967500D01*
X26567998Y-3967500D01*
X26717726Y-3937717D01*
X26858767Y-3879296D01*
X26985701Y-3794482D01*
X27093649Y-3686534D01*
X27178463Y-3559600D01*
X27236884Y-3418559D01*
X27266667Y-3268831D01*
X27266667Y-3116169D01*
X27236884Y-2966441D01*
X27178463Y-2825400D01*
X27093649Y-2698466D01*
X26985701Y-2590518D01*
X26858767Y-2505704D01*
X26717726Y-2447283D01*
X26567998Y-2417500D01*
X26415336Y-2417500D01*
X26265608Y-2447283D01*
X26124567Y-2505704D01*
X25997633Y-2590518D01*
X25889685Y-2698466D01*
X25804871Y-2825400D01*
X25746450Y-2966441D01*
X25716667Y-3116169D01*
X18466667Y-3116169D01*
X18436884Y-2966441D01*
X18378463Y-2825400D01*
X18293649Y-2698466D01*
X18185701Y-2590518D01*
X18058767Y-2505704D01*
X17917726Y-2447283D01*
X17767998Y-2417500D01*
X17615336Y-2417500D01*
X17465608Y-2447283D01*
X17324567Y-2505704D01*
X17197633Y-2590518D01*
X17089685Y-2698466D01*
X17004871Y-2825400D01*
X16946450Y-2966441D01*
X16916667Y-3116169D01*
X15862185Y-3116169D01*
X15794034Y-3048018D01*
X15667100Y-2963204D01*
X15526059Y-2904783D01*
X15376331Y-2875000D01*
X15223669Y-2875000D01*
X15073941Y-2904783D01*
X14932900Y-2963204D01*
X14805966Y-3048018D01*
X14698018Y-3155966D01*
X14613204Y-3282900D01*
X14554783Y-3423941D01*
X14525000Y-3573669D01*
X14525000Y-3726331D01*
X14554783Y-3876059D01*
X14613204Y-4017100D01*
X14698018Y-4144034D01*
X14753984Y-4200000D01*
X14703984Y-4250000D01*
X11834735Y-4250000D01*
X11810177Y-4247581D01*
X11785619Y-4250000D01*
X11785618Y-4250000D01*
X11712161Y-4257235D01*
X11617911Y-4285825D01*
X11531049Y-4332254D01*
X11454914Y-4394736D01*
X11439253Y-4413819D01*
X7163824Y-8689249D01*
X7144736Y-8704914D01*
X7082254Y-8781049D01*
X7035825Y-8867912D01*
X7018139Y-8926217D01*
X7007235Y-8962161D01*
X6997581Y-9060178D01*
X7000000Y-9084738D01*
X7000001Y-10522893D01*
X4977575Y-12545319D01*
X4897319Y-12512076D01*
X4660652Y-12465000D01*
X4419348Y-12465000D01*
X4182681Y-12512076D01*
X3959745Y-12604419D01*
X3759108Y-12738481D01*
X3588481Y-12909108D01*
X3454419Y-13109745D01*
X3362076Y-13332681D01*
X3315000Y-13569348D01*
X3315000Y-13810652D01*
X3362076Y-14047319D01*
X3454419Y-14270255D01*
X3588481Y-14470892D01*
X3759108Y-14641519D01*
X3959745Y-14775581D01*
X4182681Y-14867924D01*
X4419348Y-14915000D01*
X4660652Y-14915000D01*
X4897319Y-14867924D01*
X5120255Y-14775581D01*
X5320892Y-14641519D01*
X5491519Y-14470892D01*
X5625581Y-14270255D01*
X5717924Y-14047319D01*
X5765000Y-13810652D01*
X5765000Y-13569348D01*
X5717924Y-13332681D01*
X5684681Y-13252425D01*
X7600001Y-11337105D01*
X7600001Y-12462892D01*
X4977575Y-15085319D01*
X4897319Y-15052076D01*
X4660652Y-15005000D01*
X4419348Y-15005000D01*
X4182681Y-15052076D01*
X3959745Y-15144419D01*
X3759108Y-15278481D01*
X3588481Y-15449108D01*
X3454419Y-15649745D01*
X3362076Y-15872681D01*
X3315000Y-16109348D01*
X3315000Y-16350652D01*
X3362076Y-16587319D01*
X3454419Y-16810255D01*
X3588481Y-17010892D01*
X3672588Y-17094999D01*
X3199550Y-17094999D01*
X3175000Y-17092581D01*
X3150450Y-17094999D01*
X3150441Y-17094999D01*
X3076984Y-17102234D01*
X2982734Y-17130824D01*
X2895872Y-17177253D01*
X2819737Y-17239735D01*
X2804081Y-17258812D01*
X2437575Y-17625319D01*
X2357319Y-17592076D01*
X2120652Y-17545000D01*
X1879348Y-17545000D01*
X1642681Y-17592076D01*
X1419745Y-17684419D01*
X1219108Y-17818481D01*
X1048481Y-17989108D01*
X914419Y-18189745D01*
X822076Y-18412681D01*
X775000Y-18649348D01*
X425000Y-18649348D01*
X425000Y-16109348D01*
X775000Y-16109348D01*
X775000Y-16350652D01*
X822076Y-16587319D01*
X914419Y-16810255D01*
X1048481Y-17010892D01*
X1219108Y-17181519D01*
X1419745Y-17315581D01*
X1642681Y-17407924D01*
X1879348Y-17455000D01*
X2120652Y-17455000D01*
X2357319Y-17407924D01*
X2580255Y-17315581D01*
X2780892Y-17181519D01*
X2951519Y-17010892D01*
X3085581Y-16810255D01*
X3177924Y-16587319D01*
X3225000Y-16350652D01*
X3225000Y-16109348D01*
X3177924Y-15872681D01*
X3085581Y-15649745D01*
X2951519Y-15449108D01*
X2780892Y-15278481D01*
X2580255Y-15144419D01*
X2357319Y-15052076D01*
X2120652Y-15005000D01*
X1879348Y-15005000D01*
X1642681Y-15052076D01*
X1419745Y-15144419D01*
X1219108Y-15278481D01*
X1048481Y-15449108D01*
X914419Y-15649745D01*
X822076Y-15872681D01*
X775000Y-16109348D01*
X425000Y-16109348D01*
X425000Y-13569348D01*
X775000Y-13569348D01*
X775000Y-13810652D01*
X822076Y-14047319D01*
X914419Y-14270255D01*
X1048481Y-14470892D01*
X1219108Y-14641519D01*
X1419745Y-14775581D01*
X1642681Y-14867924D01*
X1879348Y-14915000D01*
X2120652Y-14915000D01*
X2357319Y-14867924D01*
X2580255Y-14775581D01*
X2780892Y-14641519D01*
X2951519Y-14470892D01*
X3085581Y-14270255D01*
X3177924Y-14047319D01*
X3225000Y-13810652D01*
X3225000Y-13569348D01*
X3177924Y-13332681D01*
X3085581Y-13109745D01*
X2951519Y-12909108D01*
X2780892Y-12738481D01*
X2580255Y-12604419D01*
X2357319Y-12512076D01*
X2120652Y-12465000D01*
X1879348Y-12465000D01*
X1642681Y-12512076D01*
X1419745Y-12604419D01*
X1219108Y-12738481D01*
X1048481Y-12909108D01*
X914419Y-13109745D01*
X822076Y-13332681D01*
X775000Y-13569348D01*
X425000Y-13569348D01*
X425000Y-10300000D01*
X773186Y-10300000D01*
X773186Y-12000000D01*
X780426Y-12073513D01*
X801869Y-12144200D01*
X836691Y-12209347D01*
X883552Y-12266448D01*
X940653Y-12313309D01*
X1005800Y-12348131D01*
X1076487Y-12369574D01*
X1150000Y-12376814D01*
X2850000Y-12376814D01*
X2923513Y-12369574D01*
X2994200Y-12348131D01*
X3059347Y-12313309D01*
X3116448Y-12266448D01*
X3163309Y-12209347D01*
X3198131Y-12144200D01*
X3219574Y-12073513D01*
X3226814Y-12000000D01*
X3226814Y-11029348D01*
X3315000Y-11029348D01*
X3315000Y-11270652D01*
X3362076Y-11507319D01*
X3454419Y-11730255D01*
X3588481Y-11930892D01*
X3759108Y-12101519D01*
X3959745Y-12235581D01*
X4182681Y-12327924D01*
X4419348Y-12375000D01*
X4660652Y-12375000D01*
X4897319Y-12327924D01*
X5120255Y-12235581D01*
X5320892Y-12101519D01*
X5491519Y-11930892D01*
X5625581Y-11730255D01*
X5717924Y-11507319D01*
X5765000Y-11270652D01*
X5765000Y-11029348D01*
X5717924Y-10792681D01*
X5625581Y-10569745D01*
X5491519Y-10369108D01*
X5320892Y-10198481D01*
X5120255Y-10064419D01*
X4897319Y-9972076D01*
X4660652Y-9925000D01*
X4419348Y-9925000D01*
X4182681Y-9972076D01*
X3959745Y-10064419D01*
X3759108Y-10198481D01*
X3588481Y-10369108D01*
X3454419Y-10569745D01*
X3362076Y-10792681D01*
X3315000Y-11029348D01*
X3226814Y-11029348D01*
X3226814Y-10300000D01*
X3219574Y-10226487D01*
X3198131Y-10155800D01*
X3163309Y-10090653D01*
X3116448Y-10033552D01*
X3059347Y-9986691D01*
X2994200Y-9951869D01*
X2923513Y-9930426D01*
X2850000Y-9923186D01*
X1150000Y-9923186D01*
X1076487Y-9930426D01*
X1005800Y-9951869D01*
X940653Y-9986691D01*
X883552Y-10033552D01*
X836691Y-10090653D01*
X801869Y-10155800D01*
X780426Y-10226487D01*
X773186Y-10300000D01*
X425000Y-10300000D01*
X425000Y-6610723D01*
X446450Y-6718559D01*
X504871Y-6859600D01*
X589685Y-6986534D01*
X697633Y-7094482D01*
X824567Y-7179296D01*
X965608Y-7237717D01*
X1115336Y-7267500D01*
X1267998Y-7267500D01*
X1417726Y-7237717D01*
X1558767Y-7179296D01*
X1685701Y-7094482D01*
X1793649Y-6986534D01*
X1878463Y-6859600D01*
X1936884Y-6718559D01*
X1966667Y-6568831D01*
X1966667Y-6416169D01*
X1936884Y-6266441D01*
X1878463Y-6125400D01*
X1793649Y-5998466D01*
X1685701Y-5890518D01*
X1558767Y-5805704D01*
X1417726Y-5747283D01*
X1267998Y-5717500D01*
X1115336Y-5717500D01*
X965608Y-5747283D01*
X824567Y-5805704D01*
X697633Y-5890518D01*
X589685Y-5998466D01*
X504871Y-6125400D01*
X446450Y-6266441D01*
X425000Y-6374277D01*
X425000Y-3243615D01*
X523956Y-3741100D01*
X718065Y-4209720D01*
X999867Y-4631467D01*
X1358533Y-4990133D01*
X1780280Y-5271935D01*
X2248900Y-5466044D01*
X2746385Y-5565000D01*
X3253615Y-5565000D01*
X3751100Y-5466044D01*
X4219720Y-5271935D01*
X4641467Y-4990133D01*
X5000133Y-4631467D01*
X5055456Y-4548669D01*
X5321000Y-4548669D01*
X5321000Y-4701331D01*
X5350783Y-4851059D01*
X5409204Y-4992100D01*
X5494018Y-5119034D01*
X5601966Y-5226982D01*
X5728900Y-5311796D01*
X5869941Y-5370217D01*
X6019669Y-5400000D01*
X6172331Y-5400000D01*
X6322059Y-5370217D01*
X6463100Y-5311796D01*
X6590034Y-5226982D01*
X6697982Y-5119034D01*
X6782796Y-4992100D01*
X6841217Y-4851059D01*
X6871000Y-4701331D01*
X6871000Y-4548669D01*
X6841217Y-4398941D01*
X6782796Y-4257900D01*
X6697982Y-4130966D01*
X6590034Y-4023018D01*
X6463100Y-3938204D01*
X6322059Y-3879783D01*
X6172331Y-3850000D01*
X6019669Y-3850000D01*
X5869941Y-3879783D01*
X5728900Y-3938204D01*
X5601966Y-4023018D01*
X5494018Y-4130966D01*
X5409204Y-4257900D01*
X5350783Y-4398941D01*
X5321000Y-4548669D01*
X5055456Y-4548669D01*
X5281935Y-4209720D01*
X5476044Y-3741100D01*
X5504090Y-3600106D01*
X5555966Y-3651982D01*
X5682900Y-3736796D01*
X5823941Y-3795217D01*
X5973669Y-3825000D01*
X6126331Y-3825000D01*
X6276059Y-3795217D01*
X6417100Y-3736796D01*
X6544034Y-3651982D01*
X6651982Y-3544034D01*
X6736796Y-3417100D01*
X6795217Y-3276059D01*
X6825000Y-3126331D01*
X6825000Y-2973669D01*
X6795217Y-2823941D01*
X6736796Y-2682900D01*
X6651982Y-2555966D01*
X6596016Y-2500000D01*
X6651982Y-2444034D01*
X6736796Y-2317100D01*
X6795217Y-2176059D01*
X6825000Y-2026331D01*
X6825000Y-1873669D01*
X6795217Y-1723941D01*
X6736796Y-1582900D01*
X6651982Y-1455966D01*
X6544034Y-1348018D01*
X6507593Y-1323669D01*
X10725000Y-1323669D01*
X10725000Y-1476331D01*
X10754783Y-1626059D01*
X10813204Y-1767100D01*
X10898018Y-1894034D01*
X11005966Y-2001982D01*
X11132900Y-2086796D01*
X11273941Y-2145217D01*
X11423669Y-2175000D01*
X11576331Y-2175000D01*
X11726059Y-2145217D01*
X11867100Y-2086796D01*
X11994034Y-2001982D01*
X12101982Y-1894034D01*
X12186796Y-1767100D01*
X12245217Y-1626059D01*
X12275000Y-1476331D01*
X12275000Y-1323669D01*
X12325000Y-1323669D01*
X12325000Y-1476331D01*
X12354783Y-1626059D01*
X12413204Y-1767100D01*
X12498018Y-1894034D01*
X12605966Y-2001982D01*
X12732900Y-2086796D01*
X12873941Y-2145217D01*
X13023669Y-2175000D01*
X13176331Y-2175000D01*
X13326059Y-2145217D01*
X13467100Y-2086796D01*
X13594034Y-2001982D01*
X13701982Y-1894034D01*
X13786796Y-1767100D01*
X13845217Y-1626059D01*
X13875000Y-1476331D01*
X13875000Y-1323669D01*
X13845217Y-1173941D01*
X13786796Y-1032900D01*
X13701982Y-905966D01*
X13594034Y-798018D01*
X13467100Y-713204D01*
X13326059Y-654783D01*
X13176331Y-625000D01*
X13023669Y-625000D01*
X12873941Y-654783D01*
X12732900Y-713204D01*
X12605966Y-798018D01*
X12498018Y-905966D01*
X12413204Y-1032900D01*
X12354783Y-1173941D01*
X12325000Y-1323669D01*
X12275000Y-1323669D01*
X12245217Y-1173941D01*
X12186796Y-1032900D01*
X12101982Y-905966D01*
X11994034Y-798018D01*
X11867100Y-713204D01*
X11726059Y-654783D01*
X11576331Y-625000D01*
X11423669Y-625000D01*
X11273941Y-654783D01*
X11132900Y-713204D01*
X11005966Y-798018D01*
X10898018Y-905966D01*
X10813204Y-1032900D01*
X10754783Y-1173941D01*
X10725000Y-1323669D01*
X6507593Y-1323669D01*
X6417100Y-1263204D01*
X6276059Y-1204783D01*
X6126331Y-1175000D01*
X5973669Y-1175000D01*
X5823941Y-1204783D01*
X5682900Y-1263204D01*
X5555966Y-1348018D01*
X5448018Y-1455966D01*
X5363204Y-1582900D01*
X5304783Y-1723941D01*
X5291143Y-1792511D01*
X5281935Y-1770280D01*
X5000133Y-1348533D01*
X4641467Y-989867D01*
X4219720Y-708065D01*
X3751100Y-513956D01*
X3253615Y-415000D01*
X43946385Y-415000D01*
X43448900Y-513956D01*
G37*
G04 #@! TD.AperFunction*
M02*
