G04 #@! TF.GenerationSoftware,KiCad,Pcbnew,5.1.8-5.1.8*
G04 #@! TF.CreationDate,2020-12-27T23:55:11+01:00*
G04 #@! TF.ProjectId,ublox-breakout,75626c6f-782d-4627-9265-616b6f75742e,rev?*
G04 #@! TF.SameCoordinates,PX71f6ce0PY7cfd120*
G04 #@! TF.FileFunction,Legend,Bot*
G04 #@! TF.FilePolarity,Positive*
%FSLAX46Y46*%
G04 Gerber Fmt 4.6, Leading zero omitted, Abs format (unit mm)*
G04 Created by KiCad (PCBNEW 5.1.8-5.1.8) date 2020-12-27 23:55:11*
%MOMM*%
%LPD*%
G01*
G04 APERTURE LIST*
%ADD10C,0.120000*%
%ADD11C,0.150000*%
%ADD12C,2.250000*%
%ADD13C,2.050000*%
%ADD14C,10.200000*%
%ADD15R,3.300000X3.500000*%
%ADD16C,0.700000*%
%ADD17C,4.400000*%
%ADD18O,1.700000X1.700000*%
%ADD19R,1.700000X1.700000*%
G04 APERTURE END LIST*
D10*
X19750000Y14150000D02*
X21200000Y14150000D01*
X17150000Y16750000D02*
X19750000Y14150000D01*
X16350000Y16750000D02*
X17150000Y16750000D01*
X16350000Y25050000D02*
X16350000Y16750000D01*
X17150000Y25050000D02*
X16350000Y25050000D01*
X19750000Y27650000D02*
X17150000Y25050000D01*
X21200000Y27650000D02*
X19750000Y27650000D01*
X25200000Y27650000D02*
X27300000Y27650000D01*
X25200000Y14150000D02*
X27300000Y14150000D01*
X27250000Y27650000D02*
G75*
G02*
X28800000Y26200000I50000J-1500000D01*
G01*
X27250000Y14150000D02*
G75*
G03*
X28800000Y15600000I50000J1500000D01*
G01*
X28784160Y26314615D02*
G75*
G02*
X28400000Y25400000I-984160J-124615D01*
G01*
X28784160Y15485385D02*
G75*
G03*
X28400000Y16400000I-984160J124615D01*
G01*
D11*
X15135714Y21607143D02*
X15178571Y21478572D01*
X15221428Y21435715D01*
X15307142Y21392858D01*
X15435714Y21392858D01*
X15521428Y21435715D01*
X15564285Y21478572D01*
X15607142Y21564286D01*
X15607142Y21907143D01*
X14707142Y21907143D01*
X14707142Y21607143D01*
X14750000Y21521429D01*
X14792857Y21478572D01*
X14878571Y21435715D01*
X14964285Y21435715D01*
X15050000Y21478572D01*
X15092857Y21521429D01*
X15135714Y21607143D01*
X15135714Y21907143D01*
X14707142Y21135715D02*
X14707142Y20621429D01*
X15607142Y20878572D02*
X14707142Y20878572D01*
X15607142Y19850000D02*
X15607142Y20364286D01*
X15607142Y20107143D02*
X14707142Y20107143D01*
X14835714Y20192858D01*
X14921428Y20278572D01*
X14964285Y20364286D01*
%LPC*%
D12*
X19340000Y7440000D03*
X19340000Y2360000D03*
X14260000Y2360000D03*
X14260000Y7440000D03*
D13*
X16800000Y4900000D03*
D14*
X23200000Y20900000D03*
D15*
X23200000Y13000000D03*
X23200000Y28800000D03*
D16*
X4166726Y4226726D03*
X3000000Y4710000D03*
X1833274Y4226726D03*
X1350000Y3060000D03*
X1833274Y1893274D03*
X3000000Y1410000D03*
X4166726Y1893274D03*
X4650000Y3060000D03*
D17*
X3000000Y3060000D03*
D16*
X45366726Y4226726D03*
X44200000Y4710000D03*
X43033274Y4226726D03*
X42550000Y3060000D03*
X43033274Y1893274D03*
X44200000Y1410000D03*
X45366726Y1893274D03*
X45850000Y3060000D03*
D17*
X44200000Y3060000D03*
D16*
X45366726Y31426726D03*
X44200000Y31910000D03*
X43033274Y31426726D03*
X42550000Y30260000D03*
X43033274Y29093274D03*
X44200000Y28610000D03*
X45366726Y29093274D03*
X45850000Y30260000D03*
D17*
X44200000Y30260000D03*
D16*
X4166726Y31426726D03*
X3000000Y31910000D03*
X1833274Y31426726D03*
X1350000Y30260000D03*
X1833274Y29093274D03*
X3000000Y28610000D03*
X4166726Y29093274D03*
X4650000Y30260000D03*
D17*
X3000000Y30260000D03*
D18*
X4540000Y9400000D03*
X2000000Y9400000D03*
X4540000Y11940000D03*
X2000000Y11940000D03*
X4540000Y14480000D03*
X2000000Y14480000D03*
X4540000Y17020000D03*
X2000000Y17020000D03*
X4540000Y19560000D03*
X2000000Y19560000D03*
X4540000Y22100000D03*
D19*
X2000000Y22100000D03*
D12*
X40260000Y9520000D03*
X40260000Y14600000D03*
X45340000Y14600000D03*
X45340000Y9520000D03*
D13*
X42800000Y12060000D03*
M02*
